<?xml version="1.0" encoding="UTF-8" standalone="no"?>
<svg
   xmlns:dc="http://purl.org/dc/elements/1.1/"
   xmlns:cc="http://creativecommons.org/ns#"
   xmlns:rdf="http://www.w3.org/1999/02/22-rdf-syntax-ns#"
   xmlns:svg="http://www.w3.org/2000/svg"
   xmlns="http://www.w3.org/2000/svg"
   xmlns:sodipodi="http://sodipodi.sourceforge.net/DTD/sodipodi-0.dtd"
   xmlns:inkscape="http://www.inkscape.org/namespaces/inkscape"
   inkscape:version="1.0beta2 (2b71d25, 2019-12-03)"
   sodipodi:docname="arrow-increase.svg"
   x="0px"
   y="0px"
   version="1.1"
   width="40.007px"
   viewBox="0 0 40.007 40.007"
   height="40.007px"
   xml:space="preserve"
   style="enable-background:new 0 0 40.007 40.007;"
   id="Capa_1"><defs
     id="defs9" /><sodipodi:namedview
     inkscape:document-rotation="0"
     inkscape:current-layer="Capa_1"
     inkscape:window-maximized="0"
     inkscape:window-y="0"
     inkscape:window-x="0"
     inkscape:cy="20.0035"
     inkscape:cx="-10.934116"
     inkscape:zoom="5.8989677"
     showgrid="false"
     id="namedview7"
     inkscape:window-height="900"
     inkscape:window-width="1440"
     inkscape:pageshadow="2"
     inkscape:pageopacity="0"
     guidetolerance="10"
     gridtolerance="10"
     objecttolerance="10"
     borderopacity="1"
     bordercolor="#666666"
     pagecolor="#ffffff" /><metadata
     id="metadata42"><rdf:RDF><cc:Work
         rdf:about=""><dc:format>image/svg+xml</dc:format><dc:type
           rdf:resource="http://purl.org/dc/dcmitype/StillImage" /><dc:title /></cc:Work></rdf:RDF></metadata><path
     inkscape:connector-curvature="0"
     style="fill:#FF4500;fill-opacity:1;stroke:none"
     d="M 37.324,10.004 C 31.802,0.43800031 19.569,-2.8399997 10.004,2.6830003 0.438,8.2050003 -2.84,20.438 2.684,30.004 c 5.522,9.565 17.754,12.843 27.32,7.32 9.565,-5.523 12.844,-17.755 7.32,-27.32 z m -9.32,23.855 C 20.352,38.277 10.566,35.656 6.148,28.004 1.73,20.351 4.352,10.566 12.004,6.1480003 c 7.652,-4.419 17.438,-1.797 21.856,5.8559997 4.418,7.652 1.796,17.437 -5.856,21.855 z M 21.418,15.418 c -0.391,-0.391 -0.902,-0.586 -1.414,-0.586 -0.512,0 -1.023,0.195 -1.414,0.586 l -5.657,5.656 c -0.781,0.781 -0.781,2.048 0,2.829 v -10e-4 c 0.781,0.781 2.048,0.781 2.828,0 l 4.243,-4.242 4.242,4.242 c 0.781,0.781 2.048,0.781 2.828,0 v 10e-4 c 0.781,-0.781 0.781,-2.048 0,-2.829 z"
     id="path6" /></svg>
