<?xml version="1.0" encoding="UTF-8" standalone="no"?>
<svg
   xmlns:dc="http://purl.org/dc/elements/1.1/"
   xmlns:cc="http://creativecommons.org/ns#"
   xmlns:rdf="http://www.w3.org/1999/02/22-rdf-syntax-ns#"
   xmlns:svg="http://www.w3.org/2000/svg"
   xmlns="http://www.w3.org/2000/svg"
   xmlns:xlink="http://www.w3.org/1999/xlink"
   xmlns:sodipodi="http://sodipodi.sourceforge.net/DTD/sodipodi-0.dtd"
   xmlns:inkscape="http://www.inkscape.org/namespaces/inkscape"
   inkscape:version="1.0beta2 (2b71d25, 2019-12-03)"
   sodipodi:docname="bbc-logo.svg"
   width="205.66005mm"
   height="207.89409mm"
   viewBox="0 0 205.66004 207.89409"
   version="1.1"
   id="svg8">
  <sodipodi:namedview
     inkscape:document-rotation="0"
     inkscape:current-layer="svg8"
     inkscape:window-maximized="0"
     inkscape:window-y="22"
     inkscape:window-x="138"
     inkscape:cy="392.87071"
     inkscape:cx="-149.23331"
     inkscape:zoom="0.35788503"
     showgrid="false"
     id="namedview20"
     inkscape:window-height="856"
     inkscape:window-width="1302"
     inkscape:pageshadow="2"
     inkscape:pageopacity="0"
     guidetolerance="10"
     gridtolerance="10"
     objecttolerance="10"
     borderopacity="1"
     bordercolor="#666666"
     pagecolor="#ffffff" />
  <defs
     id="defs2">
    <linearGradient
       id="linearGradient846"
       inkscape:collect="always">
      <stop
         id="stop842"
         offset="0"
         style="stop-color:#fff663;stop-opacity:1;" />
      <stop
         id="stop844"
         offset="1"
         style="stop-color:#fb8626;stop-opacity:1" />
    </linearGradient>
    <marker
       orient="auto"
       refY="0.0"
       refX="0.0"
       id="marker8033"
       style="overflow:visible">
      <path
         id="path8031"
         style="fill-rule:evenodd;stroke-width:0.625;stroke-linejoin:round;stroke:#FFF663;stroke-opacity:1;fill:#FFF663;fill-opacity:1"
         d="M 8.7185878,4.0337352 L -2.2072895,0.016013256 L 8.7185884,-4.0017078 C 6.9730900,-1.6296469 6.9831476,1.6157441 8.7185878,4.0337352 z "
         transform="scale(1.1) translate(1,0)" />
    </marker>
    <marker
       orient="auto"
       refY="0.0"
       refX="0.0"
       id="marker7647"
       style="overflow:visible">
      <path
         id="path7645"
         style="fill-rule:evenodd;stroke-width:0.625;stroke-linejoin:round;stroke:#FFF663;stroke-opacity:1;fill:#FFF663;fill-opacity:1"
         d="M 8.7185878,4.0337352 L -2.2072895,0.016013256 L 8.7185884,-4.0017078 C 6.9730900,-1.6296469 6.9831476,1.6157441 8.7185878,4.0337352 z "
         transform="scale(1.1) translate(1,0)" />
    </marker>
    <linearGradient
       y2="254.67024"
       x2="106.21132"
       y1="48.537979"
       x1="107.56444"
       gradientUnits="userSpaceOnUse"
       id="linearGradient864"
       xlink:href="#linearGradient846"
       inkscape:collect="always" />
    <linearGradient
       y2="254.67024"
       x2="106.21132"
       y1="48.537979"
       x1="107.56444"
       gradientUnits="userSpaceOnUse"
       id="linearGradient868"
       xlink:href="#linearGradient846"
       inkscape:collect="always" />
    <linearGradient
       y2="254.67024"
       x2="106.21132"
       y1="48.537979"
       x1="107.56444"
       gradientUnits="userSpaceOnUse"
       id="linearGradient872"
       xlink:href="#linearGradient846"
       inkscape:collect="always" />
  </defs>
  <metadata
     id="metadata5">
    <rdf:RDF>
      <cc:Work
         rdf:about="">
        <dc:format>image/svg+xml</dc:format>
        <dc:type
           rdf:resource="http://purl.org/dc/dcmitype/StillImage" />
        <dc:title />
      </cc:Work>
    </rdf:RDF>
  </metadata>
  <g
     style="fill-opacity:1;stroke:#fb8626;fill:#FF4500;stroke-opacity:1"
     transform="matrix(0.54314307,0,0,-0.54314307,111.07931,112.17229)"
     id="g8">
    <path
       inkscape:connector-curvature="0"
       d="M 0,0 C 0,-11.25 -14,-10.583 -14,-10.583 H -28 V 9.75 h 14 C 0.417,9.833 0,0 0,0 m -28,40.75 h 10.667 C -6.25,40.166 -6.667,31.917 -6.667,31.917 -6.667,21.667 -18.917,21.5 -18.917,21.5 H -28 Z M -2.583,17.5 c 0,0 9.583,4.083 9.5,14.917 0,0 1.457,17.749 -22.063,19.916 H -41.25 v -74.416 h 29.917 c 0,0 25,-0.084 25,21 0,0 0.583,14.333 -16.25,18.583 m -67.545,49.416 h 109.88 v -103.54 h -109.88 z"
       id="path10"
       style="fill-opacity:1;fill-rule:nonzero;stroke:url(#linearGradient864);fill:#FF4500" />
  </g>
  <g
     style="fill-opacity:1;stroke:#fff663;fill:#FF4500;stroke-opacity:1"
     transform="matrix(0.54314307,0,0,-0.54314307,42.258442,112.17229)"
     id="g12">
    <path
       inkscape:connector-curvature="0"
       d="M 0,0 C 0,-11.25 -14,-10.583 -14,-10.583 H -28 V 9.75 h 14 C 0.417,9.833 0,0 0,0 m -28,40.75 h 10.667 C -6.25,40.166 -6.667,31.917 -6.667,31.917 -6.667,21.667 -18.917,21.5 -18.917,21.5 H -28 Z M -2.583,17.5 c 0,0 9.583,4.083 9.5,14.917 0,0 1.457,17.749 -22.063,19.916 H -41.25 v -74.416 h 29.917 c 0,0 25,-0.084 25,21 0,0 0.583,14.333 -16.25,18.583 m -67.545,49.416 h 109.88 v -103.54 h -109.88 z"
       id="path14"
       style="fill-opacity:1;fill-rule:nonzero;stroke:url(#linearGradient868);fill:#FF4500" />
  </g>
  <g
     style="fill-opacity:1;stroke:#fb8626;fill:#FF4500;stroke-opacity:1"
     transform="matrix(0.54314307,0,0,-0.54314307,189.31442,86.645331)"
     id="g16">
    <path
       inkscape:connector-curvature="0"
       d="m 0,0 v -13.75 c 0,0 -13.417,8.25 -28.25,8.417 0,0 -27.666,0.54 -28.916,-26.522 0,0 -1,-24.895 28.583,-26.312 0,0 12.417,-1.5 29.25,9.25 v -14.25 c 0,0 -22.583,-13.416 -48.75,-3.083 0,0 -22,8.04 -22.834,34.395 0,0 -0.917,27.105 28.417,36.105 0,0 7.834,3 21.917,1.667 0,0 8.416,-0.834 20.583,-5.917 m -87.461,-83.627 h 109.88 v 103.54 h -109.88 z"
       id="path18"
       style="fill-opacity:1;fill-rule:nonzero;stroke:url(#linearGradient872);fill:#FF4500" />
  </g>
  <style
     type="text/css"
     id="stylebodge1">[id^=&quot;polygon&quot;]{fill:#FFF663;fill-opacity:1}</style>
  <style
     type="text/css"
     id="stylebodge2">[id^=&quot;path&quot;]{fill:#FFF663;fill-opacity:1}</style>
</svg>
