<?xml version="1.0" encoding="UTF-8" standalone="no"?>
<svg
   xmlns:dc="http://purl.org/dc/elements/1.1/"
   xmlns:cc="http://creativecommons.org/ns#"
   xmlns:rdf="http://www.w3.org/1999/02/22-rdf-syntax-ns#"
   xmlns:svg="http://www.w3.org/2000/svg"
   xmlns="http://www.w3.org/2000/svg"
   version="1.1"
   id="Layer_1"
   x="0px"
   y="0px"
   viewBox="0 0 512 512"
   style="enable-background:new 0 0 512 512;"
   xml:space="preserve"><metadata
   id="metadata45167"><rdf:RDF><cc:Work
       rdf:about=""><dc:format>image/svg+xml</dc:format><dc:type
         rdf:resource="http://purl.org/dc/dcmitype/StillImage" /><dc:title></dc:title></cc:Work></rdf:RDF></metadata><defs
   id="defs45165" />
<g
   style="fill:#FF4500;fill-opacity:1"
   id="g45094">
	<g
   style="fill:#FF4500;fill-opacity:1"
   id="g45092">
		<path
   style="fill:#FF4500;fill-opacity:1"
   d="M354.133,31.695h-69.486c-5.051,0-9.143,4.094-9.143,9.143v98.743c0,5.049,4.092,9.143,9.143,9.143h69.486    c5.05,0,9.143-4.094,9.143-9.143V40.838C363.276,35.789,359.184,31.695,354.133,31.695z M344.99,130.438h-51.2V49.981h51.2    V130.438z"
   id="path45090" />
	</g>
</g>
<g
   style="fill:#FF4500;fill-opacity:1"
   id="g45100"
   transform="matrix(1,0,0,0.85125507,0,69.992374)">
	<g
   style="fill:#FF4500;fill-opacity:1"
   id="g45098">
		<path
   style="fill:#FF4500;fill-opacity:1"
   d="M 419.327,204.8 H 103.645 c -15.475,0 -28.064,12.589 -28.064,28.064 V 442.49 c 0,15.473 12.589,28.063 28.064,28.063 h 315.683 c 15.473,0 28.063,-12.589 28.063,-28.064 V 232.864 C 447.39,217.389 434.801,204.8 419.327,204.8 Z m 9.778,237.69 c 0,5.391 -4.386,9.778 -9.778,9.778 H 103.645 c -5.392,0 -9.778,-4.386 -9.778,-9.778 V 232.864 c 0,-5.391 4.386,-9.778 9.778,-9.778 h 315.683 c 5.391,0 9.777,4.386 9.777,9.778 z"
   id="path45096" />
	</g>
</g>

<g
   style="fill:#FF4500;fill-opacity:1"
   id="g45112">
	<g
   style="fill:#FF4500;fill-opacity:1"
   id="g45110">
		<path
   style="fill:#FF4500;fill-opacity:1"
   d="M401.067,299.886H121.905c-5.051,0-9.143,4.094-9.143,9.143c0,5.049,4.092,9.143,9.143,9.143h279.162    c5.05,0,9.143-4.094,9.143-9.143C410.21,303.979,406.117,299.886,401.067,299.886z"
   id="path45108" />
	</g>
</g>
<g
   style="fill:#FF4500;fill-opacity:1"
   id="g45118">
	<g
   style="fill:#FF4500;fill-opacity:1"
   id="g45116">
		<path
   style="fill:#FF4500;fill-opacity:1"
   d="M401.067,343.771H121.905c-5.051,0-9.143,4.094-9.143,9.143s4.092,9.143,9.143,9.143h279.162    c5.05,0,9.143-4.094,9.143-9.143S406.117,343.771,401.067,343.771z"
   id="path45114" />
	</g>
</g>
<g
   style="fill:#FF4500;fill-opacity:1"
   id="g45124">
	<g
   style="fill:#FF4500;fill-opacity:1"
   id="g45122">
		<path
   style="fill:#FF4500;fill-opacity:1"
   d="M494.913,37.705l-48.14-35.892C445.193,0.636,443.276,0,441.307,0H92.315c-5.051,0-9.143,4.094-9.143,9.143    c0,5.049,4.092,9.143,9.143,9.143H128v152.99c0,5.049,4.092,9.143,9.143,9.143h41.894c5.051,0,9.143-4.094,9.143-9.143    c0-0.095-0.011-0.187-0.015-0.28c0.002-0.094,0.015-0.187,0.015-0.28c0-5.049-4.092-9.143-9.143-9.143h-32.349V18.286h234.874    v143.287H215.608c-5.051,0-9.143,4.094-9.143,9.143c0,0.095,0.011,0.187,0.015,0.28c-0.002,0.094-0.015,0.186-0.015,0.28    c0,5.049,4.092,9.143,9.143,9.143h175.097c3.919,0,7.252-2.47,8.553-5.934c0.522-1.151,0.819-2.423,0.819-3.769V18.286h38.196    l42.032,31.338v347.915c0,5.049,4.092,9.143,9.143,9.143s9.143-4.094,9.143-9.143V45.035    C498.59,42.149,497.228,39.431,494.913,37.705z"
   id="path45120" />
	</g>
</g>
<g
   style="fill:#FF4500;fill-opacity:1"
   id="g45130">
	<g
   style="fill:#FF4500;fill-opacity:1"
   id="g45128">
		<path
   style="fill:#FF4500;fill-opacity:1"
   d="M489.448,424.967c-5.051,0-9.143,4.094-9.143,9.143v59.604H31.695V18.286h24.048c5.05,0,9.143-4.094,9.143-9.143    C64.886,4.094,60.793,0,55.743,0H22.552c-5.05,0-9.143,4.094-9.143,9.143v493.714c0,5.049,4.092,9.143,9.143,9.143h466.895    c5.051,0,9.143-4.094,9.143-9.143V434.11C498.59,429.061,494.498,424.967,489.448,424.967z"
   id="path45126" />
	</g>
</g>
<g
   style="fill:#FF4500;fill-opacity:1"
   id="g45132">
</g>
<g
   style="fill:#FF4500;fill-opacity:1"
   id="g45134">
</g>
<g
   style="fill:#FF4500;fill-opacity:1"
   id="g45136">
</g>
<g
   style="fill:#FF4500;fill-opacity:1"
   id="g45138">
</g>
<g
   style="fill:#FF4500;fill-opacity:1"
   id="g45140">
</g>
<g
   style="fill:#FF4500;fill-opacity:1"
   id="g45142">
</g>
<g
   style="fill:#FF4500;fill-opacity:1"
   id="g45144">
</g>
<g
   style="fill:#FF4500;fill-opacity:1"
   id="g45146">
</g>
<g
   style="fill:#FF4500;fill-opacity:1"
   id="g45148">
</g>
<g
   style="fill:#FF4500;fill-opacity:1"
   id="g45150">
</g>
<g
   style="fill:#FF4500;fill-opacity:1"
   id="g45152">
</g>
<g
   style="fill:#FF4500;fill-opacity:1"
   id="g45154">
</g>
<g
   style="fill:#FF4500;fill-opacity:1"
   id="g45156">
</g>
<g
   style="fill:#FF4500;fill-opacity:1"
   id="g45158">
</g>
<g
   style="fill:#FF4500;fill-opacity:1"
   id="g45160">
</g>
</svg>
