<?xml version="1.0" encoding="UTF-8" standalone="no"?>
<svg
   xmlns:dc="http://purl.org/dc/elements/1.1/"
   xmlns:cc="http://creativecommons.org/ns#"
   xmlns:rdf="http://www.w3.org/1999/02/22-rdf-syntax-ns#"
   xmlns:svg="http://www.w3.org/2000/svg"
   xmlns="http://www.w3.org/2000/svg"
   x="0px"
   y="0px"
   version="1.1"
   width="78"
   viewBox="0 0 78 78"
   height="78"
   xml:space="preserve"
   enable-background="new 0 0 100 100"
   id="Layer_1"><defs
     id="defs7" /><metadata
     id="metadata9"><rdf:RDF><cc:Work
         rdf:about=""><dc:format>image/svg+xml</dc:format><dc:type
           rdf:resource="http://purl.org/dc/dcmitype/StillImage" /><dc:title></dc:title></cc:Work></rdf:RDF></metadata><path
     style="fill-opacity:1;fill:#FF4500"
     d="m54.491,0.67473h-39.131c-2.627,0-4.767,2.141-4.767,4.768v68.213c0,2.63,2.14,4.768,4.767,4.768h47.932c2.63,0,4.768-2.138,4.768-4.768v-58.238l-13.569-14.743zm1.125,7.135,5.948,6.463h-5.948v-6.4633zm8.44,65.845c0,0.421-0.344,0.765-0.765,0.765h-47.931c-0.421,0-0.763-0.344-0.763-0.765v-68.212c0-0.421,0.342-0.762,0.763-0.762h36.251v11.595c0,1.104,0.899,1.999,2.003,1.999h10.442v55.38zm-42.396-51.685h34c0.828,0,1.5,0.672,1.5,1.5s-0.672,1.5-1.5,1.5h-34c-0.828,0-1.5-0.672-1.5-1.5s0.672-1.5,1.5-1.5zm35.5,11.58c0,0.828-0.672,1.5-1.5,1.5h-34c-0.828,0-1.5-0.672-1.5-1.5s0.672-1.5,1.5-1.5h34c0.828,0,1.5,0.672,1.5,1.5zm0,9.75c0,0.828-0.672,1.5-1.5,1.5h-34c-0.828,0-1.5-0.672-1.5-1.5s0.672-1.5,1.5-1.5h34c0.828,0,1.5,0.672,1.5,1.5zm0,9.916c0,0.828-0.672,1.5-1.5,1.5h-34c-0.828,0-1.5-0.672-1.5-1.5s0.672-1.5,1.5-1.5h34c0.828,0,1.5,0.672,1.5,1.5z"
     fill="#020202"
     id="path3" /></svg>
