<?xml version="1.0" encoding="UTF-8" standalone="no"?>
<svg
   xmlns:dc="http://purl.org/dc/elements/1.1/"
   xmlns:cc="http://creativecommons.org/ns#"
   xmlns:rdf="http://www.w3.org/1999/02/22-rdf-syntax-ns#"
   xmlns:svg="http://www.w3.org/2000/svg"
   xmlns="http://www.w3.org/2000/svg"
   id="svg8"
   version="1.1"
   viewBox="0 0 205.66004 207.89409"
   height="207.89409mm"
   width="205.66005mm">
  <defs
     id="defs2" />
  <metadata
     id="metadata5">
    <rdf:RDF>
      <cc:Work
         rdf:about="">
        <dc:format>image/svg+xml</dc:format>
        <dc:type
           rdf:resource="http://purl.org/dc/dcmitype/StillImage" />
        <dc:title></dc:title>
      </cc:Work>
    </rdf:RDF>
  </metadata>
  <path
     id="path2521"
     d="m 45.679189,153.74987 c -2.095386,-0.0863 -4.642504,-0.26993 -5.660264,-0.40798 -7.495025,-1.01652 -15.250089,-4.35688 -21.134403,-9.10324 -0.907518,-0.73202 -2.772139,-2.49481 -4.143599,-3.91732 C 8.604665,133.95673 4.6742767,125.67252 3.6594047,116.96446 3.3206314,114.05764 3.4878462,106.9921 3.9650854,104.04817 5.4930272,94.622779 9.4949934,85.543151 15.346692,78.225651 25.798852,65.155322 43.166371,56.068561 61.1047,54.28486 c 15.901523,-1.581174 30.493702,4.596789 38.189579,16.16851 2.060681,3.098498 4.438481,8.279536 4.177391,9.102169 -0.26537,0.836135 -0.91697,0.47316 -1.31266,-0.73121 -1.34433,-4.09167 -4.166697,-8.58647 -7.415152,-11.809081 C 90.63679,62.940862 84.149456,59.658154 77.755002,58.418596 69.824688,56.881302 61.758898,57.481733 52.427964,60.303995 41.824581,63.511121 33.135463,68.561362 26.085971,75.614357 18.574959,83.129102 13.986765,91.926953 12.008278,102.60832 c -0.555508,2.99906 -0.559314,11.12367 -0.0064,13.68798 1.379987,6.40026 4.18215,11.49237 8.73237,15.86851 4.798379,4.61481 11.012436,7.77498 18.113759,9.2118 2.921203,0.59104 10.202813,0.82531 13.521813,0.43502 9.275605,-1.09071 16.870837,-4.6273 22.221261,-10.34692 2.8889,-3.08825 4.295597,-5.54201 7.182439,-12.52872 0.964744,-2.33485 2.703162,-6.40044 3.863147,-9.03464 4.699682,-10.672446 4.664252,-10.565834 3.798883,-11.431208 -0.416235,-0.416234 -0.642871,-0.469439 -1.544904,-0.3626 -1.779322,0.210733 -3.286179,1.560318 -4.539155,4.065378 -0.329392,0.65854 -2.638329,5.77726 -5.130971,11.37495 l -4.53208,10.17758 h -8.126655 c -7.594135,0 -8.126727,-0.0249 -8.127717,-0.38098 -5.83e-4,-0.20953 2.252637,-5.43439 5.007156,-11.61079 4.225003,-9.47364 5.008214,-11.38954 5.008214,-12.251154 0,-0.91308 -0.06345,-1.045798 -0.59868,-1.252155 -1.528059,-0.58915 -3.472919,0.378538 -4.86098,2.418619 -0.448071,0.65855 -2.975606,6.03868 -5.616748,11.95585 -2.641142,5.91718 -4.878655,10.83051 -4.97225,10.91852 -0.09359,0.088 -3.735202,0.19398 -8.092464,0.2355 -6.863558,0.0653 -7.948849,0.0319 -8.121011,-0.25112 -0.181981,-0.29904 3.06108,-7.76722 12.456482,-28.684961 l 1.590175,-3.54035 7.853022,0.05714 c 7.659005,0.05567 7.854961,0.06784 7.931506,0.492509 0.135369,0.750974 0.361228,0.78681 1.576069,0.250048 2.46629,-1.089715 4.855151,-1.543993 8.147912,-1.549453 2.543801,-0.004 3.30034,0.07427 4.574713,0.474538 1.758592,0.552365 3.297084,1.506605 3.896775,2.416953 l 0.4165,0.632253 1.760524,-0.824117 c 5.938163,-2.779728 12.688928,-3.538651 17.029837,-1.914502 1.56475,0.585457 3.41363,2.291581 3.92809,3.624814 0.57662,1.494387 0.49386,3.860933 -0.20719,5.924118 -1.34172,3.94869 -10.086225,22.95433 -12.74715,27.70512 -6.401949,11.43003 -13.553996,18.18573 -23.319473,22.02721 -4.101133,1.61328 -10.060951,2.83344 -14.979146,3.06671 -4.840729,0.2296 -5.700497,0.23728 -9.416753,0.0841 z m 49.745818,-13.26002 c -0.07356,-0.11895 1.692796,-4.30704 3.925207,-9.30677 7.754656,-17.36732 9.037826,-20.24692 13.363856,-29.98983 l 4.34989,-9.796608 h 8.55563 8.55563 l 0.069,0.598691 c 0.0841,0.731317 0.12967,0.732856 1.61153,0.05446 2.34154,-1.071985 4.38496,-1.471813 7.57193,-1.481555 6.66165,-0.02033 10.56118,1.961726 11.78475,5.990102 1.95475,6.43559 -3.96159,18.24592 -11.72838,23.41245 -4.48041,2.98041 -8.62665,4.3115 -14.20702,4.56096 -3.06669,0.13708 -4.53261,-0.12713 -6.83436,-1.23188 -0.72695,-0.3489 -1.33897,-0.61631 -1.36002,-0.59421 -0.021,0.022 -1.67508,3.71388 -3.67558,8.204 -2.00051,4.49011 -3.82387,8.53121 -4.05193,8.98021 l -0.41464,0.81639 h -8.69082 c -5.523592,0 -8.739562,-0.0788 -8.824559,-0.21638 z m 33.519203,-22.51691 c 2.37211,-0.99113 5.34873,-5.44932 8.0566,-12.06662 1.33495,-3.26229 1.91477,-5.66588 1.81218,-7.512507 -0.064,-1.153317 -0.17719,-1.562165 -0.49706,-1.796048 -1.52642,-1.116143 -4.71679,1.017682 -7.19634,4.813195 -2.11995,3.24503 -4.7055,8.95839 -5.43981,12.02045 -0.45249,1.88689 -0.35855,3.77374 0.21971,4.41271 0.48116,0.53169 1.93346,0.59314 3.04472,0.12887 z m 33.17393,6.29193 c -2.91051,-0.3971 -4.53108,-0.86658 -6.92154,-2.00521 -1.6303,-0.77653 -2.38927,-1.30661 -3.672,-2.56463 -0.8893,-0.87219 -1.58096,-1.6893 -1.53701,-1.81581 0.13666,-0.39341 8.23961,-6.34532 8.63332,-6.34149 0.20482,0.001 1.00916,0.23774 1.78746,0.52389 1.22974,0.45213 1.40838,0.58709 1.36402,1.03048 -0.3012,3.01124 -0.31314,3.92127 -0.0594,4.53361 0.65276,1.57591 2.97945,2.24053 5.81783,1.66179 2.62583,-0.53536 4.23263,-1.44224 6.38137,-3.60165 2.7587,-2.77239 4.2619,-5.92739 4.09239,-8.58935 -0.10447,-1.64201 -0.65495,-2.51613 -1.9918,-3.16329 -0.83953,-0.4064 -1.33155,-0.45408 -4.68592,-0.45408 -3.181,0 -3.76743,-0.051 -3.8771,-0.33675 -0.11535,-0.30049 1.43806,-4.147506 1.95179,-4.833674 0.14262,-0.190513 0.96552,-0.272127 2.74376,-0.272127 2.91443,0 4.37712,-0.309355 6.74629,-1.426823 3.33169,-1.571467 6.44085,-5.565117 7.03556,-9.037061 0.20974,-1.224374 0.19036,-1.510298 -0.15113,-2.229932 -0.53725,-1.132188 -1.65152,-1.674544 -3.44029,-1.674544 -2.36882,0 -4.69972,0.886128 -6.3625,2.418827 -1.12944,1.041086 -1.68309,2.112068 -1.84073,3.560744 l -0.11762,1.081258 -1.95932,0.607697 c -1.07763,0.334231 -2.07013,0.565466 -2.20555,0.513853 -0.30531,-0.11642 -3.99898,-5.993206 -3.99898,-6.362592 0,-0.342046 3.10399,-2.399517 5.19846,-3.445782 5.3589,-2.676971 13.07389,-4.08585 19.64874,-3.588176 7.19751,0.544804 11.11346,3.025694 11.45301,7.255905 0.43367,5.402437 -4.26167,10.696697 -11.80867,13.315003 -0.9579,0.332317 -1.82414,0.676171 -1.92499,0.764115 -0.10093,0.08791 0.43001,0.486809 1.17967,0.886369 4.35409,2.3207 5.6337,6.28517 3.55707,11.0204 -1.55263,3.54039 -5.12732,7.0024 -9.53609,9.23551 -2.00127,1.01369 -6.06817,2.40569 -8.40598,2.87719 -4.13765,0.83449 -9.06399,1.00618 -13.094,0.45633 z"
     style="fill:#FF4500;stroke-width:0.21770242;fill-opacity:1" />
</svg>
