<?xml version="1.0" encoding="UTF-8" standalone="no"?>
<svg
   xmlns:dc="http://purl.org/dc/elements/1.1/"
   xmlns:cc="http://creativecommons.org/ns#"
   xmlns:rdf="http://www.w3.org/1999/02/22-rdf-syntax-ns#"
   xmlns:svg="http://www.w3.org/2000/svg"
   xmlns="http://www.w3.org/2000/svg"
   version="1.1"
   width="32px"
   viewBox="0 0 32 32"
   height="32px"
   xml:space="preserve"
   style="enable-background:new 0 0 32 32;"
   id="Layer_1"><defs
     id="defs7"><marker
       orient="auto"
       refY="0.0"
       refX="0.0"
       id="marker30789"
       style="overflow:visible"><path
         id="path30787"
         d="M 0.0,0.0 L 5.0,-5.0 L -12.5,0.0 L 5.0,5.0 L 0.0,0.0 z "
         style="fill-rule:evenodd;stroke:#FF4500;stroke-width:1pt;stroke-opacity:1;fill:#FF4500;fill-opacity:1"
         transform="scale(0.8) translate(12.5,0)" /></marker><marker
       orient="auto"
       refY="0.0"
       refX="0.0"
       id="marker30779"
       style="overflow:visible"><path
         id="path30777"
         d="M 0.0,0.0 L 5.0,-5.0 L -12.5,0.0 L 5.0,5.0 L 0.0,0.0 z "
         style="fill-rule:evenodd;stroke:#FF4500;stroke-width:1pt;stroke-opacity:1;fill:#FF4500;fill-opacity:1"
         transform="scale(0.8) translate(12.5,0)" /></marker><marker
       style="overflow:visible"
       id="marker30705"
       refX="0.0"
       refY="0.0"
       orient="auto"><path
         transform="scale(0.8) translate(12.5,0)"
         style="fill-rule:evenodd;stroke:#FF4500;stroke-width:1.0pt"
         d="M 0.0,0.0 L 5.0,-5.0 L -12.5,0.0 L 5.0,5.0 L 0.0,0.0 z "
         id="path30703" /></marker><marker
       style="overflow:visible"
       id="marker30677"
       refX="0.0"
       refY="0.0"
       orient="auto"><path
         transform="scale(0.8) translate(12.5,0)"
         style="fill-rule:evenodd;stroke:#FF4500;stroke-width:1.0pt"
         d="M 0.0,0.0 L 5.0,-5.0 L -12.5,0.0 L 5.0,5.0 L 0.0,0.0 z "
         id="path30675" /></marker><marker
       style="overflow:visible"
       id="marker30655"
       refX="0.0"
       refY="0.0"
       orient="auto"><path
         transform="scale(0.8) translate(12.5,0)"
         style="fill-rule:evenodd;stroke:#FF4500;stroke-width:1.0pt"
         d="M 0.0,0.0 L 5.0,-5.0 L -12.5,0.0 L 5.0,5.0 L 0.0,0.0 z "
         id="path30653" /></marker><marker
       style="overflow:visible"
       id="marker30639"
       refX="0.0"
       refY="0.0"
       orient="auto"><path
         transform="scale(0.8) translate(12.5,0)"
         style="fill-rule:evenodd;stroke:#FF4500;stroke-width:1.0pt"
         d="M 0.0,0.0 L 5.0,-5.0 L -12.5,0.0 L 5.0,5.0 L 0.0,0.0 z "
         id="path30637" /></marker><marker
       style="overflow:visible"
       id="Arrow1Lstart"
       refX="0.0"
       refY="0.0"
       orient="auto"><path
         transform="scale(0.8) translate(12.5,0)"
         style="fill-rule:evenodd;stroke:#FF4500;stroke-width:1.0pt"
         d="M 0.0,0.0 L 5.0,-5.0 L -12.5,0.0 L 5.0,5.0 L 0.0,0.0 z "
         id="path6959" /></marker></defs><metadata
     id="metadata3059"><rdf:RDF><cc:Work
         rdf:about=""><dc:format>image/svg+xml</dc:format><dc:type
           rdf:resource="http://purl.org/dc/dcmitype/StillImage" /><dc:title></dc:title></cc:Work></rdf:RDF></metadata><path
     id="path30605"
     d="m 2.3521074,10.566191 0.052698,12.406087 h 5.9599446 l 7.4791409,6.702139 0.107704,-27.236351 -8.1734442,7.985527 z"
     style="fill:none;stroke:#FF4500;stroke-width:4.266;stroke-linecap:butt;stroke-linejoin:round;stroke-miterlimit:4;stroke-dasharray:none;stroke-opacity:1" /><path
     id="path30625"
     d="M 20.451128,9.8646616 30.636591,20.130326"
     style="fill:none;stroke:#FF4500;stroke-width:2;stroke-linecap:round;stroke-linejoin:miter;stroke-opacity:1;stroke-miterlimit:4;stroke-dasharray:none" /><path
     style="fill:none;stroke:#FF4500;stroke-width:2;stroke-linecap:round;stroke-linejoin:miter;stroke-opacity:1;stroke-miterlimit:4;stroke-dasharray:none"
     d="M 30.636591,9.8646616 20.451128,20.130326"
     id="path30627" /></svg>
