<?xml version="1.0" encoding="UTF-8" standalone="no"?>
<svg
   xmlns:dc="http://purl.org/dc/elements/1.1/"
   xmlns:cc="http://creativecommons.org/ns#"
   xmlns:rdf="http://www.w3.org/1999/02/22-rdf-syntax-ns#"
   xmlns:svg="http://www.w3.org/2000/svg"
   xmlns="http://www.w3.org/2000/svg"
   id="svg40732"
   xml:space="preserve"
   enable-background="new 0 0 1000 1000"
   viewBox="0 0 1000 1000"
   y="0px"
   x="0px"
   version="1.1"><defs
   id="defs40736" />
<metadata
   id="metadata40724"> Svg Vector Icons : http://www.onlinewebfonts.com/icon <rdf:RDF><cc:Work
     rdf:about=""><dc:format>image/svg+xml</dc:format><dc:type
       rdf:resource="http://purl.org/dc/dcmitype/StillImage" /><dc:title></dc:title></cc:Work></rdf:RDF></metadata>
<path
   d="M 910.8751,248.03767 C 856.62608,162.78159 779.69802,100.10651 692.86997,62.563849 691.49618,61.919931 690.35688,60.995204 688.88426,60.412411 678.1671,55.90681 667.2658,52.19401 656.52532,48.51752 655.27553,48.068474 653.96373,47.521992 652.71394,47.072945 579.53604,22.541236 503.09931,16.047266 428.1764,27.083261 c -2.01525,0.295947 -4.19133,0.555584 -6.20659,0.851531 -11.8687,1.909431 -23.62506,4.428289 -35.35626,7.203143 -4.203,0.97014 -8.46799,1.842845 -12.64582,3.068981 -10.01243,2.662281 -19.91252,5.933989 -29.81261,9.205696 -5.42578,1.862198 -10.97555,3.529524 -16.37616,5.647718 -2.68189,0.979816 -5.38894,1.703637 -8.00883,2.780889 -7.10587,2.901319 -13.83974,6.38725 -20.92044,9.544564 -4.81929,2.166001 -9.60176,4.173442 -14.45788,6.498003 -11.49117,5.749368 -22.47469,11.863664 -33.37103,18.331391 -1.97658,1.222495 -4.04033,2.091559 -6.01691,3.314054 -0.39531,0.244499 -0.6298,0.525309 -1.02512,0.769808 C 161.32096,145.5579 96.585115,220.22063 58.218323,311.43341 c -12.341853,29.08676 1.727034,62.88482 31.156089,75.36978 29.491058,12.5824 63.439128,-0.94619 75.718978,-30.13039 29.72087,-70.38629 79.99213,-127.95594 144.30642,-166.91905 9.25309,-5.58716 18.59334,-10.8209 28.04593,-15.44521 2.95321,-1.41918 5.96841,-2.74093 8.88479,-4.00156 7.87133,-3.64631 15.86666,-7.09775 23.94915,-10.19576 3.53452,-1.37138 7.25503,-2.45046 10.75272,-3.66327 8.00884,-2.78089 16.2405,-5.42804 24.36167,-7.5995 2.60823,-0.66269 5.27845,-1.22796 7.88668,-1.89065 9.51828,-2.35666 19.02491,-4.29876 28.6187,-5.88743 0.97662,-0.19669 2.01525,-0.29595 2.95505,-0.33408 58.0219,-8.59397 117.10643,-3.1808 172.26793,15.11389 0.32165,0.0726 0.70531,0.24268 1.08896,0.41274 77.79342,26.15784 147.57995,78.04239 194.85992,152.1297 l -71.84861,44.4377 c -1.87775,1.16137 -3.03668,3.23597 -2.81016,5.53993 0.12769,2.36509 1.56532,4.19155 3.54559,5.13927 l 235.61601,106.01213 c 1.75745,0.81397 4.05753,0.74921 5.83645,-0.35104 1.77892,-1.10025 2.90102,-3.01629 2.8605,-5.02794 l 5.72417,-255.27878 c -0.004,-2.17022 -1.04601,-4.24118 -3.15028,-5.38377 -2.10427,-1.14259 -4.50317,-1.0167 -6.2821,0.0835 z"
   id="path40728"
   style="fill:#ff4500;fill-opacity:1;stroke:#ff4500;stroke-width:1.15841;stroke-opacity:1" />
</svg>
