<?xml version="1.0" encoding="UTF-8" standalone="no"?>
<svg
   xmlns:dc="http://purl.org/dc/elements/1.1/"
   xmlns:cc="http://creativecommons.org/ns#"
   xmlns:rdf="http://www.w3.org/1999/02/22-rdf-syntax-ns#"
   xmlns:svg="http://www.w3.org/2000/svg"
   xmlns="http://www.w3.org/2000/svg"
   id="svg8"
   version="1.1"
   viewBox="0 0 205.66004 207.89409"
   height="207.89409mm"
   width="205.66005mm">
  <metadata
     id="metadata14">
    <rdf:RDF>
      <cc:Work
         rdf:about="">
        <dc:format>image/svg+xml</dc:format>
        <dc:type
           rdf:resource="http://purl.org/dc/dcmitype/StillImage" />
        <dc:title></dc:title>
      </cc:Work>
    </rdf:RDF>
  </metadata>
  <defs
     id="defs12" />
  <style
     id="style3111"
     type="text/css">
	.st0{fill:#FF4500;}
</style>
  <style
     id="style2"
     type="text/css">
	.st0{fill:none;}
	.st1{fill:#F4481E;}
	.st2{fill:url(#SVGID_1_);}
	.st3{opacity:0.1;fill:#FFFFFF;enable-background:new    ;}
	.st4{fill:#FFD119;}
	.st5{fill:#FF8C00;}
	.st6{fill:url(#SVGID_2_);}
	.st7{fill:#FAFAFA;}
	.st8{opacity:0.3;fill:#FFFFFF;enable-background:new    ;}
</style>
  <g
     style="fill-opacity:1;fill:#FF4500"
     transform="matrix(8.0522138,0,0,8.0522138,4.8667867,5.9878324)"
     id="g1018">
    <g
       style="fill-opacity:1;fill:#FF4500"
       id="g958">
      <g
         style="fill-opacity:1;fill:#FF4500"
         id="c40_rss">
        <path
           style="fill-opacity:1;fill:#FF4500"
           d="M 3.607,17.11 C 1.618,17.11 0,18.726 0,20.717 c 0,1.984 1.618,3.604 3.607,3.604 1.989,0 3.607,-1.619 3.607,-3.604 0,-1.991 -1.618,-3.607 -3.607,-3.607 z"
           id="path950" />
        <path
           style="fill-opacity:1;fill:#FF4500"
           d="M 0.375,7.951 C 0.169,7.951 0,8.12 0,8.328 v 4.578 c 0,0.206 0.169,0.374 0.375,0.374 5.879,0 10.665,4.784 10.665,10.665 0,0.205 0.166,0.375 0.375,0.375 h 4.581 0.016 c 0.209,0 0.377,-0.17 0.377,-0.375 L 16.371,23.828 C 16.305,15.064 9.152,7.951 0.375,7.951 Z"
           id="path952" />
        <path
           style="fill-opacity:1;fill:#FF4500"
           d="M 24.311,23.828 C 24.246,10.681 13.531,0.01 0.375,0.01 0.169,0.01 0,0.179 0,0.387 v 4.711 c 0,0.207 0.169,0.375 0.375,0.375 10.186,0 18.472,8.287 18.472,18.473 0,0.205 0.168,0.375 0.373,0.375 h 4.713 0.02 c 0.205,0 0.379,-0.17 0.379,-0.375 z"
           id="path954" />
      </g>
      <g
         style="fill-opacity:1;fill:#FF4500"
         id="Capa_1_3_" />
    </g>
    <g
       style="fill-opacity:1;fill:#FF4500"
       id="g960" />
    <g
       style="fill-opacity:1;fill:#FF4500"
       id="g962" />
    <g
       style="fill-opacity:1;fill:#FF4500"
       id="g964" />
    <g
       style="fill-opacity:1;fill:#FF4500"
       id="g966" />
    <g
       style="fill-opacity:1;fill:#FF4500"
       id="g968" />
    <g
       style="fill-opacity:1;fill:#FF4500"
       id="g970" />
    <g
       style="fill-opacity:1;fill:#FF4500"
       id="g972" />
    <g
       style="fill-opacity:1;fill:#FF4500"
       id="g974" />
    <g
       style="fill-opacity:1;fill:#FF4500"
       id="g976" />
    <g
       style="fill-opacity:1;fill:#FF4500"
       id="g978" />
    <g
       style="fill-opacity:1;fill:#FF4500"
       id="g980" />
    <g
       style="fill-opacity:1;fill:#FF4500"
       id="g982" />
    <g
       style="fill-opacity:1;fill:#FF4500"
       id="g984" />
    <g
       style="fill-opacity:1;fill:#FF4500"
       id="g986" />
    <g
       style="fill-opacity:1;fill:#FF4500"
       id="g988" />
  </g>
</svg>
