<?xml version="1.0" encoding="UTF-8" standalone="no"?>
<svg
   xmlns:dc="http://purl.org/dc/elements/1.1/"
   xmlns:cc="http://creativecommons.org/ns#"
   xmlns:rdf="http://www.w3.org/1999/02/22-rdf-syntax-ns#"
   xmlns:svg="http://www.w3.org/2000/svg"
   xmlns="http://www.w3.org/2000/svg"
   xmlns:sodipodi="http://sodipodi.sourceforge.net/DTD/sodipodi-0.dtd"
   xmlns:inkscape="http://www.inkscape.org/namespaces/inkscape"
   inkscape:version="1.0beta2 (2b71d25, 2019-12-03)"
   sodipodi:docname="tag.svg"
   id="svg841"
   enable-background="new 0 0 512 512"
   viewBox="0 0 512 512"
   version="1.1">
  <metadata
     id="metadata847">
    <rdf:RDF>
      <cc:Work
         rdf:about="">
        <dc:format>image/svg+xml</dc:format>
        <dc:type
           rdf:resource="http://purl.org/dc/dcmitype/StillImage" />
        <dc:title></dc:title>
      </cc:Work>
    </rdf:RDF>
  </metadata>
  <defs
     id="defs845" />
  <sodipodi:namedview
     inkscape:current-layer="svg841"
     inkscape:window-maximized="0"
     inkscape:window-y="22"
     inkscape:window-x="0"
     inkscape:cy="256"
     inkscape:cx="256"
     inkscape:zoom="0.89493202"
     showgrid="false"
     id="namedview843"
     inkscape:window-height="806"
     inkscape:window-width="1431"
     inkscape:pageshadow="2"
     inkscape:pageopacity="0"
     guidetolerance="10"
     gridtolerance="10"
     objecttolerance="10"
     borderopacity="1"
     inkscape:document-rotation="0"
     bordercolor="#666666"
     pagecolor="#ffffff" />
  <g
     transform="matrix(-1,0,0,1,512.20718,0)"
     style="fill:#FF4500;fill-opacity:1;stroke:#FF4500;stroke-opacity:1"
     id="g839">
    <g
       style="fill:#FF4500;fill-opacity:1;stroke:#FF4500;stroke-opacity:1"
       id="g837">
      <path
         inkscape:connector-curvature="0"
         style="fill:#FF4500;fill-opacity:1;stroke:#FF4500;stroke-opacity:1"
         id="path833"
         d="m 121.5,64.2 c -31.7,0 -57.3,25.7 -57.3,57.3 0,31.7 25.7,57.3 57.3,57.3 31.7,0 57.3,-25.7 57.3,-57.3 0.1,-31.7 -25.6,-57.3 -57.3,-57.3 z m 0,94.3 c -20.4,0 -37,-16.6 -37,-37 0,-20.4 16.6,-37 37,-37 20.4,0 37,16.6 37,37 0,20.4 -16.5,37 -37,37 z" />
      <path
         inkscape:connector-curvature="0"
         style="fill:#FF4500;fill-opacity:1;stroke:#FF4500;stroke-opacity:1"
         id="path835"
         d="M 244.5,29.8 C 234.1,18.3 219.5,12.1 203.8,12.1 L 96.5,11 C 73.6,11 51.7,19.3 36,36 19.3,51.7 11,73.6 11,96.5 l 1,107.4 c 1,14.6 6.3,29.2 17.7,40.7 L 286.2,501 501,286.2 Z m 40.7,442 L 43.3,229.9 C 36,222.6 31.8,213.2 31.8,202.8 L 30.8,96.5 C 30.8,79.8 38.1,63.1 49.6,50.6 62.1,38.1 78.8,30.8 96.5,30.8 l 106.3,1 c 10.4,0 19.8,4.2 27.1,11.5 l 241.9,241.9 z" />
    </g>
  </g>
</svg>
