<?xml version="1.0" encoding="UTF-8" standalone="no"?>
<!-- Created with Inkscape (http://www.inkscape.org/) -->
<svg id="svg2" xmlns:rdf="http://www.w3.org/1999/02/22-rdf-syntax-ns#" xmlns="http://www.w3.org/2000/svg" height="462.87" width="462.91" version="1.1" xmlns:cc="http://creativecommons.org/ns#" xmlns:dc="http://purl.org/dc/elements/1.1/">
 <defs id="defs4">
  <filter id="filter3897" height="1" width="1" y="0" x="0" color-interpolation-filters="sRGB">
   <feColorMatrix id="feColorMatrix3899" values="0" type="saturate"/>
  </filter>
  <filter id="filter3901" height="1" width="1" y="0" x="0" color-interpolation-filters="sRGB">
   <feColorMatrix id="feColorMatrix3903" values="0" type="saturate"/>
  </filter>
  <filter id="filter3905" height="1" width="1" y="0" x="0" color-interpolation-filters="sRGB">
   <feColorMatrix id="feColorMatrix3907" values="0" type="saturate"/>
  </filter>
  <filter id="filter3909" height="1" width="1" y="0" x="0" color-interpolation-filters="sRGB">
   <feColorMatrix id="feColorMatrix3911" values="0" type="saturate"/>
  </filter>
  <filter id="filter3913" height="1" width="1" y="0" x="0" color-interpolation-filters="sRGB">
   <feColorMatrix id="feColorMatrix3915" values="0" type="saturate"/>
  </filter>
  <filter id="filter3917" height="1" width="1" y="0" x="0" color-interpolation-filters="sRGB">
   <feColorMatrix id="feColorMatrix3919" values="0" type="saturate"/>
  </filter>
  <filter id="filter3921" height="1" width="1" y="0" x="0" color-interpolation-filters="sRGB">
   <feColorMatrix id="feColorMatrix3923" values="0" type="saturate"/>
  </filter>
 </defs>
 <metadata id="metadata7">
  <rdf:RDF>
   <cc:Work rdf:about="">
    <dc:format>image/svg+xml</dc:format>
    <dc:type rdf:resource="http://purl.org/dc/dcmitype/StillImage"/>
    <dc:title/>
   </cc:Work>
  </rdf:RDF>
 </metadata>
 <g id="layer1" transform="translate(-151.26233,-146.76646)">
  <rect id="rect3108" height="272.74" filter="url(#filter3921)" width="301.03" y="245.98" x="228.03" fill="#000"/>
  <path id="path3075" d="m367.86,608.49c-1.925-0.22496-7.775-0.89593-13-1.491-41.291-4.703-84.361-23.011-117.68-50.021-12.092-9.8039-28.679-27.153-38.382-40.147-22.827-30.569-36.933-63.56-43.508-101.76-2.1842-12.69-3.0397-47.536-1.5004-61.113,6.0589-53.441,28.808-100.78,66.514-138.41,43.617-43.532,101.32-67.474,162.62-67.474,44.05,0,89.423,13.593,125.93,37.728,41.195,27.233,72.379,66.128,89.354,111.45,10.383,27.721,14.646,51.442,14.646,81.494,0,26.106-3.4127,48.285-10.975,71.327-27.459,83.665-99.484,143.8-187.52,156.57-9.9457,1.4423-39.819,2.631-46.5,1.8502zm57.166-104.18c0.44639-0.44639,0.92914-19.694,1.0728-42.773l0.26114-41.961,42.25-0.26085,42.25-0.26086v-40.989-40.989h-41.3c-30.789,0-41.605-0.30541-42.5-1.2-0.89552-0.89552-1.2-11.936-1.2-43.511v-42.311l-42.75,0.26073-42.75,0.26074-0.5,43-0.5,43-42,0.5-42,0.5,0.0167,13.75c0.009,7.5625,0.12166,25.9,0.25,40.75l0.2333,27h41.3c30.789,0,41.605,0.30541,42.5,1.2,0.89498,0.89498,1.2,11.804,1.2,42.917,0,26.92,0.35467,41.835,0.99992,42.05,2.178,0.72604,82.407-0.17377,83.166-0.93276z" filter="url(#filter3917)" fill="#8fdaf6"/>
  <path id="path3073" d="m364.86,607.46c-90.105-8.2565-164.68-64.329-196.68-147.88-4.3428-11.339-9.66-31.706-12.009-46-2.4701-15.029-2.4794-54.259-0.0164-69.363,11.183-68.586,50.38-126.65,109.45-162.14,28.066-16.861,61.145-27.712,94.724-31.073,14.734-1.4744,44.371-0.68317,57.421,1.533,10.98,1.8646,30.389,6.6032,29.733,7.2591-0.24918,0.24918-4.2022-0.47585-8.7846-1.6112-21.959-5.4405-59.955-7.1472-84.332-3.7879-23.042,3.1753-46.765,10.552-65.249,20.29-17.289,9.1082-32.251,19.764-32.251,22.97,0,0.78214,0.3375,1.4172,0.75,1.4113,1.6885-0.0244,10.496-3.0151,13.03-4.4245,4.9582-2.7578,20.946-8.4921,26.375-9.46,10.849-1.9342,19.377-4.3382,20.515-5.7832,0.64362-0.81701,2.2186-1.3589,3.5-1.2042,1.2814,0.15473,3.3127-0.25836,4.514-0.91798,1.2013-0.65961,4.6734-1.1993,7.7156-1.1993s10.609-0.73823,16.816-1.6405c13.255-1.927,50.771-2.2738,60.855-0.56258,3.5361,0.60004,10.502,1.5935,15.48,2.2078,4.9781,0.61423,14.878,2.6414,22,4.5048,7.1219,1.8634,14.974,3.9138,17.449,4.5564,16.416,4.2624,47.733,18.63,64.905,29.776,3.5228,2.2868,7.3905,4.1578,8.595,4.1578s3.0188,0.91587,4.0319,2.0353c1.013,1.1194,2.4752,1.7922,3.2493,1.4952,1.4759-0.56634,3.7426,1.5865,13.13,12.47,26.939,31.233,46.223,76.669,51.02,120.21,1.366,12.4,1.3733,36.072,0.0152,48.579-8.336,76.763-55.37,144.59-124.41,179.42-21.111,10.649-46.122,18.652-69.532,22.249-10.149,1.5594-42.8,2.7682-52,1.9252zm60.866-101.72c0.76663-0.92372,1.1923-14.339,1.3724-43.25l0.2611-41.911,42-0.5,42-0.5v-41.5-41.5l-42-0.5-42-0.5,0.30978-40.944c0.17038-22.519,0.0481-41.986-0.27169-43.26l-0.58146-2.3167-43.728,0.26049-43.728,0.2605-0.5,43-0.5,43-41.448,0.26126c-31.632,0.19938-41.634,0.55461-42.235,1.5-0.96885,1.5255-1.017,18.666-0.15462,54.989l0.65888,27.75h41.139c30.664,0,41.445,0.30556,42.339,1.2,0.89498,0.89498,1.2,11.804,1.2,42.917,0,32.438,0.27804,41.829,1.25,42.221,0.6875,0.27741,19.757,0.53991,42.378,0.58333,33.215,0.0638,41.341-0.17867,42.239-1.2601z" filter="url(#filter3913)" fill="#6ed5f7"/>
  <path id="path3071" d="m351.86,605.45c-40.085-5.4182-79.806-22.499-112.5-48.377-4.4-3.4827-12.962-11.32-19.026-17.415-36.794-36.983-59.698-86.201-64.537-138.68-1.5181-16.465-0.94922-34.378,1.2194-38.399,0.88977-1.65,3.0574-7.05,4.8169-12s4.0178-10.162,5.0185-11.581c1.0007-1.4198,3.8777-6.6797,6.3933-11.689,2.5157-5.009,5.1502-9.4724,5.8544-9.9186,0.70426-0.44621,2.5841-2.8363,4.1774-5.3113,4.3117-6.6977,17.879-22.211,24.909-28.482,4.3026-3.8382,7.0089-5.51,8.925-5.5131,1.5125-0.002,2.75-0.41589,2.75-0.91872,0-0.50282,2.2568-2.3028,5.015-4l5.015-3.0858h53.347,53.347l0.62329,6.25c0.34281,3.4375,0.6594,17.95,0.70354,32.25l0.0803,26-41.277,0.26127c-22.702,0.14369-41.651,0.63521-42.108,1.0923-1.3085,1.3085-0.92637,82.225,0.39584,83.818,0.88433,1.0656,9.2935,1.3285,42.48,1.3285h41.378v41.309c0,31.472,0.29767,41.715,1.25,43.013,1.149,1.5664,4.6832,1.6828,43.75,1.4411l42.5-0.26293,0.5-42.5,0.5-42.5,41.977-0.5,41.977-0.5,0.78491-4.6839c0.4317-2.5762,0.66697-21.701,0.52282-42.5l-0.26209-37.816-42.25-0.26085-42.25-0.26086,0.003-12.239c0.001-6.7315,0.29787-21.352,0.65872-32.489l0.6561-20.25h53.326,53.326l5.015,3.0858c2.7583,1.6972,5.015,3.4972,5.015,4,0,0.50283,1.2552,0.91423,2.7894,0.91423,5.5664,0,24.238,19.761,34.96,37,2.5656,4.125,5.1341,7.9917,5.7077,8.5926,0.98892,1.0361,4.4659,8.2133,11.582,23.907,3.8636,8.5213,7.9613,20.192,7.9613,22.675,0,1.0037,0.51809,1.8248,1.1513,1.8248,1.8289,0,0.36809,32.198-2.1097,46.5-17.029,98.294-96.231,174.1-195.34,186.97-14.729,1.9123-46.221,1.8642-60.699-0.0928z" filter="url(#filter3909)" fill="#51caf1"/>
  <path id="path3069" d="m364.86,606.46c-54.681-5.0105-103.98-27.603-141.58-64.884-17.107-16.96-30.694-35.205-40.037-53.761-7.9355-15.762-9.2757-21.797-12.86-57.91-0.95708-9.6433,2.2693-31.759,6.6857-45.829,4.5465-14.484,15.641-29.912,23.47-32.638,2.7612-0.96142,10.387-1.3359,27.424-1.3468l23.599-0.0151,0.64565,9.75c0.35511,5.3625,0.64798,20.626,0.65083,33.918,0.003,13.293,0.27831,24.88,0.61216,25.75,0.53995,1.4071,5.1723,1.5818,41.941,1.5818,31.969,0,41.517,0.28321,42.143,1.25,0.44496,0.6875,1.034,19.925,1.309,42.75l0.5,41.5,43.75,0.26051c24.062,0.14328,43.85,0.14328,43.973,0,0.12254-0.14328,0.46004-19.386,0.75-42.761l0.5272-42.5,42-0.5,42-0.5,0.62817-17.5c0.3455-9.625,0.68914-24.475,0.76366-33,0.0745-8.525,0.40682-16.512,0.73846-17.75l0.60297-2.25,23.133,0.0151c16.649,0.0108,24.206,0.38837,26.958,1.3468,4.7977,1.6705,14.04,11.823,18.332,20.138,3.4716,6.7253,6.6872,16.262,8.2608,24.5,0.57783,3.025,1.5535,7.75,2.1681,10.5,1.7895,8.0066,2.749,23.953,2.3019,38.258-0.49211,15.744-2.3551,21.825-12.842,41.916-32.727,62.701-95.091,106.81-166.55,117.78-10.149,1.5594-42.8,2.7682-52,1.9252z" filter="url(#filter3905)" fill="#3bc1ec"/>
  <path id="path3067" d="m354.36,604.54c-26.931-3.5215-51.059-11.012-74.5-23.127-11.91-6.1554-31.928-19.385-39.136-25.864-4.3612-3.9201-15.864-16.919-15.864-17.927,0-0.42791-2.1956-3.3141-4.8791-6.4138s-5.7776-7.2108-6.8757-9.1358-3.8525-6.7487-6.1209-10.719c-2.2684-3.9706-4.1243-7.6039-4.1243-8.0739,0-0.47003-1.5953-4.5359-3.5452-9.0353-4.3194-9.9674-10.281-32.917-10.614-40.858-0.38293-9.1402,1.1774-23.164,3.4285-30.814,1.5394-5.2312,2.9521-7.8212,5.5907-10.25l3.5308-3.25h25.305,25.305l0.0136,4.25c0.008,2.3375,0.28373,5.2577,0.61382,6.4892l0.60016,2.2392,42.136,0.26077,42.136,0.26076,0.5,41.701c0.32863,27.409,0.86356,42.064,1.5608,42.761,0.7226,0.72186,14.909,0.97656,44.5,0.79892l43.439-0.26076,0.6113-33c0.33622-18.15,0.67372-37.383,0.75-42.739l0.1387-9.7391,42.25-0.26086,42.25-0.26085,0.26654-4c0.1466-2.2,0.49267-5.0125,0.76905-6.25l0.50251-2.25h24.786,24.786l3.5308,3.25c3.9655,3.6502,7.8045,14.251,7.9331,21.905,0.0402,2.3896,0.44807,6.8198,0.90649,9.8448,1.1184,7.38-1.2123,24.504-5.172,38-3.3594,11.45-4.7582,14.968-11.333,28.5-2.405,4.95-4.3632,9.3641-4.3515,9.8091,0.0117,0.44498-1.5862,2.7707-3.5508,5.1683s-3.5721,4.7763-3.5721,5.286c0,0.50969-0.9,1.7412-2,2.7367-1.1,0.99549-2,2.314-2,2.93,0,0.61602-3.2625,4.2964-7.25,8.1786-30.504,29.699-72.988,51.096-115.75,58.299-20.055,3.3779-48.559,4.0367-67.5,1.56z" filter="url(#filter3901)" fill="#2bb8e7"/>
  <path id="path3065" d="m360.86,593.97c-16.932-1.9076-45.737-9.7939-61.049-16.714-13.594-6.1439-32.859-19.478-45.792-31.693-9.4663-8.9411-26.159-30.326-26.159-33.511,0-0.63915-0.9-2.3063-2-3.7047s-2-3.7768-2-5.2853-0.61759-3.2552-1.3724-3.8817c-1.6734-1.3888-3.1571-14.74-1.825-16.423,0.51524-0.65084,1.4903-2.9009,2.1667-5.0002,0.74399-2.3088,2.1783-4.2489,3.6303-4.9105,1.3202-0.60153,2.4004-1.4715,2.4004-1.9332,0-0.46171,24.238-0.83948,53.862-0.83948h53.862l0.70255,18.25c0.58183,15.114,0.98205,18.465,2.3292,19.5,1.2422,0.9546,11.608,1.25,43.864,1.25,37.064,0,42.43-0.19246,43.809-1.5714,1.3004-1.3004,1.5714-4.3908,1.5714-17.918,0-8.9907,0.27314-17.059,0.60699-17.929,0.54301-1.4151,6.235-1.5818,54-1.5818,29.366,0,53.393,0.37777,53.393,0.83948,0,0.46172,1.0802,1.3316,2.4004,1.9332,1.452,0.66159,2.8863,2.6017,3.6303,4.9105,0.67646,2.0992,1.6515,4.3493,2.1667,5.0002,1.3321,1.6827-0.15159,15.034-1.825,16.423-0.75483,0.62646-1.3724,2.3732-1.3724,3.8817s-0.9,3.8869-2,5.2853-2,3.0655-2,3.7047c0,3.1798-16.451,24.201-26.676,34.088-23.507,22.728-51.096,36.657-88.824,44.845-18.005,3.9074-42.683,5.1054-61.5,2.9854z" filter="url(#filter3897)" fill="#13b0e3"/>
 </g>
</svg>
