<?xml version="1.0" encoding="iso-8859-1"?>
<!-- Generator: Adobe Illustrator 17.1.0, SVG Export Plug-In . SVG Version: 6.00 Build 0)  -->
<!DOCTYPE svg PUBLIC "-//W3C//DTD SVG 1.1//EN" "http://www.w3.org/Graphics/SVG/1.1/DTD/svg11.dtd">
<svg version="1.1" id="Capa_1" xmlns="http://www.w3.org/2000/svg" xmlns:xlink="http://www.w3.org/1999/xlink" x="0px" y="0px"
	 viewBox="0 0 200 200" style="enable-background:new 0 0 200 200;" xml:space="preserve">
<g>
	<path style="fill:#010101;" d="M16.9,103.128l86.199,70.743c2.154,1.728,3.135,1.025,2.192-1.571l-22.583-67.602
		c-0.944-2.595-0.935-6.8,0.02-9.391l22.543-66.617c0.955-2.591-0.027-3.302-2.192-1.588L16.92,96.896
		C14.755,98.61,14.746,101.401,16.9,103.128z"/>
	<path style="fill:#010101;" d="M98.9,103.128l86.199,70.743c2.154,1.728,3.135,1.025,2.192-1.571l-22.583-67.602
		c-0.944-2.595-0.935-6.8,0.02-9.391l22.543-66.617c0.955-2.591-0.027-3.302-2.192-1.588L98.92,96.896
		C96.755,98.61,96.746,101.401,98.9,103.128z"/>
</g>
</svg>
