<?xml version="1.0" encoding="UTF-8" standalone="no"?>
<!-- Generator: Adobe Illustrator 16.0.4, SVG Export Plug-In . SVG Version: 6.00 Build 0)  -->
<svg id="Capa_1" xmlns:rdf="http://www.w3.org/1999/02/22-rdf-syntax-ns#" style="enable-background:new 0 0 40.007 40.007;" xmlns="http://www.w3.org/2000/svg" xml:space="preserve" height="40.007px" viewBox="0 0 40.007 40.007" width="40.007px" version="1.1" y="0px" x="0px" xmlns:cc="http://creativecommons.org/ns#" xmlns:dc="http://purl.org/dc/elements/1.1/"><metadata id="metadata42"><rdf:RDF><cc:Work rdf:about=""><dc:format>image/svg+xml</dc:format><dc:type rdf:resource="http://purl.org/dc/dcmitype/StillImage"/><dc:title/></cc:Work></rdf:RDF></metadata><g id="_x34_99._Up"><g id="g4"><path id="path6" d="M37.324,10.004c-5.522-9.566-17.755-12.844-27.32-7.321-9.566,5.522-12.844,17.755-7.32,27.321,5.522,9.565,17.754,12.843,27.32,7.32,9.565-5.523,12.844-17.755,7.32-27.32zm-9.32,23.855c-7.652,4.418-17.438,1.797-21.856-5.855-4.418-7.653-1.796-17.438,5.856-21.856,7.652-4.419,17.438-1.797,21.856,5.856,4.418,7.652,1.796,17.437-5.856,21.855zm-6.586-18.441c-0.391-0.391-0.902-0.586-1.414-0.586s-1.023,0.195-1.414,0.586l-5.657,5.656c-0.781,0.781-0.781,2.048,0,2.829v-0.001c0.781,0.781,2.048,0.781,2.828,0l4.243-4.242,4.242,4.242c0.781,0.781,2.048,0.781,2.828,0v0.001c0.781-0.781,0.781-2.048,0-2.829l-5.656-5.656z"/></g></g></svg>
