<?xml version="1.0" encoding="iso-8859-1"?>
<!-- Generator: Adobe Illustrator 18.1.1, SVG Export Plug-In . SVG Version: 6.00 Build 0)  -->
<svg version="1.1" id="Capa_1" xmlns="http://www.w3.org/2000/svg" xmlns:xlink="http://www.w3.org/1999/xlink" x="0px" y="0px"
	 viewBox="0 0 25.977 25.977" style="enable-background:new 0 0 25.977 25.977;" xml:space="preserve">
<g>
	<g>
		<path style="fill:#010002;" d="M25.706,3.604c-0.173-0.136-0.396-0.185-0.608-0.136l-2.927,0.703V2.758
			c0-1.081-0.689-1.755-1.799-1.755c-1.99,0-6.166,2.422-7.416,3.412c-1.209-0.999-5.217-3.603-7.28-3.603
			c-1.169,0-1.869,0.728-1.869,1.946v1.467C3.126,4.12,1.73,3.803,0.882,3.596C0.669,3.543,0.444,3.592,0.271,3.728
			C0.102,3.862,0,4.069,0,4.289v18.562c0,0.205,0.09,0.401,0.243,0.539c0.156,0.134,0.365,0.195,0.567,0.165
			c0.065-0.008,6.408-1.434,9.537,0.227c0.119,0.062,0.308,0.217,0.493,0.364c0.53,0.429,1.256,1.016,2.145,1.02
			c0.003,0,0.007,0,0.009,0c0.889,0,1.642-0.615,2.192-1.065c0.189-0.156,0.389-0.318,0.509-0.382
			c3.122-1.653,9.4-0.174,9.464-0.163c0.205,0.03,0.413-0.029,0.569-0.165c0.158-0.134,0.249-0.332,0.249-0.539V4.161
			C25.978,3.943,25.877,3.737,25.706,3.604z M5.23,2.758c0-0.5,0.138-0.521,0.445-0.521c1.638,0,5.248,2.263,6.288,3.047l1.01,0.728
			l0.979-0.56c1.078-0.739,4.776-3.023,6.42-3.023c0.374,0,0.374,0.076,0.374,0.329v14.194c-2.081,0.039-5.714,0.591-6.783,1.187
			c-1.069,0.594-0.967,0.662-0.967,0.662s-0.074-0.093-1.032-0.685c-1.108-0.75-4.672-1.125-6.733-1.164V2.758H5.23z M24.552,20.542
			c-1.709-0.75-6.681-1.277-9.522,0.228c-0.246,0.131-0.489,0.328-0.745,0.537c-0.405,0.332-0.91,0.744-1.29,0.744h-0.001
			c-0.39-0.002-0.87-0.389-1.258-0.702c-0.246-0.199-0.479-0.389-0.72-0.515c-2.846-1.51-7.698-0.762-9.59-0.104V5.189
			c0.761,0.175,1.808,0.405,2.381,0.477v12.706h0.814c1.897,0,5.423,0.193,7.7,1.502l0.216,0.124v0.53l0.457-0.269l0.394,0.227
			V20.03l0.223-0.13c2.274-1.331,5.828-1.528,7.745-1.528h0.815V5.637l2.381-0.572V20.542z"/>
		<path style="fill:#010002;" d="M7.369,10.401c0,0.624,0,1.712,0,2.148c0,0.167,0.235,0.296,0.525,0.395V9.872
			C7.604,9.993,7.369,10.163,7.369,10.401z"/>
		<path style="fill:#010002;" d="M12.527,15.385c0-0.479,0-7.618,0-8.055c0-0.375-0.486-0.009-0.486-0.009L8.964,9.619
			c0,0-0.287,0.031-0.619,0.11v3.333c0.332,0.072,0.619,0.104,0.619,0.104l3.01,2.234C11.974,15.401,12.527,15.863,12.527,15.385z"
			/>
		<path style="fill:#010002;" d="M13.828,13.88c0.128,0.132,0.298,0.197,0.466,0.197c0.164,0,0.328-0.062,0.453-0.186
			c0.825-0.804,1.225-1.678,1.193-2.6c-0.052-1.441-1.177-2.411-1.226-2.452c-0.273-0.231-0.686-0.197-0.918,0.076
			s-0.199,0.684,0.077,0.918c0.007,0.007,0.733,0.646,0.764,1.504c0.02,0.541-0.248,1.085-0.8,1.622
			C13.581,13.212,13.576,13.624,13.828,13.88z"/>
		<path style="fill:#010002;" d="M17.302,11.3c0.034,0.944-0.419,1.883-1.347,2.789c-0.257,0.251-0.262,0.663-0.011,0.919
			c0.127,0.133,0.296,0.197,0.467,0.197c0.162,0,0.326-0.062,0.454-0.183c1.199-1.175,1.786-2.441,1.741-3.768
			C18.53,9.175,16.899,7.77,16.831,7.71c-0.274-0.231-0.687-0.197-0.919,0.076c-0.232,0.273-0.197,0.686,0.076,0.918
			C16.001,8.716,17.251,9.814,17.302,11.3z"/>
	</g>
</g>
<g>
</g>
<g>
</g>
<g>
</g>
<g>
</g>
<g>
</g>
<g>
</g>
<g>
</g>
<g>
</g>
<g>
</g>
<g>
</g>
<g>
</g>
<g>
</g>
<g>
</g>
<g>
</g>
<g>
</g>
</svg>
