<?xml version="1.0" encoding="utf-8"?>
<!-- Svg Vector Icons : http://www.onlinewebfonts.com/icon -->
<!DOCTYPE svg PUBLIC "-//W3C//DTD SVG 1.1//EN" "http://www.w3.org/Graphics/SVG/1.1/DTD/svg11.dtd">
<svg version="1.1" xmlns="http://www.w3.org/2000/svg" xmlns:xlink="http://www.w3.org/1999/xlink" x="0px" y="0px" viewBox="0 0 1000 1000" enable-background="new 0 0 1000 1000" xml:space="preserve">
<metadata> Svg Vector Icons : http://www.onlinewebfonts.com/icon </metadata>
<g><g><g><path d="M990,752.7c0-112.6-78.5-206.9-183.8-231.2c-17.2-4-35.2-6.1-53.6-6.1c-5.2,0-10.2,0.2-15.3,0.5c-115,7.3-207.7,96.5-220.5,210c-1,8.8-1.5,17.7-1.5,26.8c0,17.1,1.8,33.7,5.3,49.8C543.5,909.6,638.6,990,752.7,990C883.7,990,990,883.7,990,752.7z M752.7,909.6c-86.7,0-157-70.3-157-157s70.3-157,157-157s157,70.3,157,157S839.3,909.6,752.7,909.6z"/><polygon points="783.3,645.5 729.7,645.5 729.7,729.7 645.5,729.7 645.5,783.3 783.3,783.3 783.3,729.7 783.3,729.7 "/><path d="M186.1,10c-14.8,0-26.8,12-26.8,26.8V98v65.1c0,14.8,12,26.8,26.8,26.8h23c14.8,0,26.8-12,26.8-26.8V98V36.8c0-14.8-12-26.8-26.8-26.8H186.1z"/><path d="M607.2,10c-14.8,0-26.8,12-26.8,26.8V98v65.1c0,14.8,12,26.8,26.8,26.8h23c14.8,0,26.8-12,26.8-26.8V98V36.8c0-14.8-12-26.8-26.8-26.8H607.2z"/><path d="M71.3,802.4h379c-3.7-18.6-5.7-37.8-5.7-57.4c0-6.4,0.3-12.8,0.7-19.1H124.8c-25.4,0-45.9-20.6-45.9-45.9V312.4h658.4v142c5.1-0.3,10.2-0.4,15.3-0.4c18.3,0,36.2,1.8,53.6,5V159.3c0-33.8-27.4-61.3-61.3-61.3h-49.8v65.1c0,35.9-29.2,65.1-65.1,65.1h-23c-35.9,0-65.1-29.2-65.1-65.1V98h-268v65.1c0,35.9-29.2,65.1-65.1,65.1h-23c-35.9,0-65.1-29.2-65.1-65.1V98H71.3C37.4,98,10,125.5,10,159.3v581.9C10,775,37.4,802.4,71.3,802.4z"/><circle cx="225.8" cy="427.3" r="60.8"/><circle cx="408.1" cy="427.3" r="60.8"/><circle cx="590.4" cy="427.3" r="60.8"/><circle cx="408.1" cy="611" r="60.8"/><circle cx="225.8" cy="611" r="60.8"/></g></g><g></g><g></g><g></g><g></g><g></g><g></g><g></g><g></g><g></g><g></g><g></g><g></g><g></g><g></g><g></g></g>
</svg>