<?xml version="1.0" encoding="utf-8"?>
<!-- Generator: Adobe Illustrator 16.0.4, SVG Export Plug-In . SVG Version: 6.00 Build 0)  -->
<!DOCTYPE svg PUBLIC "-//W3C//DTD SVG 1.1//EN" "http://www.w3.org/Graphics/SVG/1.1/DTD/svg11.dtd">
<svg version="1.1" id="Capa_1" xmlns="http://www.w3.org/2000/svg" xmlns:xlink="http://www.w3.org/1999/xlink" x="0px" y="0px"
	 width="16px" height="16px" viewBox="0 0 16 16" enable-background="new 0 0 16 16" xml:space="preserve">
<path d="M15.82,14.529l-6.938-13C8.709,1.204,8.37,1,8.001,1H8C7.631,1,7.293,1.203,7.119,1.528l-6.969,13
	c-0.166,0.311-0.157,0.685,0.023,0.986C0.354,15.814,0.68,16,1.031,16h13.906c0.351,0,0.677-0.184,0.858-0.486
	C15.976,15.213,15.985,14.839,15.82,14.529z M8,14c-0.552,0-1-0.448-1-1s0.448-1,1-1c0.551,0,1,0.448,1,1S8.551,14,8,14z M9,10.016
	c0,0.553-0.449,1-1,1c-0.552,0-1-0.447-1-1v-4c0-0.552,0.448-1,1-1c0.551,0,1,0.448,1,1V10.016z"/>
</svg>
