<?xml version="1.0" encoding="UTF-8" standalone="no"?>
<!-- Created with Inkscape (http://www.inkscape.org/) -->
<svg id="svg3092" xmlns:rdf="http://www.w3.org/1999/02/22-rdf-syntax-ns#" xmlns="http://www.w3.org/2000/svg" height="326.73" width="326.73" version="1.1" xmlns:cc="http://creativecommons.org/ns#" xmlns:dc="http://purl.org/dc/elements/1.1/">
 <metadata id="metadata3097">
  <rdf:RDF>
   <cc:Work rdf:about="">
    <dc:format>image/svg+xml</dc:format>
    <dc:type rdf:resource="http://purl.org/dc/dcmitype/StillImage"/>
    <dc:title/>
   </cc:Work>
  </rdf:RDF>
 </metadata>
 <g id="g3192" transform="matrix(2.1079092,0,0,2.1079092,-816.03489,-779.50482)">
  <path id="path3208" fill="#f3f7f8" d="m387.13,447.3,0-77.5,77.5,0,77.5,0,0,77.5,0,77.5-77.5,0-77.5,0,0-77.5z"/>
  <path id="path3206" fill="#adc8d4" d="m387.13,447.3,0-77.5,77.5,0,77.5,0,0,77.5,0,77.5-77.5,0-77.5,0,0-77.5zm31.27,13.067c2.7759-0.99046,4.8858-1.0892,8-0.37437,9.3993,2.1575,18.585-1.4606,21.826-8.5971,3.6747-8.0913,1.4395-19.233-4.6603-23.229-1.775-1.163-2.2223-1.9795-1.4871-2.7146,1.8227-1.8227,1.1381-3.0398-0.74918-1.3319-1.4918,1.35-2.4641,1.4462-5.6701,0.56102-14.847-4.0994-35.105,11.196-26.874,20.291,2.8649,3.1657,15.345,1.358,15.345-2.2226,0-0.55-1.3276-0.31344-2.9503,0.52568-11.215,5.7993-15.29-5.9743-4.6031-13.297,5.3511-3.6667,15.15-5.4201,19.965-3.5725l1.5754,0.60455-1.8703,2.6454c-1.0286,1.455-4.1382,7.1454-6.9102,12.645-7.141,14.169-6.974,14-13.855,14h-5.8027l-0.37306,1.8802c-0.70539,3.555,2.8579,4.4118,9.094,2.1868zm-7.2703-1.567c0-0.55,1.6875-0.99311,3.75-0.98469,2.7894,0.0114,3.3658,0.26364,2.25,0.98469-1.9709,1.2737-6,1.2737-6,0zm14.26-0.60511c-0.88699-0.3969-0.56106-1.4571,1.1451-3.7249,1.3117-1.7435,4.7569-8.2511,7.6559-14.461,5.8032-12.432,6.7552-13.07,10.741-7.2017l2.3728,3.4931-0.38431,6.2392c-0.40737,6.6135-2.1275,9.9297-7.0612,13.613-2.6029,1.9433-11.792,3.2404-14.47,2.0424zm46.838-1.9888,2.7075-2.594,0.66386,2.0916c1.4648,4.615,8.3874,3.2967,12.051-2.295,3.5413-5.4048,3.5479-12.609,0.0115-12.609-0.84272,0-1.5322,0.1882-1.5322,0.41821,0,0.23002-0.25088,1.072-0.55751,1.8711-0.30663,0.79907,0.19139,2.2018,1.1067,3.1171l1.6642,1.6642-1.2445,3.0046c-2.7273,6.5843-8.9895,8.1088-8.9334,2.1749,0.0452-4.7817,1.1724-6.5919,8.1795-13.136,6.2299-5.8185,10.759-13.54,8.9836-15.315-3.4765-3.4765-10.087,3.6688-17.852,19.295-4.9534,9.9687-8.8307,14.822-10.505,13.148-0.67166-0.67167-0.31525-2.3533,1.0773-5.0829,2.4646-4.831,2.6271-7.012,0.58102-7.7972-0.825-0.31659-1.5-1.273-1.5-2.1254,0-0.85241-2.2796,1.6962-5.0658,5.6636-7.7045,10.971-11.103,11.333-6.104,0.64952,3.1979-6.8337,2.8046-8.6538-0.78172-3.6173-3.4165,4.798-4.9849,9.3182-3.9221,11.304,2.0981,3.9203,6.3536,1.4618,11.46-6.6207,3.9238-6.2107,6.4902-5.8718,2.9136,0.38474-4.2372,7.4122,0.62276,12.131,6.5981,6.406zm14.902-12.465c0-0.58246,0.45-0.7809,1-0.44098s1,0.81648,1,1.059c0,0.24254-0.45,0.44098-1,0.44098s-1-0.47656-1-1.059zm-4-3.5988c0-1.3722,7.4807-12.903,8.9667-13.822,2.3271-1.4382,2.2222,0.48078-0.25599,4.6842-2.6855,4.555-8.7107,10.875-8.7107,9.1373zm34.027,16.939c3.3497-2.3292,5.9013-5.463,5.9282-7.2808,0.0125-0.84768-1.1328-0.0341-2.6338,1.8708-4.4105,5.5976-11.711,7.5165-12.532,3.294-0.2308-1.1867,1.1069-2.2393,4.6572-3.6649,8.0117-3.2169,10.416-10.5,3.4665-10.5-3.2196,0-4.4272,1.0296-14.139,12.056l-3.7255,4.2296-1.5245-1.2652c-2.6569-2.205-1.6874-4.8426,4.48-12.188,6.3152-7.5213,11.629-16.999,10.528-18.78-3.3669-5.4477-16.007,9.2798-18.573,21.64-2.073,9.9856,2.6077,14.581,9.4052,9.2343,1.8934-1.4893,2.6349-1.6863,2.6349-0.7,0,3.8842,7.5427,5.1718,12.027,2.0533zm-8.0852-8.1729c0.55696-1.0407,2.4853-3.1321,4.2852-4.6477l3.2725-2.7556,0.36274,1.8524c0.40524,2.0694-4.9472,7.443-7.4137,7.443-1.1807,0-1.2936-0.42185-0.50677-1.8921zm-11.271-7.1079c2.7337-7.2862,8.9246-16,11.368-16,2.3348,0-2.8387,9.2168-8.981,16l-4.0748,4.5,1.6883-4.5zm-34.848-4.3329c0.18332-0.94521-0.31164-1.6671-1.143-1.6671-1.5819,0-2.9366,2.4104-1.9239,3.4231,1.0116,1.0116,2.7199,0.0336,3.0669-1.7559z"/>
  <path id="path3204" fill="#8cb3c4" d="m387.13,447.3,0-77.5,77.5,0,77.5,0,0,77.5,0,77.5-77.5,0-77.5,0,0-77.5zm32.282,13.182c1.8744-0.768,4.2617-1.0184,5.7179-0.59968,8.1366,2.3394,17.935-0.37338,22.008-6.0931,4.6064-6.4692,3.9081-17.815-1.446-23.492-2.3573-2.4995-3.1959-4.1811-2.8138-5.6424l0.54438-2.0817-1.9386,1.0375c-1.0904,0.58357-4.5767,0.79828-7.9682,0.49075-8.9178-0.80863-16.388,1.648-21.962,7.2226l-4.4235,4.4235v3.9549c0,7.7269,8.7339,10.414,15.75,4.845,2.4012-1.9058,1.2256-2.786-1.7003-1.2729-3.9921,2.0644-7.3838,1.9189-9.4889-0.40716-5.5476-6.13,6.7119-17.101,19.055-17.052,6.3371,0.025,6.9976,1.0524,3.866,6.0132-1.4902,2.3607-4.0333,7.2575-5.6513,10.882-1.618,3.6243-4.0502,8.201-5.4049,10.17l-2.4632,3.5807-5.4657-0.45325c-4.3975-0.36468-5.5874-0.13617-6.0883,1.1693-1.6856,4.3927,3.2145,6.0325,9.8735,3.304zm-8.2821-1.6815c0-0.55,1.6875-0.99311,3.75-0.98469,2.7894,0.0114,3.3658,0.26364,2.25,0.98469-1.9709,1.2737-6,1.2737-6,0zm14.675-0.6521-1.8255-0.52362,1.8255-2.0075c1.004-1.1041,4.5255-7.4588,7.8255-14.121,6.7098-13.547,7.3465-14.124,10.578-9.586,4.9161,6.9041,2.7736,19.105-4.2534,24.222-2.6568,1.9346-10.526,3.0562-14.15,2.0168zm89.875,0.0618c3.5483-1.6838,9.1084-8.0856,7.992-9.202-0.36349-0.36349-2.0964,1.0052-3.851,3.0415-3.6667,4.2555-7.4762,6.0096-9.9927,4.6013-2.6508-1.4834-1.9984-3.6255,1.3266-4.3558,4.2494-0.93332,8.976-5.1716,8.976-8.0484,0-6.5021-9.4871-3.7908-14.503,4.1447-3.7995,6.011-7.3081,8.8106-9.1382,7.2917-2.4903-2.0668-1.4075-5.0072,4.1326-11.222,6.1125-6.8574,11.98-16.989,11.127-19.213-2.6816-6.9881-17.239,10.201-19.265,22.748-1.3605,8.4233,2.3879,12.203,8.5694,8.6406l3.4222-1.9721,0.91316,1.6317c0.83511,1.4923,4.0093,3.2852,6.0912,3.4407,0.46688,0.0349,2.357-0.65225,4.2002-1.5269zm-6.6574-9.2072c0.58481-1.0927,2.5359-3.2268,4.3358-4.7423l3.2725-2.7556,0.34818,1.7768c0.40811,2.0826-3.3379,6.0116-6.684,7.0105l-2.3358,0.69734,1.0633-1.9868zm-11.856-4.9857c-0.10014-3.5734,9.5804-18.217,12.043-18.217,0.47941,0,0.43099,1.159-0.10761,2.5757-1.8267,4.8045-11.87,17.966-11.935,15.641zm-24.751,12.387,2.134-2.3958,1.0631,2.1458c2.8726,5.7984,12.264,1.0138,14.531-7.4025,1.0988-4.0804,0.0607-7.9517-2.1322-7.9517-0.57687,0,0.27731-1.6875,1.8982-3.75,5.5241-7.0293,7.5483-12.531,4.971-13.512-4.0743-1.5501-10.556,5.8013-16.984,19.262-3.803,7.9644-8.0941,14-9.9534,14-1.3323,0-0.92294-3.4723,0.65529-5.5589,1.9982-2.6419,1.8908-5.1692-0.3401-8.0054l-1.8719-2.3797-4.6668,7.0182c-7.1079,10.689-10.98,11.167-5.7999,0.71523,3.4713-7.0036,3.2782-8.7885-0.46413-4.2895-5.3221,6.3983-6.5529,13.5-2.3397,13.5,3.5197,0,5.1272-1.2759,9.2422-7.3355,4.5021-6.6296,5.9443-6.501,2.9173,0.26015-1.0498,2.3448-1.6844,5.121-1.4103,6.1693,0.73678,2.8174,5.8664,2.5236,8.5506-0.4898zm6.0734-1.1117c-1.0641-2.7729,0.74449-8.6836,3.414-11.158l2.6413-2.4479,0.8428,2.2783c0.46354,1.2531,1.3185,2.5723,1.9,2.9317,1.503,0.92888,0.21204,4.2615-2.8285,7.302-2.9289,2.9289-5.1118,3.3288-5.9696,1.0935zm8.6413-11.551c0-0.58246,0.45-0.7809,1-0.44098s1,0.81648,1,1.059c0,0.24254-0.45,0.44098-1,0.44098s-1-0.47656-1-1.059zm-1.7651-8.0063c3.0621-5.4264,7.4169-10.585,8.2486-9.7703,0.85616,0.83822-0.95776,4.2745-4.7635,9.0238-4.2418,5.2936-6.2997,5.7344-3.4852,0.74652zm-22.423,1.8038c0.20348-1.0566-0.28235-1.7385-1.2385-1.7385-0.86532,0-1.5733,0.1882-1.5733,0.41821,0,0.23002-0.29066,1.1757-0.64591,2.1014-0.48611,1.2668-0.17971,1.5934,1.2385,1.3203,1.0364-0.1996,2.0351-1.1452,2.2192-2.1014z"/>
  <path id="path3202" fill="#80acbe" d="m387.13,447.3,0-77.5,77.5,0,77.5,0,0,77.5,0,77.5-77.5,0-77.5,0,0-77.5zm41,13.377c13.655,0.29712,20.78-4.531,21.761-14.747,0.69152-7.1969-0.32029-11.14-4.0061-15.611-1.7809-2.1606-3.0954-4.7703-2.921-5.7995,0.25954-1.532-0.015-1.6936-1.5144-0.89109-1.0073,0.53908-4.8046,0.74148-8.4386,0.44978-9.0004-0.72247-15.805,1.5926-21.541,7.3286l-4.3403,4.3403v3.9549c0,6.3481,3.9974,8.9833,10.834,7.1424,3.742-1.0076,7.0155-3.5281,5.9569-4.5867-0.27154-0.27155-1.7982,0.18655-3.3925,1.018-8.8277,4.6037-14.001-3.7999-6.6002-10.721,4.1487-3.8799,8.979-5.9305,15.114-6.416,7.9784-0.6315,8.9304,0.3665,5.513,5.7795-1.5215,2.41-4.2339,7.5318-6.0276,11.382-1.7937,3.85-4.1655,8.3207-5.2707,9.935l-2.0095,2.935-5.5622-0.25766c-5.8476-0.27087-7.5118,0.95221-6.1444,4.5157,0.51765,1.349,1.436,1.494,5.357,0.84619,2.6027-0.43003,8.5572-0.69864,13.232-0.59691zm-17-1.8773c0-0.55,1.6875-0.96837,3.75-0.92972,3.0082,0.0564,3.3544,0.2403,1.75,0.92972-2.7789,1.1941-5.5,1.1941-5.5,0zm15.75-0.68933c-2.0675-0.54028-2.2143-1.4587-0.5-3.1274,0.6875-0.66919,3.95-6.7217,7.25-13.45,6.6164-13.49,7.7519-14.325,11.202-8.2333,7.1242,12.579-4.3059,28.377-17.952,24.811zm88.905,0.0486c3.6004-1.7085,9.0967-7.9406,7.9843-9.053-0.35162-0.35162-2.3993,1.2671-4.5505,3.5972l-3.9111,4.2365-3.3308-0.31999c-4.5271-0.43493-5.1272-3.38-0.87889-4.313,4.2981-0.94402,9.0317-5.1687,9.0317-8.0607,0-6.4302-10.038-3.6511-14.536,4.0246-3.1561,5.3855-5.8253,7.7978-8.1398,7.3565-3.7642-0.71773-2.677-4.6111,3.0959-11.088,5.6099-6.2936,11.58-16.156,11.58-19.13,0-1.1078-0.89949-1.61-2.8836-1.61-5.7746,0-15.759,15.138-16.83,25.517l-0.53969,5.2291,2.178,2.178c2.3041,2.3041,5.2423,2.1268,7.9903-0.48202l1.4146-1.343,2.9121,2.4504c3.4321,2.8879,4.7884,3.0046,9.414,0.80963zm-6.6553-8.2474c0-1.6171,5.0907-7.1119,6.5889-7.1119,1.9574,0,1.7661,2.3803-0.33889,4.2165-2.6638,2.3236-6.25,3.9849-6.25,2.8954zm-12-6.1452c0-1.98,5.0183-10.918,8.1017-14.43,7.1578-8.1522,5.3283-1.414-2.3656,8.7131-5.3374,7.0254-5.7361,7.4227-5.7361,5.7168zm-24.715,12.637,2.134-2.3958,1.0635,2.1458c2.5074,5.0594,9.9976,2.4162,13.468-4.7527,2.5629-5.2943,2.5992-8.241,0.12036-9.789l-1.9288-1.2045,2.7917-3.5539c5.373-6.84,7.3643-12.346,4.8158-13.316-4.0358-1.5355-10.477,5.7112-16.952,19.071-3.9965,8.2465-8.1381,14.191-9.8872,14.191-1.3962,0-1.0235-3.2674,0.62069-5.4411,1.8878-2.496,1.8783-5.9737-0.0208-7.5497-0.81894-0.67967-1.2424-1.6348-0.94098-2.1224,0.3014-0.48768,0.15405-0.88669-0.32745-0.88669s-3.2319,3.375-6.112,7.5-5.8677,7.5-6.6392,7.5h-1.4027l1.3864-3.9296c0.76254-2.1612,2.1535-5.1003,3.0911-6.5312,0.93757-1.4309,1.4215-2.8849,1.0754-3.231-2.0281-2.0281-9.2747,10.122-8.1502,13.665,1.4648,4.6153,6.9399,2.0976,11.993-5.5147,4.4156-6.6524,5.6206-6.4533,2.6557,0.43876-1.173,2.7267-1.8612,5.6654-1.5292,6.5304,0.94609,2.4655,6.1888,1.968,8.6749-0.82314zm6.0734-1.1117c-1.068-2.7832,0.70858-8.474,3.4345-11.002l2.7019-2.5054,0.83574,2.5072c0.45966,1.379,1.2482,2.5072,1.7524,2.5072,1.8559,0,0.83201,3.0268-2.1869,6.4652-3.3092,3.769-5.5971,4.4785-6.5377,2.0273zm6.751-19.243c3.3829-5.5817,7.0162-10.25,7.9776-10.25,1.3228,0-0.0894,3.064-3.7548,8.1466-4.288,5.9458-7.5304,7.5608-4.2228,2.1033zm-22.298,1.4886c0.20348-1.0566-0.28235-1.7385-1.2385-1.7385-0.86532,0-1.5733,0.1882-1.5733,0.41821,0,0.23002-0.29066,1.1757-0.64591,2.1014-0.48611,1.2668-0.17971,1.5934,1.2385,1.3203,1.0364-0.1996,2.0351-1.1452,2.2192-2.1014z"/>
  <path id="path3200" fill="#5f98af" d="m387.13,447.3,0-77.5,77.5,0,77.5,0,0,77.5,0,77.5-77.5,0-77.5,0,0-77.5zm41.027,13.422c13.19,0.30656,18.766-2.9603,21.581-12.644l1.5343-5.2778-1.5343-5.2778c-0.89365-3.0741-2.7546-6.447-4.457-8.0779-1.916-1.8356-2.7495-3.4622-2.42-4.7222,0.49516-1.8935-0.72304-2.5964-2.105-1.2144-0.38921,0.38921-4.8517,0.73029-9.9167,0.75795-12.429,0.0679-20.481,4.4753-23.691,12.968-1.9135,5.0632,1.9969,10.566,7.5084,10.566,2.8101,0,9.4732-3.2415,9.4732-4.6086,0-1.7318-0.12563-1.7282-3.6357,0.10242-8.7969,4.5879-13.947-3.836-6.5657-10.739,4.6576-4.3559,9.2456-6.15,15.866-6.2042,7.423-0.0608,8.1561,0.48877,5.5443,4.1566-1.1053,1.5522-3.8316,6.5507-6.0585,11.108-2.2269,4.557-4.9711,9.7776-6.0982,11.601l-2.0493,3.3158-3.8319-0.70071c-6.1809-1.1302-10.676,1.4502-8.0461,4.6189,1.0151,1.2231,2.2828,1.4008,5.8361,0.81822,2.4966-0.40935,8.3763-0.6551,13.066-0.5461zm-17.027-1.9222c0-0.55,1.4625-0.99311,3.25-0.98469,2.4662,0.0116,2.8883,0.24909,1.75,0.98469-1.9655,1.2702-5,1.2702-5,0zm15.75-0.64666c-2.0012-0.57174-2.2794-1.9081-0.61185-2.9387,0.62599-0.38688,3.6074-5.9259,6.6254-12.309,7.6269-16.131,8.3799-16.665,12.396-8.793,6.2446,12.24-5.5951,27.702-18.409,24.041zm43.209,0.1677c1.573-0.81343,3.079-2.0509,3.3466-2.75,0.33246-0.86834,1.0127-0.55818,2.147,0.97896,2.0947,2.8384,6.3962,2.9431,9.8336,0.23925,5.1296-4.035,7.3876-15.989,3.0201-15.989h-1.6553l2.0319-2.25c6.4829-7.1786,8.9953-13.892,5.6758-15.166-3.9204-1.5044-10.107,5.7796-16.996,20.009-6.0718,12.543-13.597,19.287-8.5742,7.6836l2.068-4.7773-1.4287-1.5787c-0.78578-0.86831-1.4287-2.1058-1.4287-2.75,0-2.6644-2.1363-0.77908-6.5191,5.7534-6.9746,10.396-10.192,10.358-4.9137-0.0574,4.1715-8.2321,0.70355-7.5982-4.1991,0.76743-3.4666,5.9152-2.9405,8.8652,1.581,8.8652,3.3584,0,7.23-3.637,10.953-10.289,1.972-3.5238,2.123-0.25009,0.15765,3.4169-2.4725,4.6131-2.5433,5.7453-0.48799,7.8006,1.9179,1.9179,1.8598,1.9169,5.3879,0.0925zm8.7074-2.1877c-2.0164-2.0164,0.48608-10.026,3.946-12.63l2.3873-1.7967v2.0781c0,1.1429,0.675,2.3371,1.5,2.6537,2.2925,0.87973,1.8084,2.9408-1.6036,6.8268-2.9997,3.4165-4.836,4.2619-6.2297,2.8681zm8.1047-22.447c3.7074-5.9997,7.8954-9.936,6.5536-6.1599-0.92278,2.597-7.46,11.111-8.9788,11.694-0.71693,0.27511,0.37439-2.2151,2.4252-5.5339zm28.629,24.719c3.3902-1.4165,9.3878-8.1513,8.2618-9.2773-0.33922-0.33921-2.4523,1.2747-4.6958,3.5864-3.3675,3.4699-4.6347,4.1492-7.2645,3.894-4.3958-0.42663-4.9006-3.387-0.7336-4.3022,7.1322-1.5665,11.677-9.0207,7.0201-11.513-3.3245-1.7792-8.536,1.4498-13.037,8.0774-4.0724,5.9968-7.529,8.204-9.0612,5.7858-1.5952-2.5175-0.9088-4.0222,4.6233-10.135,8.61-9.5144,13.389-18.928,10.511-20.706-5.2926-3.271-17.479,13.298-18.736,25.474l-0.54258,5.257,2.1268,2.1268c2.6221,2.6221,4.2302,2.6734,7.246,0.2314l2.3407-1.8954,2.8468,2.3954c3.295,2.7725,4.5296,2.9085,9.0936,1.0015zm-6.4003-8.5037c0-1.6099,5.0954-7.1024,6.5889-7.1024,1.6823,0,1.7455,0.5066,0.38147,3.0554-1.1509,2.1504-6.9704,5.5292-6.9704,4.047zm-11.518-7.1024c0.99816-3.5304,6.5824-12.712,9.2633-15.23,4.7257-4.4396,1.4779,3.5934-4.5407,11.23-5.1367,6.5182-5.5283,6.8498-4.7226,4zm-34.065-6.1336c-1.5391-2.4903-5.0653,0.003-3.9852,2.8177l0.60946,1.5882,1.9556-1.7698c1.0756-0.97337,1.7146-2.1596,1.4201-2.6361z"/>
  <path id="path3198" fill="#32809d" d="m387.13,447.3,0-77.5,77.5,0,77.5,0,0,77.5,0,77.5-77.5,0-77.5,0,0-77.5zm42.673,13.244c8.5125-0.20435,10.634-0.58564,13-2.3362,9.4583-6.9985,10.671-19.594,2.7329-28.381-2.2786-2.5221-3.096-4.1008-2.3591-4.5562,0.81197-0.50183,0.8233-1.0012,0.0405-1.784-0.78285-0.78284-1.399-0.77525-2.2014,0.0271-0.72526,0.72527-3.6861,0.91974-8.4815,0.55706-13.299-1.0058-26.404,7.2954-26.404,16.724,0,3.0343,4.3851,7.0083,7.7046,6.9822,4.1244-0.0324,11.9-3.7734,10.582-5.0912-0.74269-0.74269-1.9685-0.58565-4.1223,0.52808-4.3308,2.2395-6.8641,1.9732-8.7604-0.9208l-1.6419-2.5059,1.2486-3.0144c2.6334-6.3576,13.955-11.89,21.745-10.626,4.46,0.72375,4.9182,1.2403,3.0127,3.396-0.85374,0.96587-4.0351,6.7296-7.0696,12.808-6.4968,13.014-6.9567,13.48-13.031,13.216-3.2294-0.14055-5.1742,0.30938-6.329,1.4643l-1.6672,1.6672,1.3574,1.6355c1.047,1.2616,2.3992,1.5004,5.9141,1.0444,2.5062-0.32511,9.1345-0.70101,14.73-0.83533zm-18.173-1.7442c-0.36506-0.59067,0.73644-0.99373,2.691-0.98469,2.5044,0.0116,2.9443,0.25104,1.809,0.98469-1.9439,1.2563-3.7236,1.2563-4.5,0zm15.734-0.85225-2.2655-0.64775,2.5098-3.6885c1.3804-2.0287,4.1526-7.4287,6.1605-12s4.3244-9.3425,5.1476-10.603l1.4968-2.291,2.3291,2.1881c10.998,10.332-0.86461,31.191-15.378,27.042zm44.495-0.57334,2.8826-2.4256,1.2026,1.9256c1.4697,2.3533,5.8778,2.5299,8.9765,0.35951,5.6656-3.9684,8.3803-16.434,3.5789-16.434-0.87999,0,0.1091-1.9297,2.6121-5.0963,4.1932-5.3048,5.6389-8.8438,4.6574-11.402-2.2165-5.7762-12.834,5.943-20.084,22.168-2.7726,6.205-6.9522,11.266-8.2401,9.9782-0.38091-0.3809,0.31288-2.762,1.5417-5.2914l2.2343-4.5988-1.5457-1.708c-0.85012-0.93938-1.5457-2.235-1.5457-2.8792,0-2.5538-2.1106-0.89939-5.8412,4.5787-2.1536,3.1625-4.8704,6.6072-6.0373,7.655l-2.1216,1.905v-1.6882c0-0.92852,1.1553-3.968,2.5672-6.7544,2.8309-5.5866,2.5772-7.2124-0.66751-4.2779-6.3362,5.7303-7.4832,13.911-1.9506,13.911,3.3584,0,7.23-3.637,10.953-10.289,1.9247-3.4393,1.9998-0.44091,0.0831,3.3186-4.1871,8.2127,0.0707,12.66,6.7443,7.0448zm6.7307-1.6393c-0.36198-0.58568-0.37671-2.565-0.0327-4.3986,0.97642-5.2048,6.5728-11.3,6.5728-7.159,0,0.75765,0.66315,1.9279,1.4737,2.6006l1.4737,1.223-1.468,2.8387c-2.2899,4.4281-6.6596,7.0955-8.0195,4.8952zm7.5146-20.581c2.1622-3.9378,6.5551-9.3546,7.5863-9.3546,1.2094,0-3.7174,7.8144-6.62,10.5l-3.2424,3,2.2762-4.1454zm31.036,22.395c3.819-2.5992,7.6623-7.4109,6.6933-8.3798-0.36442-0.36442-2.717,1.2312-5.228,3.5457-3.4283,3.1601-5.2371,4.1306-7.2619,3.8962-2.9584-0.34239-4.5485-3.8121-1.747-3.8121,6.0362,0,12.304-6.9538,9.8286-10.905-2.6604-4.2466-9.2692-0.98631-14.756,7.2794-3.1129,4.6898-6.8749,7.7344-7.9906,6.4667-2.2303-2.534-1.2738-5.0556,4.2992-11.334,9.7349-10.967,13.699-20.407,8.9492-21.312-2.781-0.52989-10.53,7.5155-13.971,14.506-6.8227,13.859-3.3909,26.435,5.2944,19.402l2.3421-1.8965,2.221,2.3965c2.8223,3.0453,6.9882,3.0992,11.327,0.14648zm-8.0102-7.6476c0-1.6099,5.0954-7.1024,6.5889-7.1024,1.6823,0,1.7455,0.5066,0.38147,3.0554-1.1509,2.1504-6.9704,5.5292-6.9704,4.047zm-10.414-9.6549c1.848-4.4228,6.4608-11.412,8.8292-13.377,4.7582-3.9489-3.2557,10.904-8.2848,15.355l-2.1749,1.925,1.6305-3.9024zm-35.131-2.192c0.33556-0.87444,0.14214-2.0579-0.42982-2.6298-1.4243-1.4243-4.494,1.7115-3.7002,3.78,0.70568,1.839,3.2555,1.1289,4.1301-1.1501z"/>
  <path id="path3196" fill="#03668a" d="m387.13,447.3,0-77.5,77.5,0,77.5,0,0,77.5,0,77.5-77.5,0-77.5,0,0-77.5zm41.253,13.486c9.1067,0.1961,13.444-1.0161,17.029-4.7596,7.5149-7.8457,7.2319-19.891-0.6376-27.139-1.9053-1.7548-2.337-2.7529-1.5834-3.661,1.4453-1.7415-0.72136-2.9532-2.5569-1.4299-0.77994,0.64729-2.3612,0.86625-3.5442,0.49078-9.9786-3.1671-24.893,2.682-29.486,11.563-4.5978,8.8912,3.1306,14.58,13.448,9.8992,5.6113-2.5457,4.382-4.8106-1.3183-2.4288-10.132,4.2333-12.548-6.5589-2.8986-12.945,4.3291-2.8649,12.069-4.6496,16.821-3.8786l3.1461,0.51054-6.4793,12.646c-8.2883,16.176-8.5457,16.47-13.762,15.688-3.2072-0.48095-4.64-0.19267-6.4906,1.3059l-2.3749,1.9231,1.4288,1.7216c1.1671,1.4063,2.3516,1.5939,6.4676,1.0244,2.7714-0.38345,8.5275-0.62206,12.791-0.53025zm-16.003-2.6758c0.9625-0.25152,2.5375-0.25152,3.5,0,0.9625,0.25153,0.175,0.45733-1.75,0.45733s-2.7125-0.2058-1.75-0.45733zm14.148-2.5607c0.90282-1.2375,4.338-7.836,7.6338-14.663l5.9923-12.413,2.4994,2.3481c3.4827,3.2718,4.774,8.691,3.4639,14.537-1.9864,8.8637-6.385,12.425-15.359,12.435l-5.872,0.007,1.6415-2.25zm45.332,1.8244,2.8826-2.4256,1.2026,1.9256c1.5744,2.521,6.1883,2.4979,9.4239-0.0472,5.0222-3.9505,7.6289-13.883,4.1539-15.828l-1.6078-0.89978,3.6081-4.7268c3.8171-5.0006,5.1964-8.5962,4.2468-11.071-2.0192-5.2618-11.151,3.9616-18.47,18.656-5.1581,10.356-8.4671,14.878-9.8642,13.481-0.37536-0.37536,0.32296-2.752,1.5518-5.2813l2.2343-4.5988-1.5457-1.708c-0.85012-0.93938-1.5457-2.235-1.5457-2.8792,0-2.5538-2.1106-0.89939-5.8412,4.5787-2.1536,3.1625-4.8704,6.6072-6.0373,7.655l-2.1216,1.905v-1.6882c0-0.92852,1.1603-3.978,2.5784-6.7765,3.3162-6.5442,1.8881-7.9603-2.3769-2.3569-4.3376,5.6989-5.2693,10.87-2.2497,12.486,2.9594,1.5838,6.0972-0.54274,10.311-6.9881,3.8806-5.9351,5.585-6.5694,2.757-1.026-4.3379,8.503-0.0844,13.33,6.7089,7.6142zm6.7307-1.6393c-0.36198-0.58568-0.37671-2.565-0.0327-4.3986,0.97642-5.2048,6.5728-11.3,6.5728-7.159,0,0.75765,0.66315,1.9279,1.4737,2.6006l1.4737,1.223-1.468,2.8387c-2.2899,4.4281-6.6596,7.0955-8.0195,4.8952zm7.5359-20.682c2.4796-4.445,7.0042-9.3396,7.0042-7.5772,0,1.3387-5.1448,8.4021-7.52,10.324-1.5376,1.2443-1.4496,0.77609,0.51585-2.7472zm31.014,22.497c3.9922-2.717,7.4588-7.1822,6.6243-8.5324-0.33381-0.54012-2.6114,1.0224-5.0613,3.4723-3.5083,3.5083-5.0492,4.3859-7.2552,4.1322-3.0896-0.35537-4.7154-3.8222-1.7924-3.8222,3.1282,0,8.558-3.2609,9.9671-5.9858l1.4045-2.7161-1.5053-2.1491c-2.8114-4.0138-9.4216-1.2305-13.89,5.8487-5.2686,8.3459-9.5014,10.533-9.5014,4.9095,0-2.3337,1.309-4.5392,5.334-8.9869,9.1396-10.1,13.116-19.838,8.4634-20.724-2.781-0.52989-10.53,7.5155-13.971,14.506-6.8227,13.859-3.3909,26.435,5.2944,19.402l2.3421-1.8965,2.221,2.3965c2.8223,3.0453,6.9882,3.0992,11.327,0.14648zm-7.0376-9.6987c1.0661-1.992,4.8514-5.0513,6.25-5.0513,1.5246,0,0.73886,2.1295-1.6771,4.5454-3.0715,3.0715-6.1269,3.4095-4.5729,0.50583zm-9.5652-10.687c3.9215-7.5219,8.5926-13.041,8.5926-10.153,0,1.9174-7.079,12.662-10.104,15.336-1.7851,1.5779-1.4951,0.58353,1.5113-5.1831zm-37.35,1.5282c0.8201-1.5324,0.82775-2.4074,0.028-3.2071-1.4893-1.4893-4.5788,1.5865-3.7536,3.737,0.84032,2.1898,2.3878,1.9698,3.7256-0.52982z"/>
  <path id="path3194" fill="#00547d" d="m387.13,447.3,0-77.5,77.5,0,77.5,0,0,77.5,0,77.5-77.5,0-77.5,0,0-77.5zm43.5,13.306,10-0.30611,3.2651-2.3288c8.5655-6.1094,9.5079-20.498,1.8728-28.594-2.2451-2.3805-2.9807-3.8346-2.2896-4.5258,1.5344-1.5344-0.18788-2.633-2.1786-1.3897-1.0793,0.67401-3.5401,0.81298-6.4842,0.36618-13.443-2.0402-26.713,5.2072-28.384,15.502-1.1779,7.2587,6.5748,10.817,14.639,6.7185,3.6286-1.8441,5.2113-4.2484,2.7965-4.2484-0.78633,0-2.89,0.72848-4.6748,1.6188-7.1479,3.5658-11.224-3.7289-5.5212-9.8797,4.8396-5.2193,10.948-7.2932,20.277-6.8845l3.3181,0.14537-2.0797,2.9207c-1.1439,1.6064-3.7351,6.4439-5.7584,10.75s-4.7391,9.5412-6.0352,11.634l-2.3565,3.8042-4.3388-0.65065c-4.9566-0.74329-8.5676,0.69419-8.5676,3.4107,0,2.8693,1.1426,3.3211,6.995,2.7659,3.0278-0.28723,10.005-0.65998,15.505-0.82835zm-17.75-2.4684c0.6875-0.27741,1.8125-0.27741,2.5,0s0.125,0.50438-1.25,0.50438-1.9375-0.22697-1.25-0.50438zm13.516-2.0877c0.86689-0.9625,4.3723-7.5747,7.7899-14.694l6.2137-12.944,2.3186,2.6955c9.1369,10.622,1.6206,26.679-12.493,26.688l-5.405,0.004,1.5762-1.75zm45.493,1.5063,2.3883-2.2437,0.97582,1.7437c1.6141,2.8842,7.962,2.31,11.126-1.0063,4.592-4.8135,6.2888-12.729,3.2664-15.237l-1.4843-1.2318,3.5212-4.1138c5.3108-6.2045,6.0391-11.867,1.6074-12.497-3.5153-0.50013-9.1403,6.294-15.329,18.515-5.0722,10.016-9.3365,16.143-10.456,15.023-0.2829-0.28291,0.41702-2.3401,1.5554-4.5714,2.5806-5.0583,2.5522-5.9593-0.29687-9.4408l-2.2947-2.8041-4.7101,7.0202c-7.1204,10.613-9.7924,11.317-4.7058,1.2409,2.7598-5.4672,2.8333-8.3563,0.17058-6.7107-2.4047,1.4862-7.0934,10.186-7.0934,13.162,0,6.8966,6.9247,5.095,12.46-3.2417,4.1175-6.2013,5.4511-7.055,2.5419-1.6272-4.4018,8.2128,0.43817,13.958,6.7575,8.0211zm6.2406-2.8903c0-3.2438,2.5933-9.0247,4.6541-10.375l2.3459-1.5371v1.6628c0,0.91455,0.6814,2.1624,1.5142,2.7731l1.5142,1.1102-2.5503,3.75c-2.4866,3.6563-7.4782,5.4025-7.4782,2.616zm8.8862-20.527c3.0005-4.8765,6.1138-8.386,6.1138-6.8919,0,1.0911-5.6472,9.015-7.5507,10.595-0.94571,0.78487-0.29909-0.88138,1.4369-3.7028zm30.29,23.882c3.9018-2.5733,7.1134-7.0234,6.4036-8.8732-0.48054-1.2523-1.5314-0.60465-4.9156,3.0294-3.671,3.942-9.6646,6.5492-9.6646,4.204,0-0.23002-0.27314-1.13-0.60699-2-0.4475-1.1662,0.0123-1.5828,1.75-1.5855,5.9237-0.009,11.913-6.3834,9.9813-10.623-2.5959-5.6973-8.5809-2.4468-18.473,10.033-3.3677,4.2486-5.6515,4.6673-5.6515,1.0361,0-1.6673,2.089-5.0393,6.0015-9.6873,9.7118-11.538,12.59-19.818,7.1554-20.587-3.1512-0.44616-9.9695,6.7055-13.74,14.411-6.6778,13.649-2.7436,26.24,6.2339,19.952l2.0962-1.4683,1.7812,1.9683c2.2588,2.496,8.0091,2.5897,11.648,0.18982zm-7.1766-8.9993c0-1.3802,5.9191-6.6365,6.6501-5.9055,0.77409,0.77409-2.2962,4.4234-4.8889,5.811-0.96866,0.51841-1.7612,0.56092-1.7612,0.0945zm-11.968-6.7223c-0.023-1.793,5.6891-10.938,8.4174-13.476l2.662-2.4765-0.72387,1.9765c-1.3212,3.6073-10.333,15.77-10.356,13.976zm-34.661-3.7225c1.3428-2.1323-0.45693-4.342-2.8031-3.4417-2.1884,0.83978-2.1184,5.9193,0.0756,5.4875,0.90355-0.17782,2.1309-1.0984,2.7275-2.0458z"/>
 </g>
</svg>
