<?xml version="1.0" encoding="UTF-8" standalone="no"?>
<!-- Generator: Adobe Illustrator 16.0.0, SVG Export Plug-In . SVG Version: 6.00 Build 0)  -->
<svg id="Layer_1" xmlns:rdf="http://www.w3.org/1999/02/22-rdf-syntax-ns#" xmlns="http://www.w3.org/2000/svg" enable-background="new 0 0 100 100" xml:space="preserve" height="58.334" viewBox="0 0 58.334 58.334" width="58.334" version="1.1" y="0px" x="0px" xmlns:cc="http://creativecommons.org/ns#" xmlns:dc="http://purl.org/dc/elements/1.1/"><metadata id="metadata9"><rdf:RDF><cc:Work rdf:about=""><dc:format>image/svg+xml</dc:format><dc:type rdf:resource="http://purl.org/dc/dcmitype/StillImage"/><dc:title/></cc:Work></rdf:RDF></metadata><path id="path3" fill="#020202" d="M56.334,0h-54.334c-1.104,0-2,0.896-2,2v54.334c0,1.104,0.896,2,2,2h54.334c1.104,0,2-0.896,2-2v-54.334c0-1.104-0.896-2-2-2zm-45.167,3.001h36v16.833h-36v-16.833zm37.751,51.083h-39.5v-24.917h39.5v24.917zm-11.917-48.583h5.001v12.001h-5.001v-12.001zm8.291,29.833h-32.25v-2h32.25v2zm0,7h-32.25v-2h32.25v2zm0,6.75h-32.25v-2h32.25v2z"/></svg>
