<?xml version="1.0" encoding="iso-8859-1"?>
<!-- Generator: Adobe Illustrator 16.0.0, SVG Export Plug-In . SVG Version: 6.00 Build 0)  -->
<!DOCTYPE svg PUBLIC "-//W3C//DTD SVG 1.1//EN" "http://www.w3.org/Graphics/SVG/1.1/DTD/svg11.dtd">
<svg version="1.1" id="Layer_1" xmlns="http://www.w3.org/2000/svg" xmlns:xlink="http://www.w3.org/1999/xlink" x="0px" y="0px"
	 width="512px" height="512px" viewBox="0 0 512 512" style="enable-background:new 0 0 512 512;" xml:space="preserve">
<g>
	<path d="M478.919,219.366c-1.898-2.242-4.689-3.535-7.629-3.535H40.708c-2.938,0-5.729,1.293-7.629,3.535
		c-1.898,2.242-2.717,5.207-2.234,8.106l29.547,177.705c1.838,11.157,11.379,19.255,22.688,19.255h345.842
		c11.309,0,20.85-8.098,22.686-19.24l29.549-177.72C481.638,224.572,480.819,221.608,478.919,219.366z"/>
	<path d="M444.692,135.387c0-7.661-6.211-13.874-13.875-13.874H224.921v-20.069c0-7.664-6.211-13.875-13.873-13.875H81.181
		c-7.662,0-13.873,6.211-13.873,13.875v82.418h377.385V135.387z"/>
</g>
</svg>
