<?xml version="1.0" encoding="UTF-8" standalone="no"?>
<!-- Generator: Adobe Illustrator 23.0.1, SVG Export Plug-In . SVG Version: 6.00 Build 0)  -->

<svg
   version="1.1"
   id="Layer_1"
   x="0px"
   y="0px"
   viewBox="0 0 176 176"
   enable-background="new 0 0 176 176"
   xml:space="preserve"
   xmlns="http://www.w3.org/2000/svg"
   xmlns:svg="http://www.w3.org/2000/svg"
   xmlns:ns="&amp;ns_sfw;"><defs
   id="defs11">
	
	
	
</defs>
<metadata
   id="metadata2">
	<ns:sfw>
		<ns:slices />
		<ns:sliceSourceBounds
   bottomLeftOrigin="true"
   height="176"
   width="176"
   x="8"
   y="-184" />
	</ns:sfw>
</metadata>
<circle
   id="XMLID_791_"
   fill="#ff0000"
   cx="88"
   cy="88"
   r="88"
   style="fill:#000000;fill-opacity:1" /><path
   id="XMLID_42_"
   fill="#ffffff"
   d="m 88,46 c 23.1,0 42,18.8 42,42 0,23.2 -18.8,42 -42,42 C 64.8,130 46,111.2 46,88 46,64.8 64.9,46 88,46 m 0,-4 c -25.4,0 -46,20.6 -46,46 0,25.4 20.6,46 46,46 25.4,0 46,-20.6 46,-46 0,-25.4 -20.6,-46 -46,-46 z" /><polygon
   id="XMLID_274_"
   fill="#ffffff"
   points="72,65 72,111 111,87 " />
</svg>
