<?xml version="1.0" encoding="iso-8859-1"?>
<!-- Generator: Adobe Illustrator 17.1.0, SVG Export Plug-In . SVG Version: 6.00 Build 0)  -->
<!DOCTYPE svg PUBLIC "-//W3C//DTD SVG 1.1//EN" "http://www.w3.org/Graphics/SVG/1.1/DTD/svg11.dtd">
<svg version="1.1" id="Capa_1" xmlns="http://www.w3.org/2000/svg" xmlns:xlink="http://www.w3.org/1999/xlink" x="0px" y="0px"
	 viewBox="0 0 200 200" style="enable-background:new 0 0 200 200;" xml:space="preserve">
<g>
	<path d="M99.965,14.564C49.991,14.796,9.333,55.641,9.333,105.613c0,15.176,3.805,30.137,11,43.394v-24.072
		c0-4.437,1.579-8.552,4.347-12.082c-0.229-2.401-0.347-4.817-0.347-7.24c0-41.74,33.959-75.855,75.632-76.049
		c41.742,0.193,75.701,34.309,75.701,76.049c0,2.683-0.149,5.357-0.43,8.013c2.406,3.352,3.764,7.193,3.764,11.309v25.293
		c7.631-13.555,11.667-28.973,11.667-44.615C190.667,55.641,150.009,14.796,99.965,14.564z"/>
	<path d="M25.92,121.048c-0.383,1.255-0.587,2.555-0.587,3.888v23.201v10.799c0,10.493,12.497,19,27.914,19H65v-72H53.247
		C39.788,105.936,28.557,112.419,25.92,121.048z"/>
	<path d="M174,158.936v-11.177v-22.823c0-0.819-0.085-1.625-0.233-2.417c-1.745-9.352-13.468-16.583-27.681-16.583h-11.753v72
		h11.753C161.503,177.936,174,169.429,174,158.936z"/>
</g>
</svg>
