<?xml version="1.0" encoding="UTF-8" standalone="no"?>
<!-- Generator: Adobe Illustrator 16.0.0, SVG Export Plug-In . SVG Version: 6.00 Build 0)  -->
<svg id="Layer_1" xmlns:rdf="http://www.w3.org/1999/02/22-rdf-syntax-ns#" xmlns="http://www.w3.org/2000/svg" xml:space="preserve" height="420" viewBox="0 0 440 420" width="440" version="1.1" y="0px" x="0px" xmlns:cc="http://creativecommons.org/ns#" xmlns:dc="http://purl.org/dc/elements/1.1/"><metadata id="metadata13"><rdf:RDF><cc:Work rdf:about=""><dc:format>image/svg+xml</dc:format><dc:type rdf:resource="http://purl.org/dc/dcmitype/StillImage"/><dc:title/></cc:Work></rdf:RDF></metadata><g id="g3" transform="translate(-35.503,-46.464985)"><path id="path5" d="m470.79,244.54-53.984-40.794,19.699-64.751c1.311-4.31,0.525-8.984-2.123-12.628-2.648-3.643-6.854-5.833-11.357-5.916l-67.67-1.23-22.07-64.001c-1.469-4.262-4.855-7.587-9.143-8.98-4.283-1.393-8.979-0.692-12.674,1.892l-55.48,38.814-55.48-38.814c-3.693-2.583-8.387-3.285-12.674-1.892-4.289,1.393-7.672,4.718-9.143,8.98l-22.064,63.996-67.672,1.236c-4.502,0.083-8.707,2.272-11.355,5.916s-3.436,8.319-2.125,12.628l19.701,64.75-53.983,40.795c-3.594,2.715-5.705,6.958-5.705,11.46,0,4.503,2.111,8.746,5.705,11.461l53.984,40.794-19.699,64.751c-1.311,4.31-0.523,8.984,2.125,12.628,2.648,3.643,6.854,5.833,11.355,5.916l67.672,1.236,22.064,63.996c1.469,4.262,4.854,7.587,9.141,8.98,4.285,1.393,8.98,0.692,12.674-1.893l55.475-38.814,55.477,38.815c2.443,1.709,5.324,2.595,8.236,2.595,1.488,0,2.986-0.231,4.438-0.703,4.287-1.393,7.672-4.718,9.141-8.98l22.064-63.996,67.674-1.237c4.502-0.083,8.707-2.272,11.355-5.916s3.436-8.318,2.125-12.628l-19.701-64.749,53.984-40.795c3.594-2.715,5.705-6.958,5.705-11.461s-2.111-8.746-5.705-11.46zm-282.99,44.141c0,3.107-2.519,5.625-5.625,5.625h-6.135c-3.106,0-5.625-2.519-5.625-5.625v-41.356c0-4.653-1.426-8.17-4.356-10.752-2.966-2.612-7.105-3.938-12.301-3.938s-9.336,1.325-12.302,3.938c-2.93,2.581-4.355,6.098-4.355,10.751v41.356c0,3.107-2.519,5.625-5.625,5.625h-6.135c-3.106,0-5.625-2.519-5.625-5.625v-41.356c0-8.647,3.371-16.144,10.021-22.283,6.605-6.096,14.686-9.186,24.021-9.186s17.415,3.09,24.019,9.186c6.65,6.139,10.023,13.637,10.023,22.284v41.356zm85.631-20.711c-1.846,5.916-5.064,11.091-9.84,15.824-7.832,7.832-17.032,11.647-28.109,11.647-11.076,0-20.275-3.803-28.125-11.625-7.852-7.823-11.668-17.037-11.668-28.167,0-11.077,3.814-20.277,11.665-28.127s17.051-11.666,28.128-11.666c10.369,0,18.82,2.812,25.117,8.357,4.397,3.874,7.552,7.424,9.38,10.554,0.769,1.319,0.97,2.895,0.555,4.365-0.416,1.471-1.412,2.708-2.758,3.43l-49.986,26.763c0.578,0.73,1.21,1.438,1.893,2.121,4.396,4.397,9.563,6.534,15.8,6.534,6.235,0,11.415-2.149,15.836-6.57,2.372-2.372,4.104-5.04,5.148-7.933,0.908-2.508,3.454-4.037,6.091-3.656l6.304,0.905c1.631,0.234,3.079,1.173,3.958,2.566,0.877,1.395,1.101,3.104,0.611,4.678zm118.85-3.998c0,8.801-3.137,16.441-9.324,22.71-6.194,6.278-13.779,9.462-22.545,9.462-8.856,0-16.606-3.394-23.08-10.097-6.475,6.703-14.224,10.097-23.079,10.097-8.766,0-16.351-3.184-22.547-9.464-6.186-6.268-9.322-13.908-9.322-22.708v-42.06c0-3.107,2.519-5.625,5.625-5.625h6.33c3.106,0,5.625,2.519,5.625,5.625v42.06c0,4.495,1.229,7.867,3.757,10.31,2.558,2.475,6.002,3.676,10.532,3.676,4.525,0,7.956-1.199,10.484-3.665,2.511-2.447,3.729-5.823,3.729-10.321v-42.06c0-3.107,2.52-5.625,5.625-5.625h6.482c3.106,0,5.625,2.519,5.625,5.625v42.06c0,4.498,1.22,7.874,3.729,10.321,2.528,2.467,5.959,3.666,10.484,3.666,4.53,0,7.975-1.201,10.529-3.673,2.529-2.447,3.76-5.82,3.76-10.313v-42.06c0-3.107,2.519-5.625,5.625-5.625h6.33c3.106,0,5.625,2.519,5.625,5.625v42.059z"/><path id="path7" d="m235.48,233.32c-6.233,0-11.399,2.148-15.795,6.566-4.085,4.106-6.219,8.847-6.504,14.456l33.687-17.977c-3.367-2.022-7.184-3.045-11.388-3.045z"/></g></svg>
