<?xml version="1.0" encoding="UTF-8" standalone="no"?>
<svg id="svg2" xmlns:rdf="http://www.w3.org/1999/02/22-rdf-syntax-ns#" xmlns="http://www.w3.org/2000/svg" enable-background="new 0 0 599.998 583.111" xml:space="preserve" height="583.11px" width="600px" version="1.1" y="0px" x="0px" xmlns:cc="http://creativecommons.org/ns#" xmlns:dc="http://purl.org/dc/elements/1.1/" viewBox="0 0 599.998 583.111"><metadata id="metadata59"><rdf:RDF><cc:Work rdf:about=""><dc:format>image/svg+xml</dc:format><dc:type rdf:resource="http://purl.org/dc/dcmitype/StillImage"/><dc:title/></cc:Work></rdf:RDF></metadata><g id="A"><g id="g5"><path id="path7" d="M146.56,60.034l-6.583-18.256h-22.381l-6.583,18.256h-5.441l17.46-47.834c0.351-0.878,1.492-4.389,1.492-5.178,0-3.687-4.038-3.687-6.758-4.125v-1.932h16.5l21.416,59.068h-9.126zm-18.08-48.01l-9.391,25.629h19.397l-10.01-25.629z"/><path id="path9" d="M221.76,60.034l-15.535-27.296h-5.441v27.296h-9.655v-47.133c0-8.426,0-8.776-8.338-10.005v-1.931h22.557c10.62,0,23.785,2.282,23.785,15.71,0,8.865-5.09,13.166-13.429,14.482l16.15,28.876h-10.082zm-15.1-54.944c-6.319,0-5.88,2.37-5.88,7.899v15.623h5.002c7.636,0,13.692-2.809,13.692-11.41,0.01-8.689-4.47-12.112-12.81-12.112z"/><path id="path11" d="M287.72,60.911c-20.187,0-25.892-13.077-25.892-31.246,0-16.939,5.617-28.964,24.488-28.964,5.968,0,11.936,0.79,17.554,2.633l0.526,14.658h-2.545c-0.176-1.843-0.878-3.774-1.843-5.354-2.722-4.74-7.286-7.724-12.815-7.724-13.253,0-15.008,14.57-15.008,24.751,0,10.883,3.335,26.331,17.027,26.331,5.793,0,10.621-1.141,15.36-4.477v6.056c-5.54,2.459-10.8,3.336-16.86,3.336z"/><path id="path13" d="M376.78,60.034v-28.701h-23.872v28.701h-9.655v-47.483c0-7.636-1.404-7.812-8.776-8.601v-1.931l18.43-2.019v27.208h23.872v-26.243h9.655v59.068h-9.662z"/><path id="path15" d="M420.35,60.034v-2.194c6.583,0,7.461-1.755,7.461-8.163v-37.74c0-6.407-0.878-8.163-7.461-8.163v-2.194h24.575v2.194c-6.582,0-7.46,1.843-7.46,8.163v37.74c0,6.32,0.878,8.163,7.46,8.163v2.194h-24.566z"/><path id="path17" d="M509.04,60.034h-7.636l-17.2-47.834c-2.633-7.373-3.071-7.899-10.619-9.304v-1.931h17.026l17.203,48.097h0.175l16.765-48.097h5.705l-21.4,59.069z"/><path id="path19" d="M599.73,60.034h-35.02v-47.133c0-8.426-0.088-8.688-8.339-10.005v-1.931h42.042l0.264,12.99h-2.458c0-6.583-3.247-8.865-9.479-8.865h-6.847c-4.037,0-5.529,0.088-5.529,4.564v17.466h10.62c5.003,0,6.407-2.282,7.197-6.758h2.457v18.432h-2.457c0-4.916-2.106-7.548-7.197-7.548h-10.62v19.572c0,4.828,1.054,5.091,5.529,5.091h9.743c5.968,0,7.46-2.984,7.898-8.602h2.458l-0.25,12.727z"/></g><rect id="rect21" y="558.56" x="139.2" height="21.705" width="423.26"/><rect id="rect23" y="516.82" x="155.9" height="30.055" width="390.7"/><rect id="rect25" y="174.54" x="153.39" height="41.742" width="388.62"/><polygon id="polygon27" points="347.7,101.49,144.21,149.07,155.9,162.01,347.7,162.01,539.51,162.01,551.19,149.07"/><g id="g29"><path id="path31" d="M59.068,583.11h-2.194c0-6.582-1.755-7.46-8.163-7.46h-37.74c-6.407,0-8.162,0.878-8.162,7.46h-2.195v-24.575h2.194c0,6.583,1.843,7.461,8.162,7.461h37.741c6.319,0,8.163-0.878,8.163-7.461h2.194v24.571z"/><path id="path33" d="M59.068,486.66l-49.941,28.96v0.176h49.941v5.529h-47.834c-8.25,0-7.899,1.316-9.304,8.776h-1.93v-18.519l47.746-27.648v-0.175h-47.746v-5.529h59.068v8.425z"/><path id="path35" d="M12.989,399.85c-6.846,0-8.864,2.984-8.864,9.567v5.968h54.943v9.655h-54.943v6.056c0,6.67,1.931,8.952,8.601,9.479v2.458l-12.726-0.36v-44.938l12.989-0.351v2.463z"/><path id="path37" d="M59.068,327.09v35.021h-47.132c-8.426,0-8.688,0.087-10.005,8.338h-1.931v-42.042l12.989-0.263v2.457c-6.583,0-8.864,3.248-8.864,9.479v6.846c0,4.037,0.088,5.529,4.564,5.529h17.466v-10.62c0-5.002-2.282-6.406-6.758-7.197v-2.457h18.432v2.457c-4.915,0-7.548,2.106-7.548,7.197v10.62h19.572c4.828,0,5.091-1.053,5.091-5.529v-9.742c0-5.969-2.984-7.46-8.602-7.899v-2.457l12.726,0.25z"/><path id="path39" d="M59.068,256.44l-27.296,15.535v5.442h27.296v9.654h-47.132c-8.426,0-8.776,0-10.005,8.338h-1.931v-22.556c0-10.62,2.282-23.786,15.71-23.786,8.864,0,13.166,5.091,14.481,13.429l28.876-16.149v10.1zm-54.943,15.1c0,6.32,2.37,5.881,7.899,5.881h15.623v-5.003c0-7.636-2.809-13.692-11.41-13.692-8.689-0.01-12.112,4.47-12.112,12.81z"/><path id="path41" d="M59.068,173.94l-49.941,28.96v0.176h49.941v5.529h-47.834c-8.25,0-7.899,1.316-9.304,8.777h-1.93v-18.519l47.746-27.647v-0.175h-47.746v-5.53h59.068v8.428z"/><path id="path43" d="M59.068,87.662v35.021h-47.132c-8.426,0-8.688,0.087-10.005,8.337h-1.931v-42.041l12.989-0.263v2.458c-6.583,0-8.864,3.247-8.864,9.479v6.846c0,4.037,0.088,5.529,4.564,5.529h17.466v-10.62c0-5.003-2.282-6.407-6.758-7.197v-2.458h18.432v2.458c-4.915,0-7.548,2.106-7.548,7.197v10.62h19.572c4.828,0,5.091-1.053,5.091-5.529v-9.743c0-5.968-2.984-7.46-8.602-7.899v-2.458l12.726,0.262z"/><path id="path45" d="M12.989,12.182c-6.846,0-8.864,2.984-8.864,9.567v5.969h54.943v9.654h-54.943v6.056c0,6.671,1.931,8.953,8.601,9.479v2.458l-12.726-0.352v-44.938l12.989-0.351v2.458z"/></g><path id="path47" d="M209.45,348.42c-0.335-20.5-0.866-41.001-1.669-61.487-0.756-19.302-2-38.585-2.939-57.881-0.081-1.666-0.787-2.026-2.169-2.328-5.693-1.241-11.416-1.824-17.163-1.833-5.747,0.009-11.47,0.592-17.163,1.833-1.382,0.301-2.088,0.662-2.169,2.328-0.939,19.296-2.183,38.579-2.939,57.881-0.803,20.486-1.335,40.987-1.669,61.487-0.237,14.528-0.09,29.067,0.14,43.599,0.254,16.121,0.612,32.246,1.265,48.355,0.7,17.288,1.782,34.562,2.731,51.839,0.182,3.311,0.521,6.613,0.78,9.831,6.379,1.66,12.704,2.619,19.025,2.698,6.321-0.079,12.645-1.038,19.025-2.698,0.259-3.218,0.597-6.521,0.779-9.831,0.949-17.277,2.031-34.551,2.731-51.839,0.653-16.109,1.011-32.234,1.265-48.355,0.22-14.53,0.36-29.07,0.13-43.6z"/><path id="path49" d="M315.26,348.42c-0.335-20.5-0.867-41.001-1.67-61.487-0.757-19.302-2.001-38.585-2.939-57.881-0.081-1.666-0.786-2.026-2.169-2.328-5.692-1.241-11.416-1.824-17.162-1.833-5.747,0.009-11.47,0.592-17.163,1.833-1.382,0.301-2.088,0.662-2.169,2.328-0.938,19.296-2.183,38.579-2.939,57.881-0.803,20.486-1.335,40.987-1.669,61.487-0.237,14.528-0.09,29.067,0.139,43.599,0.255,16.121,0.612,32.246,1.265,48.355,0.701,17.288,1.782,34.562,2.731,51.839,0.182,3.311,0.521,6.613,0.779,9.831,6.38,1.66,12.705,2.619,19.025,2.698,6.321-0.079,12.645-1.038,19.025-2.698,0.258-3.218,0.597-6.521,0.779-9.831,0.948-17.277,2.03-34.551,2.73-51.839,0.653-16.109,1.011-32.234,1.266-48.355,0.23-14.53,0.37-29.07,0.14-43.6z"/><path id="path51" d="M437.97,348.42c-0.335-20.5-0.866-41.001-1.67-61.487-0.756-19.302-2-38.585-2.938-57.881-0.082-1.666-0.787-2.026-2.17-2.328-5.692-1.241-11.415-1.824-17.162-1.833-5.747,0.009-11.47,0.592-17.163,1.833-1.382,0.301-2.088,0.662-2.169,2.328-0.938,19.296-2.183,38.579-2.938,57.881-0.804,20.486-1.335,40.987-1.67,61.487-0.237,14.528-0.09,29.067,0.14,43.599,0.255,16.121,0.612,32.246,1.265,48.355,0.701,17.288,1.782,34.562,2.731,51.839,0.183,3.311,0.521,6.613,0.779,9.831,6.38,1.66,12.704,2.619,19.025,2.698,6.321-0.079,12.645-1.038,19.025-2.698,0.258-3.218,0.597-6.521,0.779-9.831,0.949-17.277,2.03-34.551,2.731-51.839,0.652-16.109,1.01-32.234,1.265-48.355,0.22-14.53,0.37-29.07,0.13-43.6z"/><path id="path53" d="M541.28,348.42c-0.335-20.5-0.866-41.001-1.669-61.487-0.757-19.302-2.001-38.585-2.939-57.881-0.082-1.666-0.787-2.026-2.17-2.328-5.691-1.241-11.415-1.824-17.162-1.833-5.746,0.009-11.47,0.592-17.162,1.833-1.383,0.301-2.088,0.662-2.169,2.328-0.939,19.296-2.184,38.579-2.939,57.881-0.803,20.486-1.335,40.987-1.67,61.487-0.237,14.528-0.09,29.067,0.14,43.599,0.255,16.121,0.612,32.246,1.266,48.355,0.7,17.288,1.782,34.562,2.73,51.839,0.183,3.311,0.521,6.613,0.779,9.831,6.381,1.66,12.705,2.619,19.025,2.698,6.321-0.079,12.646-1.038,19.025-2.698,0.259-3.218,0.597-6.521,0.779-9.831,0.949-17.277,2.031-34.551,2.731-51.839,0.653-16.109,1.01-32.234,1.265-48.355,0.23-14.53,0.38-29.07,0.14-43.6z"/></g></svg>
