<?xml version="1.0" encoding="UTF-8" standalone="no"?>
<!-- Generator: Adobe Illustrator 16.0.0, SVG Export Plug-In . SVG Version: 6.00 Build 0)  -->
<svg id="Layer_3" xmlns:rdf="http://www.w3.org/1999/02/22-rdf-syntax-ns#" xmlns="http://www.w3.org/2000/svg" enable-background="new 0 0 100 100" xml:space="preserve" height="100px" viewBox="0 0 100 100" width="100px" version="1.1" y="0px" x="0px" xmlns:cc="http://creativecommons.org/ns#" xmlns:dc="http://purl.org/dc/elements/1.1/"><metadata id="metadata9"><rdf:RDF><cc:Work rdf:about=""><dc:format>image/svg+xml</dc:format><dc:type rdf:resource="http://purl.org/dc/dcmitype/StillImage"/><dc:title/></cc:Work></rdf:RDF></metadata><path id="path3" d="M50,1.125c-26.992,0-48.875,21.882-48.875,48.875s21.883,48.875,48.875,48.875,48.875-21.882,48.875-48.875-21.883-48.875-48.875-48.875zm19.285,69.341c-14.602,0-19.664-6.582-22.365-14.769l-2.701-8.439c-2.025-6.162-4.389-10.973-11.814-10.973-5.15,0-10.381,3.714-10.381,14.095,0,8.103,4.135,13.166,9.959,13.166,6.582,0,10.971-4.895,10.971-4.895l2.701,7.343s-4.557,4.472-14.094,4.472c-11.816,0-18.4-6.92-18.4-19.749,0-13.334,6.584-21.183,18.99-21.183,11.225,0,16.881,4.051,20.426,15.022l2.783,8.439c2.025,6.161,5.57,10.634,14.096,10.634,5.738,0,8.775-1.266,8.775-4.388,0-2.448-1.434-4.22-5.736-5.233l-5.742-1.35c-7.002-1.688-9.789-5.317-9.789-11.057,0-9.199,7.428-12.068,15.023-12.068,8.609,0,13.84,3.122,14.516,10.718l-8.439,1.013c-0.338-3.629-2.531-5.148-6.582-5.148-3.715,0-5.992,1.688-5.992,4.559,0,2.531,1.096,4.051,4.811,4.895l5.4,1.182c7.258,1.688,11.141,5.233,11.141,12.069-0.002,8.439-7.09,11.645-17.557,11.645z"/></svg>
