<?xml version="1.0" encoding="utf-8"?>
<!-- Generator: Adobe Illustrator 17.0.0, SVG Export Plug-In . SVG Version: 6.00 Build 0)  -->
<!DOCTYPE svg PUBLIC "-//W3C//DTD SVG 1.1//EN" "http://www.w3.org/Graphics/SVG/1.1/DTD/svg11.dtd">
<svg version="1.1" id="Capa_1" xmlns="http://www.w3.org/2000/svg" xmlns:xlink="http://www.w3.org/1999/xlink" x="0px" y="0px"
	 width="19.373px" height="17.462px" viewBox="0 0 19.373 17.462" enable-background="new 0 0 19.373 17.462" xml:space="preserve">
<path d="M10.482,8.875L7.609,6.503l1.688-4.509C8.263,0.691,6.603,0,5.126,0C4.973,0,4.823,0.006,4.678,0.021
	c-1.782,0.19-3.03,0.784-3.816,1.816C0.082,2.859-0.171,4.26,0.113,5.995c0.692,4.218,8.498,10.986,8.83,11.271
	c0.15,0.13,0.338,0.195,0.525,0.195c0.188,0,0.377-0.066,0.527-0.197c0.088-0.074,0.686-0.6,1.531-1.402l-2.481-3.198L10.482,8.875z
	 M18.513,1.838c-0.787-1.032-2.036-1.626-3.816-1.816C14.552,0.006,14.402,0,14.25,0c-1.545,0-3.293,0.744-4.312,2.158
	C9.902,2.11,9.359,2.07,9.322,2.024L8.615,6.336l3.018,2.304l-1.531,3.731l1.662,3.265c2.417-2.323,7.005-6.632,7.496-9.643
	C19.543,4.26,19.292,2.86,18.513,1.838z"/>
</svg>
