<?xml version="1.0" encoding="UTF-8" standalone="no"?>
<!-- Created with Inkscape (http://www.inkscape.org/) -->
<svg id="svg3144" xmlns:rdf="http://www.w3.org/1999/02/22-rdf-syntax-ns#" xmlns="http://www.w3.org/2000/svg" height="112.56" width="112.38" version="1.1" xmlns:cc="http://creativecommons.org/ns#" xmlns:dc="http://purl.org/dc/elements/1.1/">
 <defs id="defs3146">
  <filter id="filter3316-4" color-interpolation-filters="sRGB">
   <feGaussianBlur id="feGaussianBlur7-72" stdDeviation=".58672"/>
  </filter>
 </defs>
 <metadata id="metadata3149">
  <rdf:RDF>
   <cc:Work rdf:about="">
    <dc:format>image/svg+xml</dc:format>
    <dc:type rdf:resource="http://purl.org/dc/dcmitype/StillImage"/>
    <dc:title/>
   </cc:Work>
  </rdf:RDF>
 </metadata>
 <g id="layer1" transform="translate(-306.66396,-438.93304)">
  <g id="g37" fill-rule="evenodd" transform="translate(-59.142861,423.64197)">
   <path id="path39" d="m211.43,266.65a54.286,51.429,0,1,1,-108.57,0,54.286,51.429,0,1,1,108.57,0z" transform="matrix(0.99975,0,0,1.05529,264.89643,-209.8135)" filter="url(#filter3316-4)" stroke="#000"/>
   <g id="g41" stroke-opacity="0.18256998" stroke="#FFF" fill="#e6e6e6">
    <path id="path43" d="M323,453.36,233.25,490.18,143.51,526.99,156.5,430.86,169.49,334.73,246.25,394.05,323,453.36z" transform="matrix(0.26445,-0.03704,0.03704,0.26445,329.0321,-36.19806)"/>
    <path id="path45" d="M323,453.36,233.25,490.18,143.51,526.99,156.5,430.86,169.49,334.73,246.25,394.05,323,453.36z" transform="matrix(0.26445,-0.03704,0.03704,0.26445,359.53785,-36.94109)"/>
   </g>
   <path id="path47" opacity="0.5" d="m421.51,18.442c-29.13,0.00001-52.781,24.323-52.781,54.281,46.899-10.605,58.321-10.745,105.53,0,0.00001-29.958-23.62-54.281-52.75-54.281z" stroke-opacity="0.18256998" stroke="#000" fill="#FFF"/>
  </g>
 </g>
</svg>
