<?xml version="1.0" encoding="UTF-8" standalone="no"?>
<!-- Created with Inkscape (http://www.inkscape.org/) -->
<svg id="svg3144" xmlns:rdf="http://www.w3.org/1999/02/22-rdf-syntax-ns#" xmlns="http://www.w3.org/2000/svg" height="112.54" width="112.39" version="1.1" xmlns:cc="http://creativecommons.org/ns#" xmlns:dc="http://purl.org/dc/elements/1.1/">
 <defs id="defs3146">
  <filter id="filter3316-3" color-interpolation-filters="sRGB">
   <feGaussianBlur id="feGaussianBlur7-7" stdDeviation=".58672"/>
  </filter>
 </defs>
 <metadata id="metadata3149">
  <rdf:RDF>
   <cc:Work rdf:about="">
    <dc:format>image/svg+xml</dc:format>
    <dc:type rdf:resource="http://purl.org/dc/dcmitype/StillImage"/>
    <dc:title/>
   </cc:Work>
  </rdf:RDF>
 </metadata>
 <g id="layer1" transform="translate(-360.94937,-464.662)">
  <g id="g29" fill-rule="evenodd" transform="translate(12.142859,246.57076)">
   <path id="path31" d="m211.43,266.65a54.286,51.429,0,1,1,-108.57,0,54.286,51.429,0,1,1,108.57,0z" transform="matrix(0.99975,0,0,1.05529,247.89643,-7.028)" filter="url(#filter3316-3)" stroke="#000"/>
   <path id="path33" d="m233,452.36-44.049,22.432-44.049,22.432,2.5981-49.363,2.5981-49.363,41.451,26.932l41.45,26.93z" stroke-opacity="0.18256998" transform="matrix(0.70219,-0.03352435,0.03461831,0.68,263.8847,-25.23778)" stroke="#FFF" fill="#e6e6e6"/>
   <path id="path35" opacity="0.5" d="m404.51,221.23c-29.13,0.00001-52.781,24.323-52.781,54.281,46.899-10.605,58.321-10.745,105.53,0,0.00001-29.958-23.62-54.281-52.75-54.281z" stroke-opacity="0.18256998" stroke="#000" fill="#FFF"/>
  </g>
 </g>
</svg>
