<?xml version="1.0" encoding="UTF-8" standalone="no"?>
<svg
   xmlns:dc="http://purl.org/dc/elements/1.1/"
   xmlns:cc="http://creativecommons.org/ns#"
   xmlns:rdf="http://www.w3.org/1999/02/22-rdf-syntax-ns#"
   xmlns:svg="http://www.w3.org/2000/svg"
   xmlns="http://www.w3.org/2000/svg"
   version="1.1"
   width="112.38"
   height="112.56"
   id="svg3144">
  <defs
     id="defs3146">
    <filter
       color-interpolation-filters="sRGB"
       id="filter3316-6">
      <feGaussianBlur
         stdDeviation=".58672"
         id="feGaussianBlur7-0" />
    </filter>
  </defs>
  <metadata
     id="metadata3149">
    <rdf:RDF>
      <cc:Work
         rdf:about="">
        <dc:format>image/svg+xml</dc:format>
        <dc:type
           rdf:resource="http://purl.org/dc/dcmitype/StillImage" />
        <dc:title></dc:title>
      </cc:Work>
    </rdf:RDF>
  </metadata>
  <circle
     r="56"
     cy="56.279999"
     cx="56.189999"
     id="path6083"
     style="fill:#1e1e1e;stroke-width:1.027;stroke-linecap:round;stroke-linejoin:round" />
  <g
     transform="translate(-488.80682,-18.07657)"
     fill="#e6e6e6"
     stroke="#FFF"
     stroke-opacity="0.18256998"
     id="g53"
     style="fill-rule:evenodd">
    <path
       transform="matrix(-0.26445,0.03704,-0.03704,-0.26445,637.96792,182.13696)"
       d="m 323,453.36 -89.75,36.82 -89.74,36.81 12.99,-96.13 12.99,-96.13 76.76,59.32 z"
       id="path55" />
    <path
       transform="matrix(-0.26445,0.03704,-0.03704,-0.26445,607.46217,182.87999)"
       d="m 323,453.36 -89.75,36.82 -89.74,36.81 12.99,-96.13 12.99,-96.13 76.76,59.32 z"
       id="path57" />
  </g>
  <path
     fill="#FFF"
     stroke="#000"
     stroke-opacity="0.18256998"
     d="m 55.70318,3.15043 c -29.13,1e-5 -52.781,24.323 -52.781,54.281 46.899,-10.605 58.321,-10.745 105.53,0 1e-5,-29.958 -23.62,-54.281 -52.75,-54.281 z"
     opacity="0.5"
     id="path59"
     style="fill-rule:evenodd" />
</svg>
