<?xml version="1.0" encoding="UTF-8" standalone="no"?>
<svg
   xmlns:dc="http://purl.org/dc/elements/1.1/"
   xmlns:cc="http://creativecommons.org/ns#"
   xmlns:rdf="http://www.w3.org/1999/02/22-rdf-syntax-ns#"
   xmlns:svg="http://www.w3.org/2000/svg"
   xmlns="http://www.w3.org/2000/svg"
   id="svg8"
   version="1.1"
   viewBox="0 0 205.66004 207.89409"
   height="207.89409mm"
   width="205.66005mm">
  <defs
     id="defs2" />
  <metadata
     id="metadata5">
    <rdf:RDF>
      <cc:Work
         rdf:about="">
        <dc:format>image/svg+xml</dc:format>
        <dc:type
           rdf:resource="http://purl.org/dc/dcmitype/StillImage" />
        <dc:title></dc:title>
      </cc:Work>
    </rdf:RDF>
  </metadata>
  <path
     style="fill:none;fill-opacity:1;stroke-width:1.84510112"
     d="m 101.66631,31.626589 c 0,53.98938 0,107.978761 0,161.968141 29.37709,0 58.75417,0 88.13125,0 4.94395,-16.7794 8.83177,-34.23546 7.31448,-51.83313 0.71238,-13.20936 4.47812,-26.23407 2.83135,-39.55306 C 198.88474,87.779609 196.06213,72.359521 185.80123,61.453535 173.2781,44.609583 159.87971,25.089357 138.3698,19.560795 c -10.25658,-2.072353 -21.67311,-1.556416 -31.01589,3.408616 -2.92772,1.968286 -5.39551,5.025559 -5.6876,8.657178 z"
     id="path3" />
  <path
     style="fill:#000000;fill-opacity:1;stroke-width:1.84510112"
     d="m 199.7851,135.52768 c -0.30957,14.23509 1.15396,29.1429 -4.62292,42.57007 -0.93241,4.18246 -0.74253,15.63837 -6.70152,14.03375 1.41975,-11.25787 4.50967,-22.25106 6.51428,-33.34135 0.3149,-11.05609 -2.89102,-22.81289 2.52791,-33.1524 2.86432,-11.79026 -2.42645,-23.45274 -2.13636,-35.267069 C 194.68277,77.37837 184.61946,68.92133 178.99046,58.840715 173.64489,44.17172 162.36222,31.894606 147.66227,26.315759 c -9.67225,-6.198536 -21.34467,-6.478728 -32.21882,-3.671682 -7.36654,-1.935736 -9.29191,12.012804 -13.10596,10.413057 -2.701525,-13.027242 12.01508,-21.236169 23.23972,-18.082799 18.23023,-1.00569 36.08766,8.968854 47.17651,23.107051 8.12345,11.781672 16.65925,23.483104 22.691,36.520708 6.85226,17.010626 6.37696,35.958566 5.08168,53.951406 -0.21176,2.3283 -0.46068,4.65324 -0.7413,6.97418 z"
     id="path7" />
  <g
     id="g9"
     transform="matrix(1.8451011,0,0,2.4071239,-134.13576,-477.02276)">
    <path
       d="m 148.453,210.265 c -5.3765,2.3626 -11.98187,-1.80647 -16.80639,2.0094 -4.44999,4.39862 2.48727,8.77886 -0.38621,13.1026 1.19762,4.20389 2.53704,-2.69454 4.64973,-3.22682 1.69016,-1.66469 -4.55306,-1.71368 -3.09757,-5.06853 0.81877,-6.72022 8.43491,-4.46133 12.92736,-4.16339 1.38672,-0.18253 2.37468,-1.354 2.71308,-2.65326 z"
       id="path11" />
    <path
       d="m 153.525,216.571 c 4.05453,3.87209 -0.81677,9.50493 -2.54591,12.01583 2.5956,0.91838 4.35369,-5.19775 7.58007,-1.99108 5.65459,2.01558 5.1014,11.73867 -1.61045,11.21737 -3.76714,1.10214 -12.98903,-3.72905 -11.88242,2.99151 3.35696,-1.68855 7.5405,-1.93908 11.3185,-1.43801 5.27521,0.52414 9.4321,5.29268 9.28454,10.60303 1.07874,5.95237 -4.30033,7.2941 -8.24805,9.62982 -1.73249,2.17186 -0.0346,8.04717 3.28332,5.19467 3.8213,-1.14008 9.10556,0.84936 9.54156,5.36358 -0.53202,3.10728 1.86972,-0.98564 1.73635,-2.3678 0.0334,-3.16081 -6.39253,-6.71223 -10.32155,-5.30151 -4.63084,-4.47414 8.84132,-2.29987 5.09068,-5.88746 -0.38998,-5.78634 9.26936,-5.99186 8.7426,-12.40134 -0.23369,-3.95192 2.50291,-7.72619 2.77008,-10.93591 -1.81682,0.72072 -3.49739,6.84399 -6.54452,3.06225 -4.11922,-0.60356 3.46829,3.73964 2.33695,6.12333 1.13164,5.06831 -7.94385,10.47282 -7.51542,2.71083 -0.95295,-4.13915 -3.99104,-7.37584 -1.67775,-11.90414 2.16582,-5.901 -4.69536,-7.36197 -7.36408,-11.00752 -1.70552,-1.79583 -0.54694,-5.81314 -3.9745,-5.67745 z"
       id="path13" />
    <path
       d="m 146.551,227.444 c 4.1882,-3.26671 10.37096,6.10451 5.27434,6.01378 -0.61824,-2.74385 -1.84311,-6.13574 -5.27434,-6.01378 z"
       id="path15" />
    <path
       d="m 149.088,221.573 c -4.17808,-3.24046 -10.27466,1.67312 -11.89234,2.7715 -0.41839,-5.28415 6.42378,-5.53621 10.11552,-4.56071 0.86014,0.12734 4.12355,0.80795 1.77682,1.78921 z"
       id="path17" />
    <path
       d="m 144.967,219.833 c -1.52952,-2.09529 4.96931,-4.62761 -0.1924,-3.26947 -1.94378,0.83649 -4.00481,5.45465 0.1924,3.26947 z"
       id="path19" />
    <path
       d="m 142.431,228.751 c -4.67664,3.96698 -7.4883,10.62546 -5.28432,16.61959 0.761,4.99755 6.54496,4.29511 9.39013,3.86453 1.82266,4.32049 -7.31646,3.37273 -9.35254,0.86135 -4.43254,-4.07433 -3.93678,-11.257 -1.42683,-16.23372 0.869,-2.09883 4.15018,-7.83616 6.67356,-5.11175 z"
       id="path21" />
    <path
       d="m 156.063,246.149 c -2.41332,-1.7673 -6.10448,-1.70412 -3.73928,1.87326 1.76351,5.24928 -2.33506,12.40801 -8.36621,11.4339 -2.4473,-0.24689 -8.02781,-6.55365 -7.83021,-1.05055 3.43535,6.00383 13.92867,5.52169 17.01602,-0.62016 2.24289,-3.56006 1.23056,-7.93769 2.91968,-11.63645 z"
       id="path23" />
  </g>
  <path
     style="stroke-width:1.84510112"
     d="m 144.76972,23.627716 c 6.52105,1.502427 1.94678,17.184068 11.06284,9.175249 4.35156,3.150935 4.53129,12.926 12.04962,9.445182 5.47888,1.106297 8.66238,15.48137 0.79695,7.502958 -7.78299,-2.225023 -4.28617,11.066067 1.90534,6.548059 4.16757,2.425857 14.19307,14.104011 11.11567,1.633816 -3.0637,-14.693625 -16.67055,-23.58958 -28.3269,-31.341333 -2.63342,-1.500211 -5.47714,-3.044955 -8.60352,-2.963931 z"
     id="path27" />
  <path
     style="stroke-width:1.84510112"
     d="m 183.81944,92.707355 c 7.81197,7.780715 9.42939,-18.036773 11.96039,-5.040314 -0.0991,2.416427 2.00128,10.423081 -2.29895,4.942255 -1.43484,3.384627 -8.89499,4.60387 -9.66144,0.09807 z"
     id="path29" />
  <path
     style="stroke-width:1.84510112"
     d="m 191.69433,132.63913 c 8.42641,-2.46079 0.8362,8.9265 0,0 z"
     id="path31" />
  <path
     style="stroke-width:1.84510112"
     d="m 119.55272,138.77008 c -5.9396,10.26353 1.22475,22.53277 4.35094,32.48974 7.98489,9.10438 20.56592,2.01327 30.57782,4.48356 7.73304,1.08422 -0.7838,18.25816 7.50408,10.46658 3.52697,-11.96024 -11.2953,-18.20049 -20.92593,-14.85355 -13.1849,4.31739 -15.99744,-11.27737 -18.17839,-20.49713 -1.2885,-3.87088 -1.24939,-8.64869 -3.32852,-12.0892 z"
     id="path33" />
  <path
     style="stroke-width:1.84510112"
     d="m 192.12608,172.06541 c -1.06416,4.23908 -7.9009,10.30753 -1.76236,13.4061 0.84885,-4.43339 0.83461,-8.98501 1.76236,-13.4061 z"
     id="path35" />
  <path
     style="stroke-width:1.84510112"
     d="m 159.83681,184.9339 c 4.27368,-5.84028 22.46987,3.1669 8.40012,1.18489 -2.76927,0.91687 -7.2635,2.9593 -8.40012,-1.18489 z"
     id="path37" />
  <path
     style="stroke-width:1.84510112"
     d="m 131.66766,186.47687 c -4.71045,-9.63222 -19.73607,-9.70049 -24.13336,-18.42631 1.78304,7.95016 11.76363,13.57043 19.45237,17.79076 1.72506,0.31044 5.65865,5.3238 4.68099,0.63555 z"
     id="path39" />
  <path
     style="fill:none;fill-opacity:1;stroke-width:1.84510112"
     d="m 102.70141,31.626589 c 0,53.98938 0,107.978761 0,161.968141 -29.009906,0 -58.019814,0 -87.029725,0 C 10.278318,177.25349 5.2266638,160.19767 7.027322,142.79871 6.0188617,126.14324 2.1536333,109.28015 6.3470905,92.730384 8.4058875,81.229446 12.417803,69.298989 21.43432,61.354938 33.128903,43.854754 47.479542,25.310865 68.684865,19.445532 c 10.074628,-2.014404 21.398375,-1.382942 30.4299,3.722309 2.427565,2.054437 3.839015,5.274952 3.586645,8.458748 z"
     id="path41" />
  <path
     style="stroke-width:1.84510112"
     d="m 94.761944,123.74962 c 5.275756,5.49433 21.920456,-5.43368 16.416896,6.41711 -4.59246,7.80539 -23.365884,0.32932 -16.416896,-6.41711 z"
     id="path43" />
  <path
     style="stroke-width:1.84510112"
     d="m 96.298913,80.421395 c 2.161322,-9.23259 21.786937,7.051477 14.323627,-5.468481 -4.70894,-4.903431 -22.312211,0.347527 -16.002787,5.97991 0.559721,-0.170469 1.11944,-0.340952 1.67916,-0.511429 z"
     id="path45" />
  <g
     id="g47"
     transform="matrix(1.8451011,0,0,2.4071239,-134.13576,-477.02276)">
    <path
       d="m 75.906,254.474 c 0.154738,5.73811 -0.562963,11.88092 2.274307,17.13254 -0.246964,1.82748 2.681357,9.37566 3.596968,5.15159 -0.747096,-5.79332 -4.185623,-11.17067 -3.031559,-17.1581 1.087397,-6.09826 -3.713539,-11.47539 -1.438184,-17.52725 1.315635,-5.61927 1.111915,-12.3031 6.639811,-15.79129 4.096921,-2.28472 4.374656,-7.40649 7.939216,-10.26385 4.830368,-4.57899 11.321681,-6.89637 17.613861,-8.67024 3.82192,-1.02172 7.73007,-0.13232 11.56781,-0.14945 3.37256,-0.36634 6.27599,5.09699 7.55151,4.71222 1.0665,-5.4919 -5.60842,-8.54144 -10.24015,-7.56365 -6.11883,-0.10056 -12.41016,0.3197 -17.96081,3.14304 -6.417887,2.54439 -11.391992,7.53164 -15.524911,12.90167 -4.807347,5.12239 -9.142783,11.29246 -9.472763,18.55624 -0.702956,5.17191 -0.303267,10.39557 0.484894,15.52653 z"
       id="path49" />
    <g
       id="g51">
      <path
         d="m 108.43,210.265 c 5.37639,2.36243 11.98139,-1.80617 16.80598,2.00927 4.45057,4.39837 -2.48641,8.77875 0.38619,13.10258 -1.19757,4.20385 -2.53675,-2.69463 -4.64962,-3.22664 -1.68917,-1.66486 4.55295,-1.71395 3.09763,-5.06859 -0.81866,-6.72011 -8.43464,-4.46135 -12.927,-4.16342 -1.3811,-0.17832 -2.3797,-1.35909 -2.71318,-2.6532 z"
         id="path53" />
      <path
         d="m 103.357,216.571 c -4.054535,3.87209 0.81677,9.50493 2.54591,12.01583 -2.59561,0.91835 -4.35371,-5.19775 -7.580105,-1.99108 -5.654773,2.01571 -5.10072,11.73848 1.610906,11.2173 3.767569,1.10226 12.987379,-3.72892 11.882919,2.99159 -3.35723,-1.68849 -7.54088,-1.93901 -11.31907,-1.43803 -5.275335,0.52404 -9.432469,5.29259 -9.284891,10.60309 -1.078718,5.9524 4.300383,7.29432 8.248317,9.6298 1.733304,2.17162 0.03521,8.04751 -3.282882,5.19474 -3.821271,-1.14024 -9.105756,0.84927 -9.541558,5.36351 0.532623,3.10758 -1.870944,-0.98472 -1.736267,-2.36785 -0.03408,-3.16141 6.392465,-6.71188 10.321301,-5.30148 4.631435,-4.47432 -8.841655,-2.29967 -5.09121,-5.88731 0.389998,-5.78631 -9.268949,-5.99221 -8.742537,-12.40144 0.233856,-3.95198 -2.502835,-7.72642 -2.770073,-10.93595 1.817356,0.72043 3.498245,6.84413 6.545383,3.06204 4.117793,-0.60282 -3.468544,3.74023 -2.337197,6.12377 -1.131793,5.06839 7.943252,10.47275 7.514988,2.71081 0.952551,-4.1392 3.991178,-7.37606 1.677776,-11.90427 -2.166099,-5.90093 4.694897,-7.36223 7.363909,-11.00748 1.705731,-1.79567 0.547088,-5.81276 3.974381,-5.67759 z"
         id="path55" />
      <path
         d="m 110.332,227.444 c -4.1882,-3.26671 -10.370964,6.10451 -5.27434,6.01378 0.61824,-2.74385 1.84311,-6.13574 5.27434,-6.01378 z"
         id="path57" />
      <path
         d="m 107.795,221.573 c 4.17802,-3.24041 10.27472,1.67299 11.89214,2.77154 0.41838,-5.28412 -6.42359,-5.5363 -10.11532,-4.56075 -0.86014,0.12734 -4.12355,0.80795 -1.77682,1.78921 z"
         id="path59" />
      <path
         d="m 111.916,219.833 c 1.52937,-2.09554 -4.96929,-4.62791 0.19304,-3.26942 1.94383,0.83677 4.00364,5.45466 -0.19304,3.26942 z"
         id="path61" />
      <path
         d="m 114.452,228.751 c 4.67662,3.96698 7.48831,10.62543 5.28431,16.61953 -0.76083,4.99729 -6.54453,4.29509 -9.38948,3.86458 -1.8222,4.32053 7.31614,3.37264 9.35208,0.86121 4.43237,-4.07438 3.93667,-11.25696 1.42632,-16.23346 -0.86902,-2.09867 -4.14986,-7.83631 -6.67323,-5.11186 z"
         id="path63" />
      <path
         d="m 100.821,246.149 c 2.41327,-1.76814 6.10343,-1.70339 3.7384,1.87325 -1.76309,5.24917 2.33469,12.4081 8.36597,11.43384 2.44716,-0.24685 8.02798,-6.55351 7.82963,-1.05026 -3.43506,6.00381 -13.92807,5.52118 -17.01526,-0.6203 -2.24257,-3.56008 -1.23182,-7.93709 -2.91874,-11.63653 z"
         id="path65" />
    </g>
    <path
       d="m 78.057,265.321 c -0.825328,-4.68467 2.727762,-10.24167 4.994373,-12.36401 -3.439177,-1.30854 -6.834148,2.52038 -5.417162,5.81362 0.140929,2.18346 0.281859,4.36693 0.422789,6.55039 z"
       id="path67" />
    <path
       d="m 105.723,207.987 c -3.31841,0.053 -1.3061,7.84091 -5.57069,3.76024 -2.757123,1.04353 -3.397312,5.78309 -7.191206,4.00935 -2.553802,0.74574 -4.576201,6.34171 -0.372559,3.01201 3.777899,-0.97327 2.915626,4.96981 -0.67506,2.80222 -2.385687,1.20033 -8.117032,5.95274 -5.878083,-0.23374 2.401524,-6.1269 9.002931,-8.67595 14.242368,-11.83165 1.71209,-0.80251 3.54789,-1.39947 5.44523,-1.51843 z"
       id="path69" />
    <path
       d="m 84.56,236.685 c -3.51414,3.81555 -5.736171,-8.52335 -6.550752,-1.24497 -0.553078,1.38196 -0.132272,3.30686 1.202519,1.12488 1.115519,1.31454 4.591814,2.24078 5.348233,0.12009 z"
       id="path71" />
    <path
       d="m 80.291,253.274 c -4.180208,-1.27461 -0.839608,3.80111 0,0 z"
       id="path73" />
    <path
       d="m 119.39,255.821 c 3.14135,4.61733 -0.69628,11.2537 -3.94157,14.69549 -4.76549,2.57503 -10.28067,-1.08482 -15.07967,0.79102 -3.818963,1.06033 0.72127,7.14905 -3.78322,4.63547 -1.735293,-5.99576 6.81595,-8.08285 11.36413,-6.47344 5.96085,1.75574 8.766,-4.16682 9.7111,-8.94403 0.51207,-1.59046 1.04428,-3.17854 1.72923,-4.70451 z"
       id="path75" />
    <path
       d="m 80.057,269.653 c 0.60591,1.81283 4.284102,4.29538 1.071626,5.64417 -0.750634,-1.79514 -0.451759,-3.81576 -1.071626,-5.64417 z"
       id="path77" />
    <path
       d="m 112.824,275.64 c 3.05317,-4.30027 10.15857,-3.78942 13.11303,-7.63311 -1.47304,3.51408 -6.52445,5.7018 -10.45197,7.3398 -0.75606,-0.009 -3.23452,2.49087 -2.66106,0.29331 z"
       id="path79" />
  </g>
  <path
     style="stroke-width:1.84510112"
     d="m 45.866765,185.55974 c -4.226143,-5.83638 -22.490638,3.15396 -8.493731,1.19323 2.77174,0.92532 7.254096,2.82734 8.493731,-1.19323 z"
     id="path99" />
</svg>
