<?xml version="1.0" encoding="UTF-8" standalone="no"?>
<!-- Created with Inkscape (http://www.inkscape.org/) -->
<svg xmlns:dc="http://purl.org/dc/elements/1.1/" xmlns:cc="http://creativecommons.org/ns#" xmlns:rdf="http://www.w3.org/1999/02/22-rdf-syntax-ns#" xmlns:svg="http://www.w3.org/2000/svg" xmlns="http://www.w3.org/2000/svg" xmlns:sodipodi="http://sodipodi.sourceforge.net/DTD/sodipodi-0.dtd" xmlns:inkscape="http://www.inkscape.org/namespaces/inkscape" id="svg2" sodipodi:version="0.32" inkscape:version="0.46" width="200" height="126.667" version="1.0" sodipodi:docname="Parental_Advisory_label2.svg" inkscape:output_extension="org.inkscape.output.svg.inkscape">
  <metadata id="metadata7">
    <rdf:RDF>
      <cc:Work rdf:about="">
        <dc:format>image/svg+xml</dc:format>
        <dc:type rdf:resource="http://purl.org/dc/dcmitype/StillImage"/>
      </cc:Work>
    </rdf:RDF>
  </metadata>
  <defs id="defs5">
    <inkscape:perspective sodipodi:type="inkscape:persp3d" inkscape:vp_x="0 : 526.18109 : 1" inkscape:vp_y="0 : 1000 : 0" inkscape:vp_z="744.09448 : 526.18109 : 1" inkscape:persp3d-origin="372.04724 : 350.78739 : 1" id="perspective9"/>
  </defs>
  <sodipodi:namedview inkscape:window-height="854" inkscape:window-width="1436" inkscape:pageshadow="2" inkscape:pageopacity="0.0" guidetolerance="10.0" gridtolerance="10.0" objecttolerance="10.0" borderopacity="1.0" bordercolor="#666666" pagecolor="#ffffff" id="base" showgrid="false" showguides="true" inkscape:guide-bbox="true" inkscape:zoom="5.6568543" inkscape:cx="158.67369" inkscape:cy="-13.040069" inkscape:window-x="146" inkscape:window-y="158" inkscape:current-layer="svg2"/>
  <rect style="fill: rgb(255, 255, 255); stroke: none;" id="rect2389" width="200.00717" height="126.66925" x="0.00029884279" y="-0.0030899867"/>
  <path style="fill: rgb(0, 0, 0);" d="M 0.006797691,87.330401 C 66.673468,87.330401 133.34014,87.330401 200.00681,87.330401 L 200.00681,127.01728 L 0.006797691,127.06806 L 0.006797691,87.330401 z M 18.317604,116.66634 C 18.318168,116.66537 18.312819,114.00058 18.308772,113.99634 C 18.307783,113.9953 13.994976,113.99891 14.000289,113.99634 C 14.00194,113.99554 14.002733,106.67269 14.000686,106.67582 C 13.997217,106.68113 16.598103,106.67642 16.597476,106.67582 C 16.592942,106.67522 16.605208,103.92555 16.596494,103.93075 C 16.592579,103.93309 13.959256,103.93191 13.963586,103.93075 C 13.966468,103.92998 13.969068,97.996234 13.966436,97.994478 C 13.965258,97.993692 18.312488,97.991236 18.308498,97.994306 C 18.303388,97.998226 18.307651,95.329107 18.308493,95.330411 L 11.340127,95.330411 L 11.340127,116.67154 C 11.340127,116.67154 18.318913,116.66329 18.317604,116.66634 z M 26.43486,108.78619 C 26.43486,108.78619 27.603362,116.66307 27.603362,116.66307 C 27.608044,116.66763 30.236044,116.66908 30.234537,116.66307 C 30.233207,116.65776 28.608632,105.71624 28.609757,105.71684 C 28.610347,105.71715 30.102755,95.330548 30.099787,95.330411 C 30.095782,95.330226 27.721057,95.330112 27.722362,95.330411 C 27.724069,95.330469 26.434514,103.3859 26.43486,103.38033 C 26.435883,103.38818 24.709177,95.335094 24.712682,95.330411 C 24.716719,95.325018 22.08312,95.3305 22.082052,95.330411 C 22.081687,95.33038 24.311666,105.71305 24.308632,105.71684 C 24.307702,105.718 22.174072,116.67673 22.164942,116.66307 C 22.162022,116.6587 24.709871,116.66206 24.704772,116.66307 C 24.699538,116.66411 26.442788,108.78982 26.43486,108.78619 z M 37.797937,108.62708 C 37.824327,108.65602 39.822197,108.51378 41.056167,107.0667 C 42.466307,105.41302 42.648867,103.91715 42.650557,101.71081 C 42.653007,98.505089 41.562329,95.268228 38.133017,95.330411 L 35.111029,95.330411 C 35.111029,95.330411 35.11798,116.67519 35.111434,116.6657 C 35.111434,116.6657 37.740631,116.66103 37.739757,116.66429 C 37.739757,116.66429 37.743377,108.56725 37.797937,108.62708 z M 37.734207,98.661878 C 37.739847,98.674303 38.154957,98.621118 38.548467,98.696898 C 39.452187,98.870938 40.027627,99.708191 40.027627,102.01791 C 40.027627,104.32761 39.410517,105.08153 38.506797,105.25557 C 38.090807,105.33568 37.716227,105.3063 37.736047,105.3083 C 37.756205,105.31033 37.72093,98.632629 37.734207,98.661878 z M 54.547464,114.0179 L 50.662127,113.99706 C 50.662127,113.99706 50.65345,95.329254 50.656462,95.330411 C 50.659143,95.33144 47.999044,95.334656 47.997827,95.330411 C 47.997479,95.329196 47.991484,116.66594 47.995134,116.66496 C 47.995134,116.66496 54.552768,116.66704 54.55006,116.66894 C 54.547353,116.67084 54.542217,114.01774 54.547464,114.0179 z M 61.374477,116.66373 C 61.375247,116.6624 61.37213,95.329476 61.374477,95.330411 C 61.378522,95.332023 58.713837,95.330411 58.709917,95.330411 C 58.709047,95.330411 58.707757,116.66212 58.709917,116.66243 C 58.711996,116.66273 61.374071,116.66443 61.374477,116.66373 z M 74.883429,110.7054 C 74.865912,110.69764 72.418507,110.70295 72.418507,110.70295 C 72.420963,110.70049 72.414768,111.99624 72.414768,112.68957 C 72.422203,114.7918 70.064217,114.67948 70.082787,112.62614 C 70.004562,111.30849 70.035662,108.86822 70.04785,106.01601 C 70.062618,102.5601 69.933679,100.36918 70.08506,99.216239 C 70.308119,97.51739 72.420414,97.386399 72.422109,99.038741 C 72.422734,99.648548 72.414704,101.28211 72.422433,101.28074 C 72.42957,101.27948 74.887519,101.29398 74.890095,101.28952 C 74.893452,101.2837 74.86703,100.0521 74.896962,99.316108 C 74.941156,98.22941 74.588142,97.051493 74.206532,96.533296 C 73.362512,95.387156 71.959079,95.319817 71.063532,95.330411 C 69.49657,95.348425 68.144237,96.045756 67.603617,97.740953 C 67.273157,98.777153 67.303627,106.05457 67.304892,106.0365 C 67.306023,106.02034 67.301787,112.21798 67.305207,112.28848 C 67.321037,114.88607 68.231464,116.76988 71.007115,116.79238 C 73.352714,116.70198 74.784498,115.41894 74.894572,113.32503 C 74.9411,112.43994 74.906416,111.57529 74.883429,110.7054 z M 82.006067,95.330411 C 82.007744,95.326833 79.341435,95.330411 79.341435,95.330411 C 79.341161,95.328813 79.342901,116.66974 79.341435,116.6674 C 79.340219,116.66546 81.990547,116.6637 82.006067,116.6674 C 82.020987,116.67096 82.001685,95.339762 82.006067,95.330411 z M 92.005947,97.997448 C 92.014707,97.991968 94.627763,97.994154 94.631795,97.997448 C 94.635651,98.000598 94.635157,95.344481 94.626587,95.330411 C 94.618647,95.317381 86.710879,95.326869 86.712896,95.330411 C 86.715471,95.334933 86.715171,97.997664 86.713334,97.997448 C 86.709727,97.997025 89.346265,97.992175 89.347087,97.997448 C 89.34812,98.004071 89.342551,116.66318 89.347101,116.66325 C 89.347101,116.66325 92.006797,116.66373 92.006797,116.66373 C 92.007779,116.65994 91.995947,98.003678 92.005947,97.997448 z M 115.37619,115.52389 C 116.17111,114.09402 116.00126,110.68463 116.00681,110.68456 C 116.01354,110.68448 113.41917,110.68133 113.41878,110.68326 C 113.41703,110.69206 113.432,113.09657 113.28347,113.49813 C 113.20853,113.70073 112.75221,114.21488 112.16751,114.21488 C 111.55772,114.21488 111.42577,113.78843 111.29552,113.56114 C 111.18518,113.36859 111.13849,112.88247 111.11633,112.39358 C 111.10954,112.2438 111.01362,100.22078 111.16209,99.325428 C 111.3647,98.103576 113.02053,98.230688 113.25847,99.210268 C 113.33269,99.515816 113.3274,101.30405 113.3274,101.30405 C 113.33333,101.30062 116.0272,101.30432 116.02332,101.30481 C 116.01772,101.30552 116.15944,98.653286 115.2595,97.065198 C 114.18326,95.166001 111.49865,94.667451 109.66347,96.328262 C 109.08727,96.849712 108.65984,97.496348 108.49679,99.147888 C 108.36062,100.52716 108.44431,102.69514 108.44431,105.90076 C 108.44431,109.10639 108.34248,112.62351 108.53408,114.02578 C 108.79456,115.93226 110.39891,117.02454 112.1397,116.99506 C 113.32049,116.97576 114.72884,116.70264 115.37619,115.52389 z M 126.379,115.92294 C 127.22274,115.0792 127.77764,112.90038 127.77764,105.99706 C 127.77764,100.68848 127.72214,97.929347 126.85152,96.599324 C 125.86761,94.855476 122.85287,95.01272 122.04513,96.255045 C 120.8185,97.297772 120.5278,100.20629 120.44431,105.99706 C 120.33896,113.3041 120.6421,114.6309 121.48211,115.73069 C 122.67403,117.29122 125.16619,117.25905 126.379,115.92294 z M 122.92348,105.96581 C 122.98546,102.198 122.94791,100.03231 123.19587,99.121328 C 123.34759,98.563948 123.78045,98.365948 124.03286,98.366863 C 124.29953,98.367887 124.6967,98.553048 124.8484,99.108708 C 125.09686,100.0188 125.20995,102.22516 125.14223,105.99706 C 125.06897,110.07778 125.18062,112.53042 124.88044,113.36568 C 124.79846,113.59379 124.64395,114.14954 124.11098,114.16028 C 122.87651,114.18445 122.82411,112.00661 122.92348,105.96581 z M 135.47555,103.04915 C 135.47555,103.04915 138.70485,116.67005 138.69757,116.66286 C 138.69757,116.66286 141.34761,116.66173 141.34892,116.66286 C 141.34892,116.66286 141.35595,95.332969 141.35673,95.330411 C 141.35673,95.330411 138.69698,95.318858 138.69366,95.322598 C 138.69172,95.324782 138.69192,109.27996 138.69366,109.28291 C 138.69596,109.28679 135.32657,95.330126 135.32945,95.330411 C 135.33355,95.326306 132.82237,95.330411 132.82237,95.330411 C 132.82078,95.329392 132.8251,116.66444 132.82237,116.66286 C 132.81922,116.66104 135.47555,116.66286 135.47555,116.66286 C 135.47555,116.66286 135.47691,103.04915 135.47555,103.04915 z M 150.66621,97.997448 C 150.66196,98.000772 153.34406,97.999319 153.34405,97.997448 C 153.34405,97.997448 153.33679,95.323968 153.34405,95.330411 C 153.34652,95.332607 145.34228,95.332519 145.33884,95.330411 C 145.3354,95.328303 145.33411,97.997273 145.33884,97.997448 C 145.34135,97.997541 148.01547,97.992516 148.01822,97.997448 C 148.02095,98.002342 148.01067,116.6723 148.01822,116.66286 C 148.02013,116.66047 150.66834,116.6559 150.66621,116.66286 C 150.66387,116.67051 150.66745,97.996485 150.66621,97.997448 z M 164.58163,116.66286 C 164.58163,116.6587 164.57829,113.99053 164.58163,113.99634 C 164.58397,114.00041 160.68563,113.99682 160.68386,113.99634 C 160.67516,113.99401 160.68386,106.67914 160.68386,106.67582 C 160.68386,106.67305 163.31171,106.67582 163.31171,106.67582 C 163.31171,106.67582 163.31618,103.9336 163.31171,103.93075 C 163.31036,103.92989 160.68087,103.93127 160.68386,103.93075 C 160.68509,103.93053 160.68251,97.959981 160.68386,97.965014 C 160.68572,97.971941 164.58771,97.962979 164.58163,97.962979 C 164.58004,97.962979 164.5839,95.330411 164.58163,95.330411 L 158.00681,95.330411 L 158.00681,105.93847 L 158.00681,116.66286 C 158.00681,116.66286 164.58163,116.66286 164.58163,116.66286 z M 172.21791,103.02123 C 172.21791,103.02123 175.46535,116.66286 175.46535,116.66286 C 175.46535,116.66286 178.09308,116.65993 178.0882,116.66286 C 178.0882,116.66286 178.08896,95.330187 178.0882,95.330411 C 178.08456,95.331496 175.43853,95.325612 175.43853,95.330411 L 175.43853,109.33431 L 172.07364,95.330411 C 172.07164,95.329259 169.59481,95.328061 169.5918,95.330411 C 169.59245,95.332842 169.55623,116.66457 169.55865,116.66286 C 169.55984,116.66202 172.21791,116.66286 172.21791,116.66286 C 172.21791,116.66286 172.21824,103.01851 172.21791,103.02123 z M 187.3167,97.997448 C 187.32541,97.996428 190.01207,97.999818 190.01202,97.997448 C 190.01198,97.995648 190.00463,95.332871 190.01202,95.330411 C 190.0151,95.329391 181.97914,95.3317 181.97426,95.330411 C 181.97773,95.340843 181.97616,97.998744 181.97426,97.997448 C 181.98427,98.001068 184.64903,98.004371 184.65134,97.997448 C 184.65354,97.99088 184.65235,116.66498 184.65134,116.66286 C 184.64919,116.65834 187.31661,116.66322 187.3167,116.66286 C 187.31707,116.6614 187.3167,97.997448 187.3167,97.997448 z M 7.0015076,78.163731 C 7.2664276,76.055401 8.5967672,66.386641 9.7668372,56.486643 L 12.019247,37.973673 C 12.019247,37.973673 17.496695,37.977132 17.495347,37.973673 C 17.492522,37.966423 22.681781,82.000171 22.686487,82.001312 C 22.688052,82.00169 16.739348,81.997093 16.738747,82.001312 C 16.738146,82.00553 16.234907,71.397811 16.145637,71.364251 C 16.064597,71.333781 13.840127,71.359221 13.715127,71.372061 L 12.673467,82.001312 L 6.5198276,82.001312 L 6.7062947,80.513109 L 7.0015076,78.163731 z M 15.969267,66.754641 C 15.811207,62.323841 14.836179,47.636135 14.899999,47.711173 C 14.857729,47.706243 13.786087,66.748651 13.835687,66.765851 C 13.877107,66.780221 15.938017,66.758811 15.969267,66.754641 z M 32.653244,37.973673 L 38.126167,37.973673 C 44.058407,37.973673 46.470907,39.592573 47.802507,43.392833 C 48.885467,46.483573 48.954757,72.570151 47.889447,76.125871 C 47.458227,77.565121 46.235207,79.474931 45.171627,80.369881 C 43.476887,81.795911 42.583707,82.001312 37.946537,82.001312 L 32.655247,82.001312 L 32.653244,37.973673 z M 42.045847,74.103391 C 42.433027,73.153501 42.673467,67.438901 42.673467,59.755173 C 42.673467,48.677023 42.514457,46.599963 41.596087,45.681593 C 40.654147,44.739653 38.868395,44.762355 38.863897,44.761903 C 38.852336,44.760741 38.649085,75.181643 38.637487,75.205401 C 38.631504,75.217657 41.582937,75.208451 42.045847,74.103391 z M 62.801987,82.001312 C 61.566757,67.317342 59.815403,52.659053 58.660437,37.973673 C 58.66026,37.971428 63.786047,37.966803 63.785367,37.973673 C 64.989747,46.599863 64.945057,55.354747 65.985527,63.997061 L 69.332317,37.973673 C 69.332317,37.973673 74.657647,37.975153 74.656027,37.973673 C 74.649777,37.967923 69.343208,82.001637 69.343427,82.001312 C 69.344312,82 62.801982,82.000746 62.801987,82.001312 z M 84.001303,37.973673 L 90.021812,37.973673 L 90.025017,82.001312 L 83.988577,82.001312 L 84.001303,37.973673 z M 104.23944,81.306591 C 101.87192,80.160841 100.54695,76.876811 100.79025,72.757481 L 100.67348,69.090811 L 103.67348,69.090811 L 106.54848,69.090811 L 106.67348,72.424151 C 106.95126,75.201931 107.22903,75.757481 108.34014,75.757481 C 109.46991,75.757481 109.70301,75.248561 109.8669,72.424151 C 110.06943,68.933741 109.97409,68.631811 103.45062,58.320213 C 100.64438,53.884413 99.562337,48.649173 100.6407,44.725053 C 101.69404,40.892033 104.56891,37.973673 107.32197,37.973673 C 112.31471,37.973673 115.34014,41.650893 115.34014,47.680653 L 115.34014,50.740393 C 115.34014,50.740393 109.60885,50.668568 109.60394,50.663828 C 109.59344,50.653688 109.64288,49.40952 109.67331,47.86715 C 109.73453,44.763775 108.17242,43.696353 106.84707,44.796303 C 106.14184,45.381593 105.9504,46.508843 106.16932,48.787173 C 106.40802,51.271403 107.36969,53.320073 110.5885,58.201533 C 115.06659,64.992721 116.01449,67.505691 115.99217,72.086411 C 115.97484,75.641551 114.37443,80.302694 112.10732,81.370361 C 110.03649,82.345589 106.15046,82.231411 104.23944,81.306591 z M 126.33929,76.186703 C 125.75073,71.304639 125.95952,53.655637 126.16786,46.124207 C 126.2109,41.676062 128.74962,38.098299 133.36891,37.973673 C 138.81049,38.033557 140.94305,41.623689 141.33541,46.510773 C 141.46673,49.34597 141.35343,53.789948 141.39319,59.708213 C 141.4599,69.637208 141.1626,73.965176 140.81525,76.293778 C 140.05508,79.477198 138.74725,81.797198 133.99167,82.001634 C 129.10303,82.023779 127.08155,79.948384 126.33929,76.186703 z M 135.84769,46.229845 C 135.76803,43.880058 134.92667,43.401687 133.86587,43.386457 C 132.619,43.368547 131.76331,44.507345 131.65453,46.509615 C 131.52808,48.837064 131.5275,69.022878 131.65453,71.770138 C 131.78317,74.552428 131.58311,76.058342 133.96416,76.022608 C 136.09183,75.990073 135.83666,73.053968 135.84769,71.401118 C 135.86755,68.427858 135.91494,48.250815 135.84769,46.229845 z M 152.67348,37.973673 L 157.93887,37.973673 C 162.0299,38.159463 163.53732,38.631073 164.69755,39.665593 C 167.06845,41.779583 168.00681,44.866613 168.00681,50.552413 C 168.00681,54.906293 167.76239,56.127983 166.59418,57.613113 L 165.18155,59.408983 L 166.59418,60.912653 C 167.90085,62.303541 168.00681,63.150671 168.00681,72.206701 L 167.999,81.997061 L 162.00681,81.997061 L 162.00681,73.384921 C 162.00681,65.362831 161.83879,63.182011 160.68936,62.713931 C 160.47309,62.625851 158.70106,62.671539 158.68548,62.666329 L 158.68548,82.000298 L 152.67348,82.000298 L 152.67348,37.973673 z M 161.20681,55.863733 C 161.44908,55.621453 161.80588,55.115993 161.97119,53.611573 C 162.12016,52.255823 162.09014,49.947893 162.09014,48.747063 C 162.09014,44.417673 158.90334,44.872063 158.87348,44.830393 C 158.86071,44.812583 158.77304,56.68565 158.77453,56.683173 C 158.77939,56.675126 160.40042,56.670113 161.20681,55.863733 z M 182.33939,82.000575 C 182.33126,82.001085 182.34732,61.923118 182.34182,61.919933 C 182.34083,61.909413 177.89422,38.056503 177.97148,37.973673 C 177.97328,37.975032 182.81672,37.973673 182.81672,37.973673 C 182.81267,37.967654 185.56728,53.928523 185.62881,53.872283 C 185.70036,53.806893 187.79023,37.967821 187.78438,37.973673 C 187.78368,37.974377 192.7226,37.978892 192.71987,37.973673 C 192.71783,37.969772 192.72549,37.973673 192.72549,37.973673 C 192.73204,37.969894 188.31858,61.97946 188.31858,62.001133 L 188.31941,81.997367 C 188.31941,81.997367 182.33636,81.991435 182.33939,82.000575 z M 0.006797691,-0.0029385388 L 200.00681,-0.0029385388 L 200.00681,33.997062 L 0.006797691,33.997062 L 0.006797691,-0.0029385388 z M 15.293787,20.691383 C 16.766477,20.142472 18.407657,19.975912 19.703767,19.027362 C 21.016047,17.722048 21.340127,16.711615 21.340127,13.997062 C 21.340127,9.2731221 19.406237,7.2678947 14.703767,7.2678947 L 11.340127,7.2678947 L 11.340127,17.219282 C 11.340127,22.658175 11.349133,27.323418 11.342877,27.330395 C 11.335886,27.338193 15.295588,27.331116 15.293787,27.330395 C 15.298907,25.126513 15.252497,22.896733 15.293787,20.691383 z M 15.340127,13.997062 C 15.340127,12.071136 15.349497,11.316103 15.361067,11.314371 C 15.377827,11.311862 15.774527,11.302189 15.948287,11.302146 C 17.017367,11.301883 17.285727,11.888631 17.327847,12.589253 C 17.353367,13.013893 17.358287,13.480365 17.345507,13.883328 C 17.333097,14.274622 17.337847,14.75299 17.333287,15.204414 C 17.324887,16.03899 17.076297,16.771049 15.620157,16.70094 C 15.539287,16.697046 15.351727,16.701048 15.348047,16.697244 C 15.345657,16.694776 15.340127,15.922988 15.340127,13.997062 z M 39.174647,22.611187 C 39.176971,22.611807 40.924961,22.625066 40.926726,22.623352 C 40.925041,22.628322 41.278072,27.283396 41.359477,27.330395 C 41.360235,27.323968 45.274827,27.323541 45.272937,27.330395 C 45.270227,27.337265 41.039794,7.2662833 41.035474,7.2678947 C 41.039524,7.2637155 38.229778,7.2646485 38.235393,7.2678947 C 38.229781,7.262236 35.053492,27.322693 35.048741,27.330395 C 35.051187,27.334461 38.656747,27.328722 38.671927,27.330395 C 38.659822,27.340914 39.180648,22.611566 39.174647,22.611187 z M 39.950323,13.08316 C 39.947653,13.079079 40.909869,20.649131 40.897164,20.706102 C 40.940059,20.711953 39.162387,20.687355 39.158447,20.701349 C 39.144927,20.697729 39.929843,13.082634 39.950323,13.08316 z M 118.24353,7.2678947 L 114.66424,7.2678947 C 114.66595,7.2696068 114.70605,17.100244 114.7186,17.142735 C 114.7173,17.115526 110.63457,7.2745364 110.63485,7.2678947 L 107.29848,7.2678947 L 107.29848,27.330395 L 111.34014,27.330395 C 111.33542,27.330979 111.16222,16.375846 111.14162,16.364662 C 111.13649,16.358672 114.70125,27.332944 114.70161,27.330395 C 114.70976,27.334482 118.24107,27.333248 118.24353,27.330395 C 118.25042,27.328923 118.24635,7.2677255 118.24353,7.2678947 z M 140.00588,11.329836 C 140.00712,11.329299 142.67478,11.32996 142.67739,11.329836 L 142.67739,7.2678947 C 142.68337,7.2689102 133.36989,7.2722735 133.37188,7.2678947 C 133.37188,7.2678947 133.36315,11.316563 133.37188,11.304723 C 133.37561,11.299671 135.98117,11.303617 135.99704,11.304723 C 136.00876,11.305537 135.97073,27.333795 135.99704,27.330395 C 135.99704,27.330395 139.97566,27.333655 140.00588,27.330395 C 140.02628,27.328195 140.0001,11.332339 140.00588,11.329836 z M 160.00081,27.330395 C 159.99649,27.335589 160.75576,22.659688 160.72182,22.664842 C 160.67524,22.671908 162.50791,22.663636 162.53269,22.664842 C 162.54935,22.665656 163.39972,27.330395 163.40962,27.330395 L 166.84339,27.330395 L 163.13868,7.2678947 C 163.13868,7.2678947 160.08682,7.285354 160.09257,7.2678947 C 160.09883,7.2488647 157.01282,27.330395 157.01282,27.330395 C 157.01282,27.330395 160.00081,27.329953 160.00081,27.330395 z M 160.69465,20.691082 C 160.66307,20.698408 161.43765,14.257877 161.68975,13.028557 C 161.73264,13.08157 162.49147,18.910949 162.69463,20.691082 C 162.65488,20.692122 160.71192,20.701195 160.69465,20.691082 z M 64.008767,19.331415 C 64.451657,19.337339 64.895814,19.333493 65.337927,19.334015 L 65.296067,27.330395 L 69.111867,27.330395 L 69.113117,23.184285 C 69.113117,20.316725 68.848737,19.258468 68.439837,18.139922 C 68.440645,18.100768 68.014781,17.151352 68.012232,17.154131 C 68.012715,17.155298 68.357357,16.723411 68.472391,16.469035 C 68.713651,15.975075 69.107671,15.446522 69.107671,13.194176 C 69.107671,9.7670216 68.322138,7.2678947 65.634567,7.2678947 L 60.006797,7.2678947 L 60.006797,27.330395 L 64.006797,27.330395 C 64.006188,27.328122 63.999627,19.310181 64.008767,19.331415 z M 64.006797,13.330396 C 64.006797,12.826529 64.019737,11.326769 64.005437,11.327723 C 63.995047,11.328416 65.322937,11.319976 65.329707,11.319976 C 65.347417,11.319976 65.605297,12.289323 65.605297,13.389323 C 65.605297,14.489322 65.359057,15.332702 65.350537,15.330395 C 65.328607,15.324455 64.014117,15.331502 64.004297,15.331228 C 63.991977,15.330888 64.006797,13.842995 64.006797,13.330396 z M 92.636627,27.330395 C 92.636627,27.307822 92.682027,23.996228 92.664657,23.996228 C 92.652247,23.996228 88.637347,23.990055 88.624587,23.992102 C 88.613307,23.993915 88.612137,18.657428 88.624587,18.658882 C 88.635857,18.660188 91.247537,18.657776 91.263787,18.658882 C 91.286017,18.660389 91.278669,15.368708 91.263787,15.357515 C 91.241889,15.341045 88.642557,15.357702 88.624587,15.357515 C 88.603867,15.357308 88.589347,11.312503 88.624587,11.312836 C 88.680137,11.313349 92.665437,11.276316 92.666997,11.295996 C 92.669087,11.322283 92.665607,9.2549481 92.662307,9.2358151 C 92.658807,9.2155881 92.683487,7.2663547 92.667337,7.2678947 L 84.673467,7.2678947 L 84.673467,27.330395 L 88.462677,27.330395 C 88.478297,27.330395 92.636627,27.309595 92.636627,27.330395 z M 189.36747,23.993862 L 185.43548,23.993862 L 185.43548,7.2678947 L 181.37921,7.2678947 L 181.37921,27.330395 L 189.36747,27.330395 C 189.36747,27.330395 189.36917,23.995415 189.36747,23.993862 z" id="path2384" sodipodi:nodetypes="ccccccsszcssssccccccsssccsssssccssccssscsssssccszczccsssscsccssssssssssccsccsssscsssssssscssssssssssssszssccsccssccssssssscccssscssscczszssssscsssssssszcccccsssscccszscssccsssscccsszscccccccscccsssccccssssccscccssccccccccccccsssssccssssssscccccsccccssssssccsscccccccscccccssssccccsssssscccccccccscccscccsssssssccccccccccccccccccccccccccccsssssscsssccsscccccccccccccsscccccsssssccssssssssscccccccccccc"/>
  <rect style="fill: rgb(0, 0, 0); stroke: none;" id="rect2394" width="200.00064" height="0.042802453" x="0.0052445806" y="126.63333"/>
</svg>