<?xml version="1.0" encoding="utf-8"?>
<!-- Generator: Adobe Illustrator 18.0.0, SVG Export Plug-In . SVG Version: 6.00 Build 0)  -->
<!DOCTYPE svg PUBLIC "-//W3C//DTD SVG 1.1//EN" "http://www.w3.org/Graphics/SVG/1.1/DTD/svg11.dtd">
<svg version="1.1" id="Capa_1" xmlns="http://www.w3.org/2000/svg" xmlns:xlink="http://www.w3.org/1999/xlink" x="0px" y="0px"
	 width="128px" height="128px" viewBox="0 0 128 128" enable-background="new 0 0 128 128" xml:space="preserve">
<path d="M114,8H14C7.4,8,2,13.4,2,20s5.4,12,12,12h100c6.6,0,12-5.4,12-12S120.6,8,114,8z"/>
<path d="M114,52H14C7.4,52,2,57.4,2,64s5.4,12,12,12h100c6.6,0,12-5.4,12-12S120.6,52,114,52z"/>
<path d="M114,96H14c-6.6,0-12,5.4-12,12s5.4,12,12,12h100c6.6,0,12-5.4,12-12S120.6,96,114,96z"/>
</svg>
