<?xml version="1.0" encoding="UTF-8" standalone="no"?>
<!-- Created with Inkscape (http://www.inkscape.org/) -->
<svg id="svg3144" xmlns:rdf="http://www.w3.org/1999/02/22-rdf-syntax-ns#" xmlns="http://www.w3.org/2000/svg" height="112.56" width="112.38" version="1.1" xmlns:cc="http://creativecommons.org/ns#" xmlns:dc="http://purl.org/dc/elements/1.1/">
 <defs id="defs3146">
  <filter id="filter3316-0" color-interpolation-filters="sRGB">
   <feGaussianBlur id="feGaussianBlur7-70" stdDeviation=".58672"/>
  </filter>
 </defs>
 <metadata id="metadata3149">
  <rdf:RDF>
   <cc:Work rdf:about="">
    <dc:format>image/svg+xml</dc:format>
    <dc:type rdf:resource="http://purl.org/dc/dcmitype/StillImage"/>
    <dc:title/>
   </cc:Work>
  </rdf:RDF>
 </metadata>
 <path id="path31" d="m211.43,266.65a54.286,51.429,0,1,1,-108.57,0,54.286,51.429,0,1,1,108.57,0z" fill-rule="evenodd" transform="matrix(0.99975,0,0,1.05529,-100.91039,-225.10457)" filter="url(#filter3316-0)" stroke="#000"/>
 <path id="path33" d="m56.98,55.457-13.173,16.73-13.173,16.73,0.0504-33.654,0.0504-33.654,13.122,16.924,13.122,16.924z" stroke-opacity="0.18256998" fill-rule="evenodd" stroke="#FFF" stroke-width="0.45727301" fill="#e6e6e6"/>
 <path id="path25" d="m61.03,26.132h26.296v58.264h-26.296z" fill-rule="evenodd" stroke="#FFF" stroke-width="1.16619825" fill="#e6e6e6"/>
 <path id="path35" opacity="0.5" d="m55.71,3.1509c-29.13,0.00001-52.781,24.323-52.781,54.281,46.899-10.605,58.321-10.745,105.53,0,0.00001-29.958-23.62-54.281-52.75-54.281z" stroke-opacity="0.18256998" fill-rule="evenodd" stroke="#000" fill="#FFF"/>
</svg>
