<?xml version="1.0" encoding="utf-8"?>
<!-- Generator: Adobe Illustrator 16.0.4, SVG Export Plug-In . SVG Version: 6.00 Build 0)  -->
<!DOCTYPE svg PUBLIC "-//W3C//DTD SVG 1.1//EN" "http://www.w3.org/Graphics/SVG/1.1/DTD/svg11.dtd">
<svg version="1.1" id="Capa_1" xmlns="http://www.w3.org/2000/svg" xmlns:xlink="http://www.w3.org/1999/xlink" x="0px" y="0px"
	 width="512px" height="512px" viewBox="0 0 512 512" enable-background="new 0 0 512 512" xml:space="preserve">
<path d="M463.906,0H319.625c-26.453,0-63.398,15.303-82.102,34.007L14.028,257.502c-18.704,18.704-18.704,49.312,0,68.016
	l172.455,172.453c18.704,18.705,49.311,18.705,68.015,0l223.495-223.494C496.697,255.772,512,218.826,512,192.375V48.094
	C512,21.642,490.357,0,463.906,0z M400,160c-26.51,0-48-21.49-48-48s21.49-48,48-48s48,21.49,48,48S426.51,160,400,160z"/>
</svg>
