<?xml version="1.0" encoding="UTF-8" standalone="no"?>
<!-- Created with Inkscape (http://www.inkscape.org/) -->
<svg id="svg2444" xmlns:rdf="http://www.w3.org/1999/02/22-rdf-syntax-ns#" xmlns="http://www.w3.org/2000/svg" height="1024" width="1024" version="1.0" xmlns:cc="http://creativecommons.org/ns#" xmlns:dc="http://purl.org/dc/elements/1.1/">
 <metadata id="metadata10">
  <rdf:RDF>
   <cc:Work rdf:about="">
    <dc:format>image/svg+xml</dc:format>
    <dc:type rdf:resource="http://purl.org/dc/dcmitype/StillImage"/>
    <dc:title/>
   </cc:Work>
  </rdf:RDF>
 </metadata>
 <path id="path2438" fill-rule="evenodd" fill="#000001" d="m179.93,32,664.14,0c81.696,0,147.93,66.23,147.93,147.93v664.14c0,81.696-66.233,147.93-147.93,147.93h-664.14c-81.698,0-147.93-66.233-147.93-147.93v-664.14c0-81.698,66.23-147.93,147.93-147.93"/>
 <path id="path2442" fill-rule="evenodd" fill="#FFF" d="m503.95,704.03,39.269,0s11.859-1.3071,17.923-7.8311c5.5732-5.9966,5.395-17.249,5.395-17.249s-0.76808-52.692,23.683-60.451c24.113-7.6484,55.07,50.924,87.88,73.448,24.812,17.039,43.667,13.309,43.667,13.309l87.739-1.2262s45.895-2.8317,24.132-38.917c-1.7814-2.9474-12.678-26.693-65.238-75.48-55.019-51.063-47.644-42.802,18.626-131.13,40.359-53.791,56.491-86.628,51.45-100.69-4.8028-13.4-34.489-9.8601-34.489-9.8601l-98.786,0.61076s-7.3291-0.99711-12.757,2.251c-5.3094,3.1764-8.7172,10.598-8.7172,10.598s-15.641,41.622-36.486,77.025c-43.989,74.693-61.58,78.647-68.771,74.001-16.729-10.811-12.548-43.422-12.548-66.596,0-72.389,10.98-102.57-21.381-110.38-10.737-2.5911-18.647-4.3054-46.11-4.5853-35.251-0.35859-65.078,0.10873-81.971,8.384-11.239,5.5038-19.91,17.765-14.626,18.471,6.531,0.86987,21.314,3.9908,29.152,14.656,10.126,13.777,9.7722,44.703,9.7722,44.703s5.8184,85.212-13.585,95.794c-13.314,7.2597-31.581-7.5605-70.799-75.327-20.09-34.711-35.264-73.085-35.264-73.085s-2.9219-7.1695-8.1411-11.008c-6.3297-4.6501-15.174-6.1238-15.174-6.1238l-93.876,0.61307s-14.089,0.39329-19.267,6.5217c-4.6061,5.4552-0.36781,16.724-0.36781,16.724s73.49,171.94,156.71,258.59c76.315,79.454,162.96,74.24,162.96,74.24"/>
</svg>
