<?xml version="1.0" encoding="utf-8"?>
<!-- Generator: Adobe Illustrator 16.0.0, SVG Export Plug-In . SVG Version: 6.00 Build 0)  -->
<!DOCTYPE svg PUBLIC "-//W3C//DTD SVG 1.1//EN" "http://www.w3.org/Graphics/SVG/1.1/DTD/svg11.dtd">
<svg version="1.1" id="Layer_6" xmlns="http://www.w3.org/2000/svg" xmlns:xlink="http://www.w3.org/1999/xlink" x="0px" y="0px"
	 width="100px" height="100px" viewBox="0 0 100 100" enable-background="new 0 0 100 100" xml:space="preserve">
<path d="M50,1.125C23.008,1.125,1.125,23.008,1.125,50S23.008,98.875,50,98.875S98.875,76.992,98.875,50S76.992,1.125,50,1.125z
	 M78.816,38.628c-2.779,6.28-11.279,26.171-16.951,39.135c-0.008,0.007-1.486-0.002-1.49-0.004l-8.945-21.07
	c-3.545,6.954-7.473,14.181-10.832,21.059c-0.02,0.035-1.625,0.016-1.627-0.006C33.836,65.756,28.512,53.849,23.35,41.872
	c-1.195-2.928-5.387-7.637-8.256-7.61c0-0.34-0.016-1.099-0.02-1.558l17.682-0.002l-0.014,1.531
	c-2.076,0.096-5.664,1.421-4.734,3.713c2.492,5.381,11.316,26.227,13.701,31.519c1.664-3.257,6.311-11.939,8.225-15.61
	c-1.5-3.077-6.457-14.57-7.943-17.464c-1.121-1.887-3.934-2.118-6.1-2.151c0-0.483,0.025-0.855,0.016-1.518l15.543,0.048v1.412
	c-2.104,0.058-4.096,0.841-3.193,2.853c2.09,4.34,3.311,7.43,5.232,11.444c0.613-1.176,3.754-7.622,5.252-11.024
	c0.906-2.262-0.447-3.109-4.232-3.211c0.049-0.372,0.016-1.119,0.049-1.475l13.424,0.013l0.006,1.401
	c-2.467,0.096-5.02,1.41-6.354,3.45L55.17,51.039c0.709,1.774,6.924,15.58,7.578,17.112l13.365-30.846
	c-0.951-2.497-3.984-3.055-5.17-3.082c0.008-0.398,0.01-1.005,0.012-1.512l13.951,0.04l0.02,0.07l-0.023,1.394
	C81.842,34.308,79.949,35.945,78.816,38.628z"/>
</svg>
