<?xml version="1.0" encoding="UTF-8" standalone="no"?>
<svg
   height="760"
   width="760"
   viewBox="-35.20005 -41.33325 193.20917 235.59952"
   version="1.1"
   id="svg6"
   xmlns="http://www.w3.org/2000/svg"
   xmlns:svg="http://www.w3.org/2000/svg">
  <defs
     id="defs10" />
  <path
     d="m 173.83403,19.61701 c -2.699,-10.162 -10.65,-18.165 -20.747,-20.881 -18.3,-4.936 -91.682991,-4.936 -91.682991,-4.936 0,0 -73.382,0 -91.682,4.936 -10.097,2.716 -18.049,10.719 -20.747,20.881 -4.904,18.42 -4.904,56.85 -4.904,56.85 0,0 0,38.43 4.904,56.85 2.698,10.162 10.65,18.164 20.747,20.881 18.3,4.935 91.682,4.935 91.682,4.935 0,0 73.382991,0 91.682991,-4.935 10.097,-2.717 18.048,-10.72 20.747,-20.88 4.904,-18.422 4.904,-56.851 4.904,-56.851 0,0 0,-38.43 -4.904,-56.85"
     fill="#282828"
     id="path2"
     style="fill:#000000;fill-opacity:1" />
  <path
     d="m 30.737535,111.35801 61.334,-34.89 -61.334,-34.893 z"
     fill="#ffffff"
     id="path4" />
</svg>
