<?xml version="1.0" encoding="UTF-8" standalone="no"?>
<!-- Generator: Adobe Illustrator 15.0.0, SVG Export Plug-In . SVG Version: 6.00 Build 0)  -->
<svg id="Icons" xmlns:rdf="http://www.w3.org/1999/02/22-rdf-syntax-ns#" xmlns="http://www.w3.org/2000/svg" xml:space="preserve" height="90" viewBox="0 0 90 90" width="90" version="1.1" y="0px" x="0px" xmlns:cc="http://creativecommons.org/ns#" xmlns:dc="http://purl.org/dc/elements/1.1/"><metadata id="metadata8"><rdf:RDF><cc:Work rdf:about=""><dc:format>image/svg+xml</dc:format><dc:type rdf:resource="http://purl.org/dc/dcmitype/StillImage"/><dc:title/></cc:Work></rdf:RDF></metadata><path id="YouTube" d="m71.067,65.832h-4.94l0.023-2.869c0-1.275,1.047-2.318,2.327-2.318h0.315c1.282,0,2.332,1.043,2.332,2.318l-0.057,2.869zm-18.527-6.148c-1.253,0-2.278,0.842-2.278,1.873v13.953c0,1.029,1.025,1.869,2.278,1.869,1.258,0,2.284-0.84,2.284-1.869v-13.953c0-1.032-1.026-1.873-2.284-1.873zm30.087-7.805v26.544c0,6.367-5.522,11.577-12.27,11.577h-50.459c-6.751,0-12.271-5.21-12.271-11.577v-26.544c0-6.367,5.52-11.578,12.271-11.578h50.459c6.748,0,12.27,5.211,12.27,11.578zm-59.363,29.426-0.004-27.961,6.255,0.002v-4.143l-16.674-0.025v4.073l5.205,0.015v28.039h5.218zm18.75-23.796h-5.215v14.931c0,2.16,0.131,3.24-0.008,3.621-0.424,1.158-2.33,2.387-3.073,0.125-0.126-0.396-0.015-1.591-0.017-3.643l-0.021-15.034h-5.186l0.016,14.797c0.004,2.268-0.051,3.96,0.018,4.729,0.127,1.357,0.082,2.94,1.341,3.843,2.346,1.691,6.843-0.252,7.968-2.668l-0.01,3.083,4.188,0.005v-23.789zm16.683,17.098-0.011-12.427c-0.004-4.736-3.547-7.573-8.357-3.741l0.021-9.239-5.21,0.008-0.025,31.89,4.283-0.063,0.39-1.986c5.476,5.023,8.917,1.582,8.909-4.442zm16.321-1.647-3.911,0.021c-0.002,0.155-0.007,0.334-0.009,0.529v2.182c0,1.167-0.965,2.118-2.137,2.118h-0.766c-1.174,0-2.138-0.951-2.138-2.118v-5.739h8.954v-3.37c0-2.463-0.063-4.925-0.267-6.333-0.64-4.454-6.892-5.161-10.05-2.881-0.992,0.712-1.749,1.665-2.189,2.946-0.445,1.281-0.665,3.031-0.665,5.254v7.409c0.001,12.318,14.963,10.577,13.178-0.018zm-20.058-40.228c0.269,0.654,0.687,1.184,1.254,1.584,0.56,0.394,1.277,0.592,2.134,0.592,0.752,0,1.418-0.203,1.998-0.622,0.578-0.417,1.065-1.04,1.462-1.871l-0.098,2.046h5.813v-24.721h-4.576v19.24c0,1.042-0.858,1.895-1.907,1.895-1.043,0-1.904-0.853-1.904-1.895v-19.24h-4.776v16.674c0,2.124,0.038,3.54,0.101,4.258,0.067,0.713,0.23,1.397,0.499,2.06zm-17.616-13.962c0-2.373,0.198-4.226,0.591-5.562,0.396-1.331,1.107-2.401,2.137-3.208,1.027-0.811,2.342-1.217,3.941-1.217,1.345,0,2.497,0.264,3.46,0.781,0.967,0.52,1.712,1.195,2.23,2.028,0.527,0.836,0.885,1.695,1.076,2.574,0.195,0.891,0.291,2.235,0.291,4.048v6.252c0,2.293-0.092,3.98-0.27,5.051-0.177,1.074-0.557,2.07-1.145,3.004-0.581,0.924-1.33,1.615-2.238,2.056-0.918,0.445-1.968,0.663-3.154,0.663-1.325,0-2.441-0.183-3.361-0.565-0.923-0.38-1.636-0.953-2.144-1.714-0.513-0.762-0.874-1.69-1.092-2.772-0.219-1.081-0.323-2.707-0.323-4.874v-6.545zm4.553,9.82c0,1.4,1.042,2.543,2.311,2.543,1.27,0,2.307-1.143,2.307-2.543v-13.16c0-1.398-1.037-2.541-2.307-2.541-1.269,0-2.311,1.143-2.311,2.541v13.16zm-16.088,6.645h5.484l0.006-18.96,6.48-16.242h-5.998l-3.445,12.064-3.494-12.097h-5.936l6.894,16.284,0.009,18.951z"/></svg>
