<?xml version="1.0" encoding="UTF-8" standalone="no"?>
<svg
   xmlns:dc="http://purl.org/dc/elements/1.1/"
   xmlns:cc="http://creativecommons.org/ns#"
   xmlns:rdf="http://www.w3.org/1999/02/22-rdf-syntax-ns#"
   xmlns:svg="http://www.w3.org/2000/svg"
   xmlns="http://www.w3.org/2000/svg"
   height="480pt"
   viewBox="-40 0 480 480"
   width="480pt"
   version="1.1"
   id="svg1659">
  <metadata
     id="metadata1665">
    <rdf:RDF>
      <cc:Work
         rdf:about="">
        <dc:format>image/svg+xml</dc:format>
        <dc:type
           rdf:resource="http://purl.org/dc/dcmitype/StillImage" />
        <dc:title></dc:title>
      </cc:Work>
    </rdf:RDF>
  </metadata>
  <defs
     id="defs1663" />
  <path
     d="m400 8c0-4.417969-3.582031-8-8-8h-336c-30.910156.0390625-55.9609375 25.089844-56 56v368c0 .105469.0546875.191406.0625.304688.144531 14.183593 5.816406 27.75 15.808594 37.816406 11.082031 11.371094 26.269531 17.8125 42.144531 17.878906h333.984375c2.949219 0 5.664062-1.625 7.054688-4.226562 1.390624-2.601563 1.238281-5.757813-.398438-8.214844l-2.398438-3.621094c-16.175781-24.167969-16.175781-55.707031 0-79.875l2.398438-3.621094c.167969-.304687.320312-.617187.457031-.9375.101563-.214844.222657-.414062.3125-.648437.347657-.863281.542969-1.78125.574219-2.710938.003906-.046875.003906-.097656 0-.144531zm-16 360h-320v-352h320zm-368-312c.023438-19 13.386719-35.371094 32-39.199219v351.824219c-11.960938 1.65625-23.046875 7.199219-31.550781 15.773438l-.449219.441406zm42.015625 408c-11.5625-.066406-22.617187-4.765625-30.6875-13.046875-8.644531-8.140625-12.710937-20.023437-10.863281-31.753906.144531-1.175781.183594-2.398438.421875-3.511719.324219-1.308594.714843-2.601562 1.175781-3.871094.3125-1.171875.683594-2.324218 1.113281-3.457031.585938-1.246094 1.234375-2.460937 1.953125-3.640625.566406-1.023438 1.03125-2.101562 1.695313-3.078125 7.464843-11 19.882812-17.601563 33.175781-17.640625h321.761719c-2.570313 5.121094-4.632813 10.480469-6.160157 16h-83.601562c-4.417969 0-8 3.582031-8 8s3.582031 8 8 8h80.566406c-.488281 5.320312-.488281 10.679688 0 16h-168.566406c-4.417969 0-8 3.582031-8 8s3.582031 8 8 8h171.601562c1.527344 5.519531 3.589844 10.878906 6.160157 16zm0 0"
     id="path1653"
     style="stroke:#EEEEEE;stroke-opacity:1;fill:#EEEEEE;fill-opacity:1" />
  <path
     style="fill:#EEEEEE;fill-opacity:1"
     d="m196.128906 239c2.542969 1.40625 5.648438 1.324219 8.109375-.214844l64-40c2.355469-1.460937 3.789063-4.03125 3.789063-6.800781s-1.433594-5.339844-3.789063-6.800781l-64-40c-2.46875-1.542969-5.585937-1.621094-8.128906-.203125-2.546875 1.414062-4.121094 4.105469-4.109375 7.019531v80c0 2.910156 1.582031 5.589844 4.128906 7zm11.871094-72.558594 40.902344 25.558594-40.902344 25.601562zm0 0"
     id="path1655" />
  <path
     d="m224 280c48.601562 0 88-39.398438 88-88s-39.398438-88-88-88-88 39.398438-88 88c.058594 48.578125 39.421875 87.941406 88 88zm0-160c39.765625 0 72 32.234375 72 72s-32.234375 72-72 72-72-32.234375-72-72c.042969-39.746094 32.253906-71.957031 72-72zm0 0"
     id="path1657"
     style="fill:#EEEEEE;fill-opacity:1;stroke:#EEEEEE;stroke-opacity:1" />
</svg>
