<?xml version="1.0" encoding="UTF-8" standalone="no"?>
<svg
   xmlns:dc="http://purl.org/dc/elements/1.1/"
   xmlns:cc="http://creativecommons.org/ns#"
   xmlns:rdf="http://www.w3.org/1999/02/22-rdf-syntax-ns#"
   xmlns:svg="http://www.w3.org/2000/svg"
   xmlns="http://www.w3.org/2000/svg"
   xmlns:sodipodi="http://sodipodi.sourceforge.net/DTD/sodipodi-0.dtd"
   xmlns:inkscape="http://www.inkscape.org/namespaces/inkscape"
   inkscape:version="1.0beta2 (2b71d25, 2019-12-03)"
   sodipodi:docname="broadcast-new.svg"
   id="svg9930"
   width="690.27893"
   viewBox="0 -8 518.00535 517.49998"
   version="1.1"
   height="690">
  <metadata
     id="metadata9936">
    <rdf:RDF>
      <cc:Work
         rdf:about="">
        <dc:format>image/svg+xml</dc:format>
        <dc:type
           rdf:resource="http://purl.org/dc/dcmitype/StillImage" />
        <dc:title></dc:title>
      </cc:Work>
    </rdf:RDF>
  </metadata>
  <defs
     id="defs9934" />
  <sodipodi:namedview
     inkscape:current-layer="svg9930"
     inkscape:window-maximized="0"
     inkscape:window-y="22"
     inkscape:window-x="0"
     inkscape:cy="334.27209"
     inkscape:cx="34.693628"
     inkscape:zoom="0.40078585"
     fit-margin-bottom="0"
     fit-margin-right="0"
     fit-margin-left="0"
     fit-margin-top="0"
     units="px"
     showgrid="false"
     id="namedview9932"
     inkscape:window-height="746"
     inkscape:window-width="1347"
     inkscape:pageshadow="2"
     inkscape:pageopacity="0"
     guidetolerance="10"
     gridtolerance="10"
     objecttolerance="10"
     borderopacity="1"
     inkscape:document-rotation="0"
     bordercolor="#666666"
     pagecolor="#ffffff" />
  <g
     transform="translate(0,7.499845)"
     id="g10508">
    <path
       inkscape:connector-curvature="0"
       id="path9919"
       style="fill:#EEEEEE;fill-opacity:1;fill-rule:nonzero;stroke:#EEEEEE;stroke-width:9.00515;stroke-miterlimit:4;stroke-dasharray:none;stroke-opacity:1"
       d="M 432.68226,110.4519 H 150.29163 L 385.77601,16.744868 c 5.42968,-2.15625 8.07031,-8.3046881 5.91797,-13.7343751 -2.15625,-5.429688 -8.30469,-8.070313 -13.73438,-5.917969 L 93.350231,110.4519 h -8.027344 c -37.292968,0 -80.8203121,21.12891 -80.8203121,80.82031 v 218.05078 c 0,59.69141 43.5273441,80.82032 80.8203121,80.82032 H 432.68226 c 37.29297,0 80.82031,-21.12891 80.82031,-80.82032 V 191.37768 c 0.10547,-59.69141 -43.21094,-80.92578 -80.82031,-80.92578 z m 59.79687,298.87109 c 0,53.87891 -42.25781,59.69141 -59.6914,59.69141 H 85.322887 c -17.960937,0 -59.691406,-5.8125 -59.691406,-59.69141 V 191.37768 c 0,-53.87891 42.257813,-59.69141 59.691406,-59.69141 H 432.68226 c 17.96093,0 59.6914,5.8125 59.6914,59.69141 z m 0,0" />
    <path
       inkscape:connector-curvature="0"
       id="path9921"
       style="fill:#EEEEEE;fill-opacity:1;fill-rule:nonzero;stroke:#EEEEEE;stroke-width:9.00515;stroke-miterlimit:4;stroke-dasharray:none;stroke-opacity:1"
       d="m 109.09241,247.05346 h 299.82032 c 5.83203,0 10.5664,-4.73437 10.5664,-10.5664 v -60.95704 c 0,-5.83203 -4.73437,-10.5664 -10.5664,-10.5664 H 109.09241 c -5.83202,0 -10.566397,4.73437 -10.566397,10.5664 v 60.95704 c 0,5.83203 4.734377,10.5664 10.566397,10.5664 z m 289.25782,-21.13281 h -74.69141 v -39.82813 h 74.69141 z M 119.65491,186.09252 h 182.875 v 39.82813 h -182.875 z m 0,0" />
    <path
       inkscape:connector-curvature="0"
       id="path9923"
       style="fill:#EEEEEE;fill-opacity:1;fill-rule:nonzero;stroke:#EEEEEE;stroke-width:9.00515;stroke-miterlimit:4;stroke-dasharray:none;stroke-opacity:1"
       d="m 381.33851,282.86596 c -43.29297,0 -78.38672,35.09375 -78.38672,78.38672 0,43.29688 35.09375,78.39063 78.38672,78.39063 43.29687,0 78.39062,-35.09375 78.39062,-78.39063 0,-43.29297 -35.09765,-78.38672 -78.39062,-78.38672 z m 0,135.64844 c -31.61719,0 -57.25782,-25.64063 -57.25782,-57.26172 0,-31.61719 25.64063,-57.25781 57.25782,-57.25781 31.62109,0 57.26172,25.64062 57.26172,57.25781 -0.0625,31.60156 -25.66407,57.19922 -57.26172,57.26172 z m 0,0" />
    <path
       inkscape:connector-curvature="0"
       id="path9927"
       style="fill:#EEEEEE;fill-opacity:1;fill-rule:nonzero;stroke:#EEEEEE;stroke-width:9.00515;stroke-miterlimit:4;stroke-dasharray:none;stroke-opacity:1"
       d="m 124.30335,356.0769 c -22.34374,0 -40.460931,18.12109 -40.460931,40.46094 0,22.34765 18.117191,40.46484 40.460931,40.46484 22.34375,0 40.46094,-18.12109 40.46094,-40.46484 0.004,-22.35157 -18.11719,-40.46094 -40.46094,-40.46094 z m 0,59.69141 c -10.67969,0 -19.33203,-8.65235 -19.33203,-19.33204 0,-10.68359 8.65234,-19.33593 19.33203,-19.33593 10.67969,0 19.33203,8.65234 19.33203,19.33593 0,10.67969 -8.65234,19.33204 -19.33203,19.33204 z m 0,0" />
  </g>
</svg>
