<?xml version="1.0" encoding="UTF-8" standalone="no"?>
<svg
   xmlns:dc="http://purl.org/dc/elements/1.1/"
   xmlns:cc="http://creativecommons.org/ns#"
   xmlns:rdf="http://www.w3.org/1999/02/22-rdf-syntax-ns#"
   xmlns:svg="http://www.w3.org/2000/svg"
   xmlns="http://www.w3.org/2000/svg"
   xml:space="preserve"
   style="enable-background:new 0 0 32 32;"
   viewBox="0 0 32 32"
   y="0px"
   x="0px"
   id="Capa_1"
   version="1.1"><metadata
   id="metadata891"><rdf:RDF><cc:Work
       rdf:about=""><dc:format>image/svg+xml</dc:format><dc:type
         rdf:resource="http://purl.org/dc/dcmitype/StillImage" /><dc:title></dc:title></cc:Work></rdf:RDF></metadata><defs
   id="defs889" />
<g
   style="fill:#EEEEEE;fill-opacity:1"
   id="g854">
	<g
   style="fill:#EEEEEE;fill-opacity:1"
   id="calendar_1_">
		<path
   id="path833"
   d="M29.334,3H25V1c0-0.553-0.447-1-1-1s-1,0.447-1,1v2h-6V1c0-0.553-0.448-1-1-1s-1,0.447-1,1v2H9V1    c0-0.553-0.448-1-1-1S7,0.447,7,1v2H2.667C1.194,3,0,4.193,0,5.666v23.667C0,30.806,1.194,32,2.667,32h26.667    C30.807,32,32,30.806,32,29.333V5.666C32,4.193,30.807,3,29.334,3z M30,29.333C30,29.701,29.701,30,29.334,30H2.667    C2.299,30,2,29.701,2,29.333V5.666C2,5.299,2.299,5,2.667,5H7v2c0,0.553,0.448,1,1,1s1-0.447,1-1V5h6v2c0,0.553,0.448,1,1,1    s1-0.447,1-1V5h6v2c0,0.553,0.447,1,1,1s1-0.447,1-1V5h4.334C29.701,5,30,5.299,30,5.666V29.333z"
   style="fill:#EEEEEE;fill-opacity:1" />
		<rect
   id="rect835"
   height="3"
   width="4"
   style="fill:#EEEEEE;fill-opacity:1"
   y="12"
   x="7" />
		<rect
   id="rect837"
   height="3"
   width="4"
   style="fill:#EEEEEE;fill-opacity:1"
   y="17"
   x="7" />
		<rect
   id="rect839"
   height="3"
   width="4"
   style="fill:#EEEEEE;fill-opacity:1"
   y="22"
   x="7" />
		<rect
   id="rect841"
   height="3"
   width="4"
   style="fill:#EEEEEE;fill-opacity:1"
   y="22"
   x="14" />
		<rect
   id="rect843"
   height="3"
   width="4"
   style="fill:#EEEEEE;fill-opacity:1"
   y="17"
   x="14" />
		<rect
   id="rect845"
   height="3"
   width="4"
   style="fill:#EEEEEE;fill-opacity:1"
   y="12"
   x="14" />
		<rect
   id="rect847"
   height="3"
   width="4"
   style="fill:#EEEEEE;fill-opacity:1"
   y="22"
   x="21" />
		<rect
   id="rect849"
   height="3"
   width="4"
   style="fill:#EEEEEE;fill-opacity:1"
   y="17"
   x="21" />
		<rect
   id="rect851"
   height="3"
   width="4"
   style="fill:#EEEEEE;fill-opacity:1"
   y="12"
   x="21" />
	</g>
</g>
<g
   id="g856">
</g>
<g
   id="g858">
</g>
<g
   id="g860">
</g>
<g
   id="g862">
</g>
<g
   id="g864">
</g>
<g
   id="g866">
</g>
<g
   id="g868">
</g>
<g
   id="g870">
</g>
<g
   id="g872">
</g>
<g
   id="g874">
</g>
<g
   id="g876">
</g>
<g
   id="g878">
</g>
<g
   id="g880">
</g>
<g
   id="g882">
</g>
<g
   id="g884">
</g>
</svg>
