<?xml version="1.0" encoding="UTF-8" standalone="no"?>
<svg
   xmlns:dc="http://purl.org/dc/elements/1.1/"
   xmlns:cc="http://creativecommons.org/ns#"
   xmlns:rdf="http://www.w3.org/1999/02/22-rdf-syntax-ns#"
   xmlns:svg="http://www.w3.org/2000/svg"
   xmlns="http://www.w3.org/2000/svg"
   height="84"
   width="84"
   xml:space="preserve"
   viewBox="0 0 84 84"
   y="0px"
   x="0px"
   id="Layer_1"
   version="1.1"><metadata
   id="metadata1690"><rdf:RDF><cc:Work
       rdf:about=""><dc:format>image/svg+xml</dc:format><dc:type
         rdf:resource="http://purl.org/dc/dcmitype/StillImage" /><dc:title></dc:title></cc:Work></rdf:RDF></metadata><defs
   id="defs1688" />
<path
   style="fill:#EEEEEE;fill-opacity:1"
   id="path1683"
   d="m 41.8,0.03782 c -0.2,0 -0.4,0.1 -0.6,0.1 l -32,14 c -0.7,0.3 -1.2,1.1 -1.2,1.8 0,21.5 1.3,33.9 6.2,43.4 5,9.4 13.4,15.4 26.7,24.3 0.6,0.4 1.5,0.4 2.2,0 13.4,-8.9 21.7,-14.9 26.7,-24.3 4.9,-9.5 6.2,-21.9 6.2,-43.4 0,-0.8 -0.5,-1.6 -1.2,-1.8 l -32,-14 c -0.3,-0.1 -0.6,-0.2 -1,-0.1 z m 0.2,4.1 30,13.1 c 0,20.5 -1.4,32 -5.7,40.3 -4.3,8.1 -11.7,13.7 -24.2,22 -12.5,-8.4 -19.9,-13.9 -24.2,-22 -4.3,-8.3 -5.7,-19.8 -5.7,-40.3 z m 0,16.9 c -2.8,0 -5,2.2 -5,5 l 1,18 c 0,2.2 1.8,4 4,4 2.2,0 4,-1.8 4,-4 l 1,-18 c 0,-2.8 -2.3,-5 -5,-5 z m 0,30 c -2.8,0 -5,2.2 -5,5 0,2.8 2.3,5 5,5 2.7,0 5,-2.2 5,-5 0,-2.8 -2.3,-5 -5,-5 z" />
</svg>
