<?xml version="1.0" encoding="UTF-8" standalone="no"?>
<svg
   xmlns:dc="http://purl.org/dc/elements/1.1/"
   xmlns:cc="http://creativecommons.org/ns#"
   xmlns:rdf="http://www.w3.org/1999/02/22-rdf-syntax-ns#"
   xmlns:svg="http://www.w3.org/2000/svg"
   xmlns="http://www.w3.org/2000/svg"
   xmlns:sodipodi="http://sodipodi.sourceforge.net/DTD/sodipodi-0.dtd"
   xmlns:inkscape="http://www.inkscape.org/namespaces/inkscape"
   inkscape:version="1.0beta2 (2b71d25, 2019-12-03)"
   height="520"
   width="520"
   sodipodi:docname="document-save.svg"
   xml:space="preserve"
   viewBox="0 0 520 520"
   y="0px"
   x="0px"
   id="Layer_1"
   version="1.1"><sodipodi:namedview
   inkscape:current-layer="Layer_1"
   inkscape:window-maximized="0"
   inkscape:window-y="22"
   inkscape:window-x="0"
   inkscape:cy="260"
   inkscape:cx="12.238059"
   inkscape:zoom="0.53125"
   fit-margin-bottom="0"
   fit-margin-right="0"
   fit-margin-left="0"
   fit-margin-top="0"
   showgrid="false"
   id="namedview9288"
   inkscape:window-height="779"
   inkscape:window-width="1356"
   inkscape:pageshadow="2"
   inkscape:pageopacity="0"
   guidetolerance="10"
   gridtolerance="10"
   objecttolerance="10"
   borderopacity="1"
   inkscape:document-rotation="0"
   bordercolor="#666666"
   pagecolor="#ffffff" /><metadata
   id="metadata45167"><rdf:RDF><cc:Work
       rdf:about=""><dc:format>image/svg+xml</dc:format><dc:type
         rdf:resource="http://purl.org/dc/dcmitype/StillImage" /><dc:title></dc:title></cc:Work></rdf:RDF></metadata><defs
   id="defs45165" />






<g
   transform="translate(4,4)"
   style="stroke:#EEEEEE;stroke-width:8;stroke-miterlimit:4;stroke-dasharray:none;stroke-opacity:1"
   id="g9869"><g
     style="fill:#EEEEEE;fill-opacity:1;stroke:#EEEEEE;stroke-width:8;stroke-miterlimit:4;stroke-dasharray:none;stroke-opacity:1"
     id="g45094">
	<g
   style="fill:#EEEEEE;fill-opacity:1;stroke:#EEEEEE;stroke-width:8;stroke-miterlimit:4;stroke-dasharray:none;stroke-opacity:1"
   id="g45092">
		<path
   inkscape:connector-curvature="0"
   style="fill:#EEEEEE;fill-opacity:1;stroke:#EEEEEE;stroke-width:8;stroke-miterlimit:4;stroke-dasharray:none;stroke-opacity:1"
   d="m 354.133,31.695 h -69.486 c -5.051,0 -9.143,4.094 -9.143,9.143 v 98.743 c 0,5.049 4.092,9.143 9.143,9.143 h 69.486 c 5.05,0 9.143,-4.094 9.143,-9.143 V 40.838 c 0,-5.049 -4.092,-9.143 -9.143,-9.143 z m -9.143,98.743 h -51.2 V 49.981 h 51.2 z"
   id="path45090" />
	</g>
</g><g
     style="fill:#EEEEEE;fill-opacity:1;stroke:#EEEEEE;stroke-width:8.67082;stroke-miterlimit:4;stroke-dasharray:none;stroke-opacity:1"
     id="g45100"
     transform="matrix(1,0,0,0.85125507,0,69.992374)">
	<g
   style="fill:#EEEEEE;fill-opacity:1;stroke:#EEEEEE;stroke-width:8.67082;stroke-miterlimit:4;stroke-dasharray:none;stroke-opacity:1"
   id="g45098">
		<path
   inkscape:connector-curvature="0"
   style="fill:#EEEEEE;fill-opacity:1;stroke:#EEEEEE;stroke-width:8.67082;stroke-miterlimit:4;stroke-dasharray:none;stroke-opacity:1"
   d="M 419.327,204.8 H 103.645 c -15.475,0 -28.064,12.589 -28.064,28.064 V 442.49 c 0,15.473 12.589,28.063 28.064,28.063 h 315.683 c 15.473,0 28.063,-12.589 28.063,-28.064 V 232.864 C 447.39,217.389 434.801,204.8 419.327,204.8 Z m 9.778,237.69 c 0,5.391 -4.386,9.778 -9.778,9.778 H 103.645 c -5.392,0 -9.778,-4.386 -9.778,-9.778 V 232.864 c 0,-5.391 4.386,-9.778 9.778,-9.778 h 315.683 c 5.391,0 9.777,4.386 9.777,9.778 z"
   id="path45096" />
	</g>
</g><g
     style="fill:#EEEEEE;fill-opacity:1;stroke:#EEEEEE;stroke-width:8;stroke-miterlimit:4;stroke-dasharray:none;stroke-opacity:1"
     id="g45112">
	<g
   style="fill:#EEEEEE;fill-opacity:1;stroke:#EEEEEE;stroke-width:8;stroke-miterlimit:4;stroke-dasharray:none;stroke-opacity:1"
   id="g45110">
		<path
   inkscape:connector-curvature="0"
   style="fill:#EEEEEE;fill-opacity:1;stroke:#EEEEEE;stroke-width:8;stroke-miterlimit:4;stroke-dasharray:none;stroke-opacity:1"
   d="M 401.067,299.886 H 121.905 c -5.051,0 -9.143,4.094 -9.143,9.143 0,5.049 4.092,9.143 9.143,9.143 h 279.162 c 5.05,0 9.143,-4.094 9.143,-9.143 0,-5.05 -4.093,-9.143 -9.143,-9.143 z"
   id="path45108" />
	</g>
</g><g
     style="fill:#EEEEEE;fill-opacity:1;stroke:#EEEEEE;stroke-width:8;stroke-miterlimit:4;stroke-dasharray:none;stroke-opacity:1"
     id="g45118">
	<g
   style="fill:#EEEEEE;fill-opacity:1;stroke:#EEEEEE;stroke-width:8;stroke-miterlimit:4;stroke-dasharray:none;stroke-opacity:1"
   id="g45116">
		<path
   inkscape:connector-curvature="0"
   style="fill:#EEEEEE;fill-opacity:1;stroke:#EEEEEE;stroke-width:8;stroke-miterlimit:4;stroke-dasharray:none;stroke-opacity:1"
   d="M 401.067,343.771 H 121.905 c -5.051,0 -9.143,4.094 -9.143,9.143 0,5.049 4.092,9.143 9.143,9.143 h 279.162 c 5.05,0 9.143,-4.094 9.143,-9.143 0,-5.049 -4.093,-9.143 -9.143,-9.143 z"
   id="path45114" />
	</g>
</g><g
     style="fill:#EEEEEE;fill-opacity:1;stroke:#EEEEEE;stroke-width:8;stroke-miterlimit:4;stroke-dasharray:none;stroke-opacity:1"
     id="g45124">
	<g
   style="fill:#EEEEEE;fill-opacity:1;stroke:#EEEEEE;stroke-width:8;stroke-miterlimit:4;stroke-dasharray:none;stroke-opacity:1"
   id="g45122">
		<path
   inkscape:connector-curvature="0"
   style="fill:#EEEEEE;fill-opacity:1;stroke:#EEEEEE;stroke-width:8;stroke-miterlimit:4;stroke-dasharray:none;stroke-opacity:1"
   d="M 494.913,37.705 446.773,1.813 C 445.193,0.636 443.276,0 441.307,0 H 92.315 c -5.051,0 -9.143,4.094 -9.143,9.143 0,5.049 4.092,9.143 9.143,9.143 H 128 v 152.99 c 0,5.049 4.092,9.143 9.143,9.143 h 41.894 c 5.051,0 9.143,-4.094 9.143,-9.143 0,-0.095 -0.011,-0.187 -0.015,-0.28 0.002,-0.094 0.015,-0.187 0.015,-0.28 0,-5.049 -4.092,-9.143 -9.143,-9.143 H 146.688 V 18.286 H 381.562 V 161.573 H 215.608 c -5.051,0 -9.143,4.094 -9.143,9.143 0,0.095 0.011,0.187 0.015,0.28 -0.002,0.094 -0.015,0.186 -0.015,0.28 0,5.049 4.092,9.143 9.143,9.143 h 175.097 c 3.919,0 7.252,-2.47 8.553,-5.934 0.522,-1.151 0.819,-2.423 0.819,-3.769 V 18.286 h 38.196 l 42.032,31.338 v 347.915 c 0,5.049 4.092,9.143 9.143,9.143 5.051,0 9.143,-4.094 9.143,-9.143 V 45.035 c -0.001,-2.886 -1.363,-5.604 -3.678,-7.33 z"
   id="path45120" />
	</g>
</g><g
     style="fill:#EEEEEE;fill-opacity:1;stroke:#EEEEEE;stroke-width:8;stroke-miterlimit:4;stroke-dasharray:none;stroke-opacity:1"
     id="g45130">
	<g
   style="fill:#EEEEEE;fill-opacity:1;stroke:#EEEEEE;stroke-width:8;stroke-miterlimit:4;stroke-dasharray:none;stroke-opacity:1"
   id="g45128">
		<path
   inkscape:connector-curvature="0"
   style="fill:#EEEEEE;fill-opacity:1;stroke:#EEEEEE;stroke-width:8;stroke-miterlimit:4;stroke-dasharray:none;stroke-opacity:1"
   d="m 489.448,424.967 c -5.051,0 -9.143,4.094 -9.143,9.143 v 59.604 H 31.695 V 18.286 h 24.048 c 5.05,0 9.143,-4.094 9.143,-9.143 C 64.886,4.094 60.793,0 55.743,0 H 22.552 c -5.05,0 -9.143,4.094 -9.143,9.143 v 493.714 c 0,5.049 4.092,9.143 9.143,9.143 h 466.895 c 5.051,0 9.143,-4.094 9.143,-9.143 V 434.11 c 0,-5.049 -4.092,-9.143 -9.142,-9.143 z"
   id="path45126" />
	</g>
</g></g>
<g
   transform="translate(-9.409,4)"
   id="g45132"
   style="fill:#EEEEEE;fill-opacity:1">
</g>
<g
   transform="translate(-9.409,4)"
   id="g45134"
   style="fill:#EEEEEE;fill-opacity:1">
</g>
<g
   transform="translate(-9.409,4)"
   id="g45136"
   style="fill:#EEEEEE;fill-opacity:1">
</g>
<g
   transform="translate(-9.409,4)"
   id="g45138"
   style="fill:#EEEEEE;fill-opacity:1">
</g>
<g
   transform="translate(-9.409,4)"
   id="g45140"
   style="fill:#EEEEEE;fill-opacity:1">
</g>
<g
   transform="translate(-9.409,4)"
   id="g45142"
   style="fill:#EEEEEE;fill-opacity:1">
</g>
<g
   transform="translate(-9.409,4)"
   id="g45144"
   style="fill:#EEEEEE;fill-opacity:1">
</g>
<g
   transform="translate(-9.409,4)"
   id="g45146"
   style="fill:#EEEEEE;fill-opacity:1">
</g>
<g
   transform="translate(-9.409,4)"
   id="g45148"
   style="fill:#EEEEEE;fill-opacity:1">
</g>
<g
   transform="translate(-9.409,4)"
   id="g45150"
   style="fill:#EEEEEE;fill-opacity:1">
</g>
<g
   transform="translate(-9.409,4)"
   id="g45152"
   style="fill:#EEEEEE;fill-opacity:1">
</g>
<g
   transform="translate(-9.409,4)"
   id="g45154"
   style="fill:#EEEEEE;fill-opacity:1">
</g>
<g
   transform="translate(-9.409,4)"
   id="g45156"
   style="fill:#EEEEEE;fill-opacity:1">
</g>
<g
   transform="translate(-9.409,4)"
   id="g45158"
   style="fill:#EEEEEE;fill-opacity:1">
</g>
<g
   transform="translate(-9.409,4)"
   id="g45160"
   style="fill:#EEEEEE;fill-opacity:1">
</g>
</svg>
