<?xml version="1.0" encoding="UTF-8" standalone="no"?>
<svg
   xmlns:dc="http://purl.org/dc/elements/1.1/"
   xmlns:cc="http://creativecommons.org/ns#"
   xmlns:rdf="http://www.w3.org/1999/02/22-rdf-syntax-ns#"
   xmlns:svg="http://www.w3.org/2000/svg"
   xmlns="http://www.w3.org/2000/svg"
   xml:space="preserve"
   style="enable-background:new 0 0 315 315;"
   viewBox="0 0 315 315"
   y="0px"
   x="0px"
   id="Layer_1"
   version="1.1"><metadata
   id="metadata7315"><rdf:RDF><cc:Work
       rdf:about=""><dc:format>image/svg+xml</dc:format><dc:type
         rdf:resource="http://purl.org/dc/dcmitype/StillImage" /><dc:title></dc:title></cc:Work></rdf:RDF></metadata><defs
   id="defs7313" />
<g
   style="fill:#EEEEEE;fill-opacity:1"
   id="XMLID_5_">
	<path
   style="fill:#EEEEEE;fill-opacity:1"
   d="M264.467,135.355c-2.688-0.92-5.289-1.773-7.787-2.594C236.855,126.26,230,123.449,230,112.41   c0-9.572,6.799-16.26,16.533-16.26c7.986,0,13.502,3.307,19.039,11.41c2.156,3.158,6.348,4.188,9.721,2.389l19.148-10.205   c1.762-0.938,3.076-2.541,3.652-4.453c0.576-1.91,0.367-3.973-0.582-5.729c-11.123-20.596-27.912-31.037-49.9-31.037   c-16.592,0-30.648,5.227-40.654,15.117c-9.918,9.803-15.16,23.453-15.16,39.471c0,33.607,21.297,47.508,58.063,60.156   c21.045,7.311,25.965,10.137,25.965,21.121c0,13.578-11.727,23.434-27.885,23.434c-0.486,0-0.98-0.008-1.48-0.025   c-17.377-0.607-22.725-9.088-30.789-28.297c-12.947-30.814-28.082-67.734-29.205-70.543c-0.012-0.031-0.025-0.064-0.037-0.096   c-16.416-39.535-49.057-62.209-89.555-62.209C43.457,56.654,0,101.9,0,157.518c0,55.598,43.457,100.828,96.873,100.828   c29.217,0,56.559-13.49,75.016-37.014c1.674-2.133,2.064-5.004,1.025-7.508l-11.541-27.781c-1.125-2.711-3.729-4.514-6.66-4.619   c-2.945-0.105-5.654,1.512-6.971,4.135c-9.977,19.9-29.469,32.262-50.869,32.262c-31.658,0-57.414-27.053-57.414-60.303   c0-33.26,25.756-60.32,57.414-60.32c23.029,0,44.1,14.273,52.432,35.516c0.023,0.055,0.045,0.111,0.068,0.166l28.574,67.982   l3.293,7.617c13.811,33.602,34.273,48.652,66.359,48.797h0.133c38.348,0,67.268-26.699,67.268-62.103   C315,159.674,295.66,145.965,264.467,135.355z"
   id="XMLID_6_" />
</g>
<g
   id="g7280">
</g>
<g
   id="g7282">
</g>
<g
   id="g7284">
</g>
<g
   id="g7286">
</g>
<g
   id="g7288">
</g>
<g
   id="g7290">
</g>
<g
   id="g7292">
</g>
<g
   id="g7294">
</g>
<g
   id="g7296">
</g>
<g
   id="g7298">
</g>
<g
   id="g7300">
</g>
<g
   id="g7302">
</g>
<g
   id="g7304">
</g>
<g
   id="g7306">
</g>
<g
   id="g7308">
</g>
</svg>
