<?xml version="1.0" encoding="UTF-8" standalone="no"?>
<svg
   xmlns:dc="http://purl.org/dc/elements/1.1/"
   xmlns:cc="http://creativecommons.org/ns#"
   xmlns:rdf="http://www.w3.org/1999/02/22-rdf-syntax-ns#"
   xmlns:svg="http://www.w3.org/2000/svg"
   xmlns="http://www.w3.org/2000/svg"
   xml:space="preserve"
   enable-background="new 0 0 512 512"
   viewBox="0 0 512 512"
   height="512px"
   width="512px"
   y="0px"
   x="0px"
   id="Layer_1"
   version="1.1"><metadata
     id="metadata9"><rdf:RDF><cc:Work
         rdf:about=""><dc:format>image/svg+xml</dc:format><dc:type
           rdf:resource="http://purl.org/dc/dcmitype/StillImage" /><dc:title></dc:title></cc:Work></rdf:RDF></metadata><defs
     id="defs7" /><path
     style="fill-opacity:1;fill:#EEEEEE"
     id="path2"
     d="M480,0H32C14.313,0,0,14.328,0,32v448c0,17.688,14.313,32,32,32h448c17.688,0,32-14.313,32-32V32  C512,14.328,497.688,0,480,0z M320,32l32,64h-64l-32-64H320z M192,32l32,64h-64l-32-64H192z M32,32h32l32,64H32V32z M480,480H32V128  h448V480z M480,96h-64l-32-64h64l32,32V96z M355.375,289.688c15.75,7.875,15.75,20.75,0,28.625l-166.75,83.375  C172.875,409.563,160,401.594,160,384V224c0-17.594,12.875-25.563,28.625-17.688L355.375,289.688z" /></svg>
