<?xml version="1.0" encoding="UTF-8" standalone="no"?>
<!-- Generator: Adobe Illustrator 24.1.1, SVG Export Plug-In . SVG Version: 6.00 Build 0)  -->

<svg
   version="1.1"
   id="Layer_1"
   x="0px"
   y="0px"
   viewBox="0 0 512 512"
   style="enable-background:new 0 0 512 512;"
   xml:space="preserve"
   sodipodi:docname="padlock.svg"
   inkscape:version="1.1.1 (3bf5ae0d25, 2021-09-20)"
   xmlns:inkscape="http://www.inkscape.org/namespaces/inkscape"
   xmlns:sodipodi="http://sodipodi.sourceforge.net/DTD/sodipodi-0.dtd"
   xmlns="http://www.w3.org/2000/svg"
   xmlns:svg="http://www.w3.org/2000/svg"><sodipodi:namedview
   id="namedview8"
   pagecolor="#ffffff"
   bordercolor="#666666"
   borderopacity="1.0"
   inkscape:pageshadow="2"
   inkscape:pageopacity="0.0"
   inkscape:pagecheckerboard="0"
   showgrid="false"
   inkscape:zoom="1.2304688"
   inkscape:cx="255.59365"
   inkscape:cy="255.59365"
   inkscape:window-width="2560"
   inkscape:window-height="1411"
   inkscape:window-x="0"
   inkscape:window-y="0"
   inkscape:window-maximized="1"
   inkscape:current-layer="Layer_1" /><defs
   id="defs15">
	
	
	
	
</defs>
<path
   d="m 409.6,265.78572 h -34.1 v -68.3 c 0,-66.6 -52.9,-119.500005 -119.5,-119.500005 -66.6,0 -119.5,52.900005 -119.5,119.500005 v 68.3 h -34.1 v -68.3 c 0,-85.3 68.3,-153.600005 153.6,-153.600005 85.3,0 153.6,68.300005 153.6,153.600005 z"
   id="path2"
   style="fill:#eeeeee;fill-opacity:1" /><path
   d="m 392.5,512 h -273 c -29,0 -51.2,-19.0873 -51.2,-44.02116 V 291.89418 c 0,-24.93386 22.2,-44.02116 51.2,-44.02116 h 273.1 c 29,0 51.2,19.0873 51.2,44.02116 V 467.97884 C 443.7,492.9127 421.5,512 392.5,512 Z m -273,-234.8082 c -10.2,0 -17.1,5.84656 -17.1,14.70238 v 176.08466 c 0,8.76984 6.8,14.70238 17.1,14.70238 h 273.1 c 10.2,0 17.1,-5.84656 17.1,-14.70238 V 291.89418 c 0,-8.76984 -6.8,-14.70238 -17.1,-14.70238 z"
   id="path4"
   style="stroke-width:0.927248;fill:#eeeeee;fill-opacity:1" /><circle
   cx="256"
   cy="336.45715"
   r="34.099998"
   id="circle6"
   style="fill:#eeeeee;fill-opacity:1" /><polygon
   points="281.6,409.6 264.5,307.2 247.5,307.2 230.4,409.6 "
   id="polygon8"
   transform="translate(0,29.257143)"
   style="fill:#eeeeee;fill-opacity:1" />
</svg>
