<?xml version="1.0" encoding="UTF-8" standalone="no"?>
<svg
   xmlns:dc="http://purl.org/dc/elements/1.1/"
   xmlns:cc="http://creativecommons.org/ns#"
   xmlns:rdf="http://www.w3.org/1999/02/22-rdf-syntax-ns#"
   xmlns:svg="http://www.w3.org/2000/svg"
   xmlns="http://www.w3.org/2000/svg"
   xml:space="preserve"
   style="enable-background:new 0 0 96 96;"
   viewBox="0 0 96 96"
   y="0px"
   x="0px"
   id="Layer_1"
   version="1.1"><metadata
   id="metadata30979"><rdf:RDF><cc:Work
       rdf:about=""><dc:format>image/svg+xml</dc:format><dc:type
         rdf:resource="http://purl.org/dc/dcmitype/StillImage" /><dc:title></dc:title></cc:Work></rdf:RDF></metadata><defs
   id="defs30977" />
<g
   transform="matrix(1.6216647,0,0,1.6216647,-30.650738,-29.563174)"
   style="stroke:#EEEEEE;stroke-width:2;stroke-miterlimit:4;stroke-dasharray:none;stroke-opacity:1"
   id="XMLID_1_">
	<path
   style="stroke:#EEEEEE;stroke-width:2;stroke-miterlimit:4;stroke-dasharray:none;stroke-opacity:1"
   d="m 48.9,61 v 0.9 c 1.7,0 3.1,0.7 4.2,1.8 1.1,1.1 1.8,2.6 1.8,4.2 0,1.7 -0.7,3.1 -1.8,4.2 -1.1,1.1 -2.6,1.8 -4.2,1.8 -1.7,0 -3.1,-0.7 -4.2,-1.8 -1.1,-1.1 -1.8,-2.6 -1.8,-4.2 0,-1.7 0.7,-3.1 1.8,-4.2 1.1,-1.1 2.6,-1.8 4.2,-1.8 V 61 60.1 c -4.2,0 -7.7,3.4 -7.7,7.7 0,4.2 3.4,7.7 7.7,7.7 4.2,0 7.7,-3.4 7.7,-7.7 0,-4.2 -3.4,-7.7 -7.7,-7.7 z"
   id="XMLID_3_" />
	<polygon
   style="stroke:#EEEEEE;stroke-width:2;stroke-miterlimit:4;stroke-dasharray:none;stroke-opacity:1"
   points="55.4,37.9 55.9,39.6 73.6,34.3 73.6,20.5 54.8,26.1 54.8,67.8 56.5,67.8 56.5,27.4 71.9,22.8 71.9,33 "
   id="XMLID_4_" />
	<polyline
   style="stroke:#EEEEEE;stroke-width:2;stroke-miterlimit:4;stroke-dasharray:none;stroke-opacity:1"
   points="22.4,35.3 51.4,35.3 51.4,33.6 22.4,33.6  "
   id="XMLID_5_" />
	<polyline
   style="stroke:#EEEEEE;stroke-width:2;stroke-miterlimit:4;stroke-dasharray:none;stroke-opacity:1"
   points="22.4,43.9 51.4,43.9 51.4,42.2 22.4,42.2  "
   id="XMLID_6_" />
	<polyline
   style="stroke:#EEEEEE;stroke-width:2;stroke-miterlimit:4;stroke-dasharray:none;stroke-opacity:1"
   points="22.4,52.4 51.4,52.4 51.4,50.7 22.4,50.7  "
   id="XMLID_7_" />
</g>
</svg>
