<?xml version="1.0" encoding="UTF-8" standalone="no"?>
<svg
   xmlns:dc="http://purl.org/dc/elements/1.1/"
   xmlns:cc="http://creativecommons.org/ns#"
   xmlns:rdf="http://www.w3.org/1999/02/22-rdf-syntax-ns#"
   xmlns:svg="http://www.w3.org/2000/svg"
   xmlns="http://www.w3.org/2000/svg"
   id="svg40732"
   xml:space="preserve"
   enable-background="new 0 0 1000 1000"
   viewBox="0 0 1000 1000"
   y="0px"
   x="0px"
   version="1.1"><defs
   id="defs40736" />
<metadata
   id="metadata40724"> Svg Vector Icons : http://www.onlinewebfonts.com/icon <rdf:RDF><cc:Work
     rdf:about=""><dc:format>image/svg+xml</dc:format><dc:type
       rdf:resource="http://purl.org/dc/dcmitype/StillImage" /><dc:title></dc:title></cc:Work></rdf:RDF></metadata>
<path
   d="M 907.37329,252.71629 C 851.43951,168.73684 772.81652,107.42108 684.47123,71.155527 683.07283,70.532202 681.90847,69.62758 680.41076,69.066029 669.50787,64.717066 658.428,61.156856 647.51138,57.630848 646.24084,57.199476 644.90637,56.672129 643.63583,56.240757 569.26397,32.730313 491.80819,27.154906 416.0939,38.956478 c -2.03655,0.316547 -4.23635,0.598891 -6.2729,0.915437 -11.99214,2.02946 -23.8633,4.662349 -35.70593,7.548966 -4.24321,1.010368 -8.55034,1.924759 -12.76502,3.188854 -10.10402,2.755392 -20.08707,6.114214 -30.07011,9.473036 -5.47041,1.909405 -11.06867,3.626857 -16.51055,5.789989 -2.70325,1.002691 -5.43502,1.751655 -8.07434,2.850322 -7.15881,2.959562 -13.93408,6.494983 -21.06436,9.708271 -4.85284,2.203966 -9.67028,4.250182 -14.55851,6.611898 -11.56418,5.835364 -22.6101,12.027062 -33.56357,18.568459 -1.98635,1.23548 -4.06516,2.12126 -6.05151,3.35673 -0.39727,0.2471 -0.6313,0.5284 -1.02857,0.77549 -83.0649,51.80073 -147.708042,126.62047 -185.459968,217.56253 -12.147098,29.00164 2.498067,62.37808 32.43851,74.43205 30.004368,12.14994 64.209348,-1.65949 76.292518,-30.75711 29.2478,-70.17868 79.45196,-127.87343 144.09399,-167.26528 9.30046,-5.649 18.69338,-10.94829 28.20728,-15.64415 2.97267,-1.44174 6.00926,-2.7875 8.94653,-4.07149 7.92482,-3.70748 15.97749,-7.22301 24.12262,-10.38883 3.5617,-1.40091 7.31519,-2.51388 10.8415,-3.75704 8.07434,-2.85032 16.37585,-5.57046 24.57117,-7.81736 2.63246,-0.68719 5.32884,-1.2784 7.9613,-1.96559 9.60744,-2.44652 19.20802,-4.48157 28.90105,-6.16691 0.98631,-0.20626 2.03655,-0.31654 2.98747,-0.36505 58.6342,-9.18649 118.51113,-4.4864 174.57028,13.03999 0.32649,0.0684 0.7169,0.23279 1.1073,0.39717 79.06362,25.07154 150.32845,75.76148 199.07419,148.73784 l -72.2039,44.90962 c -1.88703,1.1737 -3.03551,3.2454 -2.77873,5.52894 0.15747,2.34532 1.63459,4.1413 3.65055,5.05919 l 239.78249,102.51454 c 1.7888,0.78771 4.11645,0.69731 5.90416,-0.41462 1.78772,-1.11193 2.9008,-3.02587 2.83579,-5.02148 l 2.75108,-253.3664 c -0.0296,-2.15336 -1.10946,-4.19644 -3.25328,-5.30628 -2.14381,-1.10984 -4.57077,-0.95767 -6.35849,0.15426 z"
   id="path40728"
   style="fill:#eeeeee;fill-opacity:1;stroke:#eeeeee;stroke-width:1.16108;stroke-opacity:1" />
</svg>
