<?xml version="1.0" encoding="UTF-8" standalone="no"?>
<svg
   xmlns:dc="http://purl.org/dc/elements/1.1/"
   xmlns:cc="http://creativecommons.org/ns#"
   xmlns:rdf="http://www.w3.org/1999/02/22-rdf-syntax-ns#"
   xmlns:svg="http://www.w3.org/2000/svg"
   xmlns="http://www.w3.org/2000/svg"
   xmlns:xlink="http://www.w3.org/1999/xlink"
   id="Capa_1"
   style="enable-background:new 0 0 40.007 40.007;"
   xml:space="preserve"
   height="40.007px"
   viewBox="0 0 40.007 40.007"
   width="40.007px"
   version="1.1"
   y="0px"
   x="0px"><defs
     id="defs9"><linearGradient
       id="linearGradient4883"><stop
         id="stop4879"
         offset="0"
         style="stop-color:#fff663;stop-opacity:1" /><stop
         id="stop4881"
         offset="1"
         style="stop-color:#fb8626;stop-opacity:1" /></linearGradient><linearGradient
       gradientTransform="matrix(1,0,0,-1,0,40.007036)"
       gradientUnits="userSpaceOnUse"
       y2="1.5405509e-05"
       x2="20.132015"
       y1="40.007015"
       x1="20.196337"
       id="linearGradient4885"
       xlink:href="#linearGradient4883" /></defs><metadata
     id="metadata42"><rdf:RDF><cc:Work
         rdf:about=""><dc:format>image/svg+xml</dc:format><dc:type
           rdf:resource="http://purl.org/dc/dcmitype/StillImage" /><dc:title></dc:title></cc:Work></rdf:RDF></metadata><path
     id="path6"
     d="M 37.324,10.004 C 31.802,0.4380003 19.569,-2.8399997 10.004,2.6830003 0.438,8.2050003 -2.84,20.438 2.684,30.004 c 5.522,9.565 17.754,12.843 27.32,7.32 9.565,-5.523 12.844,-17.755 7.32,-27.32 z m -9.32,23.855 C 20.352,38.277 10.566,35.656 6.148,28.004 1.73,20.351 4.352,10.566 12.004,6.1480003 c 7.652,-4.419 17.438,-1.797 21.856,5.8559997 4.418,7.652 1.796,17.437 -5.856,21.855 z M 21.418,15.418 c -0.391,-0.391 -0.902,-0.586 -1.414,-0.586 -0.512,0 -1.023,0.195 -1.414,0.586 l -5.657,5.656 c -0.781,0.781 -0.781,2.048 0,2.829 v -10e-4 c 0.781,0.781 2.048,0.781 2.828,0 l 4.243,-4.242 4.242,4.242 c 0.781,0.781 2.048,0.781 2.828,0 v 10e-4 c 0.781,-0.781 0.781,-2.048 0,-2.829 z"
     style="fill:url(#linearGradient4885);fill-opacity:1;stroke:none" /></svg>
