<?xml version="1.0" encoding="UTF-8" standalone="no"?>
<svg
   xmlns:dc="http://purl.org/dc/elements/1.1/"
   xmlns:cc="http://creativecommons.org/ns#"
   xmlns:rdf="http://www.w3.org/1999/02/22-rdf-syntax-ns#"
   xmlns:svg="http://www.w3.org/2000/svg"
   xmlns="http://www.w3.org/2000/svg"
   xmlns:xlink="http://www.w3.org/1999/xlink"
   version="1.1"
   id="Capa_1"
   x="0px"
   y="0px"
   viewBox="0 0 32 32"
   style="enable-background:new 0 0 32 32;"
   xml:space="preserve"><metadata
   id="metadata891"><rdf:RDF><cc:Work
       rdf:about=""><dc:format>image/svg+xml</dc:format><dc:type
         rdf:resource="http://purl.org/dc/dcmitype/StillImage" /><dc:title></dc:title></cc:Work></rdf:RDF></metadata><defs
   id="defs889"><linearGradient
     id="linearGradient869"><stop
       id="stop865"
       offset="0"
       style="stop-color:#fff663;stop-opacity:1" /><stop
       id="stop867"
       offset="1"
       style="stop-color:#fb8626;stop-opacity:1" /></linearGradient><linearGradient
     gradientUnits="userSpaceOnUse"
     y2="31.950617"
     x2="16.790123"
     y1="0.19753087"
     x1="16.444445"
     id="linearGradient871"
     xlink:href="#linearGradient869" /></defs>
<g
   id="g854"
   style="fill:url(#linearGradient871);fill-opacity:1">
	<g
   id="calendar_1_"
   style="fill:url(#linearGradient871);fill-opacity:1">
		<path
   style="fill:url(#linearGradient871);fill-opacity:1"
   d="M29.334,3H25V1c0-0.553-0.447-1-1-1s-1,0.447-1,1v2h-6V1c0-0.553-0.448-1-1-1s-1,0.447-1,1v2H9V1    c0-0.553-0.448-1-1-1S7,0.447,7,1v2H2.667C1.194,3,0,4.193,0,5.666v23.667C0,30.806,1.194,32,2.667,32h26.667    C30.807,32,32,30.806,32,29.333V5.666C32,4.193,30.807,3,29.334,3z M30,29.333C30,29.701,29.701,30,29.334,30H2.667    C2.299,30,2,29.701,2,29.333V5.666C2,5.299,2.299,5,2.667,5H7v2c0,0.553,0.448,1,1,1s1-0.447,1-1V5h6v2c0,0.553,0.448,1,1,1    s1-0.447,1-1V5h6v2c0,0.553,0.447,1,1,1s1-0.447,1-1V5h4.334C29.701,5,30,5.299,30,5.666V29.333z"
   id="path833" />
		<rect
   x="7"
   y="12"
   style="fill:url(#linearGradient871);fill-opacity:1"
   width="4"
   height="3"
   id="rect835" />
		<rect
   x="7"
   y="17"
   style="fill:url(#linearGradient871);fill-opacity:1"
   width="4"
   height="3"
   id="rect837" />
		<rect
   x="7"
   y="22"
   style="fill:url(#linearGradient871);fill-opacity:1"
   width="4"
   height="3"
   id="rect839" />
		<rect
   x="14"
   y="22"
   style="fill:url(#linearGradient871);fill-opacity:1"
   width="4"
   height="3"
   id="rect841" />
		<rect
   x="14"
   y="17"
   style="fill:url(#linearGradient871);fill-opacity:1"
   width="4"
   height="3"
   id="rect843" />
		<rect
   x="14"
   y="12"
   style="fill:url(#linearGradient871);fill-opacity:1"
   width="4"
   height="3"
   id="rect845" />
		<rect
   x="21"
   y="22"
   style="fill:url(#linearGradient871);fill-opacity:1"
   width="4"
   height="3"
   id="rect847" />
		<rect
   x="21"
   y="17"
   style="fill:url(#linearGradient871);fill-opacity:1"
   width="4"
   height="3"
   id="rect849" />
		<rect
   x="21"
   y="12"
   style="fill:url(#linearGradient871);fill-opacity:1"
   width="4"
   height="3"
   id="rect851" />
	</g>
</g>
<g
   id="g856">
</g>
<g
   id="g858">
</g>
<g
   id="g860">
</g>
<g
   id="g862">
</g>
<g
   id="g864">
</g>
<g
   id="g866">
</g>
<g
   id="g868">
</g>
<g
   id="g870">
</g>
<g
   id="g872">
</g>
<g
   id="g874">
</g>
<g
   id="g876">
</g>
<g
   id="g878">
</g>
<g
   id="g880">
</g>
<g
   id="g882">
</g>
<g
   id="g884">
</g>
</svg>
