<?xml version="1.0" encoding="UTF-8" standalone="no"?>
<svg
   xmlns:dc="http://purl.org/dc/elements/1.1/"
   xmlns:cc="http://creativecommons.org/ns#"
   xmlns:rdf="http://www.w3.org/1999/02/22-rdf-syntax-ns#"
   xmlns:svg="http://www.w3.org/2000/svg"
   xmlns="http://www.w3.org/2000/svg"
   xmlns:xlink="http://www.w3.org/1999/xlink"
   version="1.1"
   x="0px"
   y="0px"
   viewBox="0 0 1000 1000"
   enable-background="new 0 0 1000 1000"
   xml:space="preserve"
   id="svg1038"><defs
   id="defs1042"><linearGradient
     id="linearGradient1541"><stop
       id="stop1537"
       offset="0"
       style="stop-color:#fff663;stop-opacity:1" /><stop
       id="stop1539"
       offset="1"
       style="stop-color:#fb8626;stop-opacity:1" /></linearGradient><linearGradient
     gradientUnits="userSpaceOnUse"
     y2="43.40818"
     x2="678.61932"
     y1="919.15668"
     x1="685.15265"
     id="linearGradient1543"
     xlink:href="#linearGradient1541" /></defs>
<metadata
   id="metadata1022"> Svg Vector Icons : http://www.onlinewebfonts.com/icon <rdf:RDF><cc:Work
     rdf:about=""><dc:format>image/svg+xml</dc:format><dc:type
       rdf:resource="http://purl.org/dc/dcmitype/StillImage" /><dc:title></dc:title></cc:Work></rdf:RDF></metadata>
<g
   id="g1036"
   style="fill:url(#linearGradient1543);fill-opacity:1"><g
     transform="translate(0.000000,511.000000) scale(0.100000,-0.100000)"
     id="g1034"
     style="fill:url(#linearGradient1543);fill-opacity:1"><path
       d="M231.5,4309.3C89.8,4238.4,100.2,4565.7,100.2,110c0-4466.2-10.4-4130.4,135.5-4199.3c62.6-29.2,531.7-33.3,4764.3-33.3c4232.6,0,4701.7,4.2,4764.3,33.3c146,68.8,135.5-266.9,135.5,4199.3s10.4,4130.5-135.5,4199.3c-62.5,29.2-531.7,33.4-4768.5,33.4C773.6,4342.6,292,4338.5,231.5,4309.3z M1434.6,110v-3773.9H996.7H558.9V110v3773.9h437.9h437.9V110z M9441.1,110v-3773.9H5667.2H1893.3V110v3773.9h3773.9h3773.9V110z"
       id="path1024"
       style="fill:url(#linearGradient1543);fill-opacity:1" /><path
       d="M5344,3433.5C3865.8,3275.1,2681.4,2190.9,2389.5,729.3c-66.7-335.7-66.7-902.8,0-1238.5c271.1-1357.4,1301.1-2387.4,2658.4-2658.4c335.7-66.7,902.8-66.7,1238.5,0c1355.3,271.1,2387.4,1303.1,2658.4,2658.4c66.7,335.7,66.7,902.8,0,1238.5C8673.8,2082.4,7637.6,3120.8,6299,3383.5C6080,3427.3,5544.2,3454.4,5344,3433.5z M6178,2954c385.7-73,767.3-227.3,1105.1-448.3c210.6-137.6,631.8-558.8,771.5-769.4c333.6-500.4,496.2-1032.1,496.2-1615.9c0-598.4-158.4-1123.8-487.9-1626.3c-143.9-216.8-563-635.9-779.8-779.8c-502.5-329.4-1027.9-487.9-1626.3-487.9c-583.8,0-1115.5,162.6-1615.9,496.2c-210.6,139.7-631.8,560.9-769.4,771.5C2942.1-1003.4,2781.5-478,2783.6,110c0,479.6,87.6,850.7,298.2,1282.3c437.9,888.2,1309.4,1490.8,2314.4,1597.1C5596.3,3010.3,5963.3,2993.6,6178,2954z"
       id="path1026"
       style="fill:url(#linearGradient1543);fill-opacity:1" /><path
       d="M5333.6,1167.1c-367-125.1-631.7-398.2-738.1-763.1c-43.8-148-43.8-440,0-588c54.2-181.4,156.4-354.5,289.8-487.9c433.7-433.7,1130.1-433.7,1563.8,0c598.4,598.4,331.5,1613.8-487.9,1853.6C5790.2,1231.7,5502.5,1225.5,5333.6,1167.1z M5871.5,743.8c158.5-52.1,291.9-164.7,377.4-321.1c68.8-125.1,75.1-148,75.1-312.8c-2.1-160.5-8.3-189.7-70.9-308.6c-79.2-145.9-145.9-210.6-302.3-291.9c-89.7-45.9-133.4-54.2-283.6-56.3c-164.7,0-185.6,4.2-312.8,75c-287.7,158.5-421.2,485.8-321.1,784C5154.3,666.7,5521.3,856.4,5871.5,743.8z"
       id="path1028"
       style="fill:url(#linearGradient1543);fill-opacity:1" /><path
       d="M5615.1,322.7c-202.3-48-231.4-333.6-39.6-412.8c93.8-39.6,173-22.9,243.9,50c75.1,79.2,87.6,152.2,45.9,241.9C5817.3,301.8,5719.3,347.7,5615.1,322.7z"
       id="path1030"
       style="fill:url(#linearGradient1543);fill-opacity:1" /><path
       d="M7800.2,310.2c-91.7-41.7-123-116.8-139.7-335.7c-35.4-504.6-221-907-585.9-1271.9c-364.9-364.9-767.3-550.5-1271.9-585.9c-223.1-16.7-294-48-335.7-148c-41.7-95.9-20.8-179.3,60.4-248.1c64.6-54.2,70.9-54.2,296.1-43.8c565,27.1,1096.7,258.6,1520,661c460.8,435.8,727.7,1009.2,756.9,1618l12.5,231.4l-60.5,64.6C7981.6,331,7892,349.8,7800.2,310.2z"
       id="path1032"
       style="fill:url(#linearGradient1543);fill-opacity:1" /></g></g>
</svg>
