<?xml version="1.0" encoding="UTF-8" standalone="no"?>
<svg
   xmlns:dc="http://purl.org/dc/elements/1.1/"
   xmlns:cc="http://creativecommons.org/ns#"
   xmlns:rdf="http://www.w3.org/1999/02/22-rdf-syntax-ns#"
   xmlns:svg="http://www.w3.org/2000/svg"
   xmlns="http://www.w3.org/2000/svg"
   xmlns:xlink="http://www.w3.org/1999/xlink"
   version="1.1"
   id="Layer_1"
   x="0px"
   y="0px"
   viewBox="0 0 520 520"
   xml:space="preserve"
   width="520"
   height="520"><metadata
   id="metadata45167"><rdf:RDF><cc:Work
       rdf:about=""><dc:format>image/svg+xml</dc:format><dc:type
         rdf:resource="http://purl.org/dc/dcmitype/StillImage" /><dc:title></dc:title></cc:Work></rdf:RDF></metadata><defs
   id="defs45165"><linearGradient
     id="linearGradient3850"><stop
       id="stop3846"
       offset="0"
       style="stop-color:#fff663;stop-opacity:1" /><stop
       id="stop3848"
       offset="1"
       style="stop-color:#fb8626;stop-opacity:1" /></linearGradient><linearGradient
     gradientUnits="userSpaceOnUse"
     y2="513.88232"
     x2="274.82629"
     y1="0"
     x1="267.29135"
     id="linearGradient3852"
     xlink:href="#linearGradient3850" /><linearGradient
     gradientUnits="userSpaceOnUse"
     y2="513.88232"
     x2="274.82629"
     y1="0"
     x1="267.29135"
     id="linearGradient3860"
     xlink:href="#linearGradient3850" /></defs>






<g
   id="g9869"
   style="stroke:url(#linearGradient3860);stroke-width:8;stroke-miterlimit:4;stroke-dasharray:none;stroke-opacity:1;fill-opacity:1;fill:url(#linearGradient3852)"
   transform="translate(4,4)"><g
     id="g45094"
     style="fill:url(#linearGradient3852);fill-opacity:1;stroke:url(#linearGradient3860);stroke-width:8;stroke-miterlimit:4;stroke-dasharray:none;stroke-opacity:1">
	<g
   id="g45092"
   style="fill:url(#linearGradient3852);fill-opacity:1;stroke:url(#linearGradient3860);stroke-width:8;stroke-miterlimit:4;stroke-dasharray:none;stroke-opacity:1">
		<path
   id="path45090"
   d="m 354.133,31.695 h -69.486 c -5.051,0 -9.143,4.094 -9.143,9.143 v 98.743 c 0,5.049 4.092,9.143 9.143,9.143 h 69.486 c 5.05,0 9.143,-4.094 9.143,-9.143 V 40.838 c 0,-5.049 -4.092,-9.143 -9.143,-9.143 z m -9.143,98.743 h -51.2 V 49.981 h 51.2 z"
   style="fill:url(#linearGradient3852);fill-opacity:1;stroke:url(#linearGradient3860);stroke-width:8;stroke-miterlimit:4;stroke-dasharray:none;stroke-opacity:1" />
	</g>
</g><g
     transform="matrix(1,0,0,0.85125507,0,69.992374)"
     id="g45100"
     style="fill:url(#linearGradient3852);fill-opacity:1;stroke:url(#linearGradient3860);stroke-width:8.67082;stroke-miterlimit:4;stroke-dasharray:none;stroke-opacity:1">
	<g
   id="g45098"
   style="fill:url(#linearGradient3852);fill-opacity:1;stroke:url(#linearGradient3860);stroke-width:8.67082;stroke-miterlimit:4;stroke-dasharray:none;stroke-opacity:1">
		<path
   id="path45096"
   d="M 419.327,204.8 H 103.645 c -15.475,0 -28.064,12.589 -28.064,28.064 V 442.49 c 0,15.473 12.589,28.063 28.064,28.063 h 315.683 c 15.473,0 28.063,-12.589 28.063,-28.064 V 232.864 C 447.39,217.389 434.801,204.8 419.327,204.8 Z m 9.778,237.69 c 0,5.391 -4.386,9.778 -9.778,9.778 H 103.645 c -5.392,0 -9.778,-4.386 -9.778,-9.778 V 232.864 c 0,-5.391 4.386,-9.778 9.778,-9.778 h 315.683 c 5.391,0 9.777,4.386 9.777,9.778 z"
   style="fill:url(#linearGradient3852);fill-opacity:1;stroke:url(#linearGradient3860);stroke-width:8.67082;stroke-miterlimit:4;stroke-dasharray:none;stroke-opacity:1" />
	</g>
</g><g
     id="g45112"
     style="fill:url(#linearGradient3852);fill-opacity:1;stroke:url(#linearGradient3860);stroke-width:8;stroke-miterlimit:4;stroke-dasharray:none;stroke-opacity:1">
	<g
   id="g45110"
   style="fill:url(#linearGradient3852);fill-opacity:1;stroke:url(#linearGradient3860);stroke-width:8;stroke-miterlimit:4;stroke-dasharray:none;stroke-opacity:1">
		<path
   id="path45108"
   d="M 401.067,299.886 H 121.905 c -5.051,0 -9.143,4.094 -9.143,9.143 0,5.049 4.092,9.143 9.143,9.143 h 279.162 c 5.05,0 9.143,-4.094 9.143,-9.143 0,-5.05 -4.093,-9.143 -9.143,-9.143 z"
   style="fill:url(#linearGradient3852);fill-opacity:1;stroke:url(#linearGradient3860);stroke-width:8;stroke-miterlimit:4;stroke-dasharray:none;stroke-opacity:1" />
	</g>
</g><g
     id="g45118"
     style="fill:url(#linearGradient3852);fill-opacity:1;stroke:url(#linearGradient3860);stroke-width:8;stroke-miterlimit:4;stroke-dasharray:none;stroke-opacity:1">
	<g
   id="g45116"
   style="fill:url(#linearGradient3852);fill-opacity:1;stroke:url(#linearGradient3860);stroke-width:8;stroke-miterlimit:4;stroke-dasharray:none;stroke-opacity:1">
		<path
   id="path45114"
   d="M 401.067,343.771 H 121.905 c -5.051,0 -9.143,4.094 -9.143,9.143 0,5.049 4.092,9.143 9.143,9.143 h 279.162 c 5.05,0 9.143,-4.094 9.143,-9.143 0,-5.049 -4.093,-9.143 -9.143,-9.143 z"
   style="fill:url(#linearGradient3852);fill-opacity:1;stroke:url(#linearGradient3860);stroke-width:8;stroke-miterlimit:4;stroke-dasharray:none;stroke-opacity:1" />
	</g>
</g><g
     id="g45124"
     style="fill:url(#linearGradient3852);fill-opacity:1;stroke:url(#linearGradient3860);stroke-width:8;stroke-miterlimit:4;stroke-dasharray:none;stroke-opacity:1">
	<g
   id="g45122"
   style="fill:url(#linearGradient3852);fill-opacity:1;stroke:url(#linearGradient3860);stroke-width:8;stroke-miterlimit:4;stroke-dasharray:none;stroke-opacity:1">
		<path
   id="path45120"
   d="M 494.913,37.705 446.773,1.813 C 445.193,0.636 443.276,0 441.307,0 H 92.315 c -5.051,0 -9.143,4.094 -9.143,9.143 0,5.049 4.092,9.143 9.143,9.143 H 128 v 152.99 c 0,5.049 4.092,9.143 9.143,9.143 h 41.894 c 5.051,0 9.143,-4.094 9.143,-9.143 0,-0.095 -0.011,-0.187 -0.015,-0.28 0.002,-0.094 0.015,-0.187 0.015,-0.28 0,-5.049 -4.092,-9.143 -9.143,-9.143 H 146.688 V 18.286 H 381.562 V 161.573 H 215.608 c -5.051,0 -9.143,4.094 -9.143,9.143 0,0.095 0.011,0.187 0.015,0.28 -0.002,0.094 -0.015,0.186 -0.015,0.28 0,5.049 4.092,9.143 9.143,9.143 h 175.097 c 3.919,0 7.252,-2.47 8.553,-5.934 0.522,-1.151 0.819,-2.423 0.819,-3.769 V 18.286 h 38.196 l 42.032,31.338 v 347.915 c 0,5.049 4.092,9.143 9.143,9.143 5.051,0 9.143,-4.094 9.143,-9.143 V 45.035 c -0.001,-2.886 -1.363,-5.604 -3.678,-7.33 z"
   style="fill:url(#linearGradient3852);fill-opacity:1;stroke:url(#linearGradient3860);stroke-width:8;stroke-miterlimit:4;stroke-dasharray:none;stroke-opacity:1" />
	</g>
</g><g
     id="g45130"
     style="fill:url(#linearGradient3852);fill-opacity:1;stroke:url(#linearGradient3860);stroke-width:8;stroke-miterlimit:4;stroke-dasharray:none;stroke-opacity:1">
	<g
   id="g45128"
   style="fill:url(#linearGradient3852);fill-opacity:1;stroke:url(#linearGradient3860);stroke-width:8;stroke-miterlimit:4;stroke-dasharray:none;stroke-opacity:1">
		<path
   id="path45126"
   d="m 489.448,424.967 c -5.051,0 -9.143,4.094 -9.143,9.143 v 59.604 H 31.695 V 18.286 h 24.048 c 5.05,0 9.143,-4.094 9.143,-9.143 C 64.886,4.094 60.793,0 55.743,0 H 22.552 c -5.05,0 -9.143,4.094 -9.143,9.143 v 493.714 c 0,5.049 4.092,9.143 9.143,9.143 h 466.895 c 5.051,0 9.143,-4.094 9.143,-9.143 V 434.11 c 0,-5.049 -4.092,-9.143 -9.142,-9.143 z"
   style="fill:url(#linearGradient3852);fill-opacity:1;stroke:url(#linearGradient3860);stroke-width:8;stroke-miterlimit:4;stroke-dasharray:none;stroke-opacity:1" />
	</g>
</g></g>
<g
   style="fill:#1e1e1e;fill-opacity:1"
   id="g45132"
   transform="translate(-9.409,4)">
</g>
<g
   style="fill:#1e1e1e;fill-opacity:1"
   id="g45134"
   transform="translate(-9.409,4)">
</g>
<g
   style="fill:#1e1e1e;fill-opacity:1"
   id="g45136"
   transform="translate(-9.409,4)">
</g>
<g
   style="fill:#1e1e1e;fill-opacity:1"
   id="g45138"
   transform="translate(-9.409,4)">
</g>
<g
   style="fill:#1e1e1e;fill-opacity:1"
   id="g45140"
   transform="translate(-9.409,4)">
</g>
<g
   style="fill:#1e1e1e;fill-opacity:1"
   id="g45142"
   transform="translate(-9.409,4)">
</g>
<g
   style="fill:#1e1e1e;fill-opacity:1"
   id="g45144"
   transform="translate(-9.409,4)">
</g>
<g
   style="fill:#1e1e1e;fill-opacity:1"
   id="g45146"
   transform="translate(-9.409,4)">
</g>
<g
   style="fill:#1e1e1e;fill-opacity:1"
   id="g45148"
   transform="translate(-9.409,4)">
</g>
<g
   style="fill:#1e1e1e;fill-opacity:1"
   id="g45150"
   transform="translate(-9.409,4)">
</g>
<g
   style="fill:#1e1e1e;fill-opacity:1"
   id="g45152"
   transform="translate(-9.409,4)">
</g>
<g
   style="fill:#1e1e1e;fill-opacity:1"
   id="g45154"
   transform="translate(-9.409,4)">
</g>
<g
   style="fill:#1e1e1e;fill-opacity:1"
   id="g45156"
   transform="translate(-9.409,4)">
</g>
<g
   style="fill:#1e1e1e;fill-opacity:1"
   id="g45158"
   transform="translate(-9.409,4)">
</g>
<g
   style="fill:#1e1e1e;fill-opacity:1"
   id="g45160"
   transform="translate(-9.409,4)">
</g>
</svg>
