<?xml version="1.0" encoding="UTF-8" standalone="no"?>
<svg
   xmlns:dc="http://purl.org/dc/elements/1.1/"
   xmlns:cc="http://creativecommons.org/ns#"
   xmlns:rdf="http://www.w3.org/1999/02/22-rdf-syntax-ns#"
   xmlns:svg="http://www.w3.org/2000/svg"
   xmlns="http://www.w3.org/2000/svg"
   xmlns:xlink="http://www.w3.org/1999/xlink"
   id="svg4031"
   xml:space="preserve"
   enable-background="new 0 0 1000 1000"
   viewBox="0 0 1000 1000"
   y="0px"
   x="0px"
   version="1.1"><defs
   id="defs4035"><linearGradient
     id="linearGradient9797"><stop
       style="stop-color:#fff663;stop-opacity:1"
       offset="0"
       id="stop9793" /><stop
       style="stop-color:#fb8626;stop-opacity:1"
       offset="1"
       id="stop9795" /></linearGradient><linearGradient
     xlink:href="#linearGradient9797"
     id="linearGradient9799"
     x1="493.53293"
     y1="148.2036"
     x2="500"
     y2="852.20001"
     gradientUnits="userSpaceOnUse" /><linearGradient
     y2="852.20001"
     x2="500"
     y1="148.2036"
     x1="493.53293"
     gradientUnits="userSpaceOnUse"
     id="linearGradient862"
     xlink:href="#linearGradient9797" /><linearGradient
     gradientTransform="matrix(1,0,0,1.1083396,0,-82.370622)"
     y2="852.20001"
     x2="500"
     y1="148.2036"
     x1="493.53293"
     gradientUnits="userSpaceOnUse"
     id="linearGradient864"
     xlink:href="#linearGradient9797" /></defs>
<metadata
   id="metadata3989"> Svg Vector Icons : http://www.onlinewebfonts.com/icon <rdf:RDF><cc:Work
     rdf:about=""><dc:format>image/svg+xml</dc:format><dc:type
       rdf:resource="http://purl.org/dc/dcmitype/StillImage" /><dc:title></dc:title></cc:Work></rdf:RDF></metadata>
<polygon
   transform="translate(1.5432099,120.37037)"
   points="561.3,423.4 438.8,423.4 438.8,668.4 346.9,668.4 500,852.2 653.1,668.4 561.3,668.4 "
   id="polygon3991"
   style="fill:url(#linearGradient862);fill-opacity:1" /><path
   d="M 854.8,360.18939 C 826.4,276.62058 753.7,217.21358 668.4,217.21358 c -19.6,0 -38.6,3.10335 -56.5,8.97755 C 563.3,139.2973 476.5,81.441975 377.5,81.441975 227.3,81.441975 105.1,214.6644 101.9,380.25034 47,415.49554 10,481.44175 10,556.69801 10,669.08365 92.3,760.3 193.8,760.3 h 137.8 l -51.1,-67.94122 h -86.9 c -67.5,0 -122.4,-60.73701 -122.4,-135.7716 0,-64.2837 40.3,-118.14901 94.5,-132.22492 -1.8,-12.19174 -2.7,-24.71598 -2.7,-37.46188 0,-131.22741 96,-237.62802 214.4,-237.62802 96.8,0 178.7,71.15541 205.2,168.91096 23.6,-20.72595 53.3,-33.13935 85.7,-33.13935 70.9,0 129.4,59.407 137,135.7716 h 0.9 c 67.5,0 122.4,60.73701 122.4,135.77161 0,74.81292 -54.8,135.7716 -122.4,135.7716 H 719.3 L 668.2,760.3 H 806 c 101.4,0 183.8,-91.43802 183.8,-203.71282 0.2,-93.76554 -57.1,-172.79015 -135,-196.39779 z"
   id="path3993"
   style="fill:url(#linearGradient864);fill-opacity:1;stroke-width:1.05278" />
</svg>
