<?xml version="1.0" encoding="UTF-8" standalone="no"?>
<svg
   xmlns:dc="http://purl.org/dc/elements/1.1/"
   xmlns:cc="http://creativecommons.org/ns#"
   xmlns:rdf="http://www.w3.org/1999/02/22-rdf-syntax-ns#"
   xmlns:svg="http://www.w3.org/2000/svg"
   xmlns="http://www.w3.org/2000/svg"
   xmlns:xlink="http://www.w3.org/1999/xlink"
   version="1.1"
   id="Layer_1"
   x="0px"
   y="0px"
   viewBox="0 0 64 64"
   enable-background="new 0 0 64 64"
   xml:space="preserve"><metadata
   id="metadata5347"><rdf:RDF><cc:Work
       rdf:about=""><dc:format>image/svg+xml</dc:format><dc:type
         rdf:resource="http://purl.org/dc/dcmitype/StillImage" /><dc:title></dc:title></cc:Work></rdf:RDF></metadata><defs
   id="defs5345"><linearGradient
     id="linearGradient14626"><stop
       id="stop14622"
       offset="0"
       style="stop-color:#fff663;stop-opacity:1" /><stop
       id="stop14624"
       offset="1"
       style="stop-color:#fb8626;stop-opacity:1" /></linearGradient><linearGradient
     gradientUnits="userSpaceOnUse"
     y2="58.730537"
     x2="33.1497"
     y1="5.0778441"
     x1="33.628742"
     id="linearGradient14628"
     xlink:href="#linearGradient14626" /></defs>
<path
   d="M60,11H31.4l-3.2-4.6L28,6.2C27.2,5.4,26.2,5,25.2,5H4C1.8,5,0,6.8,0,9v46c0,2.2,1.8,4,4,4h56c2.2,0,4-1.8,4-4V15  C64,12.8,62.2,11,60,11z M60,55H4V27c0-1.1,0.9-2,2-2h52c1.1,0,2,0.9,2,1.9L60,55z M60,21.3c-0.6-0.2-1.3-0.3-2-0.3H6  c-0.7,0-1.4,0.1-2,0.3V9h21.1l3.2,4.6l0.2,0.3c0.8,0.8,1.8,1.2,2.8,1.2H60L60,21.3z"
   id="path5340"
   style="fill:url(#linearGradient14628);fill-opacity:1" />
</svg>
