<?xml version="1.0" encoding="UTF-8" standalone="no"?>
<svg
   xmlns:dc="http://purl.org/dc/elements/1.1/"
   xmlns:cc="http://creativecommons.org/ns#"
   xmlns:rdf="http://www.w3.org/1999/02/22-rdf-syntax-ns#"
   xmlns:svg="http://www.w3.org/2000/svg"
   xmlns="http://www.w3.org/2000/svg"
   xmlns:xlink="http://www.w3.org/1999/xlink"
   version="1.1"
   id="Capa_1"
   x="0px"
   y="0px"
   viewBox="0 0 200 200"
   style="enable-background:new 0 0 200 200;"
   xml:space="preserve"><metadata
     id="metadata15"><rdf:RDF><cc:Work
         rdf:about=""><dc:format>image/svg+xml</dc:format><dc:type
           rdf:resource="http://purl.org/dc/dcmitype/StillImage" /><dc:title></dc:title></cc:Work></rdf:RDF></metadata><defs
     id="defs13"><linearGradient
       id="linearGradient15945"><stop
         id="stop15941"
         offset="0"
         style="stop-color:#fb8626;stop-opacity:1" /><stop
         id="stop15943"
         offset="1"
         style="stop-color:#fff663;stop-opacity:1" /></linearGradient><linearGradient
       id="linearGradient829"><stop
         style="stop-color:#656565;stop-opacity:1"
         offset="0"
         id="stop825" /><stop
         style="stop-color:#000000;stop-opacity:1"
         offset="1"
         id="stop827" /></linearGradient><radialGradient
       xlink:href="#linearGradient829"
       id="radialGradient831"
       cx="100"
       cy="96.25"
       fx="100"
       fy="96.25"
       r="90.667"
       gradientTransform="matrix(-3.2902386,-0.00934692,0.00282493,-0.99441046,428.75196,192.8967)"
       gradientUnits="userSpaceOnUse" /><linearGradient
       gradientUnits="userSpaceOnUse"
       y2="14.564"
       x2="99.964996"
       y1="178.39294"
       x1="99.520874"
       id="linearGradient15939"
       xlink:href="#linearGradient15945" /></defs><g
     id="g8"
     style="fill-opacity:1;fill:url(#linearGradient15939)"><g
       id="g21986"
       style="fill:url(#linearGradient15939);fill-opacity:1"><path
         style="fill-opacity:1;fill:url(#linearGradient15939)"
         id="path2"
         d="M99.965,14.564C49.991,14.796,9.333,55.641,9.333,105.613c0,15.176,3.805,30.137,11,43.394v-24.072   c0-4.437,1.579-8.552,4.347-12.082c-0.229-2.401-0.347-4.817-0.347-7.24c0-41.74,33.959-75.855,75.632-76.049   c41.742,0.193,75.701,34.309,75.701,76.049c0,2.683-0.149,5.357-0.43,8.013c2.406,3.352,3.764,7.193,3.764,11.309v25.293   c7.631-13.555,11.667-28.973,11.667-44.615C190.667,55.641,150.009,14.796,99.965,14.564z" /><path
         style="fill-opacity:1;fill:url(#linearGradient15939)"
         id="path4"
         d="M25.92,121.048c-0.383,1.255-0.587,2.555-0.587,3.888v23.201v10.799c0,10.493,12.497,19,27.914,19H65v-72H53.247   C39.788,105.936,28.557,112.419,25.92,121.048z" /><path
         style="fill-opacity:1;fill:url(#linearGradient15939)"
         id="path6"
         d="M174,158.936v-11.177v-22.823c0-0.819-0.085-1.625-0.233-2.417c-1.745-9.352-13.468-16.583-27.681-16.583h-11.753v72   h11.753C161.503,177.936,174,169.429,174,158.936z" /></g></g></svg>
