<?xml version="1.0" encoding="UTF-8" standalone="no"?>
<svg
   xmlns:dc="http://purl.org/dc/elements/1.1/"
   xmlns:cc="http://creativecommons.org/ns#"
   xmlns:rdf="http://www.w3.org/1999/02/22-rdf-syntax-ns#"
   xmlns:svg="http://www.w3.org/2000/svg"
   xmlns="http://www.w3.org/2000/svg"
   xmlns:xlink="http://www.w3.org/1999/xlink"
   viewBox="0 0 32 32"
   version="1.1"
   id="svg5978">
  <metadata
     id="metadata5984">
    <rdf:RDF>
      <cc:Work
         rdf:about="">
        <dc:format>image/svg+xml</dc:format>
        <dc:type
           rdf:resource="http://purl.org/dc/dcmitype/StillImage" />
        <dc:title></dc:title>
      </cc:Work>
    </rdf:RDF>
  </metadata>
  <defs
     id="defs5982">
    <linearGradient
       id="linearGradient17231">
      <stop
         id="stop17227"
         offset="0"
         style="stop-color:#fff663;stop-opacity:1" />
      <stop
         id="stop17229"
         offset="1"
         style="stop-color:#fb8626;stop-opacity:1" />
    </linearGradient>
    <linearGradient
       gradientUnits="userSpaceOnUse"
       y2="31.70565"
       x2="15.981695"
       y1="0.29434887"
       x1="15.981695"
       id="linearGradient17233"
       xlink:href="#linearGradient17231" />
  </defs>
  <path
     d="M 15.981695,0.29434888 15.176277,1.0997669 12.101044,4.0651695 7.8909046,3.4794111 6.7559974,3.2963615 6.5729478,4.4312687 5.8407496,8.6414083 2.069929,10.618343 1.0814614,11.167493 1.5573902,12.15596 3.4244956,16 l -1.8671054,3.844041 -0.4759288,0.988468 0.9884676,0.549148 3.7708206,1.976934 0.7321982,4.21014 0.1830496,1.134908 1.1349072,-0.18305 4.2101394,-0.585758 3.075233,2.965402 0.805418,0.805418 0.805418,-0.805418 3.075232,-2.965402 4.21014,0.585758 1.134907,0.18305 0.18305,-1.134908 0.732198,-4.17353 3.770821,-2.013544 1.025078,-0.549148 L 30.406,19.844041 28.538895,16 30.406,12.15596 30.918539,11.167493 29.893461,10.618343 26.12264,8.6047984 25.390442,4.4312687 25.207392,3.2963615 24.072485,3.4794111 19.862345,4.0651695 16.787113,1.0997669 Z m 0,3.25828192 2.672523,2.5993036 0.402709,0.4027091 0.585759,-0.07322 3.62438,-0.5491487 0.65898,3.6609914 0.109832,0.5491488 0.512539,0.292878 3.258282,1.757276 -1.610836,3.294892 L 25.939594,16 l 0.256269,0.512539 1.610836,3.294892 -3.258282,1.757275 -0.512539,0.29288 -0.109832,0.549149 -0.65898,3.66099 -3.62438,-0.549149 -0.585759,-0.07322 -0.402709,0.402708 -2.672523,2.599304 -2.672523,-2.599304 -0.40271,-0.402708 -0.549148,0.07322 L 8.6963226,26.067725 8.0373442,22.406735 7.9275146,21.857586 7.4515857,21.564706 4.1933037,19.844041 5.8041398,16.512539 6.0604092,16 5.8041398,15.487461 4.1933037,12.15596 7.4515857,10.435293 7.9275146,10.142415 8.0373442,9.5932656 8.6963226,5.9322749 l 3.6609914,0.5491488 0.549148,0.073219 0.40271,-0.4027091 z M 8.952592,13.656965 v 4.686069 h 1.171517 v -1.940325 l 1.171518,0.988468 v 0.951857 h 1.171517 v -4.686069 h -1.171517 v 1.940326 l -1.171518,-0.988468 v -0.951858 z m 4.686069,0 v 4.686069 h 3.514551 v -1.171517 h -2.343034 v -0.585759 h 2.086764 v -1.171517 h -2.086764 v -0.585758 h 2.343034 v -1.171518 z m 4.686069,0 v 0.58576 l 1.354566,3.73421 0.183049,0.366099 h 0.842029 l 0.549148,-1.574226 0.439318,1.171517 0.18305,0.402709 h 0.805418 l 1.464397,-3.880651 0.03661,-0.805418 h -1.171518 v 0.47593 L 22.2786,16.146439 21.83928,14.938313 21.619622,14.535604 h -0.805417 l -0.585759,1.610835 -0.732199,-2.013544 v -0.47593 z"
     id="path5976"
     style="stroke-width:1.17152;fill:url(#linearGradient17233);fill-opacity:1" />
</svg>
