<?xml version="1.0" encoding="UTF-8" standalone="no"?>
<svg
   xmlns:dc="http://purl.org/dc/elements/1.1/"
   xmlns:cc="http://creativecommons.org/ns#"
   xmlns:rdf="http://www.w3.org/1999/02/22-rdf-syntax-ns#"
   xmlns:svg="http://www.w3.org/2000/svg"
   xmlns="http://www.w3.org/2000/svg"
   xmlns:xlink="http://www.w3.org/1999/xlink"
   version="1.1"
   id="Layer_1"
   x="0px"
   y="0px"
   viewBox="0 0 96 96"
   style="enable-background:new 0 0 96 96;"
   xml:space="preserve"><metadata
   id="metadata30979"><rdf:RDF><cc:Work
       rdf:about=""><dc:format>image/svg+xml</dc:format><dc:type
         rdf:resource="http://purl.org/dc/dcmitype/StillImage" /><dc:title></dc:title></cc:Work></rdf:RDF></metadata><defs
   id="defs30977"><linearGradient
     id="linearGradient32334"><stop
       id="stop32330"
       offset="0"
       style="stop-color:#fff663;stop-opacity:1" /><stop
       id="stop32332"
       offset="1"
       style="stop-color:#fb8626;stop-opacity:1" /></linearGradient><linearGradient
     gradientUnits="userSpaceOnUse"
     y2="76.630981"
     x2="49.963528"
     y1="19.204964"
     x1="50.581287"
     id="linearGradient32336"
     xlink:href="#linearGradient32334" /></defs>
<g
   id="XMLID_1_"
   style="stroke:url(#linearGradient32336);stroke-width:2;stroke-miterlimit:4;stroke-dasharray:none;stroke-opacity:1"
   transform="matrix(1.6216647,0,0,1.6216647,-30.650738,-29.563174)">
	<path
   id="XMLID_3_"
   d="m 48.9,61 v 0.9 c 1.7,0 3.1,0.7 4.2,1.8 1.1,1.1 1.8,2.6 1.8,4.2 0,1.7 -0.7,3.1 -1.8,4.2 -1.1,1.1 -2.6,1.8 -4.2,1.8 -1.7,0 -3.1,-0.7 -4.2,-1.8 -1.1,-1.1 -1.8,-2.6 -1.8,-4.2 0,-1.7 0.7,-3.1 1.8,-4.2 1.1,-1.1 2.6,-1.8 4.2,-1.8 V 61 60.1 c -4.2,0 -7.7,3.4 -7.7,7.7 0,4.2 3.4,7.7 7.7,7.7 4.2,0 7.7,-3.4 7.7,-7.7 0,-4.2 -3.4,-7.7 -7.7,-7.7 z"
   style="stroke:url(#linearGradient32336);stroke-width:2;stroke-miterlimit:4;stroke-dasharray:none;stroke-opacity:1" />
	<polygon
   id="XMLID_4_"
   points="55.4,37.9 55.9,39.6 73.6,34.3 73.6,20.5 54.8,26.1 54.8,67.8 56.5,67.8 56.5,27.4 71.9,22.8 71.9,33 "
   style="stroke:url(#linearGradient32336);stroke-width:2;stroke-miterlimit:4;stroke-dasharray:none;stroke-opacity:1" />
	<polyline
   id="XMLID_5_"
   points="22.4,35.3 51.4,35.3 51.4,33.6 22.4,33.6  "
   style="stroke:url(#linearGradient32336);stroke-width:2;stroke-miterlimit:4;stroke-dasharray:none;stroke-opacity:1" />
	<polyline
   id="XMLID_6_"
   points="22.4,43.9 51.4,43.9 51.4,42.2 22.4,42.2  "
   style="stroke:url(#linearGradient32336);stroke-width:2;stroke-miterlimit:4;stroke-dasharray:none;stroke-opacity:1" />
	<polyline
   id="XMLID_7_"
   points="22.4,52.4 51.4,52.4 51.4,50.7 22.4,50.7  "
   style="stroke:url(#linearGradient32336);stroke-width:2;stroke-miterlimit:4;stroke-dasharray:none;stroke-opacity:1" />
</g>
</svg>
