<?xml version="1.0" encoding="UTF-8" standalone="no"?>
<svg
   xmlns:dc="http://purl.org/dc/elements/1.1/"
   xmlns:cc="http://creativecommons.org/ns#"
   xmlns:rdf="http://www.w3.org/1999/02/22-rdf-syntax-ns#"
   xmlns:svg="http://www.w3.org/2000/svg"
   xmlns="http://www.w3.org/2000/svg"
   xmlns:xlink="http://www.w3.org/1999/xlink"
   version="1.1"
   x="0px"
   y="0px"
   viewBox="0 0 1000 1000"
   enable-background="new 0 0 1000 1000"
   xml:space="preserve"
   id="svg40732"><defs
   id="defs40736"><linearGradient
     id="linearGradient38800"><stop
       style="stop-color:#fff663;stop-opacity:1"
       offset="0"
       id="stop38796" /><stop
       style="stop-color:#fb8626;stop-opacity:1"
       offset="1"
       id="stop38798" /></linearGradient><linearGradient
     xlink:href="#linearGradient38800"
     id="linearGradient38802"
     x1="515.53442"
     y1="85.379326"
     x2="500.93265"
     y2="913.22363"
     gradientUnits="userSpaceOnUse" /><linearGradient
     xlink:href="#linearGradient38800"
     id="linearGradient38810"
     x1="515.53442"
     y1="85.379326"
     x2="500.93265"
     y2="913.22363"
     gradientUnits="userSpaceOnUse" /><linearGradient
     gradientTransform="matrix(0.99189548,-0.62552455,0.62250342,0.99670934,-305.37415,321.79477)"
     y2="913.22363"
     x2="500.93265"
     y1="85.379326"
     x1="515.53442"
     gradientUnits="userSpaceOnUse"
     id="linearGradient2123"
     xlink:href="#linearGradient38800" /><linearGradient
     gradientTransform="matrix(0.99189548,-0.62552455,0.62250342,0.99670934,-305.37415,321.79477)"
     y2="913.22363"
     x2="500.93265"
     y1="85.379326"
     x1="515.53442"
     gradientUnits="userSpaceOnUse"
     id="linearGradient2125"
     xlink:href="#linearGradient38800" /></defs>
<metadata
   id="metadata40724"> Svg Vector Icons : http://www.onlinewebfonts.com/icon <rdf:RDF><cc:Work
     rdf:about=""><dc:format>image/svg+xml</dc:format><dc:type
       rdf:resource="http://purl.org/dc/dcmitype/StillImage" /><dc:title></dc:title></cc:Work></rdf:RDF></metadata>
<path
   style="fill:url(#linearGradient2123);fill-opacity:1;stroke:url(#linearGradient2125);stroke-width:1.17389;stroke-opacity:1"
   id="path40728"
   d="M 910.52318,249.50883 C 856.05413,162.29676 778.82486,98.190572 691.66301,59.798176 690.28393,59.139663 689.14017,58.193822 687.6619,57.597861 676.90356,52.990334 665.96053,49.193925 655.17895,45.434633 653.92437,44.975462 652.60754,44.41662 651.35296,43.957449 577.89505,18.873515 501.1694,12.243864 425.96653,23.548132 c -2.02278,0.303142 -4.20701,0.569167 -6.22979,0.872309 -11.91302,1.955646 -23.71317,4.534752 -35.48801,7.375752 -4.21864,0.993284 -8.49953,1.886898 -12.69285,3.142077 -10.04962,2.725515 -19.98637,6.074488 -29.92312,9.423462 -5.44585,1.906138 -11.01621,3.612934 -16.43675,5.780966 -2.6918,1.002904 -5.40891,1.743914 -8.03846,2.846489 -7.13207,2.969529 -13.89065,6.537084 -20.99741,9.768508 -4.83703,2.216835 -9.63712,4.271446 -14.51109,6.650504 -11.53336,5.884061 -22.55708,12.141372 -33.49324,18.760247 -1.98379,1.251049 -4.05515,2.140533 -6.03894,3.391582 -0.39676,0.25021 -0.63207,0.537538 -1.02883,0.787748 C 158.12864,144.80385 93.162993,221.20019 54.668729,314.52336 c -12.382905,29.75976 1.745217,64.3346 31.287364,77.10204 29.604397,12.86712 63.677737,-0.97968 75.998387,-30.83911 29.81967,-72.01485 80.26946,-130.92128 144.8186,-170.79469 9.28687,-5.71771 18.66131,-11.07385 28.14863,-15.80653 2.96405,-1.45246 5.99036,-2.80525 8.91748,-4.09548 7.90028,-3.73184 15.92506,-7.26434 24.0374,-10.43528 3.54757,-1.40365 7.28189,-2.50829 10.79252,-3.74972 8.03846,-2.84649 16.30062,-5.55619 24.45195,-7.77922 2.61792,-0.67846 5.2981,-1.25724 7.91602,-1.9357 9.55367,-2.41275 19.09572,-4.40139 28.72532,-6.02846 0.98027,-0.2014 2.02279,-0.30314 2.96612,-0.34232 58.2387,-8.80283 117.54663,-3.2757 172.91916,15.4307 0.32288,0.0742 0.70801,0.24815 1.09314,0.42206 78.0911,26.74671 148.14994,79.81486 195.62164,155.60188 l -72.1108,45.47564 c -1.8846,1.1885 -3.04751,3.31115 -2.81971,5.6682 0.12861,2.4196 1.572,4.28791 3.5599,5.25712 l 236.52257,108.41337 c 1.76421,0.83242 4.07294,0.76574 5.85835,-0.36021 1.78541,-1.12594 2.91138,-3.08637 2.87033,-5.14441 l 5.69831,-261.16646 c -0.004,-2.22026 -1.05074,-4.33878 -3.16314,-5.50733 -2.1124,-1.16856 -4.52032,-1.03932 -6.30573,0.0866 z" />
</svg>
