<?xml version="1.0" encoding="UTF-8" standalone="no"?>
<svg
   xmlns:dc="http://purl.org/dc/elements/1.1/"
   xmlns:cc="http://creativecommons.org/ns#"
   xmlns:rdf="http://www.w3.org/1999/02/22-rdf-syntax-ns#"
   xmlns:svg="http://www.w3.org/2000/svg"
   xmlns="http://www.w3.org/2000/svg"
   xmlns:xlink="http://www.w3.org/1999/xlink"
   id="svg46885"
   xml:space="preserve"
   enable-background="new 0 0 1000 1000"
   viewBox="0 0 1000 1000"
   y="0px"
   x="0px"
   version="1.1"><defs
   id="defs46889"><linearGradient
     id="linearGradient851"><stop
       style="stop-color:#fff663;stop-opacity:1"
       offset="0"
       id="stop847" /><stop
       style="stop-color:#fb8626;stop-opacity:0"
       offset="1"
       id="stop849" /></linearGradient><linearGradient
     xlink:href="#linearGradient851"
     id="linearGradient853"
     x1="26.959423"
     y1="554.47479"
     x2="802.81116"
     y2="6.6852603"
     gradientUnits="userSpaceOnUse" /></defs>
<metadata
   id="metadata46877"> Svg Vector Icons : http://www.onlinewebfonts.com/icon <rdf:RDF><cc:Work
     rdf:about=""><dc:format>image/svg+xml</dc:format><dc:type
       rdf:resource="http://purl.org/dc/dcmitype/StillImage" /><dc:title></dc:title></cc:Work></rdf:RDF></metadata>
<g
   style="stroke:none;stroke-opacity:1;fill-opacity:1;fill:url(#linearGradient853)"
   id="g46883"><g
     style="stroke:none;stroke-opacity:1;fill-opacity:1;fill:url(#linearGradient853)"
     id="g46881"><g
       id="g841"
       style="opacity:1;stroke:none;fill-opacity:1;fill:url(#linearGradient853)"><path
         style="color:#000000;font-style:normal;font-variant:normal;font-weight:normal;font-stretch:normal;font-size:medium;line-height:normal;font-family:sans-serif;font-variant-ligatures:normal;font-variant-position:normal;font-variant-caps:normal;font-variant-numeric:normal;font-variant-alternates:normal;font-variant-east-asian:normal;font-feature-settings:normal;font-variation-settings:normal;text-indent:0;text-align:start;text-decoration:none;text-decoration-line:none;text-decoration-style:solid;text-decoration-color:#000000;letter-spacing:normal;word-spacing:normal;text-transform:none;writing-mode:lr-tb;direction:ltr;text-orientation:mixed;dominant-baseline:auto;baseline-shift:baseline;text-anchor:start;white-space:normal;shape-padding:0;shape-margin:0;inline-size:0;clip-rule:nonzero;display:inline;overflow:visible;visibility:visible;isolation:auto;mix-blend-mode:normal;color-interpolation:sRGB;color-interpolation-filters:linearRGB;solid-color:#000000;solid-opacity:1;vector-effect:none;fill:url(#linearGradient853);fill-opacity:1;fill-rule:nonzero;stroke:none;stroke-width:1;stroke-linecap:butt;stroke-linejoin:miter;stroke-miterlimit:4;stroke-dasharray:none;stroke-dashoffset:0;stroke-opacity:1;anonymous:0;color-rendering:auto;image-rendering:auto;shape-rendering:auto;text-rendering:auto;enable-background:accumulate;stop-color:#000000;stop-opacity:1"
         d="M 500,964.2 C 369.1,964.2 246.1,913.2 153.5,820.7 61,728.1 10,605 10,474.2 10,381.5 36,291.3 85.2,213.2 133.1,137.3 200.7,76 280.8,35.8 L 322,118 c -65.1,32.6 -120.1,82.5 -159,144.2 -40,63.4 -61.1,136.7 -61.1,212 0,219.5 178.6,398.1 398.1,398.1 219.5,0 398.1,-178.6 398.1,-398.1 C 898.1,398.9 877,325.6 837,262.2 798.1,200.5 743.1,150.6 678,118 L 719.2,35.9 C 799.3,76 866.9,137.3 914.8,213.2 964,291.3 990,381.5 990,474.2 990,605.1 939,728.1 846.5,820.7 753.9,913.2 630.9,964.2 500,964.2 Z"
         id="path843" /></g></g></g>
</svg>
