<?xml version="1.0" encoding="UTF-8" standalone="no"?>
<svg
   xmlns:dc="http://purl.org/dc/elements/1.1/"
   xmlns:cc="http://creativecommons.org/ns#"
   xmlns:rdf="http://www.w3.org/1999/02/22-rdf-syntax-ns#"
   xmlns:svg="http://www.w3.org/2000/svg"
   xmlns="http://www.w3.org/2000/svg"
   xmlns:xlink="http://www.w3.org/1999/xlink"
   version="1.1"
   viewBox="0 0 512 512"
   enable-background="new 0 0 512 512"
   id="svg841">
  <metadata
     id="metadata847">
    <rdf:RDF>
      <cc:Work
         rdf:about="">
        <dc:format>image/svg+xml</dc:format>
        <dc:type
           rdf:resource="http://purl.org/dc/dcmitype/StillImage" />
        <dc:title></dc:title>
      </cc:Work>
    </rdf:RDF>
  </metadata>
  <defs
     id="defs845">
    <linearGradient
       id="linearGradient46940">
      <stop
         id="stop46936"
         offset="0"
         style="stop-color:#fb8626;stop-opacity:1" />
      <stop
         id="stop46938"
         offset="1"
         style="stop-color:#fff663;stop-opacity:1" />
    </linearGradient>
    <linearGradient
       gradientUnits="userSpaceOnUse"
       y2="9.1573849"
       x2="243.58702"
       y1="497.46262"
       x1="246.27209"
       id="linearGradient46942"
       xlink:href="#linearGradient46940" />
    <linearGradient
       gradientUnits="userSpaceOnUse"
       y2="9.1573849"
       x2="243.58702"
       y1="497.46262"
       x1="246.27209"
       id="linearGradient46950"
       xlink:href="#linearGradient46940" />
  </defs>
  <g
     id="g839"
     style="fill:url(#linearGradient46942);fill-opacity:1;stroke:url(#linearGradient46950);stroke-opacity:1"
     transform="matrix(-1,0,0,1,512.20718,0)">
    <g
       id="g837"
       style="fill:url(#linearGradient46942);fill-opacity:1;stroke:url(#linearGradient46950);stroke-opacity:1">
      <path
         d="m 121.5,64.2 c -31.7,0 -57.3,25.7 -57.3,57.3 0,31.7 25.7,57.3 57.3,57.3 31.7,0 57.3,-25.7 57.3,-57.3 0.1,-31.7 -25.6,-57.3 -57.3,-57.3 z m 0,94.3 c -20.4,0 -37,-16.6 -37,-37 0,-20.4 16.6,-37 37,-37 20.4,0 37,16.6 37,37 0,20.4 -16.5,37 -37,37 z"
         id="path833"
         style="fill:url(#linearGradient46942);fill-opacity:1;stroke:url(#linearGradient46950);stroke-opacity:1" />
      <path
         d="M 244.5,29.8 C 234.1,18.3 219.5,12.1 203.8,12.1 L 96.5,11 C 73.6,11 51.7,19.3 36,36 19.3,51.7 11,73.6 11,96.5 l 1,107.4 c 1,14.6 6.3,29.2 17.7,40.7 L 286.2,501 501,286.2 Z m 40.7,442 L 43.3,229.9 C 36,222.6 31.8,213.2 31.8,202.8 L 30.8,96.5 C 30.8,79.8 38.1,63.1 49.6,50.6 62.1,38.1 78.8,30.8 96.5,30.8 l 106.3,1 c 10.4,0 19.8,4.2 27.1,11.5 l 241.9,241.9 z"
         id="path835"
         style="fill:url(#linearGradient46942);fill-opacity:1;stroke:url(#linearGradient46950);stroke-opacity:1" />
    </g>
  </g>
</svg>
