<?xml version="1.0" encoding="UTF-8" standalone="no"?>
<svg
   xmlns:dc="http://purl.org/dc/elements/1.1/"
   xmlns:cc="http://creativecommons.org/ns#"
   xmlns:rdf="http://www.w3.org/1999/02/22-rdf-syntax-ns#"
   xmlns:svg="http://www.w3.org/2000/svg"
   xmlns="http://www.w3.org/2000/svg"
   xmlns:xlink="http://www.w3.org/1999/xlink"
   id="svg8"
   version="1.1"
   viewBox="0 0 205.66004 207.89409"
   height="207.89409mm"
   width="205.66005mm">
  <defs
     id="defs2">
    <linearGradient
       id="linearGradient50899">
      <stop
         id="stop50895"
         offset="0"
         style="stop-color:#fff663;stop-opacity:1" />
      <stop
         id="stop50897"
         offset="1"
         style="stop-color:#fb8626;stop-opacity:1" />
    </linearGradient>
    <linearGradient
       gradientUnits="userSpaceOnUse"
       y2="551.15668"
       x2="360.18198"
       y1="58.179581"
       x1="362.40576"
       id="linearGradient50901"
       xlink:href="#linearGradient50899" />
  </defs>
  <metadata
     id="metadata5">
    <rdf:RDF>
      <cc:Work
         rdf:about="">
        <dc:format>image/svg+xml</dc:format>
        <dc:type
           rdf:resource="http://purl.org/dc/dcmitype/StillImage" />
        <dc:title></dc:title>
      </cc:Work>
    </rdf:RDF>
  </metadata>
  <style
     id="style3111"
     type="text/css">
	.st0{fill:#333333;}
</style>
  <style
     id="style2"
     type="text/css">
	.st0{fill:none;}
	.st1{fill:#F4481E;}
	.st2{fill:url(#SVGID_1_);}
	.st3{opacity:0.1;fill:#FFFFFF;enable-background:new    ;}
	.st4{fill:#FFD119;}
	.st5{fill:#FF8C00;}
	.st6{fill:url(#SVGID_2_);}
	.st7{fill:#FAFAFA;}
	.st8{opacity:0.3;fill:#FFFFFF;enable-background:new    ;}
</style>
  <g
     transform="matrix(0.33033581,0,0,0.33033581,1.7470967,2.8641163)"
     id="g1013"
     style="fill-opacity:1;fill:url(#linearGradient50901)">
    <g
       id="g956"
       style="fill-opacity:1;fill:url(#linearGradient50901)">
      <g
         id="g954"
         style="fill-opacity:1;fill:url(#linearGradient50901)">
        <path
           style="fill:url(#linearGradient50901);fill-opacity:1"
           d="m 612,116.258 c -22.525,9.981 -46.694,16.75 -72.088,19.772 25.929,-15.527 45.777,-40.155 55.184,-69.411 -24.322,14.379 -51.169,24.82 -79.775,30.48 -22.907,-24.437 -55.49,-39.658 -91.63,-39.658 -69.334,0 -125.551,56.217 -125.551,125.513 0,9.828 1.109,19.427 3.251,28.606 -104.326,-5.24 -196.835,-55.223 -258.75,-131.174 -10.823,18.51 -16.98,40.078 -16.98,63.101 0,43.559 22.181,81.993 55.835,104.479 C 60.921,247.278 41.57,241.618 24.629,232.21 v 1.568 c 0,60.806 43.291,111.554 100.693,123.104 -10.517,2.83 -21.607,4.398 -33.08,4.398 -8.107,0 -15.947,-0.803 -23.634,-2.333 15.985,49.907 62.336,86.199 117.253,87.194 -42.947,33.654 -97.099,53.655 -155.916,53.655 -10.134,0 -20.116,-0.612 -29.944,-1.721 55.567,35.681 121.536,56.485 192.438,56.485 230.948,0 357.188,-191.291 357.188,-357.188 l -0.421,-16.253 C 573.872,163.526 595.211,141.422 612,116.258 Z"
           id="path952" />
      </g>
    </g>
    <g
       id="g958"
       style="fill-opacity:1;fill:url(#linearGradient50901)" />
    <g
       id="g960"
       style="fill-opacity:1;fill:url(#linearGradient50901)" />
    <g
       id="g962"
       style="fill-opacity:1;fill:url(#linearGradient50901)" />
    <g
       id="g964"
       style="fill-opacity:1;fill:url(#linearGradient50901)" />
    <g
       id="g966"
       style="fill-opacity:1;fill:url(#linearGradient50901)" />
    <g
       id="g968"
       style="fill-opacity:1;fill:url(#linearGradient50901)" />
    <g
       id="g970"
       style="fill-opacity:1;fill:url(#linearGradient50901)" />
    <g
       id="g972"
       style="fill-opacity:1;fill:url(#linearGradient50901)" />
    <g
       id="g974"
       style="fill-opacity:1;fill:url(#linearGradient50901)" />
    <g
       id="g976"
       style="fill-opacity:1;fill:url(#linearGradient50901)" />
    <g
       id="g978"
       style="fill-opacity:1;fill:url(#linearGradient50901)" />
    <g
       id="g980"
       style="fill-opacity:1;fill:url(#linearGradient50901)" />
    <g
       id="g982"
       style="fill-opacity:1;fill:url(#linearGradient50901)" />
    <g
       id="g984"
       style="fill-opacity:1;fill:url(#linearGradient50901)" />
    <g
       id="g986"
       style="fill-opacity:1;fill:url(#linearGradient50901)" />
  </g>
</svg>
