<?xml version="1.0" encoding="UTF-8" standalone="no"?>
<svg
   id="svg8"
   version="1.1"
   viewBox="0 0 205.66004 207.89409"
   height="207.89409mm"
   width="205.66005mm"
   xmlns:xlink="http://www.w3.org/1999/xlink"
   xmlns="http://www.w3.org/2000/svg"
   xmlns:svg="http://www.w3.org/2000/svg"
   xmlns:rdf="http://www.w3.org/1999/02/22-rdf-syntax-ns#"
   xmlns:cc="http://creativecommons.org/ns#"
   xmlns:dc="http://purl.org/dc/elements/1.1/">
  <defs
     id="defs2">
    <linearGradient
       id="linearGradient855">
      <stop
         style="stop-color:#CA91BE;stop-opacity:1;"
         offset="0"
         id="stop851" />
      <stop
         style="stop-color:#BA3E91;stop-opacity:1"
         offset="1"
         id="stop853" />
    </linearGradient>
    <marker
       style="overflow:visible"
       id="marker8033"
       refX="0.0"
       refY="0.0"
       orient="auto">
      <path
         transform="scale(1.1) translate(1,0)"
         d="M 8.7185878,4.0337352 L -2.2072895,0.016013256 L 8.7185884,-4.0017078 C 6.9730900,-1.6296469 6.9831476,1.6157441 8.7185878,4.0337352 z "
         style="fill-rule:evenodd;stroke-width:0.625;stroke-linejoin:round;stroke:#CA91BE;stroke-opacity:1;fill:#CA91BE;fill-opacity:1"
         id="path8031" />
    </marker>
    <marker
       style="overflow:visible"
       id="marker7647"
       refX="0.0"
       refY="0.0"
       orient="auto">
      <path
         transform="scale(1.1) translate(1,0)"
         d="M 8.7185878,4.0337352 L -2.2072895,0.016013256 L 8.7185884,-4.0017078 C 6.9730900,-1.6296469 6.9831476,1.6157441 8.7185878,4.0337352 z "
         style="fill-rule:evenodd;stroke-width:0.625;stroke-linejoin:round;stroke:#CA91BE;stroke-opacity:1;fill:#CA91BE;fill-opacity:1"
         id="path7645" />
    </marker>
    <linearGradient
       xlink:href="#linearGradient855"
       id="linearGradient857"
       x1="103.06612"
       y1="-2.6139251e-06"
       x2="105.23663"
       y2="207.01317"
       gradientUnits="userSpaceOnUse" />
    <linearGradient
       id="linearGradient914">
      <stop
         style="stop-color:#BA3E91;stop-opacity:1"
         offset="0"
         id="stop910" />
      <stop
         style="stop-color:#CA91BE;stop-opacity:1"
         offset="1"
         id="stop912" />
    </linearGradient>
    <linearGradient
       xlink:href="#linearGradient914"
       id="linearGradient916"
       x1="11.353"
       y1="19.093"
       x2="11.354"
       y2="1.373"
       gradientUnits="userSpaceOnUse" />
    <linearGradient
       xlink:href="#linearGradient914"
       id="linearGradient1152"
       gradientUnits="userSpaceOnUse"
       x1="11.353"
       y1="19.093"
       x2="11.354"
       y2="1.373" />
    <linearGradient
       xlink:href="#linearGradient914"
       id="linearGradient1154"
       gradientUnits="userSpaceOnUse"
       x1="11.353"
       y1="19.093"
       x2="11.354"
       y2="1.373" />
  </defs>
  <metadata
     id="metadata5">
    <rdf:RDF>
      <cc:Work
         rdf:about="">
        <dc:format>image/svg+xml</dc:format>
        <dc:type
           rdf:resource="http://purl.org/dc/dcmitype/StillImage" />
      </cc:Work>
    </rdf:RDF>
  </metadata>
  <ellipse
     style="opacity:1;fill:none;fill-opacity:1;stroke:url(#linearGradient857);stroke-width:18;stroke-linecap:round;stroke-linejoin:miter;stroke-miterlimit:4;stroke-dasharray:none;stroke-opacity:1"
     id="path815"
     cx="102.83002"
     cy="103.94704"
     rx="93.830025"
     ry="94.947044" />
  <style
     id="stylebodge1"
     type="text/css">[id^=&quot;polygon&quot;]{fill:#CA91BE;fill-opacity:1}</style>
  <style
     id="stylebodge2"
     type="text/css">[id^=&quot;path&quot;]{fill:#CA91BE;fill-opacity:1}</style>
  <g
     id="c90_rewind"
     style="fill:url(#linearGradient916);fill-opacity:1"
     transform="matrix(-6.1099405,0,0,6.1099405,174.86663,39.250671)">
		<path
   style="fill:url(#linearGradient1152);fill-opacity:1"
   d="M 11.354,1.373 C 11.213,1.304 11.05,1.324 10.929,1.417 L 0.152,9.918 C 0.059,9.996 0,10.11 0,10.231 c 0,0.121 0.059,0.24 0.152,0.316 l 10.776,8.5 c 0.073,0.057 0.163,0.086 0.249,0.086 l 0.176,-0.04 c 0.138,-0.064 0.225,-0.205 0.225,-0.36 v -17 c 0,-0.151 -0.087,-0.295 -0.224,-0.36 z"
   id="path2" />

		<path
   style="fill:url(#linearGradient1154);fill-opacity:1"
   d="M 20.242,1.373 C 20.1,1.304 19.937,1.324 19.816,1.417 L 9.039,9.918 c -0.094,0.078 -0.152,0.192 -0.152,0.313 0,0.121 0.059,0.24 0.152,0.316 l 10.777,8.5 c 0.072,0.057 0.162,0.086 0.248,0.086 l 0.178,-0.04 c 0.137,-0.064 0.223,-0.205 0.223,-0.36 v -17 c 0,-0.151 -0.086,-0.295 -0.223,-0.36 z"
   id="path4" />

	</g>
</svg>
