<?xml version="1.0" encoding="UTF-8" standalone="no"?>
<svg
   xmlns:dc="http://purl.org/dc/elements/1.1/"
   xmlns:cc="http://creativecommons.org/ns#"
   xmlns:rdf="http://www.w3.org/1999/02/22-rdf-syntax-ns#"
   xmlns:svg="http://www.w3.org/2000/svg"
   xmlns="http://www.w3.org/2000/svg"
   xmlns:xlink="http://www.w3.org/1999/xlink"
   xmlns:sodipodi="http://sodipodi.sourceforge.net/DTD/sodipodi-0.dtd"
   xmlns:inkscape="http://www.inkscape.org/namespaces/inkscape"
   id="svg8"
   version="1.1"
   viewBox="0 0 205.66004 207.89409"
   height="207.89409mm"
   width="205.66005mm"
   sodipodi:docname="history.svg"
   inkscape:version="0.92.2 5c3e80d, 2017-08-06">
  <sodipodi:namedview
     pagecolor="#ffffff"
     bordercolor="#666666"
     borderopacity="1"
     objecttolerance="10"
     gridtolerance="10"
     guidetolerance="10"
     inkscape:pageopacity="0"
     inkscape:pageshadow="2"
     inkscape:window-width="1579"
     inkscape:window-height="973"
     id="namedview20"
     showgrid="false"
     inkscape:zoom="0.30035326"
     inkscape:cx="388.64891"
     inkscape:cy="392.87072"
     inkscape:window-x="491"
     inkscape:window-y="222"
     inkscape:window-maximized="0"
     inkscape:current-layer="svg8" />
  <defs
     id="defs2">
    <linearGradient
       inkscape:collect="always"
       id="linearGradient871">
      <stop
         style="stop-color:#CA91BE;stop-opacity:1;"
         offset="0"
         id="stop867" />
      <stop
         style="stop-color:#BA3E91;stop-opacity:1"
         offset="1"
         id="stop869" />
    </linearGradient>
    <marker
       style="overflow:visible"
       id="marker8033"
       refX="0.0"
       refY="0.0"
       orient="auto">
      <path
         transform="scale(1.1) translate(1,0)"
         d="M 8.7185878,4.0337352 L -2.2072895,0.016013256 L 8.7185884,-4.0017078 C 6.9730900,-1.6296469 6.9831476,1.6157441 8.7185878,4.0337352 z "
         style="fill-rule:evenodd;stroke-width:0.625;stroke-linejoin:round;stroke:#CA91BE;stroke-opacity:1;fill:#CA91BE;fill-opacity:1"
         id="path8031" />
    </marker>
    <marker
       style="overflow:visible"
       id="marker7647"
       refX="0.0"
       refY="0.0"
       orient="auto">
      <path
         transform="scale(1.1) translate(1,0)"
         d="M 8.7185878,4.0337352 L -2.2072895,0.016013256 L 8.7185884,-4.0017078 C 6.9730900,-1.6296469 6.9831476,1.6157441 8.7185878,4.0337352 z "
         style="fill-rule:evenodd;stroke-width:0.625;stroke-linejoin:round;stroke:#CA91BE;stroke-opacity:1;fill:#CA91BE;fill-opacity:1"
         id="path7645" />
    </marker>
    <rect
       y="140"
       x="50"
       width="512"
       id="SVGID_1_"
       height="512" />
    <marker
       id="TriangleOutM"
       refY="0"
       refX="0"
       orient="auto">
      <path
         id="path3919"
         d="m 5.77,0 -8.65,5 0,-10 8.65,5 z"
         transform="scale(0.4,0.4)"
         style="fill-rule:evenodd;stroke:#CA91BE;stroke-width:1pt" />
    </marker>
    <linearGradient
       inkscape:collect="always"
       xlink:href="#linearGradient871"
       id="linearGradient873"
       x1="103.94703"
       y1="-1.7618169"
       x2="107.87934"
       y2="207.89407"
       gradientUnits="userSpaceOnUse" />
    <linearGradient
       inkscape:collect="always"
       xlink:href="#linearGradient871"
       id="linearGradient881"
       x1="104.76784"
       y1="-2.6139251e-06"
       x2="103.53492"
       y2="208.77498"
       gradientUnits="userSpaceOnUse" />
  </defs>
  <metadata
     id="metadata5">
    <rdf:RDF>
      <cc:Work
         rdf:about="">
        <dc:format>image/svg+xml</dc:format>
        <dc:type
           rdf:resource="http://purl.org/dc/dcmitype/StillImage" />
        <dc:title />
      </cc:Work>
    </rdf:RDF>
  </metadata>
  <ellipse
     style="opacity:1;fill:none;fill-opacity:1;stroke:url(#linearGradient873);stroke-width:18;stroke-linecap:round;stroke-linejoin:miter;stroke-miterlimit:4;stroke-dasharray:none;stroke-opacity:1"
     id="path815"
     cx="102.83002"
     cy="103.94704"
     rx="93.830025"
     ry="94.947044" />
  <text
     xml:space="preserve"
     style="font-style:normal;font-weight:normal;font-size:10.58333302px;line-height:125%;font-family:Sans;letter-spacing:0px;word-spacing:0px;fill:#CA91BE;fill-opacity:1;stroke:none;stroke-width:0.26458332px;stroke-linecap:butt;stroke-linejoin:miter;stroke-opacity:1"
     x="93.738091"
     y="83.539925"
     id="text9654"><tspan
       id="tspan9652"
       x="93.738091"
       y="92.903694"
       style="fill:#CA91BE;fill-opacity:1;stroke-width:0.26458332px" /></text>
  <path
     inkscape:connector-curvature="0"
     id="path13782"
     d="m 154.62754,72.935489 v 82.022991 c 0,6.70008 -5.4515,12.15158 -12.15156,12.15158 H 87.034519 c -6.700063,0 -12.151551,-5.4515 -12.151551,-12.15158 v -53.33317 c 1.733112,0.28877 3.501164,0.47535 5.316301,0.47535 1.286546,0 2.550311,-0.0959 3.797365,-0.24284 v 53.10078 c 0,1.67542 1.362492,3.03791 3.037885,3.03791 h 55.441461 c 1.67539,0 3.03789,-1.36249 3.03789,-3.03791 V 72.935609 c 0,-1.67537 -1.3625,-3.03785 -3.03789,-3.03785 H 112.4024 c 0,-3.16852 -0.47546,-6.22164 -1.32907,-9.11367 h 31.40265 c 6.70006,0 12.15156,5.45149 12.15156,12.15152 z m -74.935599,25.16738 c -15.803096,0 -28.659439,-12.85632 -28.659439,-28.65939 0,-15.80312 12.856343,-28.65945 28.659439,-28.65945 15.803097,0 28.659439,12.85633 28.659439,28.65945 0,15.80307 -12.856342,28.65939 -28.659439,28.65939 z m 0,-6.07575 c 12.45231,0 22.583659,-10.12981 22.583659,-22.58364 0,-12.45383 -10.129833,-22.58369 -22.583659,-22.58369 -12.45382,0 -22.583664,10.12986 -22.583664,22.58369 0,12.45383 10.13136,22.58364 22.583664,22.58364 z m 17.188373,-19.54579 c 1.67691,0 3.03789,-1.36094 3.03789,-3.03785 0,-1.67691 -1.36098,-3.03791 -3.03789,-3.03791 H 82.729832 v -11.92521 c 0,-1.67691 -1.360976,-3.03791 -3.037891,-3.03791 -1.676914,0 -3.037885,1.361 -3.037885,3.03791 v 14.96312 c 0,1.67691 1.360971,3.03785 3.037885,3.03785 z M 131.9421,97.112569 H 99.032654 c -1.67691,0 -3.03788,1.36094 -3.03788,3.037851 0,1.67691 1.36097,3.03791 3.03788,3.03791 h 32.910966 c 1.67691,0 3.03789,-1.361 3.03789,-3.03791 0,-1.676911 -1.36098,-3.037851 -3.03941,-3.037851 z m 0.0545,18.427801 H 99.085774 c -1.67691,0 -3.03788,1.361 -3.03788,3.03791 0,1.67692 1.36097,3.03785 3.03788,3.03785 h 32.910976 c 1.67691,0 3.03788,-1.36093 3.03788,-3.03785 0,-1.67691 -1.35945,-3.03791 -3.03788,-3.03791 z m 0,19.19037 H 99.085774 c -1.67691,0 -3.03788,1.36094 -3.03788,3.03785 0,1.67691 1.36097,3.03791 3.03788,3.03791 h 32.910976 c 1.67691,0 3.03788,-1.361 3.03788,-3.03791 0,-1.67691 -1.35945,-3.03785 -3.03788,-3.03785 z"
     style="fill:url(#linearGradient881);stroke-width:1.51894426;fill-opacity:1" />
  <style
     type="text/css"
     id="style2">
	.st0{clip-path:url(#SVGID_2_);fill:#00AEEF;}
</style>
  <style
     id="stylebodge1"
     type="text/css">[id^=&quot;polygon&quot;]{fill:#CA91BE;fill-opacity:1}</style>
  <style
     id="stylebodge2"
     type="text/css">[id^=&quot;path&quot;]{fill:#CA91BE;fill-opacity:1}</style>
</svg>
