<?xml version="1.0" encoding="UTF-8" standalone="no"?>
<svg
   xmlns:dc="http://purl.org/dc/elements/1.1/"
   xmlns:cc="http://creativecommons.org/ns#"
   xmlns:rdf="http://www.w3.org/1999/02/22-rdf-syntax-ns#"
   xmlns:svg="http://www.w3.org/2000/svg"
   xmlns="http://www.w3.org/2000/svg"
   xmlns:xlink="http://www.w3.org/1999/xlink"
   xmlns:sodipodi="http://sodipodi.sourceforge.net/DTD/sodipodi-0.dtd"
   xmlns:inkscape="http://www.inkscape.org/namespaces/inkscape"
   id="svg8"
   version="1.1"
   viewBox="0 0 205.66004 207.89409"
   height="207.89409mm"
   width="205.66005mm"
   sodipodi:docname="ogg-audio.svg"
   inkscape:version="0.92.2 5c3e80d, 2017-08-06">
  <sodipodi:namedview
     pagecolor="#ffffff"
     bordercolor="#666666"
     borderopacity="1"
     objecttolerance="10"
     gridtolerance="10"
     guidetolerance="10"
     inkscape:pageopacity="0"
     inkscape:pageshadow="2"
     inkscape:window-width="1645"
     inkscape:window-height="1120"
     id="namedview13"
     showgrid="false"
     inkscape:zoom="0.30035326"
     inkscape:cx="388.64891"
     inkscape:cy="392.87072"
     inkscape:window-x="512"
     inkscape:window-y="121"
     inkscape:window-maximized="0"
     inkscape:current-layer="svg8" />
  <defs
     id="defs2">
    <linearGradient
       inkscape:collect="always"
       id="linearGradient824">
      <stop
         style="stop-color:#CA91BE;stop-opacity:1;"
         offset="0"
         id="stop820" />
      <stop
         style="stop-color:#BA3E91;stop-opacity:1"
         offset="1"
         id="stop822" />
    </linearGradient>
    <linearGradient
       inkscape:collect="always"
       xlink:href="#linearGradient824"
       id="linearGradient826"
       x1="103.94703"
       y1="0.8809045"
       x2="104.35571"
       y2="207.01317"
       gradientUnits="userSpaceOnUse" />
    <linearGradient
       inkscape:collect="always"
       xlink:href="#linearGradient824"
       id="linearGradient834"
       x1="510.56589"
       y1="1303.5647"
       x2="549.6911"
       y2="-296.87726"
       gradientUnits="userSpaceOnUse" />
  </defs>
  <metadata
     id="metadata5">
    <rdf:RDF>
      <cc:Work
         rdf:about="">
        <dc:format>image/svg+xml</dc:format>
        <dc:type
           rdf:resource="http://purl.org/dc/dcmitype/StillImage" />
        <dc:title />
      </cc:Work>
    </rdf:RDF>
  </metadata>
  <ellipse
     style="opacity:1;fill:none;fill-opacity:1;stroke:url(#linearGradient826);stroke-width:18;stroke-linecap:round;stroke-linejoin:miter;stroke-miterlimit:4;stroke-dasharray:none;stroke-opacity:1"
     id="path815"
     cx="102.83002"
     cy="103.94704"
     rx="93.830025"
     ry="94.947044" />
  <g
     transform="matrix(0.13154916,0,0,0.13154916,37.056141,38.173047)"
     id="g1044"
     style="fill-opacity:1;fill:url(#linearGradient834)">
    <g
       transform="matrix(0.1,0,0,-0.1,0,511)"
       id="g1042"
       style="fill-opacity:1.0;fill:url(#linearGradient834)">
      <path
         d="m 3591.5,4995.3 c -222.9,-45 -617.7,-282.3 -1043.2,-627.9 -276.1,-225 -924.5,-873.4 -1149.5,-1149.5 -362,-445.9 -587,-824.3 -630,-1065.7 -14.3,-77.7 -18.4,-1075.9 -14.3,-2986.3 4.1,-2697.9 8.2,-2879.9 43,-2994.5 106.4,-353.8 374.3,-675 687.3,-824.3 306.8,-145.2 135,-137 2873.8,-137 2337.9,0 2483.1,2 2607.9,36.8 439.8,124.8 816.1,499.1 928.6,924.5 18.4,67.5 38.8,245.4 47,394.8 l 12.3,270 h -327.3 -329.3 l -8.2,-259.8 c -6.1,-225 -14.3,-274.1 -55.2,-353.9 -63.4,-124.8 -175.9,-237.2 -298.6,-302.7 l -102.3,-55.2 -2462.7,-6.1 -2462.7,-4.1 -114.5,51.1 c -141.1,65.5 -253.6,171.8 -325.2,306.8 l -55.2,102.3 -6.2,2875.8 -4.1,2877.9 597.3,10.2 c 666.8,10.2 732.3,20.5 987.9,153.4 194.3,100.2 445.9,351.8 546.1,546.1 133,255.7 143.2,321.1 153.4,987.9 l 10.2,597.3 1568.8,-4.1 1566.8,-6.1 102.3,-55.2 c 135,-71.6 241.4,-184.1 304.8,-323.2 l 53.2,-112.5 v -1712 -1714 h 327.3 329.3 l -8.2,1744.7 c -6.1,1937 2,1812.2 -149.3,2121.1 -100.2,202.5 -345.7,450 -550.2,556.4 -296.6,153.4 -204.6,147.3 -1973.8,151.4 -879.6,2 -1626.2,-4.2 -1677.3,-14.4 z"
         id="path1036"
         style="fill-opacity:1.0;fill:url(#linearGradient834)" />
      <path
         d="m 3204.9,76.1 c -143.2,-38.8 -227,-90 -327.3,-204.5 -153.4,-175.9 -155.5,-184.1 -155.5,-1235.4 0,-1090.2 -2.1,-1073.8 192.3,-1270.2 210.7,-208.6 -65.4,-192.3 3070.1,-192.3 3135.6,0 2859.5,-16.4 3070.1,192.3 194.3,196.4 192.3,180 192.3,1270.2 0,1090.2 2.1,1073.8 -192.2,1270.1 -210.6,210.7 73.7,192.3 -3029.2,196.4 -2325.6,4.1 -2726.5,0 -2820.6,-26.6 z m 1270.2,-664.8 c 341.6,-114.5 527.7,-388.6 527.7,-775.2 0,-517.5 -341.6,-838.6 -867.3,-814.1 -155.4,6.1 -208.6,18.4 -323.2,71.6 -165.7,77.7 -300.7,208.6 -376.4,370.2 -79.8,165.7 -94.1,452 -30.7,652.5 106.4,343.6 382.5,533.8 775.2,535.9 118.8,2.1 206.7,-10.2 294.7,-40.9 z M 6455,-600.9 c 120.7,-55.2 218.9,-155.4 278.2,-282.3 77.7,-165.7 65.4,-190.2 -118.6,-225 -63.4,-12.3 -69.5,-8.2 -94.1,59.3 -67.5,182.1 -220.9,270 -439.8,253.6 -227.1,-18.4 -388.6,-143.2 -445.9,-341.6 -34.8,-116.6 -32.7,-353.8 2,-460.2 34.8,-106.4 153.4,-235.2 261.8,-282.3 157.5,-69.6 439.8,-42.9 591.1,57.3 38.8,24.5 47,47 47,141.1 v 112.5 h -225 -225 v 132.9 132.9 h 357.9 357.9 v -323.2 -323.2 l -106.4,-63.4 c -239.3,-145.2 -292.5,-159.5 -558.4,-159.5 -223,0 -255.7,4.1 -362,55.2 -163.6,75.7 -304.8,214.8 -376.3,370.2 -55.2,118.6 -59.3,143.2 -59.3,382.5 0,222.9 6.1,267.9 47.1,357.9 104.3,225 225,341.6 439.8,421.4 147.4,55.5 493,47.3 628,-16.1 z m 1800,0 c 120.7,-55.2 218.9,-155.4 278.2,-282.3 77.7,-165.7 65.5,-190.2 -118.6,-225 -69.5,-12.3 -71.6,-10.2 -106.4,79.8 -65.4,169.8 -212.7,249.6 -429.5,233.2 -306.8,-24.6 -472.5,-227 -470.4,-568.6 0,-186.1 38.9,-296.6 132.9,-398.9 112.5,-122.7 218.9,-159.5 421.4,-151.4 118.6,6.1 186.1,22.5 261.8,59.3 l 102.3,51.1 6.1,118.6 6.1,116.6 h -227 -225 v 132.9 132.9 h 357.9 357.9 v -323.2 -323.2 l -106.4,-63.4 C 8257,-2157.7 8203.8,-2172 7937.9,-2172 c -223,0 -255.7,4.1 -362,55.2 -163.6,75.7 -304.7,214.8 -376.3,370.2 -55.2,118.6 -59.3,143.2 -59.3,382.5 0,235.2 4.1,265.9 55.2,372.3 102.3,220.9 222.9,335.4 431.6,409.1 149.3,53.4 494.9,43.1 627.9,-18.2 z"
         id="path1038"
         style="fill-opacity:1.0;fill:url(#linearGradient834)" />
      <path
         d="m 3984.2,-830 c -186.1,-65.4 -272,-180 -313,-425.4 -28.6,-175.9 -2,-329.3 81.8,-460.2 188.2,-296.6 695.4,-288.4 871.3,12.3 153.4,261.8 90,666.8 -126.8,814.1 -149.2,102.1 -329.2,122.6 -513.3,59.2 z"
         id="path1040"
         style="fill-opacity:1.0;fill:url(#linearGradient834)" />
    </g>
  </g>
  <style
     id="stylebodge1"
     type="text/css">[id^=&quot;polygon&quot;]{fill:#CA91BE;fill-opacity:1}</style>
  <style
     id="stylebodge2"
     type="text/css">[id^=&quot;path&quot;]{fill:#CA91BE;fill-opacity:1}</style>
</svg>
