<?xml version="1.0" encoding="UTF-8" standalone="no"?>
<svg
   xmlns:dc="http://purl.org/dc/elements/1.1/"
   xmlns:cc="http://creativecommons.org/ns#"
   xmlns:rdf="http://www.w3.org/1999/02/22-rdf-syntax-ns#"
   xmlns:svg="http://www.w3.org/2000/svg"
   xmlns="http://www.w3.org/2000/svg"
   xmlns:xlink="http://www.w3.org/1999/xlink"
   xmlns:sodipodi="http://sodipodi.sourceforge.net/DTD/sodipodi-0.dtd"
   xmlns:inkscape="http://www.inkscape.org/namespaces/inkscape"
   width="205.66005mm"
   height="207.89409mm"
   viewBox="0 0 205.66004 207.89409"
   version="1.1"
   id="svg8"
   sodipodi:docname="podcast-logo.svg"
   inkscape:version="0.92.2 5c3e80d, 2017-08-06">
  <sodipodi:namedview
     pagecolor="#ffffff"
     bordercolor="#666666"
     borderopacity="1"
     objecttolerance="10"
     gridtolerance="10"
     guidetolerance="10"
     inkscape:pageopacity="0"
     inkscape:pageshadow="2"
     inkscape:window-width="1907"
     inkscape:window-height="910"
     id="namedview9"
     showgrid="false"
     inkscape:zoom="0.30035326"
     inkscape:cx="388.64891"
     inkscape:cy="392.87072"
     inkscape:window-x="388"
     inkscape:window-y="241"
     inkscape:window-maximized="0"
     inkscape:current-layer="svg8" />
  <defs
     id="defs2">
    <linearGradient
       inkscape:collect="always"
       id="linearGradient831">
      <stop
         style="stop-color:#CA91BE;stop-opacity:1;"
         offset="0"
         id="stop827" />
      <stop
         style="stop-color:#BA3E91;stop-opacity:1"
         offset="1"
         id="stop829" />
    </linearGradient>
    <linearGradient
       inkscape:collect="always"
       xlink:href="#linearGradient831"
       id="linearGradient833"
       x1="104.82794"
       y1="-0.88090974"
       x2="105.23663"
       y2="207.01317"
       gradientUnits="userSpaceOnUse" />
    <linearGradient
       inkscape:collect="always"
       xlink:href="#linearGradient831"
       id="linearGradient841"
       x1="106.14947"
       y1="-2.6139251e-06"
       x2="107.43874"
       y2="207.01317"
       gradientUnits="userSpaceOnUse" />
  </defs>
  <metadata
     id="metadata5">
    <rdf:RDF>
      <cc:Work
         rdf:about="">
        <dc:format>image/svg+xml</dc:format>
        <dc:type
           rdf:resource="http://purl.org/dc/dcmitype/StillImage" />
        <dc:title />
      </cc:Work>
    </rdf:RDF>
  </metadata>
  <ellipse
     ry="94.947044"
     rx="93.830025"
     cy="103.94704"
     cx="102.83002"
     id="path815"
     style="opacity:1;fill:none;fill-opacity:1;stroke:url(#linearGradient833);stroke-width:18;stroke-linecap:round;stroke-linejoin:miter;stroke-miterlimit:4;stroke-dasharray:none;stroke-opacity:1" />
  <path
     style="stroke-width:1.7076242;fill:url(#linearGradient841);fill-opacity:1"
     id="Podcast"
     d="m 26.142336,109.94082 c -0.04776,-1.0451 -0.155413,-2.06626 -0.155413,-3.11813 0,-44.029407 34.401804,-79.718743 76.843097,-79.718743 42.44127,0 76.8431,35.689336 76.8431,79.718743 0,1.05187 -0.11618,2.0747 -0.15038,3.11813 -1.59666,-42.565962 -35.26589,-76.593777 -76.69284,-76.593777 -41.428693,0 -75.097915,34.027815 -76.687713,76.593777 z M 102.83004,62.318591 c 25.89441,0 47.00574,20.988385 48.53922,47.451449 0.0581,-1.02457 0.15037,-2.03379 0.15037,-3.06688 0,-27.899213 -21.7961,-50.509815 -48.68952,-50.509815 -26.893363,0 -48.689463,22.610602 -48.689463,50.509815 0,1.03135 0.0922,2.04231 0.14857,3.06688 1.53516,-26.463064 22.64481,-47.451449 48.540893,-47.451449 z m 0,14.774333 c -8.807923,0 -15.954323,7.414499 -15.954323,16.550287 0,9.135779 7.14808,16.548599 15.954323,16.548599 8.8045,0 15.95265,-7.4145 15.95265,-16.548599 0,-9.135788 -7.14815,-16.550287 -15.95265,-16.550287 z m 0,34.482046 c -12.829413,0 -23.232253,0.71039 -23.232253,25.07649 0,24.37461 10.40284,44.13867 23.232253,44.13867 12.82936,0 23.23219,-19.76406 23.23219,-44.14041 0,-24.36436 -10.40283,-25.07475 -23.23219,-25.07475 z" />
  <style
     id="stylebodge1"
     type="text/css">[id^=&quot;polygon&quot;]{fill:#CA91BE;fill-opacity:1}</style>
  <style
     id="stylebodge2"
     type="text/css">[id^=&quot;path&quot;]{fill:#CA91BE;fill-opacity:1}</style>
</svg>
