<?xml version="1.0" encoding="UTF-8" standalone="no"?>
<svg
   xmlns:dc="http://purl.org/dc/elements/1.1/"
   xmlns:cc="http://creativecommons.org/ns#"
   xmlns:rdf="http://www.w3.org/1999/02/22-rdf-syntax-ns#"
   xmlns:svg="http://www.w3.org/2000/svg"
   xmlns="http://www.w3.org/2000/svg"
   xmlns:xlink="http://www.w3.org/1999/xlink"
   xmlns:sodipodi="http://sodipodi.sourceforge.net/DTD/sodipodi-0.dtd"
   xmlns:inkscape="http://www.inkscape.org/namespaces/inkscape"
   width="205.66005mm"
   height="207.89409mm"
   viewBox="0 0 205.66004 207.89409"
   version="1.1"
   id="svg8"
   sodipodi:docname="preferences.svg"
   inkscape:version="0.92.2 5c3e80d, 2017-08-06">
  <sodipodi:namedview
     pagecolor="#ffffff"
     bordercolor="#666666"
     borderopacity="1"
     objecttolerance="10"
     gridtolerance="10"
     guidetolerance="10"
     inkscape:pageopacity="0"
     inkscape:pageshadow="2"
     inkscape:window-width="1111"
     inkscape:window-height="794"
     id="namedview29"
     showgrid="false"
     inkscape:zoom="0.30035326"
     inkscape:cx="388.64891"
     inkscape:cy="392.87072"
     inkscape:window-x="728"
     inkscape:window-y="218"
     inkscape:window-maximized="0"
     inkscape:current-layer="svg8" />
  <defs
     id="defs2">
    <linearGradient
       inkscape:collect="always"
       id="linearGradient848">
      <stop
         style="stop-color:#CA91BE;stop-opacity:1;"
         offset="0"
         id="stop844" />
      <stop
         style="stop-color:#BA3E91;stop-opacity:1"
         offset="1"
         id="stop846" />
    </linearGradient>
    <linearGradient
       inkscape:collect="always"
       xlink:href="#linearGradient848"
       id="linearGradient850"
       x1="101.30431"
       y1="0.8809045"
       x2="99.95118"
       y2="208.77498"
       gradientUnits="userSpaceOnUse" />
    <linearGradient
       inkscape:collect="always"
       xlink:href="#linearGradient848"
       id="linearGradient858"
       x1="249.70596"
       y1="-134.87071"
       x2="252.97638"
       y2="644.21191"
       gradientUnits="userSpaceOnUse" />
  </defs>
  <metadata
     id="metadata5">
    <rdf:RDF>
      <cc:Work
         rdf:about="">
        <dc:format>image/svg+xml</dc:format>
        <dc:type
           rdf:resource="http://purl.org/dc/dcmitype/StillImage" />
        <dc:title />
      </cc:Work>
    </rdf:RDF>
  </metadata>
  <ellipse
     ry="94.947044"
     rx="93.830025"
     cy="103.94704"
     cx="102.83002"
     id="path815"
     style="opacity:1;fill:none;fill-opacity:1;stroke:url(#linearGradient850);stroke-width:18;stroke-linecap:round;stroke-linejoin:miter;stroke-miterlimit:4;stroke-dasharray:none;stroke-opacity:1" />
  <g
     transform="matrix(0.26458332,0,0,0.26458332,34.567523,35.684543)"
     id="g2545"
     style="fill-opacity:1;fill:url(#linearGradient858)">
    <g
       id="g2486"
       style="fill-opacity:1.0;fill:url(#linearGradient858)">
      <g
         id="g2484"
         style="fill-opacity:1.0;fill:url(#linearGradient858)">
        <g
           id="g2482"
           style="fill-opacity:1.0;fill:url(#linearGradient858)">
          <path
             style="fill:url(#linearGradient858);fill-opacity:1.0"
             d="m 510,203 c -2,-8 -8,-13 -16,-14 l -42,-6 c -2,-6 -1,-3 -4,-9 l 26,-34 c 5,-6 5,-15 1,-22 0,-1 -11,-18 -35,-42 -24,-24 -41,-35 -42,-35 -7,-4 -16,-4 -22,1 l -34,26 c -6,-3 -3,-2 -9,-4 L 327,22 C 326,14 321,8 313,6 312,6 292,0 258,0 c -34,0 -54,6 -55,6 -8,2 -13,8 -14,16 l -6,42 c -6,2 -3,1 -9,4 L 140,42 c -6,-5 -15,-5 -22,-1 -1,0 -18,11 -42,35 -24,24 -35,41 -35,42 -4,7 -4,16 1,22 l 26,34 c -3,6 -2,4 -4,10 l -42,5 c -8,1 -14,6 -16,14 0,1 -6,21 -6,55 0,34 6,54 6,55 2,8 8,13 16,14 l 42,6 c 2,6 1,3 4,9 l -26,34 c -5,6 -5,15 -1,22 0,1 11,18 35,42 24,24 41,35 42,35 7,4 16,4 22,-1 l 34,-26 c 6,3 4,2 10,4 l 5,42 c 1,8 6,14 14,16 1,0 21,6 55,6 34,0 54,-6 55,-6 8,-2 13,-8 14,-16 l 6,-42 c 6,-2 3,-1 9,-4 l 34,26 c 6,5 15,5 22,1 1,0 18,-11 42,-35 24,-24 35,-41 35,-42 4,-7 4,-16 -1,-22 l -26,-34 c 3,-6 2,-3 4,-9 l 42,-6 c 8,-1 14,-6 16,-14 0,-1 6,-21 6,-55 0,-34 -6,-54 -6,-55 z m -35,88 -40,5 c -7,1 -14,6 -16,13 -6,17 -4,12 -11,27 -3,7 -2,15 2,21 l 25,31 c -5,6 -12,15 -22,25 -10,10 -18,17 -24,22 l -32,-25 c -6,-4 -14,-5 -21,-2 -17,8 -9,5 -27,11 -7,2 -12,9 -13,16 l -5,40 c -8,1 -19,2 -33,2 -14,0 -25,-1 -33,-2 l -5,-40 c -1,-7 -6,-14 -13,-16 -17,-6 -12,-4 -27,-11 -7,-3 -14,-2 -20,2 l -32,25 C 122,430 113,423 103,413 93,403 87,395 82,389 l 24,-32 c 4,-6 5,-14 2,-21 -8,-15 -5,-10 -11,-27 -2,-7 -9,-12 -16,-13 l -40,-5 c -1,-8 -2,-19 -2,-33 0,-14 1,-25 2,-33 l 40,-5 c 7,-1 14,-6 16,-13 2,-7 5,-13 5,-14 0,0 3,-7 6,-13 3,-7 2,-14 -2,-20 L 82,128 c 5,-6 11,-15 21,-25 10,-10 19,-16 25,-21 l 32,24 c 6,4 13,5 20,2 15,-8 10,-5 27,-11 7,-2 12,-9 13,-16 l 5,-40 c 8,-1 19,-2 33,-2 14,0 25,1 33,2 l 5,40 c 1,7 6,14 13,16 17,6 12,4 27,11 7,3 15,2 21,-2 l 32,-24 c 6,5 14,11 24,21 10,10 17,19 22,25 l -25,32 c -4,6 -5,13 -2,20 8,17 6,9 12,27 2,7 8,12 15,13 l 40,5 c 1,8 2,19 2,33 0,14 -1,25 -2,33 z"
             id="path2478" />
          <path
             style="fill:url(#linearGradient858);fill-opacity:1.0"
             d="m 258,135 c -68,0 -123,55 -123,123 0,68 55,123 123,123 68,0 123,-55 123,-123 0,-68 -55,-123 -123,-123 z m 0,207 c -47,0 -84,-37 -84,-84 0,-47 37,-84 84,-84 47,0 84,37 84,84 0,47 -37,84 -84,84 z"
             id="path2480" />
        </g>
      </g>
    </g>
    <g
       id="g2488"
       style="fill-opacity:1.0;fill:url(#linearGradient858)" />
    <g
       id="g2490"
       style="fill-opacity:1.0;fill:url(#linearGradient858)" />
    <g
       id="g2492"
       style="fill-opacity:1.0;fill:url(#linearGradient858)" />
    <g
       id="g2494"
       style="fill-opacity:1.0;fill:url(#linearGradient858)" />
    <g
       id="g2496"
       style="fill-opacity:1.0;fill:url(#linearGradient858)" />
    <g
       id="g2498"
       style="fill-opacity:1.0;fill:url(#linearGradient858)" />
    <g
       id="g2500"
       style="fill-opacity:1.0;fill:url(#linearGradient858)" />
    <g
       id="g2502"
       style="fill-opacity:1.0;fill:url(#linearGradient858)" />
    <g
       id="g2504"
       style="fill-opacity:1.0;fill:url(#linearGradient858)" />
    <g
       id="g2506"
       style="fill-opacity:1.0;fill:url(#linearGradient858)" />
    <g
       id="g2508"
       style="fill-opacity:1.0;fill:url(#linearGradient858)" />
    <g
       id="g2510"
       style="fill-opacity:1.0;fill:url(#linearGradient858)" />
    <g
       id="g2512"
       style="fill-opacity:1.0;fill:url(#linearGradient858)" />
    <g
       id="g2514"
       style="fill-opacity:1.0;fill:url(#linearGradient858)" />
    <g
       id="g2516"
       style="fill-opacity:1.0;fill:url(#linearGradient858)" />
  </g>
  <style
     id="stylebodge1"
     type="text/css">[id^=&quot;polygon&quot;]{fill:#CA91BE;fill-opacity:1}</style>
  <style
     id="stylebodge2"
     type="text/css">[id^=&quot;path&quot;]{fill:#CA91BE;fill-opacity:1}</style>
</svg>
