<?xml version="1.0" encoding="UTF-8" standalone="no"?>
<!-- Generator: Adobe Illustrator 20.1.0, SVG Export Plug-In . SVG Version: 6.00 Build 0)  -->

<svg
   version="1.1"
   id="logos"
   x="0px"
   y="0px"
   viewBox="0 0 31.08 31.120001"
   enable-background="new 0 0 125 40"
   xml:space="preserve"
   sodipodi:docname="qobuz-logo.svg"
   width="31.08"
   height="31.120001"
   inkscape:version="1.1.2 (0a00cf5339, 2022-02-04)"
   xmlns:inkscape="http://www.inkscape.org/namespaces/inkscape"
   xmlns:sodipodi="http://sodipodi.sourceforge.net/DTD/sodipodi-0.dtd"
   xmlns:xlink="http://www.w3.org/1999/xlink"
   xmlns="http://www.w3.org/2000/svg"
   xmlns:svg="http://www.w3.org/2000/svg"><defs
   id="defs1263"><linearGradient
   inkscape:collect="always"
   id="linearGradient2104"><stop
     style="stop-color:#BA3E91;stop-opacity:1"
     offset="0"
     id="stop2100" /><stop
     style="stop-color:#CA91BE;stop-opacity:0.999502"
     offset="1"
     id="stop2102" /></linearGradient><linearGradient
   inkscape:collect="always"
   id="linearGradient2098"><stop
     style="stop-color:#BA3E91;stop-opacity:1"
     offset="0"
     id="stop2094" /><stop
     style="stop-color:#CA91BE;stop-opacity:0.999502"
     offset="1"
     id="stop2096" /></linearGradient><linearGradient
   inkscape:collect="always"
   id="linearGradient913-8"><stop
     style="stop-color:#BA3E91;stop-opacity:1"
     offset="0"
     id="stop909" /><stop
     style="stop-color:#CA91BE;stop-opacity:0"
     offset="1"
     id="stop911" /></linearGradient>
	
	

		
		
		
	<linearGradient
   inkscape:collect="always"
   xlink:href="#linearGradient913-8"
   id="linearGradient915"
   x1="15.398"
   y1="34.16"
   x2="15.747574"
   y2="4.828589"
   gradientUnits="userSpaceOnUse" /><linearGradient
   inkscape:collect="always"
   xlink:href="#linearGradient2098"
   id="linearGradient1672"
   gradientUnits="userSpaceOnUse"
   x1="15.398"
   y1="34.16"
   x2="15.747574"
   y2="4.828589"
   gradientTransform="translate(0,-4.471)" /><linearGradient
   inkscape:collect="always"
   xlink:href="#linearGradient913-8"
   id="linearGradient1674"
   gradientUnits="userSpaceOnUse"
   x1="15.398"
   y1="34.16"
   x2="15.747574"
   y2="4.828589"
   gradientTransform="translate(0,-4.471)" /><linearGradient
   inkscape:collect="always"
   xlink:href="#linearGradient913-8"
   id="linearGradient1676"
   gradientUnits="userSpaceOnUse"
   x1="15.398"
   y1="34.16"
   x2="15.747574"
   y2="4.828589"
   gradientTransform="translate(0,-4.471)" /><linearGradient
   inkscape:collect="always"
   xlink:href="#linearGradient913-8"
   id="linearGradient1678"
   gradientUnits="userSpaceOnUse"
   x1="15.398"
   y1="34.16"
   x2="15.747574"
   y2="4.828589"
   gradientTransform="translate(0,-4.471)" /><linearGradient
   inkscape:collect="always"
   xlink:href="#linearGradient913-8"
   id="linearGradient1680"
   gradientUnits="userSpaceOnUse"
   x1="15.398"
   y1="34.16"
   x2="15.747574"
   y2="4.828589"
   gradientTransform="translate(0,-4.471)" /><linearGradient
   inkscape:collect="always"
   xlink:href="#linearGradient913-8"
   id="linearGradient1682"
   gradientUnits="userSpaceOnUse"
   x1="15.398"
   y1="34.16"
   x2="15.747574"
   y2="4.828589"
   gradientTransform="translate(0,-4.471)" /><linearGradient
   inkscape:collect="always"
   xlink:href="#linearGradient913-8"
   id="linearGradient1684"
   gradientUnits="userSpaceOnUse"
   x1="15.398"
   y1="34.16"
   x2="15.747574"
   y2="4.828589"
   gradientTransform="translate(0,-4.471)" /><linearGradient
   inkscape:collect="always"
   xlink:href="#linearGradient913-8"
   id="linearGradient1686"
   gradientUnits="userSpaceOnUse"
   x1="15.398"
   y1="34.16"
   x2="15.747574"
   y2="4.828589"
   gradientTransform="translate(0,-4.471)" />
			
			
			
			
				<linearGradient
   id="SVGID_1_"
   gradientUnits="userSpaceOnUse"
   x1="4.8269"
   y1="-1172.4808"
   x2="26.038601"
   y2="-1172.4808"
   gradientTransform="matrix(1,0,0,-1,0,-1162.471)"
   style="stroke:url(#linearGradient915)">
				<stop
   offset="0"
   style="stop-color:#000000;stroke:url(#linearGradient915)"
   id="stop1190" />
				<stop
   offset="0.5108"
   style="stop-color:#DFDFDF;stroke:url(#linearGradient915)"
   id="stop1192" />
				<stop
   offset="0.8763"
   style="stop-color:#000000;stroke:url(#linearGradient915)"
   id="stop1194" />
			</linearGradient>
			
			
				<linearGradient
   id="SVGID_2_"
   gradientUnits="userSpaceOnUse"
   x1="15.1016"
   y1="-1168.1337"
   x2="23.4181"
   y2="-1175.3818"
   gradientTransform="matrix(1,0,0,-1,0,-1162.471)"
   style="stroke:url(#linearGradient915)">
				<stop
   offset="0.0029"
   style="stop-color:#B5B5B5;stop-opacity:0;stroke:url(#linearGradient915)"
   id="stop1199" />
				<stop
   offset="0.1244"
   style="stop-color:#969696;stop-opacity:0.1632;stroke:url(#linearGradient915)"
   id="stop1201" />
				<stop
   offset="0.5553"
   style="stop-color:#2B2B2B;stop-opacity:0.7421;stroke:url(#linearGradient915)"
   id="stop1203" />
				<stop
   offset="0.7473"
   style="stop-color:#000000;stroke:url(#linearGradient915)"
   id="stop1205" />
			</linearGradient>
			
			
				<linearGradient
   id="SVGID_3_"
   gradientUnits="userSpaceOnUse"
   x1="66.594398"
   y1="-1168.1345"
   x2="74.909897"
   y2="-1175.3818"
   gradientTransform="rotate(180,41.1796,-581.2355)"
   style="stroke:url(#linearGradient915)">
				<stop
   offset="0.0029"
   style="stop-color:#B5B5B5;stop-opacity:0;stroke:url(#linearGradient915)"
   id="stop1210" />
				<stop
   offset="0.1244"
   style="stop-color:#969696;stop-opacity:0.1632;stroke:url(#linearGradient915)"
   id="stop1212" />
				<stop
   offset="0.5553"
   style="stop-color:#2B2B2B;stop-opacity:0.7421;stroke:url(#linearGradient915)"
   id="stop1214" />
				<stop
   offset="0.7473"
   style="stop-color:#000000;stroke:url(#linearGradient915)"
   id="stop1216" />
			</linearGradient>
			
			
				<linearGradient
   id="SVGID_4_"
   gradientUnits="userSpaceOnUse"
   x1="16.7614"
   y1="-1191.3518"
   x2="24.542999"
   y2="-1186.0513"
   gradientTransform="matrix(1,0,0,-1,0,-1162.471)"
   style="stroke:url(#linearGradient915)">
				<stop
   offset="0.0029"
   style="stop-color:#B5B5B5;stop-opacity:0;stroke:url(#linearGradient915)"
   id="stop1221" />
				<stop
   offset="0.0486"
   style="stop-color:#A8A8A8;stop-opacity:0.0514;stroke:url(#linearGradient915)"
   id="stop1223" />
				<stop
   offset="0.2682"
   style="stop-color:#6C6C6C;stop-opacity:0.2982;stroke:url(#linearGradient915)"
   id="stop1225" />
				<stop
   offset="0.4258"
   style="stop-color:#3E3E3E;stop-opacity:0.5252;stroke:url(#linearGradient915)"
   id="stop1227" />
				<stop
   offset="0.5591"
   style="stop-color:#1C1C1C;stop-opacity:0.725;stroke:url(#linearGradient915)"
   id="stop1229" />
				<stop
   offset="0.7208"
   style="stop-color:#070707;stop-opacity:0.8901;stroke:url(#linearGradient915)"
   id="stop1231" />
				<stop
   offset="0.8679"
   style="stop-color:#000000;stroke:url(#linearGradient915)"
   id="stop1233" />
			</linearGradient>
			
			
		<linearGradient
   inkscape:collect="always"
   xlink:href="#linearGradient2104"
   id="linearGradient2028"
   gradientUnits="userSpaceOnUse"
   x1="15.398"
   y1="29.688999"
   x2="15.747574"
   y2="0.35758898" /></defs><sodipodi:namedview
   id="namedview1261"
   pagecolor="#ffffff"
   bordercolor="#666666"
   borderopacity="1.0"
   inkscape:pageshadow="2"
   inkscape:pageopacity="0.0"
   inkscape:pagecheckerboard="0"
   showgrid="false"
   fit-margin-top="0"
   fit-margin-left="0"
   fit-margin-right="0"
   fit-margin-bottom="0"
   inkscape:zoom="9.88"
   inkscape:cx="62.449393"
   inkscape:cy="15.536437"
   inkscape:window-width="2560"
   inkscape:window-height="1368"
   inkscape:window-x="0"
   inkscape:window-y="0"
   inkscape:window-maximized="1"
   inkscape:current-layer="logos" />
<path
   d="m 27.798,24.639 c 1.918,-2.572 3.067,-5.751 3.067,-9.206 C 30.865,6.91 23.956,0 15.432,0 6.909,0 0,6.909 0,15.432 c 0,8.523 6.909,15.433 15.433,15.433 3.442,0 6.61,-1.141 9.177,-3.046 l -0.046,0.055 3.147,3.246 3.369,-3.246 z"
   id="path1182" /><circle
   fill="#ffffff"
   cx="15.433"
   cy="15.432"
   id="circle1184"
   style="stroke:url(#linearGradient1672);fill-opacity:1;fill:url(#linearGradient2028)"
   r="14.258" /><path
   d="M 15.433,3.95 C 9.091,3.95 3.95,9.091 3.95,15.433 c 0,6.342 5.141,11.483 11.483,11.483 6.342,0 11.483,-5.141 11.483,-11.483 C 26.916,9.091 21.774,3.95 15.433,3.95 Z m 0,15.999 c -2.495,0 -4.517,-2.022 -4.517,-4.517 0,-2.495 2.022,-4.517 4.517,-4.517 2.495,0 4.517,2.022 4.517,4.517 0,2.495 -2.023,4.517 -4.517,4.517 z"
   id="path1186"
   style="stroke:url(#linearGradient1674)" /><circle
   cx="15.433"
   cy="15.432"
   r="0.98000002"
   id="circle1188"
   style="stroke:url(#linearGradient1676)" /><path
   fill="url(#SVGID_1_)"
   d="m 9.942,15.199 c 0.122,-2.927 2.533,-5.263 5.49,-5.263 2.957,0 5.368,2.336 5.49,5.263 h 5.115 C 25.913,9.446 21.214,4.821 15.431,4.821 9.648,4.821 4.951,9.447 4.827,15.199 Z"
   id="path1197"
   style="fill:url(#SVGID_1_);stroke:url(#linearGradient1678)" /><path
   fill="url(#SVGID_2_)"
   d="m 15.433,4.822 v 5.115 c 2.958,0.037 5.422,2.41 5.493,5.36 h 5.115 C 25.969,9.523 21.216,4.86 15.433,4.822 Z"
   id="path1208"
   style="fill:url(#SVGID_2_);stroke:url(#linearGradient1680)" /><path
   fill="url(#SVGID_3_)"
   d="m 15.433,4.822 v 5.115 c -2.958,0.037 -5.419,2.41 -5.49,5.36 H 4.827 C 4.899,9.523 9.65,4.86 15.433,4.822 Z"
   id="path1219"
   style="fill:url(#SVGID_3_);stroke:url(#linearGradient1682)" /><path
   fill="url(#SVGID_4_)"
   d="m 22.994,24.07 c -2.02,1.77 -4.665,2.845 -7.562,2.845 -0.012,0 -0.023,-10e-4 -0.034,-10e-4 v 2.775 c 0.012,0 0.023,0.001 0.034,0.001 3.593,0 6.874,-1.332 9.381,-3.526 -0.6,-0.703 -1.226,-1.386 -1.819,-2.094 z"
   id="path1236"
   style="fill:url(#SVGID_4_);stroke:url(#linearGradient1684)" /><path
   fill="#ffffff"
   d="m 29.527,27.901 -7.691,-7.708 c -0.227,-0.301 -0.586,-0.496 -0.991,-0.496 -0.686,0 -1.242,0.556 -1.242,1.242 0,0.334 0.133,0.637 0.348,0.861 v 0 0 c 0.014,0.015 0.03,0.03 0.045,0.044 l 7.838,7.663 z"
   id="path1238"
   style="stroke:url(#linearGradient1686)" />
</svg>
