<?xml version="1.0" encoding="UTF-8" standalone="no"?>
<svg
   xmlns:dc="http://purl.org/dc/elements/1.1/"
   xmlns:cc="http://creativecommons.org/ns#"
   xmlns:rdf="http://www.w3.org/1999/02/22-rdf-syntax-ns#"
   xmlns:svg="http://www.w3.org/2000/svg"
   xmlns="http://www.w3.org/2000/svg"
   xmlns:xlink="http://www.w3.org/1999/xlink"
   xmlns:sodipodi="http://sodipodi.sourceforge.net/DTD/sodipodi-0.dtd"
   xmlns:inkscape="http://www.inkscape.org/namespaces/inkscape"
   width="205.66005mm"
   height="207.89409mm"
   viewBox="0 0 205.66004 207.89409"
   version="1.1"
   id="svg8"
   sodipodi:docname="refresh.svg"
   inkscape:version="0.92.2 5c3e80d, 2017-08-06">
  <sodipodi:namedview
     pagecolor="#ffffff"
     bordercolor="#666666"
     borderopacity="1"
     objecttolerance="10"
     gridtolerance="10"
     guidetolerance="10"
     inkscape:pageopacity="0"
     inkscape:pageshadow="2"
     inkscape:window-width="1470"
     inkscape:window-height="799"
     id="namedview11"
     showgrid="false"
     inkscape:zoom="0.30035326"
     inkscape:cx="388.64891"
     inkscape:cy="392.87072"
     inkscape:window-x="536"
     inkscape:window-y="105"
     inkscape:window-maximized="0"
     inkscape:current-layer="svg8" />
  <defs
     id="defs2">
    <linearGradient
       inkscape:collect="always"
       id="linearGradient822">
      <stop
         style="stop-color:#CA91BE;stop-opacity:1;"
         offset="0"
         id="stop818" />
      <stop
         style="stop-color:#BA3E91;stop-opacity:1"
         offset="1"
         id="stop820" />
    </linearGradient>
    <linearGradient
       inkscape:collect="always"
       xlink:href="#linearGradient822"
       id="linearGradient824"
       x1="102.18522"
       y1="1.7618116"
       x2="101.713"
       y2="207.01317"
       gradientUnits="userSpaceOnUse" />
    <linearGradient
       inkscape:collect="always"
       xlink:href="#linearGradient822"
       id="linearGradient832"
       x1="248.96481"
       y1="-134.92581"
       x2="267.91705"
       y2="637.49799"
       gradientUnits="userSpaceOnUse" />
  </defs>
  <metadata
     id="metadata5">
    <rdf:RDF>
      <cc:Work
         rdf:about="">
        <dc:format>image/svg+xml</dc:format>
        <dc:type
           rdf:resource="http://purl.org/dc/dcmitype/StillImage" />
        <dc:title />
      </cc:Work>
    </rdf:RDF>
  </metadata>
  <ellipse
     ry="94.947044"
     rx="93.830025"
     cy="103.94704"
     cx="102.83002"
     id="path815"
     style="opacity:1;fill:none;fill-opacity:1;stroke:url(#linearGradient824);stroke-width:18;stroke-linecap:round;stroke-linejoin:miter;stroke-miterlimit:4;stroke-dasharray:none;stroke-opacity:1" />
  <g
     transform="matrix(0.26458332,0,0,0.26458332,35.772218,36.580025)"
     id="g2644"
     style="fill-opacity:1;fill:url(#linearGradient832)">
    <path
       d="m 65.155,214.641 c 15.664,0 29.813,-9.405 35.872,-23.854 25.017,-59.604 83.842,-101.61 152.42,-101.61 37.797,0 72.449,12.955 100.231,34.442 l -21.776,3.371 c -7.437,1.153 -13.223,7.054 -14.232,14.512 -1.01,7.454 3.008,14.686 9.867,17.768 l 119.746,53.872 c 5.249,2.357 11.33,1.904 16.168,-1.205 4.83,-3.114 7.764,-8.458 7.796,-14.208 l 0.621,-131.943 c 0.042,-7.506 -4.85,-14.144 -12.024,-16.332 -7.185,-2.188 -14.948,0.589 -19.104,6.837 L 424.235,81.096 C 380.23,37.778 319.932,11 253.447,11 152.637,11 65.965,72.562 28.999,160.06 c -5.134,12.128 -3.84,26.015 3.429,36.987 7.269,10.976 19.556,17.594 32.727,17.594 z"
       id="path2640"
       style="fill-opacity:1.0;fill:url(#linearGradient832)" />
    <path
       d="m 474.467,312.184 c -7.27,-10.977 -19.558,-17.594 -32.728,-17.594 -15.664,0 -29.813,9.405 -35.872,23.854 -25.017,59.604 -83.843,101.61 -152.42,101.61 -37.798,0 -72.45,-12.955 -100.232,-34.442 l 21.776,-3.37 c 7.437,-1.153 13.223,-7.054 14.233,-14.513 1.009,-7.453 -3.008,-14.686 -9.867,-17.768 L 59.611,296.089 c -5.25,-2.357 -11.33,-1.905 -16.169,1.205 -4.829,3.114 -7.764,8.458 -7.795,14.207 l -0.622,131.943 c -0.042,7.506 4.85,14.144 12.024,16.332 7.185,2.188 14.948,-0.589 19.104,-6.838 l 16.505,-24.805 c 44.004,43.32 104.303,70.098 170.788,70.098 100.811,0 187.482,-61.561 224.447,-149.059 5.136,-12.129 3.842,-26.015 -3.426,-36.988 z"
       id="path2642"
       style="fill-opacity:1.0;fill:url(#linearGradient832)" />
  </g>
  <style
     id="stylebodge1"
     type="text/css">[id^=&quot;polygon&quot;]{fill:#CA91BE;fill-opacity:1}</style>
  <style
     id="stylebodge2"
     type="text/css">[id^=&quot;path&quot;]{fill:#CA91BE;fill-opacity:1}</style>
</svg>
