<?xml version="1.0" encoding="UTF-8" standalone="no"?>
<!-- Generator: Adobe Illustrator 16.2.1, SVG Export Plug-In . SVG Version: 6.00 Build 0)  -->

<svg
   xmlns:dc="http://purl.org/dc/elements/1.1/"
   xmlns:cc="http://creativecommons.org/ns#"
   xmlns:rdf="http://www.w3.org/1999/02/22-rdf-syntax-ns#"
   xmlns:svg="http://www.w3.org/2000/svg"
   xmlns="http://www.w3.org/2000/svg"
   xmlns:xlink="http://www.w3.org/1999/xlink"
   xmlns:sodipodi="http://sodipodi.sourceforge.net/DTD/sodipodi-0.dtd"
   xmlns:inkscape="http://www.inkscape.org/namespaces/inkscape"
   version="1.1"
   id="Layer_1"
   x="0px"
   y="0px"
   width="512px"
   height="512px"
   viewBox="0 0 512 512"
   enable-background="new 0 0 512 512"
   xml:space="preserve"
   sodipodi:docname="soundcloud-logo.svg"
   inkscape:version="0.92.2 5c3e80d, 2017-08-06"><metadata
     id="metadata17"><rdf:RDF><cc:Work
         rdf:about=""><dc:format>image/svg+xml</dc:format><dc:type
           rdf:resource="http://purl.org/dc/dcmitype/StillImage" /></cc:Work></rdf:RDF></metadata><defs
     id="defs15"><linearGradient
       inkscape:collect="always"
       id="linearGradient825"><stop
         style="stop-color:#CA91BE;stop-opacity:1;"
         offset="0"
         id="stop821" /><stop
         style="stop-color:#BA3E91;stop-opacity:1"
         offset="1"
         id="stop823" /></linearGradient><linearGradient
       inkscape:collect="always"
       xlink:href="#linearGradient825"
       id="linearGradient827"
       x1="256"
       y1="0"
       x2="262.50848"
       y2="507.66101"
       gradientUnits="userSpaceOnUse" /><linearGradient
       inkscape:collect="always"
       xlink:href="#linearGradient825"
       id="linearGradient835"
       x1="256"
       y1="0"
       x2="262.50647"
       y2="509.83099"
       gradientUnits="userSpaceOnUse" /><linearGradient
       inkscape:collect="always"
       xlink:href="#linearGradient825"
       id="linearGradient837"
       gradientUnits="userSpaceOnUse"
       x1="256"
       y1="0"
       x2="262.50647"
       y2="509.83099" /><linearGradient
       inkscape:collect="always"
       xlink:href="#linearGradient825"
       id="linearGradient839"
       gradientUnits="userSpaceOnUse"
       x1="256"
       y1="0"
       x2="262.50647"
       y2="509.83099" /></defs><sodipodi:namedview
     pagecolor="#ffffff"
     bordercolor="#666666"
     borderopacity="1"
     objecttolerance="10"
     gridtolerance="10"
     guidetolerance="10"
     inkscape:pageopacity="0"
     inkscape:pageshadow="2"
     inkscape:window-width="1836"
     inkscape:window-height="954"
     id="namedview13"
     showgrid="false"
     inkscape:zoom="0.4609375"
     inkscape:cx="-440.40678"
     inkscape:cy="82.440678"
     inkscape:window-x="323"
     inkscape:window-y="237"
     inkscape:window-maximized="0"
     inkscape:current-layer="Layer_1" /><path
     d="M256,0C114.609,0,0,114.609,0,256s114.609,256,256,256s256-114.609,256-256S397.391,0,256,0z M256,472  c-119.297,0-216-96.703-216-216S136.703,40,256,40s216,96.703,216,216S375.297,472,256,472z"
     id="path2"
     style="fill:url(#linearGradient827);fill-opacity:1" /><g
     id="g8"
     style="fill:url(#linearGradient835);fill-opacity:1"
     transform="matrix(1.33899,0,0,1.33899,-86.78227,-108.4768)"><g
       id="g6"
       style="fill:url(#linearGradient839);fill-opacity:1"><path
         d="m 128.591,281.609 c -2.875,13.5 5.344,32 12.781,38.391 v -64 c -7.437,6.391 -10.594,15.5 -12.781,25.609 z m 218.75,-31.421 c -4.469,0 -8.672,0.875 -12.609,2.266 -1.969,-33.672 -31,-60.453 -66.812,-60.453 -22.891,0 -50.609,8.938 -62.703,25.594 V 320 h 142.125 c 20.25,0 36.656,-15.625 36.656,-34.891 -10e-4,-19.297 -16.407,-34.921 -36.657,-34.921 z M 179.685,320 h 12.766 v -89.594 h -12.766 z m -25.547,0 h 12.766 v -76.812 h -12.766 z"
         id="path4"
         style="clip-rule:evenodd;fill:url(#linearGradient837);fill-opacity:1;fill-rule:evenodd"
         inkscape:connector-curvature="0" /></g></g><style
     id="stylebodge1"
     type="text/css">[id^=&quot;polygon&quot;]{fill:#ff0000;fill-opacity:1}</style><style
     id="stylebodge2"
     type="text/css">[id^=&quot;path&quot;]{fill:#ff0000;fill-opacity:1}</style><style
     id="style11"
     type="text/css">[id^=&quot;polygon&quot;]{fill:#CA91BE;fill-opacity:1}</style><style
     id="style13"
     type="text/css">[id^=&quot;path&quot;]{fill:#CA91BE;fill-opacity:1}</style></svg>