<?xml version="1.0" encoding="UTF-8" standalone="no"?>
<svg
   xmlns:dc="http://purl.org/dc/elements/1.1/"
   xmlns:cc="http://creativecommons.org/ns#"
   xmlns:rdf="http://www.w3.org/1999/02/22-rdf-syntax-ns#"
   xmlns:svg="http://www.w3.org/2000/svg"
   xmlns="http://www.w3.org/2000/svg"
   xmlns:xlink="http://www.w3.org/1999/xlink"
   xmlns:sodipodi="http://sodipodi.sourceforge.net/DTD/sodipodi-0.dtd"
   xmlns:inkscape="http://www.inkscape.org/namespaces/inkscape"
   width="205.66005mm"
   height="207.89409mm"
   viewBox="0 0 205.66004 207.89409"
   version="1.1"
   id="svg8"
   sodipodi:docname="spotify-logo.svg"
   inkscape:version="0.92.2 5c3e80d, 2017-08-06">
  <sodipodi:namedview
     pagecolor="#ffffff"
     bordercolor="#666666"
     borderopacity="1"
     objecttolerance="10"
     gridtolerance="10"
     guidetolerance="10"
     inkscape:pageopacity="0"
     inkscape:pageshadow="2"
     inkscape:window-width="1690"
     inkscape:window-height="1016"
     id="namedview38"
     showgrid="false"
     inkscape:zoom="0.30035326"
     inkscape:cx="-210.6454"
     inkscape:cy="392.87072"
     inkscape:window-x="491"
     inkscape:window-y="131"
     inkscape:window-maximized="0"
     inkscape:current-layer="svg8" />
  <defs
     id="defs2">
    <linearGradient
       inkscape:collect="always"
       id="linearGradient850">
      <stop
         style="stop-color:#CA91BE;stop-opacity:1;"
         offset="0"
         id="stop846" />
      <stop
         style="stop-color:#BA3E91;stop-opacity:1"
         offset="1"
         id="stop848" />
    </linearGradient>
    <linearGradient
       gradientUnits="userSpaceOnUse"
       x1="30.06"
       y1="30.06"
       x2="225.94001"
       y2="225.94001"
       id="RSSg">
      <stop
         offset="0.0"
         stop-color="#E3702D"
         id="stop6" />
      <stop
         offset="0.1071"
         stop-color="#EA7D31"
         id="stop8" />
      <stop
         offset="0.3503"
         stop-color="#F69537"
         id="stop10" />
      <stop
         offset="0.5"
         stop-color="#FB9E3A"
         id="stop12" />
      <stop
         offset="0.7016"
         stop-color="#EA7C31"
         id="stop14" />
      <stop
         offset="0.8866"
         stop-color="#DE642B"
         id="stop16" />
      <stop
         offset="1.0"
         stop-color="#D95B29"
         id="stop18" />
    </linearGradient>
    <linearGradient
       inkscape:collect="always"
       xlink:href="#linearGradient850"
       id="linearGradient852"
       x1="105.70885"
       y1="0.8809045"
       x2="109.64116"
       y2="207.89407"
       gradientUnits="userSpaceOnUse" />
    <linearGradient
       inkscape:collect="always"
       xlink:href="#linearGradient850"
       id="linearGradient860"
       x1="240.40723"
       y1="50.500092"
       x2="244.15289"
       y2="468.63013"
       gradientUnits="userSpaceOnUse" />
  </defs>
  <metadata
     id="metadata5">
    <rdf:RDF>
      <cc:Work
         rdf:about="">
        <dc:format>image/svg+xml</dc:format>
        <dc:type
           rdf:resource="http://purl.org/dc/dcmitype/StillImage" />
        <dc:title />
      </cc:Work>
    </rdf:RDF>
  </metadata>
  <ellipse
     ry="94.947044"
     rx="93.830025"
     cy="103.94704"
     cx="102.83002"
     id="path815"
     style="opacity:1;fill:none;fill-opacity:1;stroke:url(#linearGradient852);stroke-width:18;stroke-linecap:round;stroke-linejoin:miter;stroke-miterlimit:4;stroke-dasharray:none;stroke-opacity:1" />
  <style
     type="text/css"
     id="style3111">
	.st0{fill:#CA91BE;}
</style>
  <style
     type="text/css"
     id="style2">
	.st0{fill:none;}
	.st1{fill:#F4481E;}
	.st2{fill:url(#SVGID_1_);}
	.st3{opacity:0.1;fill:#FFFFFF;enable-background:new    ;}
	.st4{fill:#FFD119;}
	.st5{fill:#FF8C00;}
	.st6{fill:url(#SVGID_2_);}
	.st7{fill:#FAFAFA;}
	.st8{opacity:0.3;fill:#FFFFFF;enable-background:new    ;}
</style>
  <g
     transform="matrix(0.49298603,0,0,0.49298603,-19.661038,-23.021822)"
     id="g5133"
     style="fill:url(#linearGradient860);fill-opacity:1">
    <g
       id="g5131"
       style="fill:url(#linearGradient860);fill-opacity:1.0">
      <g
         id="g5129"
         style="fill:url(#linearGradient860);fill-opacity:1.0">
        <g
           id="g5127"
           style="fill:url(#linearGradient860);fill-opacity:1.0">
          <path
             id="path5121"
             d="m 384.568,201.787 c -50.089,-24.981 -103.96,-37.63 -160.247,-37.63 -29.303,0 -58.48,3.56 -86.798,10.584 -9.376,2.32 -15.065,13.635 -12.745,22.979 2.32,9.344 11.791,15.065 21.167,12.745 25.553,-6.325 51.933,-9.535 78.407,-9.535 50.788,0 99.416,11.41 144.61,33.944 2.479,1.24 5.149,1.843 7.755,1.843 6.452,0 12.586,-5.371 15.701,-11.505 4.291,-8.614 0.795,-19.134 -7.85,-23.425 z"
             style="fill:url(#linearGradient860);fill-opacity:1.0" />
          <path
             id="path5123"
             d="m 224.321,311.977 c -23.614,0 -46.943,3.464 -69.349,10.425 -6.929,2.066 -10.774,16.749 -8.645,23.71 2.129,6.897 9.471,10.806 16.4,8.613 19.864,-6.166 40.618,-9.28 61.594,-9.28 35.024,0 69.699,8.867 100.242,25.776 l 6.325,1.621 c 4.64,0 9.122,-2.479 11.442,-6.833 3.464,-6.325 1.24,-21.676 -5.149,-25.14 -34.389,-18.881 -73.418,-28.892 -112.86,-28.892 z"
             style="fill:url(#linearGradient860);fill-opacity:1.0" />
          <path
             id="path5125"
             d="m 360.064,273.615 c -41.635,-21.612 -88.546,-33.086 -135.711,-33.086 -26.316,0 -52.505,3.496 -77.772,10.393 -8.136,2.225 -12.935,16.114 -10.711,24.25 2.225,8.136 10.615,12.904 18.783,10.711 22.629,-6.166 46.116,-9.312 69.699,-9.312 42.906,0 83.779,9.948 121.663,29.621 2.225,1.176 4.64,1.78 7.024,1.78 5.562,0 10.87,-8.581 13.603,-13.794 3.815,-7.468 0.891,-16.717 -6.578,-20.563 z"
             style="fill:url(#linearGradient860);fill-opacity:1.0" />
        </g>
      </g>
    </g>
  </g>
  <g
     transform="matrix(0.26458332,0,0,0.26458332,229.5367,39.400622)"
     id="g5135" />
  <g
     transform="matrix(0.26458332,0,0,0.26458332,229.5367,39.400622)"
     id="g5137" />
  <g
     transform="matrix(0.26458332,0,0,0.26458332,229.5367,39.400622)"
     id="g5139" />
  <g
     transform="matrix(0.26458332,0,0,0.26458332,229.5367,39.400622)"
     id="g5141" />
  <g
     transform="matrix(0.26458332,0,0,0.26458332,229.5367,39.400622)"
     id="g5143" />
  <g
     transform="matrix(0.26458332,0,0,0.26458332,229.5367,39.400622)"
     id="g5145" />
  <g
     transform="matrix(0.26458332,0,0,0.26458332,229.5367,39.400622)"
     id="g5147" />
  <g
     transform="matrix(0.26458332,0,0,0.26458332,229.5367,39.400622)"
     id="g5149" />
  <g
     transform="matrix(0.26458332,0,0,0.26458332,229.5367,39.400622)"
     id="g5151" />
  <g
     transform="matrix(0.26458332,0,0,0.26458332,229.5367,39.400622)"
     id="g5153" />
  <g
     transform="matrix(0.26458332,0,0,0.26458332,229.5367,39.400622)"
     id="g5155" />
  <g
     transform="matrix(0.26458332,0,0,0.26458332,229.5367,39.400622)"
     id="g5157" />
  <g
     transform="matrix(0.26458332,0,0,0.26458332,229.5367,39.400622)"
     id="g5159" />
  <g
     transform="matrix(0.26458332,0,0,0.26458332,229.5367,39.400622)"
     id="g5161" />
  <g
     transform="matrix(0.26458332,0,0,0.26458332,229.5367,39.400622)"
     id="g5163" />
  <style
     id="stylebodge1"
     type="text/css">[id^=&quot;polygon&quot;]{fill:#CA91BE;fill-opacity:1}</style>
  <style
     id="stylebodge2"
     type="text/css">[id^=&quot;path&quot;]{fill:#CA91BE;fill-opacity:1}</style>
</svg>
