<?xml version="1.0" encoding="UTF-8" standalone="no"?>
<svg
   xmlns:dc="http://purl.org/dc/elements/1.1/"
   xmlns:cc="http://creativecommons.org/ns#"
   xmlns:rdf="http://www.w3.org/1999/02/22-rdf-syntax-ns#"
   xmlns:svg="http://www.w3.org/2000/svg"
   xmlns="http://www.w3.org/2000/svg"
   xmlns:xlink="http://www.w3.org/1999/xlink"
   xmlns:sodipodi="http://sodipodi.sourceforge.net/DTD/sodipodi-0.dtd"
   xmlns:inkscape="http://www.inkscape.org/namespaces/inkscape"
   width="205.66005mm"
   height="207.89409mm"
   viewBox="0 0 205.66004 207.89409"
   version="1.1"
   id="svg8"
   sodipodi:docname="wikipedia-logo.svg"
   inkscape:version="0.92.2 5c3e80d, 2017-08-06">
  <sodipodi:namedview
     pagecolor="#ffffff"
     bordercolor="#666666"
     borderopacity="1"
     objecttolerance="10"
     gridtolerance="10"
     guidetolerance="10"
     inkscape:pageopacity="0"
     inkscape:pageshadow="2"
     inkscape:window-width="1455"
     inkscape:window-height="916"
     id="namedview62"
     showgrid="false"
     inkscape:zoom="0.30035326"
     inkscape:cx="388.64891"
     inkscape:cy="392.87072"
     inkscape:window-x="638"
     inkscape:window-y="296"
     inkscape:window-maximized="0"
     inkscape:current-layer="svg8" />
  <defs
     id="defs2">
    <linearGradient
       inkscape:collect="always"
       id="linearGradient873">
      <stop
         style="stop-color:#CA91BE;stop-opacity:1;"
         offset="0"
         id="stop869" />
      <stop
         style="stop-color:#BA3E91;stop-opacity:1"
         offset="1"
         id="stop871" />
    </linearGradient>
    <linearGradient
       gradientUnits="userSpaceOnUse"
       x1="30.06"
       y1="30.06"
       x2="225.94001"
       y2="225.94001"
       id="RSSg">
      <stop
         offset="0.0"
         stop-color="#E3702D"
         id="stop6" />
      <stop
         offset="0.1071"
         stop-color="#EA7D31"
         id="stop8" />
      <stop
         offset="0.3503"
         stop-color="#F69537"
         id="stop10" />
      <stop
         offset="0.5"
         stop-color="#FB9E3A"
         id="stop12" />
      <stop
         offset="0.7016"
         stop-color="#EA7C31"
         id="stop14" />
      <stop
         offset="0.8866"
         stop-color="#DE642B"
         id="stop16" />
      <stop
         offset="1.0"
         stop-color="#D95B29"
         id="stop18" />
    </linearGradient>
    <filter
       x="0"
       y="0"
       width="1"
       height="1"
       color-interpolation-filters="sRGB"
       id="filter3011">
      <feColorMatrix
         type="saturate"
         values="0"
         id="feColorMatrix3013"
         result="fbSourceGraphic" />
      <feColorMatrix
         result="fbSourceGraphicAlpha"
         in="fbSourceGraphic"
         values="0 0 0 -1 0 0 0 0 -1 0 0 0 0 -1 0 0 0 0 1 0"
         id="feColorMatrix3035" />
      <feFlood
         id="feFlood3037"
         result="result1"
         flood-opacity="0"
         flood-color="rgb(128,128,128)"
         in="fbSourceGraphic" />
      <feBlend
         id="feBlend3039"
         in2="fbSourceGraphic"
         mode="normal"
         result="result2" />
      <feComposite
         id="feComposite3041"
         in2="fbSourceGraphic"
         k2="1"
         operator="arithmetic"
         result="result3" />
      <feComposite
         id="feComposite3043"
         in2="fbSourceGraphic"
         operator="in" />
    </filter>
    <filter
       x="0"
       y="0"
       width="1"
       height="1"
       color-interpolation-filters="sRGB"
       id="filter3015">
      <feColorMatrix
         type="saturate"
         values="0"
         id="feColorMatrix3017"
         result="fbSourceGraphic" />
      <feColorMatrix
         result="fbSourceGraphicAlpha"
         in="fbSourceGraphic"
         values="0 0 0 -1 0 0 0 0 -1 0 0 0 0 -1 0 0 0 0 1 0"
         id="feColorMatrix3045" />
      <feFlood
         id="feFlood3047"
         result="result1"
         flood-opacity="0"
         flood-color="rgb(128,128,128)"
         in="fbSourceGraphic" />
      <feBlend
         id="feBlend3049"
         in2="fbSourceGraphic"
         mode="normal"
         result="result2" />
      <feComposite
         id="feComposite3051"
         in2="fbSourceGraphic"
         k2="1"
         operator="arithmetic"
         result="result3" />
      <feComposite
         id="feComposite3053"
         in2="fbSourceGraphic"
         operator="in" />
    </filter>
    <filter
       x="0"
       y="0"
       width="1"
       height="1"
       color-interpolation-filters="sRGB"
       id="filter3019">
      <feColorMatrix
         type="saturate"
         values="0"
         id="feColorMatrix3021"
         result="fbSourceGraphic" />
      <feColorMatrix
         result="fbSourceGraphicAlpha"
         in="fbSourceGraphic"
         values="0 0 0 -1 0 0 0 0 -1 0 0 0 0 -1 0 0 0 0 1 0"
         id="feColorMatrix3055" />
      <feFlood
         id="feFlood3057"
         result="result1"
         flood-opacity="0"
         flood-color="rgb(128,128,128)"
         in="fbSourceGraphic" />
      <feBlend
         id="feBlend3059"
         in2="fbSourceGraphic"
         mode="normal"
         result="result2" />
      <feComposite
         id="feComposite3061"
         in2="fbSourceGraphic"
         k2="1"
         operator="arithmetic"
         result="result3" />
      <feComposite
         id="feComposite3063"
         in2="fbSourceGraphic"
         operator="in" />
    </filter>
    <filter
       x="0"
       y="0"
       width="1"
       height="1"
       color-interpolation-filters="sRGB"
       id="filter3023">
      <feColorMatrix
         type="saturate"
         values="0"
         id="feColorMatrix3025"
         result="fbSourceGraphic" />
      <feColorMatrix
         result="fbSourceGraphicAlpha"
         in="fbSourceGraphic"
         values="0 0 0 -1 0 0 0 0 -1 0 0 0 0 -1 0 0 0 0 1 0"
         id="feColorMatrix3065" />
      <feFlood
         id="feFlood3067"
         result="result1"
         flood-opacity="0"
         flood-color="rgb(128,128,128)"
         in="fbSourceGraphic" />
      <feBlend
         id="feBlend3069"
         in2="fbSourceGraphic"
         mode="normal"
         result="result2" />
      <feComposite
         id="feComposite3071"
         in2="fbSourceGraphic"
         k2="1"
         operator="arithmetic"
         result="result3" />
      <feComposite
         id="feComposite3073"
         in2="fbSourceGraphic"
         operator="in" />
    </filter>
    <filter
       x="0"
       y="0"
       width="1"
       height="1"
       color-interpolation-filters="sRGB"
       id="filter3027">
      <feColorMatrix
         type="saturate"
         values="0"
         id="feColorMatrix3029"
         result="fbSourceGraphic" />
      <feColorMatrix
         result="fbSourceGraphicAlpha"
         in="fbSourceGraphic"
         values="0 0 0 -1 0 0 0 0 -1 0 0 0 0 -1 0 0 0 0 1 0"
         id="feColorMatrix3075" />
      <feFlood
         id="feFlood3077"
         result="result1"
         flood-opacity="0"
         flood-color="rgb(128,128,128)"
         in="fbSourceGraphic" />
      <feBlend
         id="feBlend3079"
         in2="fbSourceGraphic"
         mode="normal"
         result="result2" />
      <feComposite
         id="feComposite3081"
         in2="fbSourceGraphic"
         k2="1"
         operator="arithmetic"
         result="result3" />
      <feComposite
         id="feComposite3083"
         in2="fbSourceGraphic"
         operator="in" />
    </filter>
    <filter
       x="0"
       y="0"
       width="1"
       height="1"
       color-interpolation-filters="sRGB"
       id="filter3031">
      <feColorMatrix
         type="saturate"
         values="0"
         id="feColorMatrix3033"
         result="fbSourceGraphic" />
      <feColorMatrix
         result="fbSourceGraphicAlpha"
         in="fbSourceGraphic"
         values="0 0 0 -1 0 0 0 0 -1 0 0 0 0 -1 0 0 0 0 1 0"
         id="feColorMatrix3085" />
      <feFlood
         id="feFlood3087"
         result="result1"
         flood-opacity="0"
         flood-color="rgb(128,128,128)"
         in="fbSourceGraphic" />
      <feBlend
         id="feBlend3089"
         in2="fbSourceGraphic"
         mode="normal"
         result="result2" />
      <feComposite
         id="feComposite3091"
         in2="fbSourceGraphic"
         k2="1"
         operator="arithmetic"
         result="result3" />
      <feComposite
         id="feComposite3093"
         in2="fbSourceGraphic"
         operator="in" />
    </filter>
    <linearGradient
       inkscape:collect="always"
       xlink:href="#linearGradient873"
       id="linearGradient875"
       x1="99.542496"
       y1="0.8809045"
       x2="103.47481"
       y2="207.89407"
       gradientUnits="userSpaceOnUse" />
    <linearGradient
       inkscape:collect="always"
       xlink:href="#linearGradient873"
       id="linearGradient883"
       x1="63.235016"
       y1="-28.194544"
       x2="63.996696"
       y2="151.58482"
       gradientUnits="userSpaceOnUse" />
  </defs>
  <metadata
     id="metadata5">
    <rdf:RDF>
      <cc:Work
         rdf:about="">
        <dc:format>image/svg+xml</dc:format>
        <dc:type
           rdf:resource="http://purl.org/dc/dcmitype/StillImage" />
        <dc:title />
      </cc:Work>
    </rdf:RDF>
  </metadata>
  <ellipse
     ry="94.947044"
     rx="93.830025"
     cy="103.94704"
     cx="102.83002"
     id="path815"
     style="opacity:1;fill:none;fill-opacity:1;stroke:url(#linearGradient875);stroke-width:18;stroke-linecap:round;stroke-linejoin:miter;stroke-miterlimit:4;stroke-dasharray:none;stroke-opacity:1" />
  <style
     type="text/css"
     id="style3111">
	.st0{fill:#CA91BE;}
</style>
  <style
     type="text/css"
     id="style2">
	.st0{fill:none;}
	.st1{fill:#F4481E;}
	.st2{fill:url(#SVGID_1_);}
	.st3{opacity:0.1;fill:#FFFFFF;enable-background:new    ;}
	.st4{fill:#FFD119;}
	.st5{fill:#FF8C00;}
	.st6{fill:url(#SVGID_2_);}
	.st7{fill:#FAFAFA;}
	.st8{opacity:0.3;fill:#FFFFFF;enable-background:new    ;}
</style>
  <g
     transform="matrix(1.1465847,0,0,1.1465847,29.448599,32.965091)"
     id="g4855"
     style="fill-rule:evenodd;stroke-miterlimit:10;shape-rendering:geometricPrecision;fill-opacity:1;fill:url(#linearGradient883)">
    <path
       d="m 120.85,29.21 c 0,0.41 -0.13,0.78 -0.38,1.12 -0.26,0.33 -0.53,0.5 -0.84,0.5 -2.49,0.24 -4.54,1.04 -6.12,2.41 -1.59,1.36 -3.22,3.97 -4.91,7.81 L 82.8,99.19 C 82.63,99.73 82.16,100 81.38,100 80.77,100 80.3,99.73 79.96,99.19 L 65.49,68.93 48.85,99.19 C 48.51,99.73 48.04,100 47.43,100 46.69,100 46.2,99.73 45.96,99.19 L 20.61,41.05 C 19.03,37.44 17.36,34.92 15.6,33.49 13.85,32.06 11.4,31.17 8.27,30.83 8,30.83 7.74,30.69 7.51,30.4 7.27,30.12 7.15,29.79 7.15,29.42 7.15,28.47 7.42,28 7.96,28 c 2.26,0 4.62,0.1 7.09,0.3 2.29,0.21 4.45,0.31 6.47,0.31 2.06,0 4.49,-0.1 7.29,-0.31 2.93,-0.2 5.53,-0.3 7.79,-0.3 0.54,0 0.81,0.47 0.81,1.42 0,0.94 -0.17,1.41 -0.5,1.41 -2.26,0.17 -4.04,0.75 -5.34,1.72 -1.3,0.98 -1.95,2.26 -1.95,3.85 0,0.81 0.27,1.82 0.81,3.03 L 51.38,86.74 63.27,64.28 52.19,41.05 C 50.2,36.91 48.56,34.23 47.28,33.03 46,31.84 44.06,31.1 41.46,30.83 c -0.24,0 -0.46,-0.14 -0.68,-0.43 -0.22,-0.28 -0.33,-0.61 -0.33,-0.98 0,-0.95 0.23,-1.42 0.71,-1.42 2.26,0 4.33,0.1 6.22,0.3 1.82,0.21 3.76,0.31 5.82,0.31 2.02,0 4.16,-0.1 6.42,-0.31 2.33,-0.2 4.62,-0.3 6.88,-0.3 0.54,0 0.81,0.47 0.81,1.42 0,0.94 -0.16,1.41 -0.5,1.41 -4.52,0.31 -6.78,1.59 -6.78,3.85 0,1.01 0.52,2.58 1.57,4.7 l 7.33,14.88 7.29,-13.61 c 1.01,-1.92 1.52,-3.54 1.52,-4.86 0,-3.1 -2.26,-4.75 -6.78,-4.96 -0.41,0 -0.61,-0.47 -0.61,-1.41 0,-0.34 0.1,-0.66 0.3,-0.96 0.21,-0.31 0.41,-0.46 0.61,-0.46 1.62,0 3.61,0.1 5.97,0.3 2.26,0.21 4.12,0.31 5.57,0.31 1.04,0 2.58,-0.09 4.6,-0.26 2.56,-0.23 4.71,-0.35 6.43,-0.35 0.4,0 0.6,0.4 0.6,1.21 0,1.08 -0.37,1.62 -1.11,1.62 -2.63,0.27 -4.75,1 -6.35,2.18 -1.6,1.18 -3.6,3.86 -5.99,8.04 l -9.72,17.97 13.16,26.81 19.43,-45.18 c 0.67,-1.65 1.01,-3.17 1.01,-4.55 0,-3.31 -2.26,-5.06 -6.78,-5.27 -0.41,0 -0.61,-0.47 -0.61,-1.41 0,-0.95 0.3,-1.42 0.91,-1.42 1.65,0 3.61,0.1 5.87,0.3 2.09,0.21 3.85,0.31 5.26,0.31 1.49,0 3.21,-0.1 5.16,-0.31 2.03,-0.2 3.85,-0.3 5.47,-0.3 0.47,0 0.71,0.4 0.71,1.21 z"
       id="path4844"
       style="fill-opacity:1.0;fill:url(#linearGradient883)" />
  </g>
  <style
     id="stylebodge1"
     type="text/css">[id^=&quot;polygon&quot;]{fill:#CA91BE;fill-opacity:1}</style>
  <style
     id="stylebodge2"
     type="text/css">[id^=&quot;path&quot;]{fill:#CA91BE;fill-opacity:1}</style>
</svg>
