<?xml version="1.0" encoding="UTF-8" standalone="no"?>
<!-- Created with Inkscape (http://www.inkscape.org/) -->

<svg
   xmlns:dc="http://purl.org/dc/elements/1.1/"
   xmlns:cc="http://creativecommons.org/ns#"
   xmlns:rdf="http://www.w3.org/1999/02/22-rdf-syntax-ns#"
   xmlns:svg="http://www.w3.org/2000/svg"
   xmlns="http://www.w3.org/2000/svg"
   xmlns:sodipodi="http://sodipodi.sourceforge.net/DTD/sodipodi-0.dtd"
   xmlns:inkscape="http://www.inkscape.org/namespaces/inkscape"
   id="svg2"
   height="255.64"
   width="1274.2"
   version="1.0"
   sodipodi:docname="0stars.svg"
   inkscape:version="0.92.2 5c3e80d, 2017-08-06">
  <sodipodi:namedview
     pagecolor="#ffffff"
     bordercolor="#666666"
     borderopacity="1"
     objecttolerance="10"
     gridtolerance="10"
     guidetolerance="10"
     inkscape:pageopacity="0"
     inkscape:pageshadow="2"
     inkscape:window-width="1956"
     inkscape:window-height="895"
     id="namedview10"
     showgrid="false"
     inkscape:zoom="0.90409672"
     inkscape:cx="449.08629"
     inkscape:cy="121.75276"
     inkscape:window-x="458"
     inkscape:window-y="210"
     inkscape:window-maximized="0"
     inkscape:current-layer="svg2" />
  <defs
     id="defs4" />
  <metadata
     id="metadata7">
    <rdf:RDF>
      <cc:Work
         rdf:about="">
        <dc:format>image/svg+xml</dc:format>
        <dc:type
           rdf:resource="http://purl.org/dc/dcmitype/StillImage" />
        <dc:title></dc:title>
      </cc:Work>
    </rdf:RDF>
  </metadata>
  <path
     inkscape:connector-curvature="0"
     id="path4518"
     d="m 458.60317,241.58683 -73.52904,-48.32822 -74.16964,47.75942 23.24074,-84.86492 -68.34242,-55.78133 87.8925,-4.121734 31.93176,-82.233084 31.07898,82.318747 88.07891,4.957811 -68.68397,54.99588 z"
     stroke-miterlimit="4"
     style="fill:none;fill-opacity:1;fill-rule:evenodd;stroke:#fb8626;stroke-width:4;stroke-miterlimit:4;stroke-dasharray:none;stroke-opacity:1" />
  <path
     style="fill:none;fill-opacity:1;fill-rule:evenodd;stroke:#fb8626;stroke-width:4;stroke-miterlimit:4;stroke-dasharray:none;stroke-opacity:1"
     stroke-miterlimit="4"
     d="m 206.82265,241.58683 -73.52904,-48.32822 -74.169636,47.75942 23.24074,-84.86492 -68.342421,-55.78133 87.892497,-4.121738 31.93176,-82.233084 31.07898,82.318747 88.07891,4.957815 -68.68397,54.99588 z"
     id="path4514"
     inkscape:connector-curvature="0" />
  <path
     style="fill:none;fill-opacity:1;fill-rule:evenodd;stroke:#fb8626;stroke-width:4;stroke-miterlimit:4;stroke-dasharray:none;stroke-opacity:1"
     stroke-miterlimit="4"
     d="m 710.38369,241.58683 -73.52904,-48.32822 -74.16964,47.75942 23.24074,-84.86492 -68.34242,-55.78133 87.8925,-4.121734 31.93176,-82.233084 31.07898,82.318747 88.07891,4.957811 -68.68397,54.99588 z"
     id="path4522"
     inkscape:connector-curvature="0" />
  <path
     inkscape:connector-curvature="0"
     id="path4526"
     d="m 962.16421,241.58683 -73.52904,-48.32822 -74.16964,47.75942 23.24074,-84.86492 -68.34242,-55.78133 87.8925,-4.121738 31.93176,-82.233084 31.07898,82.318747 88.07891,4.957815 -68.68397,54.99588 z"
     stroke-miterlimit="4"
     style="fill:none;fill-opacity:1;fill-rule:evenodd;stroke:#fb8626;stroke-width:4;stroke-miterlimit:4;stroke-dasharray:none;stroke-opacity:1" />
  <path
     inkscape:connector-curvature="0"
     id="path3847"
     d="m 1213.9447,241.58683 -73.529,-48.32822 -74.1696,47.75942 23.2407,-84.86492 -68.3424,-55.78133 87.8925,-4.121738 31.9317,-82.233084 31.079,82.318747 88.0789,4.957815 -68.6839,54.99588 z"
     stroke-miterlimit="4"
     style="fill:none;fill-opacity:1;fill-rule:evenodd;stroke:#fb8626;stroke-width:4;stroke-miterlimit:4;stroke-dasharray:none;stroke-opacity:1" />
</svg>
