<?xml version="1.0" encoding="UTF-8" standalone="no"?>
<svg
   xmlns:dc="http://purl.org/dc/elements/1.1/"
   xmlns:cc="http://creativecommons.org/ns#"
   xmlns:rdf="http://www.w3.org/1999/02/22-rdf-syntax-ns#"
   xmlns:svg="http://www.w3.org/2000/svg"
   xmlns="http://www.w3.org/2000/svg"
   xmlns:xlink="http://www.w3.org/1999/xlink"
   xmlns:sodipodi="http://sodipodi.sourceforge.net/DTD/sodipodi-0.dtd"
   xmlns:inkscape="http://www.inkscape.org/namespaces/inkscape"
   id="svg8"
   version="1.1"
   viewBox="0 0 205.66004 207.89409"
   height="207.89409mm"
   width="205.66005mm"
   sodipodi:docname="bbc-logo.svg"
   inkscape:version="0.92.2 5c3e80d, 2017-08-06">
  <sodipodi:namedview
     pagecolor="#ffffff"
     bordercolor="#666666"
     borderopacity="1"
     objecttolerance="10"
     gridtolerance="10"
     guidetolerance="10"
     inkscape:pageopacity="0"
     inkscape:pageshadow="2"
     inkscape:window-width="1302"
     inkscape:window-height="917"
     id="namedview20"
     showgrid="false"
     inkscape:zoom="0.35788503"
     inkscape:cx="388.64893"
     inkscape:cy="392.87071"
     inkscape:window-x="463"
     inkscape:window-y="154"
     inkscape:window-maximized="0"
     inkscape:current-layer="svg8" />
  <defs
     id="defs2">
    <linearGradient
       inkscape:collect="always"
       id="linearGradient846">
      <stop
         style="stop-color:#fff663;stop-opacity:1;"
         offset="0"
         id="stop842" />
      <stop
         style="stop-color:#fb8626;stop-opacity:1"
         offset="1"
         id="stop844" />
    </linearGradient>
    <marker
       style="overflow:visible"
       id="marker8033"
       refX="0.0"
       refY="0.0"
       orient="auto">
      <path
         transform="scale(1.1) translate(1,0)"
         d="M 8.7185878,4.0337352 L -2.2072895,0.016013256 L 8.7185884,-4.0017078 C 6.9730900,-1.6296469 6.9831476,1.6157441 8.7185878,4.0337352 z "
         style="fill-rule:evenodd;stroke-width:0.625;stroke-linejoin:round;stroke:#FFF663;stroke-opacity:1;fill:#FFF663;fill-opacity:1"
         id="path8031" />
    </marker>
    <marker
       style="overflow:visible"
       id="marker7647"
       refX="0.0"
       refY="0.0"
       orient="auto">
      <path
         transform="scale(1.1) translate(1,0)"
         d="M 8.7185878,4.0337352 L -2.2072895,0.016013256 L 8.7185884,-4.0017078 C 6.9730900,-1.6296469 6.9831476,1.6157441 8.7185878,4.0337352 z "
         style="fill-rule:evenodd;stroke-width:0.625;stroke-linejoin:round;stroke:#FFF663;stroke-opacity:1;fill:#FFF663;fill-opacity:1"
         id="path7645" />
    </marker>
    <linearGradient
       inkscape:collect="always"
       xlink:href="#linearGradient846"
       id="linearGradient864"
       gradientUnits="userSpaceOnUse"
       x1="107.56444"
       y1="48.537979"
       x2="106.21132"
       y2="254.67024" />
    <linearGradient
       inkscape:collect="always"
       xlink:href="#linearGradient846"
       id="linearGradient868"
       gradientUnits="userSpaceOnUse"
       x1="107.56444"
       y1="48.537979"
       x2="106.21132"
       y2="254.67024" />
    <linearGradient
       inkscape:collect="always"
       xlink:href="#linearGradient846"
       id="linearGradient872"
       gradientUnits="userSpaceOnUse"
       x1="107.56444"
       y1="48.537979"
       x2="106.21132"
       y2="254.67024" />
    <radialGradient
       inkscape:collect="always"
       xlink:href="#linearGradient846"
       id="radialGradient894"
       cx="-15.188"
       cy="15.146"
       fx="-15.188"
       fy="15.146"
       r="55.439999"
       gradientTransform="matrix(6.0233179,0.10824534,-0.01792699,0.99754831,76.565673,1.6811646)"
       gradientUnits="userSpaceOnUse" />
    <radialGradient
       inkscape:collect="always"
       xlink:href="#linearGradient846"
       id="radialGradient908"
       cx="-32.521"
       cy="-31.857"
       fx="-32.521"
       fy="-31.857"
       r="55.439999"
       gradientTransform="matrix(5.1737881,-0.02455169,0.00447401,0.94281045,135.87829,-2.620333)"
       gradientUnits="userSpaceOnUse" />
    <radialGradient
       inkscape:collect="always"
       xlink:href="#linearGradient846"
       id="radialGradient916"
       cx="-15.188"
       cy="15.146"
       fx="-15.188"
       fy="15.146"
       r="55.439999"
       gradientTransform="matrix(6.9169585,-0.07365508,0.01003904,0.94276762,89.714713,-0.25183176)"
       gradientUnits="userSpaceOnUse" />
  </defs>
  <metadata
     id="metadata5">
    <rdf:RDF>
      <cc:Work
         rdf:about="">
        <dc:format>image/svg+xml</dc:format>
        <dc:type
           rdf:resource="http://purl.org/dc/dcmitype/StillImage" />
        <dc:title />
      </cc:Work>
    </rdf:RDF>
  </metadata>
  <g
     id="g8"
     transform="matrix(0.54314307,0,0,-0.54314307,111.07931,112.17229)"
     style="fill-opacity:1;stroke:#fb8626;fill:url(#radialGradient894);stroke-opacity:1">
    <path
       style="fill-opacity:1.0;fill-rule:nonzero;stroke:url(#linearGradient864);fill:url(#radialGradient894)"
       id="path10"
       d="M 0,0 C 0,-11.25 -14,-10.583 -14,-10.583 H -28 V 9.75 h 14 C 0.417,9.833 0,0 0,0 m -28,40.75 h 10.667 C -6.25,40.166 -6.667,31.917 -6.667,31.917 -6.667,21.667 -18.917,21.5 -18.917,21.5 H -28 Z M -2.583,17.5 c 0,0 9.583,4.083 9.5,14.917 0,0 1.457,17.749 -22.063,19.916 H -41.25 v -74.416 h 29.917 c 0,0 25,-0.084 25,21 0,0 0.583,14.333 -16.25,18.583 m -67.545,49.416 h 109.88 v -103.54 h -109.88 z"
       inkscape:connector-curvature="0" />
  </g>
  <g
     id="g12"
     transform="matrix(0.54314307,0,0,-0.54314307,42.258442,112.17229)"
     style="fill-opacity:1;stroke:#fff663;fill:url(#radialGradient916);stroke-opacity:1">
    <path
       style="fill-opacity:1.0;fill-rule:nonzero;stroke:url(#linearGradient868);fill:url(#radialGradient916)"
       id="path14"
       d="M 0,0 C 0,-11.25 -14,-10.583 -14,-10.583 H -28 V 9.75 h 14 C 0.417,9.833 0,0 0,0 m -28,40.75 h 10.667 C -6.25,40.166 -6.667,31.917 -6.667,31.917 -6.667,21.667 -18.917,21.5 -18.917,21.5 H -28 Z M -2.583,17.5 c 0,0 9.583,4.083 9.5,14.917 0,0 1.457,17.749 -22.063,19.916 H -41.25 v -74.416 h 29.917 c 0,0 25,-0.084 25,21 0,0 0.583,14.333 -16.25,18.583 m -67.545,49.416 h 109.88 v -103.54 h -109.88 z"
       inkscape:connector-curvature="0" />
  </g>
  <g
     id="g16"
     transform="matrix(0.54314307,0,0,-0.54314307,189.31442,86.645331)"
     style="fill-opacity:1;stroke:#fb8626;fill:url(#radialGradient908);stroke-opacity:1">
    <path
       style="fill-opacity:1.0;fill-rule:nonzero;stroke:url(#linearGradient872);fill:url(#radialGradient908)"
       id="path18"
       d="m 0,0 v -13.75 c 0,0 -13.417,8.25 -28.25,8.417 0,0 -27.666,0.54 -28.916,-26.522 0,0 -1,-24.895 28.583,-26.312 0,0 12.417,-1.5 29.25,9.25 v -14.25 c 0,0 -22.583,-13.416 -48.75,-3.083 0,0 -22,8.04 -22.834,34.395 0,0 -0.917,27.105 28.417,36.105 0,0 7.834,3 21.917,1.667 0,0 8.416,-0.834 20.583,-5.917 m -87.461,-83.627 h 109.88 v 103.54 h -109.88 z"
       inkscape:connector-curvature="0" />
  </g>
  <style
     id="stylebodge1"
     type="text/css">[id^=&quot;polygon&quot;]{fill:#FFF663;fill-opacity:1}</style>
  <style
     id="stylebodge2"
     type="text/css">[id^=&quot;path&quot;]{fill:#FFF663;fill-opacity:1}</style>
</svg>
