<?xml version="1.0" encoding="UTF-8" standalone="no"?>
<svg
   xmlns:dc="http://purl.org/dc/elements/1.1/"
   xmlns:cc="http://creativecommons.org/ns#"
   xmlns:rdf="http://www.w3.org/1999/02/22-rdf-syntax-ns#"
   xmlns:svg="http://www.w3.org/2000/svg"
   xmlns="http://www.w3.org/2000/svg"
   xmlns:xlink="http://www.w3.org/1999/xlink"
   class="icon"
   style="width: 1em; height: 1em;vertical-align: middle;fill: currentColor;overflow: hidden;"
   viewBox="0 0 1024 1024"
   version="1.1"
   id="svg1202">
  <metadata
     id="metadata1208">
    <rdf:RDF>
      <cc:Work
         rdf:about="">
        <dc:format>image/svg+xml</dc:format>
        <dc:type
           rdf:resource="http://purl.org/dc/dcmitype/StillImage" />
        <dc:title></dc:title>
      </cc:Work>
    </rdf:RDF>
  </metadata>
  <defs
     id="defs1206">
    <linearGradient
       id="linearGradient1783">
      <stop
         style="stop-color:#fff663;stop-opacity:1"
         offset="0"
         id="stop1779" />
      <stop
         style="stop-color:#fb8626;stop-opacity:1"
         offset="1"
         id="stop1781" />
    </linearGradient>
    <radialGradient
       xlink:href="#linearGradient1783"
       id="radialGradient1785"
       cx="527.85052"
       cy="570.03339"
       fx="527.85052"
       fy="570.03339"
       r="369.2435"
       gradientTransform="matrix(0.97945733,-0.01608992,0.02574492,1.5671953,-9.8888945,-292.85829)"
       gradientUnits="userSpaceOnUse" />
  </defs>
  <path
     d="M 847.743,168.6354 H 640.639 C 637.507,86.521767 580.462,20.865176 510.781,20.865176 441.1,20.865176 384.055,86.521767 380.923,168.6354 H 173.256 c -17.673,0 -32,17.06942 -32,38.12533 0,21.05591 14.327,38.12533 32,38.12533 h 674.487 c 17.673,0 32,-17.06942 32,-38.12533 0,-21.05591 -14.327,-38.12533 -32,-38.12533 z M 510.781,97.114653 c 34.379,0 62.689,31.484377 65.718,71.519547 H 445.064 c 3.029,-40.03517 31.338,-71.519547 65.717,-71.519547 z M 767.743,320.94253 c -17.673,0 -32,17.06943 -32,38.12533 v 569.7033 H 288.256 v -569.7033 c 0,-21.0559 -14.327,-38.12533 -32,-38.12533 -17.673,0 -32,17.06943 -32,38.12533 v 607.82863 c 0,21.05591 14.327,38.12531 32,38.12531 h 511.487 c 17.673,0 32,-17.0694 32,-38.12531 V 359.06786 c 0,-21.0559 -14.327,-38.12533 -32,-38.12533 z M 449.306,774.88658 V 435.81654 c 0,-21.0559 -14.327,-38.12533 -32,-38.12533 -17.673,0 -32,17.06943 -32,38.12533 V 774.8854 c 0,21.0559 14.327,38.12533 32,38.12533 17.673,0 32,-17.06824 32,-38.12415 z m 191.534,0 V 435.81654 c 0,-21.0559 -14.327,-38.12533 -32,-38.12533 -17.673,0 -32,17.06943 -32,38.12533 V 774.8854 c 0,21.0559 14.327,38.12533 32,38.12533 17.673,0 32,-17.06824 32,-38.12415 z"
     id="path1200"
     style="stroke-width:1.09152;stroke:none;fill-opacity:1;fill:url(#radialGradient1785)" />
</svg>
