<?xml version="1.0" encoding="UTF-8" standalone="no"?>
<!-- Generator: Adobe Illustrator 16.0.0, SVG Export Plug-In . SVG Version: 6.00 Build 0)  -->

<svg
   xmlns:dc="http://purl.org/dc/elements/1.1/"
   xmlns:cc="http://creativecommons.org/ns#"
   xmlns:rdf="http://www.w3.org/1999/02/22-rdf-syntax-ns#"
   xmlns:svg="http://www.w3.org/2000/svg"
   xmlns="http://www.w3.org/2000/svg"
   xmlns:xlink="http://www.w3.org/1999/xlink"
   xmlns:sodipodi="http://sodipodi.sourceforge.net/DTD/sodipodi-0.dtd"
   xmlns:inkscape="http://www.inkscape.org/namespaces/inkscape"
   version="1.1"
   id="Layer_1"
   x="0px"
   y="0px"
   width="100px"
   height="100px"
   viewBox="0 0 100 100"
   enable-background="new 0 0 100 100"
   xml:space="preserve"
   sodipodi:docname="history.svg"
   inkscape:version="0.92.2 5c3e80d, 2017-08-06"><metadata
     id="metadata9"><rdf:RDF><cc:Work
         rdf:about=""><dc:format>image/svg+xml</dc:format><dc:type
           rdf:resource="http://purl.org/dc/dcmitype/StillImage" /></cc:Work></rdf:RDF></metadata><defs
     id="defs7"><linearGradient
       inkscape:collect="always"
       id="linearGradient823"><stop
         style="stop-color:#fff663;stop-opacity:1"
         offset="0"
         id="stop819" /><stop
         style="stop-color:#fb8626;stop-opacity:1"
         offset="1"
         id="stop821" /></linearGradient><radialGradient
       inkscape:collect="always"
       xlink:href="#linearGradient823"
       id="radialGradient825"
       cx="50.167"
       cy="50.1665"
       fx="50.167"
       fy="50.1665"
       r="38.965768"
       gradientTransform="matrix(-3.9369715,-0.05437193,0.01683933,-1.2193055,246.82828,114.06247)"
       gradientUnits="userSpaceOnUse" /></defs><sodipodi:namedview
     pagecolor="#ffffff"
     bordercolor="#666666"
     borderopacity="1"
     objecttolerance="10"
     gridtolerance="10"
     guidetolerance="10"
     inkscape:pageopacity="0"
     inkscape:pageshadow="2"
     inkscape:window-width="1173"
     inkscape:window-height="707"
     id="namedview5"
     showgrid="false"
     inkscape:zoom="2.36"
     inkscape:cx="6.5677966"
     inkscape:cy="16.101695"
     inkscape:window-x="547"
     inkscape:window-y="275"
     inkscape:window-maximized="0"
     inkscape:current-layer="Layer_1" /><path
     d="m 89.132768,26.837431 v 61.703511 c 0,5.040263 -4.100998,9.141261 -9.141262,9.141261 H 38.284504 c -5.040264,0 -9.141262,-4.100998 -9.141262,-9.141261 V 48.419948 c 1.303772,0.217105 2.633826,0.357652 3.999302,0.357652 0.967831,0 1.918522,-0.07198 2.856644,-0.182825 v 39.946167 c 0,1.260352 1.024964,2.285316 2.285316,2.285316 h 41.707002 c 1.260352,0 2.285316,-1.024964 2.285316,-2.285316 V 26.837431 c 0,-1.260352 -1.024964,-2.285316 -2.285316,-2.285316 H 57.368028 c 0,-2.383584 -0.357652,-4.680325 -0.999825,-6.855946 h 23.623303 c 5.040264,0 9.141262,4.100999 9.141262,9.141262 z M 32.760896,45.770125 c -11.88821,0 -21.559664,-9.671454 -21.559664,-21.559664 0,-11.88821 9.671454,-21.5596644 21.559664,-21.5596644 11.88821,0 21.559664,9.6714544 21.559664,21.5596644 0,11.88821 -9.671454,21.559664 -21.559664,21.559664 z m 0,-4.570631 c 9.367508,0 16.989034,-7.620383 16.989034,-16.989033 0,-9.36865 -7.620384,-16.9890338 -16.989034,-16.9890338 -9.36865,0 -16.989033,7.6203838 -16.989033,16.9890338 0,9.36865 7.621526,16.989033 16.989033,16.989033 z M 45.69121,26.495776 c 1.261494,0 2.285316,-1.023821 2.285316,-2.285315 0,-1.261494 -1.023822,-2.285316 -2.285316,-2.285316 H 35.046212 v -8.971004 c 0,-1.261494 -1.023822,-2.285316 -2.285316,-2.285316 -1.261494,0 -2.285315,1.023822 -2.285315,2.285316 v 11.25632 c 0,1.261494 1.023821,2.285315 2.285315,2.285315 z m 26.375966,18.529336 h -24.75682 c -1.261494,0 -2.285316,1.023821 -2.285316,2.285315 0,1.261494 1.023822,2.285316 2.285316,2.285316 h 24.757963 c 1.261494,0 2.285315,-1.023822 2.285315,-2.285316 0,-1.261494 -1.023821,-2.285315 -2.286458,-2.285315 z m 0.04114,13.862722 H 47.350349 c -1.261494,0 -2.285315,1.023821 -2.285315,2.285315 0,1.261494 1.023821,2.285316 2.285315,2.285316 h 24.757963 c 1.261494,0 2.285315,-1.023822 2.285315,-2.285316 0,-1.261494 -1.022679,-2.285315 -2.285315,-2.285315 z m 0,14.436337 H 47.350349 c -1.261494,0 -2.285315,1.023821 -2.285315,2.285315 0,1.261494 1.023821,2.285315 2.285315,2.285315 h 24.757963 c 1.261494,0 2.285315,-1.023821 2.285315,-2.285315 0,-1.261494 -1.022679,-2.285315 -2.285315,-2.285315 z"
     id="path2"
     inkscape:connector-curvature="0"
     style="fill:url(#radialGradient825);stroke-width:1.14265752;fill-opacity:1" /></svg>