<?xml version="1.0" encoding="UTF-8" standalone="no"?>
<!-- Generator: Adobe Illustrator 16.0.0, SVG Export Plug-In . SVG Version: 6.00 Build 0)  -->

<svg
   xmlns:dc="http://purl.org/dc/elements/1.1/"
   xmlns:cc="http://creativecommons.org/ns#"
   xmlns:rdf="http://www.w3.org/1999/02/22-rdf-syntax-ns#"
   xmlns:svg="http://www.w3.org/2000/svg"
   xmlns="http://www.w3.org/2000/svg"
   xmlns:xlink="http://www.w3.org/1999/xlink"
   xmlns:sodipodi="http://sodipodi.sourceforge.net/DTD/sodipodi-0.dtd"
   xmlns:inkscape="http://www.inkscape.org/namespaces/inkscape"
   version="1.1"
   id="Layer_1"
   x="0px"
   y="0px"
   width="512px"
   height="512px"
   viewBox="0 0 512 512"
   enable-background="new 0 0 512 512"
   xml:space="preserve"
   sodipodi:docname="movie-1.svg"
   inkscape:version="0.92.2 5c3e80d, 2017-08-06"><metadata
     id="metadata9"><rdf:RDF><cc:Work
         rdf:about=""><dc:format>image/svg+xml</dc:format><dc:type
           rdf:resource="http://purl.org/dc/dcmitype/StillImage" /></cc:Work></rdf:RDF></metadata><defs
     id="defs7"><linearGradient
       inkscape:collect="always"
       id="linearGradient823"><stop
         style="stop-color:#fff663;stop-opacity:1"
         offset="0"
         id="stop819" /><stop
         style="stop-color:#fb8626;stop-opacity:1"
         offset="1"
         id="stop821" /></linearGradient><radialGradient
       inkscape:collect="always"
       xlink:href="#linearGradient823"
       id="radialGradient825"
       cx="256"
       cy="256"
       fx="256"
       fy="256"
       r="256"
       gradientUnits="userSpaceOnUse"
       gradientTransform="matrix(-3.1101695,0.01694915,-0.00544951,-0.99998515,1053.5985,507.65722)" /></defs><sodipodi:namedview
     pagecolor="#ffffff"
     bordercolor="#666666"
     borderopacity="1"
     objecttolerance="10"
     gridtolerance="10"
     guidetolerance="10"
     inkscape:pageopacity="0"
     inkscape:pageshadow="2"
     inkscape:window-width="1253"
     inkscape:window-height="905"
     id="namedview5"
     showgrid="false"
     inkscape:zoom="0.4609375"
     inkscape:cx="-139.9322"
     inkscape:cy="256"
     inkscape:window-x="584"
     inkscape:window-y="101"
     inkscape:window-maximized="0"
     inkscape:current-layer="Layer_1" /><path
     d="M480,0H32C14.313,0,0,14.328,0,32v448c0,17.688,14.313,32,32,32h448c17.688,0,32-14.313,32-32V32  C512,14.328,497.688,0,480,0z M320,32l32,64h-64l-32-64H320z M192,32l32,64h-64l-32-64H192z M32,32h32l32,64H32V32z M480,480H32V128  h448V480z M480,96h-64l-32-64h64l32,32V96z M355.375,289.688c15.75,7.875,15.75,20.75,0,28.625l-166.75,83.375  C172.875,409.563,160,401.594,160,384V224c0-17.594,12.875-25.563,28.625-17.688L355.375,289.688z"
     id="path2"
     style="fill-opacity:1;fill:url(#radialGradient825)" /></svg>