<?xml version="1.0" encoding="UTF-8" standalone="no"?>
<!-- Generator: Adobe Illustrator 18.0.0, SVG Export Plug-In . SVG Version: 6.00 Build 0)  -->

<svg
   xmlns:dc="http://purl.org/dc/elements/1.1/"
   xmlns:cc="http://creativecommons.org/ns#"
   xmlns:rdf="http://www.w3.org/1999/02/22-rdf-syntax-ns#"
   xmlns:svg="http://www.w3.org/2000/svg"
   xmlns="http://www.w3.org/2000/svg"
   xmlns:xlink="http://www.w3.org/1999/xlink"
   xmlns:sodipodi="http://sodipodi.sourceforge.net/DTD/sodipodi-0.dtd"
   xmlns:inkscape="http://www.inkscape.org/namespaces/inkscape"
   version="1.1"
   id="Capa_1"
   x="0px"
   y="0px"
   viewBox="0 0 348.082 348.082"
   style="enable-background:new 0 0 348.082 348.082;"
   xml:space="preserve"
   sodipodi:docname="compact-disc.svg"
   inkscape:version="0.92.2 5c3e80d, 2017-08-06"><metadata
     id="metadata39"><rdf:RDF><cc:Work
         rdf:about=""><dc:format>image/svg+xml</dc:format><dc:type
           rdf:resource="http://purl.org/dc/dcmitype/StillImage" /></cc:Work></rdf:RDF></metadata><defs
     id="defs37"><linearGradient
       inkscape:collect="always"
       id="linearGradient833"><stop
         style="stop-color:#DDDDDD;stop-opacity:1;"
         offset="0"
         id="stop829" /><stop
         style="stop-color:#333333;stop-opacity:1"
         offset="1"
         id="stop831" /></linearGradient><linearGradient
       inkscape:collect="always"
       xlink:href="#linearGradient833"
       id="linearGradient835"
       x1="176.99084"
       y1="1.4754273"
       x2="179.94093"
       y2="340.70789"
       gradientUnits="userSpaceOnUse" /></defs><sodipodi:namedview
     pagecolor="#ffffff"
     bordercolor="#666666"
     borderopacity="1"
     objecttolerance="10"
     gridtolerance="10"
     guidetolerance="10"
     inkscape:pageopacity="0"
     inkscape:pageshadow="2"
     inkscape:window-width="1759"
     inkscape:window-height="1076"
     id="namedview35"
     showgrid="false"
     inkscape:zoom="0.67800116"
     inkscape:cx="-91.445272"
     inkscape:cy="174.041"
     inkscape:window-x="0"
     inkscape:window-y="0"
     inkscape:window-maximized="0"
     inkscape:current-layer="Capa_1" /><path
     d="M297.107,50.976c-67.967-67.967-178.164-67.967-246.131,0c-67.968,67.967-67.968,178.164,0,246.131  c67.967,67.967,178.164,67.967,246.131,0C365.074,229.14,365.074,118.943,297.107,50.976z M79.452,295.602  c-10.241-7.624-19.35-16.731-26.973-26.972c22.998-17.114,46.002-34.22,69.002-51.331c3.159,4.246,5.056,6.143,9.3,9.299  C113.671,249.6,96.561,272.6,79.452,295.602z M209.397,209.397c-19.526,19.526-51.186,19.525-70.711,0  c-19.526-19.526-19.526-51.185,0-70.711c19.526-19.526,51.185-19.526,70.711,0C228.922,158.211,228.923,189.87,209.397,209.397z   M226.6,130.783c-3.159-4.246-5.056-6.144-9.299-9.298c17.109-23.001,34.221-46.001,51.329-69.004  c10.241,7.623,19.349,16.73,26.972,26.972C272.605,96.567,249.6,113.672,226.6,130.783z"
     id="path2"
     style="fill:url(#linearGradient835);fill-opacity:1" /><g
     id="g4" /><g
     id="g6" /><g
     id="g8" /><g
     id="g10" /><g
     id="g12" /><g
     id="g14" /><g
     id="g16" /><g
     id="g18" /><g
     id="g20" /><g
     id="g22" /><g
     id="g24" /><g
     id="g26" /><g
     id="g28" /><g
     id="g30" /><g
     id="g32" /><style
     id="stylebodge1"
     type="text/css">[id^=&quot;polygon&quot;]{fill:#DDDDDD;fill-opacity:1}</style><style
     id="stylebodge2"
     type="text/css">[id^=&quot;path&quot;]{fill:#DDDDDD;fill-opacity:1}</style></svg>