<?xml version="1.0" encoding="UTF-8" standalone="no"?>
<svg
   xmlns:dc="http://purl.org/dc/elements/1.1/"
   xmlns:cc="http://creativecommons.org/ns#"
   xmlns:rdf="http://www.w3.org/1999/02/22-rdf-syntax-ns#"
   xmlns:svg="http://www.w3.org/2000/svg"
   xmlns="http://www.w3.org/2000/svg"
   xmlns:xlink="http://www.w3.org/1999/xlink"
   xmlns:sodipodi="http://sodipodi.sourceforge.net/DTD/sodipodi-0.dtd"
   xmlns:inkscape="http://www.inkscape.org/namespaces/inkscape"
   width="205.66005mm"
   height="207.89409mm"
   viewBox="0 0 205.66004 207.89409"
   version="1.1"
   id="svg8"
   sodipodi:docname="output_mute.svg"
   inkscape:version="0.92.2 5c3e80d, 2017-08-06">
  <sodipodi:namedview
     pagecolor="#ffffff"
     bordercolor="#666666"
     borderopacity="1"
     objecttolerance="10"
     gridtolerance="10"
     guidetolerance="10"
     inkscape:pageopacity="0"
     inkscape:pageshadow="2"
     inkscape:window-width="1571"
     inkscape:window-height="1098"
     id="namedview30"
     showgrid="false"
     inkscape:zoom="0.30035326"
     inkscape:cx="388.64891"
     inkscape:cy="392.87072"
     inkscape:window-x="472"
     inkscape:window-y="120"
     inkscape:window-maximized="0"
     inkscape:current-layer="svg8" />
  <defs
     id="defs2">
    <linearGradient
       inkscape:collect="always"
       id="linearGradient844">
      <stop
         style="stop-color:#DDDDDD;stop-opacity:1;"
         offset="0"
         id="stop840" />
      <stop
         style="stop-color:#333333;stop-opacity:1"
         offset="1"
         id="stop842" />
    </linearGradient>
    <linearGradient
       inkscape:collect="always"
       xlink:href="#linearGradient844"
       id="linearGradient846"
       x1="103.06612"
       y1="-0.88090974"
       x2="105.23663"
       y2="209.65588"
       gradientUnits="userSpaceOnUse" />
    <linearGradient
       inkscape:collect="always"
       xlink:href="#linearGradient844"
       id="linearGradient862"
       x1="276.34128"
       y1="-138.59521"
       x2="252.18721"
       y2="650.47565"
       gradientUnits="userSpaceOnUse" />
  </defs>
  <metadata
     id="metadata5">
    <rdf:RDF>
      <cc:Work
         rdf:about="">
        <dc:format>image/svg+xml</dc:format>
        <dc:type
           rdf:resource="http://purl.org/dc/dcmitype/StillImage" />
        <dc:title />
      </cc:Work>
    </rdf:RDF>
  </metadata>
  <ellipse
     ry="94.947044"
     rx="93.830025"
     cy="103.94704"
     cx="102.83002"
     id="path815"
     style="opacity:1;fill:none;fill-opacity:1;stroke:url(#linearGradient846);stroke-width:18;stroke-linecap:round;stroke-linejoin:miter;stroke-miterlimit:4;stroke-dasharray:none;stroke-opacity:1" />
  <g
     transform="matrix(0.26458332,0,0,0.26458332,35.552831,36.669983)"
     id="g1944"
     style="stroke:none;fill-opacity:1;fill:url(#linearGradient862)">
    <g
       id="g1884"
       style="stroke:none;fill-opacity:1.0;fill:url(#linearGradient862)">
      <g
         id="g1882"
         style="stroke:none;fill-opacity:1.0;fill:url(#linearGradient862)">
        <g
           id="g1880"
           style="stroke:none;fill-opacity:1.0;fill:url(#linearGradient862)">
          <g
             id="g1878"
             style="stroke:none;fill-opacity:1.0;fill:url(#linearGradient862)">
            <path
               style="fill:url(#linearGradient862);stroke:none;fill-opacity:1.0"
               d="m 263.381,0.079 -2.352,-0.064 c -5.244,0 -11.251,1.621 -18.116,5.784 0,0 -132.533,115.625 -138.317,121.346 H 31.782 C 14.239,127.146 0,141.384 0,158.928 V 353.66 c 0,17.576 14.239,31.782 31.782,31.782 h 72.814 c 5.784,5.721 138.317,117.246 138.317,117.246 6.865,4.227 12.872,5.848 18.116,5.848 l 2.352,-0.095 c 11.76,-1.112 20.15,-10.965 22.661,-21.358 V 21.501 C 283.563,11.044 275.141,1.192 263.381,0.079 Z M 254.26,470.778 C 204.679,429.016 132.883,368.279 127.003,362.876 c -5.943,-5.975 -13.984,-9.249 -22.438,-9.249 H 31.782 v -4.036 -190.695 h 72.814 c 8.136,0 16.304,-3.401 22.152,-8.994 5.784,-5.467 77.613,-68.301 127.511,-111.843 v 432.719 z"
               id="path1874" />
            <path
               style="fill:url(#linearGradient862);stroke:none;fill-opacity:1.0"
               d="m 448.006,254.276 54.825,-54.857 c 7.628,-7.564 7.628,-19.864 0,-27.428 -7.532,-7.564 -19.864,-7.564 -27.397,0 l -54.857,54.857 -54.92,-54.857 c -7.532,-7.564 -19.864,-7.564 -27.397,0 -7.564,7.564 -7.564,19.864 0,27.428 l 54.888,54.857 -54.888,54.888 c -7.564,7.532 -7.564,19.864 0,27.396 7.532,7.564 19.864,7.564 27.396,0 l 54.92,-54.857 54.857,54.857 c 7.532,7.564 19.864,7.564 27.397,0 7.564,-7.532 7.564,-19.864 0,-27.396 z"
               id="path1876" />
          </g>
        </g>
      </g>
    </g>
    <g
       id="g1886"
       style="stroke:none;fill-opacity:1.0;fill:url(#linearGradient862)" />
    <g
       id="g1888"
       style="stroke:none;fill-opacity:1.0;fill:url(#linearGradient862)" />
    <g
       id="g1890"
       style="stroke:none;fill-opacity:1.0;fill:url(#linearGradient862)" />
    <g
       id="g1892"
       style="stroke:none;fill-opacity:1.0;fill:url(#linearGradient862)" />
    <g
       id="g1894"
       style="stroke:none;fill-opacity:1.0;fill:url(#linearGradient862)" />
    <g
       id="g1896"
       style="stroke:none;fill-opacity:1.0;fill:url(#linearGradient862)" />
    <g
       id="g1898"
       style="stroke:none;fill-opacity:1.0;fill:url(#linearGradient862)" />
    <g
       id="g1900"
       style="stroke:none;fill-opacity:1.0;fill:url(#linearGradient862)" />
    <g
       id="g1902"
       style="stroke:none;fill-opacity:1.0;fill:url(#linearGradient862)" />
    <g
       id="g1904"
       style="stroke:none;fill-opacity:1.0;fill:url(#linearGradient862)" />
    <g
       id="g1906"
       style="stroke:none;fill-opacity:1.0;fill:url(#linearGradient862)" />
    <g
       id="g1908"
       style="stroke:none;fill-opacity:1.0;fill:url(#linearGradient862)" />
    <g
       id="g1910"
       style="stroke:none;fill-opacity:1.0;fill:url(#linearGradient862)" />
    <g
       id="g1912"
       style="stroke:none;fill-opacity:1.0;fill:url(#linearGradient862)" />
    <g
       id="g1914"
       style="stroke:none;fill-opacity:1.0;fill:url(#linearGradient862)" />
  </g>
  <style
     id="stylebodge1"
     type="text/css">[id^=&quot;polygon&quot;]{fill:#DDDDDD;fill-opacity:1}</style>
  <style
     id="stylebodge2"
     type="text/css">[id^=&quot;path&quot;]{fill:#DDDDDD;fill-opacity:1}</style>
</svg>
