<?xml version="1.0" encoding="UTF-8" standalone="no"?>
<svg
   xmlns:dc="http://purl.org/dc/elements/1.1/"
   xmlns:cc="http://creativecommons.org/ns#"
   xmlns:rdf="http://www.w3.org/1999/02/22-rdf-syntax-ns#"
   xmlns:svg="http://www.w3.org/2000/svg"
   xmlns="http://www.w3.org/2000/svg"
   xmlns:xlink="http://www.w3.org/1999/xlink"
   xmlns:sodipodi="http://sodipodi.sourceforge.net/DTD/sodipodi-0.dtd"
   xmlns:inkscape="http://www.inkscape.org/namespaces/inkscape"
   width="205.66005mm"
   height="207.89409mm"
   viewBox="0 0 205.66004 207.89409"
   version="1.1"
   id="svg8"
   sodipodi:docname="parental-advisory.svg"
   inkscape:version="0.92.2 5c3e80d, 2017-08-06">
  <sodipodi:namedview
     pagecolor="#ffffff"
     bordercolor="#666666"
     borderopacity="1"
     objecttolerance="10"
     gridtolerance="10"
     guidetolerance="10"
     inkscape:pageopacity="0"
     inkscape:pageshadow="2"
     inkscape:window-width="1721"
     inkscape:window-height="934"
     id="namedview89"
     showgrid="false"
     inkscape:zoom="0.30035326"
     inkscape:cx="388.64891"
     inkscape:cy="392.87072"
     inkscape:window-x="380"
     inkscape:window-y="161"
     inkscape:window-maximized="0"
     inkscape:current-layer="svg8" />
  <defs
     id="defs2">
    <linearGradient
       inkscape:collect="always"
       id="linearGradient900">
      <stop
         style="stop-color:#DDDDDD;stop-opacity:1;"
         offset="0"
         id="stop896" />
      <stop
         style="stop-color:#333333;stop-opacity:1"
         offset="1"
         id="stop898" />
    </linearGradient>
    <linearGradient
       gradientUnits="userSpaceOnUse"
       x1="30.06"
       y1="30.06"
       x2="225.94001"
       y2="225.94001"
       id="RSSg">
      <stop
         offset="0.0"
         stop-color="#E3702D"
         id="stop6" />
      <stop
         offset="0.1071"
         stop-color="#EA7D31"
         id="stop8" />
      <stop
         offset="0.3503"
         stop-color="#F69537"
         id="stop10" />
      <stop
         offset="0.5"
         stop-color="#FB9E3A"
         id="stop12" />
      <stop
         offset="0.7016"
         stop-color="#EA7C31"
         id="stop14" />
      <stop
         offset="0.8866"
         stop-color="#DE642B"
         id="stop16" />
      <stop
         offset="1.0"
         stop-color="#D95B29"
         id="stop18" />
    </linearGradient>
    <filter
       x="0"
       y="0"
       width="1"
       height="1"
       color-interpolation-filters="sRGB"
       id="filter3011">
      <feColorMatrix
         type="saturate"
         values="0"
         id="feColorMatrix3013"
         result="fbSourceGraphic" />
      <feColorMatrix
         result="fbSourceGraphicAlpha"
         in="fbSourceGraphic"
         values="0 0 0 -1 0 0 0 0 -1 0 0 0 0 -1 0 0 0 0 1 0"
         id="feColorMatrix3035" />
      <feFlood
         id="feFlood3037"
         result="result1"
         flood-opacity="0"
         flood-color="rgb(128,128,128)"
         in="fbSourceGraphic" />
      <feBlend
         id="feBlend3039"
         in2="fbSourceGraphic"
         mode="normal"
         result="result2" />
      <feComposite
         id="feComposite3041"
         in2="fbSourceGraphic"
         k2="1"
         operator="arithmetic"
         result="result3" />
      <feComposite
         id="feComposite3043"
         in2="fbSourceGraphic"
         operator="in" />
    </filter>
    <filter
       x="0"
       y="0"
       width="1"
       height="1"
       color-interpolation-filters="sRGB"
       id="filter3015">
      <feColorMatrix
         type="saturate"
         values="0"
         id="feColorMatrix3017"
         result="fbSourceGraphic" />
      <feColorMatrix
         result="fbSourceGraphicAlpha"
         in="fbSourceGraphic"
         values="0 0 0 -1 0 0 0 0 -1 0 0 0 0 -1 0 0 0 0 1 0"
         id="feColorMatrix3045" />
      <feFlood
         id="feFlood3047"
         result="result1"
         flood-opacity="0"
         flood-color="rgb(128,128,128)"
         in="fbSourceGraphic" />
      <feBlend
         id="feBlend3049"
         in2="fbSourceGraphic"
         mode="normal"
         result="result2" />
      <feComposite
         id="feComposite3051"
         in2="fbSourceGraphic"
         k2="1"
         operator="arithmetic"
         result="result3" />
      <feComposite
         id="feComposite3053"
         in2="fbSourceGraphic"
         operator="in" />
    </filter>
    <filter
       x="0"
       y="0"
       width="1"
       height="1"
       color-interpolation-filters="sRGB"
       id="filter3019">
      <feColorMatrix
         type="saturate"
         values="0"
         id="feColorMatrix3021"
         result="fbSourceGraphic" />
      <feColorMatrix
         result="fbSourceGraphicAlpha"
         in="fbSourceGraphic"
         values="0 0 0 -1 0 0 0 0 -1 0 0 0 0 -1 0 0 0 0 1 0"
         id="feColorMatrix3055" />
      <feFlood
         id="feFlood3057"
         result="result1"
         flood-opacity="0"
         flood-color="rgb(128,128,128)"
         in="fbSourceGraphic" />
      <feBlend
         id="feBlend3059"
         in2="fbSourceGraphic"
         mode="normal"
         result="result2" />
      <feComposite
         id="feComposite3061"
         in2="fbSourceGraphic"
         k2="1"
         operator="arithmetic"
         result="result3" />
      <feComposite
         id="feComposite3063"
         in2="fbSourceGraphic"
         operator="in" />
    </filter>
    <filter
       x="0"
       y="0"
       width="1"
       height="1"
       color-interpolation-filters="sRGB"
       id="filter3023">
      <feColorMatrix
         type="saturate"
         values="0"
         id="feColorMatrix3025"
         result="fbSourceGraphic" />
      <feColorMatrix
         result="fbSourceGraphicAlpha"
         in="fbSourceGraphic"
         values="0 0 0 -1 0 0 0 0 -1 0 0 0 0 -1 0 0 0 0 1 0"
         id="feColorMatrix3065" />
      <feFlood
         id="feFlood3067"
         result="result1"
         flood-opacity="0"
         flood-color="rgb(128,128,128)"
         in="fbSourceGraphic" />
      <feBlend
         id="feBlend3069"
         in2="fbSourceGraphic"
         mode="normal"
         result="result2" />
      <feComposite
         id="feComposite3071"
         in2="fbSourceGraphic"
         k2="1"
         operator="arithmetic"
         result="result3" />
      <feComposite
         id="feComposite3073"
         in2="fbSourceGraphic"
         operator="in" />
    </filter>
    <filter
       x="0"
       y="0"
       width="1"
       height="1"
       color-interpolation-filters="sRGB"
       id="filter3027">
      <feColorMatrix
         type="saturate"
         values="0"
         id="feColorMatrix3029"
         result="fbSourceGraphic" />
      <feColorMatrix
         result="fbSourceGraphicAlpha"
         in="fbSourceGraphic"
         values="0 0 0 -1 0 0 0 0 -1 0 0 0 0 -1 0 0 0 0 1 0"
         id="feColorMatrix3075" />
      <feFlood
         id="feFlood3077"
         result="result1"
         flood-opacity="0"
         flood-color="rgb(128,128,128)"
         in="fbSourceGraphic" />
      <feBlend
         id="feBlend3079"
         in2="fbSourceGraphic"
         mode="normal"
         result="result2" />
      <feComposite
         id="feComposite3081"
         in2="fbSourceGraphic"
         k2="1"
         operator="arithmetic"
         result="result3" />
      <feComposite
         id="feComposite3083"
         in2="fbSourceGraphic"
         operator="in" />
    </filter>
    <filter
       x="0"
       y="0"
       width="1"
       height="1"
       color-interpolation-filters="sRGB"
       id="filter3031">
      <feColorMatrix
         type="saturate"
         values="0"
         id="feColorMatrix3033"
         result="fbSourceGraphic" />
      <feColorMatrix
         result="fbSourceGraphicAlpha"
         in="fbSourceGraphic"
         values="0 0 0 -1 0 0 0 0 -1 0 0 0 0 -1 0 0 0 0 1 0"
         id="feColorMatrix3085" />
      <feFlood
         id="feFlood3087"
         result="result1"
         flood-opacity="0"
         flood-color="rgb(128,128,128)"
         in="fbSourceGraphic" />
      <feBlend
         id="feBlend3089"
         in2="fbSourceGraphic"
         mode="normal"
         result="result2" />
      <feComposite
         id="feComposite3091"
         in2="fbSourceGraphic"
         k2="1"
         operator="arithmetic"
         result="result3" />
      <feComposite
         id="feComposite3093"
         in2="fbSourceGraphic"
         operator="in" />
    </filter>
    <linearGradient
       gradientTransform="matrix(0.26457861,0,0,0.26457861,230.32804,74.522725)"
       id="linearGradient3028"
       y2="173.78"
       gradientUnits="userSpaceOnUse"
       x2="176.34"
       y1="-22.556"
       x1="123.74">
      <stop
         id="stop4"
         stop-color="#F8E643"
         offset="0" />
      <stop
         id="stop6-7"
         stop-color="#BFA233"
         offset="1" />
    </linearGradient>
    <linearGradient
       gradientTransform="matrix(0.26457861,0,0,0.26457861,230.32804,74.522725)"
       id="linearGradient3030"
       y2="-10.973"
       gradientUnits="userSpaceOnUse"
       x2="173.24"
       y1="162.17"
       x1="126.84">
      <stop
         id="stop11"
         stop-color="#F8E643"
         offset="0" />
      <stop
         id="stop13"
         stop-color="#BFA233"
         offset="1" />
    </linearGradient>
    <linearGradient
       gradientTransform="matrix(0.26457861,0,0,0.26457861,230.32804,74.522725)"
       id="linearGradient3032"
       y2="158.03"
       gradientUnits="userSpaceOnUse"
       x2="172.12"
       y1="-6.8291"
       x1="127.95">
      <stop
         id="stop18-9"
         stop-color="#F8E643"
         offset="0" />
      <stop
         id="stop20"
         stop-color="#BFA233"
         offset="1" />
    </linearGradient>
    <linearGradient
       inkscape:collect="always"
       xlink:href="#linearGradient900"
       id="linearGradient902"
       x1="1.1170249"
       y1="83.450058"
       x2="-208.13019"
       y2="82.569153"
       gradientUnits="userSpaceOnUse" />
  </defs>
  <metadata
     id="metadata5">
    <rdf:RDF>
      <cc:Work
         rdf:about="">
        <dc:format>image/svg+xml</dc:format>
        <dc:type
           rdf:resource="http://purl.org/dc/dcmitype/StillImage" />
        <dc:title />
      </cc:Work>
    </rdf:RDF>
  </metadata>
  <style
     type="text/css"
     id="style3111">
	.st0{fill:#DDDDDD;}
</style>
  <style
     type="text/css"
     id="style2">
	.st0{fill:none;}
	.st1{fill:#F4481E;}
	.st2{fill:url(#SVGID_1_);}
	.st3{opacity:0.1;fill:#FFFFFF;enable-background:new    ;}
	.st4{fill:#FFD119;}
	.st5{fill:#FF8C00;}
	.st6{fill:url(#SVGID_2_);}
	.st7{fill:#FAFAFA;}
	.st8{opacity:0.3;fill:#FFFFFF;enable-background:new    ;}
</style>
  <g
     transform="matrix(0.26458332,0,0,0.26458332,229.5367,39.400622)"
     id="g5135" />
  <g
     transform="matrix(0.26458332,0,0,0.26458332,229.5367,39.400622)"
     id="g5137" />
  <g
     transform="matrix(0.26458332,0,0,0.26458332,229.5367,39.400622)"
     id="g5139" />
  <g
     transform="matrix(0.26458332,0,0,0.26458332,229.5367,39.400622)"
     id="g5141" />
  <g
     transform="matrix(0.26458332,0,0,0.26458332,229.5367,39.400622)"
     id="g5143" />
  <g
     transform="matrix(0.26458332,0,0,0.26458332,229.5367,39.400622)"
     id="g5145" />
  <g
     transform="matrix(0.26458332,0,0,0.26458332,229.5367,39.400622)"
     id="g5147" />
  <g
     transform="matrix(0.26458332,0,0,0.26458332,229.5367,39.400622)"
     id="g5149" />
  <g
     transform="matrix(0.26458332,0,0,0.26458332,229.5367,39.400622)"
     id="g5151" />
  <g
     transform="matrix(0.26458332,0,0,0.26458332,229.5367,39.400622)"
     id="g5153" />
  <g
     transform="matrix(0.26458332,0,0,0.26458332,229.5367,39.400622)"
     id="g5155" />
  <g
     transform="matrix(0.26458332,0,0,0.26458332,229.5367,39.400622)"
     id="g5157" />
  <g
     transform="matrix(0.26458332,0,0,0.26458332,229.5367,39.400622)"
     id="g5159" />
  <g
     transform="matrix(0.26458332,0,0,0.26458332,229.5367,39.400622)"
     id="g5161" />
  <g
     transform="matrix(0.26458332,0,0,0.26458332,229.5367,39.400622)"
     id="g5163" />
  <ellipse
     transform="rotate(-90)"
     ry="94.947044"
     rx="93.830025"
     cy="102.83002"
     cx="-103.94704"
     id="path815"
     style="opacity:1;fill:none;fill-opacity:1;stroke:url(#linearGradient902);stroke-width:18;stroke-linecap:round;stroke-linejoin:miter;stroke-miterlimit:4;stroke-dasharray:none;stroke-opacity:1" />
  <path
     d="m 161.23858,132.77732 c -1.74782,0 -3.40264,-0.38887 -4.91982,-1.15529 -1.08005,-0.54712 -2.09482,-1.28796 -3.03294,-2.21332 l -0.49817,1.9302 -0.16334,0.63794 h -14.355 V 75.115335 h 15.46131 v 11.923811 c 0.81324,-0.697559 1.68111,-1.264554 2.59224,-1.690309 1.5243,-0.703245 3.18056,-1.05948 4.92977,-1.05948 1.98909,0 3.75391,0.319329 5.2484,0.949487 1.53918,0.657811 2.73135,1.595954 3.54812,2.788117 0.79832,1.174409 1.28797,2.347423 1.45686,3.489217 0.15395,1.0907 0.23066,3.326708 0.23066,6.654139 V 118.5181 c 0,3.43177 -0.22852,5.92751 -0.70325,7.63061 -0.48468,1.79818 -1.64562,3.37638 -3.44664,4.68352 -1.78684,1.29363 -3.92139,1.94651 -6.34831,1.94651 z m -6.32063,-38.760412 c -0.70609,0 -0.81535,0.271777 -0.86929,0.401644 -0.0966,0.23361 -0.31863,1.127579 -0.31863,4.383346 v 19.427392 c 0,3.0081 0.22851,3.99661 0.36619,4.3188 0.10782,0.25962 0.29234,0.49601 0.9225,0.49601 0.66562,0 0.8182,-0.25828 0.90975,-0.49887 0.12847,-0.33989 0.34416,-1.41072 0.34416,-4.76229 V 98.795512 c 0,-2.886761 -0.24139,-3.893003 -0.38604,-4.235748 -0.13705,-0.32928 -0.35553,-0.549265 -0.96864,-0.549265 z M 119.08687,131.97685 H 100.18956 V 75.115335 h 11.55411 c 7.05225,0 11.70882,0.320751 14.23651,0.979286 2.59581,0.680527 4.60829,1.82302 5.98568,3.394833 1.36816,1.57962 2.23319,3.352269 2.57664,5.272514 0.33069,1.847856 0.49178,5.333532 0.49178,10.653599 v 19.320943 c 0,5.06178 -0.23844,8.38423 -0.73023,10.15688 -0.51091,1.83651 -1.42418,3.30187 -2.71358,4.35424 -1.25605,1.02045 -2.81437,1.74497 -4.63457,2.1523 -1.77904,0.38957 -4.35283,0.57834 -7.86903,0.57834 z m -2.86474,-45.738148 v 34.601318 c 1.16448,-0.0888 1.94151,-0.36334 2.17925,-0.78556 0.17729,-0.31864 0.59537,-1.58177 0.59537,-6.35257 V 92.229347 c 0,-3.019448 -0.11989,-4.179695 -0.22073,-4.619666 -0.10728,-0.483232 -0.32217,-0.803287 -0.67487,-1.010478 -0.19793,-0.118549 -0.68621,-0.30018 -1.87907,-0.359079 z M 96.177367,131.97685 H 81.972085 v -0.84942 l -0.0354,-24.61618 -3.311822,24.72902 -0.09923,0.7373 H 68.097002 l -0.105135,-0.7302 -3.539613,-24.734 -0.03969,24.61548 -0.0015,0.84942 H 50.222182 V 75.116756 h 20.132065 l 0.106479,0.728081 0.58188,3.984546 c 0.344167,2.366572 0.720973,4.955303 1.134686,7.766834 l 1.141795,7.849148 2.508508,-19.585642 0.09575,-0.742967 h 20.263322 v 56.862934 h 0.0011 z m -50.018611,0 H 30.12477 V 75.115335 h 16.036829 v 56.862935 z"
     id="path24"
     style="fill:#ffffff;stroke-width:0.70962465" />
  <g
     transform="matrix(0.66633644,0,0,0.66633644,36.193787,61.613029)"
     id="g5987">
    <rect
       style="fill:#ffffff;stroke:none"
       id="rect2389"
       width="200.00717"
       height="126.66925"
       x="0.00029884279"
       y="-0.0030899867" />
    <path
       style="fill:#DDDDDD"
       d="m 0.00679769,87.330401 c 66.66667031,0 133.33334231,0 200.00001231,0 V 127.01728 L 0.00679769,127.06806 Z M 18.317604,116.66634 c 5.64e-4,-9.7e-4 -0.0048,-2.66576 -0.0088,-2.67 -9.89e-4,-0.001 -4.313796,0.003 -4.308483,0 0.0017,-8e-4 0.0024,-7.32365 3.97e-4,-7.32052 -0.0035,0.005 2.597417,6e-4 2.59679,0 -0.0045,-6e-4 0.0077,-2.75027 -9.82e-4,-2.74507 -0.0039,0.002 -2.637238,10e-4 -2.632908,0 0.0029,-7.7e-4 0.0055,-5.934516 0.0029,-5.936272 -0.0012,-7.86e-4 4.346052,-0.0032 4.342062,-1.72e-4 -0.0051,0.0039 -8.47e-4,-2.665199 -5e-6,-2.663895 h -6.968366 v 21.341129 c 0,0 6.978786,-0.008 6.977477,-0.005 z m 8.117256,-7.88015 c 0,0 1.168502,7.87688 1.168502,7.87688 0.0047,0.005 2.632682,0.006 2.631175,0 -0.0013,-0.005 -1.625905,-10.94683 -1.62478,-10.94623 5.9e-4,3.1e-4 1.492998,-10.386292 1.49003,-10.386429 -0.004,-1.85e-4 -2.37873,-2.99e-4 -2.377425,0 0.0017,5.8e-5 -1.287848,8.055489 -1.287502,8.049919 0.001,0.008 -1.725683,-8.045236 -1.722178,-8.049919 0.004,-0.0054 -2.629562,8.9e-5 -2.63063,0 -3.65e-4,-3.1e-5 2.229614,10.382639 2.22658,10.386429 -9.3e-4,10e-4 -2.13456,10.95989 -2.14369,10.94623 -0.0029,-0.004 2.544929,-0.001 2.53983,0 -0.0052,10e-4 1.738016,-7.87325 1.730088,-7.87688 z m 11.363077,-0.15911 c 0.02639,0.0289 2.02426,-0.1133 3.25823,-1.56038 1.41014,-1.65368 1.5927,-3.14955 1.59439,-5.35589 0.0025,-3.205721 -1.088228,-6.442582 -4.51754,-6.380399 h -3.021988 c 0,0 0.007,21.344779 4.05e-4,21.335289 0,0 2.629197,-0.005 2.628323,-0.001 0,0 0.0036,-8.09704 0.05818,-8.03721 z m -0.06373,-9.965202 c 0.0056,0.01242 0.42075,-0.04076 0.81426,0.03502 0.90372,0.17404 1.47916,1.011293 1.47916,3.321012 0,2.3097 -0.61711,3.06362 -1.52083,3.23766 -0.41599,0.0801 -0.79057,0.0507 -0.77075,0.0527 0.02016,0.002 -0.01512,-6.675671 -0.0018,-6.646422 z m 16.813257,15.356022 -3.885337,-0.0208 c 0,0 -0.0087,-18.667806 -0.0057,-18.666649 0.0027,0.001 -2.657418,0.0042 -2.658635,0 -3.48e-4,-0.0012 -0.0063,21.335529 -0.0027,21.334549 0,0 6.557634,0.002 6.554926,0.004 -0.0027,0.002 -0.0078,-2.6512 -0.0026,-2.65104 z m 6.827013,2.64583 c 7.7e-4,-0.001 -0.0023,-21.334254 0,-21.333319 0.004,0.0016 -2.66064,0 -2.66456,0 -8.7e-4,0 -0.0022,21.331709 0,21.332019 0.0021,3e-4 2.664154,0.002 2.66456,0.001 z m 13.508952,-5.95833 c -0.01752,-0.008 -2.464922,-0.002 -2.464922,-0.002 0.0025,-0.002 -0.0037,1.29329 -0.0037,1.98662 0.0074,2.10223 -2.350551,1.98991 -2.331981,-0.0634 -0.07822,-1.31765 -0.04712,-3.75792 -0.03494,-6.61013 0.01477,-3.45591 -0.114171,-5.64683 0.03721,-6.799771 0.223059,-1.698849 2.335354,-1.82984 2.337049,-0.177498 6.25e-4,0.609807 -0.0074,2.243369 3.24e-4,2.241999 0.0071,-0.001 2.465086,0.0132 2.467662,0.009 0.0034,-0.006 -0.02307,-1.23742 0.0069,-1.973412 0.04419,-1.086698 -0.30882,-2.264615 -0.69043,-2.782812 -0.84402,-1.14614 -2.247453,-1.213479 -3.143,-1.202885 -1.566962,0.01801 -2.919295,0.715345 -3.459915,2.410542 -0.33046,1.0362 -0.29999,8.313617 -0.298725,8.295547 0.0011,-0.0162 -0.0031,6.18148 3.15e-4,6.25198 0.01583,2.59759 0.926257,4.4814 3.701908,4.5039 2.345599,-0.0904 3.777383,-1.37344 3.887457,-3.46735 0.04653,-0.88509 0.01184,-1.74974 -0.01114,-2.61963 z m 7.122638,-15.374989 c 0.0017,-0.0036 -2.664632,0 -2.664632,0 -2.74e-4,-0.0016 0.0015,21.339329 0,21.336989 -0.0012,-0.002 2.649112,-0.004 2.664632,0 0.01492,0.004 -0.0044,-21.327638 0,-21.336989 z m 9.99988,2.667037 c 0.0088,-0.0055 2.621816,-0.0033 2.625848,0 0.0039,0.0031 0.0034,-2.652967 -0.0052,-2.667037 -0.0079,-0.01303 -7.915708,-0.0035 -7.913691,0 0.0026,0.0045 0.0023,2.667253 4.38e-4,2.667037 -0.0036,-4.23e-4 2.632931,-0.0053 2.633753,0 0.001,0.0066 -0.0045,18.665732 1.4e-5,18.665802 0,0 2.659696,4.8e-4 2.659696,4.8e-4 9.82e-4,-0.004 -0.01085,-18.660052 -8.5e-4,-18.666282 z m 23.370243,17.526442 c 0.79492,-1.42987 0.62507,-4.83926 0.63062,-4.83933 0.007,-8e-5 -2.58764,-0.003 -2.58803,-0.001 -0.002,0.009 0.0132,2.41331 -0.13531,2.81487 -0.0749,0.2026 -0.53126,0.71675 -1.11596,0.71675 -0.60979,0 -0.74174,-0.42645 -0.87199,-0.65374 -0.11034,-0.19255 -0.15703,-0.67867 -0.17919,-1.16756 -0.007,-0.14978 -0.10271,-12.1728 0.0458,-13.068152 0.20261,-1.221852 1.85844,-1.09474 2.09638,-0.11516 0.0742,0.305548 0.0689,2.093782 0.0689,2.093782 0.006,-0.003 2.6998,2.7e-4 2.69592,7.6e-4 -0.006,7.1e-4 0.13612,-2.651524 -0.76382,-4.239612 -1.07624,-1.899197 -3.76085,-2.397747 -5.59603,-0.736936 -0.5762,0.52145 -1.00363,1.168086 -1.16668,2.819626 -0.13617,1.379272 -0.0525,3.547252 -0.0525,6.752872 0,3.20563 -0.10183,6.72275 0.0898,8.12502 0.26048,1.90648 1.86483,2.99876 3.60562,2.96928 1.18079,-0.0193 2.58914,-0.29242 3.23649,-1.47117 z m 11.00281,0.39905 c 0.84374,-0.84374 1.39864,-3.02256 1.39864,-9.92588 0,-5.30858 -0.0555,-8.067713 -0.92612,-9.397736 -0.98391,-1.743848 -3.99865,-1.586604 -4.80639,-0.344279 -1.22663,1.042727 -1.51733,3.951245 -1.60082,9.742015 -0.10535,7.30704 0.19779,8.63384 1.0378,9.73363 1.19192,1.56053 3.68408,1.52836 4.89689,0.19225 z m -3.45552,-9.95713 c 0.062,-3.76781 0.0244,-5.9335 0.27239,-6.844482 0.15172,-0.55738 0.58458,-0.75538 0.83699,-0.754465 0.26667,0.001 0.66384,0.186185 0.81554,0.741845 0.24846,0.910092 0.36155,3.116452 0.29383,6.888352 -0.0733,4.08072 0.0384,6.53336 -0.26179,7.36862 -0.082,0.22811 -0.23649,0.78386 -0.76946,0.7946 -1.23447,0.0242 -1.28687,-2.15367 -1.1875,-8.19447 z m 12.55207,-2.91666 c 0,0 3.2293,13.6209 3.22202,13.61371 0,0 2.65004,-10e-4 2.65135,0 0,0 0.007,-21.329891 0.008,-21.332449 0,0 -2.65975,-0.01155 -2.66307,-0.0078 -0.002,0.0022 -0.002,13.957359 0,13.960309 0.002,0.004 -3.36709,-13.952781 -3.36421,-13.952496 0.004,-0.0041 -2.50708,0 -2.50708,0 -0.002,-10e-4 0.003,21.334026 0,21.332446 -0.003,-0.002 2.65318,0 2.65318,0 0,0 0.001,-13.61371 0,-13.61371 z m 15.19066,-5.051702 c -0.004,0.0033 2.67785,0.0019 2.67784,0 0,0 -0.007,-2.67348 0,-2.667037 0.002,0.0022 -8.00177,0.0021 -8.00521,0 -0.003,-0.0021 -0.005,2.666862 0,2.667037 0.003,9.3e-5 2.67663,-0.0049 2.67938,0 0.003,0.0049 -0.008,18.674852 0,18.665412 0.002,-0.002 2.65012,-0.007 2.64799,0 -0.002,0.008 0.001,-18.666375 0,-18.665412 z m 13.91542,18.665412 c 0,-0.004 -0.003,-2.67233 0,-2.66652 0.002,0.004 -3.896,4.8e-4 -3.89777,0 -0.009,-0.002 0,-7.3172 0,-7.32052 0,-0.003 2.62785,0 2.62785,0 0,0 0.004,-2.74222 0,-2.74507 -0.001,-8.6e-4 -2.63084,5.2e-4 -2.62785,0 10e-4,-2.2e-4 -0.001,-5.970769 0,-5.965736 0.002,0.0069 3.90385,-0.002 3.89777,-0.002 -0.002,0 0.002,-2.632568 0,-2.632568 h -6.57482 v 10.608054 10.72439 c 0,0 6.57482,0 6.57482,0 z m 7.63628,-13.64163 c 0,0 3.24744,13.64163 3.24744,13.64163 0,0 2.62773,-0.003 2.62285,0 0,0 7.6e-4,-21.332673 0,-21.332449 -0.004,0.0011 -2.64967,-0.0048 -2.64967,0 v 14.003899 l -3.36489,-14.003899 c -0.002,-0.0012 -2.47883,-0.0023 -2.48184,0 6.5e-4,0.0024 -0.0356,21.334159 -0.0332,21.332449 10e-4,-8.4e-4 2.65926,0 2.65926,0 0,0 3.3e-4,-13.64435 0,-13.64163 z m 15.09879,-5.023782 c 0.009,-0.001 2.69537,0.0024 2.69532,0 -4e-5,-0.0018 -0.007,-2.664577 0,-2.667037 0.003,-0.001 -8.03288,0.0013 -8.03776,0 0.003,0.01043 0.002,2.668333 0,2.667037 0.01,0.0036 2.67477,0.0069 2.67708,0 0.002,-0.0066 0.001,18.667532 0,18.665412 -0.002,-0.005 2.66527,3.6e-4 2.66536,0 3.7e-4,-10e-4 0,-18.665412 0,-18.665412 z M 7.0015076,78.163731 c 0.26492,-2.10833 1.5952596,-11.77709 2.7653296,-21.677088 l 2.2524098,-18.51297 c 0,0 5.477448,0.0035 5.4761,0 -0.0028,-0.0072 5.186434,44.026498 5.19114,44.027639 0.0016,3.78e-4 -5.947139,-0.0042 -5.94774,0 -6.01e-4,0.0042 -0.50384,-10.603501 -0.59311,-10.637061 -0.08104,-0.03047 -2.30551,-0.005 -2.43051,0.0078 l -1.04166,10.629251 H 6.5198276 l 0.1864671,-1.488203 z m 8.9677594,-11.40909 c -0.15806,-4.4308 -1.133088,-19.118506 -1.069268,-19.043468 -0.04227,-0.0049 -1.113912,19.037478 -1.064312,19.054678 0.04142,0.01437 2.10233,-0.007 2.13358,-0.01121 z M 32.653244,37.973673 h 5.472923 c 5.93224,0 8.34474,1.6189 9.67634,5.41916 1.08296,3.09074 1.15225,29.177318 0.08694,32.733038 -0.43122,1.43925 -1.65424,3.34906 -2.71782,4.24401 -1.69474,1.42603 -2.58792,1.631431 -7.22509,1.631431 h -5.29129 z m 9.392603,36.129718 c 0.38718,-0.94989 0.62762,-6.66449 0.62762,-14.348218 0,-11.07815 -0.15901,-13.15521 -1.07738,-14.07358 -0.94194,-0.94194 -2.727692,-0.919238 -2.73219,-0.91969 -0.01156,-0.0012 -0.214812,30.41974 -0.22641,30.443498 -0.006,0.01226 2.94545,0.0031 3.40836,-1.10201 z m 20.75614,7.897921 c -1.23523,-14.68397 -2.986584,-29.342259 -4.14155,-44.027639 -1.77e-4,-0.0022 5.12561,-0.0069 5.12493,0 1.20438,8.62619 1.15969,17.381074 2.20016,26.023388 l 3.34679,-26.023388 c 0,0 5.32533,0.0015 5.32371,0 -0.0062,-0.0057 -5.312819,44.027964 -5.3126,44.027639 8.85e-4,-0.0013 -6.541445,-5.66e-4 -6.54144,0 z M 84.001303,37.973673 h 6.020509 l 0.0032,44.027639 h -6.03644 z m 20.238137,43.332918 c -2.36752,-1.14575 -3.69249,-4.42978 -3.44919,-8.54911 l -0.11677,-3.66667 h 3 2.875 l 0.125,3.33334 c 0.27778,2.77778 0.55555,3.33333 1.66666,3.33333 1.12977,0 1.36287,-0.50892 1.52676,-3.33333 0.20253,-3.49041 0.10719,-3.79234 -6.41628,-14.103938 -2.80624,-4.4358 -3.888283,-9.67104 -2.80992,-13.59516 1.05334,-3.83302 3.92821,-6.75138 6.68127,-6.75138 4.99274,0 8.01817,3.67722 8.01817,9.70698 v 3.05974 c 0,0 -5.73129,-0.07182 -5.7362,-0.07656 -0.0105,-0.01014 0.0389,-1.254308 0.0694,-2.796678 0.0612,-3.103375 -1.50089,-4.170797 -2.82624,-3.070847 -0.70523,0.58529 -0.89667,1.71254 -0.67775,3.99087 0.2387,2.48423 1.20037,4.5329 4.41918,9.41436 4.47809,6.791188 5.42599,9.304158 5.40367,13.884878 -0.0173,3.55514 -1.61774,8.216283 -3.88485,9.28395 -2.07083,0.975228 -5.95686,0.86105 -7.86788,-0.06377 z m 22.09985,-5.119888 c -0.58856,-4.882064 -0.37977,-22.531066 -0.17143,-30.062496 0.043,-4.448145 2.58176,-8.025908 7.20105,-8.150534 5.44158,0.05988 7.57414,3.650016 7.9665,8.5371 0.13132,2.835197 0.018,7.279175 0.0578,13.19744 0.0667,9.928995 -0.23059,14.256963 -0.57794,16.585565 -0.76017,3.18342 -2.068,5.50342 -6.82358,5.707856 -4.88864,0.02215 -6.91012,-2.05325 -7.65238,-5.814931 z m 9.5084,-29.956858 c -0.0797,-2.349787 -0.92102,-2.828158 -1.98182,-2.843388 -1.24687,-0.01791 -2.10256,1.120888 -2.21134,3.123158 -0.12645,2.327449 -0.12703,22.513263 0,25.260523 0.12864,2.78229 -0.0714,4.288204 2.30963,4.25247 2.12767,-0.03254 1.8725,-2.96864 1.88353,-4.62149 0.0199,-2.97326 0.0673,-23.150303 0,-25.171273 z m 16.82579,-8.256172 h 5.26539 c 4.09103,0.18579 5.59845,0.6574 6.75868,1.69192 2.3709,2.11399 3.30926,5.20102 3.30926,10.88682 0,4.35388 -0.24442,5.57557 -1.41263,7.0607 l -1.41263,1.79587 1.41263,1.50367 c 1.30667,1.390888 1.41263,2.238018 1.41263,11.294048 l -0.008,9.79036 h -5.99219 v -8.61214 c 0,-8.02209 -0.16802,-10.20291 -1.31745,-10.67099 -0.21627,-0.08808 -1.9883,-0.04239 -2.00388,-0.0476 V 82.0003 h -6.012 z m 8.53333,17.89006 c 0.24227,-0.24228 0.59907,-0.74774 0.76438,-2.25216 0.14897,-1.35575 0.11895,-3.66368 0.11895,-4.86451 0,-4.32939 -3.1868,-3.875 -3.21666,-3.91667 -0.0128,-0.01781 -0.10044,11.855257 -0.099,11.85278 0.005,-0.008 1.62589,-0.01306 2.43228,-0.81944 z m 21.13258,26.136842 c -0.008,5.1e-4 0.008,-20.077457 0.002,-20.080642 -9.9e-4,-0.01052 -4.4476,-23.86343 -4.37034,-23.94626 0.002,0.0014 4.84524,0 4.84524,0 -0.004,-0.006 2.75056,15.95485 2.81209,15.89861 0.0716,-0.06539 2.16142,-15.904462 2.15557,-15.89861 -7e-4,7.04e-4 4.93822,0.0052 4.93549,0 -0.002,-0.0039 0.006,0 0.006,0 0.007,-0.0038 -4.40691,24.005787 -4.40691,24.02746 l 8.3e-4,19.996234 c 0,0 -5.98305,-0.0059 -5.98002,0.0032 z M 0.00679769,-0.00293854 H 200.00681 V 33.997062 H 0.00679769 Z M 15.293787,20.691383 c 1.47269,-0.548911 3.11387,-0.715471 4.40998,-1.664021 1.31228,-1.305314 1.63636,-2.315747 1.63636,-5.0303 0,-4.7239399 -1.93389,-6.7291673 -6.63636,-6.7291673 h -3.36364 v 9.9513873 c 0,5.438893 0.009,10.104136 0.0027,10.111113 -0.007,0.0078 3.952711,7.21e-4 3.95091,0 0.0051,-2.203882 -0.04129,-4.433662 0,-6.639012 z m 0.04634,-6.694321 c 0,-1.925926 0.0094,-2.680959 0.02094,-2.682691 0.01676,-0.0025 0.41346,-0.01218 0.58722,-0.01222 1.06908,-2.63e-4 1.33744,0.586485 1.37956,1.287107 0.02552,0.42464 0.03044,0.891112 0.01766,1.294075 -0.01241,0.391294 -0.0077,0.869662 -0.01222,1.321086 -0.0084,0.834576 -0.25699,1.566635 -1.71313,1.496526 -0.08087,-0.0039 -0.26843,1.08e-4 -0.27211,-0.0037 -0.0024,-0.0025 -0.0079,-0.774256 -0.0079,-2.700182 z m 23.83452,8.614125 c 0.0023,6.2e-4 1.750314,0.01388 1.752079,0.01216 -0.0017,0.005 0.351346,4.660044 0.432751,4.707043 7.58e-4,-0.0064 3.91535,-0.0069 3.91346,0 -0.0027,0.0069 -4.233143,-20.0641117 -4.237463,-20.0625003 0.004,-0.00418 -2.805696,-0.00325 -2.800081,0 -0.0056,-0.00566 -3.181901,20.0547983 -3.186652,20.0625003 0.0024,0.0041 3.608006,-0.0017 3.623186,0 -0.0121,0.01052 0.508721,-4.718829 0.50272,-4.719208 z m 0.775676,-9.528027 c -0.0027,-0.0041 0.959546,7.565971 0.946841,7.622942 0.0429,0.0059 -1.734777,-0.01875 -1.738717,-0.0048 -0.01352,-0.0036 0.771396,-7.618715 0.791876,-7.618189 z M 118.24353,7.2678947 h -3.57929 c 0.002,0.00171 0.0418,9.8323493 0.0544,9.8748403 -10e-4,-0.02721 -4.08403,-9.8681986 -4.08375,-9.8748403 h -3.33637 V 27.330395 h 4.04166 c -0.005,5.84e-4 -0.17792,-10.954549 -0.19852,-10.965733 -0.005,-0.006 3.55963,10.968282 3.55999,10.965733 0.008,0.0041 3.53946,0.0029 3.54192,0 0.007,-0.0015 0.003,-20.0626695 0,-20.0625003 z m 21.76235,4.0619413 c 0.001,-5.37e-4 2.6689,1.24e-4 2.67151,0 V 7.2678947 c 0.006,0.00102 -9.3075,0.00438 -9.30551,0 0,0 -0.009,4.0486683 0,4.0368283 0.004,-0.0051 2.60929,-0.0011 2.62516,0 0.0117,8.14e-4 -0.0263,16.029072 0,16.025672 0,0 3.97862,0.0033 4.00884,0 0.0204,-0.0022 -0.006,-15.998056 0,-16.000559 z m 19.99493,16.000559 c -0.004,0.0052 0.75495,-4.670707 0.72101,-4.665553 -0.0466,0.0071 1.78609,-0.0012 1.81087,0 0.0167,8.14e-4 0.86703,4.665553 0.87693,4.665553 h 3.43377 L 163.13868,7.2678947 c 0,0 -3.05186,0.017459 -3.04611,0 0.006,-0.01903 -3.07975,20.0625003 -3.07975,20.0625003 0,0 2.98799,-4.42e-4 2.98799,0 z m 0.69384,-6.639313 c -0.0316,0.0073 0.743,-6.433205 0.9951,-7.662525 0.0429,0.05301 0.80172,5.882392 1.00488,7.662525 -0.0397,10e-4 -1.98271,0.01011 -1.99998,0 z M 64.008767,19.331415 c 0.44289,0.0059 0.887047,0.0021 1.32916,0.0026 l -0.04186,7.99638 h 3.8158 l 0.0012,-4.14611 c 0,-2.86756 -0.26438,-3.925817 -0.67328,-5.044363 8.08e-4,-0.03915 -0.425056,-0.98857 -0.427605,-0.985791 4.83e-4,0.0012 0.345125,-0.43072 0.460159,-0.685096 0.24126,-0.49396 0.63528,-1.022513 0.63528,-3.274859 0,-3.4271544 -0.785533,-5.9262813 -3.473104,-5.9262813 h -5.62777 V 27.330395 h 4 c -6.09e-4,-0.0023 -0.0072,-8.020214 0.002,-7.99898 z m -0.002,-6.001019 c 0,-0.503867 0.01294,-2.003627 -0.0014,-2.002673 -0.01039,6.93e-4 1.3175,-0.0077 1.32427,-0.0077 0.01771,0 0.27559,0.969347 0.27559,2.069347 0,1.099999 -0.24624,1.943379 -0.25476,1.941072 -0.02193,-0.0059 -1.33642,0.0011 -1.34624,8.33e-4 -0.01232,-3.4e-4 0.0025,-1.488233 0.0025,-2.000832 z m 28.62983,13.999999 c 0,-0.02257 0.0454,-3.334167 0.02803,-3.334167 -0.01241,0 -4.02731,-0.0062 -4.04007,-0.0041 -0.01128,0.0018 -0.01245,-5.334674 0,-5.33322 0.01127,0.0013 2.62295,-0.0011 2.6392,0 0.02223,0.0015 0.01488,-3.290174 0,-3.301367 -0.0219,-0.01647 -2.62123,1.87e-4 -2.6392,0 -0.02072,-2.07e-4 -0.03524,-4.045012 0,-4.044679 0.05555,5.13e-4 4.04085,-0.03652 4.04241,-0.01684 0.0021,0.02629 -0.0014,-2.0410479 -0.0047,-2.0601809 -0.0035,-0.020227 0.02118,-1.9694604 0.005,-1.9679204 h -7.99387 V 27.330395 h 3.78921 c 0.01562,0 4.17395,-0.0208 4.17395,0 z m 96.730843,-3.336533 h -3.93199 V 7.2678947 h -4.05627 V 27.330395 h 7.98826 c 0,0 0.002,-3.33498 0,-3.336533 z"
       id="path2384" />
    <rect
       style="fill:#DDDDDD;stroke:none"
       id="rect2394"
       width="200.00064"
       height="0.042802453"
       x="0.0052445806"
       y="126.63333" />
  </g>
  <style
     id="stylebodge1"
     type="text/css">[id^=&quot;polygon&quot;]{fill:#DDDDDD;fill-opacity:1}</style>
  <style
     id="stylebodge2"
     type="text/css">[id^=&quot;path&quot;]{fill:#DDDDDD;fill-opacity:1}</style>
</svg>
