<?xml version="1.0" encoding="UTF-8" standalone="no"?>
<svg
   id="svg8"
   version="1.1"
   viewBox="0 0 205.66004 207.89409"
   height="207.89409mm"
   width="205.66005mm"
   sodipodi:docname="youtube-logo.svg"
   inkscape:version="1.1.2 (0a00cf5339, 2022-02-04)"
   xmlns:inkscape="http://www.inkscape.org/namespaces/inkscape"
   xmlns:sodipodi="http://sodipodi.sourceforge.net/DTD/sodipodi-0.dtd"
   xmlns:xlink="http://www.w3.org/1999/xlink"
   xmlns="http://www.w3.org/2000/svg"
   xmlns:svg="http://www.w3.org/2000/svg"
   xmlns:rdf="http://www.w3.org/1999/02/22-rdf-syntax-ns#"
   xmlns:cc="http://creativecommons.org/ns#"
   xmlns:dc="http://purl.org/dc/elements/1.1/">
  <sodipodi:namedview
     id="namedview4283"
     pagecolor="#ffffff"
     bordercolor="#666666"
     borderopacity="1.0"
     inkscape:pageshadow="2"
     inkscape:pageopacity="0.0"
     inkscape:pagecheckerboard="0"
     inkscape:document-units="mm"
     showgrid="false"
     inkscape:zoom="0.81960804"
     inkscape:cx="383.72"
     inkscape:cy="416.66258"
     inkscape:window-width="1565"
     inkscape:window-height="1113"
     inkscape:window-x="995"
     inkscape:window-y="105"
     inkscape:window-maximized="0"
     inkscape:current-layer="svg8" />
  <defs
     id="defs2">
    <linearGradient
       inkscape:collect="always"
       id="linearGradient5056">
      <stop
         style="stop-color:#333333;stop-opacity:1"
         offset="0"
         id="stop5052" />
      <stop
         style="stop-color:#DDDDDD;stop-opacity:1"
         offset="1"
         id="stop5054" />
    </linearGradient>
    <linearGradient
       inkscape:collect="always"
       xlink:href="#linearGradient5056"
       id="linearGradient5058"
       x1="101.95298"
       y1="207.8941"
       x2="106.2896"
       y2="1.7480985e-05"
       gradientUnits="userSpaceOnUse" />
    <linearGradient
       inkscape:collect="always"
       xlink:href="#linearGradient5056"
       id="linearGradient5240"
       x1="104.59267"
       y1="208.53972"
       x2="100.74454"
       y2="0.32280928"
       gradientUnits="userSpaceOnUse" />
  </defs>
  <metadata
     id="metadata5">
    <rdf:RDF>
      <cc:Work
         rdf:about="">
        <dc:format>image/svg+xml</dc:format>
        <dc:type
           rdf:resource="http://purl.org/dc/dcmitype/StillImage" />
      </cc:Work>
    </rdf:RDF>
  </metadata>
  <ellipse
     ry="94.947044"
     rx="93.830025"
     cy="103.94704"
     cx="102.83002"
     id="path815"
     style="fill:none;fill-opacity:1;stroke:url(#linearGradient5240);stroke-width:18;stroke-linecap:round;stroke-linejoin:miter;stroke-miterlimit:4;stroke-dasharray:none;stroke-opacity:1" />
  <path
     id="path1000"
     style="fill:url(#linearGradient5058);fill-opacity:1;stroke-width:0.590748"
     d="m 102.83002,55.111541 c 0,0 -43.350468,2.23e-4 -54.161158,2.916156 -5.965377,1.604473 -10.663331,6.332087 -12.25658,12.33527 -2.896443,10.880991 -2.896484,33.583903 -2.896484,33.583903 0,0 4.1e-5,22.70208 2.896484,33.58425 1.593249,6.00378 6.291434,10.73046 12.256223,12.33671 10.810689,2.91475 54.160805,2.91472 54.160805,2.91472 0,0 43.35105,3e-5 54.16117,-2.91472 5.96537,-1.60566 10.66213,-6.33281 12.25658,-12.33599 2.89703,-10.88216 2.89719,-33.58425 2.89719,-33.58425 0,0 -1.6e-4,-22.702915 -2.89719,-33.583908 l 6.9e-4,-6.93e-4 C 167.65331,64.359807 162.95619,59.632192 156.99081,58.027719 146.18071,55.111786 102.83,55.111563 102.83,55.111563 Z M 84.71359,83.334548 120.94611,103.9483 84.71359,124.55954 Z" />
</svg>
