<?xml version="1.0" encoding="iso-8859-1"?>
<!-- Generator: Adobe Illustrator 18.0.0, SVG Export Plug-In . SVG Version: 6.00 Build 0)  -->
<!DOCTYPE svg PUBLIC "-//W3C//DTD SVG 1.1//EN" "http://www.w3.org/Graphics/SVG/1.1/DTD/svg11.dtd">
<svg version="1.1" id="Capa_1" xmlns="http://www.w3.org/2000/svg" xmlns:xlink="http://www.w3.org/1999/xlink" x="0px" y="0px"
	 viewBox="0 0 348.082 348.082" style="enable-background:new 0 0 348.082 348.082;" xml:space="preserve">
<path d="M297.107,50.976c-67.967-67.967-178.164-67.967-246.131,0c-67.968,67.967-67.968,178.164,0,246.131
	c67.967,67.967,178.164,67.967,246.131,0C365.074,229.14,365.074,118.943,297.107,50.976z M79.452,295.602
	c-10.241-7.624-19.35-16.731-26.973-26.972c22.998-17.114,46.002-34.22,69.002-51.331c3.159,4.246,5.056,6.143,9.3,9.299
	C113.671,249.6,96.561,272.6,79.452,295.602z M209.397,209.397c-19.526,19.526-51.186,19.525-70.711,0
	c-19.526-19.526-19.526-51.185,0-70.711c19.526-19.526,51.185-19.526,70.711,0C228.922,158.211,228.923,189.87,209.397,209.397z
	 M226.6,130.783c-3.159-4.246-5.056-6.144-9.299-9.298c17.109-23.001,34.221-46.001,51.329-69.004
	c10.241,7.623,19.349,16.73,26.972,26.972C272.605,96.567,249.6,113.672,226.6,130.783z"/>
<g>
</g>
<g>
</g>
<g>
</g>
<g>
</g>
<g>
</g>
<g>
</g>
<g>
</g>
<g>
</g>
<g>
</g>
<g>
</g>
<g>
</g>
<g>
</g>
<g>
</g>
<g>
</g>
<g>
</g>
</svg>
