<?xml version="1.0" encoding="UTF-8" standalone="no"?>
<!-- Generator: Adobe Illustrator 16.0.4, SVG Export Plug-In . SVG Version: 6.00 Build 0)  -->
<svg id="Capa_1" xmlns:rdf="http://www.w3.org/1999/02/22-rdf-syntax-ns#" xmlns="http://www.w3.org/2000/svg" enable-background="new 0 0 216 146" xml:space="preserve" height="125.55" viewBox="0 0 125.142 125.55" width="125.14" version="1.1" y="0px" x="0px" xmlns:cc="http://creativecommons.org/ns#" xmlns:dc="http://purl.org/dc/elements/1.1/"><metadata id="metadata9"><rdf:RDF><cc:Work rdf:about=""><dc:format>image/svg+xml</dc:format><dc:type rdf:resource="http://purl.org/dc/dcmitype/StillImage"/><dc:title/></cc:Work></rdf:RDF></metadata><path id="path3" d="M120.17,38.333c-3.31-7.739-7.75-14.407-13.32-20.001-5.56-5.594-12.22-10.049-19.96-13.362-7.738-3.313-15.846-4.97-24.318-4.97-8.473,0-16.58,1.658-24.32,4.97-7.74,3.313-14.394,7.767-19.961,13.362-5.567,5.594-10.008,12.262-13.321,20.001-3.313,7.74-4.97,15.874-4.97,24.401s1.657,16.674,4.97,24.441c3.314,7.768,7.754,14.447,13.321,20.043,5.567,5.594,12.221,10.049,19.961,13.36,7.74,3.314,15.847,4.972,24.32,4.972s16.58-1.658,24.318-4.972c7.74-3.312,14.396-7.766,19.961-13.36,5.568-5.596,10.009-12.275,13.322-20.043,3.313-7.767,4.969-15.914,4.969-24.441-0.001-8.527-1.656-16.661-4.969-24.401zm-94.672,48.76c-4.834-7.439-7.251-15.561-7.25-24.36,0-8.038,1.983-15.479,5.948-22.323,3.964-6.844,9.342-12.248,16.131-16.214,6.789-3.965,14.203-5.947,22.242-5.947,8.963,0,17.108,2.472,24.442,7.414l-61.513,61.43zm77.886-7.045c-2.336,5.513-5.484,10.252-9.45,14.217s-8.677,7.129-14.136,9.49c-5.459,2.363-11.203,3.545-17.231,3.545-8.69,0-16.756-2.416-24.197-7.252l61.438-61.351c4.727,7.278,7.088,15.29,7.088,24.034-0.001,6.03-1.169,11.801-3.505,17.315z"/></svg>
