<?xml version="1.0" encoding="UTF-8" standalone="no"?>
<svg
   xmlns:dc="http://purl.org/dc/elements/1.1/"
   xmlns:cc="http://creativecommons.org/ns#"
   xmlns:rdf="http://www.w3.org/1999/02/22-rdf-syntax-ns#"
   xmlns:svg="http://www.w3.org/2000/svg"
   xmlns="http://www.w3.org/2000/svg"
   width="205.66005mm"
   height="207.89409mm"
   viewBox="0 0 205.66004 207.89409"
   version="1.1"
   id="svg8">
  <defs
     id="defs2" />
  <metadata
     id="metadata5">
    <rdf:RDF>
      <cc:Work
         rdf:about="">
        <dc:format>image/svg+xml</dc:format>
        <dc:type
           rdf:resource="http://purl.org/dc/dcmitype/StillImage" />
        <dc:title></dc:title>
      </cc:Work>
    </rdf:RDF>
  </metadata>
  <ellipse
     ry="94.947044"
     rx="93.830025"
     cy="103.94704"
     cx="102.83002"
     id="path815"
     style="opacity:1;fill:none;fill-opacity:1;stroke:#000000;stroke-width:18;stroke-linecap:round;stroke-linejoin:miter;stroke-miterlimit:4;stroke-dasharray:none;stroke-opacity:1" />
  <path
     style="fill:#000000;stroke-width:0.16268818"
     d="m 60.12143,141.1645 c -1.565874,-0.0645 -3.469325,-0.20172 -4.229893,-0.30488 -5.601003,-0.75965 -11.396333,-3.25588 -15.793658,-6.80282 -0.678185,-0.54703 -2.071609,-1.86436 -3.096496,-2.92739 -4.585602,-4.75625 -7.522766,-10.94701 -8.281176,-17.4545 -0.253164,-2.17226 -0.128205,-7.45231 0.228434,-9.6523 1.141825,-7.04356 4.132479,-13.82873 8.505431,-19.29707 7.810859,-9.767407 20.789539,-16.557908 34.194783,-17.890861 11.883147,-1.181605 22.787826,3.435163 28.538925,12.082665 1.53994,2.315496 3.31686,6.187266 3.12175,6.802016 -0.19831,0.62484 -0.68525,0.35359 -0.98095,-0.54643 -1.00461,-3.05769 -3.113754,-6.416637 -5.541312,-8.824881 C 93.718072,73.303276 88.870112,70.850121 84.091561,69.923804 78.165268,68.77499 72.137735,69.22369 65.164763,71.332756 57.240897,73.729428 50.747552,77.503454 45.479494,82.77413 c -5.612951,5.61574 -9.04169,12.19034 -10.520206,20.17249 -0.415129,2.24118 -0.417973,8.31267 -0.0048,10.22897 1.031259,4.78289 3.125305,8.5882 6.525667,11.85848 3.58581,3.44863 8.229551,5.81021 13.536342,6.88394 2.183004,0.44168 7.624523,0.61675 10.104799,0.32509 6.931624,-0.81509 12.607511,-3.45796 16.605862,-7.73221 2.158864,-2.30784 3.210083,-4.14153 5.36741,-9.36267 0.720949,-1.74482 2.020062,-4.78302 2.886914,-6.75155 3.512055,-7.97548 3.485578,-7.89581 2.838891,-8.5425 -0.311051,-0.31105 -0.480415,-0.35081 -1.154501,-0.27097 -1.329681,0.15748 -2.455749,1.16602 -3.392093,3.03804 -0.246153,0.49213 -1.971613,4.31733 -3.834355,8.50046 l -3.386805,7.60567 h -6.073018 c -5.675069,0 -6.073072,-0.0186 -6.073812,-0.28471 -4.36e-4,-0.15658 1.683387,-4.0611 3.741828,-8.6767 3.157329,-7.07961 3.74262,-8.51136 3.74262,-9.15524 0,-0.68234 -0.04741,-0.78152 -0.447392,-0.93573 -1.141912,-0.44027 -2.595299,0.28288 -3.632591,1.80743 -0.334842,0.49213 -2.22366,4.51268 -4.197375,8.93456 -1.973715,4.42188 -3.6458,8.09359 -3.715743,8.15937 -0.06994,0.0658 -2.791302,0.14496 -6.047467,0.17598 -5.129111,0.0488 -5.940144,0.0238 -6.068801,-0.18765 -0.135993,-0.22348 2.287534,-5.80442 9.308681,-21.43617 l 1.188333,-2.64569 5.868532,0.0427 c 5.723545,0.0416 5.869983,0.0507 5.927184,0.36805 0.101161,0.5612 0.269945,0.58798 1.17779,0.18686 1.84305,-0.81434 3.628236,-1.15382 6.088903,-1.1579 1.900973,-0.003 2.466332,0.0555 3.418666,0.35462 1.314189,0.41278 2.463898,1.12588 2.912045,1.80618 l 0.311249,0.47248 1.315633,-0.61586 c 4.437566,-2.07728 9.482386,-2.64442 12.726336,-1.4307 1.16933,0.43751 2.55099,1.71249 2.93544,2.70881 0.43091,1.11675 0.36906,2.88526 -0.15483,4.42707 -1.00266,2.95084 -7.537397,17.15368 -9.525897,20.70393 -4.784152,8.54162 -10.128849,13.59013 -17.426552,16.46085 -3.064761,1.2056 -7.51851,2.11742 -11.193858,2.29174 -3.617458,0.17158 -4.259959,0.17732 -7.037103,0.0629 z m 37.174858,-9.90916 c -0.05497,-0.0889 1.26502,-3.21864 2.933292,-6.95491 5.79502,-12.97854 6.75393,-15.13045 9.98676,-22.41129 l 3.25065,-7.32097 h 6.39359 6.39359 l 0.0515,0.4474 c 0.0629,0.54651 0.0969,0.54766 1.20429,0.0407 1.74982,-0.80109 3.27686,-1.09988 5.65848,-1.10716 4.97822,-0.0152 7.89232,1.46599 8.8067,4.47638 1.46077,4.80929 -2.96049,13.6351 -8.76458,17.49604 -3.34819,2.22724 -6.44666,3.22196 -10.61685,3.40838 -2.29172,0.10244 -3.3872,-0.095 -5.10729,-0.92058 -0.54325,-0.26073 -1.00061,-0.46056 -1.01634,-0.44405 -0.0157,0.0165 -1.25178,2.77537 -2.74675,6.13082 -1.49497,3.35544 -2.85756,6.37534 -3.02799,6.71088 l -0.30986,0.61008 h -6.49461 c -4.127761,0 -6.531043,-0.0589 -6.594561,-0.1617 z m 25.048772,-16.8268 c 1.77267,-0.74067 3.99709,-4.07226 6.02066,-9.01734 0.99761,-2.4379 1.4309,-4.23409 1.35424,-5.61407 -0.0479,-0.86187 -0.13242,-1.1674 -0.37145,-1.34218 -1.14069,-0.83409 -3.52484,0.76051 -5.3778,3.59688 -1.58423,2.425 -3.5164,6.69457 -4.06515,8.98284 -0.33814,1.41006 -0.26794,2.8201 0.16419,3.2976 0.35957,0.39733 1.44487,0.44325 2.27531,0.0963 z m 24.79075,4.70193 c -2.17501,-0.29675 -3.38606,-0.64759 -5.17244,-1.49848 -1.21832,-0.5803 -1.78549,-0.97643 -2.74407,-1.91654 -0.66458,-0.65178 -1.18145,-1.26241 -1.1486,-1.35695 0.10212,-0.29399 6.15742,-4.74183 6.45164,-4.73897 0.15306,0.001 0.75415,0.17766 1.33576,0.3915 0.91899,0.33788 1.05248,0.43873 1.01933,0.77007 -0.22508,2.25029 -0.23401,2.93036 -0.0444,3.38795 0.48781,1.17768 2.22653,1.67434 4.34764,1.24186 1.96227,-0.40008 3.16303,-1.07779 4.76878,-2.6915 2.06156,-2.0718 3.1849,-4.42952 3.05822,-6.41879 -0.0781,-1.22707 -0.48944,-1.8803 -1.48846,-2.36392 -0.62738,-0.3037 -0.99507,-0.33933 -3.50177,-0.33933 -2.37715,0 -2.81539,-0.0381 -2.89735,-0.25165 -0.0862,-0.22456 1.07466,-3.09942 1.45857,-3.61219 0.10658,-0.14237 0.72153,-0.20336 2.0504,-0.20336 2.17795,0 3.27101,-0.23118 5.04148,-1.06626 2.48976,-1.17435 4.81322,-4.15879 5.25765,-6.75336 0.15673,-0.91497 0.14225,-1.12864 -0.11294,-1.66642 -0.40149,-0.84608 -1.23418,-1.25138 -2.57092,-1.25138 -1.77021,0 -3.51208,0.6622 -4.75467,1.80758 -0.84403,0.778 -1.25777,1.57834 -1.37557,2.66093 l -0.0879,0.80802 -1.46419,0.45413 c -0.80531,0.24977 -1.547,0.42257 -1.6482,0.384 -0.22815,-0.087 -2.98842,-4.4787 -2.98842,-4.75474 0,-0.25561 2.3196,-1.79315 3.88479,-2.57502 4.00468,-2.00049 9.77007,-3.05334 14.68343,-2.68143 5.37866,0.40713 8.30504,2.26109 8.55879,5.42231 0.32407,4.03722 -3.18473,7.9936 -8.82458,9.95025 -0.71583,0.24834 -1.36317,0.5053 -1.43853,0.57102 -0.0754,0.0657 0.32134,0.36379 0.88156,0.66238 3.25379,1.73425 4.21004,4.69689 2.65818,8.23551 -1.16027,2.64571 -3.83163,5.23286 -7.12628,6.90166 -1.49555,0.75752 -4.53472,1.79776 -6.28176,2.15011 -3.09205,0.62361 -6.77349,0.75191 -9.78509,0.34101 z"
     id="path2521" />
</svg>
