<?xml version="1.0" encoding="UTF-8" standalone="no"?>
<svg
   xmlns:dc="http://purl.org/dc/elements/1.1/"
   xmlns:cc="http://creativecommons.org/ns#"
   xmlns:rdf="http://www.w3.org/1999/02/22-rdf-syntax-ns#"
   xmlns:svg="http://www.w3.org/2000/svg"
   xmlns="http://www.w3.org/2000/svg"
   width="205.66005mm"
   height="207.89409mm"
   viewBox="0 0 205.66004 207.89409"
   version="1.1"
   id="svg8">
  <defs
     id="defs2" />
  <metadata
     id="metadata5">
    <rdf:RDF>
      <cc:Work
         rdf:about="">
        <dc:format>image/svg+xml</dc:format>
        <dc:type
           rdf:resource="http://purl.org/dc/dcmitype/StillImage" />
        <dc:title></dc:title>
      </cc:Work>
    </rdf:RDF>
  </metadata>
  <ellipse
     ry="94.947044"
     rx="93.830025"
     cy="103.94704"
     cx="102.83002"
     id="path815"
     style="opacity:1;fill:none;fill-opacity:1;stroke:#000000;stroke-width:18;stroke-linecap:round;stroke-linejoin:miter;stroke-miterlimit:4;stroke-dasharray:none;stroke-opacity:1" />
  <g
     id="g3059"
     transform="matrix(0.00797356,0,0,0.00797356,31.063993,8.4472647)">
    <g
       style="fill:#000000"
       id="g874"
       transform="translate(-4999.5,2977.056)">
      <polygon
         id="polygon875"
         points="6527,3196 6996,3050 7500,3000 20500,3000 21003,3050 21472,3196 21897,3427 22267,3732 22572,4102 22803,4527 22949,4996 23000,5500 23000,12500 22949,13003 22803,13472 22572,13897 22267,14267 21897,14572 21472,14803 21003,14949 20500,15000 14000,15000 14000,15000 7500,15000 6996,14949 6527,14803 6102,14572 5732,14267 5427,13897 5196,13472 5050,13003 5000,12500 5000,5500 5050,4996 5196,4527 5427,4102 5732,3732 6102,3427 " />
    </g>
    <g
       style="fill:none;stroke:#000000"
       id="g876"
       transform="translate(-4999.5,2977.056)">
      <polyline
         style="fill:none"
         id="polyline877"
         points="14000,15000,7500,15000,6996,14949,6527,14803,6102,14572,5732,14267,5427,13897,5196,13472,5050,13003,5000,12500,5000,5500,5050,4996,5196,4527,5427,4102,5732,3732,6102,3427,6527,3196,6996,3050,7500,3000,20500,3000,21003,3050,21472,3196,21897,3427,22267,3732,22572,4102,22803,4527,22949,4996,23000,5500,23000,12500,22949,13003,22803,13472,22572,13897,22267,14267,21897,14572,21472,14803,21003,14949,20500,15000,14000,15000" />
    </g>
    <g
       style="fill:#ffffff"
       id="g878"
       transform="translate(-4999.5,2977.056)">
      <polygon
         id="polygon879"
         points="20898,4053 21256,4204 21560,4439 21795,4743 21946,5101 22000,5500 22000,12500 21946,12898 21795,13256 21560,13560 21256,13795 20898,13946 20500,14000 14000,14000 14000,14000 7500,14000 7101,13946 6743,13795 6439,13560 6204,13256 6053,12898 6000,12500 6000,5500 6053,5101 6204,4743 6439,4439 6743,4204 7101,4053 7500,4000 20500,4000 " />
    </g>
    <g
       style="fill:none;stroke:#000000"
       id="g880"
       transform="translate(-4999.5,2977.056)">
      <polyline
         style="fill:none"
         id="polyline881"
         points="14000,14000,7500,14000,7101,13946,6743,13795,6439,13560,6204,13256,6053,12898,6000,12500,6000,5500,6053,5101,6204,4743,6439,4439,6743,4204,7101,4053,7500,4000,20500,4000,20898,4053,21256,4204,21560,4439,21795,4743,21946,5101,22000,5500,22000,12500,21946,12898,21795,13256,21560,13560,21256,13795,20898,13946,20500,14000" />
    </g>
    <g
       style="fill:#000000"
       id="g882"
       transform="translate(-4999.5,2977.056)">
      <polygon
         id="polygon883"
         points="10500,12500 10460,12694 10353,12853 10194,12960 10000,13000 9000,13000 9000,13000 8000,13000 7805,12960 7646,12853 7539,12694 7500,12500 7500,12500 7539,12305 7646,12146 7805,12039 8000,12000 10000,12000 10194,12039 10353,12146 10460,12305 10500,12500 " />
    </g>
    <g
       style="fill:none;stroke:#000000"
       id="g884"
       transform="translate(-4999.5,2977.056)">
      <polyline
         style="fill:none"
         id="polyline885"
         points="9000,13000,8000,13000,7805,12960,7646,12853,7539,12694,7500,12500,7539,12305,7646,12146,7805,12039,8000,12000,1E+4,12000,10194,12039,10353,12146,10460,12305,10500,12500,10460,12694,10353,12853,10194,12960,1E+4,13000,9000,13000" />
    </g>
    <g
       style="fill:#000000"
       id="g886"
       transform="translate(-4999.5,2977.056)">
      <polygon
         id="polygon887"
         points="9898,5053 10256,5204 10560,5439 10795,5743 10946,6101 11000,6500 11000,9500 10946,9898 10795,10256 10560,10560 10256,10795 9898,10946 9500,11000 9000,11000 9000,11000 8500,11000 8101,10946 7743,10795 7439,10560 7204,10256 7053,9898 7000,9500 7000,6500 7053,6101 7204,5743 7439,5439 7743,5204 8101,5053 8500,5000 9500,5000 " />
    </g>
    <g
       style="fill:none;stroke:#000000"
       id="g888"
       transform="translate(-4999.5,2977.056)">
      <polyline
         style="fill:none"
         id="polyline889"
         points="9000,11000,8500,11000,8101,10946,7743,10795,7439,10560,7204,10256,7053,9898,7000,9500,7000,6500,7053,6101,7204,5743,7439,5439,7743,5204,8101,5053,8500,5000,9500,5000,9898,5053,10256,5204,10560,5439,10795,5743,10946,6101,11000,6500,11000,9500,10946,9898,10795,10256,10560,10560,10256,10795,9898,10946,9500,11000,9000,11000" />
    </g>
    <g
       style="fill:#ffffff"
       id="g890"
       transform="translate(-4999.5,2977.056)">
      <polygon
         id="polygon891"
         points="10000,9500 9960,9694 9853,9853 9694,9960 9500,10000 9000,10000 9000,10000 8500,10000 8305,9960 8146,9853 8039,9694 8000,9500 8000,6500 8039,6305 8146,6146 8305,6039 8500,6000 9500,6000 9694,6039 9853,6146 9960,6305 10000,6500 " />
    </g>
    <g
       style="fill:none;stroke:#000000"
       id="g892"
       transform="translate(-4999.5,2977.056)">
      <polyline
         style="fill:none"
         id="polyline893"
         points="9000,1E+4,8500,1E+4,8305,9960,8146,9853,8039,9694,8000,9500,8000,6500,8039,6305,8146,6146,8305,6039,8500,6000,9500,6000,9694,6039,9853,6146,9960,6305,1E+4,6500,1E+4,9500,9960,9694,9853,9853,9694,9960,9500,1E+4,9000,1E+4" />
    </g>
    <text
       id="text896"
       style="font-style:normal;font-weight:bold;font-size:2304.03295898px;line-height:100%;font-family:'Bitstream Vera Sans';writing-mode:lr-tb;text-anchor:start"
       transform="scale(1.0971586,0.91144525)"
       font-size="2304.03295898px"
       y="10908.013"
       font-style="normal"
       x="6372.291"
       font-weight="bold"
       line-height="100%">
      <tspan
         id="tspan1016"
         y="10908.013"
         x="6372.291">Vorbis</tspan>
    </text>
    <polygon
       id="polygon898"
       points="15806,11409 15948,11684 16000,12000 16000,12000 15948,12315 15806,12590 15590,12806 15315,12948 15000,13000 15000,13000 15000,13000 15000,13000 14684,12948 14409,12806 14193,12590 14051,12315 14000,12000 14000,12000 14051,11684 14193,11409 14409,11193 14684,11051 15000,11000 15315,11051 15590,11193 "
       transform="translate(-4999.5,2977.056)" />
    <g
       style="font-weight:400;font-size:2125px;fill:none;stroke:#000000"
       id="g899"
       font-size="2125px"
       transform="translate(-4999.5,2977.056)"
       font-weight="400">
      <polyline
         style="fill:none"
         id="polyline900"
         points="15000,13000,14684,12948,14409,12806,14193,12590,14051,12315,14000,12000,14051,11684,14193,11409,14409,11193,14684,11051,15000,11000,15315,11051,15590,11193,15806,11409,15948,11684,16000,12000,15948,12315,15806,12590,15590,12806,15315,12948,15000,13000" />
    </g>
    <g
       style="font-weight:400;font-size:2125px;fill:#ffffff"
       id="g901"
       font-size="2125px"
       transform="translate(-4999.5,2977.056)"
       font-weight="400">
      <polygon
         id="polygon902"
         points="15000,11500 14960,11694 14853,11853 14694,11960 14500,12000 13500,12000 13500,12000 12500,12000 12305,11960 12146,11853 12039,11694 12000,11500 12000,10500 12039,10305 12146,10146 12305,10039 12500,10000 14500,10000 14694,10039 14853,10146 14960,10305 15000,10500 " />
    </g>
    <g
       style="font-weight:400;font-size:2125px;fill:none;stroke:#ffffff"
       id="g903"
       font-size="2125px"
       transform="translate(-4999.5,2977.056)"
       font-weight="400">
      <polyline
         style="fill:none"
         id="polyline904"
         points="13500,12000,12500,12000,12305,11960,12146,11853,12039,11694,12000,11500,12000,10500,12039,10305,12146,10146,12305,10039,12500,1E+4,14500,1E+4,14694,10039,14853,10146,14960,10305,15000,10500,15000,11500,14960,11694,14853,11853,14694,11960,14500,12000,13500,12000" />
    </g>
    <g
       style="font-weight:400;font-size:2125px"
       id="g905"
       font-size="2125px"
       font-weight="400"
       transform="translate(-4999.5,2977.056)">
      <polygon
         id="polygon906"
         points="15000,10500 14960,10694 14853,10853 14694,10960 14500,11000 14000,11000 14000,11000 13500,11000 13305,10960 13146,10853 13039,10694 13000,10500 13000,8500 13039,8305 13146,8146 13305,8039 13500,8000 14500,8000 14694,8039 14853,8146 14960,8305 15000,8500 " />
    </g>
    <g
       style="font-weight:400;font-size:2125px;fill:none;stroke:#000000"
       id="g907"
       font-size="2125px"
       transform="translate(-4999.5,2977.056)"
       font-weight="400">
      <polyline
         style="fill:none"
         id="polyline908"
         points="14000,11000,13500,11000,13305,10960,13146,10853,13039,10694,13000,10500,13000,8500,13039,8305,13146,8146,13305,8039,13500,8000,14500,8000,14694,8039,14853,8146,14960,8305,15000,8500,15000,10500,14960,10694,14853,10853,14694,10960,14500,11000,14000,11000" />
    </g>
    <g
       style="font-weight:400;font-size:2125px"
       id="g909"
       font-size="2125px"
       font-weight="400"
       transform="translate(-4999.5,2977.056)">
      <polygon
         id="polygon910"
         points="16000,12000 15000,12000 15000,8000 16000,8000 " />
    </g>
    <g
       style="font-weight:400;font-size:2125px;fill:none;stroke:#000000"
       id="g911"
       font-size="2125px"
       transform="translate(-4999.5,2977.056)"
       font-weight="400">
      <polyline
         style="fill:none"
         id="polyline912"
         points="15500,12000,15000,12000,15000,8000,16000,8000,16000,12000,15500,12000" />
    </g>
    <g
       style="font-weight:400;font-size:2125px"
       id="g913"
       font-size="2125px"
       font-weight="400"
       transform="translate(-4999.5,2977.056)">
      <polygon
         id="polygon914"
         points="15000,13000 12500,13000 12500,12000 15000,12000 " />
    </g>
    <g
       style="font-weight:400;font-size:2125px;fill:none;stroke:#000000"
       id="g915"
       font-size="2125px"
       transform="translate(-4999.5,2977.056)"
       font-weight="400">
      <polyline
         style="fill:none"
         id="polyline916"
         points="13750,13000,12500,13000,12500,12000,15000,12000,15000,13000,13750,13000" />
    </g>
    <g
       style="font-weight:400;font-size:2125px"
       id="g917"
       font-size="2125px"
       font-weight="400"
       transform="translate(-4999.5,2977.056)">
      <polygon
         id="polygon918"
         points="14398,8053 14756,8204 15060,8439 15295,8743 15446,9101 15500,9500 15500,9500 15446,9898 15295,10256 15060,10560 14756,10795 14398,10946 14000,11000 13750,11000 13750,11000 13500,11000 13101,10946 12743,10795 12439,10560 12204,10256 12053,9898 12000,9500 12000,9500 12053,9101 12204,8743 12439,8439 12743,8204 13101,8053 13500,8000 14000,8000 " />
    </g>
    <g
       style="font-weight:400;font-size:2125px;fill:none;stroke:#000000"
       id="g919"
       font-size="2125px"
       transform="translate(-4999.5,2977.056)"
       font-weight="400">
      <polyline
         style="fill:none"
         id="polyline920"
         points="13750,11000,13500,11000,13101,10946,12743,10795,12439,10560,12204,10256,12053,9898,12000,9500,12053,9101,12204,8743,12439,8439,12743,8204,13101,8053,13500,8000,14000,8000,14398,8053,14756,8204,15060,8439,15295,8743,15446,9101,15500,9500,15446,9898,15295,10256,15060,10560,14756,10795,14398,10946,14000,11000,13750,11000" />
    </g>
    <g
       style="font-weight:400;font-size:2125px;fill:#ffffff"
       id="g921"
       font-size="2125px"
       transform="translate(-4999.5,2977.056)"
       font-weight="400">
      <polygon
         id="polygon922"
         points="15000,9500 14960,9694 14853,9853 14694,9960 14500,10000 14000,10000 14000,10000 13500,10000 13305,9960 13146,9853 13039,9694 13000,9500 13000,9500 13039,9305 13146,9146 13305,9039 13500,9000 14500,9000 14694,9039 14853,9146 14960,9305 15000,9500 " />
    </g>
    <g
       style="font-weight:400;font-size:2125px;fill:none;stroke:#000000"
       id="g923"
       font-size="2125px"
       transform="translate(-4999.5,2977.056)"
       font-weight="400">
      <polyline
         style="fill:none"
         id="polyline924"
         points="14000,1E+4,13500,1E+4,13305,9960,13146,9853,13039,9694,13000,9500,13039,9305,13146,9146,13305,9039,13500,9000,14500,9000,14694,9039,14853,9146,14960,9305,15000,9500,14960,9694,14853,9853,14694,9960,14500,1E+4,14000,1E+4" />
    </g>
    <g
       style="font-weight:400;font-size:2125px"
       id="g925"
       font-size="2125px"
       font-weight="400"
       transform="translate(-4999.5,2977.056)">
      <polygon
         id="polygon926"
         points="20806,11409 20948,11684 21000,12000 21000,12000 20948,12315 20806,12590 20590,12806 20315,12948 20000,13000 20000,13000 20000,13000 20000,13000 19684,12948 19409,12806 19193,12590 19051,12315 19000,12000 19000,12000 19051,11684 19193,11409 19409,11193 19684,11051 20000,11000 20315,11051 20590,11193 " />
    </g>
    <g
       style="font-weight:400;font-size:2125px;fill:none;stroke:#000000"
       id="g927"
       font-size="2125px"
       transform="translate(-4999.5,2977.056)"
       font-weight="400">
      <polyline
         style="fill:none"
         id="polyline928"
         points="2E+4,13000,19684,12948,19409,12806,19193,12590,19051,12315,19000,12000,19051,11684,19193,11409,19409,11193,19684,11051,2E+4,11000,20315,11051,20590,11193,20806,11409,20948,11684,21000,12000,20948,12315,20806,12590,20590,12806,20315,12948,2E+4,13000" />
    </g>
    <g
       style="font-weight:400;font-size:2125px;fill:#ffffff"
       id="g929"
       font-size="2125px"
       transform="translate(-4999.5,2977.056)"
       font-weight="400">
      <polygon
         id="polygon930"
         points="20000,11500 19960,11694 19853,11853 19694,11960 19500,12000 18500,12000 18500,12000 17500,12000 17305,11960 17146,11853 17039,11694 17000,11500 17000,10500 17039,10305 17146,10146 17305,10039 17500,10000 19500,10000 19694,10039 19853,10146 19960,10305 20000,10500 " />
    </g>
    <g
       style="font-weight:400;font-size:2125px;fill:none;stroke:#ffffff"
       id="g931"
       font-size="2125px"
       transform="translate(-4999.5,2977.056)"
       font-weight="400">
      <polyline
         style="fill:none"
         id="polyline932"
         points="18500,12000,17500,12000,17305,11960,17146,11853,17039,11694,17000,11500,17000,10500,17039,10305,17146,10146,17305,10039,17500,1E+4,19500,1E+4,19694,10039,19853,10146,19960,10305,2E+4,10500,2E+4,11500,19960,11694,19853,11853,19694,11960,19500,12000,18500,12000" />
    </g>
    <g
       style="font-weight:400;font-size:2125px"
       id="g933"
       font-size="2125px"
       font-weight="400"
       transform="translate(-4999.5,2977.056)">
      <polygon
         id="polygon934"
         points="20000,10500 19960,10694 19853,10853 19694,10960 19500,11000 19000,11000 19000,11000 18500,11000 18305,10960 18146,10853 18039,10694 18000,10500 18000,8500 18039,8305 18146,8146 18305,8039 18500,8000 19500,8000 19694,8039 19853,8146 19960,8305 20000,8500 " />
    </g>
    <g
       style="font-weight:400;font-size:2125px;fill:none;stroke:#000000"
       id="g935"
       font-size="2125px"
       transform="translate(-4999.5,2977.056)"
       font-weight="400">
      <polyline
         style="fill:none"
         id="polyline936"
         points="19000,11000,18500,11000,18305,10960,18146,10853,18039,10694,18000,10500,18000,8500,18039,8305,18146,8146,18305,8039,18500,8000,19500,8000,19694,8039,19853,8146,19960,8305,2E+4,8500,2E+4,10500,19960,10694,19853,10853,19694,10960,19500,11000,19000,11000" />
    </g>
    <g
       style="font-weight:400;font-size:2125px"
       id="g937"
       font-size="2125px"
       font-weight="400"
       transform="translate(-4999.5,2977.056)">
      <polygon
         id="polygon938"
         points="21000,12000 20000,12000 20000,8000 21000,8000 " />
    </g>
    <g
       style="font-weight:400;font-size:2125px;fill:none;stroke:#000000"
       id="g939"
       font-size="2125px"
       transform="translate(-4999.5,2977.056)"
       font-weight="400">
      <polyline
         style="fill:none"
         id="polyline940"
         points="20500,12000,2E+4,12000,2E+4,8000,21000,8000,21000,12000,20500,12000" />
    </g>
    <g
       style="font-weight:400;font-size:2125px"
       id="g941"
       font-size="2125px"
       font-weight="400"
       transform="translate(-4999.5,2977.056)">
      <polygon
         id="polygon942"
         points="20000,13000 17500,13000 17500,12000 20000,12000 " />
    </g>
    <g
       style="font-weight:400;font-size:2125px;fill:none;stroke:#000000"
       id="g943"
       font-size="2125px"
       transform="translate(-4999.5,2977.056)"
       font-weight="400">
      <polyline
         style="fill:none"
         id="polyline944"
         points="18750,13000,17500,13000,17500,12000,2E+4,12000,2E+4,13000,18750,13000" />
    </g>
    <g
       style="font-weight:400;font-size:2125px"
       id="g945"
       font-size="2125px"
       font-weight="400"
       transform="translate(-4999.5,2977.056)">
      <polygon
         id="polygon946"
         points="19398,8053 19756,8204 20060,8439 20295,8743 20446,9101 20500,9500 20500,9500 20446,9898 20295,10256 20060,10560 19756,10795 19398,10946 19000,11000 18750,11000 18750,11000 18500,11000 18101,10946 17743,10795 17439,10560 17204,10256 17053,9898 17000,9500 17000,9500 17053,9101 17204,8743 17439,8439 17743,8204 18101,8053 18500,8000 19000,8000 " />
    </g>
    <g
       style="font-weight:400;font-size:2125px;fill:none;stroke:#000000"
       id="g947"
       font-size="2125px"
       transform="translate(-4999.5,2977.056)"
       font-weight="400">
      <polyline
         style="fill:none"
         id="polyline948"
         points="18750,11000,18500,11000,18101,10946,17743,10795,17439,10560,17204,10256,17053,9898,17000,9500,17053,9101,17204,8743,17439,8439,17743,8204,18101,8053,18500,8000,19000,8000,19398,8053,19756,8204,20060,8439,20295,8743,20446,9101,20500,9500,20446,9898,20295,10256,20060,10560,19756,10795,19398,10946,19000,11000,18750,11000" />
    </g>
    <g
       style="font-weight:400;font-size:2125px;fill:#ffffff"
       id="g949"
       font-size="2125px"
       transform="translate(-4999.5,2977.056)"
       font-weight="400">
      <polygon
         id="polygon950"
         points="20000,9500 19960,9694 19853,9853 19694,9960 19500,10000 19000,10000 19000,10000 18500,10000 18305,9960 18146,9853 18039,9694 18000,9500 18000,9500 18039,9305 18146,9146 18305,9039 18500,9000 19500,9000 19694,9039 19853,9146 19960,9305 20000,9500 " />
    </g>
    <g
       style="font-weight:400;font-size:2125px;fill:none;stroke:#000000"
       id="g951"
       font-size="2125px"
       transform="translate(-4999.5,2977.056)"
       font-weight="400">
      <polyline
         style="fill:none"
         id="polyline952"
         points="19000,1E+4,18500,1E+4,18305,9960,18146,9853,18039,9694,18000,9500,18039,9305,18146,9146,18305,9039,18500,9000,19500,9000,19694,9039,19853,9146,19960,9305,2E+4,9500,19960,9694,19853,9853,19694,9960,19500,1E+4,19000,1E+4" />
    </g>
  </g>
</svg>
