<?xml version="1.0" encoding="UTF-8" standalone="no"?>
<svg
   xmlns:dc="http://purl.org/dc/elements/1.1/"
   xmlns:cc="http://creativecommons.org/ns#"
   xmlns:rdf="http://www.w3.org/1999/02/22-rdf-syntax-ns#"
   xmlns:svg="http://www.w3.org/2000/svg"
   xmlns="http://www.w3.org/2000/svg"
   xmlns:sodipodi="http://sodipodi.sourceforge.net/DTD/sodipodi-0.dtd"
   xmlns:inkscape="http://www.inkscape.org/namespaces/inkscape"
   width="205.66005mm"
   height="207.89409mm"
   viewBox="0 0 205.66004 207.89409"
   version="1.1"
   id="svg8"
   sodipodi:docname="rss.svg"
   inkscape:version="0.92.2 5c3e80d, 2017-08-06">
  <metadata
     id="metadata14">
    <rdf:RDF>
      <cc:Work
         rdf:about="">
        <dc:format>image/svg+xml</dc:format>
        <dc:type
           rdf:resource="http://purl.org/dc/dcmitype/StillImage" />
      </cc:Work>
    </rdf:RDF>
  </metadata>
  <defs
     id="defs12" />
  <sodipodi:namedview
     pagecolor="#ffffff"
     bordercolor="#666666"
     borderopacity="1"
     objecttolerance="10"
     gridtolerance="10"
     guidetolerance="10"
     inkscape:pageopacity="0"
     inkscape:pageshadow="2"
     inkscape:window-width="1367"
     inkscape:window-height="984"
     id="namedview10"
     showgrid="false"
     inkscape:zoom="0.30035326"
     inkscape:cx="388.64891"
     inkscape:cy="392.87072"
     inkscape:window-x="0"
     inkscape:window-y="0"
     inkscape:window-maximized="0"
     inkscape:current-layer="svg8" />
  <ellipse
     ry="94.947044"
     rx="93.830025"
     cy="103.94704"
     cx="102.83002"
     id="path815"
     style="opacity:1;fill:none;fill-opacity:1;stroke:#000000;stroke-width:18;stroke-linecap:round;stroke-linejoin:miter;stroke-miterlimit:4;stroke-dasharray:none;stroke-opacity:1" />
  <style
     type="text/css"
     id="style3111">
	.st0{fill:#333333;}
</style>
  <style
     type="text/css"
     id="style2">
	.st0{fill:none;}
	.st1{fill:#F4481E;}
	.st2{fill:url(#SVGID_1_);}
	.st3{opacity:0.1;fill:#FFFFFF;enable-background:new    ;}
	.st4{fill:#FFD119;}
	.st5{fill:#FF8C00;}
	.st6{fill:url(#SVGID_2_);}
	.st7{fill:#FAFAFA;}
	.st8{opacity:0.3;fill:#FFFFFF;enable-background:new    ;}
</style>
  <g
     id="g1018"
     transform="matrix(4.7214783,0,0,4.7214783,45.388515,46.507895)">
    <g
       id="g958">
      <g
         id="c40_rss">
        <path
           id="path950"
           d="M 3.607,17.11 C 1.618,17.11 0,18.726 0,20.717 c 0,1.984 1.618,3.604 3.607,3.604 1.989,0 3.607,-1.619 3.607,-3.604 0,-1.991 -1.618,-3.607 -3.607,-3.607 z"
           inkscape:connector-curvature="0" />
        <path
           id="path952"
           d="M 0.375,7.951 C 0.169,7.951 0,8.12 0,8.328 v 4.578 c 0,0.206 0.169,0.374 0.375,0.374 5.879,0 10.665,4.784 10.665,10.665 0,0.205 0.166,0.375 0.375,0.375 h 4.581 0.016 c 0.209,0 0.377,-0.17 0.377,-0.375 L 16.371,23.828 C 16.305,15.064 9.152,7.951 0.375,7.951 Z"
           inkscape:connector-curvature="0" />
        <path
           id="path954"
           d="M 24.311,23.828 C 24.246,10.681 13.531,0.01 0.375,0.01 0.169,0.01 0,0.179 0,0.387 v 4.711 c 0,0.207 0.169,0.375 0.375,0.375 10.186,0 18.472,8.287 18.472,18.473 0,0.205 0.168,0.375 0.373,0.375 h 4.713 0.02 c 0.205,0 0.379,-0.17 0.379,-0.375 z"
           inkscape:connector-curvature="0" />
      </g>
      <g
         id="Capa_1_3_" />
    </g>
    <g
       id="g960" />
    <g
       id="g962" />
    <g
       id="g964" />
    <g
       id="g966" />
    <g
       id="g968" />
    <g
       id="g970" />
    <g
       id="g972" />
    <g
       id="g974" />
    <g
       id="g976" />
    <g
       id="g978" />
    <g
       id="g980" />
    <g
       id="g982" />
    <g
       id="g984" />
    <g
       id="g986" />
    <g
       id="g988" />
  </g>
</svg>
