<?xml version="1.0" encoding="UTF-8" standalone="no"?>
<!-- Created with Inkscape (http://www.inkscape.org/) -->
<svg id="svg2" xmlns:rdf="http://www.w3.org/1999/02/22-rdf-syntax-ns#" xmlns="http://www.w3.org/2000/svg" height="255.64" width="1274.2" version="1.0" xmlns:cc="http://creativecommons.org/ns#" xmlns:dc="http://purl.org/dc/elements/1.1/">
 <defs id="defs4"></defs>
 <metadata id="metadata7">
  <rdf:RDF>
   <cc:Work rdf:about="">
    <dc:format>image/svg+xml</dc:format>
    <dc:type rdf:resource="http://purl.org/dc/dcmitype/StillImage"/>
    <dc:title/>
   </cc:Work>
  </rdf:RDF>
 </metadata>
 <path id="path2385" stroke-linejoin="miter" d="m323.21,360.93-23.813-6.9686-16.062,18.995-0.73123-24.801-23.029-9.4061,23.361-8.3594,1.8294-24.808,15.169,19.635,24.16-5.9264-13.986,20.494z" fill-rule="evenodd" fill-opacity="0.11504427000000000" transform="matrix(3.3912573,1.0370763,-1.0370763,3.3912573,-263.17315,-1317.6131)" stroke="#e6e04d" stroke-dasharray="none" stroke-miterlimit="4" stroke-width="1.12794021000000000" fill="#edec24"/>
 <path id="path3817" stroke-linejoin="miter" d="m323.21,360.93-23.813-6.9686-16.062,18.995-0.73123-24.801-23.029-9.4061,23.361-8.3594,1.8294-24.808,15.169,19.635,24.16-5.9264-13.986,20.494z" fill-rule="evenodd" fill-opacity="0.11504427000000000" transform="matrix(3.3912573,1.0370763,-1.0370763,3.3912573,-514.95367,-1317.6131)" stroke="#e6e04d" stroke-dasharray="none" stroke-miterlimit="4" stroke-width="1.12794021000000000" fill="#edec24"/>
 <path id="path3827" stroke-linejoin="miter" d="m323.21,360.93-23.813-6.9686-16.062,18.995-0.73123-24.801-23.029-9.4061,23.361-8.3594,1.8294-24.808,15.169,19.635,24.16-5.9264-13.986,20.494z" fill-rule="evenodd" fill-opacity="0.11504427000000000" transform="matrix(3.3912573,1.0370763,-1.0370763,3.3912573,-11.39263,-1317.6131)" stroke="#e6e04d" stroke-dasharray="none" stroke-miterlimit="4" stroke-width="1.12794021000000000" fill="#edec24"/>
 <path id="path3837" stroke-linejoin="miter" d="m323.21,360.93-23.813-6.9686-16.062,18.995-0.73123-24.801-23.029-9.4061,23.361-8.3594,1.8294-24.808,15.169,19.635,24.16-5.9264-13.986,20.494z" fill-rule="evenodd" fill-opacity="0.11504427000000000" transform="matrix(3.3912573,1.0370763,-1.0370763,3.3912573,240.38789,-1317.6131)" stroke="#e6e04d" stroke-dasharray="none" stroke-miterlimit="4" stroke-width="1.12794021000000000" fill="#edec24"/>
 <path id="path3847" stroke-linejoin="miter" d="m323.21,360.93-23.813-6.9686-16.062,18.995-0.73123-24.801-23.029-9.4061,23.361-8.3594,1.8294-24.808,15.169,19.635,24.16-5.9264-13.986,20.494z" fill-rule="evenodd" fill-opacity="0.11504427000000000" transform="matrix(3.3912573,1.0370763,-1.0370763,3.3912573,492.16841,-1317.6131)" stroke="#e6e04d" stroke-dasharray="none" stroke-miterlimit="4" stroke-width="1.12794021000000000" fill="#edec24"/>
</svg>
