<?xml version="1.0" encoding="UTF-8" standalone="no"?>
<!-- Created with Inkscape (http://www.inkscape.org/) -->
<svg id="svg2" xmlns:rdf="http://www.w3.org/1999/02/22-rdf-syntax-ns#" xmlns="http://www.w3.org/2000/svg" height="255.64" width="1274.2" version="1.0" xmlns:cc="http://creativecommons.org/ns#" xmlns:xlink="http://www.w3.org/1999/xlink" xmlns:dc="http://purl.org/dc/elements/1.1/">
 <defs id="defs4">
  <linearGradient id="linearGradient6237" y2="328.16" gradientUnits="userSpaceOnUse" x2="279.36" y1="356.73" x1="331.66">
   <stop id="stop6233" stop-color="#000" offset="0"/>
   <stop id="stop6235" stop-color="#000" stop-opacity="0" offset="1"/>
  </linearGradient>
  <linearGradient id="linearGradient6245" y2="356.73" gradientUnits="userSpaceOnUse" x2="331.66" y1="328.16" x1="279.36">
   <stop id="stop6241" stop-color="#e6e04d" offset="0"/>
   <stop id="stop6243" stop-color="#e6e04d" stop-opacity="0" offset="1"/>
  </linearGradient>
 </defs>
 <metadata id="metadata7">
  <rdf:RDF>
   <cc:Work rdf:about="">
    <dc:format>image/svg+xml</dc:format>
    <dc:type rdf:resource="http://purl.org/dc/dcmitype/StillImage"/>
    <dc:title/>
   </cc:Work>
  </rdf:RDF>
 </metadata>
 <path id="path2385" stroke-linejoin="miter" d="m323.21,360.93-23.813-6.9686-16.062,18.995-0.73123-24.801-23.029-9.4061,23.361-8.3594,1.8294-24.808,15.169,19.635,24.16-5.9264-13.986,20.494z" fill-rule="evenodd" fill-opacity="0.11504427000000000" transform="matrix(3.3912573,1.0370763,-1.0370763,3.3912573,-263.17315,-1317.6131)" stroke="#e6e04d" stroke-dasharray="none" stroke-miterlimit="4" stroke-width="1.12794021000000000" fill="#edec24"/>
 <path id="path3817" stroke-linejoin="miter" d="m323.21,360.93-23.813-6.9686-16.062,18.995-0.73123-24.801-23.029-9.4061,23.361-8.3594,1.8294-24.808,15.169,19.635,24.16-5.9264-13.986,20.494z" fill-rule="evenodd" transform="matrix(3.3912573,1.0370763,-1.0370763,3.3912573,-514.95367,-1317.6131)" stroke="#e6e04d" stroke-dasharray="none" stroke-miterlimit="4" stroke-width="1.12794021000000000" fill="#edeb24"/>
 <path id="path3827" stroke-linejoin="miter" d="m323.21,360.93-23.813-6.9686-16.062,18.995-0.73123-24.801-23.029-9.4061,23.361-8.3594,1.8294-24.808,15.169,19.635,24.16-5.9264-13.986,20.494z" fill-rule="evenodd" fill-opacity="0.11504427000000000" transform="matrix(3.3912573,1.0370763,-1.0370763,3.3912573,-11.39263,-1317.6131)" stroke="#e6e04d" stroke-dasharray="none" stroke-miterlimit="4" stroke-width="1.12794021000000000" fill="#edec24"/>
 <path id="path3837" stroke-linejoin="miter" d="m323.21,360.93-23.813-6.9686-16.062,18.995-0.73123-24.801-23.029-9.4061,23.361-8.3594,1.8294-24.808,15.169,19.635,24.16-5.9264-13.986,20.494z" fill-rule="evenodd" fill-opacity="0.11504427000000000" transform="matrix(3.3912573,1.0370763,-1.0370763,3.3912573,240.38789,-1317.6131)" stroke="#e6e04d" stroke-dasharray="none" stroke-miterlimit="4" stroke-width="1.12794021000000000" fill="#edec24"/>
 <path id="path3847" stroke-linejoin="miter" d="m323.21,360.93-23.813-6.9686-16.062,18.995-0.73123-24.801-23.029-9.4061,23.361-8.3594,1.8294-24.808,15.169,19.635,24.16-5.9264-13.986,20.494z" fill-rule="evenodd" fill-opacity="0.11504427000000000" transform="matrix(3.3912573,1.0370763,-1.0370763,3.3912573,492.16841,-1317.6131)" stroke="#e6e04d" stroke-dasharray="none" stroke-miterlimit="4" stroke-width="1.12794021000000000" fill="#edec24"/>
 <path id="path6075" stroke-linejoin="miter" d="m323.21,360.93-23.813-6.9686-16.062,18.995-0.73123-24.801-23.029-9.4061,23.361-8.3594,1.8294-24.808,15.169,19.635,24.16-5.9264-13.986,20.494z" fill-rule="evenodd" transform="matrix(3.3912573,1.0370763,-1.0370763,3.3912573,-514.95367,-1317.6131)" stroke="url(#linearGradient6245)" stroke-dasharray="none" stroke-miterlimit="4" stroke-width="1.12794021000000000" fill="url(#linearGradient6237)"/>
</svg>
