<?xml version="1.0" encoding="UTF-8" standalone="no"?>
<svg
   xmlns:dc="http://purl.org/dc/elements/1.1/"
   xmlns:cc="http://creativecommons.org/ns#"
   xmlns:rdf="http://www.w3.org/1999/02/22-rdf-syntax-ns#"
   xmlns:svg="http://www.w3.org/2000/svg"
   xmlns="http://www.w3.org/2000/svg"
   id="svg1052"
   version="1.1"
   enable-background="new 0 0 26 26"
   viewBox="0 0 26 26">
  <metadata
     id="metadata1058">
    <rdf:RDF>
      <cc:Work
         rdf:about="">
        <dc:format>image/svg+xml</dc:format>
        <dc:type
           rdf:resource="http://purl.org/dc/dcmitype/StillImage" />
        <dc:title></dc:title>
      </cc:Work>
    </rdf:RDF>
  </metadata>
  <defs
     id="defs1056" />
  <path
     style="fill:#db0000;fill-opacity:1"
     id="path1050"
     d="M 8 0 C 5.8 0 4 1.8 4 4 L 4 11 L 1 11 C 0.4 11 0 11.5 0 12 L 0 18 C 0 18.5 0.4 19 1 19 L 4 19 L 4 22 C 4 24.2 5.8 26 8 26 L 20 26 C 22.2 26 24 24.2 24 22 L 24 8 C 24 6.9 23.0125 5.8875 21.3125 4.1875 C 21.0125 3.9875 20.8 3.7 20.5 3.5 C 20.3 3.2 20.0125 2.9875 19.8125 2.6875 C 18.1125 0.9875 17.1 5.9211895e-16 16 0 L 8 0 z M 8 2 L 15.3125 2 C 16.0125 2.2 16 3.1 16 4 L 16 7 C 16 7.6 16.4 8 17 8 L 20 8 C 21 8 22 8 22 9 L 22 22 C 22 23.1 21.1 24 20 24 L 8 24 C 6.9 24 6 23.1 6 22 L 6 19 L 18 19 C 18.6 19 19 18.5 19 18 L 19 12 C 19 11.5 18.6 11 18 11 L 6 11 L 6 4 C 6 2.9 6.9 2 8 2 z M 15.8125 11.90625 C 16.5125 11.90625 16.89375 11.9875 17.09375 12.1875 C 17.19375 12.1875 17.1875 12.30625 17.1875 12.40625 L 17 13.40625 C 17 13.40625 17.00625 13.5 16.90625 13.5 L 16.8125 13.5 C 16.6125 13.4 16.30625 13.3125 15.90625 13.3125 C 15.00625 13.3125 14.5 13.9 14.5 15 C 14.5 16.1 15.00625 16.6875 15.90625 16.6875 C 16.20625 16.6875 16.6125 16.6 16.8125 16.5 L 16.90625 16.5 L 17 16.59375 L 17.1875 17.59375 C 17.1875 17.69375 17.19375 17.7125 17.09375 17.8125 C 16.89375 17.9125 16.2875 18.09375 15.6875 18.09375 C 13.9875 18.09375 12.90625 16.89375 12.90625 15.09375 C 12.90625 13.19375 14.1125 11.90625 15.8125 11.90625 z M 2.625 12 C 2.625 11.9875 2.6375 12 2.6875 12 L 4.1875 12 C 4.2875 12 4.30625 11.99375 4.40625 12.09375 L 6 17.8125 L 6 17.90625 C 6 18.00625 5.9125 18 5.8125 18 L 4.59375 18 C 4.49375 18 4.50625 18.00625 4.40625 17.90625 L 4 16.5 L 2.8125 16.5 L 2.5 17.90625 C 2.5 18.00625 2.40625 18 2.40625 18 L 1.1875 18 C 1.1875 18 1.09375 18.00625 1.09375 17.90625 L 1.09375 17.8125 L 2.6875 12.09375 C 2.6375 12.04375 2.625 12.0125 2.625 12 z M 8.625 12 C 8.625 11.9875 8.6375 12 8.6875 12 L 10.1875 12 C 10.2875 12 10.30625 11.99375 10.40625 12.09375 L 12 17.8125 L 12 17.90625 C 12 18.00625 11.9125 18 11.8125 18 L 10.5 18 C 10.4 18 10.4125 18.00625 10.3125 17.90625 L 9.90625 16.5 L 8.8125 16.5 L 8.5 17.90625 C 8.5 18.00625 8.40625 18 8.40625 18 L 7.1875 18 C 7.1875 18 7.09375 18.00625 7.09375 17.90625 L 7.09375 17.8125 L 8.6875 12.09375 C 8.6375 12.04375 8.625 12.0125 8.625 12 z M 3.40625 13.8125 C 3.40625 13.9125 3.3125 14.0875 3.3125 14.1875 L 3 15.1875 L 3.6875 15.1875 L 3.40625 14.1875 C 3.50625 14.0875 3.50625 14.0125 3.40625 13.8125 z M 9.40625 13.8125 C 9.40625 13.9125 9.3125 14.0875 9.3125 14.1875 L 9 15.1875 L 9.6875 15.1875 L 9.40625 14.1875 C 9.50625 14.0875 9.50625 14.0125 9.40625 13.8125 z" />
</svg>
