<?xml version="1.0" encoding="UTF-8" standalone="no"?>
<svg
   xmlns:dc="http://purl.org/dc/elements/1.1/"
   xmlns:cc="http://creativecommons.org/ns#"
   xmlns:rdf="http://www.w3.org/1999/02/22-rdf-syntax-ns#"
   xmlns:svg="http://www.w3.org/2000/svg"
   xmlns="http://www.w3.org/2000/svg"
   xmlns:sodipodi="http://sodipodi.sourceforge.net/DTD/sodipodi-0.dtd"
   xmlns:inkscape="http://www.inkscape.org/namespaces/inkscape"
   inkscape:version="1.0beta2 (2b71d25, 2019-12-03)"
   sodipodi:docname="add.svg"
   id="svg4583"
   version="1.1"
   viewBox="3 3 16 16">
  <metadata
     id="metadata4589">
    <rdf:RDF>
      <cc:Work
         rdf:about="">
        <dc:format>image/svg+xml</dc:format>
        <dc:type
           rdf:resource="http://purl.org/dc/dcmitype/StillImage" />
      </cc:Work>
    </rdf:RDF>
  </metadata>
  <defs
     id="defs4587" />
  <sodipodi:namedview
     inkscape:current-layer="svg4583"
     inkscape:window-maximized="0"
     inkscape:window-y="24"
     inkscape:window-x="0"
     inkscape:cy="7.9520958"
     inkscape:cx="7.245509"
     inkscape:zoom="41.75"
     showgrid="false"
     id="namedview4585"
     inkscape:window-height="876"
     inkscape:window-width="1440"
     inkscape:pageshadow="2"
     inkscape:pageopacity="0"
     guidetolerance="10"
     gridtolerance="10"
     objecttolerance="10"
     borderopacity="1"
     inkscape:document-rotation="0"
     bordercolor="#666666"
     pagecolor="#ffffff" />
  <circle
     id="circle4579"
     fill="#fdbc4b"
     opacity=".98"
     transform="matrix(1 0 0-1 0-1030.36)"
     r="8"
     cy="-1041.36"
     cx="11" />
  <path
     style="stroke-width:0.0859264"
     inkscape:connector-curvature="0"
     id="path4581"
     fill="#fff"
     d="M 12.311448,5.192086 H 9.7351184 c -0.00188,1.2344181 0,4.481919 0,4.481919 0,0 -2.795099,0 -4.177826,0.0037 v 2.574527 c 1.3825551,-0.0019 4.177826,-0.0019 4.177826,-0.0019 0,0 0,3.243634 -0.00188,4.483637 h 2.5763306 c 0.0019,-1.240003 0.0019,-4.483637 0.0019,-4.483637 0,0 2.793209,0 4.175935,0 V 9.674005 c -1.382554,0 -4.175935,0 -4.175935,0 0,0 -0.0037,-3.2472431 0,-4.481919" />
</svg>
