<?xml version="1.0" encoding="UTF-8" standalone="no"?>
<svg
   xmlns:dc="http://purl.org/dc/elements/1.1/"
   xmlns:cc="http://creativecommons.org/ns#"
   xmlns:rdf="http://www.w3.org/1999/02/22-rdf-syntax-ns#"
   xmlns:svg="http://www.w3.org/2000/svg"
   xmlns="http://www.w3.org/2000/svg"
   version="1.1"
   width="52.963"
   height="52.963"
   id="svg3179">
  <defs
     id="defs3181">
    <linearGradient
       gradientTransform="matrix(1.731185,0,0,-1.731185,-537.14244,680.9703)"
       x1="314.57"
       x2="332.02"
       y1="369.98"
       gradientUnits="userSpaceOnUse"
       y2="387.44"
       id="linearGradient5596">
      <stop
         offset="0"
         stop-color="#1c97e1"
         id="stop4888" />
      <stop
         offset="1"
         stop-color="#006798"
         id="stop4890" />
    </linearGradient>
    <linearGradient
       x1="302.74"
       x2="311.27"
       gradientTransform="matrix(1.9519,0,0,-1.84182,-590.82094,743.3025)"
       y1="377.95"
       gradientUnits="userSpaceOnUse"
       y2="390.78"
       id="linearGradient6025">
      <stop
         offset="0"
         stop-color="#FFF"
         id="stop4556" />
      <stop
         offset="1"
         stop-opacity="0.0000000"
         stop-color="#FFF"
         id="stop4558" />
    </linearGradient>
    <linearGradient
       x1="467.19"
       x2="487.88"
       gradientTransform="matrix(0,-0.80139,1.247832,0,-726.8576,395.73501)"
       y1="592.79"
       gradientUnits="userSpaceOnUse"
       y2="614.64"
       id="linearGradient3177">
      <stop
         offset="0"
         stop-opacity="0.72656250"
         stop-color="#FFF"
         id="stop4740" />
      <stop
         offset="1"
         stop-color="#FFF"
         id="stop4742" />
    </linearGradient>
    <filter
       x="0"
       y="0"
       width="1"
       height="1"
       color-interpolation-filters="sRGB"
       id="filter2986">
      <feColorMatrix
         type="saturate"
         values="1"
         result="fbSourceGraphic"
         id="feColorMatrix2988" />
      <feColorMatrix
         in="fbSourceGraphic"
         values="-1 0 0 0 1 0 -1 0 0 1 0 0 -1 0 1 0 0 0 1 0 "
         id="feColorMatrix2990" />
    </filter>
    <linearGradient
       gradientTransform="matrix(1.731185,0,0,1.731185,-585.8453,-631.37741)"
       id="linearGradient5596-7"
       y2="387.44"
       gradientUnits="userSpaceOnUse"
       y1="369.98"
       x2="332.02"
       x1="314.57">
      <stop
         id="stop4888-9"
         stop-color="#1c97e1"
         offset="0" />
      <stop
         id="stop4890-5"
         stop-color="#006798"
         offset="1" />
    </linearGradient>
    <linearGradient
       id="linearGradient6025-3"
       y2="390.78"
       gradientUnits="userSpaceOnUse"
       y1="377.95"
       gradientTransform="matrix(1.9519,0,0,1.84182,-639.5238,-693.70961)"
       x2="311.27"
       x1="302.74">
      <stop
         id="stop4556-3"
         stop-color="#FFF"
         offset="0" />
      <stop
         id="stop4558-3"
         stop-color="#FFF"
         stop-opacity="0.0000000"
         offset="1" />
    </linearGradient>
    <linearGradient
       id="linearGradient3177-8"
       y2="614.64"
       gradientUnits="userSpaceOnUse"
       y1="592.79"
       gradientTransform="matrix(0,0.80139,1.247832,0,-726.8576,-343.16351)"
       x2="487.88"
       x1="467.19">
      <stop
         id="stop4740-5"
         stop-color="#FFF"
         stop-opacity="0.72656250"
         offset="0" />
      <stop
         id="stop4742-8"
         stop-color="#FFF"
         offset="1" />
    </linearGradient>
  </defs>
  <metadata
     id="metadata3184">
    <rdf:RDF>
      <cc:Work
         rdf:about="">
        <dc:format>image/svg+xml</dc:format>
        <dc:type
           rdf:resource="http://purl.org/dc/dcmitype/StillImage" />
        <dc:title></dc:title>
      </cc:Work>
    </rdf:RDF>
  </metadata>
  <path
     d="m 52.967612,26.477678 c 0,-14.625456 -11.856259,-26.48228365 -26.482284,-26.48228365 -14.625456,0 -26.48228403,11.85625865 -26.48228403,26.48228365 0,14.625456 11.85625903,26.482284 26.48228403,26.482284 14.625456,0 26.482284,-11.856259 26.482284,-26.482284 z"
     style="color:#000000;fill:#166496;fill-rule:nonzero;stroke-width:1.89606094"
     id="path5200" />
  <path
     stroke-miterlimit="4"
     d="m 50.664115,26.478499 c 0,-13.353669 -10.825273,-24.179461 -24.179461,-24.179461 -13.353669,0 -24.1794609,10.825273 -24.1794609,24.179461 0,13.353669 10.8252729,24.179461 24.1794609,24.179461 13.353669,0 24.179461,-10.825273 24.179461,-24.179461 z"
     style="color:#000000;fill:url(#linearGradient5596);fill-rule:nonzero;stroke:#ffffff;stroke-width:1.25;stroke-linecap:butt;stroke-linejoin:miter;stroke-miterlimit:4;stroke-dashoffset:0"
     id="path5202" />
  <path
     d="m 26.46196,50.64769 c -13.347,0 -24.175,-10.828 -24.175,-24.175 0,-6.4126 2.6169,-12.143 6.6955,-16.472 2.1188,17.5 16.89,31.107 34.959,31.107 0.4872,0 0.9396,-0.09896 1.4221,-0.1185 -4.4215,5.7507 -11.092,9.6581 -18.901,9.6581 z"
     style="color:#000000;fill:url(#linearGradient6025);fill-rule:nonzero"
     id="path5204" />
  <path
     d="m 10.691301,18.907906 4.1313,4.1313 11.7,-11.7 11.588,11.588 4.1619,-4.1619 -15.72,-15.7190003 -15.862,15.8620003 z"
     style="color:#000000;fill:url(#linearGradient3177);fill-rule:nonzero"
     id="path5206" />
  <path
     id="path5206-2"
     style="color:#000000;fill:url(#linearGradient3177-8);fill-rule:nonzero"
     d="m 10.691301,33.663593 4.1313,-4.1313 11.7,11.7 11.588,-11.588 4.1619,4.1619 -15.72,15.719 -15.862,-15.862 z" />
</svg>
