<?xml version="1.0" encoding="UTF-8" standalone="no"?>
<!-- Generator: Adobe Illustrator 19.0.0, SVG Export Plug-In . SVG Version: 6.00 Build 0)  -->

<svg
   xmlns:dc="http://purl.org/dc/elements/1.1/"
   xmlns:cc="http://creativecommons.org/ns#"
   xmlns:rdf="http://www.w3.org/1999/02/22-rdf-syntax-ns#"
   xmlns:svg="http://www.w3.org/2000/svg"
   xmlns="http://www.w3.org/2000/svg"
   xmlns:sodipodi="http://sodipodi.sourceforge.net/DTD/sodipodi-0.dtd"
   xmlns:inkscape="http://www.inkscape.org/namespaces/inkscape"
   version="1.1"
   id="Layer_1"
   x="0px"
   y="0px"
   viewBox="0 0 509.287 509.287"
   style="enable-background:new 0 0 509.287 509.287;"
   xml:space="preserve"
   sodipodi:docname="audiobook.svg"
   inkscape:version="0.92.2 5c3e80d, 2017-08-06"><metadata
     id="metadata51"><rdf:RDF><cc:Work
         rdf:about=""><dc:format>image/svg+xml</dc:format><dc:type
           rdf:resource="http://purl.org/dc/dcmitype/StillImage" /></cc:Work></rdf:RDF></metadata><defs
     id="defs49" /><sodipodi:namedview
     pagecolor="#ffffff"
     bordercolor="#666666"
     borderopacity="1"
     objecttolerance="10"
     gridtolerance="10"
     guidetolerance="10"
     inkscape:pageopacity="0"
     inkscape:pageshadow="2"
     inkscape:window-width="1630"
     inkscape:window-height="977"
     id="namedview47"
     showgrid="false"
     inkscape:zoom="0.46339295"
     inkscape:cx="254.64349"
     inkscape:cy="254.64349"
     inkscape:window-x="615"
     inkscape:window-y="236"
     inkscape:window-maximized="0"
     inkscape:current-layer="Layer_1" /><path
     style="fill:#4B5AA7;"
     d="M128.17,21.362c-23.735,0-43.062,19.327-43.062,43.062v380.44c0-23.735,19.327-43.062,43.062-43.062  h11.528V21.362H128.17z"
     id="path4" /><rect
     x="139.359"
     y="21.362"
     style="fill:#6EB1E1;"
     width="284.821"
     height="380.44"
     id="rect6" /><path
     style="fill:#0090FF;"
     d="M97.992,444.864c0-16.615,13.563-30.177,30.177-30.177h296.35v-12.885H128.17  c-23.735,0-43.062,19.327-43.062,43.062s19.327,43.062,43.062,43.062h296.35v-12.885H128.17  C111.555,474.702,97.992,461.478,97.992,444.864z"
     id="path8" /><g
     id="g14"><path
       style="fill:#FCFCFD;"
       d="M128.17,414.686c-16.615,0-30.177,13.563-30.177,30.177c0,16.615,13.224,30.177,30.177,30.177   c98.67,0,197.34,0,296.35,0c-11.868-18.31-11.868-41.706,0-60.016C325.51,414.686,226.84,414.686,128.17,414.686z"
       id="path10" /><path
       style="fill:#FCFCFD;"
       d="M365.521,95.958L226.84,131.56v137.325c-7.121-2.374-15.936-2.713-24.752-0.678   c-19.666,4.408-32.89,18.988-29.838,32.212c3.052,13.224,21.362,20.344,40.689,15.936c17.971-4.069,30.517-16.276,30.177-28.821   l0,0v-120.71l105.791-27.126v78.665c-7.121-2.373-15.936-2.713-24.752-0.678c-19.666,4.408-32.89,18.988-29.838,32.212   c3.052,13.224,21.362,20.344,40.689,15.936c17.971-4.069,30.517-16.276,30.177-28.821l0,0L365.521,95.958z"
       id="path12" /></g><g
     id="g16" /><g
     id="g18" /><g
     id="g20" /><g
     id="g22" /><g
     id="g24" /><g
     id="g26" /><g
     id="g28" /><g
     id="g30" /><g
     id="g32" /><g
     id="g34" /><g
     id="g36" /><g
     id="g38" /><g
     id="g40" /><g
     id="g42" /><g
     id="g44" /></svg>