<?xml version="1.0" encoding="iso-8859-1"?>
<!-- Generator: Adobe Illustrator 19.0.0, SVG Export Plug-In . SVG Version: 6.00 Build 0)  -->
<svg version="1.1" id="Layer_1" xmlns="http://www.w3.org/2000/svg" xmlns:xlink="http://www.w3.org/1999/xlink" x="0px" y="0px"
	 viewBox="0 0 509.287 509.287" style="enable-background:new 0 0 509.287 509.287;" xml:space="preserve">
<circle style="fill:#F1F3F7;" cx="254.644" cy="254.644" r="254.644"/>
<path style="fill:#4B5AA7;" d="M128.17,21.362c-23.735,0-43.062,19.327-43.062,43.062v380.44c0-23.735,19.327-43.062,43.062-43.062
	h11.528V21.362H128.17z"/>
<rect x="139.359" y="21.362" style="fill:#6EB1E1;" width="284.821" height="380.44"/>
<path style="fill:#0090FF;" d="M97.992,444.864c0-16.615,13.563-30.177,30.177-30.177h296.35v-12.885H128.17
	c-23.735,0-43.062,19.327-43.062,43.062s19.327,43.062,43.062,43.062h296.35v-12.885H128.17
	C111.555,474.702,97.992,461.478,97.992,444.864z"/>
<g>
	<path style="fill:#FCFCFD;" d="M128.17,414.686c-16.615,0-30.177,13.563-30.177,30.177c0,16.615,13.224,30.177,30.177,30.177
		c98.67,0,197.34,0,296.35,0c-11.868-18.31-11.868-41.706,0-60.016C325.51,414.686,226.84,414.686,128.17,414.686z"/>
	<path style="fill:#FCFCFD;" d="M365.521,95.958L226.84,131.56v137.325c-7.121-2.374-15.936-2.713-24.752-0.678
		c-19.666,4.408-32.89,18.988-29.838,32.212c3.052,13.224,21.362,20.344,40.689,15.936c17.971-4.069,30.517-16.276,30.177-28.821
		l0,0v-120.71l105.791-27.126v78.665c-7.121-2.373-15.936-2.713-24.752-0.678c-19.666,4.408-32.89,18.988-29.838,32.212
		c3.052,13.224,21.362,20.344,40.689,15.936c17.971-4.069,30.517-16.276,30.177-28.821l0,0L365.521,95.958z"/>
</g>
<g>
</g>
<g>
</g>
<g>
</g>
<g>
</g>
<g>
</g>
<g>
</g>
<g>
</g>
<g>
</g>
<g>
</g>
<g>
</g>
<g>
</g>
<g>
</g>
<g>
</g>
<g>
</g>
<g>
</g>
</svg>
