<?xml version="1.0" encoding="UTF-8" standalone="no"?>
<!-- Created with Inkscape (http://www.inkscape.org/) -->
<svg id="svg2965" xmlns:rdf="http://www.w3.org/1999/02/22-rdf-syntax-ns#" xmlns="http://www.w3.org/2000/svg" height="168.47" width="166.37" version="1.1" xmlns:cc="http://creativecommons.org/ns#" xmlns:xlink="http://www.w3.org/1999/xlink" xmlns:dc="http://purl.org/dc/elements/1.1/">
 <defs id="defs2967">
  <linearGradient id="linearGradient5335" y2="-148.13" gradientUnits="userSpaceOnUse" x2="387.75" y1="-298.54" x1="379.92">
   <stop id="stop3954-9" stop-color="#0146a8" offset="0"/>
   <stop id="stop3956-9" stop-color="#0146a8" stop-opacity="0" offset="1"/>
  </linearGradient>
  <linearGradient id="linearGradient3470" y2="-147.97" gradientUnits="userSpaceOnUse" y1="-310.05" gradientTransform="matrix(0.93571428,0,0,0.97142857,91.853206,957.71486)" x2="387.75" x1="381.89">
   <stop id="stop3919-3" stop-color="#edf4fd" stop-opacity="0.52845526" offset="0"/>
   <stop id="stop3921-4" stop-color="#175bb3" stop-opacity="0" offset="1"/>
  </linearGradient>
 </defs>
 <metadata id="metadata2970">
  <rdf:RDF>
   <cc:Work rdf:about="">
    <dc:format>image/svg+xml</dc:format>
    <dc:type rdf:resource="http://purl.org/dc/dcmitype/StillImage"/>
    <dc:title/>
   </cc:Work>
  </rdf:RDF>
 </metadata>
 <g id="layer1" transform="translate(-355.88304,-440.02263)">
  <g id="g5327" stroke-width="1.89999998" stroke-miterlimit="4" transform="matrix(0.75852693,0,0,0.75852693,94.181451,-47.545022)">
   <path id="path4155" d="m497.42-208.45c0,60.568-49.1,109.67-109.67,109.67-60.568,0-109.67-49.1-109.67-109.67,0-60.568,49.1-109.67,109.67-109.67,60.568,0,109.67,49.1,109.67,109.67z" transform="matrix(1,0,0,1.0126269,66.926108,964.91792)" stroke-dasharray="none" fill="#103683"/>
   <path id="path4157" d="m497.42-208.45c0,60.568-49.1,109.67-109.67,109.67-60.568,0-109.67-49.1-109.67-109.67,0-60.568,49.1-109.67,109.67-109.67,60.568,0,109.67,49.1,109.67,109.67z" transform="matrix(0.93571428,0,0,0.97142857,91.853206,957.71486)" stroke-dasharray="none" fill="url(#linearGradient5335)"/>
   <g id="g4149" fill="#EEE" transform="matrix(0.823236,0,0,0.80495027,-164.20421,365.78957)">
    <path id="path4138" d="m-558.59,67a20.684,20.684,0,0,0,-11.5,3.8438l-140.06,99.781a20.684,20.684,0,0,0,3.4062,35.656l156.44,71.406a20.684,20.684,0,0,0,29.188,-20.781l-16.39-171.19a20.684,20.684,0,0,0,-21.09,-18.719z" transform="matrix(-0.26963513,-0.71803432,0.57865609,-0.3310744,482.8413,110.52503)"/>
    <rect id="rect4143" rx="19.055" ry="19.505" height="78.334" width="20.367" stroke-dasharray="none" y="441.35" x="801.16"/>
   </g>
   <path id="path4159" d="m454.68,648.67c-56.674,0-102.62,47.725-102.62,106.56,0,3.7524,0.1979,7.4415,0.5625,11.094,50.067,18.726,126.58,32.369,204.69-10.594,0.00074-0.16695,0-0.33287,0-0.5,0-58.837-45.951-106.56-102.62-106.56z" stroke-dasharray="none" fill="url(#linearGradient3470)"/>
  </g>
 </g>
</svg>
