<?xml version="1.0" encoding="UTF-8" standalone="no"?>
<!-- Generator: Adobe Illustrator 15.0.0, SVG Export Plug-In . SVG Version: 6.00 Build 0)  -->

<svg
   xmlns:dc="http://purl.org/dc/elements/1.1/"
   xmlns:cc="http://creativecommons.org/ns#"
   xmlns:rdf="http://www.w3.org/1999/02/22-rdf-syntax-ns#"
   xmlns:svg="http://www.w3.org/2000/svg"
   xmlns="http://www.w3.org/2000/svg"
   xmlns:xlink="http://www.w3.org/1999/xlink"
   xmlns:sodipodi="http://sodipodi.sourceforge.net/DTD/sodipodi-0.dtd"
   xmlns:inkscape="http://www.inkscape.org/namespaces/inkscape"
   version="1.1"
   id="Layer_1"
   x="0px"
   y="0px"
   width="670"
   height="670.27002"
   viewBox="0 0 670 670.27001"
   enable-background="new 0 0 300 645"
   xml:space="preserve"
   inkscape:version="0.48.5 r10040"
   sodipodi:docname="broadcast-new.svg"><metadata
     id="metadata55"><rdf:RDF><cc:Work
         rdf:about=""><dc:format>image/svg+xml</dc:format><dc:type
           rdf:resource="http://purl.org/dc/dcmitype/StillImage" /><dc:title></dc:title></cc:Work></rdf:RDF></metadata><defs
     id="defs53"><radialGradient
       inkscape:collect="always"
       xlink:href="#SVGID_1_"
       id="radialGradient3320"
       gradientUnits="userSpaceOnUse"
       cx="150.9785"
       cy="158.354"
       r="27.424101" /><radialGradient
       inkscape:collect="always"
       xlink:href="#SVGID_2_"
       id="radialGradient3322"
       gradientUnits="userSpaceOnUse"
       gradientTransform="matrix(0.8963,0,0,1,-4.6813,0)"
       cx="172.6152"
       cy="167.29691"
       r="34.818199" /></defs><sodipodi:namedview
     pagecolor="#ffffff"
     bordercolor="#666666"
     borderopacity="1"
     objecttolerance="10"
     gridtolerance="10"
     guidetolerance="10"
     inkscape:pageopacity="0"
     inkscape:pageshadow="2"
     inkscape:window-width="1594"
     inkscape:window-height="1128"
     id="namedview51"
     showgrid="false"
     inkscape:zoom="1.0348974"
     inkscape:cx="124.25987"
     inkscape:cy="318.86184"
     inkscape:window-x="688"
     inkscape:window-y="229"
     inkscape:window-maximized="0"
     inkscape:current-layer="Layer_1"
     fit-margin-top="0"
     fit-margin-left="0"
     fit-margin-right="0"
     fit-margin-bottom="0" /><g
     id="g3219"
     transform="matrix(2.0214028,0,0,2.0214028,31.596236,0.00254185)"><path
       style="fill:#42aec5"
       inkscape:connector-curvature="0"
       id="path3221"
       d="M 299.1,149 C 299.1,66.8 232.3,0 150.1,0 68,0 1.1,66.9 1.1,149 c 0,82.2 66.8,149 149,149 82.2,0 149,-66.8 149,-149 z m -149,132.3 C 77.1,281.3 17.8,221.9 17.8,149 17.8,76 77.2,16.7 150.1,16.7 c 73,0 132.3,59.4 132.3,132.3 0,73 -59.3,132.3 -132.3,132.3 z" /></g><g
     transform="matrix(1.4734121,0,0,1.4734121,115.29906,78.271174)"
     id="g3215"><path
       d="M 299.1,149 C 299.1,66.8 232.3,0 150.1,0 68,0 1.1,66.9 1.1,149 c 0,82.2 66.8,149 149,149 82.2,0 149,-66.8 149,-149 z m -149,132.3 C 77.1,281.3 17.8,221.9 17.8,149 17.8,76 77.2,16.7 150.1,16.7 c 73,0 132.3,59.4 132.3,132.3 0,73 -59.3,132.3 -132.3,132.3 z"
       id="path3217"
       inkscape:connector-curvature="0"
       style="fill:#42aec5" /></g><g
     id="g5"
     transform="translate(184.42564,145.91073)"><path
       style="fill:#42aec5"
       inkscape:connector-curvature="0"
       id="path7"
       d="m 188.1,149 c 0,-20.9 -17,-37.9 -37.9,-37.9 -20.9,0 -37.9,17 -37.9,37.9 0,20.9 17,37.9 37.9,37.9 20.8,0.1 37.9,-17 37.9,-37.9 z m -38,32.4 c -17.9,0 -32.4,-14.5 -32.4,-32.4 0,-17.9 14.5,-32.4 32.4,-32.4 17.9,0 32.4,14.5 32.4,32.4 0,17.9 -14.5,32.4 -32.4,32.4 z" /></g><g
     id="g9"
     transform="translate(184.42564,145.91073)"><path
       style="fill:#42aec5"
       inkscape:connector-curvature="0"
       id="path11"
       d="m 226,149 c 0,-41.8 -34,-75.9 -75.9,-75.9 -41.8,0 -75.9,34 -75.9,75.9 0,41.8 34,75.9 75.9,75.9 41.9,0 75.9,-34 75.9,-75.9 z m -75.9,64.8 c -35.7,0 -64.8,-29.1 -64.8,-64.8 0,-35.7 29.1,-64.8 64.8,-64.8 35.7,0 64.8,29.1 64.8,64.8 0,35.7 -29.1,64.8 -64.8,64.8 z" /></g><g
     id="g13"
     transform="translate(184.42564,145.91073)"><path
       style="fill:#42aec5"
       inkscape:connector-curvature="0"
       id="path15"
       d="M 299.1,149 C 299.1,66.8 232.3,0 150.1,0 68,0 1.1,66.9 1.1,149 c 0,82.2 66.8,149 149,149 82.2,0 149,-66.8 149,-149 z m -149,132.3 C 77.1,281.3 17.8,221.9 17.8,149 17.8,76 77.2,16.7 150.1,16.7 c 73,0 132.3,59.4 132.3,132.3 0,73 -59.3,132.3 -132.3,132.3 z" /></g><path
     d="m 323.62564,308.61073 -117,359.72672 128.86628,-1.44302 -0.96628,-357.01824 z m -81.7,306.24015 82.8,-10.88291 -0.23372,51.11064 z m 16.4,-75.75858 60.3,56.18621 -81,10.62982 z m 18.5,-59.98258 42.8,39.90402 -57.5,7.59273 z m 13.7,-44.29093 30.3,28.17747 -40.6,5.31491 z m 10.1,-32.56438 21.3,19.82547 -28.6,3.712 z m 7.5,-24.21237 14.9,13.92 -20,2.61528 z m 5.5,-17.80074 10.5,9.78619 -14.1,1.856 z m 4.1,-13.2451 7.5,6.91782 -10,1.34982 z m 3.1,-9.87055 5.5,5.14619 -7.4,0.928 z m 2.3,-7.424 4.3,4.04946 -5.8,0.75927 z m 2.7,-8.94255 2.3,2.10909 -3.1,0.42182 z m 0.9,-2.86837 1.5,1.43419 -2.1,0.25309 z m 0.6,-1.94036 1.1,1.01236 -1.4,0.16873 z m 0.5,-1.51855 0.6,0.59055 -0.8,0.0844 z m 0.4,-1.18109 0.4,0.33746 -0.5,0.0844 z m 0.2,-0.84363 0.2,0.16872 0,0.0844 -0.3,0 z m 0.1,-0.2531 0.1,0 0,0.16873 -0.1,-0.16873 z m -2.8,214.6212 -0.8,61.83858 -58.1,-54.16148 z m 0.8,-56.86112 -0.6,43.78475 -41.1,-38.30111 z m 0.6,-41.92875 -0.4,30.70838 -28.9,-26.91201 z m 0.4,-30.8771 -0.3,21.51274 -20.2,-18.8131 z m 0.3,-22.86256 -0.2,15.01674 -14.1,-13.16074 z m 0.2,-16.87273 -0.1,10.54546 -9.9,-9.28001 z m 0.2,-12.57019 -0.1,7.67709 -7.2,-6.66473 z m 0.1,-3.54328 -5.4,-5.06182 5.5,-0.75927 z m 0.3,-22.35637 -1.5,-1.43418 1.5,-0.16873 z m -0.1,3.29018 -2,-1.94036 2.1,-0.25309 z m 0.1,-5.82109 -0.9,-0.84364 0.9,-0.0844 z m 0,-1.856 -0.4,-0.42182 0.5,-0.0844 z m -0.3,-1.60291 0.4,-0.0844 0,0.42182 -0.4,-0.33745 z m 0.2,10.62982 0,3.37455 -3.2,-2.95273 z m -0.1,9.70182 -4.5,-4.13382 4.5,-0.59054 z m 0.3,-21.34401 0,0 0,-0.25309 z m -4,12.57019 3.3,3.12146 -4.5,0.59054 z m -91.7,296.11651 86.96512,40.76236 -100.06512,1.58821 z"
     id="path19"
     inkscape:connector-curvature="0"
     style="fill:#000000;fill-opacity:1"
     sodipodi:nodetypes="cccccccccccccccccccccccccccccccccccccccccccccccccccccccccccccccccccccccccccccccccccccccccccccccccccccccccccccccccccccccccccccccccccccccccccccccccccc" /><g
     id="g21"
     transform="translate(184.42564,145.91073)"
     style="fill:#000000;fill-opacity:1"><path
       style="fill:#000000;fill-opacity:1"
       inkscape:connector-curvature="0"
       id="path23"
       d="m 161,162.7 -10.9,1.27225 0,357.29712 127.9,3.08991 z m -4.4,5.08901 -0.5,-0.0848 0.4,-0.33927 z m 0.4,1.44189 -0.8,-0.0848 0.6,-0.59371 z m 0.6,1.95079 -1.4,-0.16963 1.1,-1.01781 z m 0.8,2.62932 -2.1,-0.25445 1.5,-1.44188 z m 1.2,3.64713 -3.1,-0.42408 2.3,-2.12043 z m -3.6,-5.93718 1.5,0.16963 -1.5,1.44189 z m 0,-4.07121 0,-0.42409 0.4,0.0848 0,0 z m 0.3,-0.67854 -0.3,0 0,-0.0848 0.2,-0.16963 z m -0.2,-0.5089 -0.1,0.0848 0,-0.16964 0.1,0.0848 z m -0.1,1.86597 0.5,0.0848 -0.4,0.42408 z m 0,1.44189 0.9,0.0848 -0.9,0.84817 z m 0.1,4.58011 2.1,0.25445 -2,1.95079 z m 0,3.56231 3.2,0.42409 -3.2,2.96859 z m 6.9,11.0262 -5.8,-0.76335 4.3,-4.07121 z m 2.7,8.73614 -7.4,-0.93299 5.5,-5.17383 z m 3.8,12.12882 -10,-1.35707 7.5,-6.95499 z m 5.1,16.62411 -14.1,-1.86597 10.5,-9.83876 z m 7.1,22.98538 -20,-2.62932 14.9,-13.99479 z m 9.6,31.29744 -28.6,-3.73194 21.3,-19.93198 z m 13.2,42.83254 -40.6,-5.34347 30.3,-28.32884 z m 18,58.52366 -57.5,-7.63352 42.8,-40.1184 z m 24.6,79.72789 -81,-10.68693 60.3,-56.48806 z m -90.8,-274.12823 -0.1,-4.74975 4.5,0.59372 z m 0,2.29005 5.5,0.76335 -5.4,5.08902 z m 0.1,9.32986 7.3,0.93299 -7.2,6.70053 z m 0.2,12.63772 10.1,1.35707 -9.9,9.32986 z m 0.2,16.96338 14.3,1.86597 -14.1,13.23144 z m 0.3,22.98538 20.5,2.71414 -20.2,18.91417 z m 0.4,31.04299 29.3,3.90158 -28.8,27.05659 z m 0.6,42.154 41.7,5.5131 -41.1,38.50687 z m 0.8,57.1666 58.9,7.80315 -58.1,54.45245 z m 1,77.60746 82.8,10.94138 -83.53256,33.06773 z m 91.7,16.70893 13.1,42.57809 -102.96396,-3.23588 z m -90.5,-293.97539 -4.5,-0.59372 3.3,-3.13822 z m -5.1,-16.36966 0,0 -0.1,-0.25445 z"
       sodipodi:nodetypes="cccccccccccccccccccccccccccccccccccccccccccccccccccccccccccccccccccccccccccccccccccccccccccccccccccccccccccccccccccccccccccccccccccccccccccccccccccc" /></g><g
     id="g25"
     transform="translate(184.42564,145.91073)"><radialGradient
       gradientUnits="userSpaceOnUse"
       r="27.424101"
       cy="158.354"
       cx="150.9785"
       id="SVGID_1_"><stop
         id="stop28"
         style="stop-color:#FFFFFF"
         offset="0" /><stop
         id="stop30"
         style="stop-color:#00889F"
         offset="0.2921" /><stop
         id="stop32"
         style="stop-color:#005766"
         offset="0.5562" /><stop
         id="stop34"
         style="stop-color:#004855"
         offset="0.7697" /><stop
         id="stop36"
         style="stop-color:#24353A"
         offset="1" /></radialGradient><circle
       sodipodi:ry="18"
       sodipodi:rx="18"
       sodipodi:cy="149"
       sodipodi:cx="150.10001"
       style="fill:url(#radialGradient3320)"
       id="circle38"
       r="18"
       cy="149"
       cx="150.10001"
       d="m 168.10001,149 c 0,9.94113 -8.05888,18 -18,18 -9.94113,0 -18,-8.05887 -18,-18 0,-9.94113 8.05887,-18 18,-18 9.94112,0 18,8.05887 18,18 z" /><radialGradient
       gradientUnits="userSpaceOnUse"
       gradientTransform="matrix(0.8963,0,0,1,-4.6813,0)"
       r="34.818199"
       cy="167.29691"
       cx="172.6152"
       id="SVGID_2_"><stop
         id="stop41"
         style="stop-color:#006E80"
         offset="0.5562" /><stop
         id="stop43"
         style="stop-color:#008BA2"
         offset="0.736" /><stop
         id="stop45"
         style="stop-color:#009EB8"
         offset="0.8708" /><stop
         id="stop47"
         style="stop-color:#FFFFFF"
         offset="1" /></radialGradient><path
       inkscape:connector-curvature="0"
       style="fill:url(#radialGradient3322)"
       id="path49"
       d="m 161.6,139.5 c 0,4 -5,7.3 -11.2,7.3 -6.2,0 -11.2,-3.3 -11.2,-7.3 0,-4 5.1,-7.6 11.3,-7.6 6.2,0 11.1,3.6 11.1,7.6 z" /></g></svg>