<?xml version="1.0" encoding="UTF-8" standalone="no"?>
<svg
   xmlns:dc="http://purl.org/dc/elements/1.1/"
   xmlns:cc="http://creativecommons.org/ns#"
   xmlns:rdf="http://www.w3.org/1999/02/22-rdf-syntax-ns#"
   xmlns:svg="http://www.w3.org/2000/svg"
   xmlns="http://www.w3.org/2000/svg"
   xmlns:sodipodi="http://sodipodi.sourceforge.net/DTD/sodipodi-0.dtd"
   xmlns:inkscape="http://www.inkscape.org/namespaces/inkscape"
   inkscape:version="1.0beta2 (2b71d25, 2019-12-03)"
   sodipodi:docname="broadcast-new.svg"
   version="1.1"
   id="Layer_1"
   x="0px"
   y="0px"
   viewBox="0 0 96 96"
   style="enable-background:new 0 0 96 96;"
   xml:space="preserve"><sodipodi:namedview
   inkscape:current-layer="Layer_1"
   inkscape:window-maximized="0"
   inkscape:window-y="24"
   inkscape:window-x="0"
   inkscape:cy="42.251497"
   inkscape:cx="38.730539"
   inkscape:zoom="6.9583333"
   showgrid="false"
   id="namedview12486"
   inkscape:window-height="876"
   inkscape:window-width="1440"
   inkscape:pageshadow="2"
   inkscape:pageopacity="0"
   guidetolerance="10"
   gridtolerance="10"
   objecttolerance="10"
   borderopacity="1"
   inkscape:document-rotation="0"
   bordercolor="#666666"
   pagecolor="#ffffff" /><metadata
   id="metadata1118"><rdf:RDF><cc:Work
       rdf:about=""><dc:format>image/svg+xml</dc:format><dc:type
         rdf:resource="http://purl.org/dc/dcmitype/StillImage" /><dc:title /></cc:Work></rdf:RDF></metadata><defs
   id="defs1116">
	
	
	
	
	
	
	
	
	
	
	
	
	
	
	
	
</defs>
<style
   type="text/css"
   id="style1094">
	.st0{fill:#C75C5C;}
	.st1{fill:#A65050;}
	.st2{fill:#E0E0D1;}
	.st3{fill:#F5CF87;}
	.st4{fill:#4F5D73;}
	.st5{fill:#CBAC72;}
	.st6{fill:#465162;}
	.st7{fill:#FFFFFF;}
	.st8{fill:#D3D2D2;}
</style>
<path
   inkscape:transform-center-y="8.8583998"
   inkscape:transform-center-x="-3.8095969"
   style="stroke-width:2.61956;stroke:#000000;stroke-opacity:1"
   d="M 3.8275833,38.868846 91.318763,1.4447193 c 1.280668,-0.46152652 2.984499,0.049681 3.44743,1.2759951 0.462931,1.2263147 -0.09072,2.8725668 -1.371387,3.334094 L 5.943394,43.732515 C 4.6627264,44.194042 2.9588962,43.68283 2.4959652,42.456522 1.729178,41.018214 2.2828278,39.371961 3.8275833,38.868846"
   class="st2"
   id="XMLID_5_"
   inkscape:connector-curvature="0" /><path
   style="stroke-width:2.33555"
   d="m 0.5882518,89.940426 c 0,2.569109 2.1019986,4.671108 4.671108,4.671108 H 90.740636 c 2.56911,0 4.671108,-2.101999 4.671108,-4.671108 V 42.52868 c 0,-2.56911 -2.101998,-4.671108 -4.671108,-4.671108 H 5.2593598 c -2.5691094,0 -4.671108,2.101998 -4.671108,4.671108 v 47.411746"
   class="st3"
   id="XMLID_7_"
   inkscape:connector-curvature="0" /><path
   style="stroke-width:2.33555"
   d="m 66.917985,47.199788 c -10.509993,0 -18.917987,8.407994 -18.917987,18.917987 0,10.509993 8.407994,18.917987 18.917987,18.917987 10.509993,0 18.917988,-8.407994 18.917988,-18.917987 C 86.069528,55.841337 77.427978,47.199788 66.917985,47.199788"
   class="st4"
   id="XMLID_8_"
   inkscape:connector-curvature="0" /><path
   style="stroke-width:2.33555"
   d="m 86.069528,66.117775 c 0,0.467111 0,0.934222 0,1.401332 -0.233555,-0.233555 0,-0.700666 0,-1.401332"
   class="st5"
   id="XMLID_9_"
   inkscape:connector-curvature="0" /><path
   style="stroke-width:2.33555"
   d="m 66.917985,47.199788 v 0 c 10.509993,0 18.917988,8.641549 18.917988,18.917987 v 0 0 c 0,0.467111 0,0.934222 0,1.401332 0,0.233556 0,0.700667 -0.233556,0.934222 -1.167777,-9.342216 -9.10866,-16.582433 -18.684432,-16.582433 -9.809326,0 -17.516655,7.240217 -18.684432,16.582433 0,-0.700666 -0.233555,-1.634888 -0.233555,-2.335554 v 0 c 0,-10.276438 8.64155,-18.917987 18.917987,-18.917987 v 0"
   class="st6"
   id="XMLID_10_"
   inkscape:connector-curvature="0" /><path
   style="stroke-width:2.33555"
   d="m 37.25645,80.364654 c 1.868443,0 3.503331,1.634888 3.503331,3.503331 0,1.868444 -1.634888,3.503331 -3.503331,3.503331 -1.868444,0 -3.503331,-1.634887 -3.503331,-3.503331 0,-1.868443 1.634887,-3.503331 3.503331,-3.503331"
   class="st5"
   id="XMLID_11_"
   inkscape:connector-curvature="0" /><path
   style="stroke-width:2.33555"
   d="m 25.57868,80.364654 c 1.868443,0 3.503331,1.634888 3.503331,3.503331 0,1.868444 -1.634888,3.503331 -3.503331,3.503331 -1.868444,0 -3.503331,-1.634887 -3.503331,-3.503331 -0.233556,-1.868443 1.401332,-3.503331 3.503331,-3.503331"
   class="st5"
   id="XMLID_12_"
   inkscape:connector-curvature="0" /><path
   style="stroke-width:2.33555"
   d="m 13.667354,80.364654 c 1.868443,0 3.503331,1.634888 3.503331,3.503331 0,1.868444 -1.634888,3.503331 -3.503331,3.503331 -1.868443,0 -3.503331,-1.634887 -3.503331,-3.503331 -0.2335552,-1.868443 1.401333,-3.503331 3.503331,-3.503331"
   class="st5"
   id="XMLID_13_"
   inkscape:connector-curvature="0" /><circle
   style="stroke-width:2.33555"
   transform="scale(-1,1)"
   r="3.5033309"
   cy="81.532425"
   cx="-37.256454"
   class="st4"
   id="XMLID_14_" /><circle
   style="stroke-width:2.33555"
   transform="scale(-1,1)"
   r="3.5033309"
   cy="81.532425"
   cx="-25.578684"
   class="st4"
   id="XMLID_15_" /><circle
   style="stroke-width:2.33555"
   transform="scale(-1,1)"
   r="3.5033309"
   cy="81.532425"
   cx="-13.667353"
   class="st4"
   id="XMLID_16_" /><path
   style="stroke-width:2.33555"
   d="m 9.9304678,66.117775 c 0,2.569109 2.1019982,4.671108 4.6711082,4.671108 h 21.253541 c 2.56911,0 4.671108,-2.101999 4.671108,-4.671108 v -11.67777 c 0,-2.569109 -2.101998,-4.671108 -4.671108,-4.671108 H 14.601576 c -2.56911,0 -4.6711082,2.101999 -4.6711082,4.671108 v 11.67777"
   class="st7"
   id="XMLID_17_"
   inkscape:connector-curvature="0" /><path
   style="stroke-width:2.33555"
   d="m 14.835131,49.535342 h 21.253542 c 2.569109,0 4.671108,2.101998 4.671108,4.671108 v 4.671108 c 0,-2.56911 -2.101999,-4.671108 -4.671108,-4.671108 H 14.835131 c -2.569109,0 -4.671108,2.101998 -4.671108,4.671108 V 54.20645 c -0.2335552,-2.335554 2.101999,-4.671108 4.671108,-4.671108"
   class="st8"
   id="XMLID_18_"
   inkscape:connector-curvature="0" />
</svg>
