<?xml version="1.0" encoding="UTF-8" standalone="no"?>
<svg
   xmlns:dc="http://purl.org/dc/elements/1.1/"
   xmlns:cc="http://creativecommons.org/ns#"
   xmlns:rdf="http://www.w3.org/1999/02/22-rdf-syntax-ns#"
   xmlns:svg="http://www.w3.org/2000/svg"
   xmlns="http://www.w3.org/2000/svg"
   id="svg1876"
   xml:space="preserve"
   style="enable-background:new 0 0 64 64;"
   viewBox="0 0 64 64"
   y="0px"
   x="0px"
   version="1.1"><metadata
   id="metadata1882"><rdf:RDF><cc:Work
       rdf:about=""><dc:format>image/svg+xml</dc:format><dc:type
         rdf:resource="http://purl.org/dc/dcmitype/StillImage" /><dc:title></dc:title></cc:Work></rdf:RDF></metadata><defs
   id="defs1880">
	
	
</defs>
<style
   id="style1830"
   type="text/css">
	.st0{fill:#77B3D4;}
	.st1{opacity:0.2;}
	.st2{fill:#231F20;}
	.st3{fill:#FFFFFF;}
	.st4{fill:#C75C5C;}
	.st5{fill:#4F5D73;}
	.st6{fill:#E0E0D1;}
</style>
<g
   transform="matrix(1.379068,0,0,1.379068,-12.130176,-10.697214)"
   id="g1872">
		<g
   class="st1"
   id="g1838">
			<path
   class="st2"
   d="m 12,25 v 25 c 0,2.2 1.8,4 4,4 h 32 c 2.2,0 4,-1.8 4,-4 V 25 Z"
   id="path1836" />
		</g>
		<g
   id="g1842">
			<path
   class="st3"
   d="m 12,23 v 25 c 0,2.2 1.8,4 4,4 h 32 c 2.2,0 4,-1.8 4,-4 V 23 Z"
   id="path1840" />
		</g>
		<g
   class="st1"
   id="g1846">
			<path
   class="st2"
   d="M 48,14 H 16 c -2.2,0 -4,1.8 -4,4 v 7 h 40 v -7 c 0,-2.2 -1.8,-4 -4,-4 z"
   id="path1844" />
		</g>
		<g
   id="g1850">
			<path
   class="st4"
   d="M 48,12 H 16 c -2.2,0 -4,1.8 -4,4 v 7 h 40 v -7 c 0,-2.2 -1.8,-4 -4,-4 z"
   id="path1848" />
		</g>
		<g
   id="g1854">
			<path
   class="st5"
   d="m 32,48 c -1.1,0 -2,-0.9 -2,-2 0,-5.5 1.8,-9.5 3.5,-12 H 27 c -1.1,0 -2,-0.9 -2,-2 0,-1.1 0.9,-2 2,-2 h 11 c 0.9,0 1.6,0.6 1.9,1.4 0.3,0.8 0,1.7 -0.7,2.2 C 39,33.8 34,37.5 34,46 c 0,1.1 -0.9,2 -2,2 z"
   id="path1852" />
		</g>
		<g
   class="st1"
   id="g1858">
			<path
   class="st2"
   d="m 20,21 c -1.1,0 -2,-0.9 -2,-2 v -7 c 0,-1.1 0.9,-2 2,-2 v 0 c 1.1,0 2,0.9 2,2 v 7 c 0,1.1 -0.9,2 -2,2 z"
   id="path1856" />
		</g>
		<g
   class="st1"
   id="g1862">
			<path
   class="st2"
   d="m 45,21 c -1.1,0 -2,-0.9 -2,-2 v -7 c 0,-1.1 0.9,-2 2,-2 v 0 c 1.1,0 2,0.9 2,2 v 7 c 0,1.1 -0.9,2 -2,2 z"
   id="path1860" />
		</g>
		<g
   id="g1866">
			<path
   class="st6"
   d="m 20,19 c -1.1,0 -2,-0.9 -2,-2 v -7 c 0,-1.1 0.9,-2 2,-2 v 0 c 1.1,0 2,0.9 2,2 v 7 c 0,1.1 -0.9,2 -2,2 z"
   id="path1864" />
		</g>
		<g
   id="g1870">
			<path
   class="st6"
   d="m 45,19 c -1.1,0 -2,-0.9 -2,-2 v -7 c 0,-1.1 0.9,-2 2,-2 v 0 c 1.1,0 2,0.9 2,2 v 7 c 0,1.1 -0.9,2 -2,2 z"
   id="path1868" />
		</g>
	</g>
<g
   id="Layer_2">
</g>
</svg>
