<?xml version="1.0" encoding="UTF-8" standalone="no"?>
<svg
   xmlns:dc="http://purl.org/dc/elements/1.1/"
   xmlns:cc="http://creativecommons.org/ns#"
   xmlns:rdf="http://www.w3.org/1999/02/22-rdf-syntax-ns#"
   xmlns:svg="http://www.w3.org/2000/svg"
   xmlns="http://www.w3.org/2000/svg"
   xmlns:xlink="http://www.w3.org/1999/xlink"
   xmlns:sodipodi="http://sodipodi.sourceforge.net/DTD/sodipodi-0.dtd"
   xmlns:inkscape="http://www.inkscape.org/namespaces/inkscape"
   id="svg2"
   viewBox="0 0 1314 1314"
   version="1.1"
   inkscape:version="0.48.5 r10040"
   width="100%"
   height="100%"
   sodipodi:docname="CD-or-DVD-inside-jewel-case-cover-16822-svg.svg">
  <sodipodi:namedview
     pagecolor="#ffffff"
     bordercolor="#666666"
     borderopacity="1"
     objecttolerance="10"
     gridtolerance="10"
     guidetolerance="10"
     inkscape:pageopacity="0"
     inkscape:pageshadow="2"
     inkscape:window-width="640"
     inkscape:window-height="480"
     id="namedview112"
     showgrid="false"
     inkscape:zoom="0.20136519"
     inkscape:cx="657"
     inkscape:cy="586"
     inkscape:window-x="1037"
     inkscape:window-y="437"
     inkscape:window-maximized="0"
     inkscape:current-layer="svg2" />
  <defs
     id="defs4">
    <linearGradient
       id="linearGradient4196">
      <stop
         id="stop4198"
         stop-color="#f2ff76"
         offset="0" />
      <stop
         id="stop7025"
         stop-color="#fff"
         offset=".5" />
      <stop
         id="stop4200"
         stop-color="#b795ff"
         stop-opacity=".7913"
         offset="1" />
    </linearGradient>
    <linearGradient
       id="linearGradient3912">
      <stop
         id="stop3914"
         stop-color="#fff"
         offset="0" />
      <stop
         id="stop3920"
         stop-color="#fffee3"
         stop-opacity=".21739"
         offset=".98409" />
      <stop
         id="stop3916"
         stop-color="#fffd90"
         stop-opacity=".095652"
         offset="1" />
    </linearGradient>
    <linearGradient
       id="linearGradient3929">
      <stop
         id="stop3931"
         offset="0" />
      <stop
         id="stop4023"
         stop-color="#262626"
         offset=".10714" />
      <stop
         id="stop3937"
         stop-color="#1d1d1d"
         offset=".87841" />
      <stop
         id="stop3933"
         offset="1" />
    </linearGradient>
    <linearGradient
       id="linearGradient4010"
       x1="746.71002"
       gradientUnits="userSpaceOnUse"
       x2="714.26001"
       gradientTransform="translate(-227.86,13.239)"
       y1="578.28003"
       y2="545.84003">
      <stop
         id="stop4004"
         offset="0" />
      <stop
         id="stop4006"
         stop-opacity="0"
         offset="1" />
    </linearGradient>
    <linearGradient
       id="linearGradient4012"
       x1="746.71002"
       xlink:href="#linearGradient3912"
       gradientUnits="userSpaceOnUse"
       x2="924.38"
       gradientTransform="translate(-227.86,13.239)"
       y1="578.28003"
       y2="562.06" />
    <linearGradient
       id="linearGradient4102"
       x1="760.10999"
       xlink:href="#linearGradient3929"
       gradientUnits="userSpaceOnUse"
       x2="657.84998"
       gradientTransform="matrix(1.0364,0,0,1.0364,-221.02,-13.067)"
       y1="361.14001"
       y2="706.87" />
    <filter
       id="filter4185"
       color-interpolation-filters="sRGB">
      <feGaussianBlur
         id="feGaussianBlur4187"
         stdDeviation="6.0370166" />
    </filter>
    <linearGradient
       id="linearGradient4148"
       x1="-192.75999"
       xlink:href="#linearGradient3929"
       gradientUnits="userSpaceOnUse"
       x2="-59.303001"
       gradientTransform="matrix(1,0,0,1.0225,2.851,-6.4102)"
       y1="568.5"
       y2="568.5" />
    <linearGradient
       id="linearGradient3141"
       x1="586.81"
       gradientUnits="userSpaceOnUse"
       x2="1022"
       gradientTransform="translate(227.86,-13.239)"
       y1="617.77002"
       y2="-136.08">
      <stop
         id="stop3997"
         stop-color="#5f5f5f"
         offset="0" />
      <stop
         id="stop3999"
         stop-color="#a4a4a4"
         offset="1" />
    </linearGradient>
    <linearGradient
       id="linearGradient3912-6">
      <stop
         id="stop3914-3"
         stop-color="#fff"
         stop-opacity=".76522"
         offset="0" />
      <stop
         id="stop3920-5"
         stop-color="#fffee3"
         stop-opacity=".086957"
         offset=".98409" />
      <stop
         id="stop3916-1"
         stop-color="#fffec8"
         stop-opacity="0"
         offset="1" />
    </linearGradient>
    <linearGradient
       id="linearGradient7979"
       x1="1071.2"
       xlink:href="#linearGradient3912"
       gradientUnits="userSpaceOnUse"
       y1="-629.25"
       gradientTransform="matrix(0.89483,0,0,0.98478,102.64,12.815)"
       x2="267.25"
       y2="542.13" />
    <radialGradient
       id="radialGradient4097"
       xlink:href="#linearGradient4196"
       spreadMethod="reflect"
       gradientUnits="userSpaceOnUse"
       cy="460.48001"
       cx="1095.1"
       gradientTransform="matrix(3.157,0,-1.8954e-8,2.4143,-2463.5,-669.18)"
       r="145.64" />
    <filter
       id="filter4465"
       width="1.3486"
       y="-0.17637999"
       x="-0.17432"
       height="1.3528"
       color-interpolation-filters="sRGB">
      <feGaussianBlur
         id="feGaussianBlur4467"
         stdDeviation="26.024911" />
    </filter>
    <linearGradient
       id="linearGradient4483"
       x1="71.231003"
       xlink:href="#linearGradient3912"
       spreadMethod="reflect"
       gradientUnits="userSpaceOnUse"
       y1="48.018002"
       gradientTransform="translate(234.65,-29.072)"
       x2="161.10001"
       y2="48.018002" />
    <radialGradient
       id="radialGradient4503"
       xlink:href="#linearGradient3912-6"
       gradientUnits="userSpaceOnUse"
       cy="865.57001"
       cx="-684.51001"
       gradientTransform="matrix(-3.7664,-1.3912,0.21085,-0.57083,-2237.6,132.6)"
       r="153.46001" />
    <radialGradient
       id="radialGradient4659"
       xlink:href="#linearGradient3929"
       gradientUnits="userSpaceOnUse"
       cy="631.26001"
       cx="855.23999"
       gradientTransform="matrix(2.7549,0.79602,-0.46344,1.6038,-867.59,-895.7)"
       r="577.90002" />
    <linearGradient
       id="linearGradient4747"
       x1="-45.917"
       gradientUnits="userSpaceOnUse"
       y1="575.31"
       gradientTransform="matrix(0,-1.0036,-1.0036,0,2385.4,1407)"
       x2="1051.2"
       y2="575.31">
      <stop
         id="stop3879"
         stop-color="#fff"
         offset="0" />
      <stop
         id="stop3881"
         stop-color="#f2f2b8"
         offset=".5" />
      <stop
         id="stop3883"
         stop-color="#bea9f3"
         offset="1" />
    </linearGradient>
    <linearGradient
       id="linearGradient4749"
       x1="-2135.8"
       xlink:href="#linearGradient4196"
       gradientUnits="userSpaceOnUse"
       y1="-78.792999"
       gradientTransform="matrix(-1.0392,0,0,1.0392,-324.87,1210.4)"
       x2="-1660.7"
       y2="-1060.9" />
    <linearGradient
       id="linearGradient4751"
       x1="706.56"
       xlink:href="#linearGradient4196"
       gradientUnits="userSpaceOnUse"
       y1="928.52002"
       gradientTransform="matrix(1.0026,0,0,-1.0026,1304.1,1479.4)"
       x2="298.70001"
       y2="222.09" />
    <linearGradient
       id="linearGradient4753"
       x1="347.10001"
       spreadMethod="reflect"
       gradientUnits="userSpaceOnUse"
       y1="-164.78"
       gradientTransform="matrix(0.84926,0.4912,-0.49032,0.85078,966.09,603.04)"
       x2="934.73999"
       y2="-164.78">
      <stop
         id="stop5110"
         stop-color="#f00"
         offset="0" />
      <stop
         id="stop5180"
         stop-color="#f00"
         stop-opacity=".49804"
         offset=".5" />
      <stop
         id="stop5112"
         stop-color="#fff"
         stop-opacity="0"
         offset="1" />
    </linearGradient>
    <linearGradient
       id="linearGradient4755"
       x1="-665.20001"
       spreadMethod="reflect"
       gradientUnits="userSpaceOnUse"
       y1="-164.78"
       gradientTransform="matrix(1.0015,0,0,1.0033,1932.1,1067.9)"
       x2="-105.94"
       y2="-164.78">
      <stop
         id="stop5100"
         stop-color="#0f0"
         offset="0" />
      <stop
         id="stop5170"
         stop-color="#0f0"
         stop-opacity=".49804"
         offset=".5" />
      <stop
         id="stop5102"
         stop-color="#fff"
         stop-opacity="0"
         offset="1" />
    </linearGradient>
    <linearGradient
       id="linearGradient4757"
       x1="1508.5"
       spreadMethod="reflect"
       gradientUnits="userSpaceOnUse"
       y1="-164.75999"
       gradientTransform="matrix(-0.70818,0.70945,-0.70818,-0.70945,3149.2,-673.76)"
       x2="2074.7"
       y2="-164.75999">
      <stop
         id="stop5124"
         stop-color="#ff3cd8"
         offset="0" />
      <stop
         id="stop5164"
         stop-color="#f0c"
         stop-opacity=".49804"
         offset=".5" />
      <stop
         id="stop5126"
         stop-color="#fff"
         stop-opacity="0"
         offset="1" />
    </linearGradient>
    <linearGradient
       id="linearGradient4761"
       x1="746.71002"
       xlink:href="#linearGradient3912-6"
       gradientUnits="userSpaceOnUse"
       y1="578.28003"
       gradientTransform="matrix(1.0015,0,0,1.0033,1077.5,338.61)"
       x2="924.38"
       y2="562.06" />
    <linearGradient
       id="linearGradient4791"
       x1="-949.98999"
       gradientUnits="userSpaceOnUse"
       y1="731.83002"
       gradientTransform="matrix(1.0015,0,0,1.0033,1201.2,-351.45)"
       x2="-1385.5"
       y2="1484.8">
      <stop
         id="stop4843"
         offset="0" />
      <stop
         id="stop4845"
         stop-color="#262626"
         offset=".10714" />
      <stop
         id="stop4847"
         stop-color="#999"
         offset=".87841" />
      <stop
         id="stop4849"
         offset="1" />
    </linearGradient>
    <linearGradient
       id="linearGradient3127"
       x1="-1257.3"
       spreadMethod="reflect"
       gradientUnits="userSpaceOnUse"
       y1="-164.75999"
       gradientTransform="matrix(0.86128,0.49675,-0.49829,0.86217,2812.7,1671.9)"
       x2="-714.17999"
       y2="-164.75999">
      <stop
         id="stop5092"
         stop-color="#fc0"
         offset="0" />
      <stop
         id="stop5162"
         stop-color="#fc0"
         stop-opacity=".49804"
         offset=".5" />
      <stop
         id="stop5094"
         stop-color="#fff"
         stop-opacity="0"
         offset="1" />
    </linearGradient>
  </defs>
  <g
     id="layer1"
     transform="translate(232.8261,76.16798)">
    <path
       id="rect4092"
       d="m -205.5,27.811 h 1263.1 c 4.3564,0 7.8634,3.5438 7.8634,7.9456 v 1120 c 0,4.4019 -3.507,7.9457 -7.8634,7.9457 H -205.5 c -4.3564,0 -7.8634,-3.5438 -7.8634,-7.9457 v -1120 c 0,-4.4019 3.5071,-7.9456 7.8634,-7.9456 z"
       inkscape:connector-curvature="0"
       style="opacity:0.7;filter:url(#filter4185)" />
    <path
       id="rect3880"
       d="m -75.751,21.599 c -6.3096,1.1405 -4.4476,9.5201 -4.5624,13.923 0.0426,362.85 -0.0851,725.73 0.0638,1088.6 0.63478,5.9999 7.9951,5.2975 12.379,4.8713 379.26,-0.062 758.55,0.1258 1137.8,-0.094 6.7278,-2.0158 3.5218,-10.811 4.2114,-15.714 -0.063,-362.35 0.1277,-724.73 -0.096,-1087.1 -1.1644,-6.5029 -9.5497,-4.3359 -14.198,-4.5256 -378.53,0.02088 -757.07,-0.04194 -1135.6,0.03141 z m 574.86,460.7 c 4.7063,-0.0171 9.4104,0.33168 14.07,0.97432 -3.0882,6.6621 -7.9157,15.093 -3.7967,22.251 6.3546,2.0491 5.55,10.131 2.361,14.551 -1.6976,4.5169 -7.065,9.9624 -4.6262,15.054 3.2615,3.7321 12.039,5.5485 13.049,-1.0057 2.8601,-6.7252 0.34375,-17.548 8.6143,-20.9 3.1342,-0.26108 6.64,0.45719 8.5505,-2.8285 3.7887,-4.9886 5.2429,-11.108 6.2853,-17.097 4.9376,2.6487 9.6283,5.7082 14.038,9.1455 -5.9539,4.2402 -15.092,9.2664 -14.453,17.474 4.3992,5.3189 -0.95391,11.406 -5.8386,13.923 -3.9984,3.1249 -12.906,5.6922 -10.88,12.163 1.9249,4.1477 7.4209,8.3895 11.39,3.8971 5.7435,-4.5446 9.056,-14.664 17.707,-13.986 3.0393,1.0401 5.4502,3.7907 8.9015,1.8228 6.1386,-2.0122 10.304,-7.1556 14.262,-11.911 3.0316,4.7895 5.5469,9.7987 7.6891,15.023 -7.4182,0.81521 -17.265,0.64465 -21.504,7.7941 1.5197,6.7231 -6.412,9.8191 -11.996,9.3969 -4.9638,0.76311 -12.733,-1.1606 -15.41,4.2114 -1.0316,4.493 1.3405,11.932 7.37,9.9941 7.3646,-0.85081 15.7,-8.5122 22.908,-3.1743 1.9229,2.3377 2.6274,5.7764 6.4448,5.7827 6.3868,1.0872 12.648,-1.0298 18.569,-3.1113 0.0973,5.5464 -0.20141,11.1 -0.98904,16.594 -6.7205,-3.3152 -15.258,-7.6977 -22.557,-3.8971 -2.1184,6.4606 -10.441,5.5135 -15.027,2.3257 -4.6347,-1.6614 -10.473,-7.3566 -15.538,-4.0542 -3.4215,3.4101 -4.9392,11.405 1.4995,12.414 6.809,2.8035 17.78,0.37655 21.217,8.5169 0.11586,3.1843 -0.21153,6.484 2.9672,8.5484 5.0692,3.5453 11.282,5.0788 17.356,6.0656 -2.8103,4.8481 -5.9038,9.4837 -9.3482,13.891 -4.3043,-5.8997 -9.4401,-15.079 -17.835,-14.237 -5.3542,4.1905 -11.488,-0.91689 -14.006,-5.72 -3.1463,-3.8277 -5.7165,-12.593 -12.22,-10.874 -4.2745,1.7444 -8.7812,7.3248 -4.1796,11.22 4.633,5.6899 15.069,9.084 14.166,17.694 -1.3925,2.9985 -3.7487,5.5113 -1.7229,8.9883 2.0197,5.8091 7.4208,9.7492 11.996,13.734 -4.8864,2.9269 -10.013,5.3187 -15.251,7.5742 -0.74311,-7.3217 -0.65543,-17.377 -8.072,-21.214 -6.5634,1.1702 -9.6835,-6.0605 -9.38,-11.408 -0.85137,-4.9643 1.4683,-13.469 -4.6262,-15.714 -4.6826,-0.88321 -11.984,1.7447 -9.731,7.637 1.0294,7.0378 8.3742,15.08 3.35,22.062 -2.4388,2.0661 -6.1654,2.8098 -6.0938,6.7884 -0.97888,6.2368 1.202,12.324 3.2224,18.134 -5.6552,0 -11.295,-0.35953 -16.91,-1.0057 3.1704,-6.5243 8.1367,-15.305 3.8924,-22.314 -6.1302,-2.0239 -5.6404,-9.7663 -2.5524,-14.205 1.8274,-4.7447 7.0744,-9.9759 4.8815,-15.305 -3.2026,-3.793 -11.955,-5.734 -13.113,0.91146 -2.7319,6.7442 -0.30808,17.872 -8.9015,20.994 -3.4088,-0.59728 -7.0005,0.2846 -8.8058,3.5199 -3.3897,4.8984 -4.774,10.673 -5.7429,16.405 -4.9018,-2.7321 -9.5459,-5.8433 -14.038,-9.177 6.0368,-4.3104 14.841,-9.2596 14.517,-17.474 -4.3571,-5.2077 0.614,-11.355 5.5196,-13.828 3.7199,-3.1223 12.179,-5.3374 11.422,-11.44 -1.475,-4.553 -7.6154,-9.6645 -11.773,-4.6513 -5.5978,4.3679 -8.6922,14.004 -16.973,13.891 -3.3548,-0.22004 -5.1576,-3.9788 -8.8058,-2.2314 -6.3266,2.1002 -10.906,7.3172 -15.155,12.163 -2.9064,-4.8138 -5.3132,-9.773 -7.5934,-14.897 7.477,-0.88461 17.228,-0.60131 21.568,-7.7941 -1.4034,-6.3507 5.6986,-9.6773 11.103,-9.3969 5.123,-0.91559 13.252,1.3973 16.24,-4.0228 1.2278,-4.5192 -1.2496,-12.14 -7.2424,-10.246 -7.3112,1.0454 -15.028,7.9578 -22.333,3.7713 -2.5972,-2.116 -2.7018,-6.317 -6.9553,-6.2542 -6.404,-1.4611 -12.728,1.0768 -18.664,3.2058 -0.10596,-5.5898 0.25182,-11.171 0.92525,-16.72 6.8242,2.8559 15.916,8.2728 22.78,3.457 2.5988,-6.5742 11.134,-4.6196 15.761,-1.5085 4.4266,1.7506 10.627,7.4019 15.123,3.1114 2.9667,-3.5202 4.2623,-10.867 -1.9462,-11.974 -6.8542,-2.6118 -17.83,-0.35641 -21.249,-8.4227 -0.32042,-3.074 0.49794,-6.5091 -2.9033,-8.3284 -4.883,-3.9661 -11.289,-5.2113 -17.484,-6.1599 2.8227,-4.839 5.9033,-9.4989 9.3482,-13.923 4.2216,5.8887 9.6039,14.643 17.803,14.268 5.3527,-4.4337 11.807,0.89135 14.262,5.8142 3.0033,3.7759 5.3538,11.602 11.358,10.843 4.4057,-1.396 9.7906,-7.2786 4.8815,-11.377 -4.5661,-5.8891 -15.51,-9.1636 -14.102,-18.134 2.2168,-2.981 3.4197,-6.667 0.95716,-10.057 -2.5888,-4.954 -6.8126,-8.8217 -11.103,-12.351 4.8237,-2.8598 9.841,-5.3171 15.059,-7.417 0.69088,7.2248 0.51102,17.533 8.1677,21.088 6.6764,-1.0241 9.5096,6.2754 9.2844,11.66 0.84788,4.8753 -1.4186,13.079 4.4348,15.526 4.5295,0.87274 11.955,-1.5942 9.9862,-7.417 -1.0573,-7.2499 -8.5472,-15.425 -3.2543,-22.471 2.4521,-1.9003 5.8532,-2.766 5.8386,-6.4742 1.327,-6.2665 -1.1009,-12.364 -3.35,-18.165 h 2.9353 z"
       inkscape:connector-curvature="0" />
    <path
       id="path3771"
       d="m 502.64,382.46 c -106.52,0 -192.88,86.329 -192.88,192.84 0,106.511 86.36,192.84 192.88,192.84 106.51,0 192.84,-86.329 192.84,-192.84 0,-106.511 -86.329,-192.84 -192.84,-192.84 z m 0,118.47 c 41.073,0 74.344,33.302 74.344,74.375 0,41.073 -33.271,74.375 -74.344,74.375 -41.073,0 -74.375,-33.302 -74.375,-74.375 0,-41.073 33.302,-74.375 74.375,-74.375 z"
       inkscape:connector-curvature="0"
       style="opacity:0.30698015;fill:url(#linearGradient4012);stroke:url(#linearGradient4010);stroke-width:2.07279992" />
    <g
       id="g4736"
       transform="translate(-1305.4,-327.25)">
      <path
         id="path13935"
         d="m 1419.2,1291.5 c -214.79,-214.79 -214.81,-563.03 -0.023,-777.82 214.787,-214.79 563.05,-214.79 777.84,0 214.79,214.79 214.77,563.03 -0.023,777.82 -214.793,214.79 -563.01,214.79 -777.79,2e-4 z m 257.11,-257.11 c 72.782,72.782 190.79,72.782 263.57,0 72.782,-72.782 72.782,-190.79 0,-263.57 -72.782,-72.782 -190.79,-72.782 -263.57,0 -72.782,72.782 -72.782,190.79 0,263.57 z"
         inkscape:connector-curvature="0"
         style="fill:url(#linearGradient4747)" />
      <path
         id="path5378"
         d="m 1808.1,353.04 c 303.48,0 549.51,246 549.51,549.48 0,303.48 -246.03,549.51 -549.51,549.51 -303.48,0 -549.48,-246.03 -549.48,-549.51 0,-303.48 246,-549.48 549.48,-549.48 z m 0,363.27 c -102.84,0 -186.21,83.375 -186.21,186.21 0,102.835 83.375,186.18 186.21,186.18 102.835,0 186.21,-83.344 186.21,-186.18 0,-102.836 -83.375,-186.21 -186.21,-186.21 z"
         inkscape:connector-curvature="0"
         style="opacity:0.5;fill:url(#linearGradient4749);stroke:url(#linearGradient4751);stroke-width:1.00259995" />
      <path
         id="path5130"
         d="m 1665,371.42 c -292.81,78.599 -466.6,380.1 -388.14,673.43 78.458,293.33 379.45,467.42 672.26,388.82 292.81,-78.598 466.56,-380.12 388.1,-673.45 C 2258.762,466.89 1957.81,292.82 1665,371.42 z m 93.918,351.13 c 99.22,-26.633 201.21,32.355 227.79,131.75 26.586,99.397 -32.298,201.57 -131.52,228.2 -99.22,26.633 -201.21,-32.356 -227.79,-131.75 -26.586,-99.397 32.298,-201.57 131.52,-228.2 z"
         inkscape:connector-curvature="0"
         style="opacity:0.40930002;fill:#ffffff" />
      <path
         id="path13935-7"
         d="m 1668,382.49 c -286.71,76.96 -456.87,372.17 -380.05,659.39 76.822,287.22 371.54,457.68 658.25,380.72 286.71,-76.96 456.83,-372.2 380.01,-659.41 C 2249.388,475.97 1954.71,305.54 1668,382.49 z m 91.96,343.81 c 97.151,-26.078 197.01,31.681 223.05,129.01 26.031,97.325 -31.624,197.37 -128.78,223.44 -97.151,26.078 -197.01,-31.681 -223.05,-129.01 -26.032,-97.325 31.624,-197.37 128.78,-223.44 z"
         inkscape:connector-curvature="0"
         style="opacity:0.40930002;fill:url(#linearGradient4753)" />
      <path
         id="path3768-4"
         d="m 1425,517.76 c -212.12,212.5 -212.15,557.04 -0.023,769.55 212.13,212.5 556.07,212.5 768.2,0 212.13,-212.5 212.1,-557.04 -0.022,-769.55 -212.12,-212.5 -556.02,-212.5 -768.15,-2e-4 z m 253.92,254.38 c 71.879,-72.008 188.42,-72.008 260.3,10e-5 71.879,72.008 71.879,188.76 0,260.77 -71.879,72.008 -188.42,72.008 -260.3,0 -71.879,-72.008 -71.879,-188.76 -10e-5,-260.77 z"
         inkscape:connector-curvature="0"
         style="opacity:0.40930002;fill:url(#linearGradient4755)" />
      <path
         id="path5116"
         d="m 2083.5,426.38 c -262.53,-151.84 -598.22,-61.754 -749.79,201.24 -151.57,263 -61.617,599.31 200.91,751.15 262.527,151.84 598.21,61.711 749.78,-201.28 151.57,-263 61.628,-599.26 -200.9,-751.1 z m -181.43,314.81 c 88.958,51.452 119.44,165.42 68.081,254.54 -51.36,89.117 -165.11,119.63 -254.07,68.176 -88.958,-51.452 -119.46,-165.39 -68.097,-254.51 51.36,-89.117 165.12,-119.65 254.08,-68.203 z"
         inkscape:connector-curvature="0"
         style="opacity:0.20464998;fill:url(#linearGradient4757)" />
      <path
         id="path5378-6"
         d="m 2333.7,1043.2 c 78.21,-290.98 -94.144,-589.86 -384.99,-667.55 -290.84,-77.69 -590.04,95.227 -668.25,386.21 -78.21,290.983 94.181,589.84 385.02,667.53 290.839,77.69 590,-95.205 668.21,-386.19 z m -348.14,-92.996 c -26.502,98.6 -127.89,157.2 -226.44,130.87 -98.553,-26.326 -156.94,-127.6 -130.44,-226.2 26.502,-98.601 127.86,-157.21 226.41,-130.88 98.553,26.325 156.97,127.61 130.47,226.21 z"
         inkscape:connector-curvature="0"
         style="opacity:0.20464998;fill:url(#linearGradient3127)" />
      <path
         id="path3771-0"
         d="m 1809.1,709.05 c -106.68,0 -193.17,86.615 -193.17,193.48 0,106.87 86.491,193.48 193.17,193.48 106.679,0 193.14,-86.615 193.14,-193.48 0,-106.87 -86.46,-193.48 -193.14,-193.48 z m 0,118.86 c 41.135,0 74.457,33.412 74.457,74.621 0,41.209 -33.322,74.621 -74.457,74.621 -41.135,0 -74.488,-33.412 -74.488,-74.621 0,-41.209 33.353,-74.621 74.488,-74.621 z"
         inkscape:connector-curvature="0"
         style="opacity:0.12565002;fill:url(#linearGradient4761)" />
      <path
         id="path3775-0"
         d="m 1809.1,752.49 c -82.714,0 -149.76,67.168 -149.76,150.03 0,82.861 67.048,150.03 149.76,150.03 82.714,0 149.76,-67.168 149.76,-150.03 0,-82.861 -67.048,-150.03 -149.76,-150.03 z m 0,75.421 c 41.135,0 74.475,33.4 74.475,74.608 0,41.209 -33.34,74.641 -74.475,74.641 -41.135,0 -74.475,-33.432 -74.475,-74.641 0,-41.209 33.34,-74.608 74.475,-74.608 z"
         inkscape:connector-curvature="0"
         style="opacity:0.06472701;fill:none" />
    </g>
    <path
       id="path3775"
       d="m 502.65,425.75 c -82.588,0 -149.53,66.946 -149.53,149.53 0,82.588 66.946,149.53 149.53,149.53 82.588,0 149.53,-66.946 149.53,-149.53 0,-82.588 -66.946,-149.53 -149.53,-149.53 z m 0,75.172 c 41.073,0 74.362,33.289 74.362,74.362 0,41.073 -33.289,74.395 -74.362,74.395 -41.073,0 -74.362,-33.322 -74.362,-74.395 0,-41.073 33.289,-74.362 74.362,-74.362 z"
       inkscape:connector-curvature="0"
       style="opacity:0.15814;fill:none;stroke:url(#linearGradient4102);stroke-width:3.1092" />
    <path
       id="path4239"
       transform="translate(-227.86,13.239)"
       d="m 907.94,99.531 -40.06,325.78 c 40.879,18.473 70.837,51.756 86.062,90.875 73.624,-38.384 177.89,-117.94 270.62,-182 -53.081,-93.171 -137.06,-169.61 -244.59,-212.25 -23.775,-9.4264 -47.844,-16.881 -72.031,-22.406 z M 568,720.811 271.12,847.501 c 12.251,21.097 26.299,41.576 42.125,61.219 71.579,88.846 168.34,146.4 271.97,170.5 33.75,-104.22 78.83,-223.48 93.81,-302.82 -41.46,-3.52 -81.67,-22.41 -111.03,-55.57 z"
       inkscape:connector-curvature="0"
       style="fill:#ffffff;filter:url(#filter4465)" />
    <path
       id="path4651"
       d="m 1066.1,21.364 c -2.2162,0.0102 -4.5071,0.28991 -6.25,0.21875 -378.53,0.0209 -757.07,-0.042 -1135.6,0.0312 -6.3096,1.1405 -4.4477,9.5037 -4.5625,13.906 0.0426,362.85 -0.0864,725.72 0.0625,1088.60005 0.63478,5.9998 8.0222,5.3011 12.406,4.875 179.38,-0.029 358.77,-0.013 538.16,0 -232.01,-13.4 -439.58,-172.97005 -503,-409.64005 -79.12,-295.31 96.14,-598.84 391.44,-677.97 48.448,-12.982 97.138,-19.15 145,-19.031 243.87,0.60287 466.79,163.58 532.94,410.44 79.125,295.3 -96.075,598.84005 -391.38,677.97005 -37.489,10.045 -75.127,15.973 -112.41,18.094 179,0.01 357.98,0.01 536.97,-0.094 6.7279,-2.0158 3.5292,-10.816 4.2188,-15.719 -0.063,-362.35005 0.1301,-724.73005 -0.094,-1087.10005 -0.7276,-4.0643 -4.275,-4.7358 -7.9687,-4.7188 z"
       inkscape:connector-curvature="0"
       style="fill:url(#radialGradient4659)" />
    <path
       id="path6070"
       style="text-indent:0;text-transform:none;block-progression:tb;color:#000000;fill:#ffffff;stroke:#ffffff;stroke-width:0.21015"
       d="m 456.91,493.5 a 1.1045,0.99979 0 0 0 -0.0312,0.0312 h -2.5312 l -1.0938,1 v 4.25 h -0.90625 l -1.0938,1 v 2.375 l 1.0938,1 h 0.90625 v 9.0625 c 0,2.4214 0.3601,4.1928 1.4688,5.4062 1.1121,1.2021 2.9316,1.6562 5.2188,1.6562 h 2.8125 l 1.125,-1 v -2.5 l -1.125,-1 h -2.8125 c -0.96864,0 -1.3198,-0.22878 -1.375,-0.28125 0.0152,0.0178 -0.34375,-0.84359 -0.34375,-2.2812 v -9.0625 h 4.5312 l 1.125,-1 v -2.375 l -1.125,-1 h -4.5312 v -4.0938 a 1.1045,0.99979 0 0 0 0,-0.375 1.1045,0.99979 0 0 0 -0.0312,-0.0937 1.1045,0.99979 0 0 0 -0.21875,-0.34375 1.1045,0.99979 0 0 0 -0.0625,-0.0937 1.1045,0.99979 0 0 0 -0.125,-0.0625 1.1045,0.99979 0 0 0 -0.15625,-0.0937 1.1045,0.99979 0 0 0 -0.3125,-0.0937 1.1045,0.99979 0 0 0 -0.32,-0.03 1.1045,0.99979 0 0 0 -0.0937,0 z m -1.4688,2.0312 h 0.5625 v 4.25 l 1.0938,1 h 4.5625 v 0.375 h -4.5625 l -1.0938,1 v 10.062 c 0,1.5847 0.0295,2.6531 0.78125,3.5312 0.71621,0.81465 1.8588,1.0312 3.1562,1.0312 h 1.7188 v 0.5 h -1.7188 c -1.9528,0 -3.031,-0.36555 -3.5312,-0.90625 -0.50372,-0.55135 -0.96875,-1.9449 -0.96875,-4.1562 v -10.062 l -1.0938,-1 h -0.90625 v -0.375 h 0.90625 l 1.0938,-1 v -4.25 z m -98.156,2.7812 a 1.1045,0.99979 0 0 0 -0.125,0.0312 1.1045,0.99979 0 0 0 -0.0937,0 1.1045,0.99979 0 0 0 -0.21875,0.0937 1.1045,0.99979 0 0 0 -0.0312,0.0312 c -2.4179,0.15326 -4.5493,1.0837 -5.9688,2.875 -1.5321,1.9477 -2.25,4.5403 -2.25,7.7188 0,3.1679 0.72081,5.7623 2.25,7.7188 v 0.0312 c 1.5423,1.9463 3.8721,2.9688 6.5625,2.9688 2.6816,0 4.9584,-1.0234 6.5,-2.9688 v -0.0312 c 1.5404,-1.9564 2.25,-4.5498 2.25,-7.7188 0,-3.1795 -0.70671,-5.7711 -2.25,-7.7188 -1.4409,-1.8184 -3.5725,-2.7784 -6.0312,-2.9062 -0.0378,-0.002 -0.0559,-0.0299 -0.0937,-0.0312 a 1.1045,0.99979 0 0 0 -0.3125,-0.0625 c -0.0237,-1.7e-4 -0.0387,0 -0.0625,0 a 1.1045,0.99979 0 0 0 -0.125,-0.0312 z m -16,0.0312 c -2.8777,2e-5 -5.3367,1.0161 -7.0312,2.9688 -1.6846,1.9542 -2.4688,4.5787 -2.4688,7.75 0,3.1284 0.80241,5.748 2.4688,7.7188 1.6663,1.9707 4.0424,3 6.8438,3 1.0128,0 1.989,-0.12061 2.9062,-0.34375 0.92072,-0.22129 1.8103,-0.56166 2.6562,-1 l 0.5625,-0.875 v -2.7812 l -1.7188,-0.8125 c -0.70543,0.43097 -1.4104,0.7266 -2.0938,0.9375 -0.66969,0.19982 -1.3221,0.3125 -2,0.3125 -1.497,0 -2.4793,-0.45421 -3.2812,-1.4688 -0.79463,-1.0268 -1.2812,-2.5721 -1.2812,-4.6875 0,-2.1298 0.47984,-3.6737 1.2812,-4.6875 0.80358,-1.0255 1.7868,-1.4687 3.2812,-1.4688 0.67224,10e-6 1.3025,0.10427 1.9688,0.3125 h 0.0312 c 0.67704,0.19948 1.3916,0.50854 2.0938,0.9375 l 1.7188,-0.8125 v -2.6562 a 1.1045,0.99979 0 0 0 0,-0.1875 1.1045,0.99979 0 0 0 0,-0.0937 1.1045,0.99979 0 0 0 -0.125,-0.3125 1.1045,0.99979 0 0 0 -0.0312,-0.0312 1.1045,0.99979 0 0 0 0,-0.0625 1.1045,0.99979 0 0 0 -0.0312,-0.0625 1.1045,0.99979 0 0 0 -0.0625,-0.0937 1.1045,0.99979 0 0 0 -0.0937,-0.0625 1.1045,0.99979 0 0 0 -0.1875,-0.125 1.1045,0.99979 0 0 0 -0.0312,-0.0312 c -0.10967,-0.056 -0.2328,-0.0726 -0.34375,-0.125 a 1.1045,0.99979 0 0 0 -0.0937,-0.0312 c -0.70439,-0.32441 -1.4382,-0.63818 -2.1875,-0.8125 -0.90048,-0.22167 -1.8085,-0.31248 -2.75,-0.3125 z m 36.344,0 c -1.3868,2e-5 -2.6483,0.30816 -3.7188,0.96875 -0.20913,0.12907 -0.33794,0.40918 -0.53125,0.5625 v -0.0937 l -1.0938,-1 h -2.7812 l -1.0938,1 v 18.5 l 1.0938,1 h 2.7812 l 1.0938,-1 v -10.438 c -10e-6,-1.6594 0.37861,-2.8597 1.0312,-3.6875 0.65606,-0.84101 1.3098,-1.1875 2.4062,-1.1875 0.88889,1e-5 1.3248,0.21503 1.7188,0.8125 0.38987,0.58372 0.68749,1.7464 0.6875,3.4375 v 11.062 l 1.0938,1 h 2.75 l 1.125,-1 v -10.438 c -2e-5,-1.6712 0.3797,-2.8922 1.0312,-3.7188 0.65187,-0.82689 1.3449,-1.1562 2.4688,-1.1562 0.86393,10e-6 1.2594,0.21062 1.6562,0.8125 0.39591,0.60047 0.68746,1.758 0.6875,3.4375 v 11.062 l 1.125,1 h 2.75 l 1.0938,-1 v -11.156 c -2e-5,-2.6072 -0.45131,-4.6997 -1.5625,-6.2812 -1.1088,-1.591 -2.9102,-2.5 -4.9688,-2.5 -1.4985,2e-5 -2.9157,0.37511 -4.0625,1.1562 -0.61482,0.41876 -1.167,0.97094 -1.6562,1.5938 -0.36424,-0.56297 -0.79882,-1.0583 -1.3125,-1.4688 -1.0418,-0.84214 -2.3692,-1.2812 -3.8125,-1.2812 z m 29.781,0 c -1.4038,2e-5 -2.7312,0.30898 -3.8125,0.96875 -0.18644,0.1127 -0.32728,0.27444 -0.5,0.40625 l -1.0312,-0.9375 h -2.7812 l -1.0938,1 v 25.562 l 1.0938,1 h 2.7812 l 1.0938,-1 v -6.9062 c 0.1529,0.11537 0.27411,0.27417 0.4375,0.375 h 0.0625 c 1.081,0.64616 2.3499,0.96875 3.75,0.96875 2.3883,0 4.4662,-1.1334 5.875,-3.125 1.4221,-1.9948 2.0625,-4.5498 2.0625,-7.5938 -2e-5,-3.044 -0.64039,-5.5989 -2.0625,-7.5938 -1.4088,-1.9916 -3.4867,-3.125 -5.875,-3.125 z m 17.25,0 c -0.98479,2e-5 -1.9847,0.1094 -3,0.34375 -0.0115,0.003 -0.0197,-0.003 -0.0312,0 -1.0176,0.22774 -2.0406,0.58054 -3.0938,1.0312 l -0.625,0.90625 v 2.8125 l 1.6875,0.84375 c 0.7535,-0.45731 1.545,-0.80749 2.3438,-1.0312 0.80094,-0.22434 1.59,-0.34374 2.4375,-0.34375 1.2939,1e-5 2.0943,0.32052 2.6875,0.875 h 0.0625 c 0.46324,0.42172 0.69859,1.0439 0.8125,1.8438 h -2.6562 c -2.6705,10e-6 -4.8448,0.56185 -6.375,1.8438 -1.5184,1.2821 -2.25,3.2026 -2.25,5.4688 -1e-5,1.9566 0.54819,3.5958 1.75,4.875 l 0.0312,0.0312 c 1.2166,1.269 2.9428,1.9375 4.9062,1.9375 1.5127,0 2.8927,-0.32441 4.0312,-0.96875 0.24589,-0.14207 0.43156,-0.35856 0.65625,-0.53125 l 1.125,1 h 2.7188 l 1.0938,-1 v -10.375 a 1.1045,0.99979 0 0 0 0,-0.15625 c 0,-0.0344 1.7e-4,-0.0596 0,-0.0937 a 1.1045,0.99979 0 0 0 -0.0312,-0.21875 c -0.0462,-2.7885 -0.6076,-5.041 -1.9688,-6.625 -1.4161,-1.6479 -3.6603,-2.4687 -6.3125,-2.4688 z m 20.125,0 c -2.8777,2e-5 -5.3367,1.0161 -7.0312,2.9688 -1.6846,1.9542 -2.5,4.5787 -2.5,7.75 0,3.1284 0.80242,5.7481 2.4688,7.7188 1.6663,1.9707 4.0424,3 6.8438,3 1.0128,0 1.989,-0.12061 2.9062,-0.34375 0.92069,-0.22129 1.8103,-0.56166 2.6562,-1 l 0.5625,-0.875 v -2.7812 l -1.7188,-0.8125 c -0.70542,0.43097 -1.4105,0.7266 -2.0938,0.9375 -0.66972,0.19982 -1.3221,0.3125 -2,0.3125 -1.497,0 -2.4168,-0.4542 -3.2188,-1.4688 -0.79463,-1.0268 -1.2812,-2.5721 -1.2812,-4.6875 0,-2.1298 0.47985,-3.6737 1.2812,-4.6875 0.8036,-1.0255 1.7243,-1.4687 3.2188,-1.4688 0.67225,10e-6 1.3337,0.10427 2,0.3125 0.67703,0.19948 1.3916,0.50854 2.0938,0.9375 l 1.7188,-0.8125 v -2.6562 a 1.1045,0.99979 0 0 0 0,-0.375 1.1045,0.99979 0 0 0 0,-0.0312 1.1045,0.99979 0 0 0 -0.0312,-0.0937 1.1045,0.99979 0 0 0 -0.0312,-0.0937 1.1045,0.99979 0 0 0 -0.0312,-0.0625 1.1045,0.99979 0 0 0 0,-0.0312 1.1045,0.99979 0 0 0 -0.0937,-0.0625 1.1045,0.99979 0 0 0 -0.375,-0.3125 c -0.10967,-0.056 -0.2328,-0.0726 -0.34375,-0.125 a 1.1045,0.99979 0 0 0 -0.0937,-0.0312 c -0.69483,-0.32 -1.4176,-0.63849 -2.1562,-0.8125 -0.011,-0.003 -0.0202,0.003 -0.0312,0 -0.89002,-0.21625 -1.7888,-0.31248 -2.7188,-0.3125 z m -103.5,2 c 0.75045,2e-5 1.4444,0.0748 2.1562,0.25 h 0.0625 c 0.51916,0.12077 0.99956,0.34612 1.5,0.5625 v 0.59375 c -0.30275,-0.12186 -0.59832,-0.31551 -0.90625,-0.40625 -0.88642,-0.27705 -1.7673,-0.43749 -2.6875,-0.4375 -2.0686,1e-5 -3.8955,0.82315 -5.0625,2.3125 -1.1693,1.4791 -1.6875,3.4511 -1.6875,5.8438 0,2.3926 0.52143,4.3869 1.6875,5.875 1.1686,1.4783 2.9964,2.25 5.0625,2.25 0.91452,0 1.8045,-0.11153 2.6875,-0.375 0.30419,-0.0939 0.60686,-0.28314 0.90625,-0.40625 v 0.53125 c -0.51867,0.22992 -1.0492,0.43163 -1.5938,0.5625 -0.71506,0.17396 -1.4742,0.28125 -2.3125,0.28125 -2.2348,0 -3.8254,-0.68178 -5.125,-2.2188 -1.2996,-1.5369 -1.9688,-3.672 -1.9688,-6.5 0,-2.8733 0.69878,-4.9906 2,-6.5 1.3112,-1.5109 2.9437,-2.2187 5.2812,-2.2188 z m 16.031,0 a 1.1045,0.99979 0 0 0 0.0937,0 c 2.0956,2e-5 3.5332,0.66018 4.7188,2.1562 1.1837,1.4939 1.8125,3.6532 1.8125,6.5625 0,2.8978 -0.62587,5.0554 -1.8125,6.5625 -1.1855,1.4961 -2.6231,2.1562 -4.7188,2.1562 -2.1068,0 -3.5965,-0.66111 -4.7812,-2.1562 -1.178,-1.5071 -1.8125,-3.6637 -1.8125,-6.5625 0,-2.9103 0.63741,-5.0687 1.8125,-6.5625 1.1704,-1.477 2.6219,-2.1401 4.6875,-2.1562 z m 20.312,0 c 0.98514,2e-5 1.7248,0.2244 2.375,0.75 v 0.0312 c 0.65432,0.52282 1.1962,1.3175 1.5625,2.4688 0.003,0.011 -0.003,0.0202 0,0.0312 a 1.1045,0.99979 0 0 0 0.0625,0.15625 1.1045,0.99979 0 0 0 0,0.0312 1.1045,0.99979 0 0 0 0.0625,0.0625 1.1045,0.99979 0 0 0 0.0625,0.0937 1.1045,0.99979 0 0 0 0.0312,0.0625 1.1045,0.99979 0 0 0 0.0625,0 1.1045,0.99979 0 0 0 0.125,0.125 1.1045,0.99979 0 0 0 0.0312,0.0312 1.1045,0.99979 0 0 0 0.0625,0.0312 1.1045,0.99979 0 0 0 0.5625,0.125 1.1045,0.99979 0 0 0 0.0625,0 1.1045,0.99979 0 0 0 0.0312,0 c -0.45426,1.0291 -0.75001,2.1645 -0.75,3.5 v 9.4375 h -0.5625 v -10.062 c -10e-6,-1.8827 -0.25527,-3.3538 -1,-4.4688 -0.74065,-1.1232 -2.1139,-1.7812 -3.5938,-1.7812 -0.75588,1e-5 -1.4366,0.19836 -2.0938,0.46875 0.14526,-0.11892 0.25699,-0.37663 0.40625,-0.46875 0.68117,-0.42034 1.4782,-0.62498 2.5,-0.625 z m 10.844,0 c 1.4249,2e-5 2.3115,0.44005 3.0938,1.5625 0.77978,1.1099 1.25,2.8403 1.25,5.2188 v 10.156 h -0.5625 v -10.062 c -4e-5,-1.8722 -0.26138,-3.3485 -1,-4.4688 -0.73777,-1.1188 -2.0976,-1.7812 -3.5625,-1.7812 -0.80044,10e-6 -1.5307,0.20584 -2.2188,0.5 0.0983,-0.0798 0.15043,-0.27592 0.25,-0.34375 0.76406,-0.52042 1.6607,-0.78123 2.75,-0.78125 z m 18.938,0 c 1.6724,2e-5 2.8808,0.63655 4,2.2188 1.1257,1.5791 1.7187,3.72 1.7188,6.5 -1e-5,2.78 -0.59303,4.921 -1.7188,6.5 -1.1192,1.5822 -2.3276,2.2188 -4,2.2188 -1.0483,0 -1.872,-0.21225 -2.5625,-0.625 -0.16498,-0.10312 -0.2813,-0.36687 -0.4375,-0.5 0.70907,0.35987 1.47,0.5625 2.3125,0.5625 1.8081,0 3.405,-0.88562 4.375,-2.375 0.93683,-1.4338 1.3389,-3.286 1.375,-5.5 a 1.1045,0.99979 0 0 0 0.0312,-0.1875 c 5e-5,-0.0113 -6e-5,-0.0202 0,-0.0312 a 1.1045,0.99979 0 0 0 0,-0.0625 c 0,-0.0339 1.8e-4,-0.0602 0,-0.0937 a 1.1045,0.99979 0 0 0 -0.0312,-0.0937 c -0.0243,-2.2464 -0.43227,-4.1189 -1.375,-5.5625 -0.004,-0.007 0.004,-0.0245 0,-0.0312 h -0.0312 c -0.97081,-1.476 -2.5488,-2.4062 -4.3438,-2.4062 -0.84427,0 -1.6029,0.26167 -2.3125,0.625 0.16254,-0.13729 0.26572,-0.42741 0.4375,-0.53125 0.69024,-0.42116 1.5179,-0.62499 2.5625,-0.625 z m 17.25,0 c 2.1848,2e-5 3.59,0.55582 4.5625,1.6875 0.96305,1.1207 1.552,2.9988 1.5625,5.6562 9e-5,0.0241 0,0.0383 0,0.0625 a 1.1045,0.99979 0 0 0 0,0.0937 v 9.4375 h -0.53125 v -1.7812 l -1.7188,-0.34375 c 0.0406,-0.0494 0.086,-0.0741 0.125,-0.125 1.0886,-1.4141 1.5937,-3.2177 1.5938,-5.3438 v -0.6875 l -1.0938,-1 h -2.6562 a 1.1045,0.99979 0 0 0 -0.0937,0 1.1045,0.99979 0 0 0 -0.15625,0 c -0.0649,3.7e-4 -0.12361,0.0306 -0.1875,0.0312 -2.1278,0.0255 -3.7519,0.24131 -4.9062,1 -1.1975,0.78705 -1.75,2.1405 -1.75,3.6875 -1e-5,1.2587 0.40593,2.4022 1.25,3.25 v 0.0312 c 0.86062,0.83643 2.07,1.2188 3.4062,1.2188 0.92047,0 1.8178,-0.18415 2.5938,-0.5625 -0.16469,0.12943 -0.26354,0.36825 -0.4375,0.46875 -0.73256,0.41457 -1.6805,0.65625 -2.875,0.65625 -1.4603,0 -2.4362,-0.36992 -3.25,-1.2188 -0.80865,-0.86071 -1.2188,-2.0078 -1.2188,-3.625 -1e-5,-1.9033 0.51031,-3.1643 1.5,-4 0.99781,-0.8359 2.5805,-1.3125 4.9062,-1.3125 h 3.875 l 1.0938,-1 v -0.3125 c -3e-5,-1.5808 -0.51887,-2.9589 -1.5938,-3.9375 -1.0589,-0.98973 -2.5694,-1.4687 -4.2812,-1.4688 -1.0635,1e-5 -2.0833,0.15448 -3.0938,0.4375 -0.40899,0.11457 -0.79301,0.33987 -1.1875,0.5 v -0.53125 c 0.70408,-0.26793 1.4378,-0.5421 2.0938,-0.6875 0.86392,-0.20155 1.6732,-0.28123 2.4688,-0.28125 z m 20.125,0 c 0.75047,2e-5 1.4756,0.0748 2.1875,0.25 0.51189,0.11908 1.0064,0.3505 1.5,0.5625 v 0.59375 c -0.2934,-0.1181 -0.54551,-0.31738 -0.84375,-0.40625 -0.0111,-0.003 -0.0204,0.003 -0.0312,0 -0.87618,-0.27036 -1.8099,-0.43749 -2.7188,-0.4375 -2.0686,1e-5 -3.8642,0.82315 -5.0312,2.3125 -1.1692,1.4791 -1.6875,3.4511 -1.6875,5.8438 0,2.3926 0.52145,4.3869 1.6875,5.875 1.1686,1.4783 2.9652,2.25 5.0312,2.25 0.91453,0 1.8358,-0.11153 2.7188,-0.375 h 0.0312 c 0.29799,-0.092 0.55037,-0.28622 0.84375,-0.40625 v 0.5625 c -0.51247,0.2258 -0.99354,0.40201 -1.5312,0.53125 -0.71508,0.17396 -1.5366,0.28125 -2.375,0.28125 -2.2348,0 -3.7942,-0.68178 -5.0938,-2.2188 -1.2996,-1.5369 -2,-3.672 -2,-6.5 0,-2.8733 0.69878,-4.9906 2,-6.5 1.3112,-1.5109 2.975,-2.2187 5.3125,-2.2188 z m -74.156,0.4375 h 0.53125 v 1.875 l 1.4688,0.3125 c -0.01,0.0124 -0.0217,0.019 -0.0312,0.0312 -0.99956,1.268 -1.4375,2.9072 -1.4375,4.8438 v 9.4375 h -0.53125 v -16.5 z m 29.781,0 h 0.53125 v 1.8125 l 1.75,0.375 c -0.0978,0.12519 -0.25558,0.17756 -0.34375,0.3125 -0.97045,1.4902 -1.4062,3.4308 -1.4062,5.7812 0,2.2055 0.40461,4.0121 1.25,5.4688 a 1.1045,0.99979 0 0 0 -0.0312,0 1.1045,0.99979 0 0 0 -0.0625,0 1.1045,0.99979 0 0 0 -0.0312,0 1.1045,0.99979 0 0 0 -0.0625,0 1.1045,0.99979 0 0 0 -0.0937,0 1.1045,0.99979 0 0 0 -0.3125,0.0625 1.1045,0.99979 0 0 0 -0.0312,0.0312 1.1045,0.99979 0 0 0 -0.0625,0.0312 1.1045,0.99979 0 0 0 -0.0625,0.0625 1.1045,0.99979 0 0 0 -0.0937,0.0625 1.1045,0.99979 0 0 0 -0.0625,0.0312 1.1045,0.99979 0 0 0 -0.0312,0.0312 1.1045,0.99979 0 0 0 -0.0312,0.0312 1.1045,0.99979 0 0 0 -0.0312,0.0312 1.1045,0.99979 0 0 0 -0.0312,0.0312 1.1045,0.99979 0 0 0 -0.0312,0.0625 1.1045,0.99979 0 0 0 -0.0312,0.0625 1.1045,0.99979 0 0 0 -0.0312,0.0312 1.1045,0.99979 0 0 0 0,0.0312 1.1045,0.99979 0 0 0 -0.0312,0.0625 1.1045,0.99979 0 0 0 -0.0312,0.0312 1.1045,0.99979 0 0 0 0,0.0625 1.1045,0.99979 0 0 0 0,0.0312 1.1045,0.99979 0 0 0 -0.0625,0.0625 1.1045,0.99979 0 0 0 0,0.0312 1.1045,0.99979 0 0 0 0,0.0625 1.1045,0.99979 0 0 0 0,0.0312 1.1045,0.99979 0 0 0 0,0.0312 1.1045,0.99979 0 0 0 0,0.1875 v 8.625 h -0.53125 v -23.562 z m -43.312,0.125 a 1.1045,0.99979 0 0 0 -0.25,0.125 1.1045,0.99979 0 0 0 -0.0312,0.0312 c -1.5641,0.18261 -2.9905,0.92773 -3.875,2.25 -1.0051,1.4896 -1.4375,3.4164 -1.4375,5.75 0,2.3322 0.44716,4.2522 1.4375,5.75 v 0.0312 c 1.0038,1.4877 2.6379,2.3438 4.4688,2.3438 1.8188,0 3.4059,-0.8796 4.4062,-2.375 1.0016,-1.4973 1.4375,-3.4269 1.4375,-5.75 -2e-5,-2.3126 -0.43663,-4.2226 -1.4375,-5.7188 -0.88235,-1.3304 -2.2838,-2.0966 -3.8438,-2.2812 a 1.1045,0.99979 0 0 0 -0.0937,-0.0312 1.1045,0.99979 0 0 0 -0.3125,-0.0937 1.1045,0.99979 0 0 0 -0.0937,-0.0312 c -0.023,-2.9e-4 -0.0395,0 -0.0625,0 a 1.1045,0.99979 0 0 0 -0.125,0 1.1045,0.99979 0 0 0 -0.0937,0 1.1045,0.99979 0 0 0 -0.0937,0 z m -48.531,1.5312 c -2.8085,0 -4.8986,2.3582 -5.125,4.9375 a 2.0002,2.0002 0 0 0 0,0.1875 v 20.781 h -19.344 c -4.6231,0 -8.4062,3.7832 -8.4062,8.4062 v 44.469 c 0,4.6231 3.7832,8.4062 8.4062,8.4062 16.082,0 19.633,0.40625 31.812,0.40625 2.8034,0 5.1562,-2.2976 5.1562,-5.125 v -77.344 c 0,-2.8274 -2.3528,-5.125 -5.1562,-5.125 h -7.3438 z m 98.156,0.4375 c 1.0949,2e-5 1.785,0.37844 2.4688,1.4375 0.67037,1.0172 1.103,2.5561 1.125,4.5938 a 1.1045,0.99979 0 0 0 0,0.0937 c 10e-5,0.0235 0,0.0388 0,0.0625 a 1.1045,0.99979 0 0 0 0,0.0937 c -0.0134,2.0733 -0.44424,3.6456 -1.125,4.6875 -0.68226,1.0476 -1.3707,1.4062 -2.4688,1.4062 -1.0981,0 -1.8082,-0.3566 -2.5,-1.4062 h 0.0312 c -0.6845,-1.0602 -1.0938,-2.6534 -1.0938,-4.7812 0,-2.1279 0.38078,-3.7032 1.0625,-4.75 0.6933,-1.0611 1.405,-1.4375 2.5,-1.4375 z m -49.406,0.0312 a 1.1045,0.99979 0 0 0 0.0937,0 c 1.1043,10e-6 1.787,0.39371 2.5,1.4688 0.71099,1.0629 1.1562,2.6101 1.1562,4.6875 -10e-6,2.089 -0.44599,3.657 -1.1562,4.7188 -0.71153,1.0636 -1.3927,1.4375 -2.5,1.4375 -1.1187,0 -1.8642,-0.39127 -2.5625,-1.4062 -0.007,-0.01 -0.0247,-0.0213 -0.0312,-0.0312 -0.68959,-1.0606 -1.125,-2.6365 -1.125,-4.7188 0,-2.1006 0.4495,-3.6713 1.1562,-4.7188 0.6947,-1.0385 1.3913,-1.421 2.4688,-1.4375 z m -48.75,3.5312 h 7.3438 c 0.66558,0 1.1562,0.48344 1.1562,1.125 v 77.344 c 0,0.64156 -0.49067,1.125 -1.1562,1.125 -12.09,0 -15.663,-0.40625 -31.812,-0.40625 -2.479,0 -4.4062,-1.9273 -4.4062,-4.4062 v -44.469 c 0,-2.479 1.9273,-4.4062 4.4062,-4.4062 h 21.344 a 2.0002,2.0002 0 0 0 2,-2 v -22.594 c 0.0769,-0.87639 0.46453,-1.3125 1.125,-1.3125 z m 117.75,3.57 a 1.1045,0.99979 0 0 0 0.0937,0 h 1.5938 c -0.0515,1.6686 -0.4431,2.9487 -1.1562,3.875 -0.75173,0.97802 -1.5767,1.375 -2.7812,1.375 -0.87328,0 -1.348,-0.20396 -1.7812,-0.625 -0.42987,-0.43174 -0.65626,-1.003 -0.65625,-1.9062 -10e-6,-1.1664 0.29814,-1.7244 0.8125,-2.0625 0.4791,-0.31488 1.8291,-0.64363 3.875,-0.65625 z m -89.344,17.781 c -2.8274,0 -5.125,2.3528 -5.125,5.1562 v 52.125 c 0,2.8034 2.3216,5.125 5.125,5.125 h 9.7188 c 2.8034,0 5.125,-2.3216 5.125,-5.125 v -52.125 c 0,-2.8034 -2.2976,-5.1562 -5.125,-5.1562 h -9.7188 z m 33.312,1.25 c -4.2527,0 -7.9062,3.2411 -7.9062,7.4062 v 23.688 c 0,4.1652 3.6664,7.375 7.9062,7.375 h 20.875 c 2.9804,0 5.0312,1.9181 5.0312,3.9375 0,2.0194 -2.0509,3.9375 -5.0312,3.9375 h -26.781 a 2.0002,2.0002 0 0 0 -2,2 v 11.281 a 2.0002,2.0002 0 0 0 2,2 h 35.718 c 4.2399,0 7.9062,-3.2098 7.9062,-7.375 v -23.688 c 0,-4.1652 -3.6664,-7.375 -7.9062,-7.375 h -20.844 c -2.9804,0 -5.0312,-1.9181 -5.0312,-3.9375 0,-2.0194 2.0509,-3.9375 5.0312,-3.9375 h 26.75 a 2.0002,2.0002 0 0 0 2,-2 v -11.312 a 2.0002,2.0002 0 0 0 -2,-2 h -35.719 z m 56.688,0.15625 c -4.6348,0 -8.4062,3.8144 -8.4062,8.4375 v 44.469 c 0,4.6231 3.7832,8.4062 8.4062,8.4062 h 28.188 c 4.6231,0 8.4062,-3.7832 8.4062,-8.4062 v -16.031 a 2.0002,2.0002 0 0 0 -2,-2 h -13.438 a 2.0002,2.0002 0 0 0 -2,2 v 8.5312 c 0,3.24 -2.3102,5.6562 -5.0625,5.6562 -2.7523,0 -5.0625,-2.4163 -5.0625,-5.6562 v -31.188 c 0,-3.2399 2.3102,-5.6562 5.0625,-5.6562 2.7524,0 5.0625,2.4163 5.0625,5.6562 v 8.5312 a 2.0002,2.0002 0 0 0 2,2 h 13.438 a 2.0002,2.0002 0 0 0 2,-2 v -14.312 c 0,-4.6231 -3.7714,-8.4375 -8.4062,-8.4375 h -28.188 z m -90,2.5938 h 9.7188 c 0.64156,0 1.125,0.49067 1.125,1.1562 v 52.125 c 0,0.66558 -0.45942,1.125 -1.125,1.125 h -9.7188 c -0.66556,0 -1.125,-0.45943 -1.125,-1.125 v -52.125 c 0,-0.66557 0.48346,-1.1562 1.125,-1.1562 z m 33.312,1.25 h 33.719 v 7.3125 h -24.75 c -4.7947,0 -9.0312,3.3719 -9.0312,7.9375 0,4.5656 4.2365,7.9375 9.0312,7.9375 h 20.844 c 2.2858,0 3.9062,1.572 3.9062,3.375 v 23.688 c 0,1.803 -1.6204,3.375 -3.9062,3.375 h -33.718 v -7.2812 h 24.781 c 4.7947,0 9.0312,-3.372 9.0312,-7.9375 0,-4.5656 -4.2365,-7.9375 -9.0312,-7.9375 h -20.875 c -2.2858,0 -3.9062,-1.572 -3.9062,-3.375 v -23.688 c 0,-1.803 1.6332,-3.4062 3.9062,-3.4062 z m 56.688,0.15625 h 28.188 c 2.4672,0 4.4062,1.9585 4.4062,4.4375 v 12.312 h -9.4375 v -6.5312 c 0,-5.2219 -3.9788,-9.6562 -9.0625,-9.6562 -5.0837,0 -9.0625,4.4344 -9.0625,9.6562 v 31.188 c 0,5.2219 3.9788,9.6562 9.0625,9.6562 5.0837,0 9.0625,-4.4344 9.0625,-9.6562 v -6.5312 h 9.4375 v 14.031 c 0,2.479 -1.9273,4.4062 -4.4062,4.4062 h -28.188 c -2.479,0 -4.4062,-1.9273 -4.4062,-4.4062 v -44.469 c 0,-2.479 1.939,-4.4375 4.4062,-4.4375 z m -128.59,0.56 c -5.0837,0 -9.0625,4.4344 -9.0625,9.6562 v 31.188 c 0,5.2219 3.9788,9.6562 9.0625,9.6562 5.0837,0 9.0625,-4.4344 9.0625,-9.6562 v -31.188 c 0,-5.2219 -3.9788,-9.6562 -9.0625,-9.6562 z m 0,4 c 2.7524,0 5.0625,2.4163 5.0625,5.6562 v 31.188 c 0,3.24 -2.3102,5.6562 -5.0625,5.6562 -2.7523,0 -5.0625,-2.4163 -5.0625,-5.6562 v -31.188 c 0,-3.2399 2.3102,-5.6562 5.0625,-5.6562 z m -18.031,56.281 c -2.7981,0 -5.0625,2.2644 -5.0625,5.0625 v 18.188 c 0,2.7981 2.2644,5.0312 5.0625,5.0312 h 180.28 c 2.7981,0 5.0625,-2.2332 5.0625,-5.0312 v -18.188 c 0,-2.7981 -2.2644,-5.0625 -5.0625,-5.0625 h -180.28 z m 105.19,3.8125 h 3 v 20.312 h -3 v -2.1875 c -0.62478,0.8706 -1.4163,1.5109 -2.375,1.9375 -0.94791,0.4178 -2.1018,0.625 -3.4375,0.625 -2.1867,0 -3.965,-0.7147 -5.3438,-2.125 -1.368,-1.4104 -2.0313,-3.2641 -2.0312,-5.5625 -10e-6,-2.2983 0.66325,-4.1522 2.0312,-5.5625 1.3788,-1.4104 3.1571,-2.125 5.3438,-2.125 1.3357,0 2.4896,0.22975 3.4375,0.65625 0.95868,0.4179 1.7502,1.067 2.375,1.9375 v -7.9062 z m 29.281,0 h 3 v 7.9062 c 0.62475,-0.8705 1.3958,-1.5196 2.3438,-1.9375 0.95867,-0.4265 2.1126,-0.65625 3.4375,-0.65625 2.1974,0 3.9757,0.7145 5.3438,2.125 1.3788,1.4103 2.0625,3.2643 2.0625,5.5625 -2e-5,2.2985 -0.68373,4.1521 -2.0625,5.5625 -1.368,1.4103 -3.1463,2.125 -5.3438,2.125 -1.3249,0 -2.4788,-0.2073 -3.4375,-0.625 -0.94793,-0.4267 -1.719,-1.0668 -2.3438,-1.9375 v 2.1875 h -3 v -20.312 z m 21.125,0 h 2.9688 v 20.312 h -2.9688 v -20.312 z m -155.56,0.8125 h 7.375 c 2.7576,0 4.799,0.47485 6.1562,1.4062 1.3572,0.9315 2.0312,2.3382 2.0312,4.2188 -2e-5,1.2274 -0.35157,2.2216 -1.0625,3.0312 -0.70017,0.8097 -1.7161,1.4052 -3.0625,1.7188 0.70014,0.1916 1.3742,0.5607 2.0312,1.1875 0.66783,0.6269 1.3321,1.4968 2,2.5938 l 3.3125,5.3438 h -3.5 l -3.0938,-5 c -0.79713,-1.3059 -1.5897,-2.1985 -2.3438,-2.625 -0.74326,-0.4267 -1.7387,-0.625 -3.0312,-0.625 h -3.5625 v 8.25 h -3.25 v -19.5 z m 3.25,2.1562 v 6.9375 h 4.125 c 1.5727,0 2.7341,-0.2918 3.5312,-0.875 0.80786,-0.592 1.2187,-1.4534 1.2188,-2.5938 -2e-5,-1.1405 -0.41089,-1.9879 -1.2188,-2.5625 -0.79713,-0.5833 -1.9586,-0.90625 -3.5312,-0.90625 h -4.125 z m 25.719,2.3438 c 2.4344,0 4.3389,0.63525 5.75,1.9062 1.4219,1.2624 2.1562,2.9798 2.1562,5.1562 v 1.1875 h -13.688 c 0.12925,1.654 0.74502,2.9106 1.8438,3.7812 1.1095,0.8618 2.6538,1.3125 4.625,1.3125 1.1418,0 2.2461,-0.11755 3.3125,-0.34375 1.0772,-0.2265 2.1319,-0.57855 3.1875,-1.0312 v 2.2812 c -1.0664,0.3656 -2.161,0.6209 -3.2812,0.8125 -1.1203,0.1916 -2.2537,0.3125 -3.4062,0.3125 -2.8868,0 -5.1526,-0.67305 -6.8438,-2.0312 -1.6804,-1.358 -2.5313,-3.2154 -2.5312,-5.5312 -1e-5,-2.394 0.81203,-4.286 2.4062,-5.6875 1.605,-1.4105 3.7543,-2.125 6.4688,-2.125 z m 20.562,0 c 0.91559,0 1.815,0.093 2.6875,0.25 0.87249,0.148 1.7126,0.3828 2.5312,0.6875 v 2.2188 c -0.84022,-0.3743 -1.6803,-0.6297 -2.5312,-0.8125 -0.84021,-0.1917 -1.7008,-0.28125 -2.5625,-0.28125 -1.9282,0 -3.4024,0.47625 -4.4688,1.4688 -1.0664,0.9838 -1.5938,2.3718 -1.5938,4.1562 0,1.7848 0.52734,3.1638 1.5938,4.1562 1.0664,0.9837 2.5406,1.5 4.4688,1.5 0.86173,0 1.7223,-0.0979 2.5625,-0.28125 0.85095,-0.1916 1.691,-0.46945 2.5312,-0.84375 v 2.2188 c -0.82944,0.3135 -1.6997,0.5307 -2.5938,0.6875 -0.8833,0.1567 -1.8107,0.25 -2.8125,0.25 -2.7253,0 -4.8638,-0.6783 -6.4688,-2.0625 -1.605,-1.3843 -2.4062,-3.2744 -2.4062,-5.625 0,-2.3854 0.79049,-4.2581 2.4062,-5.625 1.6265,-1.3667 3.834,-2.0625 6.6562,-2.0625 z m 17.469,0 c 2.5852,0 4.5868,0.7045 6.0625,2.0625 1.4757,1.3582 2.2187,3.2222 2.2188,5.625 -2e-5,2.3941 -0.74303,4.2894 -2.2188,5.6562 -1.4757,1.3582 -3.4773,2.0312 -6.0625,2.0312 -2.596,0 -4.6493,-0.67305 -6.125,-2.0312 -1.465,-1.3668 -2.1875,-3.2622 -2.1875,-5.6562 0,-2.4028 0.72253,-4.2668 2.1875,-5.625 1.4757,-1.358 3.529,-2.0625 6.125,-2.0625 z m 22.156,0 c 0.20465,0 0.43973,0.0365 0.6875,0.0625 0.24774,0.018 0.51087,0.0195 0.8125,0.0625 l 0.0312,2.5 c -0.33394,-0.1568 -0.6952,-0.27375 -1.0938,-0.34375 -0.38778,-0.079 -0.83856,-0.125 -1.3125,-0.125 -1.6804,0 -2.9702,0.4245 -3.875,1.3125 -0.89406,0.8793 -1.3438,2.1584 -1.3438,3.8125 v 7.7188 h -2.9688 v -14.625 h 2.9688 v 2.2812 c 0.62475,-0.8879 1.467,-1.5734 2.4688,-2 1.0018,-0.4353 2.1924,-0.65625 3.625,-0.65625 z m 31.438,0 c 2.6175,0 4.5824,0.55925 5.875,1.6562 1.2926,1.0968 1.9375,2.7713 1.9375,5 v 8.3438 h -2.9688 v -2.2188 c -0.67864,0.888 -1.5187,1.5422 -2.5312,1.9688 -1.0126,0.4178 -2.2538,0.625 -3.7188,0.625 -1.8528,0 -3.3388,-0.4143 -4.4375,-1.25 -1.088,-0.8445 -1.625,-1.996 -1.625,-3.4062 0,-1.6454 0.70525,-2.883 2.0625,-3.7188 1.368,-0.8359 3.39,-1.25 6.0938,-1.25 h 4.1562 v -0.21875 c -2e-5,-1.1056 -0.43894,-1.9618 -1.3438,-2.5625 -0.89407,-0.6094 -2.186,-0.90625 -3.8125,-0.90625 -1.0341,0 -2.0198,0.081 -3,0.28125 -0.98023,0.2003 -1.9389,0.50585 -2.8438,0.90625 v -2.2188 c 1.0879,-0.3396 2.1642,-0.5846 3.1875,-0.75 1.0233,-0.1736 1.9993,-0.28125 2.9688,-0.28125 z m 51.719,0 c 2.4344,0 4.3389,0.63525 5.75,1.9062 1.4219,1.2624 2.1562,2.9798 2.1562,5.1562 v 1.1875 h -13.688 c 0.12925,1.654 0.74502,2.9106 1.8438,3.7812 1.1095,0.8618 2.6538,1.3125 4.625,1.3125 1.1418,0 2.2461,-0.11755 3.3125,-0.34375 1.0772,-0.2265 2.1631,-0.57855 3.2188,-1.0312 v 2.2812 c -1.0664,0.3656 -2.161,0.6209 -3.2812,0.8125 -1.1203,0.1916 -2.2849,0.3125 -3.4375,0.3125 -2.8868,0 -5.1526,-0.67305 -6.8438,-2.0312 -1.6804,-1.358 -2.5313,-3.2154 -2.5312,-5.5312 -1e-5,-2.394 0.81202,-4.286 2.4062,-5.6875 1.605,-1.4105 3.7543,-2.125 6.4688,-2.125 z m -72.812,2.0312 c -1.2993,0.1124 -2.3333,0.6163 -3.125,1.5 -0.89407,1.0011 -1.3438,2.389 -1.3438,4.1562 0,1.7673 0.44968,3.1464 1.3438,4.1562 0.90481,1.0012 2.1148,1.5312 3.6875,1.5312 1.5727,0 2.8452,-0.53005 3.75,-1.5312 0.90481,-1.0098 1.3437,-2.389 1.3438,-4.1562 -1e-5,-1.7672 -0.43894,-3.1552 -1.3438,-4.1562 -0.90483,-1.0099 -2.1773,-1.5 -3.75,-1.5 -0.19659,0 -0.37688,-0.016 -0.5625,0 z m 42.406,0 c -1.2993,0.1124 -2.3333,0.6163 -3.125,1.5 -0.89407,1.0011 -1.3438,2.389 -1.3438,4.1562 0,1.7673 0.44968,3.1464 1.3438,4.1562 0.90482,1.0012 2.1148,1.5312 3.6875,1.5312 1.5727,0 2.8247,-0.53005 3.7188,-1.5312 0.90481,-1.0098 1.3437,-2.389 1.3438,-4.1562 -2e-5,-1.7672 -0.43894,-3.1552 -1.3438,-4.1562 -0.89407,-1.0099 -2.1461,-1.5 -3.7188,-1.5 -0.19659,0 -0.37688,-0.016 -0.5625,0 z m -112.94,0.0312 c -1.6589,0 -2.967,0.3676 -3.9688,1.125 -0.99101,0.7574 -1.568,1.8118 -1.7188,3.1875 h 10.625 c -0.0216,-1.3147 -0.48096,-2.3728 -1.375,-3.1562 -0.8833,-0.7835 -2.0976,-1.1562 -3.5625,-1.1562 z m 38.031,0 c -1.5942,0 -2.8549,0.4901 -3.7812,1.5 -0.92637,1.0013 -1.4062,2.3752 -1.4062,4.125 0,1.75 0.4594,3.1464 1.375,4.1562 0.92636,1.0011 2.2075,1.5 3.8125,1.5 1.5834,0 2.7924,-0.52135 3.7188,-1.5312 0.92636,-1.0099 1.4062,-2.3838 1.4062,-4.125 -2e-5,-1.7323 -0.47989,-3.0838 -1.4062,-4.0938 -0.92637,-1.0185 -2.1353,-1.5312 -3.7188,-1.5312 z m 105.34,0 c -1.6589,0 -2.9982,0.3676 -4,1.125 -0.99101,0.7574 -1.5367,1.8118 -1.6875,3.1875 h 10.594 c -0.0216,-1.3147 -0.48096,-2.3728 -1.375,-3.1562 -0.8833,-0.7835 -2.0663,-1.1562 -3.5312,-1.1562 z m -49.844,5.5625 c -2.4021,0 -4.0736,0.2436 -5,0.6875 -0.92638,0.444 -1.4062,1.2104 -1.4062,2.2812 0,0.8532 0.34186,1.5262 1.0312,2.0312 0.70017,0.4963 1.6481,0.75 2.8438,0.75 1.6481,0 2.9777,-0.4971 3.9688,-1.4375 1.0018,-0.949 1.5,-2.1828 1.5,-3.75 v -0.5625 h -2.9375 z"
       transform="translate(-227.86,13.239)"
       inkscape:connector-curvature="0" />
    <path
       id="path3819"
       d="m 307.38,-2.5312 c 0,23.71 19.448,42.938 43.438,42.938 23.989,0 43.438,-19.227 43.438,-42.938 H 307.38 z m 746.5,0 c 0,23.71 19.448,42.938 43.438,42.938 23.989,0 43.438,-19.227 43.438,-42.938 h -86.876 z m -703.09,1086.2 c -23.989,0 -43.438,19.227 -43.438,42.937 h 86.876 c 0,-23.71 -19.448,-42.937 -43.438,-42.937 z m 746.5,0 c -23.989,0 -43.438,19.227 -43.438,42.937 h 86.876 c 0,-23.71 -19.448,-42.937 -43.438,-42.937 z"
       transform="translate(-227.86,13.239)"
       inkscape:connector-curvature="0"
       style="opacity:0.32326002;fill:url(#linearGradient4483);stroke:#ffffff;stroke-width:3;stroke-linecap:round;stroke-linejoin:round" />
    <path
       id="path4495"
       d="m 655.74,576.65 c 0.0329,-13.285 -1.6754,-26.793 -5.2788,-40.241 -21.964,-81.968 -106.22,-130.62 -188.18,-108.66 -81.969,21.963 -130.61,106.23 -108.65,188.19 21.964,81.968 106.22,130.6 188.18,108.64 68.521,-18.36 113.76,-80.242 113.93,-147.93 z m -2.7901,-0.009 c -0.1643,66.466 -44.582,127.23 -111.86,145.26 -80.484,21.565 -163.21,-26.186 -184.77,-106.67 -21.566,-80.483 26.202,-163.23 106.69,-184.79 80.484,-21.565 163.21,26.212 184.77,106.69 3.5381,13.204 5.2077,26.464 5.1754,39.509 z"
       inkscape:connector-curvature="0"
       style="fill:url(#radialGradient4503)" />
    <path
       id="rect2998"
       transform="translate(-227.86,13.239)"
       d="m 42.875,-5.875 c -4.3528,0 -7.8438,3.5358 -7.8438,7.9375 v 1119.9 c 0,4.4017 3.4909,7.9375 7.8438,7.9375 l 1262.1,0.1 c 4.3527,0 7.875,-3.5358 7.875,-7.9375 V 2.1625 c 0,-4.4017 -3.5223,-7.9375 -7.875,-7.9375 H 42.875 z m 121.62,15.656 h 1130.3 c 3.8982,0 7.0313,3.4696 7.0313,7.75 v 1089.1 c 0,4.2805 -3.1331,7.7188 -7.0313,7.7188 h -1130.3 c -3.8982,0 -7.0312,-3.4383 -7.0312,-7.7188 V 17.531 c 0,-4.2804 3.1331,-7.75 7.0312,-7.75 z"
       inkscape:connector-curvature="0"
       style="fill:url(#linearGradient3141)" />
    <g
       id="g4579">
      <path
         id="path3815"
         d="m -187.12,20.934 a 5.7593,5.851 0 0 0 -5.75,5.8415 v 1096.2 a 5.7593,5.851 0 0 0 5.75,5.8416 h 104.94 a 5.7593,5.851 0 0 0 5.75,-5.8416 v -1096.2 a 5.7593,5.851 0 0 0 -5.75,-5.8415 h -104.94 z"
         inkscape:connector-curvature="0"
         style="fill:url(#linearGradient4148);stroke:#000000;stroke-linecap:round;stroke-linejoin:round" />
      <g
         id="g5137"
         transform="matrix(0.81658,0,0,0.99271,-24.843,4.1912)">
        <path
           id="path3882"
           style="text-indent:0;text-transform:none;block-progression:tb;color:#000000"
           d="m -174.18,20.67 v 1109.3 h 3.1923 V 20.67 h -3.1923 z"
           inkscape:connector-curvature="0" />
        <path
           id="path3886"
           style="text-indent:0;text-transform:none;block-progression:tb;color:#000000"
           d="m -163.54,20.67 v 1109.3 h 3.1923 V 20.67 h -3.1923 z"
           inkscape:connector-curvature="0" />
        <path
           id="path3890"
           style="text-indent:0;text-transform:none;block-progression:tb;color:#000000"
           d="m -142.26,20.67 v 1109.3 h 3.1923 V 20.67 h -3.1923 z"
           inkscape:connector-curvature="0" />
        <path
           id="path3894"
           style="text-indent:0;text-transform:none;block-progression:tb;color:#000000"
           d="m -131.62,20.67 v 1109.3 h 3.1923 V 20.67 h -3.1923 z"
           inkscape:connector-curvature="0" />
        <path
           id="path3898"
           style="text-indent:0;text-transform:none;block-progression:tb;color:#000000"
           d="m -120.97,20.67 v 1109.3 h 3.1923 V 20.67 h -3.1923 z"
           inkscape:connector-curvature="0" />
        <path
           id="path3902"
           style="text-indent:0;text-transform:none;block-progression:tb;color:#000000"
           d="m -99.692,20.67 v 1109.3 h 3.1923 V 20.67 h -3.1923 z"
           inkscape:connector-curvature="0" />
        <path
           id="path3906"
           style="text-indent:0;text-transform:none;block-progression:tb;color:#000000"
           d="m -152.9,20.67 v 1109.3 h 3.1923 V 20.67 H -152.9 z"
           inkscape:connector-curvature="0" />
        <path
           id="path3910"
           style="text-indent:0;text-transform:none;block-progression:tb;color:#000000"
           d="m -110.33,20.67 v 1109.3 h 3.1923 V 20.67 h -3.1923 z"
           inkscape:connector-curvature="0" />
        <path
           id="path3941"
           style="text-indent:0;text-transform:none;block-progression:tb;color:#000000"
           d="m -179.5,20.67 v 1109.3 h 3.1923 V 20.67 H -179.5 z"
           inkscape:connector-curvature="0" />
        <path
           id="path3943"
           style="text-indent:0;text-transform:none;block-progression:tb;color:#000000"
           d="m -168.86,20.67 v 1109.3 h 3.1923 V 20.67 h -3.1923 z"
           inkscape:connector-curvature="0" />
        <path
           id="path3945"
           style="text-indent:0;text-transform:none;block-progression:tb;color:#000000"
           d="m -147.58,20.67 v 1109.3 h 3.1923 V 20.67 h -3.1923 z"
           inkscape:connector-curvature="0" />
        <path
           id="path3947"
           style="text-indent:0;text-transform:none;block-progression:tb;color:#000000"
           d="m -136.94,20.67 v 1109.3 h 3.1923 V 20.67 h -3.1923 z"
           inkscape:connector-curvature="0" />
        <path
           id="path3949"
           style="text-indent:0;text-transform:none;block-progression:tb;color:#000000"
           d="m -126.29,20.67 v 1109.3 h 3.1923 V 20.67 h -3.1923 z"
           inkscape:connector-curvature="0" />
        <path
           id="path3951"
           style="text-indent:0;text-transform:none;block-progression:tb;color:#000000"
           d="m -105.01,20.67 v 1109.3 h 3.1923 V 20.67 h -3.1923 z"
           inkscape:connector-curvature="0" />
        <path
           id="path3953"
           style="text-indent:0;text-transform:none;block-progression:tb;color:#000000"
           d="m -158.22,20.67 v 1109.3 h 3.1923 V 20.67 h -3.1923 z"
           inkscape:connector-curvature="0" />
        <path
           id="path3955"
           style="text-indent:0;text-transform:none;block-progression:tb;color:#000000"
           d="m -115.65,20.67 v 1109.3 h 3.1923 V 20.67 h -3.1923 z"
           inkscape:connector-curvature="0" />
      </g>
    </g>
    <path
       id="path6717"
       style="text-indent:0;text-transform:none;block-progression:tb;color:#000000;fill:url(#radialGradient4097);stroke:#ffffff;stroke-width:2;stroke-linecap:round;stroke-linejoin:round"
       d="m 993.41,524.97 c -11.914,7e-5 -21.381,3.3247 -28.344,10 -6.9629,6.6435 -10.438,15.691 -10.438,27.125 0,11.402 3.4746,20.45 10.438,27.125 6.9628,6.6435 16.43,9.9688 28.344,9.9688 3.9925,0 7.7956,-0.44944 11.469,-1.3438 3.673,-0.89431 7.208,-2.2433 10.594,-4 v -14.781 c -3.4177,2.3316 -6.7721,4.0391 -10.094,5.125 -3.3218,1.086 -6.827,1.625 -10.5,1.625 -6.5796,1e-5 -11.762,-2.1277 -15.531,-6.3438 -3.7689,-4.216 -5.6562,-9.9969 -5.6562,-17.375 0,-7.41 1.8874,-13.221 5.6562,-17.438 3.7688,-4.216 8.9516,-6.3437 15.531,-6.3438 3.673,5e-5 7.1782,0.57036 10.5,1.6562 3.3217,1.086 6.6759,2.7935 10.094,5.125 v -14.812 c -3.3859,-1.7566 -6.9208,-3.0744 -10.594,-3.9688 -3.6731,-0.89424 -7.4762,-1.3437 -11.469,-1.3438 z m 37.406,1.2812 v 71.531 h 19.438 c 10.732,0 18.79,-0.7794 24.156,-2.3125 5.3661,-1.565 9.9795,-4.2012 13.813,-7.9062 3.3532,-3.2259 5.8397,-6.9402 7.4687,-11.156 1.6289,-4.248 2.4374,-9.0709 2.4375,-14.469 -10e-5,-5.3339 -0.8086,-10.096 -2.4375,-14.312 -1.629,-4.216 -4.1155,-7.9303 -7.4687,-11.156 -3.801,-3.7049 -8.3849,-6.3418 -13.719,-7.875 -5.302,-1.565 -13.39,-2.3437 -24.25,-2.3438 z m 128.53,0 v 71.531 h 18.437 v -27.062 h 5.2188 c 3.0023,0 5.3988,0.65925 7.1875,1.9688 1.8205,1.3096 3.6183,3.7353 5.375,7.3125 l 8.7187,17.781 h 19.625 l -10,-20.312 c -2.0441,-4.1202 -4.0816,-7.1753 -6.0937,-9.1875 -1.9803,-2.0441 -4.2268,-3.3626 -6.75,-3.9375 4.5993,-1.4372 8.0131,-3.6844 10.281,-6.7188 2.2992,-3.0342 3.4686,-6.8979 3.4687,-11.625 -10e-5,-6.835 -2.2174,-11.838 -6.625,-15 -4.3758,-3.162 -11.265,-4.75 -20.688,-4.75 z m 18.437,13.375 h 7.75 c 3.8649,6e-5 6.6204,0.68846 8.2813,2.0938 1.6928,1.4054 2.5625,3.7422 2.5625,7 0,3.2898 -0.8697,5.6565 -2.5625,7.0938 -1.6609,1.4373 -4.4164,2.1563 -8.2813,2.1562 h -7.75 z m -128.53,0.5625 h 6.625 c 7.5697,5e-5 13.321,1.8576 17.281,5.5625 3.9607,3.705 5.9373,9.0969 5.9376,16.188 -2e-4,7.1226 -1.9764,12.576 -5.9688,16.312 -3.9606,3.737 -9.7123,5.5938 -17.25,5.5938 h -6.625 z m 59.938,21.504 c -1.2601,-7.8e-4 -2.407,1.1461 -2.4063,2.4062 v 7.7723 c -8e-4,1.2601 1.1462,2.407 2.4063,2.4062 h 35.219 c 1.2601,7.8e-4 2.4071,-1.1461 2.4063,-2.4062 v -7.7723 c 8e-4,-1.2601 -1.1462,-2.407 -2.4063,-2.4062 z"
       transform="translate(-227.86,13.239)"
       inkscape:connector-curvature="0" />
    <path
       id="path6500"
       d="m 503.8,22.458 c -47.862,-0.11833 -96.552,6.0496 -145,19.031 -295.3,79.127 -470.56,382.66 -391.44,677.97 79.125,295.3 382.7,470.53 678,391.41 295.3,-79.2 470.54,-382.7 391.34,-678 C 970.59,186.009 747.67,23.029 503.8,22.429 z m -0.0625,18 c 235.96,0.583 451.66,158.28 515.66,397.12 76.6,285.73 -92.97,579.42 -378.69,655.92 -285.72,76.6 -579.45,-93 -656,-378.73 -76.562,-285.72 93.058,-579.38 378.78,-655.94 46.876,-12.561 93.94,-18.489 140.25,-18.375 z"
       inkscape:connector-curvature="0"
       style="fill:url(#linearGradient4791)" />
    <path
       id="glare"
       d="m -184.98,7.3638 c -4.3528,0 -7.8438,3.5358 -7.8438,7.9375 v 10.812 a 5.7593,5.851 0 0 1 5.7188,-5.1875 h 104.94 a 5.7593,5.851 0 0 1 5.75,5.8437 v 1096.2 a 5.7593,5.851 0 0 1 -5.75,5.8437 h -104.94 a 5.7593,5.851 0 0 1 -5.7188,-5.2813 v 11.781 c 0,4.4017 3.4909,7.9375 7.8438,7.9375 h 1262.2 c 4.3527,0 7.875,-3.5358 7.875,-7.9375 v -1120 c 0,-4.4017 -3.5223,-7.9375 -7.875,-7.9375 h -1262.2 z"
       inkscape:connector-curvature="0"
       style="fill:url(#linearGradient7979)" />
  </g>
  <metadata
     id="metadata110">
    <rdf:RDF>
      <cc:Work>
        <dc:format>image/svg+xml</dc:format>
        <dc:type
           rdf:resource="http://purl.org/dc/dcmitype/StillImage" />
        <cc:license
           rdf:resource="http://creativecommons.org/licenses/publicdomain/" />
        <dc:publisher>
          <cc:Agent
             rdf:about="http://openclipart.org/">
            <dc:title>Openclipart</dc:title>
          </cc:Agent>
        </dc:publisher>
        <dc:title></dc:title>
        <dc:date>2013-05-08T16:47:59</dc:date>
        <dc:description>CD-R compact disc-recordable, kompaktinis diskas, Kompaktin ploktel</dc:description>
        <dc:source>http://openclipart.org/detail/177892/cd-r-compact-disc-recordable-by-keistutis-177892</dc:source>
        <dc:creator>
          <cc:Agent>
            <dc:title>Keistutis</dc:title>
          </cc:Agent>
        </dc:creator>
        <dc:subject>
          <rdf:Bag>
            <rdf:li>CD-R compact disc-recordable</rdf:li>
            <rdf:li>Kompaktin ploktel</rdf:li>
            <rdf:li>diskas</rdf:li>
          </rdf:Bag>
        </dc:subject>
      </cc:Work>
      <cc:License
         rdf:about="http://creativecommons.org/licenses/publicdomain/">
        <cc:permits
           rdf:resource="http://creativecommons.org/ns#Reproduction" />
        <cc:permits
           rdf:resource="http://creativecommons.org/ns#Distribution" />
        <cc:permits
           rdf:resource="http://creativecommons.org/ns#DerivativeWorks" />
      </cc:License>
    </rdf:RDF>
  </metadata>
</svg>
