<?xml version="1.0" encoding="UTF-8" standalone="no"?>
<svg
   xmlns:dc="http://purl.org/dc/elements/1.1/"
   xmlns:cc="http://creativecommons.org/ns#"
   xmlns:rdf="http://www.w3.org/1999/02/22-rdf-syntax-ns#"
   xmlns:svg="http://www.w3.org/2000/svg"
   xmlns="http://www.w3.org/2000/svg"
   xmlns:xlink="http://www.w3.org/1999/xlink"
   xml:space="preserve"
   id="svg2"
   viewBox="0 0 413.435 411.80493"
   height="420"
   width="420"
   version="1.0"><metadata
   id="metadata13142"><rdf:RDF><cc:Work
       rdf:about=""><dc:format>image/svg+xml</dc:format><dc:type
         rdf:resource="http://purl.org/dc/dcmitype/StillImage" /><dc:title></dc:title></cc:Work></rdf:RDF></metadata><defs
   id="defs13"><linearGradient
   id="linearGradient5211"><stop
     id="stop5213"
     offset="0"
     style="stop-color:#ffffff;stop-opacity:0.62886596" /><stop
     id="stop5215"
     offset="1"
     style="stop-color:#ffffff;stop-opacity:0" /></linearGradient><linearGradient
   id="linearGradient2893"><stop
     id="stop2895"
     offset="0"
     style="stop-color:#ffffff;stop-opacity:0.57396448" /><stop
     id="stop2897"
     offset="0.19"
     style="stop-color:#ffffff;stop-opacity:0.25098041" /><stop
     id="stop2901"
     offset="0.60000002"
     style="stop-color:#6b6b6b;stop-opacity:0.1254902" /><stop
     id="stop2899"
     offset="1"
     style="stop-color:#000000;stop-opacity:0.1254902" /></linearGradient><radialGradient
   gradientTransform="matrix(1.215027,0,0,1.266667,-841.03957,-591.10063)"
   gradientUnits="userSpaceOnUse"
   xlink:href="#linearGradient2893"
   id="radialGradient3236"
   fy="615.58044"
   fx="847.04108"
   r="300"
   cy="615.58044"
   cx="847.04108" /><linearGradient
   id="linearGradient3139"><stop
     id="stop3141"
     offset="0"
     style="stop-color:#ffff00;stop-opacity:1" /><stop
     id="stop3143"
     offset="1"
     style="stop-color:#ffffe8;stop-opacity:1" /></linearGradient>
	
<linearGradient
   gradientUnits="userSpaceOnUse"
   xlink:href="#linearGradient3139"
   id="linearGradient4105"
   y2="182.86166"
   x2="413.43466"
   y1="182.86166"
   x1="5.4911467e-05" /><linearGradient
   gradientUnits="userSpaceOnUse"
   xlink:href="#linearGradient3139"
   id="linearGradient5196"
   y2="-79.847679"
   x2="246.50478"
   y1="322.42599"
   x1="109.46228" /><radialGradient
   gradientTransform="matrix(-0.6101056,0.6619819,-0.6829184,-0.6294014,402.98608,80.149634)"
   gradientUnits="userSpaceOnUse"
   xlink:href="#linearGradient5211"
   id="radialGradient5217"
   fy="150.8327"
   fx="173.78099"
   r="206.90388"
   cy="150.8327"
   cx="173.78099" /></defs>


<g
   transform="matrix(1,0,0,1.1295405,0,-0.48560854)"
   id="g13711"><path
     d="m 222.96725,25.584927 c 0,0 -5.08917,-11.009168 -15.54612,-11.008183 -10.45694,0 -15.55891,11.007199 -15.55891,11.007199 L 18.46388,325.93617 c 0,0 -6.988026,9.9116 -1.76005,18.96877 5.228962,9.05618 17.313059,7.96944 17.313059,7.96944 l 346.812421,0.0108 c 0,0 12.07819,1.09659 17.30617,-7.95958 5.22896,-9.05521 -1.75316,-18.97665 -1.75316,-18.97665 z"
     style="fill:#ffff00;fill-opacity:1;fill-rule:nonzero;stroke:#df1800;stroke-width:21.6561;stroke-linecap:round;stroke-linejoin:round"
     id="path5" /><g
     transform="matrix(0.9843676,0,0,0.9843676,3.9346133,3.7486992)"
     id="Ebene_3">
	<path
   d="m 244.087,136.653 c -1.066,4.434 -20.398,85.254 -22.799,94.755 -2.4,9.502 -4.668,18.506 -6.807,27.011 0,0 -1.111,5.366 -6.923,5.366 h -1.752 c -5.812,0 -6.923,-5.366 -6.923,-5.366 -2.139,-8.505 -4.406,-17.509 -6.807,-27.011 -2.4,-9.501 -21.729,-90.321 -22.798,-94.755 -13.697,-56.799 88.888,-58.37 74.809,0 z"
   id="path8" />
	<circle
   cx="206.717"
   cy="308.54599"
   r="24.256001"
   id="circle10" />
</g><g
     style="display:inline"
     id="layer1"><path
       d="m 207.42187,3.7486992 c -16.63266,0 -23.8644,14.1152908 -24.94757,16.4266348 L 9.0717821,320.53052 h 0.030762 c -1.4836084,2.12838 -10.0855663,15.39543 -1.7841664,29.77712 8.3221263,14.41332 24.1723803,13.59831 26.7009733,13.38125 0.0415,-0.004 0.150685,0.003 0.184569,0 l 346.62047,0.0308 v -0.0308 c 2.57607,0.22046 18.3955,1.03671 26.70097,-13.35049 8.33158,-14.42812 -0.34665,-27.75027 -1.78416,-29.80788 h 0.0308 L 232.46173,20.390665 232.33868,20.175334 C 231.24163,17.833999 224.03503,3.7471353 207.42187,3.7486992 Z"
       style="fill:url(#radialGradient5217);fill-opacity:1;fill-rule:nonzero;stroke:none;stroke-width:22;stroke-linecap:round;stroke-linejoin:round;stroke-opacity:1"
       id="path5192" /></g></g></svg>
