<?xml version="1.0" encoding="UTF-8" standalone="no"?>
<svg
   xmlns:dc="http://purl.org/dc/elements/1.1/"
   xmlns:cc="http://creativecommons.org/ns#"
   xmlns:rdf="http://www.w3.org/1999/02/22-rdf-syntax-ns#"
   xmlns:svg="http://www.w3.org/2000/svg"
   xmlns="http://www.w3.org/2000/svg"
   xmlns:xlink="http://www.w3.org/1999/xlink"
   id="svg2"
   height="256"
   width="256"
   version="1.0">
  <metadata
     id="metadata13933">
    <rdf:RDF>
      <cc:Work
         rdf:about="">
        <dc:format>image/svg+xml</dc:format>
        <dc:type
           rdf:resource="http://purl.org/dc/dcmitype/StillImage" />
        <dc:title></dc:title>
      </cc:Work>
    </rdf:RDF>
  </metadata>
  <defs
     id="defs4">
    <linearGradient
       id="linearGradient2820">
      <stop
         id="stop2822"
         offset="0"
         style="stop-color:black;stop-opacity:0.3137255" />
      <stop
         id="stop2826"
         offset="0.92982459"
         style="stop-color:black;stop-opacity:0.19607843" />
      <stop
         id="stop2824"
         offset="1"
         style="stop-color:black;stop-opacity:0" />
    </linearGradient>
    <linearGradient
       id="linearGradient10053">
      <stop
         id="stop10055"
         offset="0"
         style="stop-color:white;stop-opacity:1" />
      <stop
         id="stop10057"
         offset="1"
         style="stop-color:white;stop-opacity:0.47959185" />
    </linearGradient>
    <linearGradient
       id="linearGradient7070">
      <stop
         id="stop7072"
         offset="0"
         style="stop-color:white;stop-opacity:0.94897962" />
      <stop
         id="stop7074"
         offset="1"
         style="stop-color:white;stop-opacity:0.74489796" />
    </linearGradient>
    <linearGradient
       id="linearGradient4153">
      <stop
         id="stop4155"
         offset="0"
         style="stop-color:#2a4fe4;stop-opacity:1" />
      <stop
         id="stop7080"
         offset="0.2"
         style="stop-color:#447bfa;stop-opacity:1" />
      <stop
         id="stop7084"
         offset="0.625"
         style="stop-color:#69a3ff;stop-opacity:1" />
      <stop
         id="stop7082"
         offset="0.75"
         style="stop-color:#89beff;stop-opacity:1" />
      <stop
         id="stop4157"
         offset="1"
         style="stop-color:#80beff;stop-opacity:1" />
    </linearGradient>
    <linearGradient
       id="linearGradient4145">
      <stop
         id="stop4147"
         offset="0"
         style="stop-color:black;stop-opacity:1" />
      <stop
         id="stop4149"
         offset="1"
         style="stop-color:black;stop-opacity:0" />
    </linearGradient>
    <linearGradient
       id="linearGradient25332">
      <stop
         id="stop25334"
         offset="0"
         style="stop-color:#385ae5;stop-opacity:1" />
      <stop
         id="stop26309"
         offset="0"
         style="stop-color:#66a1ff;stop-opacity:1" />
      <stop
         id="stop25336"
         offset="1"
         style="stop-color:#66a1f0;stop-opacity:0.94117647" />
    </linearGradient>
    <linearGradient
       id="linearGradient23386">
      <stop
         id="stop23388"
         offset="0"
         style="stop-color:#2b51e4;stop-opacity:0" />
      <stop
         id="stop23390"
         offset="1"
         style="stop-color:black;stop-opacity:0" />
    </linearGradient>
    <linearGradient
       id="linearGradient15560">
      <stop
         id="stop15562"
         offset="0"
         style="stop-color:#1864ed;stop-opacity:1" />
      <stop
         id="stop15564"
         offset="1"
         style="stop-color:#3a7bef;stop-opacity:0.25510204" />
    </linearGradient>
    <linearGradient
       id="linearGradient15536">
      <stop
         id="stop15538"
         offset="0"
         style="stop-color:white;stop-opacity:1" />
      <stop
         id="stop15540"
         offset="1"
         style="stop-color:white;stop-opacity:0.59090906" />
    </linearGradient>
    <filter
       id="filter9681">
      <feGaussianBlur
         id="feGaussianBlur9683"
         stdDeviation="1.7392633" />
    </filter>
    <filter
       id="filter22413">
      <feGaussianBlur
         id="feGaussianBlur22415"
         stdDeviation="0.33355481" />
    </filter>
    <linearGradient
       gradientUnits="userSpaceOnUse"
       xlink:href="#linearGradient4153"
       id="linearGradient4159"
       y2="42.124634"
       x2="94.360741"
       y1="226.79765"
       x1="168.97348" />
    <linearGradient
       gradientUnits="userSpaceOnUse"
       xlink:href="#linearGradient7070"
       id="linearGradient7076"
       y2="40.729256"
       x2="101.21178"
       y1="228.19299"
       x1="162.12244" />
    <linearGradient
       gradientUnits="userSpaceOnUse"
       xlink:href="#linearGradient10053"
       id="linearGradient10059"
       y2="118.62509"
       x2="127.8125"
       y1="31.59375"
       x1="127.8125" />
    <linearGradient
       gradientUnits="userSpaceOnUse"
       xlink:href="#linearGradient2820"
       id="linearGradient2818"
       y2="131.31783"
       x2="162.2932"
       y1="72.579872"
       x1="150.76942" />
    <radialGradient
       gradientTransform="matrix(0.995962,0,0,0.995962,-0.171109,-0.165469)"
       gradientUnits="userSpaceOnUse"
       xlink:href="#linearGradient2820"
       id="radialGradient3721"
       fy="132.01637"
       fx="130.61937"
       r="115.95089"
       cy="132.01637"
       cx="130.61937" />
    <linearGradient
       gradientUnits="userSpaceOnUse"
       xlink:href="#linearGradient15536"
       id="linearGradient4614"
       y2="118.62509"
       x2="127.8125"
       y1="31.59375"
       x1="127.8125" />
    <linearGradient
       y2="118.62509"
       x2="127.8125"
       y1="31.59375"
       x1="127.8125"
       gradientUnits="userSpaceOnUse"
       id="linearGradient14510"
       xlink:href="#linearGradient15536" />
  </defs>
  <g
     transform="matrix(1.1754996,0,0,1.1754996,-22.46389,-22.463886)"
     id="g14508">
    <g
       style="display:inline;opacity:1"
       id="layer4">
      <path
         d="m 230.50477,134.46112 c 0,54.58653 -44.25113,98.83765 -98.83765,98.83765 -54.586535,1e-5 -98.83766,-44.25112 -98.83766,-98.83765 0,-54.58653 44.251125,-98.837655 98.83765,-98.837655 54.58653,0 98.83766,44.251125 98.83766,98.837655 z"
         transform="matrix(1.082583,0,0,1.082583,-14.54063,-17.56537)"
         style="opacity:1;fill:#3a73ef;fill-opacity:1;stroke:none;stroke-width:0.1;stroke-linecap:butt;stroke-linejoin:round;stroke-miterlimit:4;stroke-dasharray:none;stroke-opacity:1"
         id="path2175" />
      <path
         d="m 230.50477,134.46112 c 0,54.58653 -44.25113,98.83765 -98.83765,98.83765 -54.586535,1e-5 -98.83766,-44.25112 -98.83766,-98.83765 0,-54.58653 44.251125,-98.837655 98.83765,-98.837655 54.58653,0 98.83766,44.251125 98.83766,98.837655 z"
         transform="matrix(1.042113,0,0,1.042113,-9.212006,-12.12368)"
         style="opacity:1;fill:url(#linearGradient7076);fill-opacity:1;stroke:none;stroke-width:0.1;stroke-linecap:butt;stroke-linejoin:round;stroke-miterlimit:4;stroke-dasharray:none;stroke-opacity:1"
         id="path13592" />
      <path
         d="m 230.50477,134.46112 c 0,54.58653 -44.25113,98.83765 -98.83765,98.83765 -54.586535,1e-5 -98.83766,-44.25112 -98.83766,-98.83765 0,-54.58653 44.251125,-98.837655 98.83765,-98.837655 54.58653,0 98.83766,44.251125 98.83766,98.837655 z"
         transform="matrix(0.951055,0,0,0.951055,2.777393,0.12014)"
         style="opacity:1;fill:url(#linearGradient4159);fill-opacity:1;stroke:none;stroke-width:0.1;stroke-linecap:butt;stroke-linejoin:round;stroke-miterlimit:4;stroke-dasharray:none;stroke-opacity:1"
         id="path14565" />
    </g>
    <g
       style="display:inline;opacity:1"
       id="layer5" />
    <g
       style="display:inline;opacity:1"
       id="layer3">
      <g
         id="g15568">
        <path
           d="m 123.30585,191.07575 c 5.71539,-3.31201 14.93626,-14.58138 18.36735,-22.41843 0,0 -3.5333,-1.50062 -3.5333,-1.50062 -7.0988,12.4229 -18.11297,21.54346 -14.42924,6.16788 0,0 21.74621,-68.27494 21.74621,-68.27494 -5.67903,-0.47325 -34.45264,4.12662 -38.9436,5.05392 0,0 -0.71604,3.77813 -0.71604,3.77813 9.81674,0.33587 11.14928,4.35241 10.4394,7.64211 0,0 -16.308681,52.05206 -16.308681,52.05206 0,0 -2.046378,5.88888 -1.980878,10.27316 0.158096,10.01104 13.164889,13.86348 25.358779,7.22673 z"
           style="display:inline;opacity:1;fill:#ffffff;fill-opacity:1;stroke:none;stroke-width:0.1;stroke-miterlimit:4;stroke-dasharray:none;stroke-opacity:1"
           id="path3339" />
        <path
           d="m 151.9268,75.963402 c 0.004,7.626597 -6.17732,13.811353 -13.80392,13.811353 -7.6266,0 -13.80803,-6.184756 -13.80392,-13.811353 -0.004,-7.626597 6.17732,-13.811353 13.80392,-13.811353 7.6266,0 13.80803,6.184756 13.80392,13.811353 z"
           transform="matrix(1.006031,0,0,1.006031,-1.167682,-0.583638)"
           style="display:inline;opacity:1;fill:#ffffff;fill-opacity:1;stroke:none;stroke-width:0.1;stroke-linecap:butt;stroke-linejoin:round;stroke-miterlimit:4;stroke-dasharray:none;stroke-opacity:1"
           id="path7182" />
      </g>
    </g>
    <g
       style="display:inline;opacity:1;fill:url(#linearGradient4614);fill-opacity:1"
       id="layer7">
      <path
         d="m 128,31.59375 c -41.128659,0 -76.25164,25.807965 -90.09375,62.09375 18.826115,16.67162 58.339425,24.68447 90.125,24.9375 0.0416,-3.3e-4 -0.0101,3.3e-4 0.0312,0 32.03519,-0.25526 71.06018,-8.94906 89.65625,-25.9375 C 203.61988,56.922098 168.75455,31.593751 128,31.59375 Z"
         style="opacity:0.45;fill:url(#linearGradient14510);fill-opacity:1;fill-rule:evenodd;stroke:none;stroke-width:0.1;stroke-linecap:butt;stroke-linejoin:miter;stroke-miterlimit:4;stroke-opacity:1"
         id="path18502" />
    </g>
  </g>
</svg>
