<?xml version="1.0" encoding="UTF-8" standalone="no"?>
<!-- Created with Inkscape (http://www.inkscape.org/) -->

<svg
   xmlns:dc="http://purl.org/dc/elements/1.1/"
   xmlns:cc="http://creativecommons.org/ns#"
   xmlns:rdf="http://www.w3.org/1999/02/22-rdf-syntax-ns#"
   xmlns:svg="http://www.w3.org/2000/svg"
   xmlns="http://www.w3.org/2000/svg"
   xmlns:sodipodi="http://sodipodi.sourceforge.net/DTD/sodipodi-0.dtd"
   xmlns:inkscape="http://www.inkscape.org/namespaces/inkscape"
   width="161.95383"
   height="160.98221"
   id="svg2"
   version="1.1"
   inkscape:version="0.48.5 r10040"
   sodipodi:docname="discogs.svg">
  <defs
     id="defs4" />
  <sodipodi:namedview
     id="base"
     pagecolor="#ffffff"
     bordercolor="#666666"
     borderopacity="1.0"
     inkscape:pageopacity="0.0"
     inkscape:pageshadow="2"
     inkscape:zoom="3.959798"
     inkscape:cx="119.18401"
     inkscape:cy="76.242397"
     inkscape:document-units="px"
     inkscape:current-layer="layer1"
     showgrid="false"
     inkscape:window-width="1348"
     inkscape:window-height="971"
     inkscape:window-x="712"
     inkscape:window-y="246"
     inkscape:window-maximized="0"
     fit-margin-top="0"
     fit-margin-left="0"
     fit-margin-right="0"
     fit-margin-bottom="0" />
  <metadata
     id="metadata7">
    <rdf:RDF>
      <cc:Work
         rdf:about="">
        <dc:format>image/svg+xml</dc:format>
        <dc:type
           rdf:resource="http://purl.org/dc/dcmitype/StillImage" />
        <dc:title></dc:title>
      </cc:Work>
    </rdf:RDF>
  </metadata>
  <g
     inkscape:label="Layer 1"
     inkscape:groupmode="layer"
     id="layer1"
     transform="translate(-201.31079,-354.262)">
    <g
       id="g3177">
      <path
         style="fill:#c7c7c7"
         d="m 222.7877,512.90466 c -6.12843,-2.86754 -12.17773,-8.79549 -15.83764,-15.51994 -5.155,-9.47144 -5.62656,-14.62426 -5.6392,-61.62098 -0.006,-23.65 0.39682,-45.475 0.89597,-48.5 1.72541,-10.45656 4.92438,-17.01923 11.49336,-23.57862 9.79952,-9.7852 7.15095,-9.42138 68.58751,-9.42138 61.43656,0 58.78799,-0.36382 68.58751,9.42138 6.56898,6.55939 9.76795,13.12206 11.49336,23.57862 0.49915,3.025 0.90234,24.85 0.89597,48.5 -0.0126,46.99672 -0.4842,52.14954 -5.6392,61.62098 -3.65991,6.72445 -9.70921,12.6524 -15.83764,15.51994 l -5,2.33954 -54.5,0 -54.5,0 -5,-2.33954 z m 92.49996,-11.1409 c 1.59535,-0.82499 3.33346,-2.27339 3.86247,-3.21868 0.70171,-1.25388 2.00993,-1.64303 4.83714,-1.4389 5.56103,0.40152 9.30043,-2.71854 9.30043,-7.76003 0,-2.50278 -0.6733,-4.38177 -2.00054,-5.5829 l -2.00053,-1.81046 2.00053,-1.40123 c 2.765,-1.93667 2.52002,-5.73404 -0.52441,-8.12879 -2.14761,-1.68931 -4.11059,-1.99348 -13.13529,-2.03535 -5.83569,-0.0271 -11.4454,0.39767 -12.46602,0.94389 -1.32844,0.71096 -2.69649,0.55833 -4.81505,-0.53722 -3.70277,-1.91478 -10.06477,-1.97761 -12.59914,-0.12443 -1.65341,1.209 -2.30927,1.20603 -4.68251,-0.0212 -2.99857,-1.55063 -7.00794,-1.01635 -8.82773,1.17637 -0.95238,1.14755 -1.50791,1.11902 -3.48923,-0.1792 -1.39547,-0.91434 -3.90327,-1.41078 -6.14922,-1.21728 -3.52693,0.30386 -3.82884,0.11683 -4.30822,-2.66892 -0.58924,-3.42418 -3.79311,-4.48096 -7.52688,-2.48271 -1.64469,0.88021 -2.76336,0.90348 -4.28502,0.0891 -2.75138,-1.47249 -11.48617,-1.40665 -12.99074,0.0979 -1.67219,1.67219 -1.67219,28.92781 0,30.6 1.48837,1.48837 11.22212,1.57964 13.92966,0.13061 1.28807,-0.68936 2.41969,-0.72804 3.18426,-0.10886 1.90451,1.54234 15.86431,1.28694 18.34437,-0.33563 1.86668,-1.22126 2.32234,-1.21438 3.37245,0.0509 1.41716,1.70758 8.06998,1.96224 9.66236,0.36986 0.79079,-0.7908 1.80866,-0.62424 3.68051,0.60225 2.61754,1.71507 9.07461,1.74213 12.87639,0.054 1.42091,-0.63095 1.75,-0.28078 1.75,1.86213 0,4.30744 7.28446,6.03038 12.99996,3.07478 z m -9.89568,-1.41441 c -2.04692,-1.2961 -0.56716,-4.3673 1.74992,-3.63189 2.13344,0.67713 5.1458,-0.23651 5.1458,-1.56071 0,-0.49115 -1.2949,-0.89301 -2.87756,-0.89301 -1.58265,0 -3.45019,-0.68999 -4.15009,-1.53331 -1.12976,-1.36128 -1.52515,-1.29599 -3.52415,0.58197 -3.22912,3.0336 -9.0989,3.52036 -13.67503,1.13402 -3.13692,-1.63583 -3.90816,-1.72496 -4.87244,-0.56307 -1.84301,2.2207 -6.52215,1.67713 -8.62997,-1.00252 l -1.8744,-2.38291 -2.12251,2.38291 c -2.4654,2.76786 -7.35296,3.19745 -9.32629,0.81972 -1.17649,-1.41758 -1.37882,-1.41758 -2.17214,0 -0.48114,0.85976 -1.97744,1.56319 -3.32511,1.56319 -2.30299,0 -2.45722,-0.34572 -2.56531,-5.75 -0.11055,-5.5278 -0.1443,-5.59782 -0.87315,-1.81192 -1.05454,5.47757 -3.98254,7.56192 -10.62263,7.56192 l -5.38922,0 0,-14.62019 0,-14.62019 6.14873,0.44476 c 7.02655,0.50825 9.85127,2.8231 9.85127,8.07307 0,1.68074 0.28415,2.77173 0.63144,2.42444 0.34729,-0.34729 0.57974,-2.92646 0.51654,-5.73149 -0.11242,-4.98966 -0.0557,-5.09324 2.61856,-4.78523 2.14235,0.24675 2.80189,0.90952 3.04988,3.06483 0.17638,1.53291 -0.173,2.75 -0.78942,2.75 -0.72079,0 -0.65687,0.48976 0.18357,1.40653 1.10808,1.20872 1.51147,1.20872 2.86817,0 2.70224,-2.40748 7.49784,-1.75047 9.80617,1.34347 1.13269,1.51819 2.06592,2.12748 2.08341,1.36024 0.0857,-3.76073 9.03399,-5.71543 10.9,-2.38105 0.90472,1.61663 1.11005,1.60036 3.15468,-0.25 3.13683,-2.8388 11.15288,-2.74775 14.06033,0.1597 2.09695,2.09695 2.17593,2.10185 4.02778,0.25 2.57651,-2.57651 12.88889,-2.76365 12.88889,-0.2339 0,1.53998 0.12708,1.53998 1.82874,0 2.49637,-2.25919 7.45788,-2.10074 9.63755,0.30776 3.30125,3.64785 -0.01,6.32104 -3.86541,3.12097 -3.08726,-2.56219 -1.73935,1.02061 1.89912,5.04796 3.95185,4.37423 4.57897,8.58189 1.67126,11.21333 -2.0055,1.81496 -7.68903,2.24426 -8.67126,0.65499 -1.03021,-1.66691 -2.5,-1.12166 -2.5,0.92742 0,4.25478 -8.77761,7.76576 -12.89572,5.15819 z m -59.5113,-11.60004 c 0.96629,-3.85001 -0.002,-16.29458 -1.37463,-17.66722 -0.9578,-0.9578 -1.21835,1.06991 -1.21835,9.48165 0,10.24426 1.15844,13.90124 2.59298,8.18557 z m 16.99925,-3.51516 -3.59223,-3.97617 0,3.50288 c 0,2.76007 0.39815,3.50288 1.87756,3.50288 1.03265,0 2.4787,0.72434 3.21344,1.60965 0.8654,1.04274 1.4693,1.20943 1.71468,0.4733 0.20834,-0.625 -1.23772,-2.92564 -3.21345,-5.11254 z m 19.00946,-1.72041 c 0.0794,-2.3375 -0.24849,-4.25 -0.72866,-4.25 -0.48016,0 -0.87303,-0.675 -0.87303,-1.5 0,-0.825 -0.45,-1.5 -1,-1.5 -1.12278,0 -1.40479,13.26188 -0.30539,14.36128 1.18523,1.18522 2.75575,-2.65658 2.90708,-7.11128 z m 39.99055,1.72041 -3.59224,-3.97617 0,3.50288 c 0,3.02798 0.32443,3.50288 2.39301,3.50288 1.33681,0 2.71231,0.7724 3.11643,1.75 0.50527,1.22229 0.86689,1.36501 1.19922,0.47329 0.2617,-0.70218 -1.1407,-3.06598 -3.11642,-5.25288 z m -9.79655,-1.47947 c -0.39381,-8.66894 -2.21477,-8.83825 -2.59138,-0.24094 -0.2466,5.62947 -0.0315,6.75 1.29569,6.75 1.32247,0 1.54141,-1.09991 1.29569,-6.50906 z m -40.60545,-1.99474 c 0.34259,-2.93455 0.13379,-3.41643 -1.28523,-2.96605 -0.93184,0.29575 -2.38799,-0.15599 -3.23588,-1.00388 -3.02778,-3.02777 -2.66571,0.40804 0.41245,3.91386 1.71908,1.95793 3.25475,3.55987 3.41261,3.55987 0.15785,0 0.47107,-1.57671 0.69605,-3.5038 z m 19.06703,-25.96286 c 21.78583,-4.61662 37.31557,-22.46381 38.53316,-44.28334 1.09378,-19.60075 -10.84937,-38.35553 -29.54855,-46.40123 -7.05743,-3.03659 -8.62597,-3.33109 -17.74188,-3.33109 -9.0736,0 -10.70146,0.30203 -17.57189,3.26033 -23.17159,9.9773 -35.42076,36.03903 -27.49449,58.49813 6.09605,17.27317 18.56163,28.45257 35.94091,32.23257 7.97314,1.73416 9.80359,1.73668 17.88274,0.0246 z m -18.99272,-3.07493 c -17.54731,-4.72571 -30.00035,-18.41509 -33.36128,-36.67342 -5.19087,-28.19948 21.61638,-55.64005 49.7944,-50.9708 19.26563,3.19241 33.89884,17.75308 37.37179,37.18652 3.28322,18.37174 -7.42813,39.12469 -24.25875,47.00069 -10.58509,4.95336 -19.93003,6.04675 -29.54616,3.45701 z m 12.555,-43.69819 c -0.17575,-1.23189 -1.11296,-2.39102 -2.08267,-2.57585 -1.54893,-0.29525 -1.62055,-0.0231 -0.58949,2.23978 1.44405,3.16933 3.10621,3.37837 2.67216,0.33607 z"
         id="path3146"
         inkscape:connector-curvature="0" />
      <path
         style="fill:#bbbbbb"
         d="m 226.16998,513.90026 c -8.37561,-3.03261 -14.89356,-8.82633 -19.02866,-16.91432 -4.57998,-8.95817 -4.83594,-11.89504 -4.72575,-54.2222 0.0573,-22 0.30993,-39.2125 0.56146,-38.25 0.25152,0.9625 0.844,1.75 1.31661,1.75 1.17404,0 2.03177,-3.00517 2.48675,-8.71263 0.20989,-2.63306 0.62731,-5.91237 0.9276,-7.28737 0.30029,-1.375 0.81696,-3.74951 1.14816,-5.2767 0.99496,-4.58779 5.56474,-11.88457 10.26125,-16.38461 6.82745,-6.54185 10.4191,-7.34569 32.59844,-7.29574 l 19.07186,0.043 -7.5,3.19484 c -9.45457,4.02745 -20.2719,14.21399 -24.34949,22.92959 -7.16882,15.32295 -7.21221,26.64458 -0.16857,43.98142 0.57886,1.42477 -0.0756,1.75141 -4.1473,2.06975 l -4.83464,0.378 5.30902,0.18025 c 3.24497,0.11017 5.06873,0.56903 4.69098,1.18025 -0.33992,0.55 0.0457,1 0.85695,1 0.81125,0 2.88062,1.77475 4.59861,3.9439 4.42863,5.59159 11.99444,10.85149 20.35243,14.14941 17.58765,6.93979 40.31401,0.96753 52.38785,-13.767 2.14212,-2.61417 4.38785,-4.33237 5.67462,-4.34162 1.74145,-0.0125 1.85618,-0.19197 0.62954,-0.98469 -1.07308,-0.69348 0.20767,-1.02638 4.5,-1.16967 l 6,-0.20029 -5.33579,-0.37026 c -4.54637,-0.31547 -5.23394,-0.62099 -4.64731,-2.06501 4.25154,-10.46555 4.82173,-13.094 4.81467,-22.19477 -0.006,-7.85287 -0.46183,-10.67212 -2.62855,-16.26036 -5.16487,-13.32081 -14.66918,-23.42028 -26.9076,-28.59255 l -7.29542,-3.08323 19.57186,-0.0319 c 22.72592,-0.0371 26.24471,0.73973 33.09844,7.30676 4.69651,4.50004 9.26629,11.79682 10.26125,16.38461 0.3312,1.52719 0.86255,3.9017 1.18078,5.2767 0.48165,2.08108 0.99749,6.48056 1.34839,11.5 0.0384,0.55 0.51301,1.675 1.05459,2.5 0.87528,1.33333 1.0941,1.33333 1.96938,0 1.66748,-2.54011 1.30505,77.32268 -0.37962,83.64981 -2.93877,11.03723 -9.47774,19.57399 -18.81001,24.55688 l -4.29506,2.29331 -54,0.2232 c -42.4597,0.17551 -54.77314,-0.0567 -57.61772,-1.08668 z m 90.0462,-12.09953 c 1.55604,-0.80466 3.09457,-2.15466 3.41895,-3 0.40155,-1.04642 1.93574,-1.53699 4.80673,-1.53699 5.56492,0 8.84584,-2.94933 8.84584,-7.95181 0,-1.98175 -0.66853,-4.55764 -1.48563,-5.72421 -1.31417,-1.87624 -1.31417,-2.18683 0,-2.69112 2.13934,-0.82094 1.84945,-6.26904 -0.45625,-8.57474 -1.70142,-1.70142 -3.42899,-1.94714 -13.95068,-1.98432 -6.60484,-0.0233 -12.26456,0.37141 -12.57717,0.87722 -0.31624,0.51168 -2.5781,0.0307 -5.09866,-1.0843 -4.60107,-2.03527 -9.38802,-1.88012 -12.21122,0.39577 -0.885,0.71344 -2.05597,0.67782 -3.79706,-0.11547 -3.34899,-1.5259 -5.34091,-1.43842 -8.84406,0.38841 -2.00253,1.04429 -3.2443,1.19954 -3.95,0.49384 -0.5661,-0.5661 -2.90802,-1.02927 -5.20427,-1.02927 -3.83889,0 -4.2233,-0.24152 -4.775,-3 -0.54564,-2.72819 -0.95934,-3 -4.56598,-3 -2.18129,0 -4.22749,0.42312 -4.54711,0.94027 -0.36025,0.58291 -1.66775,0.56148 -3.44013,-0.0564 -1.57246,-0.54816 -5.27501,-0.85878 -8.2279,-0.69027 l -5.36888,0.3064 0,16 0,16 6.84001,0.29774 c 3.94319,0.17165 7.39945,-0.16655 8.16097,-0.79856 0.8629,-0.71614 1.53497,-0.75003 1.93811,-0.0977 0.81167,1.31331 17.6192,1.29507 19.20477,-0.0208 0.83695,-0.69461 1.86494,-0.67868 3.22648,0.05 2.51102,1.34385 8.80943,1.39655 9.62279,0.0805 0.38104,-0.61654 1.43873,-0.45613 2.80902,0.42602 3.77842,2.43243 9.12411,2.91091 12.57637,1.12568 l 3.12148,-1.61424 0,2.85901 c 0,1.57246 0.3,3.15902 0.66667,3.52568 1.23193,1.23193 10.4047,0.68112 13.26181,-0.79634 z m -9.73693,-1.21599 c -3.74894,-0.77209 -2.36686,-3.821 1.73207,-3.821 1.86475,0 3.58228,-0.5625 3.81675,-1.25 0.27779,-0.81454 -0.60519,-1.25 -2.53459,-1.25 -1.62849,0 -3.49404,-0.6424 -4.14566,-1.42757 -1.00868,-1.21538 -1.73288,-1.05358 -4.87245,1.08862 -4.19353,2.86134 -9.93244,2.7849 -13.20407,-0.17589 -1.71245,-1.54975 -2.04363,-1.55652 -4.14489,-0.0847 -3.20511,2.24494 -5.5329,1.9963 -8.42962,-0.90042 -3.00575,-3.00575 -3.04216,-3.01113 -3.68693,-0.54554 -1.11942,4.28068 -10.67347,3.25245 -11.53899,-1.24186 -0.46439,-2.41137 2.8036,-3.45118 4.32168,-1.37508 0.6686,0.91432 1.50353,1.66244 1.85539,1.66244 1.56073,0 0.36657,-2.55998 -2.86024,-6.13168 -2.03131,-2.24842 -3.5,-4.92194 -3.5,-6.3712 0,-3.20674 3.29184,-6.49712 6.5,-6.49712 2.75332,0 6.92027,3.51098 5.97746,5.03647 -0.80693,1.30564 -4.1995,1.22229 -5.03131,-0.1236 -0.46898,-0.75883 -0.98877,-0.77025 -1.72122,-0.0378 -0.73244,0.73244 0.20761,2.41296 3.11287,5.56479 l 4.1622,4.51545 0,-4.84279 c 0,-6.06892 2.79949,-10.11252 7.00115,-10.11252 1.5708,0 3.53338,0.67738 4.36129,1.50529 1.34039,1.3404 1.89772,1.27376 5.08752,-0.60827 4.14691,-2.44673 8.82016,-2.04558 12.81969,1.10044 2.41656,1.90088 2.51096,1.90244 4.17004,0.0692 2.42758,-2.68244 11.5665,-2.75897 12.26114,-0.10267 0.46808,1.78995 0.54711,1.78809 2.39162,-0.0564 1.04915,-1.04919 3.03255,-1.90759 4.40755,-1.90759 2.48496,0 6.5,3.08849 6.5,5 0,1.34372 -4.32251,1.27749 -5.68713,-0.0871 -0.76349,-0.76349 -1.28257,-0.77092 -1.7436,-0.025 -0.36105,0.58419 1.16316,3.03623 3.38713,5.44896 4.49201,4.87325 5.02941,7.67731 2.0436,10.66312 -2.3975,2.3975 -5.74603,2.56662 -8.77749,0.4433 -2.06858,-1.44887 -2.22251,-1.42191 -2.22251,0.38923 0,4.58882 -5.73397,7.73951 -11.80845,6.48849 z M 282.2877,483.83517 c 0,-2.51429 -0.45,-4.57143 -1,-4.57143 -0.55,0 -1,-0.675 -1,-1.5 0,-0.825 -0.45,-1.5 -1,-1.5 -1.07514,0 -1.42817,13.2385 -0.38095,14.28571 1.42755,1.42756 3.38095,-2.45173 3.38095,-6.71428 z m 30,-0.71378 c 0,-5.1727 -0.3295,-6.91562 -1.25,-6.61198 -1.30363,0.43003 -2.31732,10.83354 -1.31109,13.45574 1.24405,3.24193 2.56109,-0.27749 2.56109,-6.84376 z m 10.83968,3.27962 c -1.83377,-2.0005 -3.67288,-4.06477 -4.08691,-4.58727 -0.41402,-0.5225 -0.75277,0.715 -0.75277,2.75 0,2.9529 0.37911,3.7 1.87756,3.7 1.03265,0 2.43364,0.67005 3.1133,1.48899 0.67967,0.81894 1.67387,1.21822 2.20935,0.88727 0.53548,-0.33094 -0.52676,-2.23849 -2.36053,-4.23899 z m -23.87031,-11.63727 c 0,-0.55 -0.43621,-0.325 -0.96937,0.5 -0.53316,0.825 -0.96937,1.95 -0.96937,2.5 0,0.55 0.43621,0.325 0.96937,-0.5 0.53316,-0.825 0.96937,-1.95 0.96937,-2.5 z m -62.74683,6.25 0.27746,-14.25 2.67378,-0.30907 c 4.72261,-0.54589 10.39657,1.57068 11.66327,4.35079 1.4788,3.24559 1.5143,16.59304 0.0527,19.80096 -1.42877,3.13582 -4.84733,4.65732 -10.46423,4.65732 l -4.4804,0 0.27745,-14.25 z m 9.56775,1.49848 c 0.2776,-7.86967 -0.7325,-12.24848 -2.82547,-12.24848 -0.55893,0 -0.96482,4.44816 -0.96482,10.57332 0,9.53055 0.17259,10.54035 1.75,10.23894 1.46846,-0.28058 1.7967,-1.6583 2.04029,-8.56378 z m 7.91856,12.12704 c -0.38987,-0.38987 -0.70885,-5.38874 -0.70885,-11.10861 l 0,-10.39975 2.65798,0.31642 2.65799,0.31642 0.092,10.5 c 0.0863,9.84373 -0.0356,10.51826 -1.94914,10.79218 -1.12263,0.1607 -2.36013,-0.0268 -2.75,-0.41666 z m -0.70885,-24.64243 c 0,-3.11606 0.52059,-3.54739 3.57645,-2.96323 3.62722,0.69339 2.98616,4.60787 -0.82645,5.04656 -2.32394,0.2674 -2.75,-0.0554 -2.75,-2.08333 z m 21.12143,-16.84077 c -13.50426,-2.292 -25.30381,-11.4123 -31.81834,-24.59357 -3.74352,-7.57449 -3.80309,-7.87678 -3.80309,-19.29875 0,-11.36926 0.0749,-11.75529 3.70702,-19.10437 3.63335,-7.3516 10.04297,-14.78468 16.3148,-18.9199 12.23878,-8.06941 33.71758,-8.06941 45.95636,0 6.27183,4.13522 12.68144,11.5683 16.3148,18.9199 3.62922,7.34323 3.70702,7.74307 3.70702,19.05251 0,10.46781 -0.254,12.09391 -2.70666,17.32803 -1.48866,3.17689 -4.09799,7.71357 -5.79852,10.08152 -8.67645,12.08173 -26.5427,19.13661 -41.87339,16.53463 z m 9.87857,-43.98272 c 0,-2.11155 -2.23636,-3.49959 -3.941,-2.44607 -0.67397,0.41654 -0.47749,1.49434 0.5615,3.08003 1.7715,2.70365 3.3795,2.402 3.3795,-0.63396 z"
         id="path3144"
         inkscape:connector-curvature="0" />
      <path
         style="fill:#e6d83c"
         d="m 225.60675,513.40814 c -6.75448,-2.33406 -13.03273,-7.5993 -17.02671,-14.27943 -5.65763,-9.46268 -6.29234,-14.05983 -6.29234,-45.57507 0,-15.55944 0.34602,-28.2899 0.76894,-28.2899 0.42291,0 3.9249,1.326 7.78218,2.94666 6.867,2.8852 25.04453,8.05334 28.32546,8.05334 0.9117,0 5.03702,3.30357 9.16738,7.34126 6.38475,6.2415 8.70418,7.79691 15.4829,10.38287 10.45134,3.98698 17.2993,4.75679 26.04735,2.92807 10.9772,-2.2947 17.62001,-5.76552 25.16473,-13.14837 6.30153,-6.16635 7.23683,-6.71658 13.76106,-8.09547 9.60418,-2.02984 19.8602,-5.15063 26.3303,-8.01202 2.98021,-1.31799 5.81257,-2.39634 6.29413,-2.39634 0.48156,0 0.87557,12.73046 0.87557,28.2899 0,31.50933 -0.63176,36.08771 -6.29234,45.60089 -1.76421,2.96493 -5.37456,7.11873 -8.02299,9.23066 -8.58932,6.84935 -8.90926,6.88247 -66.11617,6.8459 -46.42658,-0.0297 -51.53943,-0.19537 -56.24945,-1.82295 z m 113.07026,-1.18887 c 9.30648,-3.482 17.1816,-13.04868 20.16259,-24.49349 1.95594,-7.50935 1.28341,-9.48174 -0.94626,-2.77518 -2.4524,7.3765 -8.82313,16.76692 -13.45445,19.83179 -8.0914,5.35463 -9.52761,5.48225 -61.56012,5.47034 -26.45009,-0.006 -49.78672,-0.29125 -51.85919,-0.63378 -11.09681,-1.83403 -20.70263,-12.53151 -25.36563,-28.24834 -0.22733,-0.76622 -0.67845,-1.12801 -1.00248,-0.80398 -0.92813,0.92814 1.68092,10.74148 4.17336,15.69711 3.30933,6.57982 10.65855,13.54993 16.76027,15.89569 4.95178,1.90367 7.67161,2.00261 56.41509,2.0522 49.20418,0.0501 51.42677,-0.0281 56.67682,-1.99236 z m -22.46083,-10.41854 c 1.55604,-0.80466 3.09457,-2.15466 3.41895,-3 0.40155,-1.04642 1.93574,-1.53699 4.80673,-1.53699 5.83448,0 8.84584,-2.91128 8.84584,-8.55187 0,-2.59178 -0.5993,-4.70062 -1.56319,-5.50057 -1.41758,-1.17649 -1.41758,-1.37882 0,-2.17214 2.06959,-1.1582 2.01355,-6.6203 -0.0918,-8.94668 -1.43225,-1.58262 -3.3085,-1.82874 -13.94098,-1.82874 -7.01991,0 -12.54796,0.42386 -12.89716,0.98888 -0.38104,0.61654 -1.43873,0.45613 -2.80902,-0.42602 -3.74035,-2.40792 -9.01926,-2.87323 -13.12666,-1.15705 -2.65931,1.11113 -4.28912,1.28033 -5.59591,0.58096 -2.71507,-1.45306 -6.22077,-1.20355 -8.83704,0.62896 -1.69737,1.18888 -2.60154,1.32097 -3.42251,0.5 -0.61365,-0.61365 -3.02084,-1.11573 -5.34931,-1.11573 -3.87507,0 -4.26037,-0.23287 -4.55,-2.75 -0.27693,-2.40683 -0.80083,-2.78971 -4.1982,-3.06822 -2.13498,-0.17502 -4.34142,0.14141 -4.90319,0.70319 -0.68543,0.68543 -1.63627,0.69237 -2.89056,0.0211 -1.02803,-0.55019 -4.67159,-0.86662 -8.09681,-0.7032 l -6.22766,0.29713 0,16 0,16 17.41991,0.23143 c 11.56263,0.15362 17.86714,-0.13974 18.75,-0.87244 0.97652,-0.81044 1.7199,-0.78036 2.79652,0.11315 0.8545,0.70917 3.67123,1.1026 6.75,0.94282 2.90596,-0.15081 7.30857,0.30528 9.78357,1.01353 3.39945,0.9728 5.25106,1.01673 7.571,0.17962 4.27815,-1.54369 4.429,-1.47926 4.429,1.89189 0,2.97295 0.05,3 5.54966,3 3.05231,0 6.82278,-0.65836 8.37882,-1.46301 z m -8.92848,-1.43175 c -3.8223,-1.06322 -3.18275,-3.60524 0.90703,-3.60524 1.87387,0 3.59887,-0.5625 3.83334,-1.25 0.27779,-0.81454 -0.60519,-1.25 -2.53459,-1.25 -1.62849,0 -3.50707,-0.6581 -4.17462,-1.46245 -1.0504,-1.26566 -1.61641,-1.16473 -4.20622,0.75 -4.09683,3.02892 -10.94797,3.03386 -13.97175,0.0101 -1.99233,-1.99233 -2.31527,-2.04796 -3.38623,-0.58333 -1.54682,2.1154 -7.09639,2.08484 -9.23207,-0.0508 -1.1396,-1.1396 -1.79428,-3.87147 -2.06163,-8.60288 -0.36005,-6.37202 -0.1843,-7.14045 2.17204,-9.49679 2.87524,-2.87524 6.19015,-3.29418 8.6256,-1.09012 1.44157,1.3046 2.10625,1.23724 5.79368,-0.58716 4.69065,-2.32075 8.5988,-1.96172 12.55955,1.15381 2.3545,1.85205 2.4622,1.85327 4.09753,0.0463 2.3677,-2.61629 11.61454,-2.66415 12.29459,-0.0636 0.44437,1.69928 0.56752,1.6933 2.3762,-0.11538 1.04915,-1.0493 3.03255,-1.9077 4.40755,-1.9077 2.48496,0 6.5,3.08849 6.5,5 0,1.34372 -4.32251,1.27749 -5.68713,-0.0871 -0.72155,-0.72155 -1.29743,-0.74686 -1.7125,-0.0753 -0.34396,0.55653 1.18025,3.09811 3.38713,5.64796 2.20687,2.54984 4.0125,5.31329 4.0125,6.141 0,4.9035 -6.11005,7.8418 -10.42605,5.01385 -2.2598,-1.48067 -2.36645,-1.42792 -2.94321,1.4559 -0.44171,2.20853 -1.51098,3.37353 -4.08248,4.44797 -1.91621,0.80065 -3.61098,1.41086 -3.76614,1.35604 -0.15517,-0.0548 -1.40712,-0.41261 -2.78212,-0.79508 z m -16,-10.22768 c 0,-0.48266 -0.47656,-0.87756 -1.05902,-0.87756 -0.58246,0 -0.7809,0.45 -0.44098,1 0.33992,0.55 0.14148,1 -0.44098,1 -0.58246,0 -1.05902,0.5051 -1.05902,1.12244 0,0.77551 0.46364,0.73766 1.5,-0.12244 0.825,-0.68469 1.5,-1.63979 1.5,-2.12244 z m -9.66667,-0.87694 c 0.77961,4.2e-4 1.05171,-1.65843 0.82016,-5 -0.19059,-2.75034 -0.75309,-5.00062 -1.25,-5.00062 -0.49692,0 -0.90349,-0.675 -0.90349,-1.5 0,-0.825 -0.45,-1.5 -1,-1.5 -1.14442,0 -1.39412,13.27255 -0.27083,14.39583 0.40104,0.40104 0.88854,0.25104 1.08333,-0.33333 0.19479,-0.58438 0.87917,-1.06222 1.52083,-1.06188 z m 30.66667,-6.14297 c 0,-5.1727 -0.3295,-6.91562 -1.25,-6.61198 -1.30363,0.43003 -2.31732,10.83354 -1.31109,13.45574 1.24405,3.24193 2.56109,-0.27749 2.56109,-6.84376 z m 12.79856,5.39527 c -0.71421,-0.86297 -2.53606,-2.89549 -4.04856,-4.51673 l -2.75,-2.9477 0,3.42529 c 0,2.89345 0.50462,3.65562 3.25,4.90877 3.80786,1.73812 5.38659,1.35123 3.54856,-0.86963 z m -25.82919,-13.75292 c 0,-0.55 -0.43621,-0.325 -0.96937,0.5 -0.53316,0.825 -0.96937,1.95 -0.96937,2.5 0,0.55 0.43621,0.325 0.96937,-0.5 0.53316,-0.825 0.96937,-1.95 0.96937,-2.5 z m -62.74683,6.25 0.27746,-14.25 5.469,0.15394 c 4.57244,0.12871 5.84293,0.58867 7.75,2.80577 1.95825,2.27659 2.281,3.76924 2.281,10.549 0,12.08977 -2.24021,14.99129 -11.57451,14.99129 l -4.4804,0 0.27745,-14.25 z m 9.56783,0.88986 c 0.27648,-8.41452 -0.53065,-11.63986 -2.91281,-11.63986 -0.48266,0 -0.87756,4.758 -0.87756,10.57332 0,9.53063 0.17258,10.54033 1.75,10.23875 1.48216,-0.28337 1.79444,-1.68716 2.04037,-9.17221 z m 7.91087,12.72804 c -0.38568,-0.38568 -0.70124,-5.35123 -0.70124,-11.03457 l 0,-10.33333 2.53383,0 2.53383,0 -0.28383,10.73814 c -0.2313,8.75069 -0.57048,10.79301 -1.83259,11.03457 -0.85182,0.16304 -1.86432,-0.0191 -2.25,-0.40481 z m 7.24278,-1.21214 c -2.7727,-2.2452 -2.09817,-5.27034 0.99481,-4.46151 1.13364,0.29646 2.06117,0.93653 2.06117,1.42238 0,0.48585 0.45,0.88337 1,0.88337 1.92332,0 0.97524,-2.64954 -1.95141,-5.45345 -7.05967,-6.76359 -3.28158,-15.86683 5.24044,-12.62676 3.24887,1.23522 3.83164,5.08021 0.76999,5.08021 -1.06754,0 -2.2191,-0.45 -2.55902,-1 -0.33992,-0.55 -1.04148,-1 -1.55902,-1 -1.97347,0 -0.80514,2.73933 2.55902,6 2.54077,2.46261 3.5,4.25532 3.5,6.54118 0,5.76198 -5.51412,8.29235 -10.05598,4.61458 z m -7.94402,-23.65576 c 0,-2.28224 0.36621,-2.59071 2.75,-2.31642 1.97786,0.22758 2.75,0.87798 2.75,2.31642 0,1.43844 -0.77214,2.08884 -2.75,2.31642 -2.38379,0.27429 -2.75,-0.0342 -2.75,-2.31642 z m 14.28693,-18.49962 c -9.5104,-3.38138 -19.86345,-12.26058 -24.0788,-20.65097 -4.23903,-8.43751 -5.45501,-14.16074 -5.03603,-23.70293 0.33673,-7.66899 0.9128,-10.23823 3.5662,-15.90501 4.37404,-9.34148 11.78198,-16.9009 21.05184,-21.48231 6.58008,-3.25205 8.49464,-3.72218 16.57464,-4.06991 7.45561,-0.32087 10.31507,0.006 15.5523,1.77571 11.72689,3.96349 20.9326,12.27611 26.4184,23.85543 2.98202,6.29439 3.16452,7.34282 3.16452,18.17961 0,10.83679 -0.1825,11.88522 -3.16452,18.17961 -5.43792,11.47825 -14.70865,19.90359 -26.13686,23.75348 -7.94265,2.67568 -20.4903,2.70594 -27.91169,0.0673 z m 16.21307,-42.00038 c 0,-2.85063 -3.15628,-4.05931 -4.11001,-1.57391 -0.9098,2.37089 0.3775,4.76534 2.35699,4.38412 1.10702,-0.21319 1.75302,-1.24877 1.75302,-2.81021 z"
         id="path3142"
         inkscape:connector-curvature="0" />
      <path
         style="fill:#a6a6a6"
         d="m 225.60675,513.40814 c -6.75448,-2.33406 -13.03273,-7.5993 -17.02671,-14.27943 -5.65763,-9.46268 -6.29234,-14.05983 -6.29234,-45.57507 0,-15.55944 0.34602,-28.2899 0.76894,-28.2899 0.42291,0 3.9249,1.326 7.78218,2.94666 6.867,2.8852 25.04453,8.05334 28.32546,8.05334 0.9117,0 5.03702,3.30357 9.16738,7.34126 6.38475,6.2415 8.70418,7.79691 15.4829,10.38287 10.45134,3.98698 17.2993,4.75679 26.04735,2.92807 10.9772,-2.2947 17.62001,-5.76552 25.16473,-13.14837 6.30153,-6.16635 7.23683,-6.71658 13.76106,-8.09547 9.60418,-2.02984 19.8602,-5.15063 26.3303,-8.01202 2.98021,-1.31799 5.81257,-2.39634 6.29413,-2.39634 0.48156,0 0.87557,12.73046 0.87557,28.2899 0,31.50933 -0.63176,36.08771 -6.29234,45.60089 -1.76421,2.96493 -5.37456,7.11873 -8.02299,9.23066 -8.58932,6.84935 -8.90926,6.88247 -66.11617,6.8459 -46.42658,-0.0297 -51.53943,-0.19537 -56.24945,-1.82295 z m 113.07026,-1.18887 c 9.30648,-3.482 17.1816,-13.04868 20.16259,-24.49349 1.95594,-7.50935 1.28341,-9.48174 -0.94626,-2.77518 -2.4524,7.3765 -8.82313,16.76692 -13.45445,19.83179 -8.0914,5.35463 -9.52761,5.48225 -61.56012,5.47034 -26.45009,-0.006 -49.78672,-0.29125 -51.85919,-0.63378 -11.09681,-1.83403 -20.70263,-12.53151 -25.36563,-28.24834 -0.22733,-0.76622 -0.67845,-1.12801 -1.00248,-0.80398 -0.92813,0.92814 1.68092,10.74148 4.17336,15.69711 3.30933,6.57982 10.65855,13.54993 16.76027,15.89569 4.95178,1.90367 7.67161,2.00261 56.41509,2.0522 49.20418,0.0501 51.42677,-0.0281 56.67682,-1.99236 z m -22.46083,-10.41854 c 1.55604,-0.80466 3.09457,-2.15466 3.41895,-3 0.40155,-1.04642 1.93574,-1.53699 4.80673,-1.53699 5.83448,0 8.84584,-2.91128 8.84584,-8.55187 0,-2.59178 -0.5993,-4.70062 -1.56319,-5.50057 -1.41758,-1.17649 -1.41758,-1.37882 0,-2.17214 2.06959,-1.1582 2.01355,-6.6203 -0.0918,-8.94668 -1.43225,-1.58262 -3.3085,-1.82874 -13.94098,-1.82874 -7.01991,0 -12.54796,0.42386 -12.89716,0.98888 -0.38104,0.61654 -1.43873,0.45613 -2.80902,-0.42602 -3.74035,-2.40792 -9.01926,-2.87323 -13.12666,-1.15705 -2.65931,1.11113 -4.28912,1.28033 -5.59591,0.58096 -2.71507,-1.45306 -6.22077,-1.20355 -8.83704,0.62896 -1.69737,1.18888 -2.60154,1.32097 -3.42251,0.5 -0.61365,-0.61365 -3.02084,-1.11573 -5.34931,-1.11573 -3.87507,0 -4.26037,-0.23287 -4.55,-2.75 -0.27693,-2.40683 -0.80083,-2.78971 -4.1982,-3.06822 -2.13498,-0.17502 -4.34142,0.14141 -4.90319,0.70319 -0.68543,0.68543 -1.63627,0.69237 -2.89056,0.0211 -1.02803,-0.55019 -4.67159,-0.86662 -8.09681,-0.7032 l -6.22766,0.29713 0,16 0,16 17.41991,0.23143 c 11.56263,0.15362 17.86714,-0.13974 18.75,-0.87244 0.97652,-0.81044 1.7199,-0.78036 2.79652,0.11315 0.8545,0.70917 3.67123,1.1026 6.75,0.94282 2.90596,-0.15081 7.30857,0.30528 9.78357,1.01353 3.39945,0.9728 5.25106,1.01673 7.571,0.17962 4.27815,-1.54369 4.429,-1.47926 4.429,1.89189 0,2.97295 0.05,3 5.54966,3 3.05231,0 6.82278,-0.65836 8.37882,-1.46301 z m -8.92848,-1.43175 c -3.8223,-1.06322 -3.18275,-3.60524 0.90703,-3.60524 1.87387,0 3.59887,-0.5625 3.83334,-1.25 0.27779,-0.81454 -0.60519,-1.25 -2.53459,-1.25 -1.62849,0 -3.50707,-0.6581 -4.17462,-1.46245 -1.0504,-1.26566 -1.61641,-1.16473 -4.20622,0.75 -4.09683,3.02892 -10.94797,3.03386 -13.97175,0.0101 -1.99233,-1.99233 -2.31527,-2.04796 -3.38623,-0.58333 -1.54682,2.1154 -7.09639,2.08484 -9.23207,-0.0508 -1.1396,-1.1396 -1.79428,-3.87147 -2.06163,-8.60288 -0.36005,-6.37202 -0.1843,-7.14045 2.17204,-9.49679 2.87524,-2.87524 6.19015,-3.29418 8.6256,-1.09012 1.44157,1.3046 2.10625,1.23724 5.79368,-0.58716 4.69065,-2.32075 8.5988,-1.96172 12.55955,1.15381 2.3545,1.85205 2.4622,1.85327 4.09753,0.0463 2.3677,-2.61629 11.61454,-2.66415 12.29459,-0.0636 0.44437,1.69928 0.56752,1.6933 2.3762,-0.11538 1.04915,-1.0493 3.03255,-1.9077 4.40755,-1.9077 2.48496,0 6.5,3.08849 6.5,5 0,1.34372 -4.32251,1.27749 -5.68713,-0.0871 -0.72155,-0.72155 -1.29743,-0.74686 -1.7125,-0.0753 -0.34396,0.55653 1.18025,3.09811 3.38713,5.64796 2.20687,2.54984 4.0125,5.31329 4.0125,6.141 0,4.9035 -6.11005,7.8418 -10.42605,5.01385 -2.2598,-1.48067 -2.36645,-1.42792 -2.94321,1.4559 -0.44171,2.20853 -1.51098,3.37353 -4.08248,4.44797 -1.91621,0.80065 -3.61098,1.41086 -3.76614,1.35604 -0.15517,-0.0548 -1.40712,-0.41261 -2.78212,-0.79508 z m -16,-10.22768 c 0,-0.48266 -0.47656,-0.87756 -1.05902,-0.87756 -0.58246,0 -0.7809,0.45 -0.44098,1 0.33992,0.55 0.14148,1 -0.44098,1 -0.58246,0 -1.05902,0.5051 -1.05902,1.12244 0,0.77551 0.46364,0.73766 1.5,-0.12244 0.825,-0.68469 1.5,-1.63979 1.5,-2.12244 z m -9.66667,-0.87694 c 0.77961,4.2e-4 1.05171,-1.65843 0.82016,-5 -0.19059,-2.75034 -0.75309,-5.00062 -1.25,-5.00062 -0.49692,0 -0.90349,-0.675 -0.90349,-1.5 0,-0.825 -0.45,-1.5 -1,-1.5 -1.14442,0 -1.39412,13.27255 -0.27083,14.39583 0.40104,0.40104 0.88854,0.25104 1.08333,-0.33333 0.19479,-0.58438 0.87917,-1.06222 1.52083,-1.06188 z m 30.66667,-6.14297 c 0,-5.1727 -0.3295,-6.91562 -1.25,-6.61198 -1.30363,0.43003 -2.31732,10.83354 -1.31109,13.45574 1.24405,3.24193 2.56109,-0.27749 2.56109,-6.84376 z m 12.79856,5.39527 c -0.71421,-0.86297 -2.53606,-2.89549 -4.04856,-4.51673 l -2.75,-2.9477 0,3.42529 c 0,2.89345 0.50462,3.65562 3.25,4.90877 3.80786,1.73812 5.38659,1.35123 3.54856,-0.86963 z m -28.73282,-1.2881 c 2.93614,-1.57138 2.52247,-5.79068 -0.68738,-7.01107 -1.83795,-0.69879 -3.03367,-0.65478 -4,0.1472 -1.93464,1.60561 -1.7168,5.60255 0.37164,6.81895 2.1956,1.27882 2.01371,1.27693 4.31574,0.0449 z m 2.90363,-12.46482 c 0,-0.55 -0.43621,-0.325 -0.96937,0.5 -0.53316,0.825 -0.96937,1.95 -0.96937,2.5 0,0.55 0.43621,0.325 0.96937,-0.5 0.53316,-0.825 0.96937,-1.95 0.96937,-2.5 z m -62.74683,6.25 0.27746,-14.25 5.469,0.15394 c 4.57244,0.12871 5.84293,0.58867 7.75,2.80577 1.95825,2.27659 2.281,3.76924 2.281,10.549 0,12.08977 -2.24021,14.99129 -11.57451,14.99129 l -4.4804,0 0.27745,-14.25 z m 9.56783,0.88986 c 0.27648,-8.41452 -0.53065,-11.63986 -2.91281,-11.63986 -0.48266,0 -0.87756,4.758 -0.87756,10.57332 0,9.53063 0.17258,10.54033 1.75,10.23875 1.48216,-0.28337 1.79444,-1.68716 2.04037,-9.17221 z m 7.91087,12.72804 c -0.38568,-0.38568 -0.70124,-5.35123 -0.70124,-11.03457 l 0,-10.33333 2.53383,0 2.53383,0 -0.28383,10.73814 c -0.2313,8.75069 -0.57048,10.79301 -1.83259,11.03457 -0.85182,0.16304 -1.86432,-0.0191 -2.25,-0.40481 z m 7.24278,-1.21214 c -2.7727,-2.2452 -2.09817,-5.27034 0.99481,-4.46151 1.13364,0.29646 2.06117,0.93653 2.06117,1.42238 0,0.48585 0.45,0.88337 1,0.88337 1.92332,0 0.97524,-2.64954 -1.95141,-5.45345 -7.05967,-6.76359 -3.28158,-15.86683 5.24044,-12.62676 3.24887,1.23522 3.83164,5.08021 0.76999,5.08021 -1.06754,0 -2.2191,-0.45 -2.55902,-1 -0.33992,-0.55 -1.04148,-1 -1.55902,-1 -1.97347,0 -0.80514,2.73933 2.55902,6 2.54077,2.46261 3.5,4.25532 3.5,6.54118 0,5.76198 -5.51412,8.29235 -10.05598,4.61458 z m -7.94402,-23.65576 c 0,-2.28224 0.36621,-2.59071 2.75,-2.31642 1.97786,0.22758 2.75,0.87798 2.75,2.31642 0,1.43844 -0.77214,2.08884 -2.75,2.31642 -2.38379,0.27429 -2.75,-0.0342 -2.75,-2.31642 z m 14.28693,-18.49962 c -9.5104,-3.38138 -19.86345,-12.26058 -24.0788,-20.65097 -4.23903,-8.43751 -5.45501,-14.16074 -5.03603,-23.70293 0.33673,-7.66899 0.9128,-10.23823 3.5662,-15.90501 4.37404,-9.34148 11.78198,-16.9009 21.05184,-21.48231 6.58008,-3.25205 8.49464,-3.72218 16.57464,-4.06991 7.45561,-0.32087 10.31507,0.006 15.5523,1.77571 11.72689,3.96349 20.9326,12.27611 26.4184,23.85543 2.98202,6.29439 3.16452,7.34282 3.16452,18.17961 0,10.83679 -0.1825,11.88522 -3.16452,18.17961 -5.43792,11.47825 -14.70865,19.90359 -26.13686,23.75348 -7.94265,2.67568 -20.4903,2.70594 -27.91169,0.0673 z m 21.45859,-24.53852 c 7.30394,-3.05178 11.25448,-9.18123 11.25448,-17.46186 0,-8.28063 -3.95054,-14.41008 -11.25448,-17.46186 -6.49008,-2.71173 -14.9963,-1.33397 -20.06533,3.25 -7.42558,6.71501 -7.42919,21.70546 -0.007,28.41753 5.0807,4.5945 13.57224,5.97204 20.07217,3.25619 z m -8.99552,-1.16759 c 1.2375,-0.23836 3.2625,-0.23836 4.5,0 1.2375,0.23835 0.225,0.43337 -2.25,0.43337 -2.475,0 -3.4875,-0.19502 -2.25,-0.43337 z m -9.31291,-4.54427 -2.93709,-3.25 3.25,2.93709 c 3.02945,2.73778 3.70965,3.56291 2.93709,3.56291 -0.1721,0 -1.6346,-1.4625 -3.25,-3.25 z m 19.56291,2.93709 c 0,-0.1721 1.4625,-1.6346 3.25,-3.25 l 3.25,-2.93709 -2.93709,3.25 c -2.73778,3.02945 -3.56291,3.70965 -3.56291,2.93709 z m -19,-26.06465 c 0,-0.20765 0.7875,-0.99515 1.75,-1.75 1.58606,-1.24387 1.62143,-1.2085 0.37756,0.37756 -1.30637,1.66575 -2.12756,2.19548 -2.12756,1.37244 z m 19.87244,-1.37244 c -1.24387,-1.58606 -1.2085,-1.62143 0.37756,-0.37756 1.66575,1.30637 2.19548,2.12756 1.37244,2.12756 -0.20765,0 -0.99515,-0.7875 -1.75,-1.75 z m -11.12244,-2.95573 c 1.2375,-0.23836 3.2625,-0.23836 4.5,0 1.2375,0.23835 0.225,0.43337 -2.25,0.43337 -2.475,0 -3.4875,-0.19502 -2.25,-0.43337 z"
         id="path3140"
         inkscape:connector-curvature="0" />
      <path
         style="fill:#50504f"
         d="m 305.02327,499.66597 c -1.35277,-1.35276 0.49572,-3.08067 2.82028,-2.63631 2.44678,0.46774 5.44415,-1.1596 5.44415,-2.95575 0,-0.51972 -0.9,-0.6593 -2,-0.31017 -2.6611,0.8446 -6,-0.2891 -6,-2.03725 0,-1.00778 -1.02426,-0.7074 -3.63955,1.06739 -4.51594,3.0646 -11.06917,3.33606 -14.44982,0.59858 -1.95775,-1.58529 -2.5205,-1.66171 -3.68221,-0.5 -0.7542,0.7542 -2.9371,1.37128 -4.85088,1.37128 -3.07074,0 -3.66225,-0.43716 -5.03411,-3.72049 -2.23757,-5.35525 -1.38798,-14.01527 1.6134,-16.44564 2.8805,-2.33249 5.5464,-2.33064 7.88249,0.005 1.78576,1.78576 1.90546,1.78576 4.11078,0 3.53047,-2.8588 10.5451,-2.46172 14.87666,0.84211 1.93354,1.47479 3.19918,2.16956 2.81252,1.54393 -1.21606,-1.96762 3.49562,-3.991 8.11072,-3.48305 l 4.25,0.46776 0,7.41997 0,7.41996 3,0.6 c 1.65,0.33 3,0.99375 3,1.475 0,0.48125 0.675,0.875 1.5,0.875 2.58973,0 1.64732,-2.45025 -2.5,-6.5 -4.31216,-4.21071 -5.03043,-7.30504 -2.25,-9.69301 2.9548,-2.53773 5.39525,-2.94184 7.8909,-1.30662 2.88053,1.88739 3.089,4.49963 0.3591,4.49963 -1.1,0 -2,-0.45 -2,-1 0,-0.55 -0.675,-1 -1.5,-1 -2.42363,0 -1.73108,2.40693 1.60064,5.56291 4.32133,4.09339 5.34159,7.11322 3.40288,10.07207 -1.1929,1.82059 -2.45154,2.36502 -5.46756,2.36502 -2.15486,0 -4.19604,-0.45 -4.53596,-1 -1.11119,-1.79795 -2.5,-1.05076 -2.5,1.34501 0,3.42024 -3.02791,5.65499 -7.66207,5.65499 -2.20253,0 -4.27359,-0.26899 -4.60236,-0.59777 z m -13.91752,-8.90223 c 1.33858,-2.93787 -0.24449,-3.44022 -1.78287,-0.56574 -1.25468,2.34439 -1.30072,3.06574 -0.1957,3.06574 0.46172,0 1.35207,-1.125 1.97857,-2.5 z m -9.81805,-0.7818 c 1.5404,-1.25101 2.2673,-12.00144 0.748,-11.06245 -0.41917,0.25906 -1.03209,-0.23251 -1.36205,-1.09237 -1.74531,-4.5482 -3.98622,2.92421 -2.86577,9.55606 0.70323,4.16237 1.1467,4.49356 3.47982,2.59876 z m 31,-6.2182 c 0,-6 -0.3,-7.5 -1.5,-7.5 -1.18699,0 -1.5,1.42593 -1.5,6.83333 0,3.75834 0.3,7.13334 0.66667,7.5 1.75567,1.75568 2.33333,0.064 2.33333,-6.83333 z m -15.93426,3.46482 c 2.93614,-1.57138 2.52247,-5.79068 -0.68738,-7.01107 -1.83795,-0.69879 -3.03367,-0.65478 -4,0.1472 -1.93464,1.60561 -1.7168,5.60255 0.37164,6.81895 2.1956,1.27882 2.01371,1.27693 4.31574,0.0449 z m 2.36283,-9.53625 c 1.94453,-1.94452 2.02175,-3.42857 0.17842,-3.42857 -1.31026,0 -2.60699,2.0303 -2.60699,4.08179 0,1.31207 0.63373,1.14162 2.42857,-0.65322 z m -62.42857,3.07143 0,-13.5 5.38922,0 c 3.81622,0 6.07827,0.55797 7.75,1.91165 2.1807,1.76582 2.36078,2.63505 2.36078,11.39501 0,12.15427 -1.08517,13.69334 -9.65499,13.69334 l -5.84501,0 0,-13.5 z m 9.7965,1.99251 c 0.34449,-9.27803 -0.25133,-12.49251 -2.31555,-12.49251 -1.21456,0 -1.48095,1.90194 -1.48095,10.57332 0,9.53047 0.1726,10.54037 1.75,10.23916 1.46174,-0.27913 1.79884,-1.64957 2.0465,-8.31997 z m 7.55885,1.01304 c 0.1402,-10.17184 0.21382,-10.49462 2.39465,-10.5 2.19083,-0.005 2.25,0.27058 2.25,10.49445 0,10.41015 -0.0205,10.5 -2.39465,10.5 -2.38326,0 -2.39396,-0.0499 -2.25,-10.49445 z m 6.67983,8.56019 c -0.56935,-1.06384 -1.03518,-2.18884 -1.03518,-2.5 0,-1.04992 3.59022,-0.57552 4.8,0.63426 0.90705,0.90705 1.48184,0.91816 2.35448,0.0455 0.87264,-0.87265 0.37056,-1.88678 -2.05665,-4.15413 -5.62938,-5.25863 -5.92168,-12.16583 -0.57167,-13.5086 3.05576,-0.76695 7.47384,1.5623 7.47384,3.94026 0,1.65437 -3.5404,2.02961 -4.5,0.47695 -0.33992,-0.55 -1.04148,-1 -1.55902,-1 -1.85236,0 -0.8837,2.321 2.55902,6.13168 3.63906,4.02801 4.57927,8.38905 2.3,10.66832 -1.99454,1.99454 -8.56898,1.50018 -9.76482,-0.73426 z m -6.36851,-20.73241 c -0.36667,-0.36666 -0.66667,-1.49166 -0.66667,-2.5 0,-1.28889 0.74242,-1.83333 2.5,-1.83333 2,0 2.5,0.5 2.5,2.5 0,1.75758 -0.54444,2.5 -1.83333,2.5 -1.00834,0 -2.13334,-0.3 -2.5,-0.66667 z m 14.18954,-20.5915 c -11.21735,-3.92151 -19.27017,-10.83484 -24.46969,-21.00718 -12.20722,-23.88223 -1.90203,-52.11642 22.61348,-61.95649 7.98455,-3.20485 23.12851,-3.14976 31.34367,0.11402 11.37119,4.51762 21.45243,15.2204 25.25505,26.81208 2.72157,8.29626 2.49169,21.8433 -0.50118,29.53495 -6.84027,17.57945 -20.61421,27.59833 -39.09754,28.43876 -6.9951,0.31806 -9.67626,-0.0247 -15.14379,-1.93613 z m 1.69482,-15.20971 c 1.8956,-4.53682 1.83247,-5.27563 -0.51442,-6.0205 -1.47212,-0.46723 -3.09851,0.56152 -6.5,4.11151 -2.49514,2.60407 -4.53661,4.87917 -4.53661,5.05577 0,0.1766 2.27296,0.3211 5.05103,0.3211 4.81847,0 5.11773,-0.15966 6.5,-3.46788 z m 19.19449,-9.07026 c 4.7503,-1.9848 7.02195,-4.08929 9.36089,-8.67202 3.58325,-7.02075 1.78131,-17.96659 -3.7866,-23.0017 -2.83049,-2.55964 -8.7971,-4.78814 -12.81981,-4.78814 -10.53601,0 -18.5,8.17923 -18.5,19 0,13.88014 13.08203,22.75301 25.74552,17.46186 z m 16.25448,-48.49524 c 0,-1.08164 0.5625,-1.9828 1.25,-2.00258 0.6875,-0.0198 -0.1,-1.14255 -1.75,-2.49504 -3.02805,-2.48206 -5.11221,-3.26859 -4.03268,-1.52188 0.32194,0.52092 -1.04142,4.1392 -3.0297,8.04064 -2.8443,5.58114 -3.36638,7.39315 -2.44872,8.49887 0.96252,1.15976 1.93915,0.53519 5.58872,-3.57402 2.43231,-2.73866 4.42238,-5.86435 4.42238,-6.94599 z"
         id="path3138"
         inkscape:connector-curvature="0" />
      <path
         style="fill:#353535"
         d="m 305.95437,499.59707 c -1.44868,-1.44867 -0.50083,-2.22636 3.07501,-2.52296 2.72573,-0.2261 3.8387,-0.82172 4.09899,-2.19362 0.29378,-1.54844 -0.076,-1.7745 -2.08,-1.27153 -1.38177,0.3468 -3.21175,0.0454 -4.22559,-0.69591 -1.51031,-1.10437 -1.59884,-1.66166 -0.56947,-3.58504 0.70288,-1.31335 0.99353,-4.03138 0.6866,-6.42084 -1.30389,-10.15096 -1.81117,-9.10906 4.59779,-9.44333 l 5.75,-0.29991 0,11.9932 c 0,11.25982 -0.13591,12.08839 -2.22251,13.54991 -2.24332,1.57128 -7.87902,2.12183 -9.11082,0.89003 z m 6.33333,-15.77431 c 0,-4.09254 -0.42742,-7.70515 -0.94983,-8.02801 -1.52475,-0.94235 -3.05017,2.96922 -3.05017,7.82146 0,5.4316 0.7554,7.64753 2.60699,7.64753 1.06588,0 1.39301,-1.74744 1.39301,-7.44098 z m -23,10.44098 c -1.15933,-0.74922 -0.81866,-0.99078 1.5,-1.06363 1.65,-0.0519 2.48527,-0.30531 1.85616,-0.56326 -0.62912,-0.25795 -0.9297,-1.28791 -0.66796,-2.2888 0.35061,-1.34073 -0.20613,-1.95016 -2.1149,-2.31505 -2.23926,-0.42806 -2.42,-0.28491 -1.33205,1.05497 1.06693,1.314 0.98211,1.44647 -0.55664,0.86929 -1.51998,-0.57013 -1.69991,-0.3171 -1.10576,1.55493 0.62213,1.96014 0.51318,2.07282 -0.88345,0.91372 -2.28369,-1.8953 -3.96033,-7.67949 -3.2127,-11.08341 0.7282,-3.31546 3.01141,-6.232 6.20156,-7.92178 2.68156,-1.4204 8.97272,-1.52101 9.81574,-0.15698 0.33992,0.55 -0.11008,1 -1,1 -0.88992,0 -1.33992,0.45 -1,1 0.33992,0.55 0.14148,1 -0.44098,1 -0.58246,0 -1.05902,0.62622 -1.05902,1.39159 0,0.76538 -1.09501,1.66642 -2.43335,2.00233 -3.24082,0.81339 -4.25307,4.19012 -2.0018,6.67774 1.98672,2.1953 4.47726,2.48622 6.23515,0.72834 1.56119,-1.56119 1.53536,-5.04156 -0.05,-6.73604 -1.02571,-1.09631 -0.8321,-1.23501 1.07899,-0.77297 1.70947,0.4133 2.18852,0.19703 1.80093,-0.81303 -0.3681,-0.95923 -0.0134,-1.18335 1.17101,-0.7398 1.49132,0.5585 1.52881,0.42705 0.30657,-1.0751 -2.2811,-2.80348 -0.64913,-2.8685 1.97189,-0.0786 1.81987,1.93716 2.42061,3.69249 2.42061,7.07289 0,3.91494 -0.48296,4.93887 -3.73531,7.91944 -2.88199,2.64114 -4.59536,3.41966 -7.50001,3.40785 -2.07057,-0.008 -4.43968,-0.45148 -5.26468,-0.98464 z m -52,-13.5 0,-13.5 3.9349,0 c 6.31595,0 8.81097,1.42284 9.99937,5.70238 2.15192,7.74926 0.62383,18.39338 -2.91228,20.28585 -1.03978,0.55647 -3.94509,1.01177 -6.45625,1.01177 l -4.56574,0 0,-13.5 z m 9.02475,8.9349 c 2.35789,-6.20173 0.58793,-19.08011 -2.77475,-20.18926 -0.95179,-0.31394 -1.25,2.35113 -1.25,11.17103 0,9.71319 0.24617,11.58333 1.52475,11.58333 0.83861,0 1.96361,-1.15429 2.5,-2.5651 z m 7.97525,-5.9349 c 0,-9.83333 0.12698,-10.5 2,-10.5 1.87302,0 2,0.66667 2,10.5 0,9.83333 -0.12698,10.5 -2,10.5 -1.87302,0 -2,-0.66667 -2,-10.5 z m 7.2,9.3 c -1.66854,-1.66854 -1.50027,-3.8 0.3,-3.8 0.825,0 1.5,0.45 1.5,1 0,0.55 0.9,1 2,1 2.97793,0 2.43027,-2.19063 -1.5,-6 -5.74243,-5.56579 -4.58169,-12 2.16482,-12 2.89992,0 5.33518,2.02403 5.33518,4.43426 0,1.30715 -3.83638,0.43451 -4.38595,-0.99764 -0.32996,-0.85986 -1.0531,-1.2833 -1.60699,-0.94099 -1.94849,1.20424 -0.97087,4.14711 2.49294,7.50437 3.77325,3.65718 4.44005,6.91709 1.92857,9.42857 -1.85966,1.85966 -6.52955,2.07045 -8.22857,0.37143 z m 13.5396,-0.55 c -3.33026,-3.71119 -3.4083,-14.43844 -0.12889,-17.71785 1.73468,-1.73468 7.93617,-2.07433 8.91636,-0.48835 0.35481,0.5741 0.0971,1.70409 -0.57263,2.51109 -1.06053,1.27787 -1.39193,1.23994 -2.56709,-0.2938 -2.09336,-2.73214 -3.3539,0.0791 -3.37204,7.52029 -0.0121,4.98409 0.33373,6.41533 1.67472,6.92991 0.96139,0.36892 1.8656,0.12182 2.09725,-0.57312 0.31298,-0.93896 0.73466,-0.94988 1.8223,-0.0472 1.07202,0.8897 1.13997,1.5059 0.28031,2.54174 -1.59486,1.92168 -6.27985,1.70171 -8.15029,-0.38268 z m 44.91539,-0.0787 c -0.91025,-1.00581 -1.65499,-2.13081 -1.65499,-2.5 0,-1.0599 3.81397,-0.78128 4.5,0.32874 0.83362,1.34882 3.5,1.27527 3.5,-0.0966 0,-0.6031 -1.8,-3.14146 -4,-5.64079 -4.45966,-5.06644 -4.6732,-5.85653 -2.4433,-9.04015 2.60184,-3.71463 10.4433,-2.60524 10.4433,1.4775 0,1.76248 -2.4683,1.64559 -3.99086,-0.18899 -1.3537,-1.63111 -3.00914,-1.13896 -3.00914,0.89461 0,0.70817 1.575,2.9093 3.5,4.89141 3.65691,3.7654 4.62352,8.17945 2.3,10.50297 -1.82153,1.82153 -7.26632,1.44719 -9.14501,-0.62874 z m -65.65499,-23.1713 c 0,-1.33333 0.66667,-2 2,-2 1.33333,0 2,0.66667 2,2 0,1.33333 -0.66667,2 -2,2 -1.33333,0 -2,-0.66667 -2,-2 z m 17.5,-17.40902 c -2.75,-0.68142 -7.025,-2.27241 -9.5,-3.53554 -5.17492,-2.64105 -13.36402,-9.02475 -12.58124,-9.80754 0.29061,-0.29061 2.31339,1.08427 4.49507,3.05529 2.18168,1.97102 5.28393,4.26484 6.89389,5.09738 2.9175,1.5087 2.93286,1.50113 4.64124,-2.28738 l 1.71405,-3.80108 21.16849,-0.64742 c 11.64268,-0.35608 22.2935,-0.9076 23.6685,-1.22561 2.21705,-0.51275 2.04728,-0.16354 -1.5,3.08541 -10.25486,9.39241 -25.66642,13.37037 -39,10.06649 z m 36.54933,-32.03154 c -0.65756,-0.79231 -1.90501,-1.16832 -2.77212,-0.83557 -1.28051,0.49137 -1.45099,0.10465 -0.90783,-2.05945 0.54538,-2.17298 0.32451,-2.66442 -1.19751,-2.66442 -1.02643,0 -2.39893,1.0125 -3.04999,2.25 -0.82941,1.5765 -0.96937,1.65133 -0.4676,0.25 1.13781,-3.17759 1.1348,-15.48768 -0.004,-14.7841 -0.58946,0.36431 -0.72392,-0.0826 -0.33206,-1.10379 0.36217,-0.94379 0.32614,-1.51398 -0.0801,-1.26708 -0.4062,0.2469 -1.60293,-0.7038 -2.65939,-2.11267 -1.05647,-1.40887 -1.37426,-2.22376 -0.7062,-1.81088 0.66806,0.41289 1.88082,0.19783 2.69502,-0.47789 0.81419,-0.67573 1.61318,-1.05197 1.77552,-0.83609 2.47194,3.28711 4.39597,8.17277 3.92611,9.96951 -0.51841,1.98241 -0.29824,2.14699 2.07523,1.55129 2.00073,-0.50215 2.65515,-0.292 2.65515,0.85265 0,0.83548 0.45,1.51905 1,1.51905 0.55,0 1,0.675 1,1.5 0,0.825 -0.45,1.5 -1,1.5 -1.4382,0 -1.23464,2.73473 0.25,3.35863 0.89413,0.37574 0.74991,0.8417 -0.50661,1.63672 -1.37689,0.87118 -1.53141,1.53222 -0.71482,3.05804 1.22531,2.2895 0.71833,2.55149 -0.97924,0.50605 z m -58.89933,-1.50944 c 0.22,-0.66 0.72625,-1.16625 1.125,-1.125 1.1957,0.12369 0.96413,1.49529 -0.325,1.925 -0.66,0.22 -1.02,-0.14 -0.8,-0.8 z m -4.40377,-4.51376 c -3.07891,-3.71128 -2.41378,-4.54992 3.58556,-4.52093 5.2624,0.0254 5.93714,1.15459 2.85082,4.77074 -1.50869,1.76767 -2.95446,3.18146 -3.21284,3.14175 -0.25837,-0.0397 -1.70897,-1.56591 -3.22354,-3.39156 z m 65.69194,-8.78624 c 0.59009,-2.70487 -0.0108,-3.23725 -3.18817,-2.82465 -2.42596,0.31503 -1.21145,-1.50143 1.7517,-2.61989 2.32246,-0.87663 2.84581,-1.54853 2.31277,-2.96924 -0.60662,-1.61684 -0.48735,-1.67225 0.9983,-0.46378 1.4841,1.20722 1.68723,1.11692 1.68723,-0.75 0,-1.21995 0.63782,-2.12244 1.5,-2.12244 0.825,0 1.5,-0.48032 1.5,-1.06739 0,-0.62778 -0.92668,-0.80672 -2.25,-0.43449 -1.63824,0.46081 -1.86604,0.36787 -0.83782,-0.34186 1.19834,-0.82716 1.16165,-1.22529 -0.24233,-2.62927 -0.90998,-0.90998 -2.10796,-1.37426 -2.66218,-1.03173 -1.53768,0.95034 -1.20761,0.0413 0.84385,-2.32406 1.01834,-1.17415 2.14334,-1.84301 2.5,-1.48635 0.35666,0.35667 0.64848,0.17195 0.64848,-0.41047 0,-0.58242 -2.8125,-3.67182 -6.25,-6.86533 -6.40265,-5.94818 -6.18577,-6.37056 0.52969,-1.03157 7.44476,5.91881 14.83743,20.53338 14.65002,28.96161 -0.0556,2.50267 -0.22796,2.75825 -0.82749,1.22729 -0.50034,-1.27767 -0.99713,-1.54544 -1.46443,-0.78933 -0.42112,0.68139 -2.61472,1.00933 -5.4225,0.81065 -2.71303,-0.19197 -5.06811,0.1432 -5.54617,0.78933 -0.46909,0.63399 -0.56966,-0.0745 -0.23095,-1.62703 z m -51.43817,-1.14887 c 0,-2.15854 2.8468,-8.38841 4.22137,-9.23794 0.53799,-0.3325 0.43751,0.40569 -0.2233,1.64042 -0.66081,1.23473 -1.32229,3.34562 -1.46996,4.69087 -0.33633,3.06385 -2.52811,5.58382 -2.52811,2.90665 z m 3.0856,0.39887 c -0.0302,-0.825 0.38124,-2.175 0.9144,-3 1.18132,-1.82797 1.18132,-0.24908 0,2.5 -0.56668,1.31874 -0.87816,1.48906 -0.9144,0.5 z m -23.07029,-2.59345 c -0.008,-0.6014 0.83818,-3.57417 1.88134,-6.60615 7.85512,-22.83132 31.47522,-34.62092 54.41813,-27.16196 6.24584,2.03058 5.58545,2.73771 -0.77037,0.82489 -2.67425,-0.80483 -6.47825,-1.39131 -8.45334,-1.30329 l -3.59107,0.16003 3.24867,0.40323 c 2.79176,0.34651 5.95033,3.23679 4.8032,4.39522 -1.05957,1.06999 -1.56014,13.1666 -0.59307,14.33184 1.65765,1.99735 0.17438,4.72669 -2.1652,3.98413 -3.07733,-0.9767 -11.49883,-0.66261 -13.69106,0.51063 -1.40767,0.75336 -2.17614,0.74481 -2.65471,-0.0295 -0.37045,-0.5994 -1.62254,-0.84166 -2.78242,-0.53834 -1.70061,0.44472 -1.53356,0.085 0.86286,-1.85802 l 2.97173,-2.4095 -2.5,-2.50791 c -2.7865,-2.79533 -3.96628,-4.29426 -5.63264,-7.1564 -0.62295,-1.06998 -1.86045,-1.81319 -2.75,-1.65158 -0.88955,0.16161 -1.61736,-0.17589 -1.61736,-0.75 0,-0.57411 0.525,-1.04384 1.16667,-1.04384 0.64166,0 0.89033,-0.27633 0.5526,-0.61407 -0.33774,-0.33773 -2.10792,0.30918 -3.93373,1.4376 -4.04127,2.49764 -8.57887,7.17647 -6.95985,7.17647 0.64587,0 1.17431,0.39504 1.17431,0.87788 0,0.48283 0.7586,2.62033 1.68577,4.75 0.92718,2.12966 1.60218,4.20962 1.5,4.62212 -0.10217,0.4125 0.28006,0.75 0.84941,0.75 0.69678,0 0.68006,0.66356 -0.0512,2.02983 -0.75516,1.41103 -1.90908,1.94453 -3.78518,1.75 -2.27055,-0.23542 -2.7481,0.14661 -3.0092,2.40728 -0.29144,2.52334 -0.55997,2.65702 -4.40603,2.19343 -2.7414,-0.33043 -4.36967,-0.0616 -4.92433,0.8129 -0.47431,0.74784 -0.83521,0.83898 -0.84398,0.21311 z m 39.73469,-34.09588 c -0.9625,-0.25152 -2.5375,-0.25152 -3.5,0 -0.9625,0.25153 -0.175,0.45733 1.75,0.45733 1.925,0 2.7125,-0.2058 1.75,-0.45733 z m -12.25,28.68933 c 0.99549,-1.1 2.03498,-2 2.30997,-2 0.275,0 -0.31448,0.9 -1.30997,2 -0.99549,1.1 -2.03498,2 -2.30998,2 -0.275,0 0.31449,-0.9 1.30998,-2 z m 40.5,-7 c 0,-0.55 0.47656,-1 1.05902,-1 0.58246,0 0.7809,0.45 0.44098,1 -0.33992,0.55 -0.81648,1 -1.05902,1 -0.24254,0 -0.44098,-0.45 -0.44098,-1 z"
         id="path3136"
         inkscape:connector-curvature="0" />
      <path
         style="fill:#010131"
         d="m 306.5377,499.64731 c -2.29076,-1.00837 -1.28746,-2.43108 1.26299,-1.79095 2.68231,0.67321 5.48701,-0.93931 5.48701,-3.1547 0,-0.80024 -1.47173,-1.439 -3.75,-1.62755 -3.12306,-0.25848 -3.69176,-0.64474 -3.40163,-2.31037 1.14184,-6.55536 1.19771,-10.54538 0.17445,-12.45735 -1.78553,-3.33631 0.27847,-5.04265 6.09962,-5.04265 l 4.87756,0 0,11.30887 c 0,7.4845 -0.42383,11.88849 -1.25328,13.02283 -1.28149,1.75254 -7.24808,3.04168 -9.49672,2.05187 z m 6.54913,-15.79478 c 0.32112,-7.39724 -0.68682,-9.75681 -3.25675,-7.62396 -1.08688,0.90203 -1.54238,3.11426 -1.54238,7.49095 0,6.60134 0.47901,7.7892 2.95124,7.31845 1.18374,-0.2254 1.61926,-1.91888 1.84789,-7.18544 z m -20.38404,10.60592 c 2.1218,-0.92702 3.07681,-4.17165 1.24643,-4.23475 -0.63884,-0.022 0.0226,-0.68343 1.46991,-1.46981 3.05801,-1.66156 4.17305,-3.95547 3.28411,-6.75626 -0.38857,-1.22429 -0.24031,-1.74363 0.38708,-1.35588 1.33793,0.82689 4.19738,-0.30143 4.19738,-1.65626 0,-0.58535 -0.5625,-1.79676 -1.25,-2.69202 -0.6875,-0.89526 -0.2375,-0.5681 1,0.72702 1.64012,1.7165 2.25,3.55514 2.25,6.78324 0,6.22956 -3.78824,10.41081 -10,11.03746 -2.92554,0.29513 -3.82995,0.16122 -2.58491,-0.38274 z m -55.41509,-13.82194 0,-13.62723 5.08345,0.48846 c 8.2463,0.79236 9.2577,2.64376 9.02251,16.516 -0.13795,8.13681 -2.01528,10.25 -9.10596,10.25 l -5,0 0,-13.62723 z m 8.96482,9.69297 c 0.56935,-1.06384 1.03518,-5.28899 1.03518,-9.38921 0,-5.74604 -0.42134,-7.9753 -1.83805,-9.72486 -3.17277,-3.9182 -4.16195,-1.67441 -4.16195,9.44068 0,5.65087 0.3,10.57432 0.66667,10.94098 1.25732,1.25733 3.2635,0.66567 4.29815,-1.26759 z m 8.03518,-6.47212 c 0,-9.91405 0.0946,-10.38164 2,-9.88337 1.82981,0.47851 2,1.36402 2,10.40638 0,9.2167 -0.13491,9.88337 -2,9.88337 -1.87187,0 -2,-0.66667 -2,-10.40638 z m 7.2,9.20638 c -0.66,-0.66 -1.2,-1.71 -1.2,-2.33333 0,-1.58498 2.80343,-1.4213 3.42558,0.2 0.68669,1.78947 2.49979,1.69139 3.21559,-0.17395 0.34669,-0.90346 -0.86771,-3.10795 -3.03139,-5.50288 -5.45327,-6.03612 -4.69909,-11.98984 1.51879,-11.98984 3.30734,0 6.49757,2.77386 4.95934,4.31209 -0.72087,0.72087 -1.60986,0.52552 -2.89302,-0.63572 -2.27434,-2.05825 -2.82291,-2.08813 -3.54999,-0.19338 -0.33586,0.87523 1.05466,3.35906 3.39301,6.06082 4.26685,4.92996 4.86642,7.409 2.39066,9.88476 -1.85966,1.85966 -6.52955,2.07045 -8.22857,0.37143 z m 13.08972,-1.48058 c -2.48822,-3.79751 -2.40998,-13.42407 0.13193,-16.23285 3.30822,-3.65553 10.46499,-1.94824 8.07096,1.92538 -0.4596,0.74365 -1.09621,0.54484 -1.93691,-0.60488 -2.22589,-3.0441 -3.5557,-0.60211 -3.5557,6.5295 0,4.64976 0.44879,7.191 1.41097,7.98954 0.96456,0.80051 1.61601,0.83925 2.05902,0.12245 0.93237,-1.5086 2.53001,-1.29109 2.53001,0.34445 0,0.76616 -0.7118,1.66616 -1.58179,2 -3.15265,1.20979 -5.40677,0.55409 -7.12849,-2.07359 z m 45.36527,0.85184 c -0.91025,-1.00581 -1.65499,-2.12798 -1.65499,-2.49373 0,-1.05072 3.64362,-0.21819 5.39064,1.23171 1.33041,1.10414 1.68577,1.05522 2.20731,-0.3039 0.40086,-1.04462 -0.66034,-3.03887 -2.98817,-5.6155 -5.74158,-6.35525 -4.50822,-11.98984 2.62448,-11.98984 2.5593,0 4.76574,1.67205 4.76574,3.61152 0,1.55931 -2.91237,1.1483 -3.96816,-0.56001 -0.44453,-0.71926 -1.30854,-0.99853 -1.92004,-0.62061 -2.04972,1.2668 -1.14027,4.14917 2.3882,7.5691 3.77325,3.65718 4.44005,6.91709 1.92857,9.42857 -2.12179,2.12179 -6.74318,1.98626 -8.77358,-0.25731 z M 285.077,490.51374 c -3.62276,-4.16908 -2.69616,-11.4073 1.99507,-15.58475 2.46256,-2.19286 9.64725,-3.39393 10.645,-1.77953 0.43521,0.70419 -0.22057,1.11428 -1.78187,1.11428 -2.48863,0 -2.87546,1.24324 -1.21487,3.90451 0.54924,0.88021 0.50625,1.17575 -0.11515,0.7917 -0.54535,-0.33704 -2.00974,0.10037 -3.25421,0.97202 -1.77271,1.24166 -2.13716,2.21233 -1.68308,4.48272 0.52853,2.64263 0.40518,2.80455 -1.40031,1.83828 -1.41247,-0.75593 -1.97988,-0.74601 -1.97988,0.0346 0,0.60181 -0.45,0.81609 -1,0.47617 -1.49329,-0.92291 -1.2077,0.75845 0.5567,3.27749 1.85481,2.64812 1.37814,2.94161 -0.7674,0.47251 z m -30.7893,-21.32332 c 0,-1.4311 0.53852,-1.96962 1.73852,-1.73852 2.60673,0.50201 2.89745,3.81184 0.3348,3.81184 -1.4311,0 -2.07332,-0.64223 -2.07332,-2.07332 z m 18.8125,-17.60979 c 0.72187,-0.28887 1.58437,-0.25335 1.91667,0.0789 0.33229,0.3323 -0.25834,0.56864 -1.3125,0.52522 -1.16495,-0.048 -1.4019,-0.28494 -0.60417,-0.60416 z m 5.8216,-0.94225 c -0.31888,-1.03105 -0.39548,-3.28108 -0.17022,-5.00006 0.32218,-2.45858 -0.057,-3.35092 -1.77716,-4.18232 -1.67102,-0.80765 0.68294,-1.07286 9.98149,-1.12458 6.69252,-0.0372 12.88002,0.20547 13.75,0.53931 2.26888,0.87065 2.10856,4.68579 -0.16821,4.00286 -1.64564,-0.49362 -6.25,2.38602 -6.25,3.90885 0,0.38396 1.2375,0.4229 2.75,0.0865 l 2.75,-0.6116 -3,1.66797 c -1.67039,0.92871 -6.16582,1.87177 -10.14305,2.12783 -6.33796,0.40804 -7.2084,0.24858 -7.72285,-1.41478 z m 19.3659,-7.37464 c 0,-0.55 -0.45,-1 -1,-1 -0.55,0 -1,0.45 -1,1 0,0.55 0.45,1 1,1 0.55,0 1,-0.45 1,-1 z m -29.1875,7.31689 c 0.72187,-0.28888 1.58437,-0.25335 1.91667,0.0789 0.33229,0.33229 -0.25834,0.56864 -1.3125,0.52522 -1.16495,-0.048 -1.4019,-0.28494 -0.60417,-0.60417 z m 31.1875,-2.7099 c 0,-0.21616 0.69837,-0.661 1.55194,-0.98855 0.88992,-0.34149 1.29132,-0.17385 0.94098,0.39301 -0.58726,0.95021 -2.49292,1.40545 -2.49292,0.59554 z m 6,-2.98455 c 0,-0.20765 0.7875,-0.99515 1.75,-1.75 1.58606,-1.24387 1.62143,-1.2085 0.37756,0.37756 -1.30637,1.66575 -2.12756,2.19548 -2.12756,1.37244 z"
         id="path3134"
         inkscape:connector-curvature="0" />
    </g>
  </g>
</svg>
