<?xml version="1.0" encoding="UTF-8" standalone="no"?>
<!-- Created with Inkscape (http://www.inkscape.org/) -->
<svg id="svg2" xmlns:rdf="http://www.w3.org/1999/02/22-rdf-syntax-ns#" xmlns="http://www.w3.org/2000/svg" height="352.59" width="352.44" version="1.1" xmlns:cc="http://creativecommons.org/ns#" xmlns:xlink="http://www.w3.org/1999/xlink" xmlns:dc="http://purl.org/dc/elements/1.1/">
 <title id="title3836">Floppy 3.5 inch</title>
 <defs id="defs4">
  <filter id="filter3832" color-interpolation-filters="sRGB">
   <feGaussianBlur id="feGaussianBlur3834" stdDeviation="3.4789065"/>
  </filter>
  <linearGradient id="linearGradient3039" y2="632.76" gradientUnits="userSpaceOnUse" x2="451.23" gradientTransform="translate(239.80109,-24.386551)" y1="632.76" x1="268">
   <stop id="stop2919" stop-color="#999" offset="0"/>
   <stop id="stop2925" stop-color="#ececec" offset="0.32746"/>
   <stop id="stop2921" stop-color="#999" offset="1"/>
  </linearGradient>
 </defs>
 <metadata id="metadata7">
  <rdf:RDF>
   <cc:Work rdf:about="">
    <dc:format>image/svg+xml</dc:format>
    <dc:type rdf:resource="http://purl.org/dc/dcmitype/StillImage"/>
    <dc:title>Floppy 3.5 inch</dc:title>
   </cc:Work>
  </rdf:RDF>
 </metadata>
 <g id="layer2" transform="translate(-212.42454,-552.51408)">
  <g id="g3015" transform="translate(0.50125122,-3.9981318)">
   <path id="path2948" d="m220.42,556.64c-2.216,0-4,1.7856-4,4v344.34c0,2.2144,1.784,4,4,4h335.44c2.216,0,4-1.7856,4-4v-307.44h-3.2812v-13.219h3.2812v-5.4688l-26.562-22.219h-7.125v1.125h-28.688l-1.3438,1-2.3125,1.6562v0.0312h-0.0312-232.66v-3.8125h-40.719zm307.12,314.16,20.125,0,0,14.344-20.125,0,0-14.344z" fill-opacity="0.99607843" filter="url(#filter3832)" fill="#000"/>
   <g id="g3024" transform="translate(-4,-4)">
    <g id="g2927" transform="translate(-201.18905,13.209382)">
     <g id="g2896" fill-opacity="0.99607843" transform="translate(239.80109,-24.386551)">
      <path id="rect2831" d="m181.81,567.94c-2.216,0-4,1.7856-4,4v344.34c0,2.2144,1.784,4,4,4h335.44c2.216,0,4-1.7856,4-4v-307.44h-3.2812v-13.219h3.2812v-5.4688l-26.562-22.219h-7.125v1.125h-28.688l-1.3438,1-2.3125,1.6562v0.0312h-0.0312-232.66v-3.8125h-40.719zm307.12,314.16,20.125,0,0,14.344-20.125,0,0-14.344z" fill="#000"/>
      <g id="g2885" transform="translate(0.49873352,1.0290222)">
       <rect id="rect2851" opacity="0.6" height="199.16" width="261.14" y="720.1" x="218.46" fill="#F00"/>
       <g id="g2876" fill="#FFF" transform="translate(0.50805664,0)">
        <rect id="rect2862" height="32.515" width="258.09" y="721.62" x="219.48"/>
        <rect id="rect2864" height="22.862" width="258.09" y="755.33" x="219.48"/>
        <rect id="rect2866" height="22.862" width="258.09" y="779.39" x="219.48"/>
        <rect id="rect2868" height="22.862" width="258.09" y="803.45" x="219.48"/>
        <rect id="rect2870" height="22.862" width="258.09" y="827.5" x="219.48"/>
        <rect id="rect2872" height="22.862" width="258.09" y="851.56" x="219.48"/>
        <rect id="rect2874" height="22.862" width="258.09" y="875.62" x="219.48"/>
       </g>
      </g>
     </g>
     <path id="rect2853" d="m505.02,543.3,0,113.91c0,3.324,2.676,6,6,6h173.94c3.324,0,6-2.676,6-6v-113.91h-185.94zm107.69,17.281,50.812,0,0,94.469-50.812,0,0-94.469z" fill="url(#linearGradient3039)"/>
    </g>
    <g id="text3009" style="writing-mode:lr-tb;text-anchor:middle;text-align:center;" line-height="125%" font-weight="bold" font-size="14px" transform="translate(-12.701329,2.2862392)" font-stretch="normal" font-variant="normal" font-style="normal" font-family="Calibri" fill="#500">
     <path id="path3014" d="m289.43,737.12c0,0.0456-0.0148,0.0866-0.0444,0.12304-0.0296,0.0365-0.0786,0.0661-0.14697,0.0889-0.0684,0.0228-0.15951,0.041-0.27344,0.0547-0.11394,0.0137-0.25977,0.0205-0.4375,0.0205-0.17318,0-0.31787-0.007-0.43408-0.0205-0.11622-0.0137-0.2085-0.0319-0.27686-0.0547-0.0684-0.0228-0.11735-0.0524-0.14697-0.0889-0.0296-0.0364-0.0444-0.0775-0.0444-0.12304v-8.3535c0-0.0456,0.0148-0.0866,0.0444-0.12304,0.0296-0.0365,0.0797-0.0661,0.15039-0.0889,0.0706-0.0228,0.16292-0.041,0.27685-0.0547s0.25749-0.0205,0.43067-0.0205c0.17773,0.00001,0.32356,0.007,0.4375,0.0205,0.11393,0.0137,0.20507,0.0319,0.27344,0.0547,0.0683,0.0228,0.11734,0.0524,0.14697,0.0889,0.0296,0.0365,0.0444,0.0775,0.0444,0.12304z"/>
     <path id="path3016" d="m298.67,736.74c0,0.10481-0.0182,0.19824-0.0547,0.28027-0.0365,0.082-0.0855,0.15039-0.14698,0.20508-0.0615,0.0547-0.13444,0.0946-0.21875,0.11963-0.0843,0.0251-0.16976,0.0376-0.25634,0.0376h-0.76563c-0.15951,0-0.29737-0.0159-0.41357-0.0479-0.11622-0.0319-0.22332-0.09-0.32129-0.17431-0.098-0.0843-0.19255-0.19825-0.28369-0.3418-0.0912-0.14356-0.19369-0.32926-0.30762-0.55713l-2.2012-4.1357c-0.12761-0.24609-0.25749-0.51155-0.38965-0.79639-0.13217-0.28482-0.25066-0.56168-0.35547-0.83057h-0.0137c0.0182,0.32814,0.0319,0.65512,0.041,0.98096,0.009,0.32585,0.0137,0.66195,0.0137,1.0083v4.6279c-0.00001,0.0456-0.0125,0.0866-0.0376,0.12305-0.0251,0.0365-0.0684,0.0672-0.12989,0.0923-0.0615,0.0251-0.14469,0.0444-0.24951,0.0581s-0.23926,0.0205-0.40332,0.0205c-0.1595,0-0.29167-0.007-0.39648-0.0205-0.10482-0.0137-0.18685-0.033-0.2461-0.0581-0.0592-0.0251-0.10026-0.0558-0.12304-0.0923-0.0228-0.0365-0.0342-0.0775-0.0342-0.12305v-7.9502c0-0.21419,0.0627-0.37483,0.18799-0.48194,0.12532-0.10708,0.27913-0.16063,0.46142-0.16064h0.96387c0.17317,0.00001,0.31901,0.0148,0.4375,0.0444s0.22444,0.0786,0.31787,0.14697c0.0934,0.0684,0.18115,0.16294,0.26318,0.2837,0.082,0.12077,0.16634,0.27002,0.25293,0.44775l1.7227,3.2334c0.10025,0.19597,0.19938,0.38851,0.29736,0.57764,0.098,0.18913,0.19254,0.37825,0.28369,0.56738,0.0911,0.18913,0.18001,0.37484,0.26661,0.55713s0.17089,0.36458,0.25293,0.54687h0.007c-0.0137-0.31901-0.0239-0.65169-0.0308-0.99804-0.007-0.34636-0.0103-0.67676-0.0103-0.99122v-4.1494c-0.00001-0.0456,0.0137-0.0866,0.041-0.12305,0.0273-0.0365,0.0729-0.0684,0.13672-0.0957,0.0638-0.0273,0.14811-0.0467,0.25293-0.0581,0.10481-0.0114,0.23925-0.0171,0.40332-0.0171,0.15494,0.00001,0.28482,0.006,0.38965,0.0171,0.10481,0.0114,0.1857,0.0308,0.24267,0.0581,0.057,0.0273,0.0968,0.0592,0.11963,0.0957,0.0228,0.0365,0.0342,0.0775,0.0342,0.12305z"/>
     <path id="path3018" d="m307.94,732.82c0,0.8112-0.10596,1.505-0.31787,2.0815-0.21192,0.5765-0.51612,1.047-0.91259,1.4116-0.3965,0.36459-0.87843,0.63233-1.4458,0.80322-0.56739,0.1709-1.243,0.25635-2.0269,0.25635h-2.1123c-0.1504,0-0.27686-0.0444-0.3794-0.1333s-0.15381-0.23356-0.15381-0.43408v-7.7109c0-0.20051,0.0513-0.3452,0.15381-0.43408,0.10254-0.0889,0.229-0.13329,0.3794-0.1333h2.2695c0.7884,0.00001,1.4572,0.0923,2.0063,0.27685,0.54915,0.18458,1.0117,0.45802,1.3877,0.82032,0.37597,0.36231,0.66194,0.81006,0.85791,1.3433,0.19595,0.53321,0.29394,1.1507,0.29394,1.8525zm-1.8594,0.0615c-0.00001-0.41927-0.049-0.80891-0.14697-1.1689-0.098-0.36002-0.25522-0.6722-0.47168-0.93653-0.21648-0.26431-0.49447-0.47053-0.83399-0.61865-0.33952-0.1481-0.78499-0.22216-1.3364-0.22217h-0.90918v6.0156h0.93652c0.49218,0,0.9069-0.0638,1.2441-0.19141,0.33724-0.1276,0.61865-0.32015,0.84424-0.57764,0.22558-0.25748,0.3942-0.57763,0.50586-0.96045,0.11165-0.3828,0.16747-0.82942,0.16748-1.3398z"/>
     <path id="path3020" d="m314.66,736.67c-0.00001,0.13216-0.006,0.24268-0.0171,0.33154-0.0114,0.0889-0.0285,0.16065-0.0513,0.21534-0.0228,0.0547-0.0513,0.0946-0.0855,0.11962-0.0342,0.0251-0.0718,0.0376-0.11279,0.0376h-4.4434c-0.1504,0-0.27686-0.0444-0.3794-0.1333s-0.15381-0.23356-0.15381-0.43408v-7.7109c0-0.20051,0.0513-0.3452,0.15381-0.43408,0.10254-0.0889,0.229-0.13329,0.3794-0.1333h4.416c0.041,0.00001,0.0775,0.0114,0.10938,0.0342,0.0319,0.0228,0.0592,0.0627,0.082,0.11963,0.0228,0.057,0.0399,0.12989,0.0513,0.21875,0.0114,0.0889,0.0171,0.20167,0.0171,0.33838-0.00001,0.12761-0.006,0.23584-0.0171,0.3247-0.0114,0.0889-0.0285,0.16066-0.0513,0.21534-0.0228,0.0547-0.0501,0.0946-0.082,0.11962-0.0319,0.0251-0.0684,0.0376-0.10938,0.0376h-3.1582v2.1602h2.6728c0.041,0,0.0786,0.0125,0.11279,0.0376,0.0342,0.0251,0.0627,0.0638,0.0855,0.11621,0.0228,0.0524,0.0399,0.12305,0.0513,0.21191,0.0114,0.0889,0.0171,0.19711,0.0171,0.32471,0,0.13216-0.006,0.24154-0.0171,0.32812-0.0114,0.0866-0.0285,0.15609-0.0513,0.2085-0.0228,0.0524-0.0513,0.09-0.0855,0.11279-0.0342,0.0228-0.0718,0.0342-0.11279,0.0342h-2.6728v2.4951h3.1856c0.041,0,0.0786,0.0125,0.11279,0.0376,0.0342,0.0251,0.0627,0.0649,0.0855,0.11963,0.0228,0.0547,0.0399,0.12646,0.0513,0.21533,0.0114,0.0889,0.0171,0.19938,0.0171,0.33154z"/>
     <path id="path3022" d="m322.56,736.69c0.082,0.15951,0.13557,0.28711,0.16064,0.38282,0.0251,0.0957,0.0102,0.16862-0.0444,0.21875-0.0547,0.0501-0.15382,0.082-0.29737,0.0957-0.14356,0.0137-0.34294,0.0205-0.59814,0.0205-0.2142,0-0.38282-0.005-0.50586-0.0137-0.12305-0.009-0.2199-0.0239-0.29053-0.0444-0.0706-0.0205-0.12191-0.049-0.15381-0.0855s-0.0592-0.082-0.082-0.13672l-1.6611-3.1924-1.6543,3.1924c-0.0273,0.0547-0.057,0.10026-0.0889,0.13672-0.0319,0.0365-0.0832,0.0649-0.1538,0.0855-0.0706,0.0205-0.16863,0.0353-0.29395,0.0444-0.12533,0.009-0.29053,0.0137-0.4956,0.0137-0.23698,0-0.42042-0.007-0.5503-0.0205-0.12988-0.0137-0.21761-0.0456-0.26318-0.0957-0.0456-0.0501-0.0547-0.12305-0.0273-0.21875,0.0273-0.0957,0.0843-0.22331,0.17089-0.38282l2.1191-3.8623-1.9688-3.6299c-0.082-0.16406-0.13785-0.29508-0.16748-0.39307-0.0296-0.098-0.0182-0.17089,0.0342-0.21875,0.0524-0.0478,0.14925-0.0775,0.29053-0.0889s0.3418-0.0171,0.60156-0.0171c0.21419,0.00001,0.38395,0.005,0.50928,0.0137,0.12532,0.009,0.22445,0.0239,0.29736,0.0444,0.0729,0.0205,0.12419,0.049,0.15381,0.0855,0.0296,0.0365,0.0581,0.082,0.0854,0.13672l1.5518,2.9258,1.5107-2.9258c0.0273-0.0547,0.0558-0.10026,0.0854-0.13672,0.0296-0.0364,0.0775-0.0649,0.14356-0.0855,0.0661-0.0205,0.15722-0.0353,0.27343-0.0444,0.11621-0.009,0.27685-0.0137,0.48194-0.0137,0.22785,0.00001,0.40787,0.006,0.54004,0.0171,0.13215,0.0114,0.2233,0.0422,0.27343,0.0923,0.0501,0.0501,0.0627,0.12305,0.0376,0.21875s-0.0763,0.22559-0.15381,0.38965l-1.9688,3.6094z"/>
    </g>
   </g>
  </g>
 </g>
</svg>
