<?xml version="1.0" encoding="UTF-8" standalone="no"?>
<svg
   xmlns:dc="http://purl.org/dc/elements/1.1/"
   xmlns:cc="http://creativecommons.org/ns#"
   xmlns:rdf="http://www.w3.org/1999/02/22-rdf-syntax-ns#"
   xmlns:svg="http://www.w3.org/2000/svg"
   xmlns="http://www.w3.org/2000/svg"
   id="svg4031"
   xml:space="preserve"
   enable-background="new 0 0 1000 1000"
   viewBox="0 0 1000 1000"
   y="0px"
   x="0px"
   version="1.1"><defs
   id="defs4035" />
<metadata
   id="metadata3989"> Svg Vector Icons : http://www.onlinewebfonts.com/icon <rdf:RDF><cc:Work
     rdf:about=""><dc:format>image/svg+xml</dc:format><dc:type
       rdf:resource="http://purl.org/dc/dcmitype/StillImage" /><dc:title></dc:title></cc:Work></rdf:RDF></metadata>
<path
   id="path840"
   d="m 203.7037,734.5679 c 139.01882,10.53464 319.18797,2.42753 581.79013,0 C 1048.096,732.14037 976.50535,492.61077 865.74074,408.95062 754.97613,325.29047 768.00437,267.57535 604.93827,270.06173 539.06204,271.06619 568.39368,241.7055 554.39068,208.17533 535.33706,162.55144 475.01203,112.29438 370.37037,125 188.82486,147.0433 121.91358,393.51852 121.91358,393.51852 c 0,0 -93.403168,124.46237 -77.160494,192.90123 C 60.99576,654.85861 64.684878,724.03326 203.7037,734.5679 Z"
   style="fill:#464646;fill-opacity:1;stroke:#000000;stroke-width:1px;stroke-linecap:butt;stroke-linejoin:miter;stroke-opacity:1" /><polygon
   points="561.3,423.4 438.8,423.4 438.8,668.4 346.9,668.4 500,852.2 653.1,668.4 561.3,668.4 "
   id="polygon3991"
   style="fill:#1edb1e;fill-opacity:1"
   transform="translate(5.5147059,113.97059)" /><path
   d="M 854.8,367.88043 C 826.4,285.91801 753.7,227.65294 668.4,227.65294 c -19.6,0 -38.6,3.0437 -56.5,8.80498 C 563.3,151.23439 476.5,94.491176 377.5,94.491176 227.3,94.491176 105.1,225.15276 101.9,387.55576 47,422.12347 10,486.80204 10,560.6117 10,670.83703 92.3,760.3 193.8,760.3 h 137.8 l -51.1,-66.63523 h -86.9 c -67.5,0 -122.4,-59.56951 -122.4,-133.16177 0,-63.04802 40.3,-115.87791 94.5,-129.68325 -1.8,-11.95739 -2.7,-24.24088 -2.7,-36.74178 0,-128.70492 96,-233.06026 214.4,-233.06026 96.8,0 178.7,69.78763 205.2,165.6641 23.6,-20.32755 53.3,-32.50234 85.7,-32.50234 70.9,0 129.4,58.26507 137,133.16177 h 0.9 c 67.5,0 122.4,59.5695 122.4,133.16176 0,73.37485 -54.8,133.16177 -122.4,133.16177 H 719.3 L 668.2,760.3 H 806 c 101.4,0 183.8,-89.68037 183.8,-199.797 0.2,-91.96314 -57.1,-169.46873 -135,-192.62257 z"
   id="path3993"
   style="fill:#f0f0f0;fill-opacity:1;stroke-width:1.04261" />
</svg>
