<?xml version="1.0" encoding="UTF-8" standalone="no"?>
<!-- Generator: Adobe Illustrator 10, SVG Export Plug-In . SVG Version: 3.0.0 Build 76)  -->
<svg xmlns:ns0="http://ns.adobe.com/SaveForWeb/1.0/" xmlns:ns="http://ns.adobe.com/Variables/1.0/" xmlns:i="http://ns.adobe.com/AdobeIllustrator/10.0/" xmlns:dc="http://purl.org/dc/elements/1.1/" xmlns:cc="http://web.resource.org/cc/" xmlns:rdf="http://www.w3.org/1999/02/22-rdf-syntax-ns#" xmlns:svg="http://www.w3.org/2000/svg" xmlns="http://www.w3.org/2000/svg" xmlns:sodipodi="http://sodipodi.sourceforge.net/DTD/sodipodi-0.dtd" xmlns:inkscape="http://www.inkscape.org/namespaces/inkscape" i:viewOrigin="131 567" i:rulerOrigin="0 0" i:pageBounds="0 792 612 0" width="200" height="200" viewBox="0 0 347 348" overflow="visible" enable-background="new 0 0 347 348" xml:space="preserve" id="svg7522" sodipodi:version="0.32" inkscape:version="0.45" sodipodi:docname="tidy-1.svg" sodipodi:docbase="/home/doctormo/Graphics/Meta Format/SVG" inkscape:output_extension="org.inkscape.output.svg.inkscape" version="1.0" inkscape:export-filename="/home/doctormo/Graphics/Meta Format/SVG/tidy-1.png" inkscape:export-xdpi="99.727577" inkscape:export-ydpi="99.727577" sodipodi:modified="TRUE"><defs id="defs7540"/><sodipodi:namedview inkscape:window-height="549" inkscape:window-width="792" inkscape:pageshadow="2" inkscape:pageopacity="0.0" guidetolerance="10.0" gridtolerance="10.0" objecttolerance="10.0" borderopacity="1.0" bordercolor="#666666" pagecolor="#ffffff" id="base" width="200px" height="200px" inkscape:zoom="1.0862069" inkscape:cx="173.5" inkscape:cy="174" inkscape:window-x="0" inkscape:window-y="0" inkscape:current-layer="svg7522"/>
	<metadata id="metadata7524">
		<ns:variableSets>
			<ns:variableSet varSetName="binding1" locked="none">
				<ns:variables/>
				<ns:sampleDataSets>
					</ns:sampleDataSets>
			</ns:variableSet>
		</ns:variableSets>
		<ns0:sfw>
			<ns0:slices/>
			<ns0:sliceSourceBounds x="131" y="219" width="347" height="348" bottomLeftOrigin="true"/>
		</ns0:sfw>
	<rdf:RDF><cc:Work rdf:about=""><dc:format>image/svg+xml</dc:format><dc:type rdf:resource="http://purl.org/dc/dcmitype/StillImage"/></cc:Work></rdf:RDF></metadata>
	<g id="Layer_1" i:knockout="Off" i:layer="yes" i:dimmedPercent="50" i:rgbTrio="#4F008000FFFF">
		<path i:knockout="Off" d="M 347,174 C 347,270.098 269.321,348 173.5,348 C 77.679,348 0,270.098 0,174 C 0,77.902 77.679,0 173.5,0 C 269.321,0 347,77.902 347,174 z " id="path7527" style="fill:#1789e5"/>
		<path i:knockout="Off" d="M 238,53 C 238,66.807 226.136,78 211.5,78 C 196.864,78 185,66.807 185,53 C 185,39.193 196.864,28 211.5,28 C 226.136,28 238,39.193 238,53 z " id="path7529" style="fill:#ffffff"/>
		<path i:knockout="Off" d="M 66,175 C 67.055,181.355 85.333,301.417 85.333,301.417 L 153.666,301.417 C 153.666,301.417 167.771,178.893 167.999,175 C 174.223,174.378 174.666,162 165.999,162 C 153.835,162 76.794,161.941 67.999,162 C 59.204,162.059 61.167,174.487 66,175 z " id="path7531" style="fill:#ffffff"/>
		<path i:knockout="Off" d="M 78,141 C 95.292,135.675 102.179,117.468 105,110 C 119.513,116.596 145.333,122.265 164,118 C 167.683,137.419 135.957,137.31 141,155 C 132.577,145.705 89.404,167.292 78,141 z " id="path7533" style="fill:#ffffff"/>
		<path i:knockout="Off" d="M 103,82 L 242,81 C 241.4,84.421 275.633,138.497 271,148 C 266.911,148.418 204,153 204,153 C 210.109,143.621 191,110 191,110 L 103,82 z " id="path7535" style="fill:#ffffff"/>
		<path i:knockout="Off" d="M 270,156 L 204,153 C 204,153 180.435,296.355 180,298 C 179.565,299.645 181.855,300.536 183,299 C 184.145,297.464 234,217 234,217 C 234,217 253.754,297.701 254,299 C 254.246,300.299 257.721,300.209 258,299 C 258.279,297.791 270,156 270,156 z " id="path7537" style="fill:#ffffff"/>
	</g>
</svg>