<?xml version="1.0" encoding="UTF-8" standalone="no"?>
<svg
   xmlns:dc="http://purl.org/dc/elements/1.1/"
   xmlns:cc="http://creativecommons.org/ns#"
   xmlns:rdf="http://www.w3.org/1999/02/22-rdf-syntax-ns#"
   xmlns:svg="http://www.w3.org/2000/svg"
   xmlns="http://www.w3.org/2000/svg"
   id="svg16326"
   version="1.1"
   viewBox="0 0 52.963348 52.963348">
  <metadata
     id="metadata16330">
    <rdf:RDF>
      <cc:Work
         rdf:about="">
        <dc:format>image/svg+xml</dc:format>
        <dc:type
           rdf:resource="http://purl.org/dc/dcmitype/StillImage" />
        <dc:title></dc:title>
      </cc:Work>
    </rdf:RDF>
  </metadata>
  <defs
     id="defs16314">
    <linearGradient
       gradientTransform="matrix(1.731185,0,0,1.731185,-537.14244,-628.00695)"
       y2="387.43924"
       y1="369.97995"
       x2="332.02466"
       x1="314.56537"
       id="linearGradient2464"
       gradientUnits="userSpaceOnUse">
      <stop
         id="stop16299"
         stop-color="#e12b1c"
         offset="0" />
      <stop
         id="stop16301"
         stop-color="#980b00"
         offset="1" />
    </linearGradient>
    <linearGradient
       gradientTransform="matrix(1.3085832,0,0,1.3085832,-223.56435,-272.26139)"
       y2="231.76931"
       y1="217.41269"
       x2="194.55228"
       x1="182.09715"
       id="linearGradient2466"
       gradientUnits="userSpaceOnUse">
      <stop
         id="stop16304"
         stop-opacity=".72656"
         stop-color="#fff"
         offset="0" />
      <stop
         id="stop16306"
         stop-color="#fff"
         offset="1" />
    </linearGradient>
    <linearGradient
       y2="390.78342"
       y1="377.9527"
       x2="311.27377"
       x1="302.73621"
       id="linearGradient2468"
       gradientUnits="userSpaceOnUse"
       gradientTransform="matrix(1.9519,0,0,1.84182,-590.82094,-690.33915)">
      <stop
         id="stop16309"
         stop-color="#fff"
         offset="0" />
      <stop
         id="stop16311"
         stop-opacity="0"
         stop-color="#fff"
         offset="1" />
    </linearGradient>
  </defs>
  <path
     style="stroke-width:1.89606"
     d="m 52.963346,26.481671 a 26.481677,26.481677 0 1 1 -52.9633357316,0 26.481677,26.481677 0 1 1 52.9633357316,0 z"
     fill="#b4281c"
     id="path16316" />
  <path
     d="m 50.66022,26.481198 a 24.178907,24.178907 0 1 1 -48.3577968,0 24.178907,24.178907 0 1 1 48.3577968,0 z"
     fill="url(#linearGradient2464)"
     stroke="#fff"
     stroke-width=".32492"
     id="path16318"
     style="fill:url(#linearGradient2464)" />
  <path
     d="m 8.8662003,15.476812 c -0.2916178,0.291579 -0.236762,0.75012 0.05483,1.041685 l 9.9235487,9.923549 -9.9783521,9.978378 c -0.2916178,0.291592 -0.2916178,0.804936 0,1.096528 l 6.5791501,6.57915 c 0.291578,0.291604 0.750119,0.236749 1.041684,-0.05482 l 9.978379,-9.978378 9.978379,9.978378 c 0.291591,0.291592 0.750106,0.346369 1.041684,0.05482 l 6.57915,-6.57915 c 0.291618,-0.291592 0.291618,-0.804936 0,-1.096528 l -9.978352,-9.978378 9.978352,-9.978378 c 0.291618,-0.291592 0.291566,-0.695277 0,-0.986856 l -6.57915,-6.57915 C 37.193925,8.6060442 36.735383,8.5512146 36.443819,8.8428323 L 26.46544,18.821224 16.541891,8.897675 c -0.291578,-0.2916177 -0.804936,-0.2916177 -1.096514,0 z"
     fill="url(#linearGradient2466)"
     id="path16320"
     style="fill:url(#linearGradient2466);stroke-width:1.30858" />
  <path
     d="m 26.46542,2.31563 c -13.34675,0 -24.1748,10.82803 -24.17478,24.17478 0,6.41257 2.61694,12.14291 6.69547,16.47203 2.11885,-17.50049 16.88952,-31.10725 34.95862,-31.10725 0.48721,0 0.93961,0.099 1.42205,0.1185 C 40.94535,6.223 34.27471,2.31563 26.46542,2.31563 Z"
     fill="url(#linearGradient2468)"
     id="path16322"
     style="fill:url(#linearGradient2468)" />
</svg>
