<?xml version="1.0" encoding="UTF-8" standalone="no"?>
<!-- Created with Inkscape (http://www.inkscape.org/) -->
<svg id="svg2" xmlns:rdf="http://www.w3.org/1999/02/22-rdf-syntax-ns#" xmlns="http://www.w3.org/2000/svg" height="32.468" width="32.472" version="1.0" xmlns:cc="http://creativecommons.org/ns#" xmlns:xlink="http://www.w3.org/1999/xlink" xmlns:dc="http://purl.org/dc/elements/1.1/">
 <defs id="defs4">
  <linearGradient id="linearGradient1483" y2="48.977" gradientUnits="userSpaceOnUse" x2="40.305" gradientTransform="matrix(0.889325,0,0,0.889325,3.5416,3.5416)" y1="13.746" x1="20.153">
   <stop id="stop1354" stop-color="#982007" offset="0"/>
   <stop id="stop1356" stop-color="#510f02" offset="1"/>
  </linearGradient>
  <linearGradient id="linearGradient1485" y2="46.762" gradientUnits="userSpaceOnUse" x2="47.844" gradientTransform="matrix(0.889325,0,0,0.889325,-32.54864,2.451357)" y1="17.421" x1="18.505">
   <stop id="stop1367" stop-color="#f1140c" offset="0"/>
   <stop id="stop1370" stop-color="#8d1a02" offset="1"/>
  </linearGradient>
  <linearGradient id="linearGradient1487" y2="46.762" gradientUnits="userSpaceOnUse" x2="47.844" gradientTransform="matrix(0.889325,0,0,0.889325,3.541593,3.5416)" y1="17.421" x1="18.505">
   <stop id="stop1380" stop-color="#ff8b8e" offset="0"/>
   <stop id="stop1382" stop-color="#b42314" stop-opacity="0.72240806" offset="1"/>
  </linearGradient>
 </defs>
 <metadata id="metadata7">
  <rdf:RDF>
   <cc:Work rdf:about="">
    <dc:format>image/svg+xml</dc:format>
    <dc:type rdf:resource="http://purl.org/dc/dcmitype/StillImage"/>
    <dc:title/>
    <dc:date>2005-10-27</dc:date>
    <dc:creator>
     <cc:Agent>
      <dc:title>Jean-Victor Balin</dc:title>
     </cc:Agent>
    </dc:creator>
    <dc:description>jean.victor.balin@gmail.com</dc:description>
    <cc:license rdf:resource="http://creativecommons.org/licenses/publicdomain/"/>
    <dc:subject>
     <rdf:Bag>
      <rdf:li>icon</rdf:li>
      <rdf:li>cancel</rdf:li>
      <rdf:li>cross</rdf:li>
     </rdf:Bag>
    </dc:subject>
    <dc:language>fr-FR</dc:language>
   </cc:Work>
   <cc:License rdf:about="http://creativecommons.org/licenses/publicdomain/">
    <cc:permits rdf:resource="http://creativecommons.org/ns#Reproduction"/>
    <cc:permits rdf:resource="http://creativecommons.org/ns#Distribution"/>
    <cc:permits rdf:resource="http://creativecommons.org/ns#DerivativeWorks"/>
   </cc:License>
  </rdf:RDF>
 </metadata>
 <g id="layer1" transform="translate(-0.76422967,-0.76599)">
  <g id="g1478" transform="translate(-15,-15)">
   <path id="path1349" fill="url(#linearGradient1483)" d="m16.025,21.211c-0.37601,0.45376-0.34185,1.1199,0.0786,1.5328l9.256,9.256-9.256,9.256c-0.215,0.21299-0.33595,0.50307-0.33595,0.80571s0.12096,0.59272,0.33595,0.80571l5.0308,5.0308c0.21299,0.215,0.50307,0.33595,0.80571,0.33595s0.59272-0.12096,0.80571-0.33595l9.2559-9.2559,9.2559,9.2559c0.21299,0.215,0.50307,0.33595,0.80571,0.33595s0.59272-0.12096,0.80571-0.33595l5.0308-5.0308c0.215-0.21299,0.33595-0.50307,0.33595-0.80571s-0.12096-0.59272-0.33595-0.80571l-9.258-9.256,9.256-9.256c0.215-0.21299,0.33595-0.50307,0.33595-0.80571s-0.12096-0.59272-0.33595-0.80571l-5.0308-5.0308c-0.21299-0.215-0.50307-0.33595-0.80571-0.33595s-0.59272,0.12096-0.80571,0.33595l-9.2559,9.2559-9.2559-9.2559c-0.21299-0.215-0.50307-0.33595-0.80571-0.33595s-0.59272,0.12096-0.80571,0.33595l-5.0308,5.0308c-0.02747,0.0249-0.0537,0.05113-0.0786,0.07861z"/>
   <path id="path1468" d="m-14.375,15.844c-0.17983,0.04723-0.34245,0.1448-0.46875,0.28125l-4.0312,4.0312c-0.37716,0.38074-0.37716,0.99426,0,1.375l9.375,9.375-9.375,9.375c-0.37716,0.38074-0.37716,0.99426,0,1.375l4.0312,4.0312c0.38074,0.37716,0.99426,0.37716,1.375,0l9.375-9.375,9.375,9.375c0.38074,0.37716,0.99426,0.37716,1.375,0l4.0312-4.0312c0.37716-0.38074,0.37716-0.99426,0-1.375l-9.375-9.375,9.375-9.375c0.37716-0.38074,0.37716-0.99426,0-1.375l-4.0308-4.031c-0.38074-0.37716-0.99426-0.37716-1.375,0l-9.375,9.375-9.375-9.375c-0.23321-0.24402-0.57586-0.35036-0.90625-0.28125z" transform="translate(36.09375,1.103297)" fill="url(#linearGradient1485)"/>
   <path id="path1472" fill="url(#linearGradient1487)" d="m21.844,17.656c-0.03546,0.01371-0.06746,0.03504-0.09375,0.0625l-4.031,4.032c-0.03189,0.03516-0.05351,0.0784-0.0625,0.125-0.01608,0.05084-0.01608,0.10541,0,0.15625,0.01371,0.03546,0.03504,0.06746,0.0625,0.09375l9.5625,9.5625c0.0878,0.08375,0.15625,0.1984,0.15625,0.3125s-0.06844,0.22875-0.15625,0.3125l-9.5625,9.5625c-0.03189,0.03516-0.05351,0.0784-0.0625,0.125-0.01608,0.05084-0.01608,0.10541,0,0.15625,0.01371,0.03546,0.03504,0.06746,0.0625,0.09375l4.032,4.032c0.03516,0.03189,0.0784,0.05351,0.125,0.0625,0.05084,0.01608,0.10541,0.01608,0.15625,0,0.03546-0.01371,0.06746-0.03504,0.09375-0.0625l9.5625-9.5625c0.083-0.089,0.198-0.158,0.312-0.158,0.1141-0.000001,0.22875,0.06844,0.3125,0.15625l9.5625,9.5625c0.03516,0.03189,0.0784,0.05351,0.125,0.0625,0.05084,0.01608,0.10541,0.01608,0.15625,0,0.03546-0.01371,0.06746-0.03504,0.09375-0.0625l4.032-4.03c0.03189-0.03516,0.05351-0.0784,0.0625-0.125,0.01608-0.05084,0.01608-0.10541,0-0.15625-0.01371-0.03546-0.03504-0.06746-0.0625-0.09375l-9.5625-9.5625c-0.089-0.083-0.158-0.198-0.158-0.312-0.000001-0.1141,0.06844-0.22875,0.15625-0.3125l9.5625-9.5625c0.03189-0.03516,0.05351-0.0784,0.0625-0.125,0.01608-0.05084,0.01608-0.10541,0-0.15625-0.012-0.037-0.033-0.069-0.061-0.095l-4.031-4.031c-0.03516-0.03189-0.0784-0.05351-0.125-0.0625-0.05084-0.01608-0.10541-0.01608-0.15625,0-0.03546,0.01371-0.06746,0.03504-0.09375,0.0625l-9.5625,9.5625c-0.083,0.089-0.198,0.158-0.312,0.158-0.1141,0-0.22875-0.06844-0.3125-0.15625l-9.563-9.563c-0.035-0.032-0.078-0.054-0.125-0.063-0.05084-0.01608-0.10541-0.01608-0.15625,0z"/>
  </g>
 </g>
</svg>
