<?xml version="1.0" encoding="UTF-8" standalone="no"?>
<svg
   xmlns:dc="http://purl.org/dc/elements/1.1/"
   xmlns:cc="http://creativecommons.org/ns#"
   xmlns:rdf="http://www.w3.org/1999/02/22-rdf-syntax-ns#"
   xmlns:svg="http://www.w3.org/2000/svg"
   xmlns="http://www.w3.org/2000/svg"
   id="svg843"
   version="1.1"
   stroke-width="2"
   stroke-miterlimit="10"
   fill="#FFF"
   viewBox="0 0 96 96">
  <metadata
     id="metadata849">
    <rdf:RDF>
      <cc:Work
         rdf:about="">
        <dc:format>image/svg+xml</dc:format>
        <dc:type
           rdf:resource="http://purl.org/dc/dcmitype/StillImage" />
        <dc:title></dc:title>
      </cc:Work>
    </rdf:RDF>
  </metadata>
  <defs
     id="defs847">
    <filter
       id="filter3316-3"
       color-interpolation-filters="sRGB">
      <feGaussianBlur
         id="feGaussianBlur7-7"
         stdDeviation=".58672" />
    </filter>
  </defs>
  <path
     style="stroke-width:2.24942"
     id="path833"
     d="M 60.564812,1.8868821 H 15.383405 c -1.242356,0 -2.249421,1.0070655 -2.249421,2.2494204 V 91.863697 c 0,1.242356 1.007065,2.249421 2.249421,2.249421 h 65.23319 c 1.242356,0 2.249421,-1.007065 2.249421,-2.249421 V 24.188086 c 0,-0.596547 -0.236977,-1.168687 -0.658855,-1.590566 L 62.155378,2.5457374 C 61.733499,2.1238586 61.161359,1.8868821 60.564812,1.8868821 Z"
     stroke="#979593" />
  <path
     style="stroke-width:2.18394"
     id="path835"
     d="M 62.990726,2.9424621 V 24.405685 c 0,1.317126 0.8954,2.384802 2,2.384802 h 18"
     stroke="#979593"
     fill="none" />
  <path
     style="stroke-width:3.39456"
     id="path837"
     d="M 74.368734,72.990598 H 30.581886 v -4.079015 h 43.786848 c 0.780112,0 1.412479,0.913087 1.412479,2.039507 v 0 c 0,1.12642 -0.632367,2.039508 -1.412479,2.039508 z m 0,-12.237045 H 30.581886 v -4.079015 h 43.786848 c 0.780112,0 1.412479,0.913088 1.412479,2.039508 v 0 c 0,1.12642 -0.632367,2.039507 -1.412479,2.039507 z m 0,-12.237044 H 30.581886 v -4.079015 h 43.786848 c 0.780112,0 1.412479,0.913087 1.412479,2.039507 v 0 c 0,1.12642 -0.632367,2.039508 -1.412479,2.039508 z m 0,-12.237045 H 30.581886 v -4.079015 h 43.786848 c 0.780112,0 1.412479,0.913088 1.412479,2.039508 v 0 c 0,1.12642 -0.632367,2.039507 -1.412479,2.039507 z m 0,48.948178 H 30.581886 v -4.079015 h 43.786848 c 0.780112,0 1.412479,0.913088 1.412479,2.039508 v 0 c 0,1.12642 -0.632367,2.039507 -1.412479,2.039507 z"
     fill="#C8C6C4" />
</svg>
