<?xml version="1.0" encoding="utf-8"?>
<!-- Generator: Adobe Illustrator 13.0.0, SVG Export Plug-In . SVG Version: 6.00 Build 14576)  -->
<!DOCTYPE svg PUBLIC "-//W3C//DTD SVG 1.1//EN" "http://www.w3.org/Graphics/SVG/1.1/DTD/svg11.dtd">
<svg version="1.1" id="Layer_1" xmlns="http://www.w3.org/2000/svg" xmlns:xlink="http://www.w3.org/1999/xlink" x="0px" y="0px"
	 width="262px" height="130px" viewBox="0 0 262 130" enable-background="new 0 0 262 130" xml:space="preserve">
<rect x="-0.5" y="-0.75" stroke="#000000" width="262" height="130"/>
<g id="row_1_1_">
	<rect x="2.5" y="113.25" fill="#009818" width="8" height="12"/>
	<rect x="15.5" y="113.25" fill="#009818" width="8" height="12"/>
	<rect x="28.5" y="113.25" fill="#009818" width="8" height="12"/>
	<rect x="41.5" y="113.25" fill="#009818" width="8" height="12"/>
</g>
<g id="row_2_1_">
	<rect x="2.5" y="97.25" fill="#009818" width="8" height="12"/>
	<rect x="15.5" y="97.25" fill="#009818" width="8" height="12"/>
	<rect x="28.5" y="97.25" fill="#009818" width="8" height="12"/>
	<rect x="41.5" y="97.25" fill="#009818" width="8" height="12"/>
</g>
<g id="row_3_1_">
	<rect x="2.5" y="81.25" fill="#009818" width="8" height="12"/>
	<rect x="15.5" y="81.25" fill="#009818" width="8" height="12"/>
	<rect x="28.5" y="81.25" fill="#009818" width="8" height="12"/>
	<rect x="41.5" y="81.25" fill="#009818" width="8" height="12"/>
</g>
<g id="row_4_2_">
	<rect x="2.5" y="65.25" fill="#FCFF00" width="8" height="12"/>
	<rect x="15.5" y="65.25" fill="#FCFF00" width="8" height="12"/>
	<rect x="28.5" y="65.25" fill="#FCFF00" width="8" height="12"/>
	<rect x="41.5" y="65.25" fill="#FCFF00" width="8" height="12"/>
</g>
<g id="row_5_1_">
	<rect x="2.5" y="49.25" fill="#FCFF00" width="8" height="12"/>
	<rect x="15.5" y="49.25" fill="#FCFF00" width="8" height="12"/>
	<rect x="28.5" y="49.25" fill="#FCFF00" width="8" height="12"/>
</g>
<g id="row_6_1_">
	<rect x="2.5" y="34.25" fill="#FCFF00" width="8" height="12"/>
	<rect x="15.5" y="34.25" fill="#FCFF00" width="8" height="12"/>
	<rect x="28.5" y="34.25" fill="#FCFF00" width="8" height="12"/>
</g>
<g id="row_7_1_">
	<rect x="2.5" y="18.25" fill="#FF0000" width="8" height="12"/>
	<rect x="28.5" y="18.25" fill="#FF0000" width="8" height="12"/>
</g>
<rect id="block_8_1_" x="2.5" y="2.25" fill="#FF0000" width="8" height="12"/>
<path id="c" fill="#FFFFFF" d="M234.5,83.938c-9.769,0-17.688-7.919-17.688-17.688s7.919-17.688,17.688-17.688
	c4.412,0,8.438,1.626,11.536,4.298l10.949-15.987c-6.232-4.778-14.024-7.624-22.485-7.624c-20.435,0-37,16.565-37,37
	c0,20.436,16.565,37,37,37c9.058,0,17.351-3.259,23.782-8.662l-11.64-15.499C243.473,82.087,239.207,83.938,234.5,83.938z"/>
<path id="a" fill="#FFFFFF" d="M147,32l-2.5,17.167c28.834-9.417,29,6.083,29,6.083v5.617c-4.246-3.802-9.853-6.117-16-6.117
	c-13.254,0-24,10.746-24,24s10.746,24,24,24c6.147,0,11.754-2.314,16-6.117V101l16.917-0.834L191.5,48.5
	C191.5,42.583,182.5,22.25,147,32z M162.5,85.75c-5.247,0-9.5-3.806-9.5-8.5s4.253-8.5,9.5-8.5s9.5,3.806,9.5,8.5
	S167.747,85.75,162.5,85.75z"/>
<polygon id="l" fill="#FFFFFF" points="108.5,101.75 108.5,8.25 128.334,6.084 128.334,99.584 "/>
<path id="f" fill="#FFFFFF" d="M66.5,101.292l19-2.041V49.292l10.969-0.011V32.25h-11v-2.156c0-5.219,4.594-7.823,8.281-7.823h8.688
	l-5-17.958h-6.812c-12.25,0-24.125,8.812-24.125,23.812v4.125h-7l-4,17h10.875L66.5,101.292z"/>
<g>
	<path fill="#FFFFFF" d="M67.667,112.764c0.34-0.419,0.996-0.629,1.968-0.629c0.092,0,0.186,0.002,0.283,0.007
		s0.208,0.012,0.332,0.021v1.121c-0.153-0.009-0.263-0.015-0.332-0.018c-0.068-0.002-0.132-0.003-0.192-0.003
		c-0.448,0-0.715,0.097-0.803,0.29c-0.087,0.194-0.131,0.688-0.131,1.48h1.458v0.971h-1.458v6.316h-1.441v-6.316h-1.207v-0.971
		h1.207v-1.148C67.373,113.374,67.478,113.001,67.667,112.764z"/>
	<path fill="#FFFFFF" d="M71.635,114.999h1.385v1.265c0.113-0.246,0.391-0.546,0.834-0.898c0.442-0.354,0.953-0.53,1.53-0.53
		c0.027,0,0.073,0.002,0.138,0.007c0.065,0.005,0.175,0.014,0.332,0.027v1.299c-0.086-0.014-0.166-0.022-0.239-0.027
		s-0.153-0.007-0.239-0.007c-0.734,0-1.298,0.199-1.692,0.599c-0.394,0.398-0.591,0.857-0.591,1.377v4.211h-1.458V114.999z"/>
	<path fill="#FFFFFF" d="M82.474,115.201c0.574,0.243,1.011,0.559,1.312,0.946c0.29,0.369,0.483,0.8,0.58,1.292
		c0.086,0.337,0.129,0.875,0.129,1.613h-6.308c0.027,0.745,0.233,1.343,0.619,1.793s0.983,0.675,1.792,0.675
		c0.755,0,1.358-0.213,1.808-0.639c0.251-0.247,0.43-0.533,0.535-0.858h1.433c-0.038,0.269-0.163,0.568-0.376,0.898
		c-0.213,0.331-0.451,0.601-0.713,0.811c-0.439,0.364-0.983,0.61-1.632,0.738c-0.348,0.073-0.742,0.109-1.181,0.109
		c-1.073,0-1.982-0.332-2.728-0.994c-0.746-0.664-1.119-1.592-1.119-2.786c0-1.176,0.376-2.131,1.127-2.864s1.733-1.101,2.945-1.101
		C81.307,114.835,81.899,114.957,82.474,115.201z M82.996,118.075c-0.059-0.533-0.195-0.959-0.41-1.278
		c-0.396-0.593-1.057-0.889-1.983-0.889c-0.664,0-1.22,0.204-1.67,0.611c-0.45,0.408-0.688,0.927-0.715,1.556H82.996z"/>
	<path fill="#FFFFFF" d="M91.697,115.201c0.574,0.243,1.011,0.559,1.312,0.946c0.29,0.369,0.483,0.8,0.58,1.292
		c0.086,0.337,0.129,0.875,0.129,1.613h-6.308c0.027,0.745,0.233,1.343,0.619,1.793s0.983,0.675,1.792,0.675
		c0.755,0,1.358-0.213,1.808-0.639c0.251-0.247,0.43-0.533,0.535-0.858h1.433c-0.038,0.269-0.163,0.568-0.376,0.898
		c-0.213,0.331-0.451,0.601-0.713,0.811c-0.439,0.364-0.983,0.61-1.632,0.738c-0.348,0.073-0.742,0.109-1.181,0.109
		c-1.073,0-1.982-0.332-2.728-0.994c-0.746-0.664-1.119-1.592-1.119-2.786c0-1.176,0.376-2.131,1.127-2.864s1.733-1.101,2.945-1.101
		C90.53,114.835,91.123,114.957,91.697,115.201z M92.219,118.075c-0.059-0.533-0.195-0.959-0.41-1.278
		c-0.396-0.593-1.057-0.889-1.983-0.889c-0.664,0-1.22,0.204-1.67,0.611c-0.45,0.408-0.688,0.927-0.715,1.556H92.219z"/>
	<path fill="#FFFFFF" d="M100.211,112.278h1.458v10.042h-1.458V112.278z"/>
	<path fill="#FFFFFF" d="M110.139,115.729c0.767,0.629,1.15,1.553,1.15,2.773c0,1.179-0.338,2.153-1.013,2.923
		s-1.724,1.154-3.144,1.154c-1.185,0-2.125-0.34-2.822-1.021c-0.697-0.681-1.045-1.595-1.045-2.742c0-1.229,0.367-2.208,1.102-2.937
		s1.721-1.093,2.959-1.093C108.434,114.787,109.372,115.102,110.139,115.729z M109.234,120.596c0.355-0.617,0.532-1.304,0.532-2.059
		c0-0.683-0.128-1.238-0.384-1.666c-0.406-0.674-1.105-1.011-2.098-1.011c-0.881,0-1.521,0.287-1.922,0.86s-0.601,1.266-0.601,2.075
		c0,0.779,0.2,1.428,0.601,1.946s1.036,0.778,1.906,0.778C108.224,121.521,108.878,121.212,109.234,120.596z"/>
	<path fill="#FFFFFF" d="M113.945,120.023c0.044,0.41,0.167,0.725,0.372,0.943c0.375,0.396,1.025,0.595,1.951,0.595
		c0.551,0,1.036-0.099,1.455-0.298c0.418-0.197,0.628-0.504,0.628-0.919c0-0.314-0.167-0.554-0.502-0.718
		c-0.214-0.101-0.636-0.217-1.267-0.349l-1.177-0.246c-0.751-0.155-1.306-0.328-1.662-0.52c-0.636-0.333-0.955-0.793-0.955-1.381
		c0-0.692,0.299-1.253,0.898-1.682s1.405-0.643,2.417-0.643c1.324,0,2.278,0.323,2.864,0.971c0.367,0.41,0.544,0.853,0.534,1.326
		h-1.376c-0.028-0.276-0.146-0.528-0.356-0.755c-0.343-0.321-0.937-0.482-1.782-0.482c-0.564,0-0.991,0.089-1.281,0.266
		s-0.435,0.411-0.435,0.701c0,0.318,0.19,0.572,0.572,0.764c0.22,0.113,0.544,0.213,0.974,0.3l0.982,0.198
		c1.067,0.214,1.782,0.422,2.145,0.622c0.567,0.314,0.85,0.809,0.85,1.483c0,0.651-0.296,1.215-0.89,1.688
		c-0.593,0.474-1.496,0.711-2.709,0.711c-1.306,0-2.231-0.247-2.775-0.741c-0.544-0.495-0.835-1.106-0.873-1.836H113.945z"/>
	<path fill="#FFFFFF" d="M122.237,120.023c0.044,0.41,0.167,0.725,0.372,0.943c0.375,0.396,1.025,0.595,1.951,0.595
		c0.551,0,1.036-0.099,1.455-0.298c0.418-0.197,0.628-0.504,0.628-0.919c0-0.314-0.167-0.554-0.502-0.718
		c-0.214-0.101-0.636-0.217-1.267-0.349l-1.177-0.246c-0.751-0.155-1.306-0.328-1.662-0.52c-0.636-0.333-0.955-0.793-0.955-1.381
		c0-0.692,0.299-1.253,0.898-1.682s1.405-0.643,2.417-0.643c1.324,0,2.278,0.323,2.864,0.971c0.367,0.41,0.544,0.853,0.534,1.326
		h-1.376c-0.028-0.276-0.146-0.528-0.356-0.755c-0.343-0.321-0.937-0.482-1.782-0.482c-0.564,0-0.991,0.089-1.281,0.266
		s-0.435,0.411-0.435,0.701c0,0.318,0.19,0.572,0.572,0.764c0.22,0.113,0.544,0.213,0.974,0.3l0.982,0.198
		c1.067,0.214,1.782,0.422,2.145,0.622c0.567,0.314,0.85,0.809,0.85,1.483c0,0.651-0.296,1.215-0.89,1.688
		c-0.593,0.474-1.496,0.711-2.709,0.711c-1.306,0-2.231-0.247-2.775-0.741c-0.544-0.495-0.835-1.106-0.873-1.836H122.237z"/>
	<path fill="#FFFFFF" d="M129.702,112.278h1.458v10.042h-1.458V112.278z"/>
	<path fill="#FFFFFF" d="M138.703,115.201c0.574,0.243,1.011,0.559,1.312,0.946c0.29,0.369,0.483,0.8,0.58,1.292
		c0.085,0.337,0.128,0.875,0.128,1.613h-6.308c0.027,0.745,0.233,1.343,0.619,1.793s0.982,0.675,1.791,0.675
		c0.756,0,1.358-0.213,1.808-0.639c0.252-0.247,0.431-0.533,0.535-0.858h1.434c-0.038,0.269-0.163,0.568-0.377,0.898
		c-0.213,0.331-0.451,0.601-0.713,0.811c-0.439,0.364-0.983,0.61-1.632,0.738c-0.348,0.073-0.742,0.109-1.182,0.109
		c-1.072,0-1.981-0.332-2.728-0.994c-0.746-0.664-1.118-1.592-1.118-2.786c0-1.176,0.375-2.131,1.126-2.864
		c0.752-0.733,1.733-1.101,2.946-1.101C137.536,114.835,138.129,114.957,138.703,115.201z M139.225,118.075
		c-0.059-0.533-0.195-0.959-0.409-1.278c-0.396-0.593-1.058-0.889-1.983-0.889c-0.663,0-1.221,0.204-1.67,0.611
		c-0.449,0.408-0.688,0.927-0.715,1.556H139.225z"/>
	<path fill="#FFFFFF" d="M143.436,120.023c0.044,0.41,0.168,0.725,0.372,0.943c0.374,0.396,1.024,0.595,1.95,0.595
		c0.551,0,1.035-0.099,1.454-0.298c0.419-0.197,0.629-0.504,0.629-0.919c0-0.314-0.168-0.554-0.503-0.718
		c-0.214-0.101-0.636-0.217-1.267-0.349l-1.177-0.246c-0.752-0.155-1.306-0.328-1.662-0.52c-0.637-0.333-0.955-0.793-0.955-1.381
		c0-0.692,0.3-1.253,0.898-1.682c0.6-0.429,1.404-0.643,2.417-0.643c1.324,0,2.278,0.323,2.864,0.971
		c0.366,0.41,0.544,0.853,0.533,1.326h-1.377c-0.027-0.276-0.146-0.528-0.356-0.755c-0.342-0.321-0.937-0.482-1.782-0.482
		c-0.563,0-0.99,0.089-1.28,0.266s-0.436,0.411-0.436,0.701c0,0.318,0.191,0.572,0.572,0.764c0.22,0.113,0.545,0.213,0.974,0.3
		l0.981,0.198c1.067,0.214,1.782,0.422,2.146,0.622c0.566,0.314,0.851,0.809,0.851,1.483c0,0.651-0.297,1.215-0.89,1.688
		c-0.594,0.474-1.496,0.711-2.71,0.711c-1.307,0-2.231-0.247-2.775-0.741c-0.543-0.495-0.835-1.106-0.873-1.836H143.436z"/>
	<path fill="#FFFFFF" d="M151.728,120.023c0.044,0.41,0.168,0.725,0.372,0.943c0.374,0.396,1.024,0.595,1.95,0.595
		c0.551,0,1.035-0.099,1.454-0.298c0.419-0.197,0.629-0.504,0.629-0.919c0-0.314-0.168-0.554-0.503-0.718
		c-0.214-0.101-0.636-0.217-1.267-0.349l-1.177-0.246c-0.752-0.155-1.306-0.328-1.662-0.52c-0.637-0.333-0.955-0.793-0.955-1.381
		c0-0.692,0.3-1.253,0.898-1.682c0.6-0.429,1.404-0.643,2.417-0.643c1.324,0,2.278,0.323,2.864,0.971
		c0.366,0.41,0.544,0.853,0.533,1.326h-1.377c-0.027-0.276-0.146-0.528-0.356-0.755c-0.342-0.321-0.937-0.482-1.782-0.482
		c-0.563,0-0.99,0.089-1.28,0.266s-0.436,0.411-0.436,0.701c0,0.318,0.191,0.572,0.572,0.764c0.22,0.113,0.545,0.213,0.974,0.3
		l0.981,0.198c1.067,0.214,1.782,0.422,2.146,0.622c0.566,0.314,0.851,0.809,0.851,1.483c0,0.651-0.297,1.215-0.89,1.688
		c-0.594,0.474-1.496,0.711-2.71,0.711c-1.307,0-2.231-0.247-2.775-0.741c-0.543-0.495-0.835-1.106-0.873-1.836H151.728z"/>
	<path fill="#FFFFFF" d="M168.408,117.89c0.335-0.036,0.559-0.154,0.672-0.354c0.065-0.11,0.098-0.268,0.098-0.474
		c0-0.421-0.177-0.727-0.529-0.916c-0.354-0.19-0.858-0.285-1.516-0.285c-0.76,0-1.298,0.174-1.616,0.522
		c-0.178,0.192-0.293,0.479-0.348,0.858h-1.36c0.027-0.905,0.374-1.534,1.039-1.889c0.666-0.354,1.438-0.531,2.317-0.531
		c1.02,0,1.847,0.164,2.483,0.492c0.631,0.328,0.946,0.839,0.946,1.531v4.218c0,0.128,0.031,0.23,0.093,0.308
		c0.062,0.077,0.193,0.116,0.393,0.116c0.065,0,0.138-0.004,0.219-0.01c0.081-0.008,0.168-0.018,0.26-0.031v0.909
		c-0.228,0.055-0.4,0.089-0.519,0.103c-0.119,0.014-0.281,0.021-0.486,0.021c-0.502,0-0.866-0.15-1.093-0.451
		c-0.119-0.159-0.202-0.385-0.251-0.677c-0.297,0.328-0.724,0.613-1.279,0.854c-0.557,0.241-1.169,0.362-1.838,0.362
		c-0.805,0-1.462-0.206-1.972-0.618c-0.511-0.411-0.766-0.927-0.766-1.546c0-0.679,0.251-1.204,0.753-1.577s1.161-0.604,1.976-0.689
		L168.408,117.89z M165.339,121.214c0.309,0.204,0.673,0.307,1.094,0.307c0.513,0,1.009-0.1,1.49-0.3
		c0.81-0.333,1.214-0.876,1.214-1.632V118.6c-0.178,0.096-0.406,0.176-0.687,0.24c-0.28,0.063-0.555,0.109-0.824,0.137l-0.881,0.096
		c-0.528,0.059-0.925,0.152-1.191,0.279c-0.45,0.214-0.676,0.555-0.676,1.023C164.878,120.729,165.031,121.009,165.339,121.214z"/>
	<path fill="#FFFFFF" d="M174.441,114.999v4.86c0,0.374,0.068,0.679,0.205,0.916c0.252,0.438,0.723,0.656,1.412,0.656
		c0.988,0,1.661-0.383,2.019-1.148c0.194-0.41,0.292-0.973,0.292-1.688v-3.596h1.457v7.321h-1.376l0.016-1.08
		c-0.186,0.278-0.416,0.513-0.691,0.704c-0.546,0.383-1.208,0.574-1.986,0.574c-1.213,0-2.039-0.349-2.479-1.046
		c-0.238-0.374-0.357-0.873-0.357-1.497v-4.977H174.441z"/>
	<path fill="#FFFFFF" d="M186.972,115.225c0.258,0.137,0.551,0.376,0.879,0.718v-3.698h1.4v10.076h-1.312v-1.019
		c-0.339,0.451-0.739,0.777-1.202,0.978c-0.462,0.2-0.992,0.301-1.589,0.301c-0.963,0-1.796-0.343-2.501-1.029
		c-0.704-0.686-1.057-1.598-1.057-2.737c0-1.066,0.321-1.99,0.964-2.772c0.643-0.781,1.562-1.172,2.755-1.172
		C185.971,114.869,186.525,114.987,186.972,115.225z M183.718,120.714c0.393,0.528,1.021,0.793,1.886,0.793
		c0.671,0,1.223-0.245,1.655-0.735c0.433-0.489,0.648-1.192,0.648-2.108c0-0.925-0.223-1.61-0.669-2.054
		c-0.445-0.445-0.996-0.667-1.651-0.667c-0.73,0-1.322,0.237-1.776,0.711s-0.681,1.171-0.681,2.092
		C183.13,119.529,183.325,120.186,183.718,120.714z"/>
	<path fill="#FFFFFF" d="M191.431,112.278h1.481v1.395h-1.481V112.278z M191.431,115.033h1.481v7.287h-1.481V115.033z"/>
	<path fill="#FFFFFF" d="M201.397,115.729c0.767,0.629,1.149,1.553,1.149,2.773c0,1.179-0.337,2.153-1.013,2.923
		s-1.724,1.154-3.144,1.154c-1.186,0-2.126-0.34-2.822-1.021c-0.697-0.681-1.046-1.595-1.046-2.742c0-1.229,0.367-2.208,1.102-2.937
		s1.721-1.093,2.959-1.093C199.692,114.787,200.631,115.102,201.397,115.729z M200.492,120.596c0.355-0.617,0.533-1.304,0.533-2.059
		c0-0.683-0.129-1.238-0.385-1.666c-0.405-0.674-1.104-1.011-2.098-1.011c-0.881,0-1.521,0.287-1.922,0.86s-0.601,1.266-0.601,2.075
		c0,0.779,0.2,1.428,0.601,1.946s1.035,0.778,1.906,0.778C199.482,121.521,200.138,121.212,200.492,120.596z"/>
	<path fill="#FFFFFF" d="M214.674,115.389c0.612,0.401,0.981,1.092,1.105,2.071h-1.417c-0.087-0.451-0.283-0.826-0.592-1.124
		c-0.308-0.299-0.801-0.448-1.481-0.448c-0.929,0-1.593,0.383-1.992,1.147c-0.259,0.496-0.389,1.108-0.389,1.836
		c0,0.733,0.184,1.35,0.551,1.851s0.944,0.751,1.733,0.751c0.604,0,1.083-0.155,1.437-0.467c0.354-0.311,0.599-0.736,0.733-1.276
		h1.417c-0.162,0.971-0.567,1.681-1.215,2.13c-0.647,0.448-1.477,0.673-2.486,0.673c-1.133,0-2.037-0.35-2.712-1.05
		c-0.675-0.699-1.013-1.573-1.013-2.621c0-1.285,0.37-2.285,1.109-3.001s1.682-1.073,2.826-1.073
		C213.267,114.787,214.062,114.987,214.674,115.389z"/>
	<path fill="#FFFFFF" d="M223.521,115.729c0.767,0.629,1.149,1.553,1.149,2.773c0,1.179-0.337,2.153-1.013,2.923
		s-1.724,1.154-3.144,1.154c-1.186,0-2.126-0.34-2.822-1.021c-0.697-0.681-1.046-1.595-1.046-2.742c0-1.229,0.367-2.208,1.102-2.937
		s1.721-1.093,2.959-1.093C221.815,114.787,222.754,115.102,223.521,115.729z M222.615,120.596c0.355-0.617,0.533-1.304,0.533-2.059
		c0-0.683-0.129-1.238-0.385-1.666c-0.405-0.674-1.104-1.011-2.098-1.011c-0.881,0-1.521,0.287-1.922,0.86s-0.601,1.266-0.601,2.075
		c0,0.779,0.2,1.428,0.601,1.946s1.035,0.778,1.906,0.778C221.605,121.521,222.261,121.212,222.615,120.596z"/>
	<path fill="#FFFFFF" d="M231.225,115.225c0.258,0.137,0.551,0.376,0.879,0.718v-3.698h1.4v10.076h-1.312v-1.019
		c-0.339,0.451-0.739,0.777-1.202,0.978c-0.462,0.2-0.992,0.301-1.589,0.301c-0.963,0-1.796-0.343-2.501-1.029
		c-0.704-0.686-1.057-1.598-1.057-2.737c0-1.066,0.321-1.99,0.964-2.772c0.643-0.781,1.562-1.172,2.755-1.172
		C230.224,114.869,230.778,114.987,231.225,115.225z M227.971,120.714c0.393,0.528,1.021,0.793,1.886,0.793
		c0.671,0,1.223-0.245,1.655-0.735c0.433-0.489,0.648-1.192,0.648-2.108c0-0.925-0.223-1.61-0.669-2.054
		c-0.445-0.445-0.996-0.667-1.651-0.667c-0.73,0-1.322,0.237-1.776,0.711s-0.681,1.171-0.681,2.092
		C227.383,119.529,227.578,120.186,227.971,120.714z"/>
	<path fill="#FFFFFF" d="M241.04,115.201c0.574,0.243,1.011,0.559,1.312,0.946c0.29,0.369,0.483,0.8,0.58,1.292
		c0.085,0.337,0.128,0.875,0.128,1.613h-6.308c0.027,0.745,0.233,1.343,0.619,1.793s0.982,0.675,1.791,0.675
		c0.756,0,1.358-0.213,1.808-0.639c0.252-0.247,0.431-0.533,0.535-0.858h1.434c-0.038,0.269-0.163,0.568-0.377,0.898
		c-0.213,0.331-0.451,0.601-0.713,0.811c-0.439,0.364-0.983,0.61-1.632,0.738c-0.348,0.073-0.742,0.109-1.182,0.109
		c-1.072,0-1.981-0.332-2.728-0.994c-0.746-0.664-1.118-1.592-1.118-2.786c0-1.176,0.375-2.131,1.126-2.864
		c0.752-0.733,1.733-1.101,2.946-1.101C239.873,114.835,240.466,114.957,241.04,115.201z M241.562,118.075
		c-0.059-0.533-0.195-0.959-0.409-1.278c-0.396-0.593-1.058-0.889-1.983-0.889c-0.663,0-1.221,0.204-1.67,0.611
		c-0.449,0.408-0.688,0.927-0.715,1.556H241.562z"/>
	<path fill="#FFFFFF" d="M250.635,115.389c0.612,0.401,0.981,1.092,1.105,2.071h-1.417c-0.087-0.451-0.283-0.826-0.592-1.124
		c-0.308-0.299-0.801-0.448-1.481-0.448c-0.929,0-1.593,0.383-1.992,1.147c-0.259,0.496-0.389,1.108-0.389,1.836
		c0,0.733,0.184,1.35,0.551,1.851s0.944,0.751,1.733,0.751c0.604,0,1.083-0.155,1.437-0.467c0.354-0.311,0.599-0.736,0.733-1.276
		h1.417c-0.162,0.971-0.567,1.681-1.215,2.13c-0.647,0.448-1.477,0.673-2.486,0.673c-1.133,0-2.037-0.35-2.712-1.05
		c-0.675-0.699-1.013-1.573-1.013-2.621c0-1.285,0.37-2.285,1.109-3.001s1.682-1.073,2.826-1.073
		C249.228,114.787,250.022,114.987,250.635,115.389z"/>
</g>
</svg>
