<?xml version="1.0" encoding="UTF-8" standalone="no"?>
<svg
   xmlns:dc="http://purl.org/dc/elements/1.1/"
   xmlns:cc="http://creativecommons.org/ns#"
   xmlns:rdf="http://www.w3.org/1999/02/22-rdf-syntax-ns#"
   xmlns:svg="http://www.w3.org/2000/svg"
   xmlns="http://www.w3.org/2000/svg"
   xml:space="preserve"
   enable-background="new 0 0 262 130"
   viewBox="0 0 262 262"
   height="262"
   width="262"
   y="0px"
   x="0px"
   id="Layer_1"
   version="1.1"><metadata
   id="metadata3804"><rdf:RDF><cc:Work
       rdf:about=""><dc:format>image/svg+xml</dc:format><dc:type
         rdf:resource="http://purl.org/dc/dcmitype/StillImage" /><dc:title></dc:title></cc:Work></rdf:RDF></metadata><defs
   id="defs3802" />












<g
   transform="translate(0,66.75)"
   id="g4404"><rect
     x="-0.5"
     y="-0.75"
     stroke="#000000"
     width="262"
     height="130"
     id="rect3691" /><g
     id="row_1_1_">
	<rect
   x="2.5"
   y="113.25"
   fill="#009818"
   width="8"
   height="12"
   id="rect3693" />
	<rect
   x="15.5"
   y="113.25"
   fill="#009818"
   width="8"
   height="12"
   id="rect3695" />
	<rect
   x="28.5"
   y="113.25"
   fill="#009818"
   width="8"
   height="12"
   id="rect3697" />
	<rect
   x="41.5"
   y="113.25"
   fill="#009818"
   width="8"
   height="12"
   id="rect3699" />
</g><g
     id="row_2_1_">
	<rect
   x="2.5"
   y="97.25"
   fill="#009818"
   width="8"
   height="12"
   id="rect3702" />
	<rect
   x="15.5"
   y="97.25"
   fill="#009818"
   width="8"
   height="12"
   id="rect3704" />
	<rect
   x="28.5"
   y="97.25"
   fill="#009818"
   width="8"
   height="12"
   id="rect3706" />
	<rect
   x="41.5"
   y="97.25"
   fill="#009818"
   width="8"
   height="12"
   id="rect3708" />
</g><g
     id="row_3_1_">
	<rect
   x="2.5"
   y="81.25"
   fill="#009818"
   width="8"
   height="12"
   id="rect3711" />
	<rect
   x="15.5"
   y="81.25"
   fill="#009818"
   width="8"
   height="12"
   id="rect3713" />
	<rect
   x="28.5"
   y="81.25"
   fill="#009818"
   width="8"
   height="12"
   id="rect3715" />
	<rect
   x="41.5"
   y="81.25"
   fill="#009818"
   width="8"
   height="12"
   id="rect3717" />
</g><g
     id="row_4_2_">
	<rect
   x="2.5"
   y="65.25"
   fill="#FCFF00"
   width="8"
   height="12"
   id="rect3720" />
	<rect
   x="15.5"
   y="65.25"
   fill="#FCFF00"
   width="8"
   height="12"
   id="rect3722" />
	<rect
   x="28.5"
   y="65.25"
   fill="#FCFF00"
   width="8"
   height="12"
   id="rect3724" />
	<rect
   x="41.5"
   y="65.25"
   fill="#FCFF00"
   width="8"
   height="12"
   id="rect3726" />
</g><g
     id="row_5_1_">
	<rect
   x="2.5"
   y="49.25"
   fill="#FCFF00"
   width="8"
   height="12"
   id="rect3729" />
	<rect
   x="15.5"
   y="49.25"
   fill="#FCFF00"
   width="8"
   height="12"
   id="rect3731" />
	<rect
   x="28.5"
   y="49.25"
   fill="#FCFF00"
   width="8"
   height="12"
   id="rect3733" />
</g><g
     id="row_6_1_">
	<rect
   x="2.5"
   y="34.25"
   fill="#FCFF00"
   width="8"
   height="12"
   id="rect3736" />
	<rect
   x="15.5"
   y="34.25"
   fill="#FCFF00"
   width="8"
   height="12"
   id="rect3738" />
	<rect
   x="28.5"
   y="34.25"
   fill="#FCFF00"
   width="8"
   height="12"
   id="rect3740" />
</g><g
     id="row_7_1_">
	<rect
   x="2.5"
   y="18.25"
   fill="#FF0000"
   width="8"
   height="12"
   id="rect3743" />
	<rect
   x="28.5"
   y="18.25"
   fill="#FF0000"
   width="8"
   height="12"
   id="rect3745" />
</g><rect
     id="block_8_1_"
     x="2.5"
     y="2.25"
     fill="#FF0000"
     width="8"
     height="12" /><path
     id="c"
     fill="#FFFFFF"
     d="m 234.5,83.938 c -9.769,0 -17.688,-7.919 -17.688,-17.688 0,-9.769 7.919,-17.688 17.688,-17.688 4.412,0 8.438,1.626 11.536,4.298 l 10.949,-15.987 c -6.232,-4.778 -14.024,-7.624 -22.485,-7.624 -20.435,0 -37,16.565 -37,37 0,20.436 16.565,37 37,37 9.058,0 17.351,-3.259 23.782,-8.662 l -11.64,-15.499 c -3.169,2.999 -7.435,4.85 -12.142,4.85 z" /><path
     id="a"
     fill="#FFFFFF"
     d="m 147,32 -2.5,17.167 c 28.834,-9.417 29,6.083 29,6.083 v 5.617 c -4.246,-3.802 -9.853,-6.117 -16,-6.117 -13.254,0 -24,10.746 -24,24 0,13.254 10.746,24 24,24 6.147,0 11.754,-2.314 16,-6.117 V 101 L 190.417,100.166 191.5,48.5 c 0,-5.917 -9,-26.25 -44.5,-16.5 z m 15.5,53.75 c -5.247,0 -9.5,-3.806 -9.5,-8.5 0,-4.694 4.253,-8.5 9.5,-8.5 5.247,0 9.5,3.806 9.5,8.5 0,4.694 -4.253,8.5 -9.5,8.5 z" /><polygon
     id="l"
     fill="#FFFFFF"
     points="128.334,6.084 128.334,99.584 108.5,101.75 108.5,8.25 " /><path
     id="f"
     fill="#FFFFFF"
     d="m 66.5,101.292 19,-2.041 V 49.292 L 96.469,49.281 V 32.25 h -11 v -2.156 c 0,-5.219 4.594,-7.823 8.281,-7.823 h 8.688 l -5,-17.958 h -6.812 c -12.25,0 -24.125,8.812 -24.125,23.812 v 4.125 h -7 l -4,17 h 10.875 z" /></g>

</svg>
