<?xml version="1.0" encoding="UTF-8" standalone="no"?>
<svg xmlns="http://www.w3.org/2000/svg" version="1.1" viewBox="0 0 256 256" height="256" width="256">
<path d="m4.5 34.734c-2.4852 0.000221-4.4998 2.0148-4.5 4.5v177.54c0.0015821 0.0334 0.0035353 0.0667 0.0058594 0.1 0.0018525 0.0901 0.0064119 0.18016 0.013672 0.27 0.0053026 0.0601 0.011814 0.12014 0.019531 0.18 0.0095606 0.0803 0.021284 0.16033 0.035157 0.24 0.013788 0.0737 0.029417 0.14707 0.046871 0.22 0.017026 0.0738 0.035912 0.14715 0.05664 0.22 0.019775 0.0705 0.041268 0.14053 0.06446 0.21 0.025425 0.074 0.052778 0.14739 0.08203 0.22 0.025883 0.064 0.053234 0.1273 0.08203 0.19 0.032033 0.0709 0.065898 0.14089 0.10156 0.21 0.032979 0.0641 0.067496 0.12751 0.10352 0.19 0.042167 0.0746 0.086455 0.14795 0.13281 0.22 0.034134 0.0507 0.069298 0.10072 0.10547 0.15 0.050206 0.0681 0.10232 0.13482 0.15629 0.2 0.041743 0.0543 0.084721 0.10765 0.1289 0.16 0.054315 0.0615 0.1103 0.12154 0.1679 0.18 0.04715 0.0477 0.095362 0.0944 0.1446 0.14 0.062799 0.0585 0.12726 0.11519 0.1933 0.17 0.048742 0.0377 0.098252 0.0744 0.1485 0.11 0.066284 0.0519 0.13401 0.10191 0.2031 0.15 0.060842 0.0415 0.12269 0.0815 0.1855 0.12 0.064836 0.0383 0.13062 0.075 0.1973 0.11 0.064278 0.0349 0.1294 0.0683 0.1953 0.1 0.070184 0.0318 0.14117 0.0618 0.2129 0.09 0.061345 0.0247 0.12323 0.048 0.1856 0.07 0.082429 0.0325 0.1658 0.0625 0.25 0.09 0.063426 0.0181 0.12724 0.0347 0.1914 0.05 0.074428 0.0186 0.14932 0.0353 0.2246 0.05 0.074603 0.0119 0.14949 0.0219 0.2246 0.03 0.078488 0.0121 0.15728 0.0221 0.2363 0.03 0.0825 0.009 0.16523 0.0156 0.2481 0.02 0.052005 0.004 0.10408 0.008 0.1562 0.01h209.62 1.63c1.988-0.00063 3.74-1.3055 4.31-3.21l35.75-119.18c0.86487-2.8867-1.2965-5.7913-4.31-5.792h-32.88v-36.596c-0.00022-2.4852-2.0148-4.4998-4.5-4.5h-122.66l0.007-12.756c0.000884-2.486-2.014-4.5018-4.5-4.502h-82.467zm4.5 9h73.465l-0.002 12.756c-0.000884 2.486 2.014 4.5018 4.5 4.502h122.66v32.096h-87.31c-1.2274 0.000432-2.4014 0.50218-3.25 1.389l-23.857 24.913h-57.392c-1.8997-0.00051-3.5952 1.192-4.237 2.98l-24.574 68.52v-147.16z" fill-rule="evenodd" fill="#72a7cf"/>
</svg>
