<?xml version="1.0" encoding="UTF-8" standalone="no"?>
<!-- Generator: Adobe Illustrator 16.0.0, SVG Export Plug-In . SVG Version: 6.00 Build 0)  -->
<svg id="Layer_2" xmlns:rdf="http://www.w3.org/1999/02/22-rdf-syntax-ns#" xmlns="http://www.w3.org/2000/svg" enable-background="new 0 0 841.89 595.28" xml:space="preserve" height="129.16" viewBox="0 0 129.92 129.16047" width="129.92" version="1.1" y="0px" x="0px" xmlns:cc="http://creativecommons.org/ns#" xmlns:xlink="http://www.w3.org/1999/xlink" xmlns:dc="http://purl.org/dc/elements/1.1/"><metadata id="metadata55"><rdf:RDF><cc:Work rdf:about=""><dc:format>image/svg+xml</dc:format><dc:type rdf:resource="http://purl.org/dc/dcmitype/StillImage"/><dc:title/></cc:Work></rdf:RDF></metadata><defs id="defs53"><linearGradient id="linearGradient3003" y2="252.48" gradientUnits="userSpaceOnUse" x2="210.54" gradientTransform="translate(-124.695,-206.60063)" y1="284.51" x1="226.86"><stop id="stop12" stop-color="#FCD08F" offset="0"/><stop id="stop14" stop-color="#F79673" offset="1"/></linearGradient><linearGradient id="linearGradient3005" y2="346.37" gradientUnits="userSpaceOnUse" x2="140.99" gradientTransform="translate(-124.695,-206.60063)" y1="279.74" x1="203.13"><stop id="stop19" stop-color="#E74047" offset="0"/><stop id="stop21" stop-color="#7F50A0" offset="1"/></linearGradient><linearGradient id="linearGradient3007" y2="196.31" gradientUnits="userSpaceOnUse" x2="140.34" gradientTransform="translate(-124.695,-206.60063)" y1="261.67" x1="203.46"><stop id="stop26" stop-color="#E6FFAB" offset="0"/><stop id="stop28" stop-color="#47BEBC" offset="1"/></linearGradient><linearGradient id="linearGradient3009" y2="206.75" gradientUnits="userSpaceOnUse" x2="159.24" gradientTransform="translate(-124.695,-206.60063)" y1="335.72" x1="159.24"><stop id="stop33" stop-color="#84E9DB" offset="0"/><stop id="stop35" stop-color="#197491" offset="1"/></linearGradient></defs><g id="g2997" transform="translate(4.4980078,0)"><path id="path16" d="m89.178,84.522c15.287-8.367,26.962-14.758,28.024-15.34,3.168-1.734,6.487-6.159,0-9.696-2.085-1.139-13.446-7.334-28.042-15.297l-20.075,20.229,20.093,20.104z" fill="url(#linearGradient3003)"/><path id="path23" d="M69.084,64.418,4.876,129.12c1.45,0.184,3.194-0.2,5.2-1.298,4.153-2.273,48.753-26.686,79.102-43.298l-20.094-20.102z" fill="url(#linearGradient3005)"/><path id="path30" d="m69.084,64.418,20.075-20.229s-74.616-40.709-79.083-43.146c-1.717-0.93663-3.589-1.2636-5.246-0.89463l64.254,64.27z" fill="url(#linearGradient3007)"/><path id="path37" d="M69.084,64.418,4.829,0.14937c-2.654,0.592-4.829,2.889-4.829,7.506v113.75c0,4.348,1.711,7.406,4.875,7.711l64.209-64.702z" fill="url(#linearGradient3009)"/></g></svg>
