<?xml version="1.0" encoding="UTF-8" standalone="no"?>
<!-- Created with Inkscape (http://www.inkscape.org/) -->
<svg id="svg2956" xmlns:rdf="http://www.w3.org/1999/02/22-rdf-syntax-ns#" xmlns="http://www.w3.org/2000/svg" height="619.5" width="615.87" version="1.0" xmlns:cc="http://creativecommons.org/ns#" xmlns:xlink="http://www.w3.org/1999/xlink" xmlns:dc="http://purl.org/dc/elements/1.1/">
 <metadata id="metadata37">
  <rdf:RDF>
   <cc:Work rdf:about="">
    <dc:format>image/svg+xml</dc:format>
    <dc:type rdf:resource="http://purl.org/dc/dcmitype/StillImage"/>
    <dc:title/>
   </cc:Work>
  </rdf:RDF>
 </metadata>
 <defs id="defs2958">
  <linearGradient id="linearGradient3047" y2="416.39" gradientUnits="userSpaceOnUse" y1="346.13" gradientTransform="matrix(-1.220715,0.70478008,-0.70478008,-1.220715,643.27913,630.06029)" x2="-12.851" x1="-25.038">
   <stop id="stop2627" stop-color="#b3b3b3" offset="0"/>
   <stop id="stop2629" stop-color="#f2f2f2" offset="1"/>
  </linearGradient>
  <radialGradient id="radialGradient3050" gradientUnits="userSpaceOnUse" cx="13.874" cy="400.75" r="97.219" gradientTransform="matrix(-4.987766,-5.9692023,4.3332325,-4.2563489,-1277.3956,1904.4854)">
   <stop id="stop2415" stop-color="#000" offset="0"/>
   <stop id="stop2417" stop-color="#ff2a2a" stop-opacity="0" offset="1"/>
  </radialGradient>
  <radialGradient id="radialGradient3062" gradientUnits="userSpaceOnUse" cx="79.286" cy="320.22" r="217.18" gradientTransform="matrix(0.14049278,1.7146482,-2.1587178,0.17688296,965.05073,122.58351)">
   <stop id="stop2458" stop-color="#000" offset="0"/>
   <stop id="stop2460" stop-color="#CCC" offset="1"/>
  </radialGradient>
  <radialGradient id="radialGradient3836-21" gradientUnits="userSpaceOnUse" cx="-10.714" cy="146.64" r="217.18" gradientTransform="matrix(0.5899997,1.7361314,-0.9467722,0.3217489,105.92801,139.03751)">
   <stop id="stop3881" stop-color="#f2f2f2" offset="0"/>
   <stop id="stop3883" stop-color="#e6e6e6" offset="1"/>
  </radialGradient>
  <radialGradient id="radialGradient3838-698" gradientUnits="userSpaceOnUse" cx="24.622" cy="113.59" r="217.18" gradientTransform="matrix(0.5899997,1.7361314,-0.9467722,0.3217489,105.91968,139.75035)">
   <stop id="stop3887" stop-color="#0F0" offset="0"/>
   <stop id="stop3889" stop-color="#008000" offset="1"/>
  </radialGradient>
 </defs>
 <path id="path2454" fill="url(#radialGradient3062)" d="M462.84,578.47c140.11-80.89,192.04-256.05,122.04-399.24l-399.58-145.44c-9.653,4.3103-19.177,9.1388-28.532,14.54-146.32,84.477-196.51,271.82-112.04,418.14,84.478,146.31,271.8,196.47,418.11,112zm122.04-399.24c-1.2306-2.517-2.481-5.0319-3.787-7.5284,1.3027,2.4965,2.5554,5.0092,3.787,7.5284zm-21.732-37.553c-0.77596-1.1471-1.548-2.2982-2.3373-3.4317,0.79467,1.1411,1.5561,2.2769,2.3373,3.4317zm-18.04-24.02c-1.2022-1.448-2.3891-2.9007-3.6143-4.322,1.2244,1.4204,2.413,2.875,3.6143,4.322zm-23.98-25.677c-1.5328-1.4633-3.0442-2.9338-4.6034-4.3613,1.5601,1.4283,3.0699,2.8972,4.6034,4.3613zm-20.75-18.135c-3.5999-2.8603-7.2854-5.6152-10.997-8.2995,3.7149,2.6865,7.3939,5.4367,10.997,8.2995zm-10.997-8.2995c-1.8869-1.3646-3.7749-2.7208-5.6892-4.0396,1.9089,1.3151,3.8076,2.6789,5.6892,4.0396zm-5.6892-4.0396c-1.7366-1.1963-3.4859-2.3751-5.2444-3.5335,1.7578,1.158,3.5086,2.3376,5.2444,3.5335zm-5.9842-4.0219c-1.8549-1.2142-3.7433-2.3981-5.6216-3.57,1.8882,1.1779,3.757,2.3494,5.6216,3.57zm-5.6216-3.57c-1.7193-1.0727-3.4444-2.1251-5.1827-3.1622,1.7398,1.0378,3.4619,2.0888,5.1827,3.1622zm-12.3-7.293c-1.6419-0.9206-3.2832-1.8532-4.9404-2.7426,1.6627,0.89238,3.2931,1.8188,4.9404,2.7426zm-6.6708-3.6254c-1.7105-0.90415-3.4272-1.7997-5.1532-2.6706,1.7239,0.86995,3.4446,1.7675,5.1532,2.6706zm-5.1532-2.6706c-2.0529-1.0359-4.1081-2.0544-6.182-3.043,2.0752,0.98927,4.1278,2.0065,6.182,3.043zm-6.182-3.043c-2.0122-0.95923-4.0187-1.8996-6.0499-2.8142,2.0278,0.91317,4.041,1.8565,6.0499,2.8142zm-14.376-6.3995c-1.5132-0.62852-3.0478-1.2333-4.5703-1.8373,1.5286,0.60634,3.051,1.2063,4.5703,1.8373zm-4.5703-1.8373c-2.1418-0.84974-4.2661-1.6945-6.4254-2.4956,2.1504,0.79775,4.2925,1.6496,6.4254,2.4956zm-21.495-7.6299c-3.3146-1.0384-6.6369-2.0076-9.9842-2.9332,3.3466,0.92522,6.6702,1.8953,9.9842,2.9332zm-31.167-7.9966c-2.2439-0.45274-4.4937-0.88946-6.7479-1.2922,2.2575,0.40315,4.5006,0.83883,6.7479,1.2922zm-6.7479-1.2922c-2.1281-0.38019-4.2446-0.7617-6.381-1.0971,2.1221,0.33329,4.2671,0.71961,6.381,1.0971zm-7.3759-1.2347c-2.077-0.31912-4.1647-0.59161-6.2488-0.86823,2.0886,0.2773,4.1673,0.54826,6.2488,0.86823zm-6.2488-0.86823c-2.2728-0.30166-4.5584-0.58189-6.8387-0.83278,2.2829,0.25118,4.5634,0.53073,6.8387,0.83278zm-13.67-1.5061c-2.2909-0.20017-4.5845-0.40523-6.8812-0.55397,2.2953,0.14868,4.5917,0.35393,6.8812,0.55397zm-6.8812-0.55397c-2.2858-0.14803-4.5788-0.26047-6.8694-0.35732,2.3001,0.096978,4.5741,0.20866,6.8694,0.35732zm-6.8694-0.35732c-2.3106-0.097682-4.6251-0.1696-6.9398-0.21496,2.304,0.045106,4.6397,0.11798,6.9398,0.21496zm-48.498,1.8059c-2.3124,0.27124-4.603,0.5636-6.913,0.88856,2.3065-0.32459,4.6042-0.61754,6.913-0.88856zm-6.913,0.88856c-1.8887,0.2657-3.7644,0.57029-5.651,0.87202,1.8814-0.30091,3.7675-0.60697,5.651-0.87202zm-13.835,2.2908c-2.2969,0.43193-4.5916,0.89406-6.8835,1.3801,2.2941-0.48666,4.5844-0.94773,6.8835-1.3801zm-28.386,6.7756c-1.9556,0.56666-3.9055,1.145-5.8547,1.7526,1.9481-0.60739,3.9001-1.186,5.8547-1.7526zm-5.8547,1.7526c-2.2606,0.70467-4.525,1.4229-6.7761,2.1829,2.2553-0.76166,4.5112-1.4767,6.7761-2.1829zm-14.331,4.8664c-4.2223,1.5506-8.4296,3.1914-12.61,4.9406,4.1805-1.7494,8.3874-3.3899,12.61-4.9406z"/>
 <g id="g2609" transform="matrix(1.4095596,0,0,1.4095596,178.24651,-134.95192)">
  <path id="path4474" fill="url(#radialGradient3836-21)" d="M201.13,506.47c99.4-57.39,136.24-181.65,86.58-283.23l-283.48-103.18c-6.8482,3.0579-13.605,6.4834-20.242,10.315-103.8,59.931-139.42,192.84-79.485,296.64,59.931,103.8,192.82,139.39,296.63,79.458zm86.58-283.23c-0.873-1.7856-1.7601-3.5698-2.6867-5.341,0.92418,1.7711,1.8129,3.5537,2.6867,5.341zm-15.418-26.642c-0.5505-0.8138-1.0982-1.6304-1.6582-2.4346,0.56378,0.80953,1.104,1.6153,1.6582,2.4346zm-12.797-17.041c-0.85288-1.0272-1.6949-2.0579-2.5642-3.0662,0.86864,1.0077,1.7118,2.0397,2.5642,3.0662zm-17.012-18.216c-1.0874-1.0381-2.1596-2.0814-3.2658-3.0941,1.1068,1.0133,2.1779,2.0554,3.2658,3.0941zm-14.717-12.865c-2.5539-2.0292-5.1686-3.9837-7.8017-5.888,2.6355,1.9059,5.2456,3.857,7.8017,5.888zm-7.8017-5.888c-1.3386-0.96813-2.678-1.9303-4.0362-2.8659,1.3543,0.93301,2.7013,1.9005,4.0362,2.8659zm-4.0362-2.8659c-1.232-0.84872-2.473-1.685-3.7206-2.5068,1.247,0.82154,2.4891,1.6584,3.7206,2.5068zm-4.2454-2.8533c-1.3159-0.86138-2.6556-1.7013-3.9882-2.5327,1.3396,0.83565,2.6654,1.6668,3.9882,2.5327zm-3.9882-2.5327c-1.2198-0.76101-2.4436-1.5076-3.6768-2.2434,1.2343,0.73626,2.456,1.4819,3.6768,2.2434zm-8.7249-5.1745c-1.1648-0.65312-2.3293-1.3147-3.5049-1.9457,1.1796,0.63309,2.3362,1.2903,3.5049,1.9457zm-4.7326-2.572c-1.2135-0.64144-2.4314-1.2768-3.6559-1.8946,1.223,0.61717,2.4438,1.254,3.6559,1.8946zm-3.6559-1.8946c-1.4564-0.7349-2.9145-1.4575-4.3858-2.1589,1.4722,0.70183,2.9285,1.4235,4.3858,2.1589zm-4.3858-2.1589c-1.4275-0.68052-2.851-1.3476-4.292-1.9965,1.4386,0.64783,2.8668,1.3171,4.292,1.9965zm-10.199-4.54c-1.0735-0.44588-2.1622-0.87491-3.2424-1.3034,1.0845,0.43015,2.1645,0.85577,3.2424,1.3034zm-3.2424-1.3034c-1.5195-0.60285-3.0265-1.2022-4.5585-1.7705,1.5256,0.56596,3.0453,1.1703,4.5585,1.7705zm-15.25-5.413c-2.3515-0.73665-4.7085-1.4243-7.0832-2.081,2.3742,0.65639,4.7321,1.3446,7.0832,2.081zm-22.111-5.6731c-1.592-0.32119-3.188-0.63101-4.7872-0.91671,1.6016,0.28601,3.1929,0.5951,4.7872,0.91671zm-4.7872-0.91671c-1.5098-0.26972-3.0113-0.54038-4.5269-0.77832,1.5055,0.23645,3.0272,0.51051,4.5269,0.77832zm-5.2328-0.87596c-1.4735-0.22639-2.9546-0.41972-4.4332-0.61595,1.4817,0.19672,2.9565,0.38895,4.4332,0.61595zm-4.4332-0.61595c-1.6124-0.21401-3.2339-0.41283-4.8517-0.59082,1.6196,0.1782,3.2374,0.37652,4.8517,0.59082zm-9.7106-1.0692c-1.6252-0.14202-3.2525-0.28749-4.8818-0.393,1.6284,0.10547,3.2575,0.25107,4.8818,0.393zm-4.8818-0.393c-1.6216-0.10503-3.2484-0.1848-4.8734-0.25351,1.6318,0.0688,3.2451,0.14804,4.8734,0.25351zm-4.8734-0.25351c-1.6393-0.0693-3.2813-0.12032-4.9234-0.1525,1.6346,0.032,3.2916,0.0837,4.9234,0.1525zm-34.407,1.2812c-1.6405,0.19244-3.2656,0.39984-4.9044,0.63038,1.6363-0.23028,3.2664-0.43811,4.9044-0.63038zm-4.9044,0.63038c-1.3399,0.18851-2.6706,0.40458-4.009,0.61865,1.3347-0.21348,2.6728-0.43061,4.009-0.61865zm-9.8149,1.6252c-1.6295,0.30644-3.2575,0.63429-4.8834,0.97915,1.6275-0.34527,3.2524-0.67237,4.8834-0.97915zm-20.138,4.8069c-1.3874,0.402-2.7707,0.81231-4.1535,1.2434,1.3821-0.43092,2.7669-0.84144,4.1535-1.2434zm-4.1535,1.2434c-1.6038,0.49992-3.2102,1.0095-4.8073,1.5486,1.6-0.54035,3.2005-1.0476,4.8073-1.5486zm-10.167,3.4524c-2.9955,1.1-5.9803,2.2641-8.946,3.5051,2.9659-1.2411,5.9504-2.4049,8.946-3.5051z"/>
  <path id="path2595" fill="url(#radialGradient3838-698)" d="m32.943,131.25c-5.8169,1.8456-11.555,3.9242-17.125,6.2812-5.8958,2.4951-11.632,5.2452-17.219,8.2812-5.5866,3.0361-11.006,6.3623-16.25,9.9062-5.2443,3.544-10.319,7.325-15.188,11.344-4.8689,4.0187-9.5396,8.2584-14,12.719-4.4604,4.4604-8.7,9.1311-12.719,14-4.0187,4.8689-7.7998,9.9432-11.344,15.188-3.544,5.2443-6.8702,10.663-9.9062,16.25-3.0361,5.5866-5.7862,11.323-8.2812,17.219-2.4951,5.8958-4.7353,11.953-6.6562,18.125-1.921,6.1719-3.53,12.46-4.8438,18.875-0.65689,3.2074-1.2511,6.4568-1.75,9.7188-0.49887,3.262-0.91328,6.5314-1.25,9.8438s-0.57957,6.6726-0.75,10.031c-0.17043,3.3586-0.25,6.7243-0.25,10.125s0.0796,6.7976,0.25,10.156c0.17043,3.3586,0.41328,6.6876,0.75,10s0.75113,6.613,1.25,9.875,1.0931,6.4801,1.75,9.6875c1.3138,6.4148,2.9228,12.734,4.8438,18.906,1.921,6.1719,4.1612,12.198,6.6562,18.094,2.4951,5.8958,5.2452,11.632,8.2812,17.219,3.0361,5.5866,6.3623,11.037,9.9062,16.281,3.544,5.2443,7.325,10.287,11.344,15.156,4.0187,4.8689,8.2584,9.5396,12.719,14,4.4604,4.4604,9.1311,8.7313,14,12.75s9.9432,7.7998,15.188,11.344c5.2443,3.544,10.663,6.8389,16.25,9.875,5.5866,3.0361,11.323,5.8174,17.219,8.3125,5.8958,2.4951,11.953,4.704,18.125,6.625,6.1719,1.921,12.46,3.5612,18.875,4.875,3.2074,0.65689,6.4568,1.2199,9.7188,1.7188,3.262,0.49887,6.5626,0.91328,9.875,1.25s6.6414,0.61082,10,0.78125,6.7243,0.25,10.125,0.25,6.7976-0.0796,10.156-0.25c3.3586-0.17043,6.6876-0.44453,10-0.78125s6.613-0.75113,9.875-1.25,6.4801-1.0619,9.6875-1.7188c6.4148-1.3138,12.734-2.954,18.906-4.875,6.1719-1.921,12.198-4.1299,18.094-6.625,5.8959-2.4951,11.632-5.2764,17.219-8.3125,5.5866-3.0361,11.037-6.331,16.281-9.875,5.2444-3.544,10.287-7.325,15.156-11.344,4.8689-4.0187,9.5396-8.2896,14-12.75s8.7313-9.1311,12.75-14,7.7998-9.9119,11.344-15.156c3.544-5.2443,6.839-10.695,9.875-16.281,3.0361-5.5866,5.8175-11.323,8.3126-17.219,2.495-5.8958,4.704-11.922,6.625-18.094,1.9209-6.1719,3.5612-12.491,4.875-18.906,0.6568-3.2074,1.2198-6.4256,1.7187-9.6875,0.4989-3.262,0.9133-6.5626,1.25-9.875s0.6108-6.6414,0.7813-10c0.1704-3.3586,0.25-6.7555,0.25-10.156,0-3.4007-0.0796-6.7664-0.25-10.125-0.1705-3.3586-0.4446-6.7189-0.7813-10.031-0.3367-3.3124-0.7511-6.5818-1.25-9.8438s-1.0619-6.5113-1.7187-9.7188c-1.3138-6.4148-2.9541-12.703-4.875-18.875-1.921-6.1719-4.13-12.229-6.625-18.125-2.4951-5.8958-5.2765-11.632-8.3126-17.219-2.212-4.0703-4.7035-7.9528-7.1874-11.844l-225.75-82.125z"/>
 </g>
 <path id="path2411" fill="url(#radialGradient3050)" d="m182.27,26.994c2.9324,6.8222,6.0853,13.556,9.5108,20.213,75.51,146.75,244.97,198.69,390.06,125.22l-399.57-145.44z"/>
 <path id="path2385" fill="url(#linearGradient3047)" d="m181.62,26.757c3.1043,6.3497,6.4242,12.625,10.011,18.838,79.07,136.96,248.24,189.7,389.56,126.6l-399.57-145.44z"/>
 <path id="text3900" style="text-align:center;" fill="#FFF" d="m125.46,183.85c-2.6117-5.1264-5.1013-8.6966-7.4688-10.71-2.3677-2.0136-6.3621-3.9714-11.983-5.8735-3.0922-1.2306-7.3675-2.672-12.826-4.3243-5.4588-1.652-10.714-2.3782-15.767-2.1787-5.0527,0.19979-8.5161,2.4619-10.39,6.7864-1.1358,3.5894-0.7401,6.3121,1.1871,8.1681,1.9271,1.8562,3.8694,4.1978,5.8271,7.0249,1.9576,2.8273,2.4144,7.4922,1.3703,13.995-1.4968,7.2403-3.3956,14.361-5.6964,21.363-2.3009,7.0016-4.7242,13.932-7.2699,20.79-1.605,4.4469-3.4887,9.2513-5.651,14.413-2.1623,5.162-4.3451,9.7496-6.5482,13.763-2.1735,3.605-4.5385,5.7362-7.0951,6.3936-2.5567,0.65747-4.9649,1.2369-7.2247,1.7384-2.2599,0.50149-4.0314,2.3207-5.3145,5.4577-1.293,4.1387-0.58142,7.8031,2.1349,10.993,2.7163,3.19,6.1707,5.8686,10.363,8.0359,4.1925,2.1673,7.8566,3.7862,10.992,4.8569,3.1518,1.2205,7.0457,2.3471,11.682,3.3798,4.6361,1.0327,9.0326,1.1742,13.189,0.42457,4.1568-0.74971,7.0923-3.188,8.8064-7.3148,0.95768-2.9648,0.75754-5.243-0.60043-6.8346-1.3581-1.5916-2.8172-3.4-4.3774-5.4252-1.5603-2.0252-2.1648-5.1706-1.8135-9.4361,0.37504-2.7615,1.045-5.7396,2.0099-8.9345,0.96475-3.1948,1.9555-6.1642,2.9723-8.9082,0.77127-2.4777,2.2267-5.611,4.3663-9.3998,2.1394-3.7888,4.7086-5.3827,7.7074-4.7817,2.0195,0.89262,3.8103,2.5254,5.3722,4.8983,1.5617,2.373,2.7931,4.5042,3.694,6.3935l39.707,74.284c0.95925,1.8026,2.091,3.4656,3.3952,4.9888,1.304,1.5231,2.8998,2.6529,4.7874,3.3895,4.2647,1.2469,8.0238-0.0622,11.277-3.9274,3.2533-3.8652,5.9704-8.4656,8.1512-13.801,2.1805-5.3357,3.7941-9.5857,4.8407-12.75l17.98-49.4c1.3395-3.8414,3.0337-8.1748,5.0826-13,2.0486-4.8253,4.328-8.8376,6.8382-12.037,3.3617-3.0918,6.8455-4.4788,10.451-4.161,3.6056,0.31796,6.4697-1.8886,8.5924-6.6196,1.3578-4.3683,0.5511-8.0646-2.42-11.089-2.9715-3.0241-6.6752-5.4868-11.111-7.3881-4.4362-1.9012-8.1723-3.3516-11.208-4.3514-2.8312-1.1237-6.4284-2.3182-10.792-3.5838-4.3636-1.2654-8.5288-1.6907-12.496-1.276-3.9671,0.4149-6.7715,2.5809-8.4131,6.4979-1.3267,4.7823-0.57196,8.297,2.2643,10.544,2.8359,2.2473,4.4665,5.4328,4.8918,9.5565-0.11438,2.6135-0.67307,5.6322-1.6761,9.056-1.0033,3.4239-1.9782,6.3991-2.9246,8.9255-0.59287,1.9128-1.6419,4.078-3.1472,6.4955-1.5056,2.4176-3.4517,3.3383-5.8383,2.762-1.7824-0.86465-3.5319-2.6354-5.2485-5.3123-1.7168-2.6768-3.0067-4.8202-3.8695-6.4304l-30.764-56.125zm135.82,42.305c-4.2976-1.9285-9.3095-3.5637-15.036-4.9055-5.7262-1.3415-9.8418,0.64355-12.347,5.9552-1.3086,4.1265-0.85274,6.8231,1.3676,8.0898,2.2202,1.2669,4.1984,3.4296,5.9346,6.488,1.7361,3.0587,1.2236,9.3388-1.5374,18.84-3.3817,11.269-5.9744,19.646-7.7782,25.129-1.8039,5.4835-3.8447,10.893-6.1224,16.228-2.2778,5.335-5.8184,13.414-10.622,24.238-2.9431,6.2288-5.8864,9.8536-8.8299,10.874-2.9435,1.0207-5.6161,1.5279-8.0179,1.5217-2.4018-0.006-4.2616,1.5649-5.5795,4.7132-0.77352,1.334-0.82754,3.2133-0.16206,5.638,0.66547,2.4247,3.9842,4.8296,9.9561,7.2147l78.391,28.532c3.2366,1.196,6.1524,2.3833,8.7476,3.5619,2.595,1.1785,4.9039,2.2529,6.9269,3.2232,1.91,1.0327,3.547,1.9255,4.9111,2.6785,1.3638,0.75289,2.3854,1.2597,3.0646,1.5204,2.6985,0.74749,6.1683-0.44824,10.41-3.5872,4.241-3.139,8.3206-7.1529,12.239-12.041,3.9178-4.8887,6.7414-9.5837,8.4705-14.085,1.0354-2.8451,1.2559-5.8248,0.6616-8.9392-0.59461-3.1144-2.3859-5.3144-5.3738-6.5999-4.8599-1.3928-8.9012-0.23171-12.124,3.4833-3.223,3.715-7.7491,6.9556-13.578,9.7219-5.8296,2.7662-15.084,2.0298-27.764-2.2092-6.6442-2.205-11.424-4.2032-14.338-5.9947-2.9147-1.7915-4.1536-4.7251-3.7168-8.8008,0.43669-4.0757,2.3601-10.642,5.7702-19.7,0.99945-3.2902,2.389-6.1684,4.1688-8.6347,1.7796-2.4662,4.6165-3.0897,8.5108-1.8703,5.9934,2.4615,9.0062,5.5181,9.0385,9.1698,0.0321,3.6518-0.34893,7.1531-1.1431,10.504-0.79439,3.3509,0.56542,5.8058,4.0794,7.3648,3.8457,1.1344,7.4005,0.0789,10.665-3.1665,3.2638-3.2454,6.05-7.1566,8.3587-11.734,2.3085-4.577,3.9527-8.2959,4.9327-11.157,1.0413-2.6783,2.1519-6.3594,3.3315-11.043,1.1794-4.684,1.5939-9.1784,1.2436-13.483-0.35061-4.3048-2.3001-7.2277-5.8485-8.7687-4.302-1.2697-7.3839-0.31939-9.2456,2.8509-1.862,3.1704-3.7769,6.3214-5.7447,9.4531-1.968,3.1318-5.2618,4.005-9.8814,2.6195-5.677-1.8232-8.9749-3.6175-9.8938-5.383-0.91901-1.7654-0.30164-5.2667,1.8521-10.504,3.3547-10.861,6.4469-17.701,9.2771-20.518,2.8299-2.8174,9.2192-2.2468,19.168,1.7116,11.53,4.4527,18.586,8.8128,21.167,13.08,2.5813,4.2676,3.9865,8.1071,4.2157,11.518,0.22889,3.4114,2.5799,6.0591,7.053,7.9431,3.7326,1.1562,6.8621,0.59421,9.3886-1.6858,2.5262-2.2799,4.3688-5.0923,5.5278-8.437,1.7827-4.787,2.5916-10.793,2.4266-18.017-0.16531-7.224-2.838-12.121-8.0182-14.69-1.1388-0.23434-3.9292-0.52997-8.3712-0.88687-4.4423-0.35671-12.859-2.7003-25.251-7.0306l-54.931-19.993zm195.79,210.15c0.0982,4.6258,0.84274,8.5148,2.2336,11.667,1.3906,3.1521,4.3899,5.5938,8.9979,7.325,5.3809,1.7335,10.208,1.1323,14.48-1.8036,4.2724-2.936,8.3198-6.7368,12.142-11.403l64.046-73.889c5.0212-5.0798,9.267-7.9175,12.737-8.513,3.47-0.5954,6.0639-2.9003,7.7817-6.9147,1.4439-5.3153-0.0744-9.5759-4.5548-12.782-4.4809-3.2058-8.9261-5.5077-13.336-6.9058-2.7701-1.0974-6.32-2.2828-10.65-3.5562-4.3301-1.2732-8.4608-1.742-12.392-1.4064-3.9317,0.33578-6.6849,2.3684-8.2594,6.0978-1.1874,4.869-0.10454,8.3231,3.2484,10.362,3.3525,2.0394,4.6436,4.9213,3.8732,8.6458-0.52507,1.2517-2.5618,4.393-6.1101,9.4241-3.5487,5.0312-7.4035,9.7828-11.564,14.255-4.1613,4.4722-7.4231,6.4956-9.7855,6.0704-2.1844-1.281-3.5109-4.1398-3.9794-8.5764-0.46889-4.4366-0.70708-7.7633-0.71455-9.9801-0.31222-2.827-0.70844-6.8323-1.1887-12.016-0.4806-5.1833-0.31321-9.2534,0.50217-12.21,1.1674-2.095,3.3036-3.5134,6.4088-4.2554,3.1048-0.7418,5.38-2.5417,6.8254-5.3998,0.66231-1.0801,0.81822-2.7247,0.46775-4.9338-0.35086-2.2089-2.8228-4.9859-7.4158-8.3311-4.5933-3.345-12.922-7.2619-24.987-11.751-13.058-4.6005-22.543-6.9167-28.455-6.9487-5.9125-0.0318-9.6334,0.80588-11.163,2.5131-1.5295,1.7074-2.2486,2.8697-2.1571,3.4869-0.80215,2.3767-0.79988,4.5465,0.007,6.5095,0.80639,1.9631,2.0226,3.7648,3.6487,5.405,2.1767,3.0694,3.4256,6.908,3.7466,11.516,0.32077,4.6079,0.27799,7.5443-0.12832,8.8093-0.36708,0.79801-1.1687,1.9372-2.4049,3.4177-1.2365,1.4806-2.1638,2.52-2.782,3.1184-1.2279,1.7537-3.517,4.4575-6.8674,8.1115-3.3506,3.6541-6.3807,5.2782-9.0904,4.8724-2.0778-1.3142-3.2402-4.4012-3.4872-9.2612-0.24722-4.8599-0.27363-8.3975-0.0792-10.613-0.0437-1.7843-0.0802-5.4426-0.10948-10.975-0.0295-5.5322,0.41973-9.9316,1.3478-13.198,1.1821-2.6791,2.674-4.5031,4.4757-5.472,1.8015-0.96868,3.276-2.745,4.4236-5.329,1.8117-3.791,0.95299-7.5145-2.5762-11.171-3.5294-3.656-12.061-7.9584-25.596-12.907-3.1605-1.2368-7.5149-2.6004-13.063-4.0906-5.5484-1.49-10.875-2.0715-15.981-1.7446-5.1057,0.32714-8.5749,2.5978-10.407,6.812-1.2617,3.6569-1.3695,6.2097-0.3234,7.6583,1.046,1.4488,2.3463,3.1221,3.9009,5.0198,1.5545,1.8979,2.4638,5.3489,2.7279,10.353l2.5013,103.51c-0.0897,5.0434,0.49718,9.415,1.7606,13.115,1.2633,3.6998,4.4605,6.5375,9.5915,8.513,5.9683,2.0733,10.648,1.9764,14.038-0.29067,3.3901-2.2671,6.8738-5.6072,10.451-10.02l22.117-24.566c4.5604-5.1981,7.977-8.9226,10.25-11.173,2.2726-2.2508,4.2447-3.045,5.9162-2.3827,1.4321,0.75081,2.2258,2.2547,2.3809,4.5116,0.15492,2.2569,0.23314,4.0944,0.23465,5.5124l2.3442,48.157z"/>
</svg>
