<?xml version="1.0" encoding="UTF-8" standalone="no"?>
<!-- Created with Inkscape (http://www.inkscape.org/) -->

<svg
   version="1.1"
   id="svg2"
   xml:space="preserve"
   width="1122.52"
   height="793.70135"
   viewBox="0 0 1122.52 793.70135"
   xmlns="http://www.w3.org/2000/svg"
   xmlns:svg="http://www.w3.org/2000/svg"><defs
     id="defs6"><clipPath
       clipPathUnits="userSpaceOnUse"
       id="clipPath16"><path
         d="M 436.002,512.307 H 321.317 206.41 189.626 c -30.552,0 -58.212,-12.384 -78.233,-32.406 v 0 c -9.496,-9.495 -17.274,-20.708 -22.827,-33.133 v 0 C 82.41,432.995 78.987,417.73 78.987,401.667 v 0 -8.799 -64.692 -103.931 -73.176 -15.694 c 0,-18.664 4.621,-36.248 12.782,-51.672 v 0 c 5.199,-9.823 11.833,-18.771 19.624,-26.561 v 0 C 131.414,37.12 159.074,24.736 189.626,24.736 v 0 h 16.784 114.907 114.685 19.916 c 30.552,0 58.211,12.384 78.234,32.406 v 0 c 7.79,7.79 14.424,16.738 19.622,26.561 v 0 c 8.162,15.424 12.782,33.008 12.782,51.672 v 0 15.694 73.176 103.931 64.692 8.799 c 0,16.063 -3.422,31.328 -9.578,45.101 v 0 c -5.554,12.425 -13.331,23.638 -22.826,33.133 v 0 c -20.023,20.022 -47.682,32.406 -78.234,32.406 v 0 z"
         id="path14" /></clipPath><clipPath
       clipPathUnits="userSpaceOnUse"
       id="clipPath394"><path
         d="M 0,595.276 H 841.89 V 0 H 0 Z"
         id="path392" /></clipPath></defs><g
     id="g8"
     transform="matrix(1.3333333,0,0,-1.3333333,0,793.70133)"><g
       id="g10"><g
         id="g12"
         clip-path="url(#clipPath16)"><g
           id="g18"><g
             id="g20"
             transform="scale(1,-1)"><g
               id="g22"><path
                 d="m 111.39254,-57.141581 c -3.8955,-3.895509 -7.50146,-8.08008 -10.78368,-12.518558 5.6914,4.899415 11.77294,9.11133 18.17137,12.68262 2.49707,4.762697 5.30957,9.268557 8.98633,13.345707 -5.88623,-3.976564 -11.36865,-8.504885 -16.37402,-13.509769 z"
                 style="fill:#eeab32;fill-opacity:1;fill-rule:nonzero;stroke:none"
                 id="path24" /><path
                 d="m 127.76656,-43.631812 c -3.67676,-4.07715 -6.48926,-8.58301 -8.98633,-13.345707 6.39844,3.57129 13.11377,6.501955 20.07324,8.841799 2.10693,5.246095 4.51073,10.227542 7.70653,14.704105 -6.61816,-2.798828 -12.90722,-6.223634 -18.79344,-10.200197 z"
                 style="fill:#eeba49;fill-opacity:1;fill-rule:nonzero;stroke:none"
                 id="path26" /><path
                 d="m 100.60886,-69.660139 c 11.3828,9.79883 24.32616,16.845707 38.24461,21.524419 -2.10694,-5.246095 -3.91699,-10.755862 -5.92481,-16.291019 -14.51952,-3.728517 -28.40379,-9.689456 -41.159152,-19.276372 2.599119,4.91211 5.557125,9.604494 8.839352,14.042972 z"
                 style="fill:#eda92c;fill-opacity:1;fill-rule:nonzero;stroke:none"
                 id="path28" /><path
                 d="m 146.56,-33.431615 c -6.39111,-8.954103 -9.61523,-19.925786 -13.63134,-30.995124 14.51904,3.728516 29.67382,5.225587 44.97019,5.88379 2.83447,12.31348 6.73437,23.687506 11.72656,33.806649 -15.27587,0 -29.8286,-3.09668 -43.06541,-8.695315 z"
                 style="fill:#eec55b;fill-opacity:1;fill-rule:nonzero;stroke:none"
                 id="path30" /><path
                 d="m 189.62541,-24.7363 c 5.59521,0 11.18993,0 16.78466,0 -4.78613,-9.948245 -8.49219,-21.170904 -11.20214,-33.343758 -5.77197,-0.08496 -11.55029,-0.214844 -17.30908,-0.462891 2.83447,12.31348 6.73437,23.687506 11.72656,33.806649 z"
                 style="fill:#edd174;fill-opacity:1;fill-rule:nonzero;stroke:none"
                 id="path32" /><path
                 d="m 206.41007,-24.7363 c -4.78613,-9.948245 -8.49219,-21.170904 -11.20214,-33.343758 20.78905,0.420898 41.58103,0.6875 62.37349,0.858399 1.50782,12.047854 3.58106,22.638677 6.28223,32.485359 -19.15136,0 -38.30223,0 -57.45358,0 z"
                 style="fill:#edd279;fill-opacity:1;fill-rule:nonzero;stroke:none"
                 id="path34" /><path
                 d="m 263.86365,-24.7363 c 19.15087,0 38.30222,0 57.45309,0 -0.30811,-4.873048 -0.56982,-9.943362 -0.79297,-15.286136 -19.97264,-0.01758 -40.1113,-0.0498 -60.2485,-0.13086 1.04395,5.384767 2.23779,10.493167 3.58838,15.416996 z"
                 style="fill:#e9d181;fill-opacity:1;fill-rule:nonzero;stroke:none"
                 id="path36" /><path
                 d="m 260.27527,-40.153296 c 20.1372,0.08105 40.27586,0.113281 60.2485,0.13086 -0.22314,-5.342775 -0.40771,-10.958011 -0.56054,-16.919926 -20.79443,-0.03613 -41.58885,-0.109376 -62.38181,-0.279297 0.75391,6.023439 1.64942,11.683596 2.69385,17.068363 z"
                 style="fill:#eeca6d;fill-opacity:1;fill-rule:nonzero;stroke:none"
                 id="path38" /><path
                 d="m 321.31674,-24.7363 c -0.30811,-4.873048 -0.56982,-9.943362 -0.79297,-15.286136 9.96728,0.0098 19.97558,0.0127 30.00487,0.01465 -0.26416,5.342775 -0.52393,10.415042 -0.54053,15.271488 -9.55712,0 -19.11425,0 -28.67137,0 z"
                 style="fill:#e6c982;fill-opacity:1;fill-rule:nonzero;stroke:none"
                 id="path40" /><path
                 d="m 349.98811,-24.7363 c 0.0166,-4.856446 0.27637,-9.928713 0.54053,-15.271488 10.0288,9.77e-4 20.0786,9.77e-4 30.1284,0.0039 -0.59766,5.357423 -1.26611,10.445315 -1.99756,15.267582 -9.55712,0 -19.11425,0 -28.67137,0 z"
                 style="fill:#e8c179;fill-opacity:1;fill-rule:nonzero;stroke:none"
                 id="path42" /><path
                 d="m 320.52377,-40.022436 c -0.22314,-5.342775 -0.40771,-10.958011 -0.56054,-16.919926 5.18847,0.0098 10.37743,0.01563 15.5659,0.02148 0.10157,5.956056 0.0229,11.568362 -0.0264,16.908207 -5.00147,-0.002 -9.9956,-0.0049 -14.979,-0.0098 z"
                 style="fill:#eec66e;fill-opacity:1;fill-rule:nonzero;stroke:none"
                 id="path44" /><path
                 d="m 335.50277,-40.012671 c 0.0493,-5.339845 0.12793,-10.952151 0.0264,-16.908207 5.18848,0.0049 10.37744,0.0088 15.56591,0.01172 -0.0342,5.94336 -0.30273,11.55762 -0.5664,16.901371 -5.01465,-9.77e-4 -10.02392,-0.002 -15.02587,-0.0049 z"
                 style="fill:#eec26c;fill-opacity:1;fill-rule:nonzero;stroke:none"
                 id="path46" /><path
                 d="m 350.52864,-40.007788 c 0.26367,-5.343751 0.53222,-10.958011 0.5664,-16.901371 10.37744,0.0068 20.75439,0.01074 31.13133,0.02051 -0.44629,5.900393 -0.97216,11.527347 -1.56933,16.88477 -10.0498,-0.0029 -20.0996,-0.0029 -30.1284,-0.0039 z"
                 style="fill:#efba67;fill-opacity:1;fill-rule:nonzero;stroke:none"
                 id="path48" /><path
                 d="m 378.65948,-24.7363 c 0.73145,-4.822267 1.3999,-9.910159 1.99756,-15.267582 10.04931,0.0029 20.09911,0.0078 30.12742,0.02051 -0.93017,5.363283 -2.00781,10.459963 -3.45361,15.247074 -9.55712,0 -19.11425,0 -28.67137,0 z"
                 style="fill:#ebb567;fill-opacity:1;fill-rule:nonzero;stroke:none"
                 id="path50" /><path
                 d="m 407.33085,-24.7363 c 1.4458,-4.787111 2.52344,-9.883791 3.45361,-15.247074 10.02881,0.01172 20.03661,0.03027 30.0034,0.06055 -1.41699,5.340821 -3.01464,10.415042 -4.78613,15.186527 -9.55663,0 -19.11376,0 -28.67088,0 z"
                 style="fill:#eea654;fill-opacity:1;fill-rule:nonzero;stroke:none"
                 id="path52" /><path
                 d="m 380.65704,-40.003882 c 0.59717,-5.357423 1.12304,-10.984377 1.56933,-16.88477 10.37744,0.0098 20.7539,0.02441 31.13084,0.05176 -0.85839,5.857424 -1.64208,11.489261 -2.57275,16.85352 -10.02831,-0.0127 -20.07811,-0.01758 -30.12742,-0.02051 z"
                 style="fill:#efa459;fill-opacity:1;fill-rule:nonzero;stroke:none"
                 id="path54" /><path
                 d="m 410.78446,-39.983374 c 0.93067,-5.364259 1.71436,-10.996096 2.57275,-16.85352 10.37598,0.02734 20.75292,0.06738 31.12889,0.126953 -1.04589,5.837892 -2.28125,11.445316 -3.69824,16.787114 -9.96679,-0.03027 -19.97459,-0.04883 -30.0034,-0.06055 z"
                 style="fill:#f08a4a;fill-opacity:1;fill-rule:nonzero;stroke:none"
                 id="path56" /><path
                 d="m 436.00173,-24.7363 c 6.63867,0 13.27734,0 19.91601,0 2.0166,-4.805665 3.83886,-9.912112 5.4541,-15.283207 -6.83105,0.123047 -13.75293,0.140625 -20.58398,0.09668 -1.41699,5.340821 -3.01464,10.415042 -4.78613,15.186527 z"
                 style="fill:#f0954b;fill-opacity:1;fill-rule:nonzero;stroke:none"
                 id="path58" /><path
                 d="m 440.78786,-39.922827 c 6.83105,0.04395 13.75293,0.02637 20.58398,-0.09668 1.61523,-5.370118 3.02246,-11.005862 4.20898,-16.869145 -7.02246,0.246094 -14.07031,0.267579 -21.09472,0.178711 -1.04589,5.837892 -2.28125,11.445316 -3.69824,16.787114 z"
                 style="fill:#f07343;fill-opacity:1;fill-rule:nonzero;stroke:none"
                 id="path60" /><path
                 d="m 455.91774,-24.7363 c 15.27636,0 29.82908,-3.09668 43.0654,-8.695315 2.95606,-4.34961 5.20801,-9.086916 7.19433,-14.083011 -14.1494,4.831056 -29.3076,7.220705 -44.80563,7.495119 -1.61524,5.371095 -3.4375,10.477542 -5.4541,15.283207 z"
                 style="fill:#f0884c;fill-opacity:1;fill-rule:nonzero;stroke:none"
                 id="path62" /><path
                 d="m 461.37184,-40.019507 c 1.61523,-5.370118 3.02246,-11.005862 4.20898,-16.869145 7.86034,-0.274414 15.68749,-0.828125 23.41112,-1.820313 -1.40723,5.714846 -2.94727,11.314456 -4.71191,16.650395 -7.49512,1.236329 -15.15918,1.902344 -22.90819,2.039063 z"
                 style="fill:#f06745;fill-opacity:1;fill-rule:nonzero;stroke:none"
                 id="path64" /><path
                 d="m 484.28003,-42.05857 c 7.49609,-1.235352 14.82323,-3.041016 21.89744,-5.456056 0.99317,-2.499024 1.91993,-5.061525 2.83594,-7.67383 -7.23242,2.213868 -14.66405,3.828126 -22.24315,4.94629 -0.78125,2.781251 -1.60742,5.515627 -2.49023,8.183596 z"
                 style="fill:#f05c4a;fill-opacity:1;fill-rule:nonzero;stroke:none"
                 id="path66" /><path
                 d="m 486.77026,-50.242166 c 7.5791,-1.118164 15.01073,-2.732422 22.24315,-4.94629 0.91504,-2.611329 1.81836,-5.272462 2.76465,-7.965822 -7.44433,2.024414 -15.06347,3.453126 -22.78612,4.445313 -0.7041,2.857423 -1.44043,5.685549 -2.22168,8.466799 z"
                 style="fill:#f05148;fill-opacity:1;fill-rule:nonzero;stroke:none"
                 id="path68" /><path
                 d="m 498.98314,-33.431615 c 13.2373,-5.597657 25.15721,-13.699222 35.16795,-23.709966 3.89551,-3.895509 7.50195,-8.08008 10.7832,-12.518558 -11.46484,10.041018 -24.60643,17.313481 -38.75682,22.145513 -1.98632,4.996095 -4.23827,9.733401 -7.19433,14.083011 z"
                 style="fill:#eb6755;fill-opacity:1;fill-rule:nonzero;stroke:none"
                 id="path70" /><path
                 d="m 506.17747,-47.514626 c 1.98633,-4.997071 3.70801,-10.252932 5.60059,-15.639652 7.44433,-2.024415 14.71288,-4.644532 21.73631,-8.016604 -2.3789,5.060549 -4.51269,9.926761 -6.95117,14.537113 -6.4873,3.676759 -13.31053,6.703127 -20.38573,9.119143 z"
                 style="fill:#f05154;fill-opacity:1;fill-rule:nonzero;stroke:none"
                 id="path72" /><path
                 d="m 526.5632,-56.633769 c 2.43848,-4.610352 4.57227,-9.476564 6.95117,-14.537113 7.02246,-3.372071 13.7998,-7.497072 20.25976,-12.532229 -2.59961,4.91211 -5.55762,9.604494 -8.83984,14.042972 -5.73242,5.020509 -11.88378,9.348635 -18.37109,13.02637 z"
                 style="fill:#ef4660;fill-opacity:1;fill-rule:nonzero;stroke:none"
                 id="path74" /><path
                 d="m 91.769508,-83.703111 c 15.156242,11.391604 31.906232,17.664067 49.421842,21.154302 -3.1787,-8.970705 -5.13818,-18.986333 -6.31591,-29.225593 -18.35497,-2.261719 -36.162089,-6.807619 -52.557587,-16.549808 2.17578,8.657228 5.371091,16.909183 9.451655,24.621099 z"
                 style="fill:#eda427;fill-opacity:1;fill-rule:nonzero;stroke:none"
                 id="path76" /><path
                 d="m 82.317853,-108.32421 c 16.395498,9.742189 34.202617,14.288089 52.557587,16.549808 -1.17725,-10.239258 -1.57275,-20.702158 -1.62256,-30.567388 -18.48046,-1.57715 -36.630836,-4.94239 -54.26608,-13.03321 0,9.33203 1.155761,18.39356 3.331053,27.05079 z"
                 style="fill:#ef941e;fill-opacity:1;fill-rule:nonzero;stroke:none"
                 id="path78" /><path
                 d="m 141.19135,-62.548809 c 17.51562,3.490235 35.79735,4.200196 54.01658,4.468751 -2.27686,-10.229495 -3.65381,-20.520513 -4.48633,-30.853523 -18.58788,-0.602539 -37.49119,-0.579102 -55.84616,-2.840821 1.17773,10.23926 3.13721,20.254888 6.31591,29.225593 z"
                 style="fill:#eeba44;fill-opacity:1;fill-rule:nonzero;stroke:none"
                 id="path80" /><path
                 d="m 134.87544,-91.774402 c 18.35497,2.261719 37.25828,2.238282 55.84616,2.840821 -0.83301,-10.33301 -1.12109,-20.708009 -1.2207,-31.106449 -18.95605,-0.93653 -37.76707,-0.72461 -56.24802,-2.30176 0.0498,9.86523 0.44531,20.32813 1.62256,30.567388 z"
                 style="fill:#eea931;fill-opacity:1;fill-rule:nonzero;stroke:none"
                 id="path82" /><path
                 d="m 78.9868,-135.375 c 0,-5.23145 0,-10.46289 0,-15.69336 18.001943,7.23926 36.20799,9.86719 54.61813,10.99414 0,5.62598 -0.38037,12.11133 -0.35205,17.73243 -18.48046,-1.57715 -36.630836,-4.94239 -54.26608,-13.03321 z"
                 style="fill:#f28017;fill-opacity:1;fill-rule:nonzero;stroke:none"
                 id="path84" /><path
                 d="m 133.25288,-122.34179 c -0.0283,-5.6211 0.35205,-12.10645 0.35205,-17.73243 18.41015,1.12598 37.0244,0.75098 55.84421,1.9834 0,6.02246 -0.006,12.04004 0.0518,18.05079 -18.95605,-0.93653 -37.76707,-0.72461 -56.24802,-2.30176 z"
                 style="fill:#ef9522;fill-opacity:1;fill-rule:nonzero;stroke:none"
                 id="path86" /><path
                 d="m 195.20793,-58.080058 c 20.78905,0.420898 41.58103,0.6875 62.37349,0.858399 -1.63134,-13.061527 -2.45751,-25.910163 -2.90673,-38.81251 -21.70409,-0.375976 -43.40037,-0.954102 -64.54733,-1.870117 0.70606,13.349612 2.14551,26.637701 5.08057,39.824228 z"
                 style="fill:#efc155;fill-opacity:1;fill-rule:nonzero;stroke:none"
                 id="path88" /><path
                 d="m 190.12736,-97.904286 c 21.14696,0.916015 42.84324,1.494141 64.54733,1.870117 -0.2251,-6.451171 -0.35547,-12.916021 -0.4458,-19.426761 -21.6621,-0.48828 -43.31199,-1.25195 -64.70553,-2.50684 0.0815,6.7002 0.25097,13.38965 0.604,20.063484 z"
                 style="fill:#efaa35;fill-opacity:1;fill-rule:nonzero;stroke:none"
                 id="path90" /><path
                 d="m 189.52336,-117.96777 c 21.39354,1.25489 43.04343,2.01856 64.70553,2.50684 -0.0903,-6.51172 -0.14014,-13.06934 -0.20313,-19.70801 -21.54247,-0.60157 -43.07126,-1.5127 -64.57662,-2.92188 0,6.71387 -0.007,13.42383 0.0742,20.12305 z"
                 style="fill:#ee9d2a;fill-opacity:1;fill-rule:nonzero;stroke:none"
                 id="path92" /><path
                 d="m 257.58142,-57.221659 c 20.79296,0.169921 41.58738,0.243164 62.38181,0.279297 -0.32764,-12.935551 -0.52149,-25.665046 -0.69678,-38.441416 -21.17675,-0.101563 -42.88816,-0.274414 -64.59176,-0.650391 0.44922,12.902347 1.27539,25.750983 2.90673,38.81251 z"
                 style="fill:#f0c15c;fill-opacity:1;fill-rule:nonzero;stroke:none"
                 id="path94" /><path
                 d="m 254.67469,-96.034169 c 21.7036,0.375977 43.41501,0.548828 64.59176,0.650391 -0.0874,-6.387692 -0.16992,-12.788092 -0.2627,-19.231452 -21.43993,-0.14746 -43.11325,-0.3584 -64.77486,-0.8457 0.0903,6.51074 0.2207,12.97559 0.4458,19.426761 z"
                 style="fill:#efa93b;fill-opacity:1;fill-rule:nonzero;stroke:none"
                 id="path96" /><path
                 d="m 254.22889,-115.46093 c 21.66161,0.4873 43.33493,0.69824 64.77486,0.8457 -0.0923,-6.44336 -0.19433,-12.92969 -0.31982,-19.49219 -21.56005,-0.16797 -43.1157,-0.45996 -64.65817,-1.06152 0.063,6.63867 0.1128,13.19629 0.20313,19.70801 z"
                 style="fill:#ef9b30;fill-opacity:1;fill-rule:nonzero;stroke:none"
                 id="path98" /><path
                 d="m 319.96323,-56.942362 c -0.32764,-12.935551 -0.52149,-25.665046 -0.69678,-38.441416 5.28417,0.02637 10.60155,0.0459 15.94432,0.0625 0.0571,12.760745 0.10254,25.474615 0.31836,38.4004 -5.18847,-0.0059 -10.37743,-0.01172 -15.5659,-0.02148 z"
                 style="fill:#f1bf5d;fill-opacity:1;fill-rule:nonzero;stroke:none"
                 id="path100" /><path
                 d="m 335.52913,-56.920878 c -0.21582,-12.925785 -0.26123,-25.639655 -0.31836,-38.4004 5.34278,0.01563 10.71045,0.02832 16.09521,0.04004 -0.02,12.759769 -0.13232,25.475592 -0.21094,38.37208 -5.18847,-0.0029 -10.37743,-0.0068 -15.56591,-0.01172 z"
                 style="fill:#f1bb5c;fill-opacity:1;fill-rule:nonzero;stroke:none"
                 id="path102" /><path
                 d="m 351.09504,-56.909159 c 0.0786,-12.896488 0.19092,-25.612311 0.21094,-38.37208 10.76855,0.02246 21.60448,0.03906 32.43895,0.06543 -0.1045,12.778323 -0.54639,25.516607 -1.51856,38.327157 -10.37694,-0.0098 -20.75389,-0.01367 -31.13133,-0.02051 z"
                 style="fill:#f1b358;fill-opacity:1;fill-rule:nonzero;stroke:none"
                 id="path104" /><path
                 d="m 319.26645,-95.383778 c 10.56835,0.05176 21.27049,0.08008 32.03953,0.102539 0.01,-6.379881 -0.003,-12.771491 -0.0552,-19.202151 -10.78856,-0.0225 -21.54735,-0.0576 -32.24705,-0.13184 0.0928,6.44336 0.1753,12.84376 0.2627,19.231452 z"
                 style="fill:#f0a33e;fill-opacity:1;fill-rule:nonzero;stroke:none"
                 id="path106" /><path
                 d="m 319.00375,-114.61523 c 10.6997,0.0742 21.45849,0.10938 32.24705,0.13184 -0.0522,-6.43164 -0.14306,-12.90137 -0.28857,-19.44044 -10.75976,-0.0459 -21.51952,-0.0996 -32.2783,-0.18359 0.12549,6.5625 0.22754,13.04883 0.31982,19.49219 z"
                 style="fill:#ef9333;fill-opacity:1;fill-rule:nonzero;stroke:none"
                 id="path108" /><path
                 d="m 351.30598,-95.281239 c 10.76855,0.02246 21.60448,0.03906 32.43895,0.06543 0.0522,-6.388671 0.02,-12.788091 -0.0723,-19.210941 -10.8164,-0.0244 -21.63378,-0.0342 -32.42186,-0.0566 0.0518,6.43066 0.0649,12.82227 0.0552,19.202151 z"
                 style="fill:#f0973d;fill-opacity:1;fill-rule:nonzero;stroke:none"
                 id="path110" /><path
                 d="m 351.2508,-114.48339 c 10.78808,0.0225 21.60546,0.0322 32.42186,0.0566 -0.0928,-6.42383 -0.24512,-12.8711 -0.43408,-19.35743 -10.75732,-0.0547 -21.51659,-0.0937 -32.27635,-0.13965 0.14551,6.53907 0.23633,13.0088 0.28857,19.44044 z"
                 style="fill:#ef8734;fill-opacity:1;fill-rule:nonzero;stroke:none"
                 id="path112" /><path
                 d="m 382.22637,-56.888652 c 0.97217,-12.81055 1.41406,-25.548834 1.51856,-38.327157 10.83446,0.02734 21.66844,0.06445 32.43406,0.129883 -0.18701,12.7793 -0.95605,25.523443 -2.82178,38.249032 -10.37694,-0.02734 -20.7534,-0.04199 -31.13084,-0.05176 z"
                 style="fill:#f1984e;fill-opacity:1;fill-rule:nonzero;stroke:none"
                 id="path114" /><path
                 d="m 413.35721,-56.836894 c 10.37598,0.02734 20.75292,0.06738 31.12889,0.126953 1.13574,-6.343751 1.97071,-12.68555 2.56934,-19.031254 -10.43359,-0.08398 -21.00976,-0.148438 -31.6577,-0.200196 -0.44873,6.375002 -1.10791,12.742191 -2.04053,19.104497 z"
                 style="fill:#f07943;fill-opacity:1;fill-rule:nonzero;stroke:none"
                 id="path116" /><path
                 d="m 415.39774,-75.941391 c 10.64794,0.05176 21.22411,0.116211 31.6577,0.200196 0.59863,-6.346681 0.95898,-12.696292 1.14746,-19.053716 -10.56152,-0.135742 -21.25878,-0.226562 -32.02391,-0.291015 -0.0937,6.38965 -0.33252,12.77051 -0.78125,19.144535 z"
                 style="fill:#f0703d;fill-opacity:1;fill-rule:nonzero;stroke:none"
                 id="path118" /><path
                 d="m 383.74493,-95.215809 c 0.10449,-12.777351 -0.12891,-25.595711 -0.50635,-38.568371 10.75781,0.0547 21.51415,0.125 32.26756,0.23438 0.46387,12.86816 0.85937,25.6836 0.67285,38.463874 -10.76562,-0.06543 -21.5996,-0.102539 -32.43406,-0.129883 z"
                 style="fill:#f0823a;fill-opacity:1;fill-rule:nonzero;stroke:none"
                 id="path120" /><path
                 d="m 416.17899,-95.085926 c 0.18652,-12.780274 -0.20898,-25.595714 -0.67285,-38.463874 10.75341,0.10937 21.50438,0.25781 32.25047,0.46777 0.50293,12.82129 0.82129,25.57032 0.44629,38.287119 -10.56152,-0.135742 -21.25878,-0.226562 -32.02391,-0.291015 z"
                 style="fill:#f06a38;fill-opacity:1;fill-rule:nonzero;stroke:none"
                 id="path122" /><path
                 d="m 444.4861,-56.709941 c 1.7627,-9.841799 2.80078,-19.681645 3.35352,-29.53614 9.93359,0.173829 20.01268,0.234376 30.06932,-0.110351 -0.93262,9.83301 -2.43555,19.590825 -4.56055,29.099616 -9.57909,0.583008 -19.24413,0.668946 -28.86229,0.546875 z"
                 style="fill:#f0613e;fill-opacity:1;fill-rule:nonzero;stroke:none"
                 id="path124" /><path
                 d="m 473.34839,-57.256816 c 2.125,-9.508791 3.62793,-19.266606 4.56055,-29.099616 10.05663,-0.344727 20.08983,-1.095704 29.93064,-2.544923 -1.23047,9.775393 -3.21386,19.340825 -6.13574,28.117195 -9.28026,1.865235 -18.77538,2.944336 -28.35545,3.527344 z"
                 style="fill:#f05242;fill-opacity:1;fill-rule:nonzero;stroke:none"
                 id="path126" /><path
                 d="m 447.83962,-86.246081 c 0.55273,-9.854494 0.61914,-19.723639 0.43652,-29.625979 10.24804,0.22461 20.54198,0.28613 30.77537,-0.04 0.15332,9.8125 -0.20996,19.722658 -1.14257,29.555668 -10.05664,0.344727 -20.13573,0.28418 -30.06932,0.110351 z"
                 style="fill:#f05739;fill-opacity:1;fill-rule:nonzero;stroke:none"
                 id="path128" /><path
                 d="m 477.90894,-86.356432 c 0.93261,-9.83301 1.29589,-19.743168 1.14257,-29.555668 10.23242,-0.32715 20.40429,-1.042 30.40526,-2.36817 0.0908,9.61719 -0.38672,19.602546 -1.61719,29.378915 -9.84081,1.449219 -19.87401,2.200196 -29.93064,2.544923 z"
                 style="fill:#f04b40;fill-opacity:1;fill-rule:nonzero;stroke:none"
                 id="path130" /><path
                 d="m 501.70384,-60.78416 c 2.92188,-8.77637 4.90527,-18.341802 6.13574,-28.117195 9.84179,-1.450195 19.49023,-3.597657 28.77733,-6.737306 -1.59473,9.45801 -4.12597,18.57227 -7.84472,26.616217 -8.72168,3.723634 -17.7871,6.374025 -27.06835,8.238284 z"
                 style="fill:#f0464c;fill-opacity:1;fill-rule:nonzero;stroke:none"
                 id="path132" /><path
                 d="m 528.77219,-69.022444 c 3.71875,-8.043947 6.24999,-17.158207 7.84472,-26.616217 9.28808,-3.139649 18.21386,-7.270509 26.60838,-12.685549 -2.1748,8.657228 -5.37109,16.909183 -9.45116,24.621099 -7.90332,6.160158 -16.28027,10.957034 -25.00194,14.680667 z"
                 style="fill:#f13c5e;fill-opacity:1;fill-rule:nonzero;stroke:none"
                 id="path134" /><path
                 d="m 507.83958,-88.901355 c 1.23047,-9.776369 1.70801,-19.761725 1.61719,-29.378915 10.00097,-1.32715 19.83202,-3.26562 29.38475,-6.04004 0.0283,9.42188 -0.62988,19.22364 -2.22461,28.681649 -9.2871,3.139649 -18.93554,5.287111 -28.77733,6.737306 z"
                 style="fill:#f1414d;fill-opacity:1;fill-rule:nonzero;stroke:none"
                 id="path136" /><path
                 d="m 536.61691,-95.638661 c 1.59473,-9.458009 2.25293,-19.259769 2.22461,-28.681649 9.55273,-2.77441 18.82714,-6.38477 27.71483,-11.05469 0,9.33203 -1.15528,18.39356 -3.33106,27.05079 -8.39452,5.41504 -17.3203,9.5459 -26.60838,12.685549 z"
                 style="fill:#f23962;fill-opacity:1;fill-rule:nonzero;stroke:none"
                 id="path138" /><path
                 d="m 448.27614,-115.87206 c -0.10547,-5.72462 -0.29394,-11.45997 -0.51953,-17.20997 10.25683,0.20117 20.55956,0.25098 30.80858,-0.0557 0.18945,5.66894 0.39746,11.57812 0.48632,17.22559 -10.23339,0.32617 -20.52733,0.26465 -30.77537,0.04 z"
                 style="fill:#f05538;fill-opacity:1;fill-rule:nonzero;stroke:none"
                 id="path140" /><path
                 d="m 479.05151,-115.9121 c -0.0889,-5.64747 -0.29687,-11.55665 -0.48632,-17.22559 10.24804,-0.30664 20.44139,-0.96973 30.47752,-2.19532 0.1123,5.49024 0.36133,11.5752 0.41406,17.05274 -10.00097,1.32617 -20.17284,2.04102 -30.40526,2.36817 z"
                 style="fill:#f14b41;fill-opacity:1;fill-rule:nonzero;stroke:none"
                 id="path142" /><path
                 d="m 509.45677,-118.28027 c -0.0527,-5.47754 -0.30176,-11.5625 -0.41406,-17.05274 10.03612,-1.22461 19.91502,-3.01172 29.53514,-5.5664 0.0352,5.3125 0.24707,11.27148 0.26367,16.5791 -9.55273,2.77442 -19.38378,4.71289 -29.38475,6.04004 z"
                 style="fill:#f14150;fill-opacity:1;fill-rule:nonzero;stroke:none"
                 id="path144" /><path
                 d="m 538.84152,-124.32031 c -0.0166,-5.30762 -0.22852,-11.2666 -0.26367,-16.5791 9.61913,-2.55372 18.97948,-5.87598 27.9785,-10.16895 0,5.23047 0,10.46191 0,15.69336 -8.88769,4.66992 -18.1621,8.28028 -27.71483,11.05469 z"
                 style="fill:#f23964;fill-opacity:1;fill-rule:nonzero;stroke:none"
                 id="path146" /><path
                 d="m 78.9868,-151.06836 c 18.001943,7.23926 36.20799,9.86719 54.61813,10.99414 0,-6.43555 0.0386,-13.13477 0.0967,-19.96582 -18.41893,-0.73145 -36.665992,-2.74415 -54.71481,-9.32325 0,6.09864 0,12.19629 0,18.29493 z"
                 style="fill:#f37615;fill-opacity:1;fill-rule:nonzero;stroke:none"
                 id="path148" /><path
                 d="m 78.9868,-169.36329 c 18.048818,6.5791 36.29588,8.5918 54.71481,9.32325 0.0581,-6.83106 0.13574,-13.79493 0.21338,-20.75782 -18.43846,-0.46875 -36.776345,-1.7334 -54.92819,-6.85938 0,6.09864 0,12.19629 0,18.29395 z"
                 style="fill:#f26c1a;fill-opacity:1;fill-rule:nonzero;stroke:none"
                 id="path150" /><path
                 d="m 78.9868,-187.65724 c 18.151845,5.12598 36.48973,6.39063 54.92819,6.85938 0.0772,-6.96387 0.15479,-13.92676 0.21289,-20.75782 -18.458,-0.20605 -36.885719,-0.72363 -55.14108,-4.39551 0,6.09864 0,12.19629 0,18.29395 z"
                 style="fill:#f06326;fill-opacity:1;fill-rule:nonzero;stroke:none"
                 id="path152" /><path
                 d="m 78.9868,-205.95119 c 18.255361,3.67188 36.68308,4.18946 55.14108,4.39551 0.0581,-6.83203 0.0972,-13.53125 0.0972,-19.96582 -18.46727,0.18945 -36.936503,0.28711 -55.23825,-2.72364 0,6.09864 0,12.19629 0,18.29395 z"
                 style="fill:#ec5b36;fill-opacity:1;fill-rule:nonzero;stroke:none"
                 id="path154" /><path
                 d="m 133.60493,-140.07422 c 18.41015,1.12598 37.0244,0.75098 55.84421,1.9834 0,-13.54395 0,-27.08692 0,-40.63087 -18.55614,-1.93652 -37.09568,-1.6084 -55.53415,-2.07617 -0.15527,13.92676 -0.31006,27.85352 -0.31006,40.72364 z"
                 style="fill:#ef891f;fill-opacity:1;fill-rule:nonzero;stroke:none"
                 id="path156" /><path
                 d="m 133.91499,-180.79786 c 18.43847,0.46777 36.97801,0.13965 55.53415,2.07617 0,-6.77148 0,-13.54297 0,-20.31543 -18.37499,-2.4209 -36.86326,-2.31348 -55.32126,-2.51856 -0.0581,6.83106 -0.13574,13.79395 -0.21289,20.75782 z"
                 style="fill:#f16c25;fill-opacity:1;fill-rule:nonzero;stroke:none"
                 id="path158" /><path
                 d="m 134.12788,-201.55568 c 18.458,0.20508 36.94627,0.0977 55.32126,2.51856 0,-6.77149 0,-13.54298 0,-20.31544 -18.29247,-2.64062 -36.7573,-2.3584 -55.22409,-2.16894 0,6.43457 -0.0391,13.13379 -0.0972,19.96582 z"
                 style="fill:#f15d2d;fill-opacity:1;fill-rule:nonzero;stroke:none"
                 id="path160" /><path
                 d="m 189.44914,-138.09082 c 21.50536,1.40918 43.03415,2.32031 64.57662,2.92188 -0.0371,-13.51563 -0.17871,-26.59864 -0.34717,-39.68458 -21.47703,-0.51075 -42.91257,-1.63868 -64.22945,-3.86817 0,13.54395 0,27.08692 0,40.63087 z"
                 style="fill:#ee9026;fill-opacity:1;fill-rule:nonzero;stroke:none"
                 id="path162" /><path
                 d="m 189.44914,-178.72169 c 21.31688,2.22949 42.75242,3.35742 64.22945,3.86817 -0.084,-6.54297 -0.1748,-13.08594 -0.26269,-19.68458 -21.41991,-0.4375 -42.77927,-1.70508 -63.96676,-4.49902 0,6.77246 0,13.54395 0,20.31543 z"
                 style="fill:#f06e28;fill-opacity:1;fill-rule:nonzero;stroke:none"
                 id="path164" /><path
                 d="m 189.44914,-199.03712 c 21.18749,2.79394 42.54685,4.06152 63.96676,4.49902 -0.0879,-6.59766 -0.17285,-13.25098 -0.24512,-20.0127 -21.33104,-0.41309 -42.59275,-1.75098 -63.72164,-4.80176 0,6.77246 0,13.54395 0,20.31544 z"
                 style="fill:#f15d2c;fill-opacity:1;fill-rule:nonzero;stroke:none"
                 id="path166" /><path
                 d="m 254.02576,-135.16894 c 21.54247,0.60156 43.09812,0.89355 64.65817,1.06152 -0.0747,-13.48731 -0.27393,-27.03419 -0.52637,-40.58497 -21.48338,0.24121 -43.00193,0.34863 -64.47897,-0.16113 0.16846,13.08594 0.31006,26.16895 0.34717,39.68458 z"
                 style="fill:#ee8d2b;fill-opacity:1;fill-rule:nonzero;stroke:none"
                 id="path168" /><path
                 d="m 253.67859,-174.85352 c 21.47704,0.50976 42.99559,0.40234 64.47897,0.16113 -0.12646,-6.77539 -0.26611,-13.55176 -0.41064,-20.32227 -21.43065,0.52246 -42.91111,0.91406 -64.33102,0.47656 0.0879,6.59864 0.17871,13.14161 0.26269,19.68458 z"
                 style="fill:#f06b2f;fill-opacity:1;fill-rule:nonzero;stroke:none"
                 id="path170" /><path
                 d="m 253.4159,-194.5381 c 21.41991,0.4375 42.90037,0.0459 64.33102,-0.47656 -0.14405,-6.77051 -0.29297,-13.53516 -0.4375,-20.28712 -21.40722,0.65137 -42.80759,1.16407 -64.13864,0.75098 0.0723,6.76172 0.15723,13.41504 0.24512,20.0127 z"
                 style="fill:#f15a34;fill-opacity:1;fill-rule:nonzero;stroke:none"
                 id="path172" /><path
                 d="m 318.68393,-134.10742 c 21.51756,0.16895 43.03953,0.21387 64.55465,0.32324 -0.04,-6.70508 -0.12549,-13.54395 -0.24316,-20.45117 -21.50146,-0.0957 -43.00779,-0.10059 -64.50827,-0.14063 0.0908,6.7666 0.15918,13.52539 0.19678,20.26856 z"
                 style="fill:#ef832f;fill-opacity:1;fill-rule:nonzero;stroke:none"
                 id="path174" /><path
                 d="m 318.48715,-154.37598 c 21.50048,0.04 43.00681,0.0449 64.50827,0.14063 -0.11768,-6.90626 -0.26807,-13.88087 -0.43653,-20.85646 -21.46922,0.004 -42.9404,0.15821 -64.40133,0.39942 0.12598,6.77539 0.23926,13.54981 0.32959,20.31641 z"
                 style="fill:#ef7331;fill-opacity:1;fill-rule:nonzero;stroke:none"
                 id="path176" /><path
                 d="m 318.15756,-174.69239 c 21.46093,-0.24121 42.93211,-0.39551 64.40133,-0.39942 -0.16894,-6.97656 -0.35644,-13.95312 -0.5498,-20.86621 -21.4204,0.10547 -42.84031,0.41992 -64.26217,0.94336 0.14453,6.77051 0.28418,13.54688 0.41064,20.32227 z"
                 style="fill:#f06337;fill-opacity:1;fill-rule:nonzero;stroke:none"
                 id="path178" /><path
                 d="m 317.74692,-195.01466 c 21.42186,-0.52344 42.84177,-0.83789 64.26217,-0.94336 -0.19287,-6.91211 -0.3916,-13.75977 -0.58203,-20.47657 -21.3579,0.12207 -42.71385,0.48145 -64.11764,1.13281 0.14453,6.75196 0.29345,13.51661 0.4375,20.28712 z"
                 style="fill:#f1543f;fill-opacity:1;fill-rule:nonzero;stroke:none"
                 id="path180" /><path
                 d="m 383.23858,-133.78418 c 21.51561,0.1084 43.02488,0.28125 64.51803,0.70215 -0.043,-6.66602 -0.14258,-13.52051 -0.2832,-20.46973 -21.48046,-0.40234 -42.97654,-0.58789 -64.47799,-0.68359 0.11767,6.90722 0.20312,13.74609 0.24316,20.45117 z"
                 style="fill:#ef6c31;fill-opacity:1;fill-rule:nonzero;stroke:none"
                 id="path182" /><path
                 d="m 382.99542,-154.23535 c 21.50145,0.0957 42.99753,0.28125 64.47799,0.68359 -0.14063,-6.94922 -0.32227,-13.99317 -0.52832,-21.03809 -21.45116,-0.36035 -42.91746,-0.50684 -64.3862,-0.50196 0.16846,6.97559 0.31885,13.9502 0.43653,20.85646 z"
                 style="fill:#f06034;fill-opacity:1;fill-rule:nonzero;stroke:none"
                 id="path184" /><path
                 d="m 382.55889,-175.09181 c 10.73437,-0.002 21.46825,0.0332 32.19969,0.11426 -0.18799,-7.01953 -0.39941,-14.04004 -0.61865,-20.97949 -10.71044,-0.0527 -21.4204,-0.0527 -32.13084,-9.8e-4 0.19336,6.91309 0.38086,13.88965 0.5498,20.86621 z"
                 style="fill:#f1523b;fill-opacity:1;fill-rule:nonzero;stroke:none"
                 id="path186" /><path
                 d="m 382.00909,-195.95802 c 10.71044,-0.0518 21.4204,-0.0518 32.13084,9.8e-4 -0.21924,-6.93946 -0.44727,-13.79688 -0.66943,-20.48927 -10.68554,-0.0508 -21.36474,-0.0498 -32.04344,0.0117 0.19043,6.7168 0.38916,13.56446 0.58203,20.47657 z"
                 style="fill:#f24543;fill-opacity:1;fill-rule:nonzero;stroke:none"
                 id="path188" /><path
                 d="m 414.75858,-174.97755 c 10.73144,0.0811 21.46093,0.20703 32.18651,0.3877 -0.20508,-7.0459 -0.43555,-14.09376 -0.67285,-21.04981 -10.71094,-0.15918 -21.42187,-0.26465 -32.13231,-0.31738 0.21924,6.93945 0.43066,13.95996 0.61865,20.97949 z"
                 style="fill:#f1483d;fill-opacity:1;fill-rule:nonzero;stroke:none"
                 id="path190" /><path
                 d="m 414.13993,-195.95704 c 10.71044,0.0527 21.42137,0.1582 32.13231,0.31738 -0.23731,-6.95703 -0.4834,-13.82227 -0.71973,-20.50391 -10.7041,-0.14942 -21.39647,-0.25196 -32.08201,-0.30274 0.22216,6.69239 0.45019,13.54981 0.66943,20.48927 z"
                 style="fill:#f23c46;fill-opacity:1;fill-rule:nonzero;stroke:none"
                 id="path192" /><path
                 d="m 447.75661,-133.08203 c 10.25683,0.20117 20.55956,0.25098 30.80858,-0.0557 -0.0361,-6.57715 -0.12696,-13.39844 -0.25391,-20.34083 -10.25781,0.21289 -20.56932,0.11914 -30.83787,-0.0732 0.14062,6.94922 0.24023,13.80371 0.2832,20.46973 z"
                 style="fill:#f05238;fill-opacity:1;fill-rule:nonzero;stroke:none"
                 id="path194" /><path
                 d="m 447.47341,-153.55176 c 10.26855,0.19238 20.58006,0.28613 30.83787,0.0732 -0.12793,-6.94238 -0.29297,-14.00781 -0.47852,-21.07422 -10.26757,0.19922 -20.5908,0.13476 -30.88767,-0.0371 0.20605,7.04492 0.38769,14.08887 0.52832,21.03809 z"
                 style="fill:#f04a3b;fill-opacity:1;fill-rule:nonzero;stroke:none"
                 id="path196" /><path
                 d="m 478.56519,-133.13769 c 10.24804,-0.30664 20.44139,-0.96973 30.47752,-2.19532 -0.0215,-6.38183 -0.10157,-13.07227 -0.21778,-19.91797 -10.05272,1.03809 -20.25682,1.55957 -30.51365,1.77246 0.12695,6.94239 0.21777,13.76368 0.25391,20.34083 z"
                 style="fill:#f14941;fill-opacity:1;fill-rule:nonzero;stroke:none"
                 id="path198" /><path
                 d="m 478.31128,-153.47852 c 10.25683,-0.21289 20.46093,-0.73437 30.51365,-1.77246 -0.11718,-6.84473 -0.26855,-13.84473 -0.43261,-20.84571 -10.07715,0.88184 -20.29101,1.34473 -30.55956,1.54395 0.18555,7.06641 0.35059,14.13184 0.47852,21.07422 z"
                 style="fill:#f14345;fill-opacity:1;fill-rule:nonzero;stroke:none"
                 id="path200" /><path
                 d="m 446.94509,-174.58985 c 10.29687,0.17187 20.6201,0.23633 30.88767,0.0371 -0.18457,-7.06641 -0.39062,-14.13477 -0.59961,-21.08399 -10.29393,0.18457 -20.63768,0.14941 -30.96091,-0.003 0.2373,6.95605 0.46777,14.00391 0.67285,21.04981 z"
                 style="fill:#f14043;fill-opacity:1;fill-rule:nonzero;stroke:none"
                 id="path202" /><path
                 d="m 446.27224,-195.63966 c 10.32323,0.15234 20.66698,0.1875 30.96091,0.003 -0.20996,-6.94825 -0.42285,-13.77833 -0.62206,-20.36915 -10.34375,0.0879 -20.72265,0.006 -31.05858,-0.13769 0.23633,6.68164 0.48242,13.54688 0.71973,20.50391 z"
                 style="fill:#f3374c;fill-opacity:1;fill-rule:nonzero;stroke:none"
                 id="path204" /><path
                 d="m 477.83276,-174.55274 c -0.37011,-14.13282 -0.82226,-28.27247 -1.22167,-41.45314 10.34276,-0.0869 20.6494,-0.34375 30.83982,-0.87695 0.23633,12.7793 0.61328,26.78516 0.94141,40.78614 -10.07715,0.88184 -20.29101,1.34473 -30.55956,1.54395 z"
                 style="fill:#f23c4d;fill-opacity:1;fill-rule:nonzero;stroke:none"
                 id="path206" /><path
                 d="m 509.04271,-135.33301 c -0.043,-12.76465 -0.32227,-26.76172 -0.65039,-40.76368 10.07714,-0.88183 20.01659,-2.18262 29.73826,-4.05762 0.22461,13.44141 0.43359,26.88185 0.44727,39.2549 -9.62012,2.55468 -19.49902,4.34179 -29.53514,5.5664 z"
                 style="fill:#f14051;fill-opacity:1;fill-rule:nonzero;stroke:none"
                 id="path208" /><path
                 d="m 538.57785,-140.89941 c -0.0137,-12.37305 -0.22266,-25.81349 -0.44727,-39.2549 9.72168,-1.87402 19.22362,-4.32324 28.42577,-7.50293 0,12.19629 0,24.39259 0,36.58888 -8.99902,4.29297 -18.35937,7.61523 -27.9785,10.16895 z"
                 style="fill:#f23966;fill-opacity:1;fill-rule:nonzero;stroke:none"
                 id="path210" /><path
                 d="m 508.39232,-176.09669 c 20.15331,-1.76367 39.76072,-5.20215 58.16403,-11.56055 0,-12.19531 0,-24.39161 0,-36.5879 -18.80956,4.12793 -38.72459,6.29688 -59.10544,7.36231 0.23633,12.7793 0.61328,26.78516 0.94141,40.78614 z"
                 style="fill:#f2385d;fill-opacity:1;fill-rule:nonzero;stroke:none"
                 id="path212" /><path
                 d="m 78.9868,-224.24514 c 14.980948,2.46485 30.07371,2.84668 45.18601,2.79981 0.021,-9.20508 -0.16162,-18.67383 -0.44678,-28.27638 -15.15673,0.58985 -30.124492,0.97071 -44.73923,-0.50586 0,8.66114 0,17.32227 0,25.98243 z"
                 style="fill:#e65446;fill-opacity:1;fill-rule:nonzero;stroke:none"
                 id="path214" /><path
                 d="m 78.9868,-250.22757 c 14.614738,1.47657 29.5825,1.09571 44.73923,0.50586 -0.28515,-9.60156 -0.67236,-19.33496 -1.05957,-29.06836 -15.21727,0.80273 -29.870586,1.88379 -43.67966,2.58008 0,8.66015 0,17.32129 0,25.98242 z"
                 style="fill:#da4d5d;fill-opacity:1;fill-rule:nonzero;stroke:none"
                 id="path216" /><path
                 d="m 78.9868,-276.20999 c 13.809074,-0.69629 28.46239,-1.77735 43.67966,-2.58008 -0.3872,-9.73438 -0.77441,-19.46827 -1.05908,-29.06983 -15.27782,1.01806 -29.617169,2.79736 -42.62058,5.66699 0,8.66065 0,17.32178 0,25.98292 z"
                 style="fill:#cb4877;fill-opacity:1;fill-rule:nonzero;stroke:none"
                 id="path218" /><path
                 d="m 78.9868,-302.19291 c 13.003411,-2.86963 27.34276,-4.64893 42.62058,-5.66699 -0.28515,-9.60157 -0.46826,-19.07081 -0.44678,-28.27589 -15.32225,1.56055 -29.5366,4.10303 -42.1738,7.95996 0,8.66065 0,17.32178 0,25.98292 z"
                 style="fill:#bb4491;fill-opacity:1;fill-rule:nonzero;stroke:none"
                 id="path220" /><path
                 d="m 124.17281,-221.44533 c 15.11181,-0.0469 30.24315,-0.52149 45.30027,0.22851 0.0425,-9.74902 0.085,-19.49805 0.12744,-29.24707 -15.37158,-0.64454 -30.71776,0.15332 -45.87449,0.74218 0.28516,9.60255 0.46778,19.0713 0.44678,28.27638 z"
                 style="fill:#ee533a;fill-opacity:1;fill-rule:nonzero;stroke:none"
                 id="path222" /><path
                 d="m 123.72603,-249.72171 c 15.15673,-0.58886 30.50291,-1.38672 45.87449,-0.74218 0.043,-9.74903 0.0855,-19.49806 0.12793,-29.24806 -16.06396,-0.40918 -31.84471,0.11817 -47.06199,0.92188 0.38721,9.7334 0.77442,19.4668 1.05957,29.06836 z"
                 style="fill:#e54a4f;fill-opacity:1;fill-rule:nonzero;stroke:none"
                 id="path224" /><path
                 d="m 122.66646,-278.79007 c 15.21728,-0.80371 30.99803,-1.33106 47.06199,-0.92188 0.0425,-9.74902 0.0854,-19.49756 0.12793,-29.24659 -16.75585,-0.17627 -32.97166,0.0806 -48.249,1.09864 0.28467,9.60156 0.67188,19.33545 1.05908,29.06983 z"
                 style="fill:#d84669;fill-opacity:1;fill-rule:nonzero;stroke:none"
                 id="path226" /><path
                 d="m 121.60738,-307.8599 c 15.27734,-1.01807 31.49315,-1.27491 48.249,-1.09864 0.0425,-9.74951 0.0855,-19.49854 0.12793,-29.24756 -17.07079,-0.0693 -33.50145,0.50927 -48.82371,2.07031 -0.0215,9.20508 0.16163,18.67432 0.44678,28.27589 z"
                 style="fill:#c84383;fill-opacity:1;fill-rule:nonzero;stroke:none"
                 id="path228" /><path
                 d="m 169.47308,-221.21682 c 6.67577,0.33203 13.33739,0.90625 19.97606,1.86426 0,-9.61816 0,-19.23535 0,-28.85352 -6.61181,-1.38477 -13.20654,-1.97266 -19.84862,-2.25781 -0.0425,9.74902 -0.085,19.49805 -0.12744,29.24707 z"
                 style="fill:#f25134;fill-opacity:1;fill-rule:nonzero;stroke:none"
                 id="path230" /><path
                 d="m 169.60052,-250.46389 c 6.64208,0.28515 13.23681,0.87304 19.84862,2.25781 0,-9.61817 0,-19.23633 0,-28.85352 -6.55273,-2.32422 -13.1538,-2.47071 -19.72069,-2.65235 -0.0425,9.75 -0.085,19.49903 -0.12793,29.24806 z"
                 style="fill:#ed4745;fill-opacity:1;fill-rule:nonzero;stroke:none"
                 id="path232" /><path
                 d="m 169.72845,-279.71195 c 6.56689,0.18164 13.16796,0.32813 19.72069,2.65235 0,-19.23634 0,-38.47218 0,-57.70803 -6.46631,-3.68896 -13.00781,-3.4082 -19.46483,-3.43847 -0.0854,19.49805 -0.17041,38.99659 -0.25586,58.49415 z"
                 style="fill:#e3425d;fill-opacity:1;fill-rule:nonzero;stroke:none"
                 id="path234" /><path
                 d="m 189.44914,-219.35256 c 21.12889,3.05078 42.3906,4.38867 63.72164,4.80176 -0.0859,-9.55762 -0.12011,-19.42579 -0.11963,-29.44825 -21.24852,-0.40527 -42.43796,-1.59863 -63.60201,-4.20703 0,9.61817 0,19.23536 0,28.85352 z"
                 style="fill:#f25033;fill-opacity:1;fill-rule:nonzero;stroke:none"
                 id="path236" /><path
                 d="m 189.44914,-248.20608 c 21.16405,2.6084 42.35349,3.80176 63.60201,4.20703 4.9e-4,-10.02344 0.0357,-20.20215 0.0874,-30.38087 -21.24169,-0.27734 -42.44822,-1.04394 -63.68942,-2.67968 0,9.61719 0,19.23535 0,28.85352 z"
                 style="fill:#ef4643;fill-opacity:1;fill-rule:nonzero;stroke:none"
                 id="path238" /><path
                 d="m 189.44914,-277.0596 c 21.2412,1.63574 42.44773,2.40234 63.68942,2.67968 0.104,-20.35645 0.27539,-40.71534 0.375,-59.83595 -21.35546,-0.13965 -42.71043,-0.33008 -64.06442,-0.55176 0,19.23585 0,38.47169 0,57.70803 z"
                 style="fill:#e74159;fill-opacity:1;fill-rule:nonzero;stroke:none"
                 id="path240" /><path
                 d="m 253.17078,-214.5508 c 21.33105,0.41309 42.73142,-0.0996 64.13864,-0.75098 -0.17188,-9.49805 -0.26563,-19.28711 -0.30322,-29.22364 -21.39892,0.54688 -42.70652,0.93067 -63.95505,0.52637 -4.8e-4,10.02246 0.0337,19.89063 0.11963,29.44825 z"
                 style="fill:#f14e3a;fill-opacity:1;fill-rule:nonzero;stroke:none"
                 id="path242" /><path
                 d="m 253.05115,-243.99905 c 21.24853,0.4043 42.55613,0.0205 63.95505,-0.52637 -0.0381,-9.93652 -0.02,-20.01953 0.0317,-30.10352 -21.38133,0.31738 -42.65769,0.52735 -63.89937,0.24902 -0.0518,10.17872 -0.0869,20.35743 -0.0874,30.38087 z"
                 style="fill:#f14346;fill-opacity:1;fill-rule:nonzero;stroke:none"
                 id="path244" /><path
                 d="m 253.13856,-274.37992 c 0.104,-20.35645 0.27539,-40.71534 0.375,-59.83595 10.67821,0.0698 21.35594,0.12696 32.03367,0.16846 -0.16846,19.04151 -0.39697,39.40479 -0.51123,59.76613 -10.64697,0.0576 -21.27684,0.041 -31.89744,-0.0986 z"
                 style="fill:#ee3c55;fill-opacity:1;fill-rule:nonzero;stroke:none"
                 id="path246" /><path
                 d="m 285.036,-274.28128 c 10.64697,-0.0566 21.31151,-0.18848 32.00193,-0.34766 0.0522,-10.08301 0.13819,-20.16797 0.23584,-30.10645 -10.68212,0.0435 -21.34715,0.0747 -32.00242,0.0762 -0.0928,10.0166 -0.17822,20.19727 -0.23535,30.37794 z"
                 style="fill:#f03a54;fill-opacity:1;fill-rule:nonzero;stroke:none"
                 id="path248" /><path
                 d="m 285.27135,-304.65922 c 10.65527,-10e-4 21.3203,-0.0327 32.00242,-0.0762 0.0977,-9.93897 0.20752,-19.73292 0.30762,-29.23536 -10.67822,-0.009 -21.35594,-0.0347 -32.03416,-0.0767 -0.084,9.52051 -0.18311,19.37207 -0.27588,29.38819 z"
                 style="fill:#ee3561;fill-opacity:1;fill-rule:nonzero;stroke:none"
                 id="path250" /><path
                 d="m 317.30942,-215.30178 c 21.40379,-0.65136 42.75974,-1.01074 64.11764,-1.13281 -0.50733,-18.97266 -0.61035,-38.90919 -0.52344,-58.84962 -21.25292,0.13281 -42.50632,0.33789 -63.86569,0.65527 -0.104,20.167 -0.0718,40.33204 0.27149,59.32716 z"
                 style="fill:#f14946;fill-opacity:1;fill-rule:nonzero;stroke:none"
                 id="path252" /><path
                 d="m 317.03793,-274.62894 c 10.67969,-0.1582 21.333,-0.28906 31.97264,-0.39648 0.0435,-9.99317 0.12451,-19.98731 0.22217,-29.85841 -10.64404,0.0562 -21.29442,0.10449 -31.95897,0.14844 -0.0976,9.93848 -0.18359,20.02344 -0.23584,30.10645 z"
                 style="fill:#f13756;fill-opacity:1;fill-rule:nonzero;stroke:none"
                 id="path254" /><path
                 d="m 317.27377,-304.73539 c 10.66455,-0.0439 21.31493,-0.0923 31.95897,-0.14844 0.0977,-9.87061 0.21191,-19.61817 0.32031,-29.11817 -10.65722,0.0303 -21.31444,0.0396 -31.97166,0.0312 -0.1001,9.50244 -0.20996,19.29639 -0.30762,29.23536 z"
                 style="fill:#ef3360;fill-opacity:1;fill-rule:nonzero;stroke:none"
                 id="path256" /><path
                 d="m 349.01057,-275.02542 c 10.64013,-0.10743 21.26659,-0.19239 31.89305,-0.25879 0.0439,-9.96973 0.13525,-19.94044 0.24756,-29.79249 -10.6372,0.0732 -21.2744,0.13672 -31.91844,0.19287 -0.0977,9.8711 -0.17871,19.86524 -0.22217,29.85841 z"
                 style="fill:#f13559;fill-opacity:1;fill-rule:nonzero;stroke:none"
                 id="path258" /><path
                 d="m 349.23274,-304.88383 c 10.64404,-0.0562 21.28124,-0.11963 31.91844,-0.19287 0.11181,-9.85205 0.24512,-19.58448 0.37256,-29.07813 -10.65674,0.0732 -21.31347,0.12304 -31.97069,0.15283 -0.1084,9.5 -0.22265,19.24756 -0.32031,29.11817 z"
                 style="fill:#ef3263;fill-opacity:1;fill-rule:nonzero;stroke:none"
                 id="path260" /><path
                 d="m 381.42706,-216.43459 c 21.35741,-0.12207 42.71628,-0.007 64.12545,0.29102 -0.6709,-18.9502 -0.84863,-39.15236 -0.78125,-59.35842 -21.36034,0.0254 -42.61423,0.0859 -63.86764,0.21778 -0.0869,19.94043 0.0161,39.87696 0.52344,58.84962 z"
                 style="fill:#f23d4b;fill-opacity:1;fill-rule:nonzero;stroke:none"
                 id="path262" /><path
                 d="m 380.90362,-275.28421 c 21.25341,-0.13184 42.5073,-0.19239 63.86764,-0.21778 0.0664,-20.20703 0.37891,-40.41797 0.68945,-59.38673 -21.31053,0.34961 -42.62351,0.5874 -63.93697,0.73389 -0.25489,18.98682 -0.53272,38.93116 -0.62012,58.87062 z"
                 style="fill:#f1335e;fill-opacity:1;fill-rule:nonzero;stroke:none"
                 id="path264" /><path
                 d="m 445.55251,-216.14357 c 20.67186,0.28808 41.51755,0.32617 61.8984,-0.73926 -0.33594,-18.13575 -0.64453,-38.46192 -0.83105,-58.78908 -20.50976,0.10352 -41.33885,0.14649 -61.8486,0.16992 -0.0674,20.20606 0.11035,40.40822 0.78125,59.35842 z"
                 style="fill:#f33355;fill-opacity:1;fill-rule:nonzero;stroke:none"
                 id="path266" /><path
                 d="m 444.77126,-275.50199 c 20.50975,-0.0234 41.33884,-0.0664 61.8486,-0.16992 -0.18653,-20.32813 -0.25098,-40.6587 -0.0957,-58.80372 -20.27147,-0.86426 -40.71384,-0.74756 -61.06344,-0.41309 -0.31054,18.96876 -0.62304,39.1797 -0.68945,59.38673 z"
                 style="fill:#f2316c;fill-opacity:1;fill-rule:nonzero;stroke:none"
                 id="path268" /><path
                 d="m 507.45091,-216.88283 c 20.38085,-1.06543 40.29588,-3.23438 59.10544,-7.36231 0,-17.32129 0,-34.64356 0,-51.96485 -19.23534,0.26855 -39.42674,0.43359 -59.93649,0.53808 0.18652,20.32716 0.49511,40.65333 0.83105,58.78908 z"
                 style="fill:#f1326c;fill-opacity:1;fill-rule:nonzero;stroke:none"
                 id="path270" /><path
                 d="m 506.61986,-275.67191 c 20.50975,-0.10449 40.70115,-0.26953 59.93649,-0.53808 0,-17.32227 0,-34.64406 0,-51.96584 -19.66113,-3.59033 -39.76072,-5.43603 -60.0322,-6.2998 -0.15527,18.14502 -0.0908,38.47559 0.0957,58.80372 z"
                 style="fill:#f0317f;fill-opacity:1;fill-rule:nonzero;stroke:none"
                 id="path272" /><path
                 d="m 78.9868,-328.17583 c 25.2744,-7.71387 56.85641,-10.16943 90.99751,-10.03027 0.0391,-12.13086 0.0776,-24.26222 0.1167,-36.39308 -34.51268,-0.0698 -66.29977,4.26319 -91.11421,14.07764 0,10.78174 0,21.56348 0,32.34571 z"
                 style="fill:#aa40a7;fill-opacity:1;fill-rule:nonzero;stroke:none"
                 id="path274" /><path
                 d="m 78.9868,-360.52154 c 24.81444,-9.81445 56.60153,-14.14746 91.11421,-14.07764 0.0391,-12.13135 0.0781,-24.26221 0.11718,-36.39307 -34.88474,0 -66.87691,6.21045 -91.23139,18.12451 0,10.78223 0,21.56397 0,32.3462 z"
                 style="fill:#943bb9;fill-opacity:1;fill-rule:nonzero;stroke:none"
                 id="path276" /><path
                 d="m 169.98431,-338.2061 c 6.45702,0.0303 12.99852,-0.25049 19.46483,3.43847 0,-11.97314 0,-23.94629 0,-35.91993 -6.43847,-4.03711 -12.91406,-3.89648 -19.34813,-3.91162 -0.0391,12.13086 -0.0776,24.26222 -0.1167,36.39308 z"
                 style="fill:#c63e8d;fill-opacity:1;fill-rule:nonzero;stroke:none"
                 id="path278" /><path
                 d="m 170.10101,-374.59918 c 6.43407,0.0151 12.90966,-0.12549 19.34813,3.91162 0,-11.97314 0,-23.94678 0,-35.91993 -6.41015,-4.38476 -12.82079,-4.38476 -19.23095,-4.38476 -0.0391,12.13086 -0.0781,24.26172 -0.11718,36.39307 z"
                 style="fill:#ae3ba8;fill-opacity:1;fill-rule:nonzero;stroke:none"
                 id="path280" /><path
                 d="m 189.44914,-334.76763 c 21.35399,0.22168 42.70896,0.41211 64.06442,0.55176 0.0161,-5.99267 0.0264,-12.02148 0.0351,-18.06836 -21.36717,-0.10938 -42.73337,-0.26172 -64.09957,-0.44336 0,5.98682 0,11.97364 0,17.95996 z"
                 style="fill:#cc3d88;fill-opacity:1;fill-rule:nonzero;stroke:none"
                 id="path282" /><path
                 d="m 189.44914,-352.72759 c 21.3662,0.18164 42.7324,0.33398 64.09957,0.44336 0.009,-6.04688 0.0166,-12.11182 0.0288,-18.17676 -21.36766,-0.0537 -42.73533,-0.13282 -64.12838,-0.22657 0,5.98682 0,11.97364 0,17.95997 z"
                 style="fill:#c13b96;fill-opacity:1;fill-rule:nonzero;stroke:none"
                 id="path284" /><path
                 d="m 189.44914,-370.68756 c 21.39305,0.0937 42.76072,0.17286 64.12838,0.22657 0.0249,-12.1294 0.0669,-24.2588 0.16943,-36.24269 -21.4326,0.0308 -42.86521,0.0625 -64.29781,0.0962 0,11.97315 0,23.94679 0,35.91993 z"
                 style="fill:#b43ba4;fill-opacity:1;fill-rule:nonzero;stroke:none"
                 id="path286" /><path
                 d="m 253.51356,-334.21587 c 10.67821,0.0698 21.35594,0.12696 32.03367,0.16846 0.0273,-5.99658 0.041,-12.04004 0.0518,-18.10645 -10.68359,-0.0317 -21.36718,-0.0757 -32.05028,-0.13037 -0.009,6.04688 -0.019,12.07569 -0.0351,18.06836 z"
                 style="fill:#e13778;fill-opacity:1;fill-rule:nonzero;stroke:none"
                 id="path288" /><path
                 d="m 253.54871,-352.28423 c 10.6831,0.0547 21.36669,0.0986 32.05028,0.13037 0.0107,-6.0669 0.0186,-12.15674 0.0337,-18.2461 -10.68701,-0.0132 -21.37108,-0.0337 -32.05516,-0.061 -0.0122,6.06494 -0.02,12.12988 -0.0288,18.17676 z"
                 style="fill:#d83786;fill-opacity:1;fill-rule:nonzero;stroke:none"
                 id="path290" /><path
                 d="m 285.54723,-334.04741 c 10.67822,0.042 21.35594,0.0679 32.03416,0.0767 0.0322,-5.99902 0.0518,-12.0503 0.0693,-18.12793 -10.68408,-0.005 -21.36816,-0.0239 -32.05174,-0.0552 -0.0108,6.06641 -0.0244,12.10987 -0.0518,18.10645 z"
                 style="fill:#ea3471;fill-opacity:1;fill-rule:nonzero;stroke:none"
                 id="path292" /><path
                 d="m 285.59899,-352.15386 c 10.68358,0.0312 21.36766,0.0503 32.05174,0.0552 0.0171,-6.07764 0.0327,-12.18214 0.0571,-18.28565 -10.69726,0.003 -21.38769,-0.002 -32.07518,-0.0156 -0.0151,6.08936 -0.0229,12.1792 -0.0337,18.2461 z"
                 style="fill:#e23480;fill-opacity:1;fill-rule:nonzero;stroke:none"
                 id="path294" /><path
                 d="m 253.57752,-370.46099 c 0.0249,-12.1294 0.0669,-24.2588 0.16943,-36.24269 10.71631,-0.0151 21.43261,-0.0303 32.14891,-0.0449 -0.17285,11.99073 -0.23242,24.16944 -0.26318,36.34864 -10.68701,-0.0132 -21.37108,-0.0337 -32.05516,-0.061 z"
                 style="fill:#c93797;fill-opacity:1;fill-rule:nonzero;stroke:none"
                 id="path296" /><path
                 d="m 285.63268,-370.39996 c 0.0308,-12.1792 0.0903,-24.35791 0.26318,-36.34864 10.7163,-0.0151 21.43261,-0.0298 32.14891,-0.0444 -0.20459,11.99414 -0.28809,24.20069 -0.33691,36.4087 -10.69726,0.003 -21.38769,-0.002 -32.07518,-0.0156 z"
                 style="fill:#d23592;fill-opacity:1;fill-rule:nonzero;stroke:none"
                 id="path298" /><path
                 d="m 317.58139,-333.97075 c 21.31444,0.0166 42.62888,-0.0381 63.94235,-0.18408 0.0483,-6.00489 0.0776,-12.05176 0.104,-18.12012 -21.32518,0.13183 -42.65085,0.18554 -63.97701,0.17627 -0.0176,6.07763 -0.0371,12.12891 -0.0693,18.12793 z"
                 style="fill:#ed326f;fill-opacity:1;fill-rule:nonzero;stroke:none"
                 id="path300" /><path
                 d="m 317.65073,-352.09868 c 21.32616,0.009 42.65183,-0.0444 63.97701,-0.17627 0.0259,-6.06836 0.0493,-12.15772 0.0859,-18.24708 -21.32616,0.0889 -42.65281,0.13135 -64.00582,0.1377 -0.0244,6.10351 -0.04,12.20801 -0.0571,18.28565 z"
                 style="fill:#e6337d;fill-opacity:1;fill-rule:nonzero;stroke:none"
                 id="path302" /><path
                 d="m 317.70786,-370.38433 c 21.35301,-0.006 42.67966,-0.0488 64.00582,-0.1377 0.0727,-12.17822 0.19824,-24.35498 0.50488,-36.35987 -21.3911,0.0303 -42.7822,0.0591 -64.17379,0.0889 -0.20459,11.99414 -0.28809,24.20069 -0.33691,36.4087 z"
                 style="fill:#d83490;fill-opacity:1;fill-rule:nonzero;stroke:none"
                 id="path304" /><path
                 d="m 381.52374,-334.15483 c 21.31346,-0.14649 42.62644,-0.38428 63.93697,-0.73389 0.0645,-6.01074 0.10352,-12.01953 0.13965,-18.02735 -21.32421,0.3003 -42.64792,0.50928 -63.97262,0.64112 -0.0264,6.06836 -0.0557,12.11523 -0.104,18.12012 z"
                 style="fill:#ed3178;fill-opacity:1;fill-rule:nonzero;stroke:none"
                 id="path306" /><path
                 d="m 381.62774,-352.27495 c 21.3247,-0.13184 42.64841,-0.34082 63.97262,-0.64112 0.0352,-6.00732 0.0664,-12.01416 0.11621,-18.02002 -21.35155,0.19092 -42.67673,0.32568 -64.00289,0.41406 -0.0366,6.08936 -0.0601,12.17872 -0.0859,18.24708 z"
                 style="fill:#e73285;fill-opacity:1;fill-rule:nonzero;stroke:none"
                 id="path308" /><path
                 d="m 381.71368,-370.52203 c 21.32616,-0.0884 42.65134,-0.22314 64.00289,-0.41406 0.0986,-12.01221 0.2666,-24.02296 0.67578,-36.0381 -21.39159,0.0322 -42.7822,0.0625 -64.17379,0.0923 -0.30664,12.00489 -0.43213,24.18165 -0.50488,36.35987 z"
                 style="fill:#dc3495;fill-opacity:1;fill-rule:nonzero;stroke:none"
                 id="path310" /><path
                 d="m 445.46071,-334.88872 c 20.3496,-0.33447 40.79197,-0.45117 61.06344,0.41309 0.0322,-5.70118 0.0605,-11.53174 0.0918,-17.42676 -20.23827,-1.19532 -40.6572,-1.3003 -61.01559,-1.01368 -0.0361,6.00782 -0.0752,12.01661 -0.13965,18.02735 z"
                 style="fill:#ed3188;fill-opacity:1;fill-rule:nonzero;stroke:none"
                 id="path312" /><path
                 d="m 445.60036,-352.91607 c 20.35839,-0.28662 40.77732,-0.18164 61.01559,1.01368 0.0312,-5.89551 0.0654,-11.85548 0.10742,-17.81544 -20.21483,-1.36523 -40.62595,-1.40088 -61.0068,-1.21826 -0.0498,6.00586 -0.0811,12.0127 -0.11621,18.02002 z"
                 style="fill:#e83293;fill-opacity:1;fill-rule:nonzero;stroke:none"
                 id="path314" /><path
                 d="m 445.71657,-370.93609 c 20.38085,-0.18262 40.79197,-0.14697 61.0068,1.21826 0.085,-11.91992 0.20508,-23.83887 0.40918,-35.23731 -20.0537,-1.86377 -40.32712,-2.04932 -60.7402,-2.01905 -0.40918,12.01514 -0.57715,24.02589 -0.67578,36.0381 z"
                 style="fill:#de35a0;fill-opacity:1;fill-rule:nonzero;stroke:none"
                 id="path316" /><path
                 d="m 506.52415,-334.47563 c 20.27148,0.86377 40.37107,2.70947 60.0322,6.2998 0,-10.78223 0,-21.56397 0,-32.34571 -19.59863,-5.13623 -39.61815,-7.83105 -59.83298,-9.19629 -0.085,11.91993 -0.13476,23.84034 -0.19922,35.2422 z"
                 style="fill:#e93296;fill-opacity:1;fill-rule:nonzero;stroke:none"
                 id="path318" /><path
                 d="m 506.72337,-369.71783 c 20.21483,1.36524 40.23435,4.06006 59.83298,9.19629 0,-10.78223 0,-21.56397 0,-32.3462 -19.53515,-6.68164 -39.3701,-10.22314 -59.4238,-12.0874 -0.2041,11.39844 -0.32422,23.31739 -0.40918,35.23731 z"
                 style="fill:#d936ac;fill-opacity:1;fill-rule:nonzero;stroke:none"
                 id="path320" /><path
                 d="m 78.9868,-392.86774 c 24.35448,-11.91406 56.34665,-18.12451 91.23139,-18.12451 -0.0552,-3.09571 -0.10254,-6.2002 -0.13427,-9.31055 -34.35985,-0.26612 -66.51608,5.83838 -91.09712,18.63526 0,2.9331 0,5.8667 0,8.7998 z"
                 style="fill:#7c38c9;fill-opacity:1;fill-rule:nonzero;stroke:none"
                 id="path322" /><path
                 d="m 170.21819,-410.99225 c 6.41016,0 12.8208,0 19.23095,4.38476 0,-3.21582 0.009,-6.44238 0.0376,-9.67627 -6.44726,-3.84912 -12.91943,-3.96143 -19.40282,-4.01904 0.0317,3.11035 0.0791,6.21484 0.13427,9.31055 z"
                 style="fill:#913ac1;fill-opacity:1;fill-rule:nonzero;stroke:none"
                 id="path324" /><path
                 d="m 78.9868,-401.66754 c 24.58104,-12.79688 56.73727,-18.90138 91.09712,-18.63526 -0.16846,-16.6211 0.71972,-33.25929 3.75536,-49.28761 -29.86717,-1.18848 -61.19137,4.84131 -85.272896,22.82227 -6.156246,13.77393 -9.579584,29.0376 -9.579584,45.1006 z"
                 style="fill:#7538ce;fill-opacity:1;fill-rule:nonzero;stroke:none"
                 id="path326" /><path
                 d="m 170.08392,-420.3028 c 6.48339,0.0576 12.95556,0.16992 19.40282,4.01904 0.15185,-17.19434 0.84521,-34.58301 3.55859,-51.55372 -6.27344,-0.89404 -12.70507,-1.49463 -19.20605,-1.75293 -3.03564,16.02832 -3.92382,32.66651 -3.75536,49.28761 z"
                 style="fill:#883ac7;fill-opacity:1;fill-rule:nonzero;stroke:none"
                 id="path328" /><path
                 d="m 189.44914,-406.60749 c 21.4326,-0.0337 42.86521,-0.0654 64.29781,-0.0962 0.0869,-10.16748 -0.14941,-19.21338 -0.16992,-28.22852 -21.55272,-0.2583 -42.89304,-0.94971 -63.53902,-2.34766 -0.49561,10.24756 -0.58887,20.51466 -0.58887,30.67237 z"
                 style="fill:#963abf;fill-opacity:1;fill-rule:nonzero;stroke:none"
                 id="path330" /><path
                 d="m 190.03801,-437.27986 c 20.64598,1.39795 41.9863,2.08936 63.53902,2.34766 -0.02,-9.01465 0.1753,-17.99903 1.12598,-28.04395 -21.11229,-0.58252 -41.79881,-2.03223 -61.65768,-4.86133 -1.61182,10.08106 -2.51123,20.30957 -3.00732,30.55762 z"
                 style="fill:#7a3cd1;fill-opacity:1;fill-rule:nonzero;stroke:none"
                 id="path332" /><path
                 d="m 253.74695,-406.70368 c 21.43261,-0.0303 42.86521,-0.0601 64.29782,-0.0893 0.17383,-10.17823 0.24707,-19.3047 0.34912,-28.38917 -21.49755,0.33447 -43.26365,0.50879 -64.81686,0.25 0.0205,9.01514 0.25684,18.06104 0.16992,28.22852 z"
                 style="fill:#a739b7;fill-opacity:1;fill-rule:nonzero;stroke:none"
                 id="path334" /><path
                 d="m 253.57703,-434.9322 c 21.55321,0.25879 43.31931,0.0845 64.81686,-0.25 0.10205,-9.08399 0.2334,-18.12598 0.52295,-28.13428 -21.56298,0.63916 -43.10154,0.92334 -64.21383,0.34033 -0.95068,10.04492 -1.146,19.0293 -1.12598,28.04395 z"
                 style="fill:#8c3ccb;fill-opacity:1;fill-rule:nonzero;stroke:none"
                 id="path336" /><path
                 d="m 318.04477,-406.79303 c 21.39159,-0.0298 42.78269,-0.0586 64.17379,-0.0889 0.26074,-10.18799 0.6792,-19.92627 0.93994,-29.61085 -21.56004,0.44971 -43.30808,0.97705 -64.76461,1.31055 -0.10205,9.08447 -0.17529,18.21094 -0.34912,28.38917 z"
                 style="fill:#b538b3;fill-opacity:1;fill-rule:nonzero;stroke:none"
                 id="path338" /><path
                 d="m 318.39389,-435.1822 c 21.45653,-0.3335 43.20457,-0.86084 64.76461,-1.31055 0.26123,-9.68408 0.36475,-19.31446 -0.005,-29.28663 -21.1704,0.83448 -42.7158,1.82569 -64.23678,2.4629 -0.28955,10.0083 -0.4209,19.05029 -0.52295,28.13428 z"
                 style="fill:#9c3bc7;fill-opacity:1;fill-rule:nonzero;stroke:none"
                 id="path340" /><path
                 d="m 382.21856,-406.8819 c 21.39159,-0.0298 42.7822,-0.0601 64.17379,-0.0923 0.34668,-10.19775 0.54883,-20.31299 0.40528,-30.36231 -20.70605,0.0225 -42.07859,0.39453 -63.63913,0.84375 -0.26074,9.68458 -0.6792,19.42286 -0.93994,29.61085 z"
                 style="fill:#bf39b5;fill-opacity:1;fill-rule:nonzero;stroke:none"
                 id="path342" /><path
                 d="m 383.1585,-436.49275 c 21.56054,-0.44922 42.93308,-0.82129 63.63913,-0.84375 -0.14258,-10.04932 -0.62891,-20.03321 -1.65821,-29.96876 -20.02049,0.0127 -40.81589,0.69141 -61.9858,1.52588 0.36963,9.97217 0.26611,19.60255 0.005,29.28663 z"
                 style="fill:#a23bca;fill-opacity:1;fill-rule:nonzero;stroke:none"
                 id="path344" /><path
                 d="m 446.39235,-406.97419 c 40.82713,-0.061 81.09273,0.74366 120.164,14.10645 0,-2.9331 0,-5.8667 0,-8.7998 -38.5742,-14.60352 -79.09957,-15.09522 -119.8847,-14.96778 -0.0742,3.2124 -0.16895,6.43262 -0.2793,9.66113 z"
                 style="fill:#c33aba;fill-opacity:1;fill-rule:nonzero;stroke:none"
                 id="path346" /><path
                 d="m 446.67165,-416.63532 c 20.39257,-0.0635 40.7197,0.0273 60.77145,1.95996 0.0986,-8.28613 -0.0781,-17.0962 -0.77149,-25.74073 -19.87596,-2.01611 -40.17868,-1.75635 -59.96773,-1.68799 0.21582,8.4419 0.16601,16.92774 -0.0322,25.46876 z"
                 style="fill:#ba3bc0;fill-opacity:1;fill-rule:nonzero;stroke:none"
                 id="path348" /><path
                 d="m 446.70388,-442.10408 c 19.78905,-0.0684 40.09177,-0.32812 59.96773,1.68799 -0.69433,-8.64453 -1.90624,-17.12354 -3.8789,-24.74854 -18.94432,-2.46191 -38.46677,-2.21436 -57.65329,-2.14063 0.86621,8.3628 1.34864,16.75977 1.56446,25.20118 z"
                 style="fill:#9f3bd1;fill-opacity:1;fill-rule:nonzero;stroke:none"
                 id="path350" /><path
                 d="m 507.4431,-414.67536 c 20.05077,1.93213 39.82615,5.70606 59.11325,13.00782 0,-8.03174 -0.85547,-15.86329 -2.48047,-23.4087 -18.08105,-9.03272 -37.52928,-13.32373 -57.40427,-15.33985 0.69336,8.64453 0.87012,17.4546 0.77149,25.74073 z"
                 style="fill:#ba3ac7;fill-opacity:1;fill-rule:nonzero;stroke:none"
                 id="path352" /><path
                 d="m 506.67161,-440.41609 c 19.87499,2.01612 39.32322,6.30713 57.40427,15.33985 -1.62598,-7.54541 -4.02051,-14.80469 -7.09863,-21.6919 -16.87401,-10.76368 -35.24021,-15.93506 -54.18454,-18.39649 1.97266,7.625 3.18457,16.10401 3.8789,24.74854 z"
                 style="fill:#a33ad5;fill-opacity:1;fill-rule:nonzero;stroke:none"
                 id="path354" /><path
                 d="m 88.566384,-446.76814 c 24.678206,-18.42676 56.961886,-24.30225 87.489696,-22.72071 1.25439,-7.45215 2.94287,-14.78418 5.16992,-21.93946 -30.54002,-0.79053 -60.37497,7.771 -82.724563,26.99513 -3.825681,5.54297 -7.158199,11.45264 -9.935053,17.66504 z"
                 style="fill:#4e3be9;fill-opacity:1;fill-rule:nonzero;stroke:none"
                 id="path356" /><path
                 d="m 98.501437,-464.43318 c 22.349593,-19.22413 52.184543,-27.78566 82.724563,-26.99513 2.22656,-7.15527 4.9917,-14.13379 8.39941,-20.87842 -30.55174,0 -58.21139,12.38379 -78.23287,32.40577 -4.74804,4.74756 -9.06591,9.92432 -12.891103,15.46778 z"
                 style="fill:#3c42ef;fill-opacity:1;fill-rule:nonzero;stroke:none"
                 id="path358" /><path
                 d="m 176.05608,-469.48885 c 5.74609,0.29736 11.42968,0.85938 16.98925,1.65137 2.44824,-15.31299 6.54101,-30.28614 13.36474,-44.46925 -5.59473,0 -11.18945,0 -16.78466,0 -6.81543,13.48877 -11.06054,27.91407 -13.56933,42.81788 z"
                 style="fill:#5941e2;fill-opacity:1;fill-rule:nonzero;stroke:none"
                 id="path360" /><path
                 d="m 193.04533,-467.83748 c 19.85887,2.8291 40.54539,4.27881 61.65768,4.86133 0.72217,-7.62842 2.03125,-16.36866 3.65039,-24.99806 -20.4873,-0.33642 -40.7617,-1.10693 -60.26657,-2.52148 -2.18213,7.43018 -3.81738,15.00147 -5.0415,22.65821 z"
                 style="fill:#5c41e1;fill-opacity:1;fill-rule:nonzero;stroke:none"
                 id="path362" /><path
                 d="m 198.08683,-490.49569 c 19.50487,1.41455 39.77927,2.18506 60.26657,2.52148 1.61914,-8.6289 3.54833,-17.14746 5.51025,-24.33252 -19.15136,0 -38.30223,0 -57.45358,0 -3.41162,7.0918 -6.14111,14.38086 -8.32324,21.81104 z"
                 style="fill:#4447eb;fill-opacity:1;fill-rule:nonzero;stroke:none"
                 id="path364" /><path
                 d="m 254.70301,-462.97615 c 21.11229,0.58301 42.65085,0.29883 64.21383,-0.34033 0.21973,-7.60108 0.56396,-16.20899 0.98096,-24.73683 -20.35693,0.31934 -41.05711,0.41602 -61.5444,0.0791 -1.61914,8.6294 -2.92822,17.36964 -3.65039,24.99806 z"
                 style="fill:#6d41db;fill-opacity:1;fill-rule:nonzero;stroke:none"
                 id="path366" /><path
                 d="m 258.3534,-487.97421 c 20.48729,0.33692 41.18747,0.24024 61.5444,-0.0791 0.41748,-8.52783 0.90771,-16.97461 1.41894,-24.25342 -19.15087,0 -38.30222,0 -57.45309,0 -1.96192,7.18506 -3.89111,15.70362 -5.51025,24.33252 z"
                 style="fill:#4f47e7;fill-opacity:1;fill-rule:nonzero;stroke:none"
                 id="path368" /><path
                 d="m 318.91684,-463.31648 c 21.52098,-0.63721 43.06638,-1.62842 64.23678,-2.4629 -0.28125,-7.57324 -0.9375,-15.51904 -1.75732,-23.41504 -20.49657,0.37207 -41.18065,0.82227 -61.4985,1.14111 -0.417,8.52784 -0.76123,17.13575 -0.98096,24.73683 z"
                 style="fill:#7d40d7;fill-opacity:1;fill-rule:nonzero;stroke:none"
                 id="path370" /><path
                 d="m 319.8978,-488.05331 c 0.41748,-8.52783 0.90771,-16.97461 1.41894,-24.25342 9.55712,0 19.11425,0 28.67137,0 -0.0596,7.30762 0.2666,15.46973 0.5918,23.70313 -10.27246,0.19873 -20.52294,0.39111 -30.68211,0.55029 z"
                 style="fill:#5946e5;fill-opacity:1;fill-rule:nonzero;stroke:none"
                 id="path372" /><path
                 d="m 350.57991,-488.6036 c -0.3252,-8.2334 -0.65137,-16.39551 -0.5918,-23.70313 9.55712,0 19.11425,0 28.67137,0 0.93408,7.37207 1.91748,15.2168 2.73682,23.11231 -10.24805,0.18603 -20.54345,0.3916 -30.81639,0.59082 z"
                 style="fill:#5d46e5;fill-opacity:1;fill-rule:nonzero;stroke:none"
                 id="path374" /><path
                 d="m 383.15362,-465.77938 c 21.16991,-0.83447 41.96531,-1.51318 61.9858,-1.52588 -0.78125,-7.54541 -1.87597,-15.06348 -3.37011,-22.56104 -19.56737,0.006 -39.87644,0.3003 -60.37301,0.67188 0.81982,7.896 1.47607,15.8418 1.75732,23.41504 z"
                 style="fill:#823fdb;fill-opacity:1;fill-rule:nonzero;stroke:none"
                 id="path376" /><path
                 d="m 381.3963,-489.19442 c -0.81934,-7.89551 -1.80274,-15.74024 -2.73682,-23.11231 9.55712,0 19.11425,0 28.67137,0 1.92822,7.43604 3.42725,15.02295 4.60058,22.63916 -10.08544,0.1211 -20.28661,0.2876 -30.53513,0.47315 z"
                 style="fill:#6344e6;fill-opacity:1;fill-rule:nonzero;stroke:none"
                 id="path378" /><path
                 d="m 411.93143,-489.66757 c -1.17333,-7.61621 -2.67236,-15.20312 -4.60058,-22.63916 9.55712,0 19.11425,0 28.67088,0 2.37988,7.46533 4.27344,14.94239 5.76758,22.44043 -9.7832,0.003 -19.75243,0.0781 -29.83788,0.19873 z"
                 style="fill:#6a42e7;fill-opacity:1;fill-rule:nonzero;stroke:none"
                 id="path380" /><path
                 d="m 445.13942,-467.30526 c 7.00586,-0.0269 14.05566,-0.0771 21.10644,-0.01 -1.85547,-15.32373 -5.13965,-30.33497 -10.32812,-44.99171 -6.63867,0 -13.27734,0 -19.91601,0 4.76074,14.93018 7.57422,29.91016 9.13769,45.00147 z"
                 style="fill:#853ddf;fill-opacity:1;fill-rule:nonzero;stroke:none"
                 id="path382" /><path
                 d="m 466.24586,-467.31502 c 31.56931,0.30029 63.14547,2.94971 90.73139,20.54688 -2.77734,-6.2124 -6.10937,-12.12207 -9.93456,-17.66504 -23.8037,-18.80958 -53.65036,-25.47755 -84.71089,-25.62794 1.70117,7.50049 2.98632,15.08399 3.91406,22.7461 z"
                 style="fill:#883cdf;fill-opacity:1;fill-rule:nonzero;stroke:none"
                 id="path384" /><path
                 d="m 462.3318,-490.06112 c 31.06053,0.15039 60.90719,6.81836 84.71089,25.62794 -3.82617,-5.54346 -8.14355,-10.72022 -12.8916,-15.46778 -20.02147,-20.02198 -47.68161,-32.40577 -78.23335,-32.40577 2.59472,7.32861 4.71289,14.74561 6.41406,22.24561 z"
                 style="fill:#763fe6;fill-opacity:1;fill-rule:nonzero;stroke:none"
                 id="path386" /></g></g></g></g></g><g
       id="g388"><g
         id="g390"
         clip-path="url(#clipPath394)"><g
           id="g396"
           transform="translate(468.8075,189.6078)"><path
             d="m 0,0 c 0,-37.883 -30.71,-68.594 -68.594,-68.594 h -154.883 c -37.883,0 -68.594,30.711 -68.594,68.594 v 154.883 c 0,37.883 30.711,68.594 68.594,68.594 H -68.594 C -30.71,223.477 0,192.766 0,154.883 Z m -70.365,257.336 h -151.341 c -57.07,0 -103.334,-46.265 -103.334,-103.335 V 2.66 c 0,-57.07 46.264,-103.334 103.334,-103.334 h 151.341 c 57.07,0 103.335,46.264 103.335,103.334 v 151.341 c 0,57.07 -46.265,103.335 -103.335,103.335"
             style="fill:#ffffff;fill-opacity:1;fill-rule:nonzero;stroke:none"
             id="path398" /></g><g
           id="g400"
           transform="translate(322.7724,206.8331)"><path
             d="m 0,0 c -33.257,0 -60.216,26.96 -60.216,60.216 0,33.257 26.959,60.216 60.216,60.216 33.256,0 60.216,-26.959 60.216,-60.216 C 60.216,26.96 33.256,0 0,0 m 0,153.108 c -51.303,0 -92.892,-41.589 -92.892,-92.892 0,-51.302 41.589,-92.891 92.892,-92.891 51.302,0 92.891,41.589 92.891,92.891 0,51.303 -41.589,92.892 -92.891,92.892"
             style="fill:#ffffff;fill-opacity:1;fill-rule:nonzero;stroke:none"
             id="path402" /></g><g
           id="g404"
           transform="translate(418.7613,385.1141)"><path
             d="m 0,0 c -11.952,0 -21.64,-9.689 -21.64,-21.64 0,-11.952 9.688,-21.641 21.64,-21.641 11.952,0 21.64,9.689 21.64,21.641 C 21.64,-9.689 11.952,0 0,0"
             style="fill:#ffffff;fill-opacity:1;fill-rule:nonzero;stroke:none"
             id="path406" /></g></g></g></g></svg>
