<?xml version="1.0" encoding="UTF-8" standalone="no"?>
<svg id="svg2" xmlns:rdf="http://www.w3.org/1999/02/22-rdf-syntax-ns#" xmlns="http://www.w3.org/2000/svg" height="20" width="20" version="1.1" xmlns:cc="http://creativecommons.org/ns#" xmlns:xlink="http://www.w3.org/1999/xlink" xmlns:dc="http://purl.org/dc/elements/1.1/">
 <metadata id="metadata14">
  <rdf:RDF>
   <cc:Work rdf:about="">
    <dc:format>image/svg+xml</dc:format>
    <dc:type rdf:resource="http://purl.org/dc/dcmitype/StillImage"/>
    <dc:title/>
   </cc:Work>
  </rdf:RDF>
 </metadata>
 <defs id="defs12">
  <radialGradient id="radialGradient3767" gradientUnits="userSpaceOnUse" cy="12" cx="12" gradientTransform="translate(-2,-2)" r="10">
   <stop id="stop3763" stop-color="#F00" offset="0"/>
   <stop id="stop3769" stop-color="#d60404" offset="0.5"/>
   <stop id="stop3765" stop-color="#c53e19" offset="1"/>
  </radialGradient>
 </defs>
 <path id="path8" d="M10,0c-2.2482,0-4.3298,0.7477-6,2-2.4327,1.8241-4,4.7254-4,8,0,5.523,4.4772,10,10,10,5.523,0,10-4.477,10-10,0-5.5228-4.477-10-10-10zm0,3c3.866,0,7,3.134,7,7,0,1.424-0.426,2.738-1.156,3.844l-9.6878-9.6878c1.1055-0.7305,2.4198-1.1562,3.8438-1.1562zm-5.9375,3.3125,9.6255,9.6255c-1.073,0.668-2.331,1.062-3.688,1.062-3.866,0-7-3.134-7-7,0-1.357,0.3937-2.6145,1.0625-3.6875z" fill="url(#radialGradient3767)"/>
</svg>
