<?xml version="1.0" encoding="UTF-8" standalone="no"?>
<!-- Created with Inkscape (http://www.inkscape.org/) -->

<svg
   xmlns:dc="http://purl.org/dc/elements/1.1/"
   xmlns:cc="http://creativecommons.org/ns#"
   xmlns:rdf="http://www.w3.org/1999/02/22-rdf-syntax-ns#"
   xmlns:svg="http://www.w3.org/2000/svg"
   xmlns="http://www.w3.org/2000/svg"
   xmlns:xlink="http://www.w3.org/1999/xlink"
   xmlns:sodipodi="http://sodipodi.sourceforge.net/DTD/sodipodi-0.dtd"
   xmlns:inkscape="http://www.inkscape.org/namespaces/inkscape"
   height="355"
   id="svg7954"
   inkscape:version="0.48.5 r10040"
   sodipodi:docname="lastfm-unlove.svg"
   sodipodi:version="0.32"
   width="355.83426"
   inkscape:output_extension="org.inkscape.output.svg.inkscape"
   version="1.0"
   inkscape:export-filename="/Users/johnolsen/Pictures/by author build/assorted authors/heart_roberto_u._01.png"
   inkscape:export-xdpi="90"
   inkscape:export-ydpi="90">
  <metadata
     id="metadata3">
    <rdf:RDF>
      <cc:Work
         rdf:about="">
        <dc:title></dc:title>
        <dc:description>cristal heart</dc:description>
        <dc:subject>
          <rdf:Bag>
            <rdf:li>heart</rdf:li>
            <rdf:li>valentine</rdf:li>
            <rdf:li>love</rdf:li>
          </rdf:Bag>
        </dc:subject>
        <dc:publisher>
          <cc:Agent
             rdf:about="http://www.openclipart.org/">
            <dc:title>Open Clip Art Library</dc:title>
          </cc:Agent>
        </dc:publisher>
        <dc:creator>
          <cc:Agent>
            <dc:title>roberto u.</dc:title>
          </cc:Agent>
        </dc:creator>
        <dc:rights>
          <cc:Agent>
            <dc:title>roberto u.</dc:title>
          </cc:Agent>
        </dc:rights>
        <dc:date />
        <dc:format>image/svg+xml</dc:format>
        <dc:type
           rdf:resource="http://purl.org/dc/dcmitype/StillImage" />
        <cc:license
           rdf:resource="http://web.resource.org/cc/PublicDomain" />
        <dc:language>en</dc:language>
      </cc:Work>
      <cc:License
         rdf:about="http://web.resource.org/cc/PublicDomain">
        <cc:permits
           rdf:resource="http://web.resource.org/cc/Reproduction" />
        <cc:permits
           rdf:resource="http://web.resource.org/cc/Distribution" />
        <cc:permits
           rdf:resource="http://web.resource.org/cc/DerivativeWorks" />
      </cc:License>
    </rdf:RDF>
  </metadata>
  <defs
     id="defs7956">
    <linearGradient
       id="linearGradient7199">
      <stop
         id="stop7201"
         offset="0"
         style="stop-color:#fefefe;stop-opacity:1;" />
      <stop
         id="stop7203"
         offset="1"
         style="stop-color:#fefefe;stop-opacity:0;" />
    </linearGradient>
    <linearGradient
       id="linearGradient4572">
      <stop
         id="stop4574"
         offset="0"
         style="stop-color:#c71907;stop-opacity:1;" />
      <stop
         id="stop4576"
         offset="1"
         style="stop-color:#e8a06c;stop-opacity:1.0000000" />
    </linearGradient>
    <linearGradient
       id="linearGradient7100">
      <stop
         id="stop7102"
         offset="0"
         style="stop-color:#c71907;stop-opacity:1;" />
      <stop
         id="stop7104"
         offset="1"
         style="stop-color:#e38d5e;stop-opacity:1.0000000" />
    </linearGradient>
    <linearGradient
       inkscape:collect="always"
       xlink:href="#linearGradient7199"
       id="linearGradient3019"
       gradientUnits="userSpaceOnUse"
       x1="478"
       y1="1272.3622"
       x2="472.11472"
       y2="1121.9014"
       gradientTransform="translate(-141.3572,-941.30286)" />
    <linearGradient
       inkscape:collect="always"
       xlink:href="#linearGradient4572"
       id="linearGradient3023"
       gradientUnits="userSpaceOnUse"
       gradientTransform="matrix(0.992515,0.122121,-0.122121,0.992515,219.3216,-614.65626)"
       x1="232.56607"
       y1="945.0282"
       x2="364"
       y2="945.0282" />
    <linearGradient
       inkscape:collect="always"
       xlink:href="#linearGradient7100"
       id="linearGradient3026"
       gradientUnits="userSpaceOnUse"
       gradientTransform="translate(-133.38116,-931.3028)"
       x1="478.02396"
       y1="1282.1924"
       x2="368.95343"
       y2="1103.1924" />
  </defs>
  <sodipodi:namedview
     bordercolor="#666666"
     borderopacity="1.0"
     id="base"
     inkscape:current-layer="layer1"
     inkscape:cx="56.652359"
     inkscape:cy="152.71673"
     inkscape:document-units="px"
     inkscape:pageopacity="0.0"
     inkscape:pageshadow="2"
     inkscape:window-height="879"
     inkscape:window-width="1458"
     inkscape:window-x="637"
     inkscape:window-y="321"
     inkscape:zoom="1.4307535"
     pagecolor="#ffffff"
     showgrid="false"
     fit-margin-top="0"
     fit-margin-left="0"
     fit-margin-right="0"
     fit-margin-bottom="0"
     inkscape:window-maximized="0" />
  <g
     id="layer1"
     inkscape:groupmode="layer"
     inkscape:label="Livello 1"
     transform="translate(-159.22567,-117.22183)">
    <path
       inkscape:connector-curvature="0"
       style="fill:url(#linearGradient3026);fill-opacity:1;fill-rule:evenodd;stroke:#6a0000;stroke-width:9.34700012;stroke-linecap:butt;stroke-linejoin:miter;stroke-miterlimit:4;stroke-opacity:1;stroke-dasharray:none"
       sodipodi:nodetypes="cscsc"
       id="path6329"
       d="m 330.29676,209.05444 c -67.12917,-88.0824 -132.63648,-52.3204 -148.32393,7.5313 -36.86149,140.6361 148.21181,214.9999 148.21181,215 0,0 200.5707,-75.1059 160.6603,-216.1563 -15.49159,-54.75 -94.03421,-94.7526 -160.54818,-6.375 z" />
    <path
       inkscape:connector-curvature="0"
       style="opacity:0.57619048;fill:url(#linearGradient3023);fill-opacity:1;fill-rule:evenodd;stroke:none;display:inline"
       id="path7108"
       d="m 326.73313,416.76404 7.2284,7.7197 c 0,0 138.1614,-73.3034 137.68001,-110.3429 -0.48141,-37.0394 -0.4255,-7.0706 -0.4255,-7.0706 0,0 -1.69101,29.4648 -144.48291,109.6938 z" />
    <path
       inkscape:connector-curvature="0"
       style="fill:none;stroke:#440000;stroke-width:14.81405163;stroke-linecap:butt;stroke-linejoin:miter;stroke-miterlimit:4;stroke-opacity:1;stroke-dasharray:none;display:inline"
       sodipodi:nodetypes="cscsc"
       id="path7112"
       d="m 330.39602,205.19594 c -71.76698,-92.9527 -141.80006,-55.2133 -158.57133,7.9478 -39.40817,148.4121 158.45147,226.8877 158.45147,226.8878 0,0 214.42771,-79.2587 171.75999,-228.1081 -16.56188,-57.7773 -100.53085,-99.9917 -171.64013,-6.7275 z" />
    <path
       inkscape:connector-curvature="0"
       style="opacity:0.92857139;fill:url(#linearGradient3019);fill-opacity:1;fill-rule:evenodd;stroke:none"
       sodipodi:nodetypes="ccccccccccc"
       id="path7116"
       d="m 184.6428,264.05934 c -4.23633,-28.7204 5.6372,-58.9865 24.63299,-80.6714 13.65489,-12.691 33.9507,-21.7107 52.56049,-15.8451 11.85381,4.2045 22.78429,10.7766 33.41864,17.3484 14.89507,11.8874 25.75524,28.0295 35.4982,44.178 2.12596,5.847 -1.725,-7.0105 37.09075,-46.1761 20.08952,-15.2006 48.71811,-23.5829 72.34856,-11.5936 15.34185,7.8248 27.39711,20.7279 37.2853,34.592 3.22379,14.6851 -15.65663,18.0275 -24.89093,24.3233 -57.89321,29.4864 -124.52135,34.4803 -188.42795,31.9126 -26.47871,-1.0699 -53.32878,-3.5165 -79.51605,1.9319 z" />
    <path
       style="fill:none;stroke:#440000;stroke-width:31.25946617;stroke-linecap:butt;stroke-linejoin:miter;stroke-miterlimit:4;stroke-opacity:1;stroke-dasharray:none"
       d="m 346.99016,207.42047 c -5.87102,0.99925 -5.78409,2.66712 -10.46347,3.8001 -3.94609,0.9554 -10.0053,1.578 -13.95131,2.53339 -1.55986,0.37765 -1.92804,0.88905 -3.48789,1.26671 -1.97299,0.47769 -5.00261,0.78898 -6.97563,1.26669 -1.55981,0.37765 -1.92803,0.88904 -3.48782,1.26671 -15.08591,2.73941 -0.54663,-0.1678 -10.46351,2.5334 -1.82406,0.49683 -5.93576,0.7002 -6.97564,1.26669 -0.73532,0.40057 1.28978,0.91538 0,1.2667 -1.44207,0.39279 -5.13742,0.29955 -6.97567,0.63335 -0.8221,0.14927 0.51993,0.44452 0,0.63335 -1.47064,0.53408 -5.50508,0.73261 -6.97564,1.26669 -0.52001,0.18884 0,0.42224 0,0.63336 -1.16264,0.42222 -2.0458,0.8739 -3.48788,1.26669 -1.82402,0.49684 -5.1516,0.76986 -6.97564,1.26671 -1.44202,0.39278 -2.04579,0.8739 -3.48782,1.26669 -0.91207,0.24842 -2.96794,0.3501 -3.48786,0.63334 -0.73527,0.40057 0.56394,0.85709 0,1.26671 -4.2106,3.05842 -1.65747,-0.0314 -6.97565,1.90005 -0.51991,0.18883 0.36778,0.43307 0,0.63335 -0.8221,0.44785 -2.66573,0.81885 -3.48782,1.26669 -0.73532,0.40057 1.03988,0.88905 0,1.26671 -0.73532,0.26703 -2.75255,0.36631 -3.48786,0.63334 -0.51994,0.18883 0,0.42224 0,0.63335 0,0.68976 -0.65532,3.56209 0,3.8001 1.16262,0.42223 5.13743,0.29955 6.97568,0.63335 1.83825,0.3338 1.92803,0.88904 3.48782,1.26671 1.97304,0.47769 4.65045,0.84446 6.97569,1.26669 2.32521,0.42223 4.65043,0.84446 6.97564,1.2667 3.48782,0.63335 6.9757,1.2667 10.46352,1.90004 3.48782,0.63336 6.61178,1.34052 10.46349,1.90005 4.06,0.5898 9.62519,0.74298 13.95129,1.2667 3.17502,0.38436 7.3721,1.61937 10.46349,1.90005 1.03987,0.0944 2.66573,-0.14928 3.48782,0 0.82209,0.14928 -0.82209,0.48406 0,0.63334 0.82209,0.14929 2.66579,-0.14928 3.48789,0 0.82208,0.14929 -0.51995,0.44453 0,0.63336 0.73524,0.26704 2.7525,0.3663 3.48782,0.63334 0.51993,0.18884 -0.51995,0.44453 0,0.63336 0.7353,0.26704 2.7525,0.36631 3.4878,0.63334 0.51995,0.18883 -0.51993,0.44453 0,0.63336 0.73532,0.26704 2.75255,0.3663 3.48782,0.63334 0.51993,0.18883 0,0.42223 0,0.63336 0,0.42223 -0.73527,0.86613 0,1.2667 0.51993,0.28324 2.75255,0.36629 3.48787,0.63334 0.39075,0.14196 0,2.3829 0,2.5334 0,1.05559 0,2.11116 0,3.16675 0,0.63335 1.10293,1.2992 0,1.90005 -0.51993,0.28323 -2.96794,0.3501 -3.48787,0.63335 -0.73527,0.40056 0.73532,0.86613 0,1.2667 -0.51993,0.28324 -2.96787,0.3501 -3.48782,0.63335 -0.7353,0.40056 0.45611,0.85266 0,1.26669 7.00462,1.12771 -5.81306,1.90005 -6.97562,2.5334 -0.73532,0.40056 0.56393,0.85708 0,1.2667 -0.63054,0.45798 -2.32526,0.84448 -3.48789,1.2667 -1.16257,0.42224 -2.04575,0.87391 -3.48782,1.2667 -0.912,0.24842 -2.96788,0.35011 -3.48781,0.63335 -0.73532,0.40056 0.73531,0.86613 0,1.2667 -0.51994,0.28325 -2.7525,0.3663 -3.48782,0.63335 -0.51993,0.18883 0.51993,0.44452 0,0.63334 -0.73531,0.26704 -2.75257,0.36631 -3.48786,0.63336 -0.49908,0.18126 0,2.82839 0,3.16674 0,0.41607 -0.41022,2.38447 0,2.5334 0.51998,0.18882 2.44799,-0.0944 3.48786,0 1.47056,0.13352 2.57581,0.38492 3.48782,0.63335 1.44202,0.39278 2.04578,0.87391 3.48781,1.26671 0.91201,0.24841 2.32525,0.42222 3.48782,0.63334 1.16263,0.21111 2.11979,0.46774 3.48789,0.63334 2.16305,0.26187 4.81257,0.3715 6.97562,0.63336 5.23175,0.63335 3.48782,1.2667 10.46351,1.90004 2.07974,0.18884 4.71986,-0.1024 6.97565,0 2.52206,0.11449 4.65042,0.42224 6.97568,0.63336 2.3252,0.21111 4.65043,0.42222 6.97563,0.63335 8.46054,0.76815 15.95436,1.76522 24.41482,2.5334 6.97571,0.63335 13.95134,1.26669 20.92698,1.90005 2.32524,0.21111 5.13744,0.29954 6.97569,0.63334 1.83825,0.33381 1.64957,0.9329 3.48782,1.26669 0.8221,0.14929 2.66573,-0.14927 3.48782,0 0.82209,0.14929 0,0.42224 0,0.63336 0,0.28522 0.53075,1.70729 0,1.90004 -1.54569,0.56137 -8.3468,1.32351 -10.46347,1.90006 -2.88409,0.78557 -4.09159,1.74782 -6.97568,2.5334 -1.82401,0.49683 -4.65043,0.84446 -6.97563,1.26669 -2.32526,0.42223 -4.23961,0.93547 -6.97571,1.26671 -0.96735,0.1171 -2.66572,-0.14929 -3.48782,0 -1.83825,0.33379 -2.04578,0.8739 -3.4878,1.26669 -0.91201,0.24842 -2.32526,0.42223 -3.48782,0.63335 -1.16261,0.21111 -2.1198,0.46774 -3.48787,0.63336 -2.16305,0.26184 -4.81257,0.37148 -6.97562,0.63333 -2.7361,0.33124 -4.23962,0.93548 -6.97571,1.26671 -2.16306,0.26186 -5.13738,0.29954 -6.97563,0.63335 -1.83825,0.3338 -2.04579,0.8739 -3.48782,1.2667 0.34831,1.2547 -5.13745,0.29955 -6.97571,0.63335 -1.83825,0.3338 -1.64955,0.9329 -3.4878,1.26669 -7.21646,1.31043 0.28194,-2.0025 -6.97569,0.63335 -2.40544,0.87362 4.22399,0.56652 -3.48782,1.26671 -1.03986,0.0944 -2.66572,-0.14929 -3.4878,0 -0.8221,0.14928 0.51993,0.44452 0,0.63334 -1.47064,0.53409 -5.50508,0.73261 -6.97571,1.2667 -0.51994,0.18883 0.51998,0.44453 0,0.63335 -0.73525,0.26704 -2.75251,0.3663 -3.48782,0.63335 -0.51993,0.18883 0.51994,0.44452 0,0.63334 -1.47055,0.53409 -5.93576,0.70023 -6.97563,1.26671 -0.73531,0.40056 0.73532,0.86613 0,1.26669 -0.51993,0.28325 -2.96788,0.35012 -3.48786,0.63336 -0.73527,0.40057 0.73529,0.86614 0,1.2667 -0.51994,0.28323 -2.9679,0.3501 -3.48782,0.63334 -0.66135,0.36029 0,2.57024 0,3.16675 0,0.28523 -0.53071,1.7073 0,1.90005 0.73529,0.26704 2.32523,0.42224 3.48782,0.63335 1.16261,0.21111 2.32523,0.42223 3.48786,0.63336 2.3252,0.42223 4.65043,0.84446 6.97563,1.26669 1.16264,0.21112 2.11979,0.46774 3.48782,0.63335 2.16306,0.26186 4.81262,0.37149 6.97571,0.63335 4.1041,0.49683 6.35937,1.4032 10.46349,1.90005 0.96735,0.11711 2.38487,-0.0667 3.48782,0 2.46625,0.14927 4.81257,0.37149 6.97565,0.63334 1.36807,0.16562 2.11979,0.46774 3.48786,0.63336 2.16306,0.26185 4.81258,0.37149 6.97563,0.63334 1.36807,0.16561 2.01726,0.49983 3.48782,0.63336 1.03987,0.0944 2.32525,0 3.48786,0 2.3252,0.21111 4.81258,0.37149 6.97565,0.63334 1.36803,0.16562 2.01724,0.49983 3.48782,0.63336 1.03985,0.0944 2.66577,-0.14929 3.48787,0 0.82208,0.14928 -0.51998,0.44451 0,0.63334 0.73527,0.26705 2.7525,0.36632 3.48782,0.63336 0.51993,0.18882 -0.8221,0.48406 0,0.63334 0.82208,0.14927 2.66572,-0.14928 3.4878,0 0.14033,0.0254 0,2.30081 0,2.5334 0,0.21111 0,0.42223 0,0.63334 0,0.21113 0.51995,0.44453 0,0.63336 -1.54565,0.56136 -8.3468,1.3235 -10.46349,1.90004 -9.30088,2.5334 3.48787,0.21112 -10.46347,1.90006 -3.17502,0.38437 -7.3721,1.61936 -10.46349,1.90004 -1.03987,0.0944 -2.66574,-0.14928 -3.48782,0 -0.82209,0.14928 0.82208,0.48406 0,0.63336 -0.82209,0.14927 -2.66577,-0.1493 -3.48786,0 -0.82211,0.14927 0.82209,0.48407 0,0.63334 -0.82211,0.14929 -2.66575,-0.14927 -3.48785,0 -1.64417,0.29857 1.64419,0.96813 0,1.2667 -0.82208,0.14928 -2.44794,-0.0944 -3.4878,0 -7.71181,0.70019 -1.08233,0.39308 -3.48782,1.26669 -0.73532,0.26705 -2.75255,0.36632 -3.48787,0.63336 -0.51993,0.18884 0.8221,0.48407 0,0.63335 -0.82208,0.14928 -2.66572,-0.14928 -3.48782,0 -1.64417,0.29856 1.64419,0.96812 0,1.26669 -0.82208,0.14929 -2.66572,-0.14928 -3.4878,0 -0.11231,0.0204 0,1.74645 0,1.90006 0,0.44892 -0.45113,3.63634 0,3.8001 0.7353,0.26704 2.32517,0.42222 3.4878,0.63334 3.48782,0.63336 6.97569,1.26669 10.46351,1.90006 1.16263,0.21111 2.5758,0.38491 3.4878,0.63334 3.38852,0.92296 2.17746,1.31919 6.97571,1.90005 2.16306,0.26186 5.13738,0.29955 6.97563,0.63335 0.82209,0.14928 -0.82208,0.48406 0,0.63335 1.83825,0.3338 4.81262,0.37148 6.97568,0.63334 3.00962,0.36436 7.73922,1.40536 10.46347,1.90006 1.16261,0.21112 2.01723,0.49982 3.48787,0.63334 1.03986,0.0944 2.66572,-0.14928 3.48782,0 0.82208,0.14928 -0.51995,0.44452 0,0.63334 0.7353,0.26705 2.7525,0.36632 3.4878,0.63337 0.51995,0.18882 0,0.42222 0,0.63334 0,0.21112 0,0.42224 0,0.63335 0,0.56604 0.55577,2.96491 0,3.16674 -0.7353,0.26705 -2.5758,0.38493 -3.4878,0.63337 -7.68426,0.31893 -1.84365,1.30291 -3.48782,1.90003 -0.73532,0.26705 -2.75255,0.36632 -3.48787,0.63337 -0.51993,0.18882 0.51993,0.44451 0,0.63334 -0.73527,0.26704 -2.7525,0.36631 -3.48782,0.63334 -0.51993,0.18884 0.51995,0.44452 0,0.63335 -0.7353,0.26705 -2.75252,0.36632 -3.4878,0.63336 -0.51995,0.18882 0.5199,0.44452 0,0.63335 -0.73532,0.26704 -2.75258,0.36631 -3.48785,0.63334 -0.51992,0.18883 0,0.42224 0,0.63335 -1.16261,0.21112 -2.75255,0.36632 -3.48786,0.63336 -0.51994,0.18882 0.82209,0.48406 0,0.63335 -0.82209,0.14928 -2.44795,-0.0944 -3.48782,0 -0.92604,0.0841 -10.00045,1.73188 -10.46349,1.90005 -0.51994,0.18882 0.82209,0.48406 0,0.63335 -0.82211,0.14927 -2.66575,-0.14929 -3.48785,0 -0.82208,0.14927 0.51995,0.44452 0,0.63334 -1.47055,0.53408 -5.50504,0.73261 -6.97562,1.2667 -0.51993,0.18883 0,0.42223 0,0.63335 0,0.21111 -0.51993,0.44453 0,0.63334 0.73527,0.26705 2.32519,0.42224 3.48782,0.63335 1.16263,0.21113 2.32519,0.42224 3.4878,0.63335 1.16265,0.21112 2.11982,0.46774 3.48785,0.63336 2.16306,0.26185 5.13743,0.29955 6.97568,0.63334 1.83825,0.33381 1.64956,0.93289 3.48781,1.2667 0.82209,0.14928 2.38488,-0.0667 3.48782,0 2.46627,0.14928 5.13744,0.29955 6.97571,0.63336 0.82208,0.14928 -0.8221,0.48406 0,0.63334 1.64417,0.29856 5.33145,-0.29856 6.97562,0 0.8221,0.14929 0,0.42224 0,0.63335 0,0.21112 1.16261,0.63335 0,0.63335 -1.16256,0 0,-0.84446 0,-0.63335 0,0.42223 0,0.84447 0,1.26671 0,0.2111 0.51993,0.44451 0,0.63334 -0.73527,0.26704 -2.7525,0.36631 -3.48782,0.63335 -0.51993,0.18883 0.8221,0.48406 0,0.63334 -7.21647,1.31043 0.28196,-2.00248 -6.97565,0.63337 -0.51992,0.18882 0.82211,0.48406 0,0.63333 -0.82209,0.1493 -2.66577,-0.14927 -3.48786,0 -7.2164,1.31043 11.02771,-0.0512 -3.48782,1.2667 -4.81098,0.43682 -3.11974,-0.76701 -6.97563,0.63337 -0.51994,0.18882 0.82208,0.48406 0,0.63333 -1.64417,0.29857 -5.33152,-0.29856 -6.97571,0 -1.64417,0.29857 1.64419,0.96814 0,1.2667 -1.64417,0.29857 -5.33145,-0.29856 -6.97562,0 -0.8221,0.14929 0.82208,0.48407 0,0.63337 -0.8221,0.14927 -2.66577,-0.1493 -3.48787,0 -0.82208,0.14927 0.8221,0.48406 0,0.63333 -0.82208,0.14929 -2.66572,-0.14927 -3.48782,0 -1.64417,0.29857 1.03985,0.88904 0,1.2667 -0.7353,0.26705 -2.7525,0.36631 -3.4878,0.63336 -0.39075,0.14195 0,2.38289 0,2.53339 0,0.21112 -0.8221,0.48408 0,0.63335 0.82208,0.14928 2.66572,-0.14927 3.4878,0 1.64419,0.29857 -1.03986,0.88904 0,1.2667 0.73532,0.26704 2.75255,0.36631 3.48782,0.63335 0.53076,0.19275 0,1.61482 0,1.90005 0,0.21111 0.8221,0.48406 0,0.63334 -0.82208,0.14928 -2.66572,-0.14928 -3.48782,0 -0.82208,0.14928 0.51995,0.44453 0,0.63336 -4.3099,1.56526 -3.4878,-4.01872 -3.4878,-2.5334"
       id="path3028"
       inkscape:connector-curvature="0"
       sodipodi:nodetypes="csccscsscsscccsccsscsccscsccssssssssssscccsccssscccccscsscsccsccssccccsscscsssscssscsscsssscssssssccsscscssscsssscccccsccccsccsssssssssssssssssssssscsccssscsssssssccssccsscccsscsssscscsccsscsssssssccssssssssssssssscsssscssssc" />
  </g>
</svg>
