<?xml version="1.0" encoding="UTF-8" standalone="no"?>
<!-- Created with Inkscape (http://www.inkscape.org/) -->
<svg id="svg2965" xmlns:rdf="http://www.w3.org/1999/02/22-rdf-syntax-ns#" xmlns="http://www.w3.org/2000/svg" height="168.47" width="166.37" version="1.1" xmlns:cc="http://creativecommons.org/ns#" xmlns:xlink="http://www.w3.org/1999/xlink" xmlns:dc="http://purl.org/dc/elements/1.1/">
 <defs id="defs2967">
  <linearGradient id="linearGradient3008" y2="-147.97" gradientUnits="userSpaceOnUse" x2="387.75" gradientTransform="matrix(-0.70976448,0,0,0.73685473,358.40079,238.88486)" y1="-310.05" x1="381.89">
   <stop id="stop3919-3" stop-color="#edf4fd" stop-opacity="0.52845526" offset="0"/>
   <stop id="stop3921-4" stop-color="#175bb3" stop-opacity="0" offset="1"/>
  </linearGradient>
  <linearGradient id="linearGradient3014" y2="-148.13" gradientUnits="userSpaceOnUse" x2="387.75" gradientTransform="matrix(-0.70976448,0,0,0.73685473,358.40079,238.88486)" y1="-298.54" x1="379.92">
   <stop id="stop3954-9" stop-color="#ed2300" offset="0"/>
   <stop id="stop3956-9" stop-color="#ff0600" stop-opacity="0" offset="1"/>
  </linearGradient>
 </defs>
 <metadata id="metadata2970">
  <rdf:RDF>
   <cc:Work rdf:about="">
    <dc:format>image/svg+xml</dc:format>
    <dc:type rdf:resource="http://purl.org/dc/dcmitype/StillImage"/>
    <dc:title/>
   </cc:Work>
  </rdf:RDF>
 </metadata>
 <path id="path4155" d="m0.0021945,84.237c0,46.523,37.244,84.238,83.188,84.238,45.942,0,83.188-37.714,83.188-84.238,0-46.523-37.244-84.238-83.188-84.238-45.942,0-83.188,37.714-83.188,84.238z" stroke-miterlimit="4" stroke-dasharray="none" stroke-width="1.89999998000000003" fill="#dd4100"/>
 <path id="path4157" d="m5.3497,85.287c0,44.63,34.849,80.811,77.84,80.811,42.989,0,77.84-36.18,77.84-80.811,0-44.63-34.849-80.811-77.84-80.811-42.989,0-77.84,36.18-77.84,80.811z" stroke-miterlimit="4" stroke-dasharray="none" stroke-width="1.89999998" fill="url(#linearGradient3014)"/>
 <path id="path4159" d="m83.187,4.466c42.989,0,77.84,36.201,77.84,80.829,0,2.8463-0.15011,5.6446-0.42667,8.4151-37.98,14.2-96.014,24.55-155.26-8.036-0.0005613-0.12664,0-0.25249,0-0.37926,0-44.629,34.855-80.829,77.84-80.829z" stroke-miterlimit="4" stroke-dasharray="none" stroke-width="1.89999998" fill="url(#linearGradient3008)"/>
 <path id="path2988" d="m124.47,77.79c-1.0457-0.3429-2.0574-0.65905-3.0302-0.96791-7.4344-2.3371-11.916-3.7476-11.916-9.5331,0-4.6936,3.6187-8.0959,8.6114-8.0959,3.823,0,6.6732,1.5856,9.2292,5.163,0.23833,0.33317,0.68824,0.45233,1.0603,0.25535l7.5001-3.8278c0.20429-0.0997,0.35506-0.28454,0.41829-0.50341,0.0657-0.21887,0.0438-0.45234-0.0705-0.65176-4.0175-7.1401-9.8128-10.61-17.717-10.61-12.026,0-19.803,7.2763-19.803,18.536,0,11.513,7.5195,16.172,21.389,20.737,8.0375,2.68,11.591,4.1002,11.591,9.8177,0,6.4276-5.7953,11.048-13.709,10.778-8.288-0.27967-10.8-4.6742-13.959-11.87-5.3429-12.189-11.423-26.418-11.481-26.557-6.1041-14.081-18.201-22.15-33.193-22.15-19.806,0-35.92,16.116-35.92,35.929,0,19.803,16.114,35.92,35.92,35.92,10.803,0,20.929-4.7885,27.777-13.142,0.19943-0.2432,0.24806-0.56907,0.12403-0.86091l-4.5307-10.45c-0.1289-0.28939-0.4183-0.48394-0.73688-0.49854-0.32831-0.0146-0.62257,0.16537-0.76848,0.44747-4.2753,8.1688-12.653,13.242-21.87,13.242-13.592,0-24.648-11.058-24.648-24.657s11.058-24.657,24.65-24.657c9.8955,0,18.962,5.8731,22.563,14.635l11.199,25.545,1.2914,2.8697c5.0633,11.795,12.503,17.079,24.154,17.123,13.855,0,24.3-9.1805,24.3-21.35,0-12.228-6.7583-16.809-18.424-20.615z" fill="#FFF"/>
</svg>
