<?xml version="1.0" encoding="UTF-8" standalone="no"?>
<!-- Created with Inkscape (http://www.inkscape.org/) -->
<svg id="svg7954" xmlns:rdf="http://www.w3.org/1999/02/22-rdf-syntax-ns#" xmlns="http://www.w3.org/2000/svg" height="355" width="355.83" version="1.0" xmlns:cc="http://creativecommons.org/ns#" xmlns:xlink="http://www.w3.org/1999/xlink" xmlns:dc="http://purl.org/dc/elements/1.1/">
 <metadata id="metadata3">
  <rdf:RDF>
   <cc:Work rdf:about="">
    <dc:title/>
    <dc:description>cristal heart</dc:description>
    <dc:subject>
     <rdf:Bag>
      <rdf:li>heart</rdf:li>
      <rdf:li>valentine</rdf:li>
      <rdf:li>love</rdf:li>
     </rdf:Bag>
    </dc:subject>
    <dc:publisher>
     <cc:Agent rdf:about="http://www.openclipart.org/">
      <dc:title>Open Clip Art Library</dc:title>
     </cc:Agent>
    </dc:publisher>
    <dc:creator>
     <cc:Agent>
      <dc:title>roberto u.</dc:title>
     </cc:Agent>
    </dc:creator>
    <dc:rights>
     <cc:Agent>
      <dc:title>roberto u.</dc:title>
     </cc:Agent>
    </dc:rights>
    <dc:date/>
    <dc:format>image/svg+xml</dc:format>
    <dc:type rdf:resource="http://purl.org/dc/dcmitype/StillImage"/>
    <cc:license rdf:resource="http://web.resource.org/cc/PublicDomain"/>
    <dc:language>en</dc:language>
   </cc:Work>
   <cc:License rdf:about="http://web.resource.org/cc/PublicDomain">
    <cc:permits rdf:resource="http://web.resource.org/cc/Reproduction"/>
    <cc:permits rdf:resource="http://web.resource.org/cc/Distribution"/>
    <cc:permits rdf:resource="http://web.resource.org/cc/DerivativeWorks"/>
   </cc:License>
  </rdf:RDF>
 </metadata>
 <defs id="defs7956">
  <linearGradient id="linearGradient7952" y2="1121.9" gradientUnits="userSpaceOnUse" y1="1272.4" x2="472.11" x1="478">
   <stop id="stop7201" stop-color="#fefefe" offset="0"/>
   <stop id="stop7203" stop-color="#fefefe" stop-opacity="0" offset="1"/>
  </linearGradient>
  <linearGradient id="linearGradient7950" y2="945.03" gradientUnits="userSpaceOnUse" y1="945.03" gradientTransform="matrix(0.992515,0.122121,-0.122121,0.992515,360.6788,326.6466)" x2="364" x1="232.57">
   <stop id="stop4574" stop-color="#c71907" offset="0"/>
   <stop id="stop4576" stop-color="#e8a06c" offset="1"/>
  </linearGradient>
  <linearGradient id="linearGradient7948" y2="1103.2" gradientUnits="userSpaceOnUse" y1="1282.2" gradientTransform="translate(7.976042,10.00006)" x2="368.95" x1="478.02">
   <stop id="stop7102" stop-color="#c71907" offset="0"/>
   <stop id="stop7104" stop-color="#e38d5e" offset="1"/>
  </linearGradient>
 </defs>
 <g id="layer1" transform="translate(-159.22567,-117.22183)">
  <g id="g7942" transform="translate(-141.3572,-941.30286)">
   <path id="path6329" stroke-linejoin="miter" d="m471.65,1150.4c-67.129-88.082-132.64-52.32-148.32,7.5313-36.861,140.64,148.21,215,148.21,215s200.57-75.106,160.66-216.16c-15.492-54.75-94.034-94.753-160.55-6.375z" fill-rule="evenodd" stroke="#6a0000" stroke-linecap="butt" stroke-miterlimit="4" stroke-dasharray="none" stroke-width="9.34700012" fill="url(#linearGradient7948)"/>
   <path id="path7108" opacity="0.57619048" d="m468.09,1358.1,7.2284,7.7197s138.16-73.303,137.68-110.34c-0.48141-37.039-0.4255-7.0706-0.4255-7.0706s-1.691,29.465-144.48,109.69z" fill-rule="evenodd" fill="url(#linearGradient7950)"/>
   <path id="path7112" stroke-linejoin="miter" d="m471.75,1146.5c-71.767-92.953-141.8-55.213-158.57,7.9478-39.408,148.41,158.45,226.89,158.45,226.89s214.43-79.259,171.76-228.11c-16.562-57.777-100.53-99.992-171.64-6.7275z" stroke="#400" stroke-linecap="butt" stroke-miterlimit="4" stroke-dasharray="none" stroke-width="14.81405163" fill="none"/>
   <path id="path7116" opacity="0.92857139" d="m326,1205.4c-4.2363-28.72,5.6372-58.986,24.633-80.671,13.655-12.691,33.951-21.711,52.56-15.845,11.854,4.2045,22.784,10.777,33.419,17.348,14.895,11.887,25.755,28.03,35.498,44.178,2.126,5.847-1.725-7.0105,37.091-46.176,20.09-15.201,48.718-23.583,72.349-11.594,15.342,7.8248,27.397,20.728,37.285,34.592,3.2238,14.685-15.657,18.028-24.891,24.323-57.893,29.486-124.52,34.48-188.43,31.913-26.479-1.0699-53.329-3.5165-79.516,1.9319z" fill-rule="evenodd" fill="url(#linearGradient7952)"/>
  </g>
 </g>
</svg>
