<?xml version="1.0" encoding="UTF-8" standalone="no"?>
<!-- Created with Inkscape (http://www.inkscape.org/) -->
<svg id="svg2" xmlns:rdf="http://www.w3.org/1999/02/22-rdf-syntax-ns#" xmlns="http://www.w3.org/2000/svg" height="154.54" width="155.08" version="1.0" xmlns:cc="http://creativecommons.org/ns#" xmlns:xlink="http://www.w3.org/1999/xlink" xmlns:dc="http://purl.org/dc/elements/1.1/">
 <defs id="defs4">
  <linearGradient id="linearGradient3155" y2="-130.79" gradientUnits="userSpaceOnUse" x2="463.22" gradientTransform="matrix(0.15153471,0,0,0.15566068,270.46007,-266.4336)" y1="340.63" x1="41.689">
   <stop id="stop3261" stop-color="#FEFDB7" offset="0"/>
   <stop id="stop3267" stop-color="#F5F06C" offset="1"/>
  </linearGradient>
  <linearGradient id="linearGradient3157" y2="393.27" gradientUnits="userSpaceOnUse" x2="743.11" gradientTransform="matrix(0,0.09467888,-0.11544751,0,283.20678,244.76904)" y1="584.52" x1="351.58">
   <stop id="stop1502" stop-color="#FFF" offset="0"/>
   <stop id="stop1504" stop-color="#FFF" stop-opacity="0" offset="1"/>
  </linearGradient>
  <linearGradient id="linearGradient3159" y2="882.59" gradientUnits="userSpaceOnUse" x2="190.95" gradientTransform="matrix(0.14833477,0,0,0.15901866,187.77343,183.37116)" y1="823.61" x1="223.7">
   <stop id="stop4155" stop-color="#FDFB63" offset="0"/>
   <stop id="stop4157" stop-color="#E2D94A" offset="1"/>
  </linearGradient>
  <linearGradient id="linearGradient3161" y2="318.69" gradientUnits="userSpaceOnUse" x2="185.48" gradientTransform="matrix(2.3454,2.34335,-2.3454,2.34335,888.991,-800.77)" y1="318.69" x1="148.7">
   <stop id="stop4256" stop-color="#FF9191" offset="0"/>
   <stop id="stop4258" stop-color="#B55858" offset="1"/>
  </linearGradient>
  <linearGradient id="linearGradient3163" y2="437.79" gradientUnits="userSpaceOnUse" x2="365.75" gradientTransform="matrix(2.52783,2.52562,-2.52783,2.52562,565.911,-1456.14)" y1="437.79" x1="331.72">
   <stop id="stop3687" stop-color="#FFF" offset="0"/>
   <stop id="stop3711" stop-color="#FFDD7C" offset="1"/>
  </linearGradient>
  <linearGradient id="linearGradient3165" y2="414.36" gradientUnits="userSpaceOnUse" x2="353.75" gradientTransform="matrix(2.52783,2.52562,-2.52783,2.52562,565.911,-1456.14)" y1="414.36" x1="335.72">
   <stop id="stop3708" stop-color="#FFF" stop-opacity="0.826531" offset="0"/>
   <stop id="stop3710" stop-color="#FFF" stop-opacity="0" offset="1"/>
  </linearGradient>
 </defs>
 <metadata id="metadata7">
  <rdf:RDF>
   <cc:Work rdf:about="">
    <dc:format>image/svg+xml</dc:format>
    <dc:type rdf:resource="http://purl.org/dc/dcmitype/StillImage"/>
    <dc:title/>
    <dc:date>14 Jun 08</dc:date>
    <dc:creator>
     <cc:Agent>
      <dc:title>Jeremy Bennett</dc:title>
     </cc:Agent>
    </dc:creator>
    <dc:rights>
     <cc:Agent>
      <dc:title>Public Domain</dc:title>
     </cc:Agent>
    </dc:rights>
    <dc:publisher>
     <cc:Agent>
      <dc:title>Jeremy Bennett</dc:title>
     </cc:Agent>
    </dc:publisher>
    <dc:contributor>
     <cc:Agent>
      <dc:title>Richard Tallent and Barret Ruttan from the Open Clip Art library</dc:title>
     </cc:Agent>
    </dc:contributor>
    <dc:description>A pencil writing on a sticky note. Created for use as a &quot;note&quot; admonition with Docbook and FOP</dc:description>
    <dc:subject>
     <rdf:Bag>
      <rdf:li>color</rdf:li>
      <rdf:li>icon</rdf:li>
      <rdf:li>office</rdf:li>
      <rdf:li>computer</rdf:li>
      <rdf:li>docbook</rdf:li>
      <rdf:li>admonition</rdf:li>
     </rdf:Bag>
    </dc:subject>
    <dc:language>en-GB</dc:language>
    <cc:license rdf:resource="http://creativecommons.org/licenses/publicdomain/"/>
   </cc:Work>
   <cc:License rdf:about="http://creativecommons.org/licenses/publicdomain/">
    <cc:permits rdf:resource="http://creativecommons.org/ns#Reproduction"/>
    <cc:permits rdf:resource="http://creativecommons.org/ns#Distribution"/>
    <cc:permits rdf:resource="http://creativecommons.org/ns#DerivativeWorks"/>
   </cc:License>
  </rdf:RDF>
 </metadata>
 <g id="layer2" transform="translate(-210.79568,-274.50515)">
  <g id="g10892" transform="matrix(2.8554109,0,0,2.7845132,-389.12153,-487.21014)">
   <g id="g3127" transform="translate(0.50463357,0.8354518)">
    <rect id="rect3269" stroke-linejoin="miter" stroke-dasharray="none" transform="matrix(0,1,-1,0,0,0)" fill-rule="evenodd" stroke-dashoffset="0" rx="0.19988" ry="0.20532" height="53.714" width="54.862" stroke="#f6db32" stroke-linecap="butt" stroke-miterlimit="4" y="-263.61" x="273.03" stroke-width="0.61434" fill="url(#linearGradient3155)"/>
    <path id="path1500" opacity="0.277778" d="m263.24,273.61-25.918-0.0975-25.918-0.0974s-8.144,83.366,19.188,37.428,30.556-26.514,32.648-37.233z" fill-rule="evenodd" stroke-width="1pt" fill="url(#linearGradient3157)"/>
    <path id="path2611" d="m256.83,319.4c-0.97614-0.0186-1.9508,0.0678-2.9237,0.13614-0.91553,0.07-1.8333,0.0936-2.7512,0.10097-1.1145-0.0227-2.2247-0.0963-3.3349-0.18963-1.4308-0.11724-2.8619-0.22299-4.2966-0.28014-1.1681-0.0484-2.3377-0.0247-3.5059-0.0635-1.0682-0.0177-2.1256-0.17903-3.1837-0.30861-1.13-0.13849-2.2611-0.26296-3.3934-0.38217-0.93243-0.1333-1.8686-0.22891-2.8094-0.27633-0.67957-0.0296-1.3598-0.027-2.0398-0.0268-0.46756,0.001-0.93511,0.003-1.4027,0.005-0.4243,0.0405-0.84554,0.0824-1.2653,0.1545-0.39734,0.0602-0.79912,0.0868-1.2007,0.0983-0.32757-0.0172-0.64387,0.0256-0.96525,0.0781-0.28446,0.0448-0.57326,0.0487-0.86064,0.0545-0.32738,0.003-0.65476,0.003-0.98214,0.001-0.33815,0.0234-0.6667-0.0187-0.99948-0.0686-0.34562-0.0278-0.68154-0.10445-1.0112-0.20852-0.43843-0.18409-0.90143-0.27453-1.3719-0.32928-0.33224-0.0344-0.66647-0.0366-1.0001-0.0363-0.28804,0.002-0.57608,0.002-0.86412,0.003-0.3066,0.00014-0.61319,0.00022-0.91978,0.00075-0.26348,0.018-0.53718-0.0352-0.79512,0.027-0.16263,0.0453-0.33211,0.059-0.49964,0.0752l1.544-1.1342c0.16756-0.0226,0.33325-0.0537,0.50021-0.0797,0.26863-0.01,0.53757-0.002,0.80633-0.004,0.30649,0.00037,0.61297,0.00026,0.91945-0.001,0.28874-0.00063,0.57748-0.004,0.86622-0.002,0.33533,0.005,0.67099,0.0172,1.0035,0.0634,0.47588,0.0707,0.93927,0.18356,1.3901,0.35215,0.33003,0.0881,0.66495,0.14446,1.0048,0.18116,0.32499,0.0476,0.64984,0.0592,0.97846,0.0488,0.32779-0.001,0.65566,0.00033,0.98335-0.009,0.28356-0.009,0.56707-0.0253,0.84686-0.0749,0.32307-0.0476,0.64674-0.053,0.97308-0.0559,0.39627-0.0182,0.79257-0.0464,1.1836-0.11582,0.42476-0.067,0.85458-0.10505,1.2838-0.12953,0.46487,0.00062,0.92975-0.00016,1.3946,0.001,0.67483,0.003,1.3499,0.0164,2.0239,0.0501,0.93891,0.0528,1.8706,0.16672,2.802,0.29351,1.1334,0.12066,2.2645,0.25815,3.3973,0.38338,1.0524,0.1306,2.1052,0.28061,3.1677,0.29862,1.165,0.0297,2.3312,0.0162,3.4956,0.074,1.4341,0.0673,2.8643,0.18274,4.2959,0.2885,1.1171,0.0813,2.2354,0.13882,3.3557,0.15422,0.91168-0.0146,1.8233-0.0383,2.7332-0.10072,0.99477-0.0643,1.9892-0.14181,2.9861-0.1654l-1.5589,1.1174z" fill="#000"/>
    <path id="path2613" d="m255.38,325.42c-1.4497,0.10366-2.9003,0.19005-4.3524,0.25376-1.5568,0.0462-3.1071-0.0828-4.6512-0.26216-1.0584-0.14045-2.1236-0.20942-3.1903-0.24404-0.98276-0.0347-1.9664-0.0751-2.948-0.13664-1.0418-0.0733-2.0856-0.10775-3.1297-0.12545-0.60168-0.0307-1.197,0.003-1.7945,0.0635-0.46802,0.10564-0.9473,0.12713-1.4218,0.1863-0.54089,0.0781-1.0874,0.10395-1.6331,0.12098-0.50506,0.0136-1.0103,0.0128-1.5155,0.013-0.51946,0.007-1.0368,0.0677-1.5559,0.0946-0.52157,0.0232-1.0437,0.0297-1.5658,0.0324-0.45531,0.0164-0.91017-0.0305-1.359-0.10325-0.5162-0.0916-1.0313-0.1893-1.5475-0.28131-0.55018-0.14168-1.1067-0.24477-1.6648-0.34963-0.55806-0.13475-1.107-0.30515-1.6592-0.46272-0.38057-0.13001-0.78191-0.15502-1.1747-0.22271-0.37961-0.0493-0.75549-0.11877-1.1343-0.17316-0.36437-0.0138-0.71599-0.10948-1.0761-0.15343-0.37082-0.0285-0.73957-0.0404-1.1084-0.0896-0.31868-0.0401-0.63578-0.0586-0.9501-0.12447-0.20838-0.0463-0.42103-0.0638-0.63375-0.0753l1.5667-1.1061c0.21721,0.0191,0.43308,0.0481,0.64596,0.0959,0.30956,0.057,0.6252,0.0674,0.93603,0.11788,0.36988,0.0435,0.74262,0.0404,1.112,0.0899,0.35765,0.0545,0.71119,0.13279,1.0733,0.15817,0.37882,0.0589,0.75774,0.11555,1.1368,0.17261,0.39897,0.0547,0.79458,0.12274,1.1781,0.24912,0.54726,0.15549,1.0884,0.3375,1.647,0.44907,0.55909,0.10115,1.1106,0.22811,1.6655,0.34825,0.51519,0.0942,1.0304,0.1893,1.5474,0.27321,0.44538,0.0563,0.89249,0.0974,1.3422,0.0801,0.51875-0.004,1.0377-0.008,1.5558-0.0371,0.52188-0.0319,1.0427-0.0938,1.5661-0.0888,0.50275-0.00022,1.0056-0.00078,1.5082-0.0159,0.54318-0.021,1.0855-0.0575,1.624-0.13385,0.47832-0.0534,0.95564-0.10781,1.4304-0.18777,0.59109-0.0552,1.1815-0.0457,1.7746-0.0215,1.043,0.0258,2.0856,0.0652,3.1266,0.13616,0.98434,0.0518,1.9695,0.0947,2.9547,0.12716,1.0617,0.0445,2.1216,0.1258,3.1741,0.27339,1.5259,0.17751,3.0579,0.31922,4.5969,0.26463,1.4889-0.0709,2.9753-0.17373,4.4588-0.31982l-1.5549,1.1146z" fill="#000"/>
    <path id="path3169" stroke-linejoin="miter" d="m209.91,313.38c5.7977,2.8596,11.417,0.64671,11.167,0.77648,0.0619,0.21534-0.41867,10.093,7.3368,13.748-11.246-0.0845-18.504-6.5991-18.504-14.524z" stroke-opacity="0.375" fill-rule="evenodd" stroke-dashoffset="0" stroke="#f8df37" stroke-linecap="butt" stroke-miterlimit="4" stroke-dasharray="none" stroke-width="0.6144253" fill="url(#linearGradient3159)"/>
    <path id="path2577" fill="#000" transform="translate(209.337,272.78)" d="m5.5849,4.324c0.52103,0.053388,1.043,0.074868,1.563,0.13878,0.46597,0.057034,0.92656,0.15274,1.3899,0.22867,0.61352,0.096237,1.2271,0.17375,1.8471,0.21301,0.74212,0.037421,1.4854,0.038399,2.2283,0.040859,0.79623-0.00123,1.5924-0.0005627,2.3887,0.00245,1.0038,0.00141,2.0075,0.0018,3.0113,0.002,1.0762,0.00165,2.1524,0.0001284,3.2285,0.0017,1.1915,0.024673,2.3815-0.014128,3.5719-0.058891,1.3679-0.042701,2.7366-0.061272,4.105-0.036558,1.476,0.042364,2.9523,0.070168,4.4289,0.08331,0.86409,0.00579,1.7281,0.028724,2.5901-0.039552,0.47568-0.042342,0.942-0.14073,1.4185-0.17981,0.80524-0.049555,1.6112-0.01468,2.4162,0.018329,1.4191,0.066223,2.8329,0.19181,4.2465,0.32956,1.5217,0.16826,3.0479,0.29494,4.5745,0.41019,0.16758,0.011185,0.33515,0.02237,0.50273,0.033555l-1.476,1.0554c-0.163-0.0147-0.326-0.0294-0.49-0.0442-1.516-0.1412-3.033-0.2716-4.548-0.4308-1.421-0.1275-2.843-0.2459-4.269-0.3003-0.816-0.0201-1.634-0.0374-2.449,0.0341-0.471,0.0503-0.937,0.1469-1.411,0.1684-0.85365,0.045955-1.7079,0.00716-2.5623,0.0008677-1.4683-0.030353-2.9364-0.072997-4.4048-0.10063-1.3755-0.014293-2.7512,0.014316-4.1259,0.063065-1.1926,0.043099-2.385,0.067279-3.5784,0.055453-1.0778,0.00156-2.1555,0.0000208-3.2333,0.00177-1.0062,0.0003456-2.0124,0.0009156-3.0186,0.00343-0.79945,0.00395-1.5989,0.00716-2.3984,0.00374-0.74732-0.00235-1.4951-0.00428-2.2415-0.045892-0.6269-0.045-1.2472-0.1261-1.8678-0.2204-0.4623-0.0757-0.923-0.1638-1.3881-0.2207-0.5225-0.0633-1.048-0.0843-1.5725-0.127l1.5238-1.084z"/>
    <path id="path2585" fill="#000" transform="translate(209.337,272.78)" d="m6.3512,16.676c1.5205-0.01276,3.0398-0.07117,4.5591-0.12778,1.2233-0.01351,2.4378-0.15554,3.6546-0.26183,0.89465-0.11638,1.7943-0.1727,2.6954-0.20534,1.0926-0.04941,2.1843,0.02964,3.274,0.09925,0.91242,0.07223,1.8283,0.08066,2.7413,0.13752,0.77055,0.0556,1.5425,0.08606,2.3148,0.10228,0.56388,0.0087,1.1278,0.0092,1.6918,0.01049,0.8011,0.0013,1.6022,0.0072,2.4033,0.0081,0.76389,0.0035,1.5277-0.01038,2.2916-0.0081,0.98191,0.0071,1.9638,0.01224,2.9458,0.01181,0.94323,0.02227,1.8853,0.06401,2.8258,0.13793,0.79756,0.07952,1.5895,0.20228,2.3869,0.28389,0.51912,0.05487,1.0411,0.06441,1.5625,0.07228,0.67638,0.04298,1.353,0.08109,2.0303,0.10574,0.6753,0.01992,1.351,0.02248,2.0265,0.02118,0.47089-0.004,0.94179-0.0048,1.4127-0.0068,0.37951-0.0018,0.75902,0.000298,1.1385-0.00068,0.05888-0.000197,0.11775-0.000393,0.17663-0.00059l-1.5098,1.0969c-0.05834-0.000189-0.11668-0.000378-0.17502-0.000567-0.37916-0.000907-0.75831,0.0013-1.1375,0.000043-0.46514-0.0014-0.93028-0.0011-1.3954-0.0064-0.67841-0.0041-1.357-0.0018-2.0352-0.02326-0.67522-0.02781-1.3489-0.08664-2.0246-0.1033-0.52501-0.0026-1.0496-0.01611-1.5705-0.08946-0.79124-0.09554-1.5793-0.2167-2.3736-0.28611-0.93082-0.07406-1.8638-0.11874-2.7974-0.14075-0.99278-0.000439-1.9855,0.0048-2.9783,0.01182-0.75662,0.0022-1.5132-0.01143-2.2698-0.0076-0.80936,0.0013-1.6187,0.008-2.4281,0.0097-0.56372,0.000632-1.1275,0.0012-1.691-0.01698-0.76931-0.02503-1.5378-0.06684-2.306-0.11553-0.90566-0.04768-1.8122-0.07801-2.7162-0.15699-1.0935-0.06975-2.1892-0.12216-3.2849-0.06862-0.89818,0.0361-1.7937,0.10526-2.6866,0.21005-1.1989,0.10528-2.398,0.20604-3.6027,0.21219-1.5537,0.05349-3.1075,0.11212-4.66,0.19335l1.5119-1.096z"/>
    <path id="path2587" fill="#000" transform="translate(209.337,272.78)" d="m7.1927,22.861c0.98676,0.02885,1.9742,0.02364,2.9612,0.01763,0.81972-0.007,1.6395-0.005,2.4592-0.0038,0.85545,0.0062,1.7113-0.01587,2.5662,0.01892,1.0961,0.04853,2.1839,0.21115,3.2712,0.3519,0.95086,0.11721,1.8972,0.26224,2.8528,0.33697,0.68566,0.04644,1.3732,0.04805,2.0601,0.04772,0.5617-0.0036,1.1234-0.0027,1.6851-0.0018,0.79212,0.02031,1.5825-0.01841,2.3735-0.05501,0.81044-0.01581,1.6164-0.10128,2.4254-0.14458,0.66616-0.03526,1.333-0.04999,2-0.05415,0.74041-0.01207,1.4804,0.03668,2.2176,0.10197,1.112,0.15664,2.2268,0.27488,3.3475,0.34658,0.70499,0.04183,1.4111,0.0523,2.1172,0.05723,0.4914,0.000294,0.9828-0.000934,1.4742-0.0034,0.46185,0.01866,0.91998-0.04466,1.3792-0.08356,0.34421-0.08234,0.70072-0.10216,1.0453-0.17725,0.28746-0.06894,0.58061-0.1024,0.87542-0.11458,0.28813-0.0099,0.57646-0.01003,0.86472-0.01017,0.40228,0.0069,0.80492-0.0079,1.206,0.02597,0.2216,0.01546,0.43945,0.03908,0.65704,0.08273l-1.5273,1.0683c-0.21145-0.03407-0.42361-0.05732-0.63759-0.06984-0.40423-0.01636-0.80857-0.0076-1.213-0.0063-0.28548,0.000408-0.57123,0.000437-0.85627,0.01843-0.28958,0.02482-0.57585,0.06998-0.86014,0.13083-0.34941,0.05281-0.69786,0.11238-1.0484,0.15694-0.46201,0.03922-0.9234,0.08894-1.388,0.07099-0.48996-0.000482-0.97994,0.0021-1.4699-0.0022-0.69597-0.0074-1.3909-0.04505-2.0852-0.09361-1.1254-0.0814-2.2453-0.20899-3.3663-0.33566-0.74031-0.0525-1.4821-0.09872-2.2246-0.07705-0.66113,0.0065-1.3225,0.01583-1.9827,0.05286-0.80618,0.05036-1.6111,0.12042-2.4191,0.13744-0.79851,0.03801-1.5966,0.07471-2.3964,0.06138-0.56233,0.0024-1.1247,0.0069-1.687,0.0019-0.68696-0.0061-1.3749-0.01147-2.06-0.06651-0.94573-0.09088-1.8821-0.248-2.8246-0.36603-1.0911-0.1383-2.1839-0.28519-3.2843-0.32172-0.8552-0.0231-1.7108-0.0067-2.5662-0.01129-0.81627,0.0012-1.6326,0.0033-2.4488-0.0038-1.0032-0.0062-2.0068-0.01038-3.0098,0.01763l1.5168-1.102z"/>
    <path id="path2595" fill="#000" transform="translate(209.337,272.78)" d="m7.221,29.429c1.1236,0.03344,2.2478,0.02613,3.3717,0.0182,0.67053-0.0015,1.341-0.01382,2.0115-0.01388,0.62151,0.0029,1.243,0.003,1.8645,0.0057,0.92412,0.0038,1.8482,0.0054,2.7724,0.0077,1.3723,0.0047,2.7446,0.01052,4.117,0.01209,1.3306,0.0026,2.6612-0.0033,3.9918-0.01461,0.59669,0.01224,1.1892-0.06736,1.7833-0.10875,0.51345-0.04948,1.0258-0.004,1.5359,0.05634,0.7959,0.13363,1.5971,0.23156,2.396,0.3443,1.081,0.13643,2.164,0.2516,3.2418,0.41289,1.1177,0.17768,2.2315,0.37968,3.3515,0.54314,0.60805,0.05577,1.1973,0.21398,1.7899,0.35151,0.84515,0.16254,1.6888,0.33086,2.5423,0.44391,0.52959,0.06666,1.0629,0.08825,1.5962,0.09368,0.50808,0.0069,1.0162,0.0034,1.5243-0.000753,0.33143-0.03029,0.65432,0.03673,0.98039,0.08134,0.1503,0.0178,0.30149,0.02403,0.45257,0.03073l-1.5153,1.0895c-0.15661-0.0085-0.3132-0.0173-0.46846-0.04105-0.31639-0.04833-0.63166-0.0867-0.95294-0.06737-0.50922-0.0015-1.0184,0.000083-1.5277-0.0017-0.53111-0.01437-1.0612-0.04966-1.5873-0.1278-0.85467-0.1294-1.7021-0.3006-2.5527-0.45383-0.58945-0.12414-1.1753-0.26871-1.7731-0.34933-1.1102-0.18582-2.2175-0.38964-3.3309-0.55548-1.0839-0.15591-2.1729-0.26432-3.2596-0.39822-0.80262-0.10694-1.6054-0.21247-2.4066-0.32928-0.51045-0.04498-1.0212-0.06879-1.5326-0.01915-0.58514,0.04192-1.1708,0.09599-1.7582,0.07426-1.3171-0.0115-2.6344-0.01724-3.9515-0.01461-1.3834,0.0016-2.7668,0.0074-4.1503,0.01208-0.93116,0.0022-1.8623,0.0039-2.7935,0.0077-0.6267,0.0026-1.2534,0.0028-1.8801,0.0057-0.65779-0.000063-1.3155-0.01234-1.9733-0.01388-1.1406-0.0082-2.2815-0.01426-3.4218,0.01821l1.5129-1.0992z"/>
    <path id="path2597" fill="#000" transform="translate(209.337,272.78)" d="m6.0987,37.006c0.10337,0.0024,0.20675,0.01002,0.3101,0.0072,0.14069-0.0039,0.88244-0.05943,0.98731-0.06712,0.55566-0.04078,1.1111-0.07741,1.6661-0.12668,1.1242-0.08463,2.2473-0.18284,3.3734-0.23806,1.06-0.06577,2.1202-0.04812,3.1804-0.007,0.76576,0.01238,1.5285,0.06844,2.2922,0.11962,0.90411,0.06724,1.8074,0.13314,2.7136,0.16736,1.1467,0.07491,2.2948,0.11793,3.4436,0.1415,0.95561,0.01612,1.9114,0.01746,2.8671,0.01928,1.1765,0.0048,2.353,0.0057,3.5295,0.0064,1.1833,0.0016,2.3666-0.0022,3.5499-0.0066,0.9549-0.0023,1.9098-0.0023,2.8647-0.000902,0.87483,0.01093,1.745,0.08848,2.616,0.16208,0.87454,0.06522,1.7508,0.06304,2.6242,0.14368,0.75102,0.05331,1.4926,0.17868,2.2353,0.29535,0.73195,0.12177,1.4712,0.17735,2.2081,0.25769,0.34332,0.05152,0.68621,0.1054,1.0298,0.15536l-1.5076,1.0611c-0.33896-0.05336-0.6772-0.11182-1.0179-0.15372-0.74044-0.07627-1.4816-0.14418-2.217-0.26296-0.73445-0.11731-1.4691-0.2352-2.2109-0.29659-0.87801-0.06936-1.7588-0.06409-2.6368-0.13509-0.86278-0.07759-1.7258-0.15547-2.593-0.15906-0.95409,0.0014-1.9082,0.0014-2.8623-0.000874-1.1776-0.0043-2.3552-0.0079-3.5329-0.0057-1.1832,0.0014-2.3664,0.0037-3.5496,0.0079-0.95444-0.000285-1.909-0.0012-2.8632-0.02739-1.149-0.03325-2.2973-0.08191-3.4451-0.14307-0.91391-0.03231-1.8253-0.09579-2.7375-0.15739-0.75916-0.05346-1.5184-0.09553-2.279-0.12296-1.0514-0.04637-2.1026-0.05742-3.1539,0.0088-1.1262,0.063-2.2502,0.15729-3.3746,0.24614-1.0059,0.08118-2.0131,0.16666-3.0211,0.20959l1.5114-1.096z"/>
    <path id="path2609" fill="#000" transform="translate(209.337,272.78)" d="m6.7017,11.119c0.50673,0.0087,1.0136,0.0072,1.5204,0.0055,0.45749-0.0025,0.91499-0.002,1.3725-0.000247,0.43723-0.000905,0.87447-0.0014,1.3117-0.0025,0.38088,0.0014,0.76176-0.0012,1.1426-0.000891,0.30747-0.000354,0.61494-0.0014,0.92242-0.0019,0.28614-0.0161,0.5646,0.05519,0.84788,0.08609,0.33381,0.03215,0.6694,0.03737,1.0045,0.04055,0.28713,0.0011,0.57425,0.000214,0.86137,0.0015,0.52145,0.01363,1.0413-0.04251,1.5613-0.07516,0.52128-0.0312,1.0435-0.04121,1.5655-0.04818,0.38197,0.0035,0.75968,0.0051,1.1379-0.04902,0.32392-0.04344,0.64981-0.0674,0.97639-0.07588,0.37803-0.0057,0.75617-0.0045,1.1342-0.004,0.55163,0.0014,1.1032,0.0068,1.6549,0.0066,0.55644,0.000402,1.1129-0.0021,1.6693-0.0046,0.52838-0.0049,1.057,0.0189,1.5845-0.01587,0.5596-0.02811,1.113-0.11496,1.6689-0.1801,0.386-0.02335,0.76699-0.07795,1.1505-0.12381,0.39486-0.04702,0.79277-0.0541,1.1899-0.05688,0.45324-0.04058,0.90552-0.09063,1.3603-0.11089,0.48871-0.02007,0.97803-0.0162,1.467-0.01513,0.52339-0.000538,1.0467-0.0025,1.5701-0.0013,0.63454,0.0048,1.2691,0.0031,1.9037,0.0039,0.67318,0.0019,1.3444,0.06539,2.0169,0.09518,0.616,0.06032,1.2328,0.10811,1.8512,0.13492,0.385,0.02848,0.77396-0.01166,1.1569,0.03805,0.4093,0.04644,0.81817,0.06978,1.2245,0.13813,0.42041,0.05776,0.84468,0.09985,1.2594,0.19192,0.34378,0.07538,0.67476,0.19099,1.0242,0.24083,0.37258,0.03874,0.74777,0.03953,1.1219,0.0412,0.42001,0.04449,0.8402,0.08388,1.262,0.10589,0.2242,0.03077,0.44896,0.05662,0.67394,0.08079l-1.5145,1.0754c-0.2245-0.02491-0.44865-0.05399-0.67406-0.06976-0.41828-0.02919-0.83487-0.07805-1.2536-0.09966-0.38235-0.0038-0.7664-0.0028-1.1454-0.06072-0.3458-0.06584-0.67759-0.18404-1.0234-0.25013-0.4164-0.07942-0.83737-0.12648-1.2571-0.18395-0.40417-0.06376-0.81253-0.08498-1.2194-0.12644-0.37926-0.02204-0.76006-0.0125-1.1392-0.04048-0.61474-0.03521-1.2276-0.09328-1.8414-0.14092-0.67075-0.03173-1.3407-0.09517-2.0126-0.08787-0.63785,0.000743-1.2757-0.0011-1.9136,0.0032-0.52167,0.000669-1.0433-0.0025-1.565-0.0018-0.49049,0.0033-0.98124,0.0053-1.4712,0.03013-0.45482,0.02922-0.90796,0.07785-1.3629,0.1041-0.39495,0.01017-0.79042,0.02366-1.1824,0.07653-0.381,0.05039-0.76273,0.08466-1.1456,0.11772-0.55571,0.06309-1.11,0.14213-1.6694,0.16594-0.53263,0.02039-1.0658,0.01067-1.5988,0.01434-0.55204-0.0026-1.1041-0.0052-1.6561-0.005-0.55695-0.000548-1.1139,0.0043-1.6708,0.0052-0.37865,0.000693-0.75743-0.000632-1.1359,0.01395-0.32289,0.01626-0.64503,0.04286-0.96541,0.08719-0.3803,0.03877-0.76174,0.02288-1.1435,0.02758-0.51703,0.0047-1.0341,0.01595-1.5502,0.04904-0.528,0.03428-1.0555,0.0868-1.5852,0.07818-0.28816,0.0018-0.57635,0.0026-0.86448-0.0032-0.33848-0.0078-0.67746-0.01839-1.0141-0.05652-0.27894-0.03434-0.55627-0.08369-0.83874-0.06602-0.30574-0.000535-0.61147-0.0015-0.9172-0.0019-0.38006,0.000275-0.76012-0.0023-1.1402-0.000891-0.43498-0.0011-0.86996-0.0016-1.3049-0.0025-0.45726,0.0017-0.91454,0.0022-1.3718-0.000247-0.51185-0.0017-1.0238-0.003-1.5356,0.0055l1.5149-1.1006z"/>
    <g id="g7826" fill-rule="nonzero" transform="matrix(0.1059992,-0.01696122,-3.6116098e-4,0.1074491,199.61049,256.92891)">
     <path id="path4217" fill="url(#linearGradient3161)" d="m567.38,303.44c-23.742-23.722-49.662-36.328-57.815-28.183-0.55331,0.55283-1.0367,1.1772-1.4014,1.8869l-51.662,51.617,7.7981,7.7914,30.339,30.313,9.7477,9.7392,38.137,38.104,53.368-53.322c-0.0295-0.0959-0.0306-0.20765-0.0608-0.30424l-0.0609-0.0609c0.0182-0.0196,0.0427-0.041,0.0608-0.0607,7.6851-8.4004-4.934-34.025-28.451-57.522z"/>
     <path id="path4235" fill="#e3dedb" d="m470.45,314.82-48.312,48.269-5.5439,5.5391,7.7981,7.7913,78.224,78.156,53.855-53.808-43.011-42.974-35.213-35.182-7.7981-7.7914z"/>
     <path id="path4143" fill="#000" d="m538.99,418.24-86.022-85.948-3.899,3.8956-1.9496,1.9479,86.022,85.948,1.9496-1.9479,3.8989-3.8956z"/>
     <path id="path4147" fill="#000" d="m548.74,408.5-86.022-85.948-3.8991,3.8957-1.9496,1.9479,86.023,85.948,1.9496-1.9479,3.8991-3.8957z"/>
     <path id="path4163" fill="#000" d="m529.24,427.98-86.022-85.948-3.899,3.8956-1.9495,1.9478,86.023,85.948,1.9495-1.9478,3.899-3.8956z"/>
     <path id="path4106" fill="url(#linearGradient3163)" d="M429.21,356.03,244.31,540.77,209.34,661.65l10.966-3.1651,110.03-31.774,184.9-184.74-16.693-16.678-5.8485-5.8434-15.596-15.583-1.9496-1.9479-5.8485-5.8434-1.9496-1.9479-15.596-15.582-5.8487-5.8436-8.8946-8.8868-7.7981-7.7914z"/>
     <path id="path3990" d="m256.88,647.93-16.902-16.887-16.902-16.887-13.742,47.503,47.545-13.73z" fill="#000"/>
     <path id="path4089" fill="#ff9191" d="m595.83,361.08c0.0302,0.0966,0.0313,0.20835,0.0608,0.30424l0.12184-0.12173-0.18266-0.18251z"/>
     <path id="path3424" d="m429.21,356.03-184.9,184.74,41.728,1.2819,1.283,41.692,41.728,1.2819,1.283,41.692,184.9-184.74-21.506-21.487-21.506-21.487-21.506-21.487-21.506-21.487z" fill="#ffc700"/>
     <path id="path3426" d="M429.21,356.03,244.31,540.77,286.04,542.05,450.71,377.52,429.21,356.03z" fill="#ffda00"/>
     <path id="path3428" d="M329.05,585.02,330.33,626.72,515.23,441.98,493.72,420.49,329.05,585.02z" fill="#ff8a00"/>
     <path id="path3430" d="m287.32,583.74,41.728,1.2819,164.68-164.53-21.506-21.487-184.9,184.74z" fill="#ffa100"/>
     <path id="path3680" fill="url(#linearGradient3165)" d="m491.1,336.97c-1.5574-1.556-3.3714-2.7737-5.2926-3.5516-1.9213-0.778-3.961-1.105-6.0036-1.105s-4.0823,0.32696-6.0036,1.105c-1.9213,0.77799-3.7353,1.9957-5.2926,3.5517l-29.228,29.203-173.55,173.4c-0.53909,0.53862-0.74357,1.2338-1.1849,1.8153l21.487,0.63141,1.2639,41.673,24.646,0.78925,172.92-172.77,29.228-29.203c1.5573-1.556,2.7761-3.3684,3.5548-5.288,0.77861-1.9196,1.1059-3.9576,1.1059-5.9984-0.00005-2.0408-0.32725-4.0788-1.1059-5.9984-0.77872-1.9196-1.9974-3.7321-3.5548-5.288l-22.987-22.967z"/>
     <path id="path4288" opacity="0.8" d="m239.98,631.04-11.245-11.23-19.398,41.847,30.643-30.616z" fill="#FFF"/>
    </g>
   </g>
  </g>
 </g>
</svg>
