<?xml version="1.0" encoding="UTF-8" standalone="no"?>
<svg
   xmlns:dc="http://purl.org/dc/elements/1.1/"
   xmlns:cc="http://creativecommons.org/ns#"
   xmlns:rdf="http://www.w3.org/1999/02/22-rdf-syntax-ns#"
   xmlns:svg="http://www.w3.org/2000/svg"
   xmlns="http://www.w3.org/2000/svg"
   xml:space="preserve"
   enable-background="new 0 0 48 48"
   viewBox="0 0 48 48"
   y="0px"
   x="0px"
   id="图层_1"
   version="1.1"><metadata
   id="metadata870"><rdf:RDF><cc:Work
       rdf:about=""><dc:format>image/svg+xml</dc:format><dc:type
         rdf:resource="http://purl.org/dc/dcmitype/StillImage" /><dc:title></dc:title></cc:Work></rdf:RDF></metadata><defs
   id="defs868">
	
	
	

		
			
		
	
			
		
				<linearGradient
   y2="42.005199"
   x2="24.4165"
   y1="7.0051999"
   x1="24.4165"
   gradientUnits="userSpaceOnUse"
   id="SVGID_1_">
					<stop
   id="stop835"
   style="stop-color:#48B9FE"
   offset="0" />
					<stop
   id="stop837"
   style="stop-color:#0382FA"
   offset="1" />
				</linearGradient>
				
			</defs>
<g
   transform="matrix(1.2041911,0,0,1.2041911,-5.402132,-5.5087029)"
   id="g906"><path
     fill="url(#SVGID_1_)"
     d="m 7.927,42.005 h 35.579 c 0.276,0 0.5,-0.224 0.5,-0.5 v -34 c 0,-0.276 -0.224,-0.5 -0.5,-0.5 H 4.827 Z m 26.079,-6 v 4 h -3 v -4 z m -7,0 v 4 h -3 v -4 z m 14,0 v 4 h -3 v -4 z m -21,0 v 4 h -3 v -4 z m -7,0 v 4 h -3 v -4 z m 14,-27 v 4 h -3 v -4 z m -7,0 v 4 h -3 v -4 z m -7,0 v 4 h -3 v -4 z m 28,0 v 4 h -3 v -4 z m -7,0 v 4 h -3 v -4 z"
     id="path840"
     style="fill:url(#SVGID_1_)" /><path
     id="path848"
     d="m 33.183,23.611 c 0.36,0.187 0.36,0.701 0,0.888 l -5.661,2.939 -5.786,3.003 c -0.333,0.173 -0.73,-0.069 -0.73,-0.444 v -5.942 -5.941 c 0,-0.375 0.398,-0.617 0.73,-0.444 l 5.786,3.004 z"
     fill="#FFFFFF" /></g>
</svg>
