<?xml version="1.0" encoding="UTF-8" standalone="no"?>
<!-- Created with Inkscape (http://www.inkscape.org/) -->
<svg id="svg3792" xmlns:rdf="http://www.w3.org/1999/02/22-rdf-syntax-ns#" xmlns="http://www.w3.org/2000/svg" height="110.16" width="102.06" version="1.1" xmlns:cc="http://creativecommons.org/ns#" xmlns:dc="http://purl.org/dc/elements/1.1/">
 <metadata id="metadata3797">
  <rdf:RDF>
   <cc:Work rdf:about="">
    <dc:format>image/svg+xml</dc:format>
    <dc:type rdf:resource="http://purl.org/dc/dcmitype/StillImage"/>
    <dc:title/>
   </cc:Work>
  </rdf:RDF>
 </metadata>
 <g id="layer1" transform="translate(-411.78586,-510.01337)">
  <path id="path3876" fill="#89d5eb" d="m413.02,618.85c-1.4096-7.4188-0.77075-15.117-1.0931-22.65-0.0741-25.955-0.38197-51.921,0.26076-77.87-1.5105-7.0006,5.1794-8.6739,10.697-8.0115,26.533-0.41211,53.078-0.38285,79.612-0.0429,4.9172-0.34665,12.043,0.22191,10.849,6.9709,0.80945,23.928,0.38208,47.883,0.42125,71.822-0.1759,9.6116,0.11522,19.265-0.83633,28.841-3.1701,2.8771-9.4429,1.078-13.829,1.8494-27.451,0.49461-54.936,0.74459-82.373-0.40363-1.2244-0.14291-2.5401-0.071-3.7086-0.50524zm16.618-14.618c1.4084-7.4897-12.195-0.1032-4.9513,3.5295,2.5432,0.691,5.2203-0.54304,4.9513-3.5295zm72.682,0.31846c0.63159-5.4216-9.5703-4.2032-6.331,1.481,0.54583,3.3768,7.4939,2.1781,6.331-1.481zm-72.5-20.063c1.0828-6.5557-9.9163-2.7194-6.8183,2.7116,1.9924,1.7082,8.251,1.6202,6.8183-2.7116zm72.813,0.31336c0.63591-5.1742-9.4846-5.0395-6.8004,0.82104-0.77673,3.8542,9.1146,3.5339,6.8004-0.82104zm-73.313-19.75c1.0763-6.4091-9.458-3.2199-6.2339,2.1732,1.3526,3.213,7.5777,1.8096,6.2339-2.1732zm73,0c1.0763-6.4091-9.458-3.2199-6.2339,2.1732,1.3526,3.213,7.5777,1.8096,6.2339-2.1732zm-72.69-19.75c1.002-5.9795-8.9554-4.4479-6.7129,1.2234-1.1808,4.2317,9.544,3.5223,6.7129-1.2234zm73,0c1.002-5.9795-8.9554-4.4479-6.7129,1.2234-1.1808,4.2317,9.544,3.5223,6.7129-1.2234zm-73-19.5c2.2282-5.9514-9.7392-4.9123-6.7744,0.95919-0.50881,5.1352,8.0368,3.7534,6.7744-0.95919zm73,0c2.2282-5.9514-9.7393-4.9123-6.7744,0.95919-0.5088,5.1352,8.0368,3.7534,6.7744-0.95919z"/>
  <path id="path3866" fill="#535659" d="m413.28,617.51c-1.4454-6.3011-0.65391-12.934-0.90706-19.368,0.24849-28.31,0.46057-56.63,1.499-84.923,3.8903-1.4078,9.2571-0.52521,13.701-0.92461,27.107-0.25857,54.232-0.5157,81.33,0.34477,4.2473,1.0352,1.1644,8.7195,2.2843,12.466,0.54916,28.654,1.2795,57.318,0.94286,85.978,0.84758,4.6896-1.5537,8.5624-6.6734,7.5625-24.607,0.68771-49.234,0.3657-73.849,0.30914-5.8619-0.24132-11.844,0.22014-17.613-0.99203l-0.71388-0.45386zm16.841-13.175c2.4434-6.3387-8.9123-6.968-8.6304-0.84775-2.8283,5.9905,8.3009,7.7944,8.5201,2.204l0.0558-0.63482,0.0545-0.72142zm56.194,2.7169c3.1784-4.0752,1.5675-9.7687,1.9905-14.578,0.11144-4.4603,0.43258-11.713-6.0544-10.855-13.856-1.0368-27.854-1.1832-41.687,0.23246-6.324,1.3447-3.5827,10.466-4.3622,15.308-0.001,4.881-0.0303,12.81,7.0389,11.607,12.679,0.40786,25.388,0.45679,38.065-0.01,1.7475-0.17379,3.7482-0.29345,5.009-1.7054zm16.5-2.391c1.7825-5.8389-8.4479-7.8275-8.48-1.8712-2.0337,5.5534,4.7271,8.2452,8.2553,4.7611,0.27691-0.93718,0.20353-1.9262,0.22465-2.8899zm-72.699-19.775c2.2701-5.498-5.3958-7.4382-8.3787-4.136-1.9862,4.9039,0.65855,11.303,6.7467,8.7787,1.8578-0.59071,1.3698-3.1414,1.632-4.6427zm71.617,4.5593c4.0872-3.871,0.67718-13.341-5.698-9.7544-3.0142,2.303-2.9794,12.025,2.8575,10.31,0.96322-0.0699,1.9315-0.21548,2.8405-0.55513zm-14.99-11.964c2.3573-5.454,1.6125-11.76,1.544-17.582,0.98801-6.0843-3.463-9.7365-9.2839-8.6724-13.213-0.14989-26.477-0.56367-39.66,0.47394-5.1438,2.2476-2.296,10.603-3.0631,15.316,0.12183,4.881-0.24467,12.636,6.7864,11.539,13.633,0.9331,27.395,1.1099,40.999-0.30305,0.91008-0.17246,1.876-0.24906,2.6779-0.7714zm-56.621-12.739c-0.27376-1.4064,1.0256-4.3987-0.27669-4.7682-2.5856,0.45162-5.7301-0.30413-7.8293,1.4518-2.392,4.7962,0.44816,10.607,6.207,8.1787,2.2074-0.41049,1.6089-3.2694,1.899-4.8623zm72.693,0.31029c-0.44778-1.3762,0.98149-4.4985-0.87591-4.5634-2.5414-0.18388-5.0827-0.36775-7.6241-0.55163,0.20299,3.0946-0.58464,6.443,0.80062,9.3051,3.263,1.5112,9.2865,1.1273,7.6994-4.1901zm-72.125-17.11c1.8813-4.4001-0.70479-9.7914-6.0207-7.586-4.846,0.0486-4.9452,11.573,0.60268,10.557,2.1903-0.0474,4.8601-0.41241,5.418-2.9707zm72.125-2.3904c-0.21636-1.5649,0.41948-3.915-0.29176-5.0239-3.007-0.00075-7.4213-1.6537-8.9024,1.9359-1.6764,4.4624,1.5975,9.9197,6.6765,8.2974,2.473,0.45793,2.8862-0.97969,2.5177-3.1368v-2.0727zm-16.071,1.9286c2.1693-5.6335,1.5361-11.987,1.5951-17.938,0.71271-4.959-1.5466-9.2009-7.0231-8.1179-14.057-0.57332-28.195-0.84884-42.221,0.39323-4.7672,2.9426-1.945,11.439-2.7766,16.568-0.17315,4.8654-0.13117,11.945,6.7515,10.354,13.131,0.41086,26.296,0.53496,39.422-0.0634,1.4281-0.19653,3.1044-0.18581,4.2529-1.195zm-56.036-18.01c2.0428-4.5295-0.4072-10.963-6.1994-9.3081-5.473-0.19399-5.8733,10.488-0.65827,10.798,2.2084-0.0139,5.4207,0.66758,6.8577-1.4896zm73,0c2.0428-4.5295-0.4072-10.963-6.1994-9.3081-5.473-0.19399-5.8733,10.488-0.65827,10.798,2.2084-0.0139,5.4207,0.66758,6.8577-1.4896z"/>
 </g>
</svg>
