<?xml version="1.0" encoding="UTF-8" standalone="no"?>
<svg
   xmlns:dc="http://purl.org/dc/elements/1.1/"
   xmlns:cc="http://creativecommons.org/ns#"
   xmlns:rdf="http://www.w3.org/1999/02/22-rdf-syntax-ns#"
   xmlns:svg="http://www.w3.org/2000/svg"
   xmlns="http://www.w3.org/2000/svg"
   id="svg1679"
   version="1.1"
   viewBox="0 0 26 26"
   height="26"
   width="26">
  <metadata
     id="metadata1685">
    <rdf:RDF>
      <cc:Work
         rdf:about="">
        <dc:format>image/svg+xml</dc:format>
        <dc:type
           rdf:resource="http://purl.org/dc/dcmitype/StillImage" />
        <dc:title></dc:title>
      </cc:Work>
    </rdf:RDF>
  </metadata>
  <defs
     id="defs1683" />
  <path
     style="fill:#0000db;fill-opacity:1"
     id="path1677"
     d="M 8 0 C 5.795 0 4 1.795 4 4 L 4 11 L 1 11 C 0.449 11 0 11.449 0 12 L 0 18 C 0 18.551 0.449 19 1 19 L 4 19 L 4 22 C 4 24.205 5.795 26 8 26 L 20 26 C 22.205 26 24 24.205 24 22 L 24 8 C 24 6.938 23.02725 5.92975 21.28125 4.21875 C 21.03725 3.97875 20.77725 3.71675 20.53125 3.46875 C 20.28325 3.22275 20.02125 2.994 19.78125 2.75 C 18.06925 1.003 17.063 0 16 0 L 8 0 z M 8 2 L 15.28125 2 C 16.00225 2.184 16 3.0505 16 3.9375 L 16 7 C 16 7.551 16.449 8 17 8 L 20 8 C 20.998 8 22 8.005 22 9 L 22 22 C 22 23.104 21.104 24 20 24 L 8 24 C 6.896 24 6 23.104 6 22 L 6 19 L 18 19 C 18.551 19 19 18.551 19 18 L 19 12 C 19 11.449 18.551 11 18 11 L 6 11 L 6 4 C 6 2.896 6.896 2 8 2 z M 10.875 11.9375 C 11.701 11.9375 12.30575 12.1085 12.71875 12.4375 C 13.14075 12.7715 13.375 13.296 13.375 13.875 C 13.376 14.468 13.1805 14.99275 12.8125 15.34375 C 12.3675 15.76475 11.68175 16 10.84375 16 C 10.73175 16 10.62425 15.97575 10.53125 15.96875 L 10.53125 17.875 C 10.53125 17.948 10.48025 18.03125 10.40625 18.03125 L 9.125 18.03125 C 9.051 18.03125 8.96875 17.948 8.96875 17.875 L 8.96875 12.21875 C 8.96875 12.15475 9.02975 12.0745 9.09375 12.0625 C 9.56975 11.9835 10.168 11.9375 10.875 11.9375 z M 1.9375 12 L 3.65625 12 C 3.71725 12 3.76325 12.03575 3.78125 12.09375 L 4.34375 14 C 4.49975 14.581 4.61975 15.1085 4.71875 15.5625 C 4.83875 15.0825 5.00625 14.512 5.15625 14 L 5.78125 12.09375 C 5.80025 12.03875 5.84725 12 5.90625 12 L 7.59375 12 C 7.66475 12 7.71475 12.055 7.71875 12.125 L 8.03125 17.84375 C 8.03725 17.85875 8.0625 17.857 8.0625 17.875 C 8.0625 17.949 7.97925 18.03125 7.90625 18.03125 L 6.625 18.03125 C 6.554 18.03125 6.502 17.946 6.5 17.875 L 6.40625 15.6875 C 6.39125 15.2415 6.384 14.73875 6.375 14.21875 C 6.249 14.67275 6.11275 15.15375 5.96875 15.59375 L 5.25 17.8125 C 5.234 17.8695 5.183 17.90625 5.125 17.90625 L 4.125 17.90625 C 4.065 17.90625 4.016 17.8725 4 17.8125 L 3.375 15.59375 C 3.261 15.18875 3.1575 14.76375 3.0625 14.34375 C 3.0435 14.81875 3.027 15.30375 3 15.71875 L 2.90625 17.875 C 2.90325 17.945 2.82 18 2.75 18 L 1.5625 18 C 1.5255 18 1.49375 17.99475 1.46875 17.96875 C 1.44175 17.94275 1.4355 17.912 1.4375 17.875 L 1.78125 12.125 C 1.78625 12.055 1.8675 12 1.9375 12 z M 15.875 12.09375 C 17.24 12.09375 17.84375 12.87 17.84375 13.625 C 17.84375 14.18 17.5675 14.63225 17.0625 14.90625 C 17.6535 15.13925 18.03125 15.65225 18.03125 16.28125 C 18.03125 17.37725 17.063 18.09375 15.625 18.09375 C 14.841 18.09375 14.22225 17.8885 13.90625 17.6875 C 13.85725 17.6555 13.82975 17.6195 13.84375 17.5625 L 14.125 16.5625 C 14.138 16.5235 14.1495 16.516 14.1875 16.5 C 14.2235 16.485 14.2785 16.483 14.3125 16.5 C 14.4165 16.555 14.96025 16.8125 15.53125 16.8125 C 16.07525 16.8125 16.40625 16.59475 16.40625 16.21875 C 16.40625 15.73275 15.8925 15.5625 15.4375 15.5625 L 14.90625 15.5625 C 14.83225 15.5625 14.78125 15.48025 14.78125 15.40625 L 14.78125 14.46875 C 14.78125 14.39475 14.83225 14.34375 14.90625 14.34375 L 15.40625 14.34375 C 15.49025 14.34075 16.25 14.31975 16.25 13.84375 C 16.25 13.56375 15.9925 13.40625 15.5625 13.40625 C 15.1175 13.40625 14.65175 13.61175 14.46875 13.71875 C 14.43375 13.73975 14.416 13.73275 14.375 13.71875 C 14.337 13.70275 14.29325 13.664 14.28125 13.625 L 14.03125 12.6875 C 14.01525 12.6295 14.0145 12.56325 14.0625 12.53125 C 14.4045 12.31225 15.114 12.09375 15.875 12.09375 z M 10.9375 13.1875 C 10.7485 13.1875 10.61525 13.20575 10.53125 13.21875 L 10.53125 14.71875 C 10.60825 14.72775 10.71475 14.71875 10.84375 14.71875 C 11.46975 14.71875 11.8125 14.41925 11.8125 13.90625 C 11.8125 13.28725 11.2675 13.1875 10.9375 13.1875 z" />
</svg>
