<?xml version="1.0" encoding="UTF-8" standalone="no"?>
<svg
   xmlns:dc="http://purl.org/dc/elements/1.1/"
   xmlns:cc="http://creativecommons.org/ns#"
   xmlns:rdf="http://www.w3.org/1999/02/22-rdf-syntax-ns#"
   xmlns:svg="http://www.w3.org/2000/svg"
   xmlns="http://www.w3.org/2000/svg"
   xmlns:sodipodi="http://sodipodi.sourceforge.net/DTD/sodipodi-0.dtd"
   xmlns:inkscape="http://www.inkscape.org/namespaces/inkscape"
   style="overflow:visible"
   sodipodi:docname="musicbrainz_logo.svg"
   inkscape:version="1.0beta2 (2b71d25, 2019-12-03)"
   enable-background="new 0 0 253.474 301.721"
   version="1.1"
   width="171"
   viewBox="0 0 171 171.00109"
   height="171"
   overflow="visible"
   xml:space="preserve"
   id="Layer_1"><defs
     id="defs81" /><sodipodi:namedview
     inkscape:document-rotation="0"
     inkscape:current-layer="Layer_1"
     inkscape:window-maximized="0"
     inkscape:window-y="24"
     inkscape:window-x="0"
     inkscape:cy="112.3525"
     inkscape:cx="53.734376"
     inkscape:zoom="1.6842105"
     showgrid="false"
     id="namedview79"
     inkscape:window-height="876"
     inkscape:window-width="1440"
     inkscape:pageshadow="2"
     inkscape:pageopacity="0"
     guidetolerance="10"
     gridtolerance="10"
     objecttolerance="10"
     borderopacity="1"
     bordercolor="#666666"
     pagecolor="#ffffff" /><metadata
     id="metadata305"><rdf:RDF><cc:Work
         rdf:about=""><dc:format>image/svg+xml</dc:format><dc:type
           rdf:resource="http://purl.org/dc/dcmitype/StillImage" /><dc:title /></cc:Work></rdf:RDF></metadata><g
     transform="matrix(1.5337052,0,0,1.5337052,-45.448517,-27.97683)"
     id="g19274"><path
       style="fill:#ffba58"
       inkscape:connector-curvature="0"
       d="m 84.7375,54.00404 v 67.287 h 47.765 c 0,0 4,-10.922 4,-14.307 v -9.547 c 0,0 1.666,-4.736 1.666,-10.828 0,-6.09 -2.231,-17.594 -7.646,-19.625 0,0 -15.564,-20.979 -33.836,-18.271 0,0 -11.039,-0.247 -11.949,5.291 z"
       id="path3" /><g
       id="g5"
       transform="translate(-43.0625,-157.30596)"><path
         inkscape:connector-curvature="0"
         d="m 180.98,254.47 c -0.219,3.145 0.219,9.883 -0.438,11.906 -0.656,2.02 -2.408,7.861 -3.281,9.883 -0.307,0.709 -0.584,1.557 -0.867,2.441 l -2.004,-0.117 c 0.127,-0.33 0.27,-0.656 0.463,-0.977 1.094,-1.795 0.877,-4.492 0.877,-4.492 0,0 2.188,-6.514 2.623,-8.535 0.439,-2.021 -0.654,-7.639 -0.436,-9.213 0.221,-1.57 0.875,-2.471 1.969,-5.615 1.094,-3.146 -0.439,-6.963 -0.656,-8.313 -0.219,-1.346 -0.656,-6.289 -1.096,-7.637 -0.436,-1.35 -3.061,-5.393 -3.227,-6.348 -0.164,-0.955 -4.41,-2.137 -4.41,-2.137 -0.221,-2.246 -1.551,-3.873 -1.551,-3.873 0,-2.246 -7.658,-8.537 -7.658,-8.537 -2.406,-1.797 -13.346,-5.615 -16.189,-6.291 -2.847,-0.672 -4.378,1.125 -4.378,1.125 -3.721,-1.797 -7.002,0 -9.189,1.348 -2.187,1.348 -2.406,3.594 -2.406,3.594 -1.314,1.574 -1.094,-2.021 -1.094,-2.021 0,0 0.873,-4.492 4.156,-5.615 3.281,-1.125 8.752,-0.451 8.752,-0.451 7.44,-1.57 19.255,4.27 22.757,6.965 3.5,2.697 11.156,12.355 11.156,12.355 0,0 2.408,2.023 4.594,6.74 2.189,4.719 2.627,14.828 2.408,16.85 -0.219,2.022 -0.657,3.818 -0.875,6.965 z"
         id="path7" /><g
         id="g9"><path
           inkscape:connector-curvature="0"
           d="m 148.45,210.26 c -0.635,-1.088 -3.17,1.086 -5.071,1.086 -1.902,0 -5.389,-1.305 -7.609,-0.869 -2.219,0.436 -5.072,2.176 -5.705,3.697 -0.635,1.521 0.951,7.176 2.854,7.611 0,0 -3.172,3.48 -1.588,4.785 1.588,1.305 2.221,0 2.221,-0.652 0,-0.652 -0.318,-2.393 0.951,-2.828 1.268,-0.434 2.854,-1.957 2.854,-1.957 l -3.805,-1.305 c -1.27,-1.305 -0.635,-3.697 0,-4.785 0.633,-1.088 2.217,-3.045 3.805,-3.045 1.584,0 4.754,1.305 6.976,1.088 2.215,-0.217 4.752,-1.738 4.117,-2.826 z"
           id="path11" /><path
           inkscape:connector-curvature="0"
           d="m 153.52,216.57 c 0,0 3.486,3.914 0,8.48 -3.486,4.568 -3.17,2.611 -3.17,2.611 l 1.268,1.74 c 0,0 2.535,-3.697 4.756,-3.48 2.219,0.217 5.072,2.174 6.023,5.438 0.951,3.262 -1.268,5.873 -4.121,6.307 -2.854,0.436 -13.633,-0.652 -13.633,-0.652 0,0 0.953,0.652 0.635,1.74 -0.316,1.086 -0.949,2.393 -0.949,2.393 0,0 2.535,-2.176 8.875,-1.959 6.34,0.219 8.561,1.305 11.096,5.438 2.535,4.133 0.949,10.221 -0.318,11.744 -1.267,1.523 -6.975,1.959 -7.607,3.48 -0.632,1.521 1.268,3.045 1.586,4.131 0.316,1.088 -0.951,1.959 -0.951,1.959 0,0 3.486,-1.523 6.021,-1.305 2.537,0.217 7.293,2.609 7.293,2.609 0,0 -0.953,0.436 -0.635,1.088 0.318,0.652 0.951,1.305 0.635,1.957 -0.316,0.652 -1.268,1.086 -1.268,1.086 0,0 1.584,0.219 2.535,-1.086 0.951,-1.305 -0.951,-1.523 -0.316,-2.176 0.633,-0.652 1.902,-0.434 1.902,-0.434 0,0 -0.953,-0.219 -2.537,-2.176 -1.584,-1.957 -2.219,-3.045 -4.438,-3.045 -2.221,0 -4.756,0.217 -4.756,0.217 0,0 -2.219,-0.869 -1.268,-2.174 0.951,-1.305 8.242,-2.176 8.242,-2.176 0,0 -2.219,-1.305 -2.219,-2.391 0,-1.088 1.584,-3.264 4.438,-4.785 2.854,-1.523 5.072,-3.916 5.072,-8.482 0,-4.566 1.209,-5.607 3.109,-7.348 l -0.666,-3 c 0,0 -1.809,4.041 -3.711,5.346 l -4.756,-2.176 c 0,0 0.951,2.828 3.488,3.916 0,0 1.9,3.697 0.316,6.307 -1.586,2.609 -5.707,4.566 -5.707,4.566 0,0 -1.268,-6.307 -1.902,-7.611 -0.633,-1.305 -1.902,-2.609 -2.219,-3.48 -0.316,-0.869 1.904,-6.307 1.586,-8.047 -0.318,-1.738 -2.854,-6.959 -7.609,-7.395 0.001,0.001 -0.633,-7.61 -4.12,-7.175 z"
           id="path13" /><path
           inkscape:connector-curvature="0"
           d="m 146.55,227.44 c 0,0 2.537,-0.65 4.756,0.436 2.219,1.088 3.805,4.35 1.902,6.09 0,0 -0.951,0.652 -1.902,-0.436 0,0 0.316,-4.566 -1.586,-5.002 -1.902,-0.436 -3.17,-1.088 -3.17,-1.088 z"
           id="path15" /><path
           inkscape:connector-curvature="0"
           d="m 149.09,221.57 c 0,0 -3.486,-1.521 -6.657,-0.652 -3.17,0.869 -5.072,4.783 -5.072,4.783 0,0 -1.586,-2.826 1.268,-5 2.854,-2.176 7.608,-0.871 9.827,-0.652 2.218,0.217 2.536,0.433 0.634,1.521 z"
           id="path17" /><path
           inkscape:connector-curvature="0"
           d="m 144.97,219.83 c 0,0 -0.951,-1.74 0.316,-2.174 1.268,-0.436 2.854,-0.871 2.219,-1.523 -0.633,-0.652 -3.803,0.652 -4.755,2.609 -0.951,1.959 -0.951,1.959 -0.951,1.959 z"
           id="path19" /><path
           inkscape:connector-curvature="0"
           d="m 142.43,228.75 c 0,0 -6.023,5.436 -6.023,11.09 0,5.656 2.854,10.223 5.072,10.223 2.22,0 2.222,-1.957 3.804,-1.523 1.586,0.436 3.805,2.395 1.586,2.828 -2.221,0.436 -4.438,1.305 -6.341,0.436 -1.902,-0.871 -4.121,-1.959 -5.391,-3.916 -1.266,-1.957 -0.949,-6.088 -1.266,-8.264 -0.318,-2.176 3.801,-9.787 5.389,-10.873 1.584,-1.089 3.17,-1.96 3.17,-0.001 z"
           id="path21" /><path
           inkscape:connector-curvature="0"
           d="m 156.06,246.15 c 0,0 -2.537,-0.436 -3.488,-1.523 -0.951,-1.086 -1.266,0.219 -0.633,2.393 0.633,2.174 0.951,5.654 0.316,7.178 -0.635,1.521 -3.488,5.654 -7.291,5.219 -3.806,-0.436 -5.073,-1.521 -6.024,-2.826 -0.951,-1.307 -2.852,-1.523 -3.17,-0.219 -0.316,1.305 0.949,2.828 1.586,3.697 0.633,0.869 0.316,0.869 2.219,1.521 1.902,0.654 5.706,1.523 8.876,0.436 3.17,-1.087 6.023,-5.871 6.023,-7.395 0,-1.522 0.634,-6.307 1.586,-8.481 z"
           id="path23" /></g><path
         inkscape:connector-curvature="0"
         d="m 178.83,265.32 c 0,0 -0.344,-8.244 -2.678,-9.91 -2.334,-1.666 -3.008,-1.418 -3.08,-2.137 -0.055,-0.555 -0.109,-0.748 1.555,-0.693 1.332,0.045 4.871,2.406 4.871,2.406 z"
         id="path25" /><path
         inkscape:connector-curvature="0"
         d="m 151.16,207.99 c 0,0 3,1 2.334,2.666 -0.668,1.668 -0.666,2.334 0.666,2.334 1.334,0 2,-2 3.666,-1.334 1.668,0.668 0.334,3.334 2,3.668 1.668,0.332 2.334,-0.002 3.334,0.332 1,0.334 4.666,3 4.334,4.334 -0.334,1.332 -3.668,-2 -4.668,-1.334 -1,0.668 -2.666,1.666 -1.332,2.334 1.332,0.666 5.332,0.666 7,2.334 1.666,1.666 2.092,2.613 3,1.666 0.949,-0.994 -2,-7 -4,-8.666 -2,-1.668 -13,-9.002 -16.334,-8.334 z"
         id="path27" /><path
         inkscape:connector-curvature="0"
         d="m 172.32,236.68 c 0,0 1.689,0.705 2.205,0.518 0.518,-0.189 1.83,-1.361 2.488,-2.629 0.656,-1.268 0.375,-2.254 0.094,-2.91 l 1.408,1.408 0.752,5.115 -0.424,-0.375 c 0,0 -0.141,-1.268 -0.609,-1.221 -0.468,0.047 -1.502,0.939 -1.502,0.939 l -3.004,0.422 -1.455,-0.846 z"
         id="path29" /><path
         inkscape:connector-curvature="0"
         d="m 176.59,253.27 c 0,0 1.055,0.555 1.525,0.334 0.473,-0.223 0.666,-1 0.666,-1 l -0.416,2.109 h -1.109 z"
         id="path31" /><path
         inkscape:connector-curvature="0"
         d="m 137.49,255.82 c -0.869,0.521 -1.693,0.93 -1.525,1.43 0.166,0.5 1.525,13.736 7.526,14.07 6,0.332 11.166,-1.5 14.166,0.5 3,2 -0.334,3.832 -0.334,3.832 0,0 -0.334,2.334 2.334,0.5 0,0 0.832,0.5 1,0 0.166,-0.5 0.334,-3.998 -1.166,-4.832 -1.5,-0.834 -3.668,-1.5 -4.668,-2.168 -1,-0.666 -7.836,0.76 -9.67,0.432 -3.843,-0.691 -3.579,-4.029 -5.079,-6.529 -1.5,-2.5 -1.752,-7.735 -2.584,-7.235 z"
         id="path33" /><path
         inkscape:connector-curvature="0"
         d="m 176.83,269.65 c 0,0 -1.332,3.668 -3.332,3.668 l 2.332,2.332 c -0.332,1.334 1,-6 1,-6 z"
         id="path35" /><path
         inkscape:connector-curvature="0"
         d="m 159.33,275 c 0,0 2.922,-0.893 5.254,-0.797 2.334,0.094 3.338,2.086 3.338,2.086 0,0 -2.432,-0.986 -3.758,-0.967 -1.328,0.02 -3.676,1.023 -3.676,1.023 z"
         id="path37" /><path
         inkscape:connector-curvature="0"
         d="m 144.06,275.64 c 0,0 -1.548,-3.174 -4.548,-3.361 -3,-0.187 -2.559,-0.207 -3.559,-0.395 -1,-0.188 -2.584,-3.418 -3.646,-3.668 -1.062,-0.25 -1.438,-0.625 -1.875,-0.438 -0.437,0.187 -0.188,0.688 0.063,0.813 0.251,0.125 1.188,0.25 1.625,0.5 0.437,0.25 1.25,2.875 3,3.688 1.75,0.813 3.111,0.895 3.799,1.082 0.688,0.187 2.893,1.395 3.955,2.77 -0.001,-10e-4 1.582,0.591 1.186,-0.991 z"
         id="path39" /></g><path
       style="fill:#736dab"
       inkscape:connector-curvature="0"
       d="m 85.2975,54.00404 v 67.287 h -47.168 c 0,0 -4.698,-11.043 -4.698,-14.428 0,-3.383 -0.049,-9.426 -0.049,-9.426 0,0 -1.354,-4.736 -1.354,-10.828 0,-6.09 3.384,-17.594 8.798,-19.625 0,0 15.565,-20.979 33.836,-18.271 0.001,0 11.041,-0.247 10.635,5.291 z"
       id="path41" /><path
       inkscape:connector-curvature="0"
       d="m 80.9975,92.27404 c 1.489,-0.748 2.333,1 4.333,1 2,0 4.333,-2.334 5.333,-1.002 1,1.334 0.333,0 0,1.668 -0.333,1.666 -3.104,2.311 -5.333,2.334 -2.108,0.021 -3.001,-0.334 -4.667,-2.334 -1.666,-2 -0.332,-1.332 0.334,-1.666 z"
       id="path43" /><path
       inkscape:connector-curvature="0"
       d="m 81.8275,74.27404 c 0,0 1.167,-1.334 3.5,-1.334 2.333,0 3.833,1.834 4.5,1.834 0.667,0 1.333,-0.334 1.333,-0.334 0,0 0.001,-1.832 -0.666,-2.166 -0.667,-0.334 -3.5,-1 -5,-1 -1.5,0 -4.001,0.998 -4.834,1.166 -0.833,0.166 -1.667,1.334 -1,1.834 0.667,0.5 2.167,0 2.167,0 z"
       id="path45" /><g
       id="g47"
       transform="translate(-43.0625,-157.30596)"><path
         inkscape:connector-curvature="0"
         d="m 75.906,254.47 c 0.22,3.145 -0.219,9.883 0.438,11.906 0.656,2.02 2.408,7.861 3.282,9.883 0.306,0.709 0.584,1.557 0.866,2.441 l 2.005,-0.117 c -0.127,-0.33 -0.27,-0.656 -0.464,-0.977 -1.094,-1.795 -0.876,-4.492 -0.876,-4.492 0,0 -2.188,-6.514 -2.624,-8.535 -0.438,-2.021 0.655,-7.639 0.437,-9.213 -0.221,-1.57 -0.875,-2.471 -1.97,-5.615 -1.094,-3.146 0.439,-6.963 0.656,-8.313 0.22,-1.346 0.656,-6.289 1.096,-7.637 0.437,-1.35 3.062,-5.393 3.227,-6.348 0.165,-0.955 4.411,-2.137 4.411,-2.137 0.22,-2.246 1.551,-3.873 1.551,-3.873 0,-2.246 7.657,-8.537 7.657,-8.537 2.407,-1.797 13.347,-5.615 16.19,-6.291 2.846,-0.672 4.377,1.125 4.377,1.125 3.72,-1.797 7.001,0 9.189,1.348 2.188,1.348 2.405,3.594 2.405,3.594 1.314,1.574 1.095,-2.021 1.095,-2.021 0,0 -0.874,-4.492 -4.157,-5.615 -3.281,-1.125 -8.752,-0.451 -8.752,-0.451 -7.438,-1.57 -19.254,4.27 -22.755,6.965 -3.5,2.697 -11.157,12.355 -11.157,12.355 0,0 -2.407,2.023 -4.594,6.74 -2.189,4.719 -2.627,14.828 -2.408,16.85 0.219,2.022 0.657,3.818 0.875,6.965 z"
         id="path49" /><g
         id="g51"><path
           inkscape:connector-curvature="0"
           d="m 108.43,210.26 c 0.635,-1.088 3.17,1.086 5.071,1.086 1.902,0 5.389,-1.305 7.608,-0.869 2.219,0.436 5.073,2.176 5.706,3.697 0.635,1.521 -0.951,7.176 -2.854,7.611 0,0 3.172,3.48 1.587,4.785 -1.587,1.305 -2.22,0 -2.22,-0.652 0,-0.652 0.317,-2.393 -0.951,-2.828 -1.269,-0.434 -2.854,-1.957 -2.854,-1.957 l 3.805,-1.305 c 1.269,-1.305 0.635,-3.697 0,-4.785 -0.633,-1.088 -2.218,-3.045 -3.805,-3.045 -1.584,0 -4.755,1.305 -6.975,1.088 -2.216,-0.217 -4.753,-1.738 -4.118,-2.826 z"
           id="path53" /><path
           inkscape:connector-curvature="0"
           d="m 103.36,216.57 c 0,0 -3.486,3.914 0,8.48 3.486,4.568 3.17,2.611 3.17,2.611 l -1.268,1.74 c 0,0 -2.535,-3.697 -4.756,-3.48 -2.219,0.217 -5.072,2.174 -6.023,5.438 -0.951,3.262 1.269,5.873 4.122,6.307 2.853,0.436 13.632,-0.652 13.632,-0.652 0,0 -0.953,0.652 -0.635,1.74 0.316,1.086 0.95,2.393 0.95,2.393 0,0 -2.535,-2.176 -8.876,-1.959 -6.34,0.219 -8.561,1.305 -11.096,5.438 -2.535,4.133 -0.949,10.221 0.318,11.744 1.267,1.523 6.975,1.959 7.607,3.48 0.634,1.521 -1.268,3.045 -1.585,4.131 -0.316,1.088 0.951,1.959 0.951,1.959 0,0 -3.487,-1.523 -6.022,-1.305 -2.537,0.217 -7.292,2.609 -7.292,2.609 0,0 0.952,0.436 0.634,1.088 -0.317,0.652 -0.951,1.305 -0.634,1.957 0.316,0.652 1.268,1.086 1.268,1.086 0,0 -1.585,0.219 -2.536,-1.086 -0.951,-1.305 0.951,-1.523 0.317,-2.176 -0.634,-0.653 -1.902,-0.434 -1.902,-0.434 0,0 0.952,-0.219 2.536,-2.176 1.585,-1.957 2.219,-3.045 4.438,-3.045 2.221,0 4.756,0.217 4.756,0.217 0,0 2.22,-0.869 1.269,-2.174 -0.951,-1.305 -8.243,-2.176 -8.243,-2.176 0,0 2.219,-1.305 2.219,-2.391 0,-1.088 -1.584,-3.264 -4.438,-4.785 -2.853,-1.523 -5.072,-3.916 -5.072,-8.482 0,-4.566 -1.208,-5.607 -3.109,-7.348 l 0.666,-3 c 0,0 1.81,4.041 3.712,5.346 l 4.755,-2.176 c 0,0 -0.951,2.828 -3.487,3.916 0,0 -1.901,3.697 -0.316,6.307 1.585,2.61 5.706,4.566 5.706,4.566 0,0 1.269,-6.307 1.902,-7.611 0.633,-1.305 1.902,-2.609 2.219,-3.48 0.316,-0.869 -1.903,-6.307 -1.586,-8.047 0.318,-1.738 2.854,-6.959 7.609,-7.395 -10e-4,0.001 0.634,-7.61 4.12,-7.175 z"
           id="path55" /><path
           inkscape:connector-curvature="0"
           d="m 110.33,227.44 c 0,0 -2.537,-0.65 -4.756,0.436 -2.219,1.088 -3.805,4.35 -1.902,6.09 0,0 0.951,0.652 1.902,-0.436 0,0 -0.316,-4.566 1.586,-5.002 1.902,-0.436 3.17,-1.088 3.17,-1.088 z"
           id="path57" /><path
           inkscape:connector-curvature="0"
           d="m 107.8,221.57 c 0,0 3.486,-1.521 6.657,-0.652 3.17,0.869 5.072,4.783 5.072,4.783 0,0 1.585,-2.826 -1.268,-5 -2.854,-2.176 -7.608,-0.871 -9.827,-0.652 -2.218,0.217 -2.536,0.433 -0.634,1.521 z"
           id="path59" /><path
           inkscape:connector-curvature="0"
           d="m 111.92,219.83 c 0,0 0.952,-1.74 -0.316,-2.174 -1.268,-0.436 -2.854,-0.871 -2.219,-1.523 0.634,-0.652 3.804,0.652 4.755,2.609 0.951,1.959 0.951,1.959 0.951,1.959 z"
           id="path61" /><path
           inkscape:connector-curvature="0"
           d="m 114.45,228.75 c 0,0 6.023,5.436 6.023,11.09 0,5.656 -2.854,10.223 -5.072,10.223 -2.218,0 -2.221,-1.957 -3.804,-1.523 -1.585,0.436 -3.804,2.395 -1.585,2.828 2.22,0.436 4.438,1.305 6.34,0.436 1.902,-0.871 4.121,-1.959 5.391,-3.916 1.266,-1.957 0.949,-6.088 1.266,-8.264 0.318,-2.176 -3.802,-9.787 -5.389,-10.873 -1.584,-1.089 -3.17,-1.96 -3.17,-0.001 z"
           id="path63" /><path
           inkscape:connector-curvature="0"
           d="m 100.82,246.15 c 0,0 2.536,-0.436 3.487,-1.523 0.951,-1.086 1.267,0.219 0.633,2.393 -0.633,2.174 -0.95,5.654 -0.316,7.178 0.635,1.521 3.488,5.654 7.291,5.219 3.805,-0.436 5.073,-1.521 6.024,-2.826 0.951,-1.307 2.852,-1.523 3.169,-0.219 0.317,1.304 -0.949,2.828 -1.585,3.697 -0.633,0.869 -0.317,0.869 -2.219,1.521 -1.902,0.654 -5.706,1.523 -8.876,0.436 -3.17,-1.087 -6.023,-5.871 -6.023,-7.395 0,-1.522 -0.635,-6.307 -1.585,-8.481 z"
           id="path65" /></g><path
         inkscape:connector-curvature="0"
         d="m 78.057,265.32 c 0,0 0.345,-8.244 2.678,-9.91 2.334,-1.666 3.008,-1.418 3.08,-2.137 0.055,-0.555 0.11,-0.748 -1.554,-0.693 -1.333,0.045 -4.871,2.406 -4.871,2.406 z"
         id="path67" /><path
         inkscape:connector-curvature="0"
         d="m 105.72,207.99 c 0,0 -3,1 -2.333,2.666 0.667,1.668 0.666,2.334 -0.667,2.334 -1.333,0 -2,-2 -3.666,-1.334 -1.667,0.668 -0.334,3.334 -2,3.668 -1.667,0.332 -2.334,-0.002 -3.334,0.332 -1,0.334 -4.666,3 -4.333,4.334 0.333,1.332 3.667,-2 4.667,-1.334 1,0.668 2.666,1.666 1.333,2.334 -1.333,0.666 -5.333,0.666 -7,2.334 -1.667,1.666 -2.093,2.613 -3,1.666 -0.95,-0.994 2,-7 4,-8.666 2,-1.668 12.999,-9.002 16.333,-8.334 z"
         id="path69" /><path
         inkscape:connector-curvature="0"
         d="m 84.56,236.68 c 0,0 -1.689,0.705 -2.206,0.518 -0.517,-0.189 -1.83,-1.361 -2.488,-2.629 -0.656,-1.268 -0.375,-2.254 -0.094,-2.91 l -1.408,1.408 -0.751,5.115 0.423,-0.375 c 0,0 0.141,-1.268 0.609,-1.221 0.47,0.047 1.502,0.939 1.502,0.939 l 3.005,0.422 1.455,-0.846 z"
         id="path71" /><path
         inkscape:connector-curvature="0"
         d="m 80.291,253.27 c 0,0 -1.054,0.555 -1.525,0.334 -0.472,-0.223 -0.666,-1 -0.666,-1 l 0.416,2.109 h 1.109 z"
         id="path73" /><path
         inkscape:connector-curvature="0"
         d="m 119.39,255.82 c 0.869,0.521 1.692,0.93 1.525,1.43 -0.167,0.5 -1.525,13.736 -7.525,14.07 -6,0.332 -11.167,-1.5 -14.167,0.5 -3,2 0.334,3.832 0.334,3.832 0,0 0.334,2.334 -2.334,0.5 0,0 -0.832,0.5 -1,0 -0.166,-0.5 -0.333,-3.998 1.167,-4.832 1.5,-0.834 3.667,-1.5 4.667,-2.168 1,-0.666 7.836,0.76 9.67,0.432 3.843,-0.691 3.578,-4.029 5.078,-6.529 1.5,-2.5 1.752,-7.735 2.585,-7.235 z"
         id="path75" /><path
         inkscape:connector-curvature="0"
         d="m 80.057,269.65 c 0,0 1.333,3.668 3.333,3.668 0,0 -2.667,1 -2.333,2.332 0.333,1.334 -1,-6 -1,-6 z"
         id="path77" /><path
         inkscape:connector-curvature="0"
         d="m 112.82,275.64 c 0,0 1.548,-3.174 4.548,-3.361 3,-0.187 2.559,-0.207 3.559,-0.395 1,-0.188 2.584,-3.418 3.646,-3.668 1.062,-0.25 1.438,-0.625 1.875,-0.438 0.437,0.187 0.188,0.688 -0.063,0.813 -0.251,0.125 -1.188,0.25 -1.625,0.5 -0.437,0.25 -1.25,2.875 -3,3.688 -1.75,0.813 -3.112,0.895 -3.8,1.082 -0.688,0.187 -2.892,1.395 -3.954,2.77 0.001,-10e-4 -1.581,0.591 -1.186,-0.991 z"
         id="path79" /></g><path
       inkscape:connector-curvature="0"
       d="m 48.1045,34.58404 -8.958,3.016 -0.062,9.303 c -0.294,-0.036 -0.616,-0.027 -0.954,0.034 -1.366,0.251 -2.473,1.26 -2.473,2.254 0,0.993 1.106,1.596 2.473,1.347 1.363,-0.25 2.469,-1.259 2.469,-2.252 0,-0.036 -0.012,-0.068 -0.015,-0.104 v -7.826 l 6.018,-2.029 v 5.954 c -0.299,-0.039 -0.626,-0.031 -0.972,0.031 -1.366,0.251 -2.473,1.26 -2.473,2.254 0,0.993 1.106,1.596 2.473,1.347 1.334,-0.244 2.413,-1.216 2.46,-2.188 h 0.012 z"
       id="path81" /><path
       inkscape:connector-curvature="0"
       d="m 117.6075,26.58404 -8.958,3.016 -0.062,9.303 c -0.294,-0.036 -0.616,-0.027 -0.954,0.034 -1.366,0.251 -2.473,1.26 -2.473,2.254 0,0.993 1.106,1.596 2.473,1.347 1.363,-0.25 2.469,-1.259 2.469,-2.252 0,-0.036 -0.012,-0.068 -0.015,-0.104 v -7.826 l 6.018,-2.029 v 5.954 c -0.299,-0.039 -0.626,-0.031 -0.972,0.031 -1.366,0.251 -2.473,1.26 -2.473,2.254 0,0.993 1.106,1.596 2.473,1.347 1.334,-0.244 2.413,-1.216 2.46,-2.188 h 0.012 z"
       id="path87" /><path
       style="fill:#ff9900"
       inkscape:connector-curvature="0"
       d="m 123.0175,121.18404 h 9 c 0,0 -0.57,-2.297 -2.574,-2.352 -2.002,-0.052 -6.428,2.353 -6.426,2.352 z"
       id="path97" /><path
       inkscape:connector-curvature="0"
       d="m 54.4945,117.95404 c 0,0 -2.922,-0.893 -5.254,-0.797 -2.333,0.094 -3.338,2.086 -3.338,2.086 0,0 2.432,-0.986 3.758,-0.967 1.328,0.02 3.676,1.023 3.676,1.023 z"
       id="path99" /></g></svg>
