<?xml version="1.0" encoding="UTF-8" standalone="no"?>
<svg
   xmlns:dc="http://purl.org/dc/elements/1.1/"
   xmlns:cc="http://creativecommons.org/ns#"
   xmlns:rdf="http://www.w3.org/1999/02/22-rdf-syntax-ns#"
   xmlns:svg="http://www.w3.org/2000/svg"
   xmlns="http://www.w3.org/2000/svg"
   id="svg2306"
   version="1.1"
   viewBox="0 0 26 26"
   height="26"
   width="26">
  <metadata
     id="metadata2312">
    <rdf:RDF>
      <cc:Work
         rdf:about="">
        <dc:format>image/svg+xml</dc:format>
        <dc:type
           rdf:resource="http://purl.org/dc/dcmitype/StillImage" />
        <dc:title></dc:title>
      </cc:Work>
    </rdf:RDF>
  </metadata>
  <defs
     id="defs2310" />
  <path
     style="fill:#009f00;fill-opacity:1"
     id="path2304"
     d="M 8 0 C 5.795 0 4 1.795 4 4 L 4 11 L 1 11 C 0.449 11 0 11.449 0 12 L 0 18 C 0 18.551 0.449 19 1 19 L 4 19 L 4 22 C 4 24.205 5.795 26 8 26 L 20 26 C 22.205 26 24 24.205 24 22 L 24 8 C 24 6.938 23.02725 5.92975 21.28125 4.21875 C 21.03725 3.97875 20.77725 3.71675 20.53125 3.46875 C 20.28325 3.22275 20.02125 2.994 19.78125 2.75 C 18.06925 1.003 17.063 0 16 0 L 8 0 z M 8 2 L 15.28125 2 C 16.00225 2.184 16 3.0505 16 3.9375 L 16 7 C 16 7.551 16.449 8 17 8 L 20 8 C 20.998 8 22 8.005 22 9 L 22 22 C 22 23.104 21.104 24 20 24 L 8 24 C 6.896 24 6 23.104 6 22 L 6 19 L 19 19 C 19.551 19 20 18.551 20 18 L 20 12 C 20 11.449 19.551 11 19 11 L 6 11 L 6 4 C 6 2.896 6.896 2 8 2 z M 3.875 11.9375 C 5.813 11.9375 6.6875 13.4545 6.6875 14.9375 C 6.6865 16.8215 5.54225 18.03125 3.78125 18.03125 C 2.11825 18.03125 1.03125 16.82425 1.03125 15.03125 C 1.03125 13.21725 2.185 11.9375 3.875 11.9375 z M 11.15625 11.96875 C 11.90925 11.96875 12.461 12.11 12.75 12.25 C 12.807 12.277 12.85875 12.34625 12.84375 12.40625 L 12.5625 13.4375 C 12.5515 13.4745 12.535 13.51425 12.5 13.53125 C 12.465 13.54825 12.409 13.54725 12.375 13.53125 C 12.126 13.42425 11.769 13.28125 11.125 13.28125 C 10.04 13.28125 9.40625 13.90875 9.40625 14.96875 C 9.40625 16.02775 10.01925 16.6875 11.03125 16.6875 C 11.25825 16.6875 11.43225 16.68025 11.53125 16.65625 L 11.53125 15.6875 L 10.78125 15.6875 C 10.70925 15.6875 10.65625 15.6345 10.65625 15.5625 L 10.65625 14.5625 C 10.65625 14.4895 10.70925 14.4375 10.78125 14.4375 L 12.90625 14.4375 C 12.97825 14.4375 13.03125 14.4895 13.03125 14.5625 L 13.03125 17.53125 C 13.03125 17.58825 12.9905 17.63825 12.9375 17.65625 C 12.4765 17.81325 11.715 18 11 18 C 9.951 18 9.18 17.7245 8.625 17.1875 C 8.079 16.6755 7.77225 15.9335 7.78125 15.0625 C 7.79025 13.1955 9.12825 11.96875 11.15625 11.96875 z M 17.15625 11.96875 C 17.90925 11.96875 18.49025 12.11 18.78125 12.25 C 18.83725 12.277 18.85875 12.34625 18.84375 12.40625 L 18.5625 13.4375 C 18.5515 13.4745 18.534 13.51425 18.5 13.53125 C 18.465 13.54825 18.43925 13.54725 18.40625 13.53125 C 18.15625 13.42425 17.769 13.28125 17.125 13.28125 C 16.04 13.28125 15.40625 13.90875 15.40625 14.96875 C 15.40625 16.02775 16.01925 16.6875 17.03125 16.6875 C 17.25825 16.6875 17.43225 16.68025 17.53125 16.65625 L 17.53125 15.6875 L 16.78125 15.6875 C 16.70925 15.6875 16.65625 15.6345 16.65625 15.5625 L 16.65625 14.5625 C 16.65625 14.4895 16.70925 14.4375 16.78125 14.4375 L 18.90625 14.4375 C 18.97825 14.4375 19.03125 14.4895 19.03125 14.5625 L 19.03125 17.53125 C 19.03125 17.58825 18.9905 17.63825 18.9375 17.65625 C 18.4765 17.81325 17.715 18 17 18 C 15.951 18 15.179 17.7245 14.625 17.1875 C 14.078 16.6755 13.8035 15.9335 13.8125 15.0625 C 13.8215 13.1955 15.12825 11.96875 17.15625 11.96875 z M 3.84375 13.21875 C 3.09475 13.21875 2.625 13.916 2.625 15 C 2.625 16.063 3.122 16.75 3.875 16.75 C 4.618 16.75 5.09375 16.05275 5.09375 14.96875 C 5.09375 14.12475 4.69075 13.21875 3.84375 13.21875 z" />
</svg>
