<?xml version="1.0" encoding="UTF-8" standalone="no"?>
<svg
   xmlns:dc="http://purl.org/dc/elements/1.1/"
   xmlns:cc="http://creativecommons.org/ns#"
   xmlns:rdf="http://www.w3.org/1999/02/22-rdf-syntax-ns#"
   xmlns:svg="http://www.w3.org/2000/svg"
   xmlns="http://www.w3.org/2000/svg"
   xmlns:sodipodi="http://sodipodi.sourceforge.net/DTD/sodipodi-0.dtd"
   xmlns:inkscape="http://www.inkscape.org/namespaces/inkscape"
   enable-background="new 0 0 150 150"
   height="150px"
   id="Layer_1"
   version="1.1"
   viewBox="0 0 150 150"
   width="150px"
   xml:space="preserve"
   inkscape:version="0.48.5 r10040"
   sodipodi:docname="1419393472_42_podcast.svg"><metadata
     id="metadata31"><rdf:RDF><cc:Work
         rdf:about=""><dc:format>image/svg+xml</dc:format><dc:type
           rdf:resource="http://purl.org/dc/dcmitype/StillImage" /><dc:title></dc:title></cc:Work></rdf:RDF></metadata><defs
     id="defs29" /><sodipodi:namedview
     pagecolor="#ffffff"
     bordercolor="#666666"
     borderopacity="1"
     objecttolerance="10"
     gridtolerance="10"
     guidetolerance="10"
     inkscape:pageopacity="0"
     inkscape:pageshadow="2"
     inkscape:window-width="640"
     inkscape:window-height="480"
     id="namedview27"
     showgrid="false"
     inkscape:zoom="1.5733333"
     inkscape:cx="75"
     inkscape:cy="75"
     inkscape:window-x="742"
     inkscape:window-y="442"
     inkscape:window-maximized="0"
     inkscape:current-layer="Layer_1" /><g
     id="g3"><circle
       cx="74.993"
       cy="74.996"
       fill="#7B4797"
       opacity="0.1"
       r="75"
       id="circle5" /><path
       d="M74.993-0.004v150c41.42,0,75-33.579,75-75.001C149.993,33.574,116.413-0.004,74.993-0.004z"
       fill="#7B4797"
       opacity="0.1"
       id="path7" /><circle
       cx="74.993"
       cy="74.996"
       fill="#7B4797"
       r="65.488"
       id="circle9" /><path
       d="M74.993,9.508v130.976c36.168,0,65.488-29.319,65.488-65.488C140.481,38.828,111.161,9.508,74.993,9.508z"
       fill="#6C3C85"
       id="path11" /><g
       id="g13"><path
         d="M9.579,72.068c-0.043,0.971-0.074,1.945-0.074,2.927c0,36.169,29.32,65.488,65.488,65.488v-5.853    C39.806,134.631,11.11,106.878,9.579,72.068z"
         fill="#6C3C85"
         id="path15" /><path
         d="M140.407,72.068c-1.533,34.81-30.227,62.562-65.414,62.562v5.853c36.168,0,65.488-29.319,65.488-65.488    C140.481,74.014,140.45,73.039,140.407,72.068z"
         fill="#5D3173"
         id="path17" /></g></g><g
     id="g19"><path
       d="M74.899,32.322c-24.065,0-43.574,19.328-43.574,43.168c0,12.7,5.537,24.118,14.348,32.018   C37.893,99.874,33.06,89.22,33.06,77.431c0-23.216,18.732-42.037,41.84-42.037s41.84,18.821,41.84,42.037   c0,11.788-4.833,22.441-12.613,30.075c8.811-7.898,14.348-19.316,14.348-32.016C118.474,51.65,98.963,32.322,74.899,32.322z"
       fill="#FFFFFF"
       id="path21" /><path
       d="M104.336,70.795c0-16.283-13.2-29.483-29.484-29.483c-16.285,0-29.485,13.2-29.485,29.483   c0,13.045,8.477,24.104,20.217,27.99c1.499,8.336,3.424,16.762,3.424,16.762c0.002,0.002,0.246,1.805,2.4,1.805h3.444h3.442   c2.156,0,2.401-1.803,2.403-1.809c0,0.002,1.922-8.424,3.421-16.758C95.861,94.899,104.336,83.84,104.336,70.795z M74.896,77.921   c-0.029,0-0.046,0-0.046,0c-0.002,0-0.015,0-0.041,0c-0.568,0.003-6.584,0.065-9.443,2.96c-3.608-2.823-5.937-7.206-5.937-12.143   c0-8.518,6.904-15.422,15.423-15.422c8.517,0,15.421,6.904,15.421,15.422c0,4.937-2.326,9.319-5.935,12.143   C81.477,77.986,75.464,77.924,74.896,77.921z M84.402,97.174c0.821-4.752,1.456-9.292,1.456-12.02c0-0.545-0.025-1.019-0.079-1.408   c-0.087-0.606-0.273-1.147-0.53-1.634c4.316-3.191,7.118-8.315,7.118-14.096c0-9.675-7.843-17.517-17.516-17.517   c-9.675,0-17.518,7.842-17.518,17.517c0,5.78,2.802,10.905,7.121,14.096c-0.257,0.487-0.444,1.027-0.531,1.634   c-0.054,0.39-0.081,0.863-0.081,1.408c0,2.727,0.635,7.268,1.456,12.02c-10.37-3.873-17.756-13.867-17.756-25.588   c0-15.082,12.226-27.308,27.309-27.308c15.081,0,27.309,12.226,27.309,27.308C102.16,83.307,94.772,93.301,84.402,97.174z"
       fill="#FFFFFF"
       id="path23" /><circle
       cx="74.852"
       cy="67.665"
       fill="#FFFFFF"
       r="8.799"
       id="circle25" /></g></svg>