<?xml version="1.0" encoding="UTF-8" standalone="no"?>
<svg
   xmlns:dc="http://purl.org/dc/elements/1.1/"
   xmlns:cc="http://creativecommons.org/ns#"
   xmlns:rdf="http://www.w3.org/1999/02/22-rdf-syntax-ns#"
   xmlns:svg="http://www.w3.org/2000/svg"
   xmlns="http://www.w3.org/2000/svg"
   style="enable-background:new 0 0 500 500.008;"
   version="1.1"
   viewBox="0 0 500 500.008"
   xml:space="preserve"
   id="svg20265"><metadata
     id="metadata20271"><rdf:RDF><cc:Work
         rdf:about=""><dc:format>image/svg+xml</dc:format><dc:type
           rdf:resource="http://purl.org/dc/dcmitype/StillImage" /><dc:title></dc:title></cc:Work></rdf:RDF></metadata><defs
     id="defs20269" /><rect
     x="0"
     height="500.008"
     style="fill:#f27744;stroke:none"
     width="500"
     y="0"
     id="rect20250" /><g
     transform="matrix(1.4167577,0,0,1.4167577,-103.40055,-104.97132)"
     id="_x32_7"><g
       id="g20256"><g
         id="g20254"><path
           d="m 376.627,277.112 35.493,-4.205 c 2.526,-0.277 4.6,-2.607 4.6,-5.17 v -35.549 c 0,-2.52 -2.073,-4.87 -4.6,-5.148 l -35.493,-4.197 c -3.399,-16.164 -9.771,-31.237 -18.524,-44.597 l 22.156,-28.125 c 1.597,-1.956 1.421,-5.076 -0.381,-6.87 L 354.734,118.1 c -1.787,-1.78 -4.899,-1.985 -6.906,-0.396 l -28.096,22.141 c -13.381,-8.701 -28.426,-15.095 -44.59,-18.486 L 270.953,85.83 c -0.293,-2.498 -2.615,-4.578 -5.171,-4.578 h -35.544 c -2.557,0 -4.863,2.08 -5.172,4.578 l -4.203,35.529 c -16.165,3.392 -31.217,9.785 -44.583,18.486 l -28.11,-22.141 c -1.992,-1.59 -5.09,-1.385 -6.885,0.396 l -25.137,25.151 c -1.816,1.794 -2.007,4.914 -0.41,6.899 l 22.141,28.096 c -8.73,13.359 -15.109,28.433 -18.493,44.597 l -35.493,4.197 c -2.541,0.278 -4.592,2.629 -4.614,5.148 l 0.022,35.549 c -0.022,2.562 2.051,4.893 4.592,5.17 l 35.493,4.205 c 3.384,16.172 9.763,31.23 18.501,44.604 l -22.148,28.111 c -1.597,1.977 -1.406,5.068 0.41,6.885 l 25.137,25.137 c 1.795,1.816 4.893,1.963 6.899,0.395 l 28.096,-22.162 c 13.366,8.73 28.418,15.147 44.583,18.516 l 4.203,35.479 c 0.309,2.533 2.615,4.6 5.172,4.613 l 35.544,-0.014 c 2.556,0.014 4.878,-2.066 5.171,-4.6 l 4.189,-35.479 c 10.057,-2.096 19.6,-5.494 28.652,-9.771 L 274.783,340.7 c -8.503,2.52 -17.461,3.912 -26.784,3.912 -52.272,0 -94.622,-42.379 -94.622,-94.641 0,-52.272 42.35,-94.644 94.622,-94.644 52.266,0 94.644,42.371 94.644,94.644 0,8.966 -1.333,17.59 -3.67,25.807 l 28.733,27.861 c 3.815,-8.437 6.973,-17.24 8.921,-26.527 z"
           style="fill:#ffffff"
           id="path20252" /></g></g><path
       d="m 412.01,368.151 0.029,-0.029 -98.166,-95.199 c 7.119,-23.852 0.733,-51.127 -18.904,-69.98 -19.709,-18.955 -47.432,-24.272 -71.088,-16.011 l 23.291,22.36 c 5.383,5.186 5.551,13.77 0.381,19.153 l -22.522,23.416 c -5.171,5.397 -13.747,5.558 -19.131,0.396 l -23.298,-22.406 c -7.311,23.973 -0.908,51.463 18.83,70.419 19.819,19.059 47.681,24.273 71.396,15.836 l 97.947,94.98 0.322,-0.338 c 11.74,11.045 30.153,10.635 41.359,-1.039 11.214,-11.675 10.973,-30.191 -0.446,-41.558 z m -9.016,34.952 c -3.691,3.838 -9.8,3.941 -13.623,0.234 -3.846,-3.734 -3.947,-9.844 -0.256,-13.711 3.705,-3.838 9.807,-3.939 13.637,-0.234 3.838,3.72 3.948,9.843 0.242,13.711 z"
       style="fill:#ffffff"
       id="path20258" /></g><g
     id="Layer_1" /></svg>
