<?xml version="1.0" encoding="UTF-8" standalone="no"?>
<svg
   xmlns:dc="http://purl.org/dc/elements/1.1/"
   xmlns:cc="http://creativecommons.org/ns#"
   xmlns:rdf="http://www.w3.org/1999/02/22-rdf-syntax-ns#"
   xmlns:svg="http://www.w3.org/2000/svg"
   xmlns="http://www.w3.org/2000/svg"
   id="svg20265"
   xml:space="preserve"
   viewBox="0 0 500 500.008"
   version="1.1"
   style="enable-background:new 0 0 500 500.008;"><metadata
     id="metadata20271"><rdf:RDF><cc:Work
         rdf:about=""><dc:format>image/svg+xml</dc:format><dc:type
           rdf:resource="http://purl.org/dc/dcmitype/StillImage" /><dc:title></dc:title></cc:Work></rdf:RDF></metadata><defs
     id="defs20269" /><g
     id="gear-tools-settings"><g
       id="g20261"><rect
         id="rect20250"
         y="0"
         width="500"
         style="fill:#F27744;"
         height="500.008" /><g
         id="_x32_7"><g
           id="g20256"><g
             id="g20254"><path
               id="path20252"
               style="fill:#FFFFFF;"
               d="M376.627,277.112l35.493-4.205c2.526-0.277,4.6-2.607,4.6-5.17v-35.549       c0-2.52-2.073-4.87-4.6-5.148l-35.493-4.197c-3.399-16.164-9.771-31.237-18.524-44.597l22.156-28.125       c1.597-1.956,1.421-5.076-0.381-6.87l-25.144-25.151c-1.787-1.78-4.899-1.985-6.906-0.396l-28.096,22.141       c-13.381-8.701-28.426-15.095-44.59-18.486l-4.189-35.529c-0.293-2.498-2.615-4.578-5.171-4.578h-35.544       c-2.557,0-4.863,2.08-5.172,4.578l-4.203,35.529c-16.165,3.392-31.217,9.785-44.583,18.486l-28.11-22.141       c-1.992-1.59-5.09-1.385-6.885,0.396l-25.137,25.151c-1.816,1.794-2.007,4.914-0.41,6.899l22.141,28.096       c-8.73,13.359-15.109,28.433-18.493,44.597l-35.493,4.197c-2.541,0.278-4.592,2.629-4.614,5.148l0.022,35.549       c-0.022,2.562,2.051,4.893,4.592,5.17l35.493,4.205c3.384,16.172,9.763,31.23,18.501,44.604l-22.148,28.111       c-1.597,1.977-1.406,5.068,0.41,6.885l25.137,25.137c1.795,1.816,4.893,1.963,6.899,0.395l28.096-22.162       c13.366,8.73,28.418,15.147,44.583,18.516l4.203,35.479c0.309,2.533,2.615,4.6,5.172,4.613l35.544-0.014       c2.556,0.014,4.878-2.066,5.171-4.6l4.189-35.479c10.057-2.096,19.6-5.494,28.652-9.771L274.783,340.7       c-8.503,2.52-17.461,3.912-26.784,3.912c-52.272,0-94.622-42.379-94.622-94.641c0-52.272,42.35-94.644,94.622-94.644       c52.266,0,94.644,42.371,94.644,94.644c0,8.966-1.333,17.59-3.67,25.807l28.733,27.861       C371.521,295.202,374.679,286.399,376.627,277.112z" /></g></g><path
           id="path20258"
           style="fill:#FFFFFF;"
           d="M412.01,368.151l0.029-0.029l-98.166-95.199c7.119-23.852,0.733-51.127-18.904-69.98     c-19.709-18.955-47.432-24.272-71.088-16.011l23.291,22.36c5.383,5.186,5.551,13.77,0.381,19.153l-22.522,23.416     c-5.171,5.397-13.747,5.558-19.131,0.396l-23.298-22.406c-7.311,23.973-0.908,51.463,18.83,70.419     c19.819,19.059,47.681,24.273,71.396,15.836l97.947,94.98l0.322-0.338c11.74,11.045,30.153,10.635,41.359-1.039     C423.67,398.034,423.429,379.518,412.01,368.151z M402.994,403.103c-3.691,3.838-9.8,3.941-13.623,0.234     c-3.846-3.734-3.947-9.844-0.256-13.711c3.705-3.838,9.807-3.939,13.637-0.234C406.59,393.112,406.7,399.235,402.994,403.103z" /></g></g></g><g
     id="Layer_1" /></svg>
