<?xml version="1.0" encoding="UTF-8" standalone="no"?>
<svg
   xmlns:dc="http://purl.org/dc/elements/1.1/"
   xmlns:cc="http://creativecommons.org/ns#"
   xmlns:rdf="http://www.w3.org/1999/02/22-rdf-syntax-ns#"
   xmlns:svg="http://www.w3.org/2000/svg"
   xmlns="http://www.w3.org/2000/svg"
   xmlns:xlink="http://www.w3.org/1999/xlink"
   xmlns:sodipodi="http://sodipodi.sourceforge.net/DTD/sodipodi-0.dtd"
   xmlns:inkscape="http://www.inkscape.org/namespaces/inkscape"
   version="1.0"
   width="508.63184"
   height="237.70274"
   id="svg2"
   sodipodi:docname="ratortag.svg"
   inkscape:version="0.92.2 5c3e80d, 2017-08-06">
  <sodipodi:namedview
     pagecolor="#ffffff"
     bordercolor="#666666"
     borderopacity="1"
     objecttolerance="10"
     gridtolerance="10"
     guidetolerance="10"
     inkscape:pageopacity="0"
     inkscape:pageshadow="2"
     inkscape:window-width="1577"
     inkscape:window-height="967"
     id="namedview47"
     showgrid="false"
     inkscape:zoom="0.50724311"
     inkscape:cx="-70.971888"
     inkscape:cy="118.85137"
     inkscape:window-x="0"
     inkscape:window-y="0"
     inkscape:window-maximized="0"
     inkscape:current-layer="svg2"
     fit-margin-top="0"
     fit-margin-left="0"
     fit-margin-right="0"
     fit-margin-bottom="0" />
  <defs
     id="defs4">
    <linearGradient
       gradientTransform="matrix(3.3912573,1.0370763,-1.0370763,3.3912573,-523.66508,-1326.0373)"
       x1="331.66"
       y1="356.73001"
       x2="279.35999"
       gradientUnits="userSpaceOnUse"
       y2="328.16"
       id="linearGradient6237">
      <stop
         offset="0"
         stop-color="#000"
         id="stop6233" />
      <stop
         offset="1"
         stop-opacity="0"
         stop-color="#000"
         id="stop6235" />
    </linearGradient>
    <linearGradient
       gradientTransform="matrix(3.3912573,1.0370763,-1.0370763,3.3912573,-523.66508,-1326.0373)"
       x1="279.35999"
       y1="328.16"
       x2="331.66"
       gradientUnits="userSpaceOnUse"
       y2="356.73001"
       id="linearGradient6245">
      <stop
         offset="0"
         stop-color="#e6e04d"
         id="stop6241" />
      <stop
         offset="1"
         stop-opacity="0"
         stop-color="#e6e04d"
         id="stop6243" />
    </linearGradient>
    <linearGradient
       id="linearGradient8409">
      <stop
         style="stop-color: white; stop-opacity: 0.659341;"
         offset="0"
         id="stop8411" />
      <stop
         style="stop-color: white; stop-opacity: 0;"
         offset="1"
         id="stop8413" />
    </linearGradient>
    <linearGradient
       x1="200.5"
       y1="437.36218"
       x2="346.5"
       y2="583.36218"
       id="linearGradient22179"
       xlink:href="#linearGradient8409"
       gradientUnits="userSpaceOnUse" />
    <filter
       style="color-interpolation-filters:sRGB"
       id="filter3408">
      <feGaussianBlur
         id="feGaussianBlur3410"
         stdDeviation="4.1410521" />
    </filter>
    <linearGradient
       id="linearGradient3139"
       y2="673.85999"
       gradientUnits="userSpaceOnUse"
       x2="241.16"
       gradientTransform="rotate(-45,-216.62068,112.93413)"
       y1="673.85999"
       x1="224.72">
      <stop
         id="stop3463"
         stop-color="#eeeeec"
         stop-opacity="0.73239437"
         offset="0" />
      <stop
         id="stop3465"
         stop-color="#eeeeec"
         stop-opacity="0"
         offset="1" />
    </linearGradient>
    <linearGradient
       id="linearGradient3141"
       y2="672.40002"
       gradientUnits="userSpaceOnUse"
       x2="399.16"
       gradientTransform="rotate(-45,-217.22422,113.18413)"
       y1="672.40002"
       x1="426">
      <stop
         id="stop3478"
         stop-color="#FFF"
         offset="0" />
      <stop
         id="stop3480"
         stop-color="#FFF"
         stop-opacity="0"
         offset="1" />
    </linearGradient>
    <linearGradient
       id="linearGradient3143"
       y2="665.16998"
       gradientUnits="userSpaceOnUse"
       x2="366.89999"
       gradientTransform="rotate(-45,-216.62068,112.93413)"
       y1="664.66998"
       x1="384.89999">
      <stop
         id="stop3206"
         stop-color="#FFF"
         offset="0" />
      <stop
         id="stop3208"
         stop-color="#FFF"
         stop-opacity="0"
         offset="1" />
    </linearGradient>
    <linearGradient
       id="linearGradient3145"
       y2="673.66998"
       gradientUnits="userSpaceOnUse"
       x2="234.64"
       gradientTransform="rotate(-45,-216.62068,112.93413)"
       y1="673.66998"
       x1="218.88">
      <stop
         id="stop3198"
         stop-color="#000"
         offset="0" />
      <stop
         id="stop3200"
         stop-color="#000"
         stop-opacity="0"
         offset="1" />
    </linearGradient>
    <linearGradient
       gradientTransform="matrix(0.95053699,-0.95053699,0.95053699,0.95053699,-402.54891,-187.59435)"
       id="linearGradient3147"
       y2="671.48999"
       gradientUnits="userSpaceOnUse"
       x2="411"
       y1="671.48999"
       x1="397.75">
      <stop
         id="stop3224"
         stop-color="#000"
         stop-opacity="0.29411766"
         offset="0" />
      <stop
         id="stop3226"
         stop-color="#FFF"
         stop-opacity="0.29411766"
         offset="1" />
    </linearGradient>
  </defs>
  <metadata
     id="metadata7">
    <rdf:RDF>
      <cc:Work
         rdf:about="">
        <dc:format>image/svg+xml</dc:format>
        <dc:type
           rdf:resource="http://purl.org/dc/dcmitype/StillImage" />
        <dc:title></dc:title>
      </cc:Work>
    </rdf:RDF>
  </metadata>
  <path
     style="fill:#edeb24;fill-rule:evenodd;stroke:#e6e04d;stroke-width:4;stroke-linejoin:miter;stroke-miterlimit:4;stroke-dasharray:none"
     stroke-miterlimit="4"
     d="M 198.11124,233.1627 124.5822,184.83448 50.412563,232.5939 73.653303,147.72898 5.3108827,91.947655 93.203379,87.825917 125.13514,5.592833 l 31.07898,82.318747 88.07891,4.957815 -68.68397,54.995875 z"
     id="path3817"
     inkscape:connector-curvature="0" />
  <path
     style="fill:url(#linearGradient6237);fill-rule:evenodd;stroke:url(#linearGradient6245);stroke-width:4;stroke-linejoin:miter;stroke-miterlimit:4;stroke-dasharray:none"
     stroke-miterlimit="4"
     d="M 198.11124,233.1627 124.5822,184.83448 50.412563,232.5939 73.653303,147.72898 5.3108827,91.947655 93.203379,87.825917 125.13514,5.592833 l 31.07898,82.318747 88.07891,4.957815 -68.68397,54.995875 z"
     id="path6075"
     inkscape:connector-curvature="0" />
  <g
     transform="translate(-138.85465,-16.635201)"
     id="g4797">
    <g
       id="g4785">
      <path
         style="fill:#75ed3d;fill-rule:nonzero"
         id="rect2630"
         d="m 461.34281,141.37973 c -8.3944,8.3944 -8.3944,21.923 0,30.317 l 56.569,56.569 c 8.3944,8.3944 21.901,8.3723 30.295,-0.0221 l 94.443,-94.443 c 3.8254,-4.1231 4.8334,-12.935 4.3752,-23.379 0.003,-0.073 -0.004,-0.14788 0,-0.22097 1.1817,-20.136 0.81706,-47.165 -10.01,-57.607 -9.7824,-9.8793 -37.321,-10.761 -57.32,-10.032 -10.676,-0.51656 -19.716,0.48524 -23.909,4.3752 l -94.443,94.443 z m 153.75,-80.433 c 3.0522,-3.0522 8.0184,-3.0301 11.071,0.0221 3.0522,3.0522 3.0522,7.9964 0,11.049 -3.0522,3.0522 -7.9964,3.0522 -11.049,0 -3.0522,-3.0522 -3.0743,-8.0184 -0.0221,-11.071 z"
         inkscape:connector-curvature="0" />
      <rect
         style="fill:#72e03e;fill-rule:nonzero"
         id="rect3454"
         ry="14.617"
         transform="rotate(-45)"
         height="105.26"
         width="156.96001"
         y="435.10974"
         x="211.69455" />
      <rect
         style="fill:#eeeeec;fill-rule:nonzero"
         id="rect2636"
         ry="2.7321999"
         transform="rotate(-45)"
         height="83.5"
         width="135.96001"
         y="446.60974"
         x="222.19455" />
      <path
         style="fill:url(#linearGradient3139);fill-rule:nonzero"
         id="path3456"
         d="m 461.34281,141.37973 c -8.3944,8.3944 -8.3944,21.923 0,30.317 l 56.569,56.569 c 8.3944,8.3944 21.901,8.3723 30.295,-0.0221 l 2.8284,-2.8284 c -8.3944,8.3944 -21.901,8.4165 -30.295,0.0221 l -56.569,-56.569 c -8.3944,-8.3944 -8.3944,-21.923 0,-30.317 z"
         inkscape:connector-curvature="0" />
      <path
         style="fill:#72e03e;fill-rule:nonzero"
         id="path3469"
         d="m 584.95281,50.95973 51.619,51.619 c 0.0459,-1.5136 0.0286,-3.1142 -0.0442,-4.773 0.002,-0.0504 -0.003,-0.0822 0,-0.13251 0.81489,-13.886 0.572,-32.53 -6.8943,-39.731 -6.7458,-6.8127 -25.741,-7.4192 -39.532,-6.9164 -1.7969,-0.0869 -3.5183,-0.11784 -5.1486,-0.0663 z m 30.14,9.9879 c 3.0522,-3.0522 8.0184,-3.0301 11.071,0.0221 3.0522,3.0522 3.0522,7.9964 0,11.049 -3.0522,3.0522 -7.9964,3.0522 -11.049,0 -3.0522,-3.0522 -3.0743,-8.0184 -0.0221,-11.071 z"
         inkscape:connector-curvature="0" />
      <path
         style="fill:none;stroke:url(#linearGradient3141);stroke-width:2;stroke-linecap:round;stroke-linejoin:bevel;stroke-miterlimit:4;stroke-dasharray:none;stroke-dashoffset:0"
         id="path3474"
         d="m 584.59281,50.59973 51.611,51.611 c 0.0459,-1.5136 0.0423,-3.0955 -0.0305,-4.7543 0.002,-0.0504 -0.003,-0.10196 0,-0.15238 0.81487,-13.886 0.56344,-32.525 -6.9028,-39.726 -6.7458,-6.8127 -25.737,-7.4209 -39.527,-6.9181 -1.7969,-0.087 -3.5201,-0.1125 -5.1504,-0.061 z"
         stroke-miterlimit="4"
         inkscape:connector-curvature="0" />
      <path
         style="fill:none;stroke:url(#linearGradient3143);stroke-width:1px;stroke-linecap:butt;stroke-linejoin:miter"
         id="path2414"
         d="m 560.34281,54.81973 c 0,0 4.8021,-4.102 13.789,-0.35355 2.0456,1.1714 58.619,57.761 59.574,59.043 5.7031,6.0207 2.2981,15.38 2.2981,15.38"
         inkscape:connector-curvature="0" />
      <path
         style="fill:none;stroke:url(#linearGradient3145);stroke-width:1px;stroke-linecap:butt;stroke-linejoin:miter"
         id="path2416"
         d="m 465.25281,149.19973 c 0,0 -4.102,4.8021 -0.35355,13.789 1.1714,2.0456 57.761,58.619 59.043,59.574 6.0207,5.7031 15.38,2.2981 15.38,2.2981"
         inkscape:connector-curvature="0" />
      <path
         style="fill:none;stroke:url(#linearGradient3147);stroke-width:2.68852472;stroke-linecap:round;stroke-linejoin:bevel;stroke-miterlimit:4;stroke-dasharray:none;stroke-dashoffset:0"
         id="path3214"
         d="m 626.39788,60.011031 c 3.47792,3.477919 3.47792,9.116695 0,12.594615 -3.47792,3.477919 -9.1167,3.477919 -12.59462,0 -3.47792,-3.47792 -3.47792,-9.116696 0,-12.594615 3.47792,-3.47792 9.1167,-3.47792 12.59462,0 z"
         stroke-miterlimit="4"
         inkscape:connector-curvature="0" />
    </g>
  </g>
  <text
     id="text1046"
     y="207.91641"
     x="234.32538"
     style="font-style:normal;font-weight:normal;font-size:54.49393845px;line-height:125%;font-family:Sans;letter-spacing:0px;word-spacing:0px;fill:#b10000;fill-opacity:1;stroke:none;stroke-width:1.36234844px;stroke-linecap:butt;stroke-linejoin:miter;stroke-opacity:1"
     xml:space="preserve"><tspan
       style="font-size:261.57092285px;fill:#b10000;fill-opacity:1;stroke-width:1.36234844px"
       y="207.91641"
       x="234.32538"
       id="tspan1044">/</tspan></text>
</svg>
