<?xml version="1.0" encoding="UTF-8" standalone="no"?>
<svg
   xmlns:dc="http://purl.org/dc/elements/1.1/"
   xmlns:cc="http://creativecommons.org/ns#"
   xmlns:rdf="http://www.w3.org/1999/02/22-rdf-syntax-ns#"
   xmlns:svg="http://www.w3.org/2000/svg"
   xmlns="http://www.w3.org/2000/svg"
   xmlns:sodipodi="http://sodipodi.sourceforge.net/DTD/sodipodi-0.dtd"
   xmlns:inkscape="http://www.inkscape.org/namespaces/inkscape"
   inkscape:version="1.0beta2 (2b71d25, 2019-12-03)"
   sodipodi:docname="refresh.svg"
   version="1.1"
   viewBox="0 0 128 128"
   id="icons">
  <metadata
     id="metadata21934">
    <rdf:RDF>
      <cc:Work
         rdf:about="">
        <dc:format>image/svg+xml</dc:format>
        <dc:type
           rdf:resource="http://purl.org/dc/dcmitype/StillImage" />
      </cc:Work>
    </rdf:RDF>
  </metadata>
  <sodipodi:namedview
     inkscape:current-layer="icons"
     inkscape:window-maximized="0"
     inkscape:window-y="24"
     inkscape:window-x="0"
     inkscape:cy="62.467066"
     inkscape:cx="53.173653"
     inkscape:zoom="5.21875"
     showgrid="false"
     id="namedview21932"
     inkscape:window-height="876"
     inkscape:window-width="1440"
     inkscape:pageshadow="2"
     inkscape:pageopacity="0"
     guidetolerance="10"
     gridtolerance="10"
     objecttolerance="10"
     borderopacity="1"
     inkscape:document-rotation="0"
     bordercolor="#666666"
     pagecolor="#ffffff" />
  <defs
     id="defs21917">
    <style
       id="style21915">.cls-1{fill:#92be00;}.cls-2{fill:#303442;opacity:0.08;}.cls-3{fill:none;stroke:#303442;stroke-linecap:round;stroke-linejoin:round;stroke-width:4px;}</style>
  </defs>
  <title
     id="title21919">refresh</title>
  <g
     transform="matrix(1.3960493,0,0,1.3960493,-25.347155,-25.347155)"
     id="g22502">
    <path
       inkscape:connector-curvature="0"
       class="cls-1"
       d="m 102.06,59.52 a 4.99364,4.99364 0 0 1 4.93,5.06 A 43.15606,43.15606 0 0 1 64,107 42.85044,42.85044 0 0 1 34.4,95.19 C 34.37,95.16 34.35,95.13 34.32,95.1 l -5.94,5.94 A 0.89733,0.89733 0 0 1 26.87,100.6 L 21.19,76.01 a 0.89944,0.89944 0 0 1 1.08,-1.08 l 24.59,5.68 a 0.89733,0.89733 0 0 1 0.44,1.51 l -5.91,5.91 A 32.79168,32.79168 0 0 0 64,97 33.10742,33.10742 0 0 0 96.99,64.45 a 5.00679,5.00679 0 0 1 5,-4.93 z"
       id="path21921" />
    <path
       inkscape:connector-curvature="0"
       class="cls-2"
       d="M 64,102 A 42.85027,42.85027 0 0 1 34.4,90.18994 c -0.03,-0.03 -0.05,-0.05994 -0.08,-0.09 L 28.38,96.04 A 0.89733,0.89733 0 0 1 26.87,95.6 L 22.09143,74.9126 A 0.89564,0.89564 0 0 0 21.19,76.01 l 5.68,24.59 a 0.89733,0.89733 0 0 0 1.51,0.44006 L 34.32,95.1 c 0.03,0.03 0.05,0.05993 0.08,0.09 A 42.99525,42.99525 0 0 0 106.99,64.58 4.92339,4.92339 0 0 0 106.78059,63.15824 43.17139,43.17139 0 0 1 64,102 Z"
       id="path21923" />
    <path
       inkscape:connector-curvature="0"
       class="cls-1"
       d="m 106.81,51.99 a 0.89944,0.89944 0 0 1 -1.08,1.08 L 81.14,47.39 A 0.89733,0.89733 0 0 1 80.7,45.88 l 5.91,-5.91 A 32.79168,32.79168 0 0 0 64,31 33.10742,33.10742 0 0 0 31.01,63.55 a 5.00679,5.00679 0 0 1 -5,4.93 H 25.94 A 4.99364,4.99364 0 0 1 21.01,63.42 43.15606,43.15606 0 0 1 64,21 42.85044,42.85044 0 0 1 93.6,32.81 c 0.03,0.03 0.05,0.06 0.08,0.09 l 5.94,-5.94 a 0.89733,0.89733 0 0 1 1.51,0.44 z"
       id="path21925" />
    <path
       inkscape:connector-curvature="0"
       class="cls-3"
       d="m 102.06,59.52 h -0.07 a 5.00679,5.00679 0 0 0 -5,4.93 A 33.10742,33.10742 0 0 1 64,97 32.79168,32.79168 0 0 1 41.39,88.03 L 47.3,82.12 A 0.89733,0.89733 0 0 0 46.86,80.61 L 22.27,74.93 a 0.89944,0.89944 0 0 0 -1.08,1.08 l 5.68,24.59 a 0.89733,0.89733 0 0 0 1.51,0.44 l 5.94,-5.94 c 0.03,0.03 0.05,0.06 0.08,0.09 a 42.99531,42.99531 0 0 0 72.59,-30.61 4.99364,4.99364 0 0 0 -4.93,-5.06 z"
       id="path21927" />
    <path
       inkscape:connector-curvature="0"
       class="cls-3"
       d="M 106.81,51.99 101.13,27.4 A 0.89733,0.89733 0 0 0 99.62,26.96 L 93.68,32.9 C 93.65,32.87 93.63,32.84 93.6,32.81 a 42.99531,42.99531 0 0 0 -72.59,30.61 4.99364,4.99364 0 0 0 4.93,5.06 h 0.07 a 5.00679,5.00679 0 0 0 5,-4.93 A 33.10742,33.10742 0 0 1 64,31 32.79168,32.79168 0 0 1 86.61,39.97 l -5.91,5.91 a 0.89733,0.89733 0 0 0 0.44,1.51 l 24.59,5.68 a 0.89944,0.89944 0 0 0 1.08,-1.08 z"
       id="path21929" />
  </g>
</svg>
