<?xml version="1.0" encoding="UTF-8" standalone="no"?>
<svg
   xmlns:dc="http://purl.org/dc/elements/1.1/"
   xmlns:cc="http://creativecommons.org/ns#"
   xmlns:rdf="http://www.w3.org/1999/02/22-rdf-syntax-ns#"
   xmlns:svg="http://www.w3.org/2000/svg"
   xmlns="http://www.w3.org/2000/svg"
   version="1.1"
   viewBox="0 0 128 128"
   id="icons">
  <metadata
     id="metadata21934">
    <rdf:RDF>
      <cc:Work
         rdf:about="">
        <dc:format>image/svg+xml</dc:format>
        <dc:type
           rdf:resource="http://purl.org/dc/dcmitype/StillImage" />
        <dc:title>refresh</dc:title>
      </cc:Work>
    </rdf:RDF>
  </metadata>
  <defs
     id="defs21917">
    <style
       id="style21915">.cls-1{fill:#92be00;}.cls-2{fill:#303442;opacity:0.08;}.cls-3{fill:none;stroke:#303442;stroke-linecap:round;stroke-linejoin:round;stroke-width:4px;}</style>
  </defs>
  <title
     id="title21919">refresh</title>
  <path
     style="stroke-width:1.39605"
     id="path21925"
     d="m 123.76487,47.233448 a 1.2556626,1.2556626 0 0 1 -1.50773,1.507733 l -34.328855,-7.92956 a 1.2527169,1.2527169 0 0 1 -0.614261,-2.108034 l 8.250651,-8.250651 A 45.778802,45.778802 0 0 0 64,17.930373 46.219591,46.219591 0 0 0 17.944334,63.371778 6.9897257,6.9897257 0 0 1 10.964087,70.254301 h -0.09772 A 6.9713676,6.9713676 0 0 1 3.9838408,63.190292 60.247987,60.247987 0 0 1 64,3.9698803 59.821327,59.821327 0 0 1 105.32306,20.457223 c 0.0419,0.04188 0.0698,0.08376 0.11168,0.125644 l 8.29254,-8.292533 a 1.2527169,1.2527169 0 0 1 2.10803,0.614262 z"
     class="cls-1" />
  <path
     id="path21929"
     d="m 123.76487,47.233448 -7.92956,-34.328852 a 1.2527169,1.2527169 0 0 0 -2.10803,-0.614262 l -8.29254,8.292533 c -0.0419,-0.04188 -0.0698,-0.08376 -0.11168,-0.125644 A 60.023572,60.023572 0 0 0 3.9838408,63.190292 6.9713676,6.9713676 0 0 0 10.866364,70.254301 h 0.09772 A 6.9897257,6.9897257 0 0 0 17.944334,63.371778 46.219591,46.219591 0 0 1 64,17.930373 45.778802,45.778802 0 0 1 95.564675,30.452936 l -8.250651,8.250651 a 1.2527169,1.2527169 0 0 0 0.614261,2.108034 l 34.328855,7.92956 a 1.2556626,1.2556626 0 0 0 1.50773,-1.507733 z"
     class="cls-3" />
</svg>
