<?xml version="1.0" encoding="UTF-8" standalone="no"?>
<!-- Created with Inkscape (http://www.inkscape.org/) -->
<svg xmlns:rdf="http://www.w3.org/1999/02/22-rdf-syntax-ns#" xmlns="http://www.w3.org/2000/svg" height="246.76" width="247.77" version="1.1" xmlns:cc="http://creativecommons.org/ns#" xmlns:dc="http://purl.org/dc/elements/1.1/">
 <metadata>
  <rdf:RDF>
   <cc:Work rdf:about="">
    <dc:format>image/svg+xml</dc:format>
    <dc:type rdf:resource="http://purl.org/dc/dcmitype/StillImage"/>
    <dc:title/>
   </cc:Work>
  </rdf:RDF>
 </metadata>
 <g transform="translate(-247.54638,-369.37336)">
  <path d="m371.58,615.66c-7.8066-3.9055-12.753-9.0227-16.155-16.713l-2.0412-4.6146-51.136,0.0212c-48.965,0.0203-51.246-0.0607-53.728-1.9079-5.2644-3.9187-5.2472-10.544,0.0374-14.478,2.5307-1.8839,4.5375-1.9558,53.71-1.9242l51.081,0.0329,2.4605-5.3745c4.4203-9.6552,13.755-16.934,24.927-19.438,5.3825-1.2062,15.456,0.21944,21.27,3.0103,5.9303,2.8468,12.493,9.6216,15.888,16.402,2.5989,5.1905,2.9643,6.9832,2.9643,14.544,0,7.5275-0.36794,9.3515-2.8933,14.343-3.5066,6.9307-10.725,13.907-17.798,17.199-4.188,1.9498-6.8635,2.4404-13.353,2.4482-7.3123,0.009-8.8201-0.34267-15.233-3.5507zm21.804-16.417c8.2432-4.2053,11.634-15.009,6.8834-21.931-3.8712-5.6404-7.3054-7.5984-13.229-7.5426-9.7542,0.0919-15.61,6.08-15.61,15.963,0,6.7277,2.7997,10.854,9.5,14.001,4.1847,1.9654,7.9314,1.818,12.456-0.49005zm55.855-4.8058c-10.538-0.27922-10.725-0.32616-13.25-3.3267-3.3456-3.976-3.3875-8.7061-0.1087-12.244,2.3138-2.4967,3.0053-2.6521,12.25-2.7534,27.177-0.29795,42.896,0.11271,45.494,1.1885,5.606,2.3221,5.9288,11.825,0.52216,15.368-2.4929,1.6334-21.595,2.3853-44.907,1.7677zm-143.31-68.61c-10.481-3.3235-18.753-10.553-22.137-19.348l-1.6352-4.25h-14.96c-12.162,0-15.487-0.31142-17.779-1.6653-5.6226-3.3214-6.5675-9.9106-2.0664-14.412l2.9231-2.9231,15.827-0.004,15.827-0.004,1.827-4.4429c4.3541-10.588,16.409-19.171,28.462-20.264,4.5301-0.41078,7.7844-0.002,13.28,1.667,6.3324,1.9234,8.0773,3.0137,13.411,8.3794,8.215,8.2646,11.049,15.494,10.244,26.135-0.68512,9.0588-3.4618,15.634-9.0218,21.363-5.3847,5.5483-10.844,8.69-17.501,10.071-6.7156,1.3931-11.634,1.3039-16.701-0.30288zm17.548-19.851c13.196-8.8928,7.2922-28.747-8.548-28.747-11.992,0-19.318,12.356-13.646,23.016,3.9518,7.4266,15.321,10.362,22.194,5.731zm43.952-4.8426c-5.1329-2.038-7.5051-8.2231-4.9704-12.959,2.6517-4.9547,2.5334-4.9462,68.171-4.9224,56.571,0.0205,61.464,0.15552,63.433,1.75,4.8748,3.9487,5.6684,9.6031,1.954,13.922l-2.413,2.8058-61.837,0.19828c-39.056,0.12523-62.758-0.16741-64.337-0.79433zm27.239-68.971c-6.7685-2.6767-14.54-9.9472-18.1-16.933l-2.8027-5.5-62.141-0.5c-61.072-0.4914-62.177-0.53544-64.201-2.5598-1.1326-1.1329-2.3254-3.6995-2.6506-5.7036-0.50898-3.1365-0.16718-4.068,2.4551-6.6902,2.6685-2.6685,3.7692-3.0568,8.8733-3.1301,3.2048-0.046,30.934-0.10007,61.621-0.12009l55.794-0.0364,2.558-5.1299c5.3656-10.76,14.588-17.567,26.647-19.667,14.091-2.4538,28.285,5.1825,35.388,19.037,2.5086,4.8939,2.8193,6.5469,2.8193,15,0,8.3564-0.33349,10.179-2.7705,15.142-3.255,6.6283-9.9906,13.192-16.554,16.13-6.925,3.1008-19.958,3.4206-26.936,0.66089zm19.49-17.897c10.526-4.7782,11.996-19.568,2.653-26.694-4.6002-3.5087-13.794-3.9077-17.991-0.78068-5.2819,3.9349-6.894,7.1062-6.8566,13.488,0.0418,7.1247,2.0908,10.433,8.4858,13.7,5.3505,2.734,8.1863,2.7932,13.709,0.28618zm44.691-6.1807c-1.1439-0.55505-2.8629-2.3349-3.82-3.9551-1.4631-2.4769-1.5556-3.5052-0.58096-6.4586,1.9314-5.8522,4.2793-6.6889,18.743-6.6793,19.724,0.0131,19.072-0.0823,22.438,3.2839,2.6322,2.6322,2.9662,3.55,2.4568,6.75-0.35172,2.2096-1.6342,4.6113-3.1791,5.9536-2.4571,2.1349-3.3922,2.2465-18.284,2.1823-8.6318-0.0372-16.63-0.52182-17.774-1.0769z" fill="#d1d1d1"/>
  <path d="m379.52,618.13c-9.4779-1.8603-21.061-11.799-24.181-20.748l-1.1042-3.1676-49.152-0.006c-30.739-0.003-50.546-0.39266-52.873-1.0389-6.7567-1.8765-8.8538-8.4319-4.3667-13.65l2.4128-2.8058,51.932-0.28394,51.932-0.28394,2.402-5.1284c9.5918-20.479,35.796-25.812,52.375-10.66,3.2406,2.9617,6.5752,7.2788,8.2385,10.666,2.3974,4.882,2.7928,6.8972,2.7845,14.19-0.0117,10.212-2.0708,15.499-8.8652,22.763-5.2072,5.5669-11.11,8.8119-18.619,10.236-5.9564,1.1296-6.7624,1.1244-12.917-0.0836zm15.109-18.535c6.5869-3.3651,10.235-12.506,7.8619-19.698-1.4879-4.5084-8.1723-10.635-11.813-10.828-12.837-0.67926-20.311,5.349-20.205,16.296,0.12116,12.572,12.792,20.035,24.156,14.229zm46.072-6.1976c-5.8812-0.83584-8.2466-9.9775-3.6894-14.259l2.5806-2.4243h26.506,26.506l2.4134,2.8058c4.967,5.7745,1.454,13.517-6.2911,13.865-7.1228,0.32027-45.789,0.33026-48.026,0.0124zm-135.43-68.51c-10.149-3.7919-16.853-9.911-20.912-19.087l-2.0257-4.5795h-15.376c-15.083,0-15.435-0.0493-18.453-2.5889-3.9762-3.3457-4.2362-8.3426-0.62218-11.957,2.4003-2.4003,2.8059-2.4546,18.363-2.4546h15.908l3.1793-6.458c5.5692-11.313,15.189-17.6,28.024-18.316,10.549-0.58813,17.579,2.1216,25.151,9.6936,20.748,20.748,7.3353,55.448-21.941,56.768-4.8208,0.21729-8.9873-0.15957-11.294-1.0216zm18.98-18.369c9.7816-7.2446,9.7114-20.401-0.14782-27.706-4.2035-3.1146-13.971-2.9518-18.543,0.30912-3.7676,2.6871-7.0782,9.0356-7.1115,13.637-0.0386,5.3356,3.961,11.696,8.978,14.277,5.4108,2.784,12.668,2.5607,16.824-0.51768zm42.676-6.4524c-5.1709-2.8282-6.1564-9.2798-2.0454-13.391l2.4545-2.4546h62.409,62.409l2.6364,2.6364c4.1873,4.1873,3.502,10.348-1.4352,12.901-2.394,1.238-12.181,1.4583-63.629,1.4326-42.073-0.021-61.416-0.36734-62.8-1.1243zm33.723-66.879c-5.5159-1.1242-13.226-5.3381-17.067-9.3271-1.6624-1.7268-4.5343-5.8396-6.382-9.1396l-3.3596-6-55.457-0.17002c-30.501-0.0935-58.29-0.20601-61.753-0.25-5.2896-0.0672-6.6876-0.47217-8.75-2.5345-3.1787-3.1787-3.1949-7.5731-0.0415-11.24l2.413-2.8058,62.045-0.27215,62.045-0.27216,2.6108-5.2278c4.8228-9.6571,12.271-15.693,22.644-18.351,15.76-4.0376,33.089,5.0136,38.794,20.263,2.7667,7.3947,2.7183,17.454-0.12044,25.041-5.2713,14.089-22.486,23.37-37.624,20.285zm16.529-19.79c7.968-5.6737,8.3751-19.999,0.73897-26.006-12.549-9.8707-30.62,1.4936-26.53,16.683,3.1023,11.521,16.103,16.22,25.791,9.3222zm44.532-4.9919c-2.4641-0.35037-7.2841-5.5192-7.2841-7.8113,0-2.9056,2.9595-7.1142,5.8424-8.3083,1.9901-0.82431,7.6752-1.1115,17.636-0.89085,14.696,0.32551,14.7,0.32617,17.11,3.1313,1.3847,1.6114,2.411,4.0784,2.411,5.7955,0,3.7779-3.9331,7.8628-7.7046,8.0018-8.2136,0.3027-26.091,0.35497-28.011,0.0819z" fill="#a5a5a5"/>
  <path d="m377.71,616.83c-10.138-3.3135-17.173-9.5775-21.342-19.004l-2.0142-4.5535-51.86-0.276c-49.382-0.2628-51.961-0.36702-53.965-2.181-3.1577-2.8586-2.8824-8.8378,0.53054-11.522,2.5879-2.0356,3.55-2.0726,53.953-2.0726h51.318l2.0659-4.6703c3.1666-7.1587,8.2253-12.618,15.194-16.396,5.8024-3.1459,7.047-3.434,14.834-3.434,7.0898,0,9.4125,0.43291,14,2.6094,6.8085,3.2301,12.191,8.4227,15.76,15.203,2.4181,4.5943,2.7303,6.2737,2.7303,14.687,0,8.35-0.32149,10.11-2.6557,14.54-3.2619,6.1906-10.427,12.95-16.643,15.699-5.8204,2.5746-16.229,3.2257-21.906,1.3702zm16.043-15.974c7.1611-2.9921,11.687-12.149,9.6834-19.59-2.159-8.018-8.6223-13.057-16.713-13.029-6.5524,0.0225-12.004,3.259-14.975,8.8908-2.8439,5.3908-2.9523,10.166-0.35265,15.536,3.8894,8.0343,13.93,11.714,22.356,8.193zm44.365-9.6623c-3.7812-2.9743-3.8107-8.9499-0.0588-11.901,2.5075-1.9724,3.8545-2.0726,27.865-2.0726,24.011,0,25.358,0.10019,27.865,2.0726,3.4122,2.684,3.6881,8.6634,0.53177,11.522-1.9338,1.7516-4.1721,1.9288-27.806,2.2012-24.9,0.28699-25.787,0.23004-28.397-1.8226zm-135.63-68.11c-6.9111-2.7281-14.399-10.118-17.611-17.38l-2.4265-5.4867h-15.824c-14.543,0-16.001-0.16512-18.013-2.039-2.8428-2.6484-2.9385-8.2111-0.18856-10.961,1.8236-1.8236,3.3449-2.0014,17.25-2.0153,8.3875-0.008,15.721-0.34592,16.297-0.75,0.57592-0.40408,2.2768-3.2819,3.7798-6.3952,9.3611-19.391,35.139-24.284,51.123-9.7029,10.842,9.891,13.942,24.416,8.1629,38.248-2.1351,5.1101-9.2923,12.414-15.072,15.382-7.1381,3.6648-19.706,4.1679-27.478,1.1001zm18.254-14.316c4.9831-1.7772,7.552-4.1491,9.8031-9.0512,2.3625-5.1447,2.3584-9.6437-0.0129-14.29-2.3389-4.5827-4.6106-6.6872-9.3609-8.672-4.8294-2.0179-8.3245-1.9124-13.429,0.40532-14.178,6.4371-12.471,27.534,2.5974,32.101,3.7771,1.1446,6.1222,1.0335,10.403-0.49309zm45.913-9.2205c-2.1566-0.86772-4.3183-6.1266-3.6359-8.8454,1.4167-5.6444-0.53082-5.4853,67.129-5.4853,60.944,0,62.32,0.0428,64.277,2,1.2381,1.2381,2,3.3333,2,5.5s-0.7619,4.2619-2,5.5c-1.9589,1.9589-3.2791,1.9984-64.25,1.921-34.238-0.0434-62.822-0.30907-63.521-0.59034zm30.039-68.225c-9.226-3.4288-16.725-10.499-19.87-18.735l-1.6527-4.3276-62.268-0.2719c-59.622-0.26034-62.357-0.35286-64.372-2.1769-2.8612-2.5899-2.8612-8.6001-0.00003-11.19,2.0089-1.8185,4.9236-1.9277,64.169-2.405l62.064-0.5,2.8069-5.4327c3.6902-7.1423,9.0844-12.54,15.856-15.866,4.6742-2.2958,6.7762-2.7,14-2.6917,10.028,0.0115,15.371,2.0258,22.29,8.4036,12.897,11.888,13.696,32.782,1.7731,46.362-7.7518,8.8288-23.825,12.908-34.795,8.831zm18.729-16.104c7.962-4.0619,11.225-14.726,7.0259-22.957-2.9346-5.7524-7.275-8.4045-14.48-8.8478-5.0775-0.31241-6.5977,0.005-9.5187,1.9896-5.5444,3.7663-8.0238,8.2505-8.0238,14.511,0,2.971,0.62893,6.618,1.3976,8.1045,4.2951,8.3058,15.018,11.577,23.599,7.1997zm44.503-8.1716c-5.0723-3.005-5.9721-8.4489-2.0454-12.376,2.3937-2.3937,2.8366-2.4546,17.865-2.4546,14.076,0,15.639,0.17945,18.045,2.0726,3.4114,2.6834,3.688,8.6629,0.53298,11.522-1.8418,1.6693-3.9759,1.9368-17.25,2.1625-10.311,0.17526-15.787-0.12087-17.148-0.92741z" fill="#6f6f6f"/>
  <path d="m376.13,615.83c-8.5925-3.1752-15.792-10.068-19.434-18.606-0.82118-1.925-2.005-3.8306-2.6307-4.2347-0.62569-0.40408-24.167-0.74158-52.315-0.75l-51.177-0.0153-2.0726-2.6349c-1.1399-1.4492-2.0726-3.4135-2.0726-4.3651,0-0.95166,0.93266-2.916,2.0726-4.3651l2.0726-2.6349,51.177-0.0153c28.148-0.008,51.649-0.34592,52.225-0.75,0.57592-0.40408,2.2768-3.2819,3.7798-6.3952,5.2594-10.895,14.591-16.942,27.173-17.609,10.283-0.54538,17.436,1.942,24.04,8.3602,13.165,12.795,13.392,33.744,0.50157,46.253-6.4165,6.227-12.133,8.5891-21.541,8.9007-5.0265,0.16648-9.4114-0.25658-11.797-1.1382zm17.043-14.144c7.7622-3.2432,11.726-9.7637,11.031-18.146-1.1542-13.918-18.078-21.136-28.37-12.1-4.7541,4.1742-6.4067,7.7297-6.4067,13.784,0,7.7996,3.6276,13.207,11.007,16.407,4.5037,1.9531,8.1577,1.9688,12.738,0.0548zm44.327-12.097c-2.7047-3.4385-2.6242-6.4983,0.24187-9.1908,2.2543-2.1178,2.9929-2.1743,28.427-2.1743h26.113l2.0726,2.6349c1.1399,1.4492,2.0726,3.4135,2.0726,4.3651,0,0.95166-0.93266,2.916-2.0726,4.3651l-2.0726,2.6349h-26.355-26.355l-2.0726-2.6349zm-129.63-65.25c-9.774-2.535-18.267-9.6759-22.409-18.841l-2.3284-5.1519-16.442-0.31536c-15.891-0.30479-16.506-0.39447-18.351-2.6761-2.5972-3.2111-2.3985-6.7411,0.54509-9.6847,2.3993-2.3993,2.8107-2.4546,18.284-2.4546h15.83l2.8461-5.9928c3.2741-6.8939,9.6304-13.22,16.41-16.331,7.0694-3.2446,18.836-3.0478,26.176,0.43776,6.9957,3.3223,12.563,8.8897,15.887,15.886,3.3349,7.02,3.6267,17.871,0.68573,25.497-2.5279,6.555-10.321,14.718-16.65,17.441-5.452,2.3454-15.665,3.4354-20.482,2.1861zm15.515-16.101c9.6889-4.9429,12.42-17.596,5.7005-26.407-7.3559-9.6441-23.07-8.5905-29.254,1.9613-8.8786,15.15,7.8144,32.475,23.554,24.446zm44.36-9.0179c-4.692-1.9157-5.636-7.775-1.8608-11.55l2.4545-2.4546h61.591,61.591l2.4545,2.4546c2.9442,2.9442,3.1422,6.4744,0.54328,9.6847l-1.9113,2.3608-61.339,0.19836c-34.165,0.11049-62.307-0.19678-63.523-0.69359zm26.185-69.826c-7.2054-3.5322-12.53-8.845-16.255-16.219l-2.7576-5.4594-62.333-0.5-62.333-0.5-1.9113-2.3608c-2.4549-3.0323-2.4147-5.2295,0.15537-8.4968l2.0666-2.6273,62.158-0.25754,62.158-0.25755,3.0257-5.8578c8.9035-17.238,27.322-23.789,43.758-15.565,18.752,9.3826,23.664,34.398,9.8394,50.104-2.1237,2.4126-6.2712,5.6996-9.2166,7.3045-4.4676,2.4342-6.7645,2.9773-13.855,3.2762-7.7679,0.32744-9.0168,0.10497-14.5-2.583zm18.601-12.313c4.7563-1.5869,9.5721-6.4424,11.565-11.66,3.0178-7.9019-0.95191-17.229-8.9883-21.12-15.317-7.4149-30.843,7.9422-23.772,23.513,3.6253,7.9827,12.896,12.036,21.195,9.267zm45.899-11.866c-2.5536-2.5536-2.6455-8.1059-0.17126-10.345,1.5422-1.3957,4.3508-1.655,17.927-1.655h16.099l2.0726,2.6349c2.7218,3.4602,2.6167,5.912-0.38197,8.9106-2.3955,2.3955-2.8283,2.4546-18,2.4546-14.212,0-15.717-0.17154-17.545-2z" fill="#4e4e4e"/>
  <path d="m377.75,615.84c-9.1322-2.9958-16.993-10.155-20.552-18.718l-2.0178-4.8554-52.458-0.27564c-50.605-0.2659-52.509-0.34422-53.877-2.2168-1.8165-2.485-1.8165-6.6328,0-9.1177,1.3688-1.8726,3.2722-1.9509,53.877-2.2168l52.458-0.27564,2.055-4.9448c2.7736-6.674,10.069-14.255,16.477-17.121,7.8695-3.5201,19.24-3.3522,26.874,0.39687,6.2183,3.0537,11.515,8.3085,15.043,14.925,1.9252,3.6101,2.2906,5.8101,2.2906,13.795,0,10.642-1.4843,14.662-8.1272,22.015-7.2234,7.9955-21.897,11.938-32.043,8.6094zm18.241-15.11c4.4128-2.586,9.4345-10.603,9.4345-15.062,0-6.3805-4.491-13.642-10.256-16.583-9.0363-4.61-20.685-0.6157-24.831,8.5143-7.3577,16.202,10.303,32.126,25.652,23.131zm44.435-9.2085c-4.4066-1.5749-5.5464-9.1094-1.7775-11.749,1.863-1.3049,6.1393-1.5567,26.435-1.5567,13.317,0,25.354,0.43408,26.75,0.96463,4.6828,1.7804,4.7298,9.7408,0.07,11.864-2.6056,1.1872-48.305,1.611-51.477,0.47746zm-136.72-68.95c-5.9947-2.1227-13.691-9.4521-17.512-16.678l-3.2623-6.1684-15.95-0.27641c-17.805-0.30855-19.55-0.90845-19.55-6.7236,0-5.8136,1.7465-6.415,19.525-6.7236l15.926-0.27641,3.027-5.8773c6.488-12.597,16.162-18.623,29.9-18.623,6.1383,0,8.275,0.48582,13.4,3.0468,11.2,5.5969,17.418,15.72,17.5,28.493,0.11642,18.066-13.709,31.597-32.065,31.381-3.6919-0.0434-8.6139-0.75223-10.938-1.5751zm18.225-13.242c10.266-4.7529,14.175-14.946,9.4648-24.677-5.5831-11.533-21.356-13.579-29.876-3.8756-8.6358,9.8356-4.786,24.585,7.5665,28.99,5.2,1.854,8.1098,1.755,12.845-0.43721zm44.03-12.071c-0.979-1.0818-1.78-3.1217-1.78-4.5331s0.80099-3.4514,1.78-4.5331c1.7336-1.9156,3.3992-1.9669,63.97-1.9669,58.979,0,62.275,0.0944,63.845,1.8287,2.1967,2.4273,2.1049,7.4541-0.17375,9.5163-1.6603,1.5025-7.5415,1.655-63.845,1.655-60.398,0-62.063-0.0513-63.796-1.9669zm32.756-66.421c-10.25-3.3557-16.876-9.3743-21.28-19.331l-1.8935-4.2806h-61.122c-69.029,0-66.937,0.24023-66.975-7.6933-0.0313-6.5259-2.3305-6.3067,66.156-6.3067h61.726l3.0432-6.3766c3.4281-7.1829,9.0275-12.796,15.937-15.976,3.5681-1.6423,6.5611-2.1266,13.122-2.1233,7.3194,0.004,9.2246,0.38426,13.717,2.7401,11.591,6.079,17.729,16.051,17.688,28.736-0.0179,5.5552-0.60652,8.8204-2.2698,12.592-2.7789,6.3015-10.098,13.637-16.359,16.397-6.0898,2.6838-15.971,3.4302-21.49,1.6233zm16.705-14.467c10.424-5.5905,13.28-19.211,5.8117-27.717-4.2028-4.7867-7.7426-6.4275-13.866-6.4275-10.218,0-18.167,7.8146-18.167,17.861,0,7.2233,4.7682,14.449,11.231,17.018,4.0887,1.6256,11.243,1.275,14.991-0.73454zm45.325-10.152c-4.7484-1.9132-5.6536-7.7952-1.6805-10.92,2.3972-1.8857,3.9755-2.0726,17.5-2.0726,13.532,0,15.045,0.17939,16.865,2,1.1,1.1,1.9931,3.2375,1.9847,4.75-0.0344,6.1863-2.9089,7.264-19.169,7.1866-7.3237-0.0349-14.299-0.45948-15.5-0.94359z" fill="#2e2e2e"/>
  <path d="m378.43,615.28c-9.0296-2.7566-16.582-9.6094-20.598-18.69l-2.3771-5.375h-51.821c-57.017,0-55.537,0.15988-55.537-6,0-6.1597-1.4778-6,55.514-6h51.799l2.8343-6.25c9.0241-19.899,33.745-24.984,50.014-10.286,16.488,14.896,10.616,43.615-10.536,51.528-5.4645,2.0445-14.469,2.5453-19.292,1.0729zm16.798-13.209c12.586-6.0927,13.851-24.766,2.2009-32.476-10.768-7.1261-25.706-1.6097-29.025,10.719-3.1486,11.693,6.2195,23.81,18.461,23.879,2.1638,0.0121,5.9274-0.94289,8.3634-2.1222zm43.202-12.856c-1.1-1.1-2-2.9-2-4s0.9-2.9,2-4c1.8946-1.8946,3.3333-2,27.309-2,28.095,0,29.024,0.19218,29.024,6s-0.92966,6-29.024,6c-23.976,0-25.414-0.10536-27.309-2zm-129.85-66.02c-9.197-1.9079-19.317-10.613-22.732-19.555-1.2372-3.2396-2.2506-4.4369-3.8011-4.491-1.1628-0.0405-8.5944-0.18755-16.515-0.32672-13.638-0.23963-14.498-0.37397-16.25-2.5371-2.4621-3.0405-2.3325-4.6704,0.60503-7.6079,2.3997-2.3997,2.8088-2.4546,18.316-2.4546h15.861l2.2053-5.3207c2.8606-6.9017,9.0669-13.281,16.074-16.523,7.6912-3.5581,18.351-3.6062,25.589-0.11553,6.3786,3.0765,13.064,9.7514,15.788,15.763,3.0164,6.6574,2.9668,18.906-0.10217,25.227-3.5261,7.2627-7.793,11.654-14.471,14.893-6.9185,3.3559-14.014,4.4075-20.568,3.048zm16.276-14.374c6.908-4.0484,10.621-13.009,8.5604-20.66-2.3643-8.7802-9.4049-14.224-18.397-14.224-19.492,0-25.884,26.677-8.5152,35.534,5.1012,2.6012,13.299,2.3106,18.352-0.65039zm44.802-10.376c-2.9484-0.47673-5.5905-4.4965-4.7324-7.1999,1.6403-5.1681,0.55244-5.089,65.955-4.7952l60.729,0.27286,1.9113,2.3608c2.4,2.9645,2.4,4.3141-0.00032,7.2784l-1.9116,2.3608-59.838,0.045c-32.911,0.0248-60.862-0.12049-62.113-0.32278zm27.267-69.019c-8.7119-3.0126-14.567-8.7269-19.164-18.703l-1.8432-4-62.693-0.5c-39.801-0.31743-63.05-0.86514-63.672-1.5-1.8644-1.9048-2.2421-5.9555-0.74586-8,1.4298-1.9537,2.9153-2.0116,64.21-2.5l62.747-0.5,3.2434-6.3505c6.0913-11.927,13.896-17.229,26.387-17.925,9.7945-0.54601,17.172,2.067,23.389,8.2842,6.8726,6.8726,9.0978,12.366,9.1105,22.491,0.009,7.2948-0.36951,9.2242-2.6701,13.608-7.4013,14.102-23.574,20.688-38.299,15.595zm17.276-11.751c4.9415-2.0647,8.1072-5.1113,10.341-9.9523,2.4698-5.3514,2.358-10.16-0.35996-15.48-3.3503-6.5575-8.5448-10.255-15.179-10.806-10.648-0.88299-19.332,6.246-20.336,16.694-0.62105,6.4634,1.0073,10.963,5.5308,15.283,5.9892,5.72,12.958,7.2046,20.003,4.2612zm45.454-13.009c-2.744-1.922-2.9481-6.4766-0.39377-8.7883,1.5258-1.3808,4.2459-1.655,16.418-1.655,8.0242,0,15.336,0.28637,16.248,0.63638,3.7189,1.4271,3.7857,8.141,0.10548,10.598-0.60517,0.40408-7.6377,0.74158-15.628,0.75-11.548,0.0122-14.983-0.30392-16.75-1.5414z" fill="#daa302"/>
 </g>
</svg>
