<?xml version="1.0" encoding="UTF-8" standalone="no"?>
<svg
   xmlns:dc="http://purl.org/dc/elements/1.1/"
   xmlns:cc="http://creativecommons.org/ns#"
   xmlns:rdf="http://www.w3.org/1999/02/22-rdf-syntax-ns#"
   xmlns:svg="http://www.w3.org/2000/svg"
   xmlns="http://www.w3.org/2000/svg"
   id="svg22720"
   version="1.1"
   viewBox="0 0 24 24"
   height="24"
   width="24">
  <metadata
     id="metadata22726">
    <rdf:RDF>
      <cc:Work
         rdf:about="">
        <dc:format>image/svg+xml</dc:format>
        <dc:type
           rdf:resource="http://purl.org/dc/dcmitype/StillImage" />
        <dc:title></dc:title>
      </cc:Work>
    </rdf:RDF>
  </metadata>
  <defs
     id="defs22724" />
  <g
     id="g23294">
    <g
       id="g23290">
      <path
         style="fill:#d10000;fill-opacity:1"
         id="path22718"
         d="M12 2c5.514 0 10 4.486 10 10s-4.486 10-10 10-10-4.486-10-10 4.486-10 10-10zm0-2c-6.627 0-12 5.373-12 12s5.373 12 12 12 12-5.373 12-12-5.373-12-12-12zm-1.141 16.566l1.081-6.964 1.104 4.742c.109.486.784.541.968.073l1.001-2.557.934 2.176c.155.361.644.417.876.1l.85-1.156h1.837c.271 0 .49-.22.49-.49s-.22-.49-.49-.49h-2.099c-.162 0-.315.078-.41.208l-.472.611-1.071-2.496c-.179-.417-.773-.408-.939.016l-.848 2.168-1.308-6.102c-.123-.548-.907-.517-.996.03l-1.084 7-1.108-4.118c-.124-.492-.818-.52-.975-.032l-.825 2.715h-2.885c-.27 0-.49.22-.49.49s.22.49.49.49h3.284c.184 0 .382-.148.434-.324l.411-1.387 1.247 5.338c.135.537.905.501.993-.041z" />
    </g>
  </g>
</svg>
