<?xml version="1.0" encoding="utf-8"?>
<!-- Generator: Adobe Illustrator 16.0.4, SVG Export Plug-In . SVG Version: 6.00 Build 0)  -->
<!DOCTYPE svg PUBLIC "-//W3C//DTD SVG 1.1//EN" "http://www.w3.org/Graphics/SVG/1.1/DTD/svg11.dtd">
<svg version="1.1" id="Layer_1" xmlns="http://www.w3.org/2000/svg" xmlns:xlink="http://www.w3.org/1999/xlink" x="0px" y="0px"
	 width="100px" height="100px" viewBox="0 0 100 100" enable-background="new 0 0 100 100" xml:space="preserve">
<g>
	<path fill="#9A9C9F" d="M83.792,51.784h-3.11v6.847h-0.603v-8.644c0-1.579,1.364-2.298,2.507-2.298h1.206v0.563h-1.206
		c-0.889,0-1.904,0.562-1.904,1.891v1.08h3.11V51.784z"/>
	<path fill="#9A9C9F" d="M88.963,58.631v-4.907c0-1.407-0.968-2.096-1.951-2.096c-0.968,0-1.951,0.688-1.951,2.096v4.907h-0.604
		v-4.907c0-1.721,1.143-2.658,2.555-2.658c1.19,0,1.92,0.532,2.236,1.454h0.032c0.317-0.922,1.047-1.454,2.237-1.454
		c1.412,0,2.555,0.938,2.555,2.658v4.907h-0.604v-4.907c0-1.407-0.983-2.096-1.951-2.096c-0.983,0-1.951,0.688-1.951,2.096v4.907
		H88.963z"/>
</g>
<g>
	<path fill="#6CE5CF" stroke="#6CE5CF" stroke-width="0.4787" stroke-miterlimit="10" d="M3.987,57.366h7.214
		c2.825,0,3.914-1.089,3.914-2.723c0-5.376-11.162-4.992-11.162-11.016c0-2.11,1.464-3.913,4.118-3.913h87.374v1.226H8.172
		c-1.395,0-2.791,0.885-2.791,2.654c0,4.764,11.163,4.481,11.163,10.847c0,2.824-2.076,4.151-5.649,4.151H3.987V57.366z"/>
	<path fill="#6CE5CF" stroke="#6CE5CF" stroke-width="0.4787" stroke-miterlimit="10" d="M35.428,50.526
		c0,4.56-3.539,8.405-8.167,8.405c-4.628,0-8.167-3.846-8.167-8.405c0-4.561,3.539-8.406,8.167-8.406
		C31.889,42.12,35.428,45.966,35.428,50.526z M20.455,50.526c0,3.743,2.859,7.18,6.807,7.18s6.806-3.437,6.806-7.18
		c0-3.744-2.859-7.181-6.806-7.181S20.455,46.783,20.455,50.526z"/>
	<path fill="#6CE5CF" stroke="#6CE5CF" stroke-width="0.4787" stroke-miterlimit="10" d="M48.357,58.592V47.905
		c0-3.062-2.076-4.56-4.186-4.56c-2.076,0-4.186,1.498-4.186,4.56v10.687h-1.293V47.905c0-3.743,2.45-5.785,5.479-5.785
		c2.553,0,4.118,1.157,4.798,3.166h0.068c0.68-2.009,2.246-3.166,4.798-3.166c3.029,0,5.479,2.042,5.479,5.785v10.687h-1.293V47.905
		c0-3.062-2.109-4.56-4.186-4.56c-2.109,0-4.186,1.498-4.186,4.56v10.687H48.357z"/>
	<path fill="#6CE5CF" stroke="#6CE5CF" stroke-width="0.4787" stroke-miterlimit="10" d="M76.871,58.592v-8.065
		c0-3.744-2.688-7.181-6.568-7.181c-3.267,0-6.499,3.029-6.499,7.181c0,4.151,3.232,7.18,6.499,7.18
		c2.144,0,3.642-0.884,5.037-2.349v1.532c-0.987,0.816-2.553,2.042-5.037,2.042c-4.39,0-7.86-3.539-7.86-8.405
		c0-4.867,3.471-8.406,7.86-8.406c4.391,0,7.862,3.54,7.862,8.406v8.065H76.871z"/>
</g>
<rect x="3.75" y="60.441" fill="#9A9C9F" width="92.75" height="0.951"/>
</svg>
