<?xml version="1.0" encoding="UTF-8" standalone="no"?>
<!-- Generator: Adobe Illustrator 16.0.4, SVG Export Plug-In . SVG Version: 6.00 Build 0)  -->
<svg id="Capa_1" xmlns:rdf="http://www.w3.org/1999/02/22-rdf-syntax-ns#" xmlns="http://www.w3.org/2000/svg" version="1.1" xml:space="preserve" height="512px" viewBox="0 0 512 512" width="512px" enable-background="new 0 0 512 512" y="0px" x="0px" xmlns:cc="http://creativecommons.org/ns#" xmlns:dc="http://purl.org/dc/elements/1.1/"><defs id="defs7"><filter id="filter3997" color-interpolation-filters="sRGB"><feGaussianBlur id="feGaussianBlur3999" stdDeviation="6" result="result0" in="SourceAlpha"/><feSpecularLighting id="feSpecularLighting4001" lighting-color="rgb(255,255,255)" specularConstant="1" result="result1" specularExponent="25" in="result0" surfaceScale="10"><feDistantLight id="feDistantLight4003" elevation="45" azimuth="235"/></feSpecularLighting><feComposite id="feComposite4005" in2="result1" k3="1" k2="1" result="result4" in="SourceGraphic" operator="arithmetic"/><feComposite id="feComposite4007" operator="in" result="result2" in2="SourceAlpha" in="result4"/></filter></defs><metadata id="metadata9"><rdf:RDF><cc:Work rdf:about=""><dc:format>image/svg+xml</dc:format><dc:type rdf:resource="http://purl.org/dc/dcmitype/StillImage"/><dc:title/></cc:Work></rdf:RDF></metadata><path id="path3" filter="url(#filter3997)" fill="#00A" d="M256,0c-137.19,0-249.18,107.91-255.69,243.5,6.0255-117.89,96.714-211.5,207.69-211.5,114.88,0,208,100.29,208,224,0,26.51,21.49,48,48,48s48-21.49,48-48c0-141.38-114.62-256-256-256zm-208,208c-26.51,0-48,21.49-48,48,0,141.38,114.62,256,256,256,137.19,0,249.18-107.91,255.69-243.5-6.03,117.89-96.71,211.5-207.69,211.5-114.88,0-208-100.29-208-224,0-26.51-21.49-48-48-48z"/></svg>
