<?xml version="1.0" encoding="UTF-8" standalone="no"?>
<svg id="Layer_1" xmlns:rdf="http://www.w3.org/1999/02/22-rdf-syntax-ns#" xmlns="http://www.w3.org/2000/svg" version="1.0" xml:space="preserve" height="32px" viewBox="0 0 32 32" width="32px" enable-background="new 0 0 32 32" xmlns:cc="http://creativecommons.org/ns#" xmlns:dc="http://purl.org/dc/elements/1.1/"><metadata id="metadata25"><rdf:RDF><cc:Work rdf:about=""><dc:format>image/svg+xml</dc:format><dc:type rdf:resource="http://purl.org/dc/dcmitype/StillImage"/><dc:title/></cc:Work></rdf:RDF></metadata><g id="g3" fill="#78B842"><path id="path5" d="M15.999-0.003c-8.839,0-16.002,7.165-16.002,16.002,0,4.223,1.648,8.053,4.321,10.911,1.058-1.248,2.328-2.259,3.788-2.997,1.714-0.869,3.559-1.309,5.487-1.309,3.061,0,5.986,1.143,8.238,3.219,1.137,1.049,2.049,2.288,2.72,3.685,4.472-2.839,7.449-7.82,7.449-13.509,0-8.837-7.164-16.002-16.001-16.002zm7.577,22.216c-0.208,0.299-0.542,0.458-0.879,0.458-0.209,0-0.421-0.061-0.606-0.189-2.506-1.738-5.445-2.654-8.497-2.654-1.767,0-3.495,0.303-5.138,0.906-0.553,0.202-1.166-0.082-1.368-0.635-0.203-0.554,0.08-1.167,0.635-1.369,1.878-0.688,3.854-1.038,5.871-1.038,3.49,0,6.848,1.051,9.712,3.038,0.484,0.334,0.604,0.999,0.27,1.483zm2.327-4.919c-0.23,0.363-0.619,0.563-1.021,0.563-0.217,0-0.438-0.059-0.635-0.183-3.191-1.995-6.875-3.05-10.654-3.05-2.1,0-4.171,0.324-6.159,0.961-0.628,0.202-1.305-0.146-1.506-0.776-0.204-0.632,0.144-1.308,0.775-1.51,2.222-0.713,4.541-1.074,6.89-1.074,4.229,0,8.353,1.18,11.926,3.413,0.563,0.353,0.735,1.093,0.384,1.656zm1.174-4.269c-0.228,0-0.461-0.06-0.675-0.184-3.869-2.273-8.3-3.475-12.809-3.475-2.438,0-4.852,0.347-7.174,1.029-0.705,0.21-1.447-0.195-1.655-0.901-0.206-0.705,0.198-1.446,0.903-1.655,2.567-0.755,5.233-1.139,7.927-1.139,4.983,0,9.881,1.328,14.161,3.841,0.635,0.373,0.846,1.19,0.475,1.826-0.25,0.422-0.695,0.658-1.153,0.658z"/><path id="path7" d="M13.594,28.249c-1.031,0-2.02,0.234-2.937,0.699-0.68,0.347-1.285,0.801-1.803,1.354,2.152,1.077,4.574,1.698,7.145,1.698,1.135,0,2.244-0.123,3.314-0.347-0.344-0.629-0.781-1.192-1.309-1.68-1.205-1.112-2.772-1.724-4.41-1.724z"/></g></svg>
