<?xml version="1.0" encoding="UTF-8" standalone="no"?>
<!-- Created with Inkscape (http://www.inkscape.org/) -->
<svg id="svg4248" xmlns:rdf="http://www.w3.org/1999/02/22-rdf-syntax-ns#" xmlns="http://www.w3.org/2000/svg" height="498" width="498.04" version="1.0" xmlns:cc="http://creativecommons.org/ns#" xmlns:xlink="http://www.w3.org/1999/xlink" xmlns:dc="http://purl.org/dc/elements/1.1/">
 <defs id="defs4250">
  <linearGradient id="linearGradient4226" y2="327.81" gradientUnits="userSpaceOnUse" x2="358.85" y1="336.37" x1="350.72">
   <stop id="stop4193" stop-color="#000" offset="0"/>
   <stop id="stop4195" stop-color="#000" stop-opacity="0" offset="1"/>
  </linearGradient>
  <linearGradient id="linearGradient4224" y2="145.34" xlink:href="#linearGradient1045" gradientUnits="userSpaceOnUse" x2="103.69" gradientTransform="matrix(1.0181639,-0.03179448,0.0306403,0.9812034,248.50031,191.28893)" y1="138.24" x1="110.05"/>
  <linearGradient id="linearGradient4222" y2="167.94" xlink:href="#linearGradient1045" gradientUnits="userSpaceOnUse" x2="54.322" gradientTransform="matrix(1.1879329,-0.03526444,0.02518942,0.7668232,265.95849,191.03645)" y1="103.57" x1="42.498"/>
  <linearGradient id="linearGradient1045">
   <stop id="stop1046" stop-color="#FFF" stop-opacity="0.74901962" offset="0"/>
   <stop id="stop1047" stop-color="#FFF" stop-opacity="0.00000000" offset="1"/>
  </linearGradient>
  <linearGradient id="linearGradient4220" y2="111.24" xlink:href="#linearGradient1045" gradientUnits="userSpaceOnUse" x2="60.491" gradientTransform="matrix(1.1481635,-0.03408387,0.03066403,0.9334827,252.4323,191.06145)" y1="84.017" x1="57.668"/>
  <radialGradient id="radialGradient4218" fx="69.987" fy="90.419" gradientUnits="userSpaceOnUse" cy="105.94" cx="61.564" gradientTransform="matrix(1.1767241,-0.06570592,0.06229194,1.0081481,242.27164,193.29801)" r="27.959">
   <stop id="stop1440" stop-color="#FFF" stop-opacity="0.5704698" offset="0"/>
   <stop id="stop1441" stop-color="#96b0c6" stop-opacity="0.89932889" offset="1"/>
  </radialGradient>
  <filter id="filter4141" color-interpolation-filters="sRGB">
   <feGaussianBlur id="feGaussianBlur4143" stdDeviation="1.0889941"/>
  </filter>
  <linearGradient id="linearGradient4216" y2="339.37" gradientUnits="userSpaceOnUse" x2="308.88" gradientTransform="translate(-15.844294,-42.822415)" y1="418.59" x1="427.8">
   <stop id="stop4147" stop-color="#000" offset="0"/>
   <stop id="stop4149" stop-color="#000" stop-opacity="0" offset="1"/>
  </linearGradient>
 </defs>
 <metadata id="metadata4253">
  <rdf:RDF>
   <cc:Work rdf:about="">
    <dc:format>image/svg+xml</dc:format>
    <dc:type rdf:resource="http://purl.org/dc/dcmitype/StillImage"/>
    <dc:title/>
    <dc:date/>
    <dc:creator>
     <cc:Agent>
      <dc:title/>
     </cc:Agent>
    </dc:creator>
    <dc:rights>
     <cc:Agent>
      <dc:title/>
     </cc:Agent>
    </dc:rights>
    <dc:publisher>
     <cc:Agent>
      <dc:title/>
     </cc:Agent>
    </dc:publisher>
    <dc:identifier/>
    <dc:source/>
    <dc:relation/>
    <dc:language/>
    <dc:subject>
     <rdf:Bag/>
    </dc:subject>
    <dc:coverage/>
    <dc:description/>
    <dc:contributor>
     <cc:Agent>
      <dc:title/>
     </cc:Agent>
    </dc:contributor>
    <cc:license rdf:resource=""/>
   </cc:Work>
  </rdf:RDF>
 </metadata>
 <g id="layer1" transform="translate(-38.627643,-27.657119)">
  <g id="g4206" transform="matrix(5.8473623,0,0,5.8473623,-1659.5986,-1536.5825)">
   <path id="path4039" d="m316.07,281.98c-0.43848,0.0486-0.86293,0.0963-1.3033,0.16735-14.091,2.2736-23.673,15.315-21.394,29.118,2.2785,13.804,15.553,23.187,29.644,20.913,5.324-0.85901,9.9974-3.2451,13.637-6.6441l29.694,21.536c3.1211-0.43375,5.3252-2.5465,6.6369-6.3641l-31.28-21.377-0.60163,0.70667c2.9989-4.9494,4.3139-10.898,3.3056-17.007-2.2073-13.372-14.746-22.554-28.338-21.049zm0.11619,1.0566c13.018-1.4415,25.056,7.3638,27.17,20.171,2.1822,13.221-8.3072,25.742-21.803,27.919-13.496,2.1775-24.913-6.7908-27.096-20.011-2.1822-13.221,6.9914-25.739,20.488-27.917,0.42175-0.0681,0.82103-0.11586,1.241-0.16234z" fill-rule="evenodd" filter="url(#filter4141)" stroke-width="0.5" fill="url(#linearGradient4216)"/>
   <path id="path852" d="m344.17,310.53,29.617,27.048c-1.8924,3.876-4.5006,5.8091-7.81,5.8386l-28.02-27.098,6.2131-5.7887z" fill-rule="evenodd" stroke-width="0.5" fill="#807d74"/>
   <path id="path4204" d="m344.99,308.54c-25.578,26.694-58.357-3.9253-41.04-28.541-22.474,26.707,17.052,59.24,41.04,28.541z" fill-opacity="0.99607843" fill-rule="nonzero" fill="#273f57"/>
   <path id="path853" d="m349.3,294.36c0.43574,13.265-10.536,24.367-24.49,24.781-13.954,0.41424-25.633-10.015-26.068-23.281-0.43574-13.265,10.536-24.367,24.49-24.781,13.954-0.41424,25.633,10.015,26.068,23.281z" stroke-opacity="0.99523806" fill-rule="evenodd" stroke="#314e6c" stroke-miterlimit="4" stroke-dasharray="none" stroke-width="1.13486826" fill="url(#radialGradient4218)"/>
   <path id="path863" d="m334.58,277.67c3.5711,4.2824-0.18987,12.776-8.395,18.96-8.2052,6.1834-17.763,7.7262-21.334,3.4438-3.5711-4.2824,0.18987-12.776,8.3951-18.96,8.2052-6.1834,17.763-7.7263,21.334-3.4438z" fill-opacity="0.09090905" fill-rule="evenodd" stroke-width="1pt" fill="url(#linearGradient4220)"/>
   <path id="path885" d="m310.11,312.32c14.494,4.309,31.856-4.4673,36.424-18.217,4.4147,12.575-23.28,39.532-36.424,18.217z" fill-rule="evenodd" fill-opacity="0.55208333" stroke-width="1pt" fill="url(#linearGradient4222)"/>
   <path id="path1766" d="m339.59,316.19,4.6224-4.3825,27.972,25.693c1.2331,3.3285-0.44562,5.6816-6.1006,4.8803l-26.493-26.19z" fill-opacity="0.75" fill-rule="evenodd" fill="url(#linearGradient4224)"/>
   <path id="path4187" d="m338.94,316.82,4.6224-4.3825,27.972,25.693c1.2331,3.3285-0.44562,5.6816-6.1006,4.8803l-26.49-26.19z" fill-rule="evenodd" fill="url(#linearGradient4226)"/>
  </g>
 </g>
</svg>
