<?xml version="1.0" encoding="UTF-8" standalone="no"?>
<!-- Generator: Adobe Illustrator 13.0.2, SVG Export Plug-In . SVG Version: 6.00 Build 14948)  -->
<svg id="Layer_1" xmlns:rdf="http://www.w3.org/1999/02/22-rdf-syntax-ns#" style="enable-background:new 0 0 141.734 141.734;" xmlns="http://www.w3.org/2000/svg" xml:space="preserve" viewBox="0 0 141.734 141.734" height="141.73px" width="141.73px" version="1.1" y="0px" x="0px" xmlns:cc="http://creativecommons.org/ns#" xmlns:dc="http://purl.org/dc/elements/1.1/"><metadata id="metadata14"><rdf:RDF><cc:Work rdf:about=""><dc:format>image/svg+xml</dc:format><dc:type rdf:resource="http://purl.org/dc/dcmitype/StillImage"/><dc:title/></cc:Work></rdf:RDF></metadata><g id="g2651" transform="translate(305.72092,324.84293)"><g id="g2653" transform="translate(-11.519578,-11.519383)"><path id="path2655" fill="#010101" d="M-221.26-171.62c39.121-1.146,69.906-33.791,68.76-72.912s-33.791-69.906-72.911-68.76c-39.121,1.146-69.906,33.791-68.761,72.911,1.15,39.12,33.79,69.91,72.91,68.76z"/><path id="path2657" d="M-221.43-175.92c36.773-1.075,65.711-31.763,64.633-68.535-1.076-36.774-31.762-65.714-68.537-64.636-36.772,1.078-65.711,31.765-64.633,68.537,1.08,36.78,31.76,65.72,68.54,64.64z" stroke="#FFF" stroke-width="3" fill="#405FAB"/></g><g id="g2659" transform="translate(-11.519578,-11.519383)"><path id="path2661" fill="#FFF" d="M-204.66-285.5c6.937,3.42,13.681,7.601,19.57,13.016,0,4.18-2.09,9.5,0,13.49-0.188,2.09-3.135,2.85-2.09,5.225,0.57,1.994,3.324,2.47,4.561,3.896,6.841,6.176,1.898,14.819,1.425,22.8-0.476,4.273-2.187,8.93-6.365,10.925-4.844,0.19-9.594,0.95-12.824,4.561-1.426,8.074-9.881,11.494-15.01,16.814-5.795-0.665-11.305-0.285-17.101-1.14-2.944-1.521-4.561-4.37-7.125-5.892-5.227-2.47-4.561-8.17-6.842-12.54-1.805-0.475-3.42-1.425-3.42-3.608-4.084-2.852-10.639-0.665-13.395-5.7-3.23-5.89-2.09-13.396-3.705-19.38-0.57-3.324,0.096-5.414,1.141-8.455,2.09-2.66,5.892-3.135,8.267-5.225,0.663-1.141,0.567-1.9,0.475-3.04-1.141-0.854-1.805-1.995-1.9-3.421,0-1.14,1.142-1.71,1.427-2.659,1.424-4.466-3.611-11.78,4.084-13.489,11.495-7.315,24.416-10.545,38.76-8.646,2.85,1.32,6.65,1.7,10.07,2.46z"/><path id="path2663" fill="#405FAB" d="M-202-280.65c2.756,0.664,4.275,2.563,6.65,4.084-2.187,0.854-4.18-1.329-6.176-2.564-9.404-3.515-20.234-5.698-30.306-3.42-3.135-0.188-5.225,1.33-8.455,1.615-1.426,0.855-3.038,1.14-4.561,1.615v-1.142c8.646-4.085,17.291-5.51,27.361-4.75,5.81-0.76,10.08,3.71,15.5,4.56z"/><path id="path2665" fill="#405FAB" d="M-192.88-272c1.426,1.71,5.416,1.806,3.705,4.75-0.285,2.564,0.76,5.131-1.615,7.314-2.469-0.949-0.094-3.324-1.139-5.51-0.381-2.186-1.426-4.465-3.23-5.699l-0.188,3.039-5.035-4.561c-2.85-0.284-5.604-3.04-8.455-1.425,0.379,0.855,1.234,1.995,0.285,2.755-1.996,0.285-3.705-2.943-5.035,0-1.233-0.285-3.041,0.761-3.608-0.949-5.416-0.096-9.121-4.275-13.968-5.699-4.084,2.66-9.119,6.27-14.817,4.844-0.57,0.19-1.775,0.904-1.965,1.664,0.948,1.045-0.222,1.092-0.507,1.947-1.52,0-0.664-5.32-2.563-2.281-0.096,3.326-0.855,7.125,0.76,10.261h0.379c2.66-2.755,1.521-7.505,5.035-9.595l7.125-0.19c2.853-1.234,4.941-4.845,8.361-4.085,3.608,2.66,7.885,4.465,12.16,5.892,1.139-0.19,2.469,0.664,2.657-0.855,0,1.805,2.853,1.33,4.183,1.14,1.709-2.375,7.313,2.852,4.75-1.898-0.191-0.666,0.285-1.426,0.949-1.521,2.563,0.95,4.938,3.325,6.84,4.94,2.563,2.755,1.996,8.55,6.555,9.119,0.475,0.761,1.141,1.426,1.141,2.28-1.614,1.046-3.041-1.806-4.274-0.19,0,5.416-0.76,10.736-2.09,16.15-2.945,0.476-1.521,3.896-2.472,5.699,2.375,3.136-0.094,6.841-0.282,10.545-1.996,3.989-4.183,8.171-4.562,12.539-2.565,5.605-7.6,9.69-12.729,13.396-4.275,0.285-9.597-0.476-14.154-0.19-3.705-0.854-4.371-5.225-7.791-6.363-3.135-2.472-2.945-7.315-5.414-10.262-0.381-7.22-4.656-12.823-4.371-20.329,1.996-1.614,1.141-4.845,0.666-6.84l-1.805-1.805c-1.142-4.94,0.664-11.211-1.615-15.771-1.141-0.095-1.805,1.9-2.945,0.477,0.949-1.711,1.234-4.086-0.188-5.7,0.285-2.851-2.375-7.601,1.805-8.835,10.734-4.37,22.705-7.885,35.34-5.7,8.75,0.75,16.54,3.22,24.14,7.5z"/></g></g></svg>
