<?xml version="1.0" encoding="UTF-8" standalone="no"?>
<svg
   xmlns:dc="http://purl.org/dc/elements/1.1/"
   xmlns:cc="http://creativecommons.org/ns#"
   xmlns:rdf="http://www.w3.org/1999/02/22-rdf-syntax-ns#"
   xmlns:svg="http://www.w3.org/2000/svg"
   xmlns="http://www.w3.org/2000/svg"
   id="svg2933"
   version="1.1"
   viewBox="0 0 26 26"
   height="26"
   width="26">
  <metadata
     id="metadata2939">
    <rdf:RDF>
      <cc:Work
         rdf:about="">
        <dc:format>image/svg+xml</dc:format>
        <dc:type
           rdf:resource="http://purl.org/dc/dcmitype/StillImage" />
        <dc:title></dc:title>
      </cc:Work>
    </rdf:RDF>
  </metadata>
  <defs
     id="defs2937" />
  <path
     style="fill:#facc26;fill-opacity:1"
     id="path2931"
     d="M 8 0 C 5.795 0 4 1.795 4 4 L 4 11 L 1 11 C 0.449 11 0 11.449 0 12 L 0 18 C 0 18.551 0.449 19 1 19 L 4 19 L 4 22 C 4 24.205 5.795 26 8 26 L 20 26 C 22.205 26 24 24.205 24 22 L 24 8 C 24 6.938 23.02725 5.92975 21.28125 4.21875 C 21.03725 3.97875 20.77725 3.71675 20.53125 3.46875 C 20.28325 3.22275 20.02125 2.994 19.78125 2.75 C 18.06925 1.003 17.063 0 16 0 L 8 0 z M 8 2 L 15.28125 2 C 16.00225 2.184 16 3.0505 16 3.9375 L 16 7 C 16 7.551 16.449 8 17 8 L 20 8 C 20.998 8 22 8.005 22 9 L 22 12 C 22 11.449 21.551 11 21 11 L 6 11 L 6 4 C 6 2.896 6.896 2 8 2 z M 1.21875 11.9375 L 2.46875 11.9375 C 2.54775 11.9375 2.612 12.01675 2.625 12.09375 L 3 14.46875 C 3.054 14.80375 3.10525 15.13375 3.15625 15.46875 C 3.21225 15.13175 3.27875 14.7885 3.34375 14.4375 L 3.78125 12.09375 C 3.79525 12.01775 3.8595 11.9375 3.9375 11.9375 L 5.1875 11.9375 C 5.2645 11.9375 5.33275 12.01775 5.34375 12.09375 L 5.75 14.53125 C 5.798 14.80625 5.835 15.06275 5.875 15.34375 C 5.898 15.19375 5.94475 15.029 5.96875 14.875 L 6.03125 14.4375 L 6.4375 12.09375 C 6.4515 12.01775 6.51575 11.9375 6.59375 11.9375 L 7.78125 11.9375 C 7.83125 11.9375 7.87625 11.961 7.90625 12 C 7.93625 12.039 7.9485 12.10925 7.9375 12.15625 L 6.625 17.90625 C 6.608 17.97925 6.54375 18.03125 6.46875 18.03125 L 5.1875 18.03125 C 5.1095 18.03125 5.04325 17.98325 5.03125 17.90625 L 4.59375 15.4375 C 4.55275 15.1955 4.534 14.97 4.5 14.75 C 4.461 14.984 4.39375 15.2075 4.34375 15.4375 L 3.875 17.90625 C 3.86 17.98225 3.79575 18.03125 3.71875 18.03125 L 2.4375 18.03125 C 2.3615 18.03125 2.29625 17.98125 2.28125 17.90625 L 1.0625 12.15625 C 1.0525 12.10925 1.06275 12.037 1.09375 12 C 1.12375 11.962 1.17075 11.9375 1.21875 11.9375 z M 9.46875 11.9375 L 11.03125 11.9375 C 11.10325 11.9375 11.1695 11.9925 11.1875 12.0625 L 11.6875 14 C 11.8015 14.452 11.91 14.925 12 15.375 C 12.112 14.879 12.23175 14.405 12.34375 14 L 12.875 12.0625 C 12.895 11.9945 12.95825 11.9375 13.03125 11.9375 L 14.5625 11.9375 C 14.6475 11.9375 14.71575 12.00675 14.71875 12.09375 L 15 17.8125 C 15.007 17.8305 15 17.855 15 17.875 C 15.001 17.964 14.93175 18.03125 14.84375 18.03125 L 13.71875 18.03125 C 13.63175 18.03125 13.5655 17.99225 13.5625 17.90625 L 13.46875 15.6875 C 13.45775 15.3445 13.4475 14.928 13.4375 14.5 C 13.3415 14.873 13.224 15.26175 13.125 15.59375 L 12.5 17.84375 C 12.48 17.91275 12.41675 17.9375 12.34375 17.9375 L 11.4375 17.9375 C 11.3645 17.9375 11.29825 17.91475 11.28125 17.84375 L 10.75 15.59375 C 10.68 15.30875 10.59925 15.0125 10.53125 14.6875 C 10.51725 15.0445 10.513 15.3715 10.5 15.6875 L 10.375 17.90625 C 10.372 17.99325 10.30475 18.03125 10.21875 18.03125 L 9.15625 18.03125 C 9.11225 18.03125 9.06125 18.032 9.03125 18 C 9.00125 17.968 8.997 17.919 9 17.875 L 9.3125 12.09375 C 9.3165 12.00775 9.38275 11.9375 9.46875 11.9375 z M 17.71875 11.9375 L 19.25 11.9375 C 19.322 11.9375 19.38625 11.9935 19.40625 12.0625 L 21 17.78125 C 21.017 17.80825 21.03125 17.843 21.03125 17.875 C 21.03225 17.965 20.93375 18.03125 20.84375 18.03125 L 19.59375 18.03125 C 19.51975 18.03125 19.4555 18.0075 19.4375 17.9375 L 19.0625 16.5625 L 17.84375 16.5625 L 17.5 17.9375 C 17.482 18.0095 17.41875 18.03125 17.34375 18.03125 L 16.15625 18.03125 C 16.10525 18.03125 16.03 18.00775 16 17.96875 C 15.97 17.92875 15.985 17.89175 16 17.84375 L 17.5625 12.0625 C 17.5825 11.9935 17.64575 11.9375 17.71875 11.9375 z M 18.4375 13.8125 C 18.4075 13.9625 18.37575 14.121 18.34375 14.25 L 18.09375 15.25 L 18.8125 15.25 L 18.53125 14.25 C 18.49625 14.119 18.4735 13.9625 18.4375 13.8125 z M 22 18 L 22 22 C 22 23.104 21.104 24 20 24 L 8 24 C 6.896 24 6 23.104 6 22 L 6 19 L 21 19 C 21.551 19 22 18.551 22 18 z" />
</svg>
