<?xml version="1.0" encoding="UTF-8" standalone="no"?>
<svg
   height="760"
   width="760"
   viewBox="-35.20005 -41.33325 193.20916 235.59952"
   version="1.1"
   id="svg1004"
   xmlns="http://www.w3.org/2000/svg"
   xmlns:svg="http://www.w3.org/2000/svg">
  <defs
     id="defs1008" />
  <path
     d="m 173.83453,19.61651 c -2.699,-10.162 -10.65,-18.165 -20.748,-20.881 -18.299,-4.936 -91.682,-4.936 -91.682,-4.936 0,0 -73.382,0 -91.682,4.936 -10.098,2.716 -18.051,10.719 -20.748,20.881 -4.903,18.419 -4.903,56.85 -4.903,56.85 0,0 0,38.429 4.903,56.85 2.697,10.163 10.65,18.164 20.747,20.883 18.3,4.934 91.682,4.934 91.682,4.934 0,0 73.383,0 91.682,-4.934 10.098,-2.718 18.049,-10.72 20.748,-20.882 4.904,-18.421 4.904,-56.85 4.904,-56.85 0,0 0,-38.431 -4.904,-56.85"
     fill="#ff0000"
     id="path1000" />
  <path
     d="m 30.73803,111.35851 61.333,-34.89 -61.333,-34.894 z"
     fill="#ffffff"
     id="path1002" />
</svg>
