<?xml version="1.0" encoding="UTF-8" standalone="no"?>
<!-- Created with Inkscape (http://www.inkscape.org/) -->

<svg
   xmlns:dc="http://purl.org/dc/elements/1.1/"
   xmlns:cc="http://creativecommons.org/ns#"
   xmlns:rdf="http://www.w3.org/1999/02/22-rdf-syntax-ns#"
   xmlns:svg="http://www.w3.org/2000/svg"
   xmlns="http://www.w3.org/2000/svg"
   xmlns:sodipodi="http://sodipodi.sourceforge.net/DTD/sodipodi-0.dtd"
   xmlns:inkscape="http://www.inkscape.org/namespaces/inkscape"
   width="205.66005mm"
   height="207.89409mm"
   viewBox="0 0 205.66004 207.89409"
   version="1.1"
   id="svg8"
   inkscape:version="0.92.2 5c3e80d, 2017-08-06"
   sodipodi:docname="audiobook.svg">
  <defs
     id="defs2">
    <inkscape:path-effect
       effect="bspline"
       id="path-effect9125"
       is_visible="true"
       weight="33.333333"
       steps="2"
       helper_size="0"
       apply_no_weight="true"
       apply_with_weight="true"
       only_selected="false" />
    <inkscape:path-effect
       effect="bspline"
       id="path-effect9121"
       is_visible="true"
       weight="33.333333"
       steps="2"
       helper_size="0"
       apply_no_weight="true"
       apply_with_weight="true"
       only_selected="false" />
    <inkscape:path-effect
       effect="bspline"
       id="path-effect8746"
       is_visible="true"
       weight="33.333333"
       steps="2"
       helper_size="0"
       apply_no_weight="true"
       apply_with_weight="true"
       only_selected="false" />
    <marker
       inkscape:stockid="Arrow2Lstart"
       orient="auto"
       refY="0.0"
       refX="0.0"
       id="marker8033"
       style="overflow:visible"
       inkscape:isstock="true">
      <path
         id="path8031"
         style="fill-rule:evenodd;stroke-width:0.625;stroke-linejoin:round;stroke:#FF4500;stroke-opacity:1;fill:#FF4500;fill-opacity:1"
         d="M 8.7185878,4.0337352 L -2.2072895,0.016013256 L 8.7185884,-4.0017078 C 6.9730900,-1.6296469 6.9831476,1.6157441 8.7185878,4.0337352 z "
         transform="scale(1.1) translate(1,0)" />
    </marker>
    <inkscape:path-effect
       effect="bspline"
       id="path-effect8029"
       is_visible="true"
       weight="33.333333"
       steps="2"
       helper_size="0"
       apply_no_weight="true"
       apply_with_weight="true"
       only_selected="false" />
    <marker
       inkscape:stockid="Arrow2Lstart"
       orient="auto"
       refY="0.0"
       refX="0.0"
       id="marker7647"
       style="overflow:visible"
       inkscape:isstock="true">
      <path
         id="path7645"
         style="fill-rule:evenodd;stroke-width:0.625;stroke-linejoin:round;stroke:#FF4500;stroke-opacity:1;fill:#FF4500;fill-opacity:1"
         d="M 8.7185878,4.0337352 L -2.2072895,0.016013256 L 8.7185884,-4.0017078 C 6.9730900,-1.6296469 6.9831476,1.6157441 8.7185878,4.0337352 z "
         transform="scale(1.1) translate(1,0)" />
    </marker>
    <inkscape:path-effect
       effect="bspline"
       id="path-effect7643"
       is_visible="true"
       weight="33.333333"
       steps="2"
       helper_size="0"
       apply_no_weight="true"
       apply_with_weight="true"
       only_selected="false" />
    <inkscape:path-effect
       only_selected="false"
       apply_with_weight="true"
       apply_no_weight="true"
       helper_size="0"
       steps="2"
       weight="33.333333"
       is_visible="true"
       id="path-effect7401"
       effect="bspline" />
    <inkscape:path-effect
       effect="bspline"
       id="path-effect6871"
       is_visible="true"
       weight="33.333333"
       steps="2"
       helper_size="0"
       apply_no_weight="true"
       apply_with_weight="true"
       only_selected="false" />
    <inkscape:path-effect
       only_selected="false"
       apply_with_weight="true"
       apply_no_weight="true"
       helper_size="0"
       steps="2"
       weight="33.333333"
       is_visible="true"
       id="path-effect6791"
       effect="bspline" />
    <inkscape:path-effect
       effect="bspline"
       id="path-effect6787"
       is_visible="true"
       weight="33.333333"
       steps="2"
       helper_size="0"
       apply_no_weight="true"
       apply_with_weight="true"
       only_selected="false" />
  </defs>
  <sodipodi:namedview
     id="base"
     pagecolor="#ffffff"
     bordercolor="#666666"
     borderopacity="1.0"
     inkscape:pageopacity="0.0"
     inkscape:pageshadow="2"
     inkscape:zoom="0.7"
     inkscape:cx="-7.7157543"
     inkscape:cy="342.87069"
     inkscape:document-units="mm"
     inkscape:current-layer="layer1"
     showgrid="false"
     inkscape:window-width="2560"
     inkscape:window-height="1396"
     inkscape:window-x="0"
     inkscape:window-y="0"
     inkscape:window-maximized="1" />
  <metadata
     id="metadata5">
    <rdf:RDF>
      <cc:Work
         rdf:about="">
        <dc:format>image/svg+xml</dc:format>
        <dc:type
           rdf:resource="http://purl.org/dc/dcmitype/StillImage" />
        <dc:title />
      </cc:Work>
    </rdf:RDF>
  </metadata>
  <g
     inkscape:label="Layer 1"
     inkscape:groupmode="layer"
     id="layer1"
     transform="translate(-4.4983063,-46.776161)">
    <ellipse
       style="opacity:1;fill:none;fill-opacity:1;stroke:#FF4500;stroke-width:18;stroke-linecap:round;stroke-linejoin:miter;stroke-miterlimit:4;stroke-dasharray:none;stroke-opacity:1"
       id="path815"
       cx="107.32833"
       cy="150.72321"
       rx="93.830025"
       ry="94.947044" />
    <g
       transform="matrix(4.935266,0,0,4.6412477,43.017119,87.417821)"
       id="g969">
      <g
         id="g967">
        <path
           inkscape:connector-curvature="0"
           style="fill:#FF4500"
           d="M 25.706,3.604 C 25.533,3.468 25.31,3.419 25.098,3.468 L 22.171,4.171 V 2.758 c 0,-1.081 -0.689,-1.755 -1.799,-1.755 -1.99,0 -6.166,2.422 -7.416,3.412 C 11.747,3.416 7.739,0.812 5.676,0.812 4.507,0.812 3.807,1.54 3.807,2.758 V 4.225 C 3.126,4.12 1.73,3.803 0.882,3.596 0.669,3.543 0.444,3.592 0.271,3.728 0.102,3.862 0,4.069 0,4.289 v 18.562 c 0,0.205 0.09,0.401 0.243,0.539 0.156,0.134 0.365,0.195 0.567,0.165 0.065,-0.008 6.408,-1.434 9.537,0.227 0.119,0.062 0.308,0.217 0.493,0.364 0.53,0.429 1.256,1.016 2.145,1.02 0.003,0 0.007,0 0.009,0 0.889,0 1.642,-0.615 2.192,-1.065 0.189,-0.156 0.389,-0.318 0.509,-0.382 3.122,-1.653 9.4,-0.174 9.464,-0.163 0.205,0.03 0.413,-0.029 0.569,-0.165 0.158,-0.134 0.249,-0.332 0.249,-0.539 V 4.161 C 25.978,3.943 25.877,3.737 25.706,3.604 Z M 5.23,2.758 c 0,-0.5 0.138,-0.521 0.445,-0.521 1.638,0 5.248,2.263 6.288,3.047 l 1.01,0.728 0.979,-0.56 c 1.078,-0.739 4.776,-3.023 6.42,-3.023 0.374,0 0.374,0.076 0.374,0.329 v 14.194 c -2.081,0.039 -5.714,0.591 -6.783,1.187 -1.069,0.594 -0.967,0.662 -0.967,0.662 0,0 -0.074,-0.093 -1.032,-0.685 -1.108,-0.75 -4.672,-1.125 -6.733,-1.164 V 2.758 Z m 19.322,17.784 c -1.709,-0.75 -6.681,-1.277 -9.522,0.228 -0.246,0.131 -0.489,0.328 -0.745,0.537 -0.405,0.332 -0.91,0.744 -1.29,0.744 H 12.994 C 12.604,22.049 12.124,21.662 11.736,21.349 11.49,21.15 11.257,20.96 11.016,20.834 8.17,19.324 3.318,20.072 1.426,20.73 V 5.189 c 0.761,0.175 1.808,0.405 2.381,0.477 v 12.706 h 0.814 c 1.897,0 5.423,0.193 7.7,1.502 l 0.216,0.124 v 0.53 l 0.457,-0.269 0.394,0.227 V 20.03 l 0.223,-0.13 c 2.274,-1.331 5.828,-1.528 7.745,-1.528 h 0.815 V 5.637 l 2.381,-0.572 z"
           id="path957" />
        <path
           inkscape:connector-curvature="0"
           style="fill:#FF4500"
           d="m 7.369,10.401 c 0,0.624 0,1.712 0,2.148 0,0.167 0.235,0.296 0.525,0.395 V 9.872 c -0.29,0.121 -0.525,0.291 -0.525,0.529 z"
           id="path959" />
        <path
           inkscape:connector-curvature="0"
           style="fill:#FF4500"
           d="m 12.527,15.385 c 0,-0.479 0,-7.618 0,-8.055 0,-0.375 -0.486,-0.009 -0.486,-0.009 L 8.964,9.619 c 0,0 -0.287,0.031 -0.619,0.11 v 3.333 c 0.332,0.072 0.619,0.104 0.619,0.104 l 3.01,2.234 c 0,10e-4 0.553,0.463 0.553,-0.015 z"
           id="path961" />
        <path
           inkscape:connector-curvature="0"
           style="fill:#FF4500"
           d="m 13.828,13.88 c 0.128,0.132 0.298,0.197 0.466,0.197 0.164,0 0.328,-0.062 0.453,-0.186 0.825,-0.804 1.225,-1.678 1.193,-2.6 C 15.888,9.85 14.763,8.88 14.714,8.839 14.441,8.608 14.028,8.642 13.796,8.915 c -0.232,0.273 -0.199,0.684 0.077,0.918 0.007,0.007 0.733,0.646 0.764,1.504 0.02,0.541 -0.248,1.085 -0.8,1.622 -0.256,0.253 -0.261,0.665 -0.009,0.921 z"
           id="path963" />
        <path
           inkscape:connector-curvature="0"
           style="fill:#FF4500"
           d="m 17.302,11.3 c 0.034,0.944 -0.419,1.883 -1.347,2.789 -0.257,0.251 -0.262,0.663 -0.011,0.919 0.127,0.133 0.296,0.197 0.467,0.197 0.162,0 0.326,-0.062 0.454,-0.183 1.199,-1.175 1.786,-2.441 1.741,-3.768 C 18.53,9.175 16.899,7.77 16.831,7.71 16.557,7.479 16.144,7.513 15.912,7.786 c -0.232,0.273 -0.197,0.686 0.076,0.918 0.013,0.012 1.263,1.11 1.314,2.596 z"
           id="path965" />
      </g>
    </g>
  </g>
<style id="stylebodge1" type="text/css">[id^="polygon"]{fill:#FF4500;fill-opacity:1}</style><style id="stylebodge2" type="text/css">[id^="path"]{fill:#FF4500;fill-opacity:1}</style></svg>
