<?xml version="1.0" encoding="UTF-8" standalone="no"?>
<!-- Created with Inkscape (http://www.inkscape.org/) -->

<svg
   xmlns:dc="http://purl.org/dc/elements/1.1/"
   xmlns:cc="http://creativecommons.org/ns#"
   xmlns:rdf="http://www.w3.org/1999/02/22-rdf-syntax-ns#"
   xmlns:svg="http://www.w3.org/2000/svg"
   xmlns="http://www.w3.org/2000/svg"
   xmlns:sodipodi="http://sodipodi.sourceforge.net/DTD/sodipodi-0.dtd"
   xmlns:inkscape="http://www.inkscape.org/namespaces/inkscape"
   width="205.66005mm"
   height="207.89409mm"
   viewBox="0 0 205.66004 207.89409"
   version="1.1"
   id="svg8"
   inkscape:version="0.92.2 5c3e80d, 2017-08-06"
   sodipodi:docname="cd_case.svg">
  <defs
     id="defs2">
    <inkscape:path-effect
       effect="bspline"
       id="path-effect9125"
       is_visible="true"
       weight="33.333333"
       steps="2"
       helper_size="0"
       apply_no_weight="true"
       apply_with_weight="true"
       only_selected="false" />
    <inkscape:path-effect
       effect="bspline"
       id="path-effect9121"
       is_visible="true"
       weight="33.333333"
       steps="2"
       helper_size="0"
       apply_no_weight="true"
       apply_with_weight="true"
       only_selected="false" />
    <inkscape:path-effect
       effect="bspline"
       id="path-effect8746"
       is_visible="true"
       weight="33.333333"
       steps="2"
       helper_size="0"
       apply_no_weight="true"
       apply_with_weight="true"
       only_selected="false" />
    <marker
       inkscape:stockid="Arrow2Lstart"
       orient="auto"
       refY="0.0"
       refX="0.0"
       id="marker8033"
       style="overflow:visible"
       inkscape:isstock="true">
      <path
         id="path8031"
         style="fill-rule:evenodd;stroke-width:0.625;stroke-linejoin:round;stroke:#ff4500;stroke-opacity:1;fill:#ff4500;fill-opacity:1"
         d="M 8.7185878,4.0337352 L -2.2072895,0.016013256 L 8.7185884,-4.0017078 C 6.9730900,-1.6296469 6.9831476,1.6157441 8.7185878,4.0337352 z "
         transform="scale(1.1) translate(1,0)" />
    </marker>
    <inkscape:path-effect
       effect="bspline"
       id="path-effect8029"
       is_visible="true"
       weight="33.333333"
       steps="2"
       helper_size="0"
       apply_no_weight="true"
       apply_with_weight="true"
       only_selected="false" />
    <marker
       inkscape:stockid="Arrow2Lstart"
       orient="auto"
       refY="0.0"
       refX="0.0"
       id="marker7647"
       style="overflow:visible"
       inkscape:isstock="true">
      <path
         id="path7645"
         style="fill-rule:evenodd;stroke-width:0.625;stroke-linejoin:round;stroke:#ff4500;stroke-opacity:1;fill:#ff4500;fill-opacity:1"
         d="M 8.7185878,4.0337352 L -2.2072895,0.016013256 L 8.7185884,-4.0017078 C 6.9730900,-1.6296469 6.9831476,1.6157441 8.7185878,4.0337352 z "
         transform="scale(1.1) translate(1,0)" />
    </marker>
    <inkscape:path-effect
       effect="bspline"
       id="path-effect7643"
       is_visible="true"
       weight="33.333333"
       steps="2"
       helper_size="0"
       apply_no_weight="true"
       apply_with_weight="true"
       only_selected="false" />
    <inkscape:path-effect
       only_selected="false"
       apply_with_weight="true"
       apply_no_weight="true"
       helper_size="0"
       steps="2"
       weight="33.333333"
       is_visible="true"
       id="path-effect7401"
       effect="bspline" />
    <inkscape:path-effect
       effect="bspline"
       id="path-effect6871"
       is_visible="true"
       weight="33.333333"
       steps="2"
       helper_size="0"
       apply_no_weight="true"
       apply_with_weight="true"
       only_selected="false" />
    <inkscape:path-effect
       only_selected="false"
       apply_with_weight="true"
       apply_no_weight="true"
       helper_size="0"
       steps="2"
       weight="33.333333"
       is_visible="true"
       id="path-effect6791"
       effect="bspline" />
    <inkscape:path-effect
       effect="bspline"
       id="path-effect6787"
       is_visible="true"
       weight="33.333333"
       steps="2"
       helper_size="0"
       apply_no_weight="true"
       apply_with_weight="true"
       only_selected="false" />
  </defs>
  <sodipodi:namedview
     id="base"
     pagecolor="#ffffff"
     bordercolor="#666666"
     borderopacity="1.0"
     inkscape:pageopacity="0.0"
     inkscape:pageshadow="2"
     inkscape:zoom="0.7"
     inkscape:cx="258.71281"
     inkscape:cy="342.87069"
     inkscape:document-units="mm"
     inkscape:current-layer="layer1"
     showgrid="false"
     inkscape:window-width="2560"
     inkscape:window-height="1396"
     inkscape:window-x="0"
     inkscape:window-y="0"
     inkscape:window-maximized="1"
     inkscape:snap-text-baseline="false" />
  <metadata
     id="metadata5">
    <rdf:RDF>
      <cc:Work
         rdf:about="">
        <dc:format>image/svg+xml</dc:format>
        <dc:type
           rdf:resource="http://purl.org/dc/dcmitype/StillImage" />
        <dc:title></dc:title>
      </cc:Work>
    </rdf:RDF>
  </metadata>
  <g
     inkscape:label="Layer 1"
     inkscape:groupmode="layer"
     id="layer1"
     transform="translate(-4.4983063,-46.776161)">
    <ellipse
       style="opacity:1;fill:none;fill-opacity:1;stroke:#ff4500;stroke-width:18;stroke-linecap:round;stroke-linejoin:miter;stroke-miterlimit:4;stroke-dasharray:none;stroke-opacity:1"
       id="path815"
       cx="107.32833"
       cy="150.72321"
       rx="93.830025"
       ry="94.947044" />
    <text
       xml:space="preserve"
       style="font-style:normal;font-weight:normal;font-size:10.58333302px;line-height:125%;font-family:Sans;letter-spacing:0px;word-spacing:0px;fill:#ff4500;fill-opacity:1;stroke:none;stroke-width:0.26458332px;stroke-linecap:butt;stroke-linejoin:miter;stroke-opacity:1"
       x="98.236397"
       y="130.31609"
       id="text9654"><tspan
         sodipodi:role="line"
         id="tspan9652"
         x="98.236397"
         y="139.67986"
         style="stroke-width:0.26458332px;fill:#ff4500;fill-opacity:1" /></text>
    <g
       id="g11919"
       transform="matrix(0.11493465,0,0,0.11493465,49.861031,93.256455)">
      <g
         id="g11917"
         transform="matrix(0.1,0,0,-0.1,0,511)">
        <path
           id="path11907"
           d="M 231.5,4309.3 C 89.8,4238.4 100.2,4565.7 100.2,110 c 0,-4466.2 -10.4,-4130.4 135.5,-4199.3 62.6,-29.2 531.7,-33.3 4764.3,-33.3 4232.6,0 4701.7,4.2 4764.3,33.3 146,68.8 135.5,-266.9 135.5,4199.3 0,4466.2 10.4,4130.5 -135.5,4199.3 -62.5,29.2 -531.7,33.4 -4768.5,33.4 C 773.6,4342.6 292,4338.5 231.5,4309.3 Z M 1434.6,110 V -3663.9 H 996.7 558.9 V 110 3883.9 h 437.9 437.9 V 110 Z m 8006.5,0 V -3663.9 H 5667.2 1893.3 V 110 3883.9 h 3773.9 3773.9 z"
           inkscape:connector-curvature="0" />
        <path
           id="path11909"
           d="M 5344,3433.5 C 3865.8,3275.1 2681.4,2190.9 2389.5,729.3 c -66.7,-335.7 -66.7,-902.8 0,-1238.5 271.1,-1357.4 1301.1,-2387.4 2658.4,-2658.4 335.7,-66.7 902.8,-66.7 1238.5,0 1355.3,271.1 2387.4,1303.1 2658.4,2658.4 66.7,335.7 66.7,902.8 0,1238.5 -271,1353.1 -1307.2,2391.5 -2645.8,2654.2 -219,43.8 -754.8,70.9 -955,50 z M 6178,2954 c 385.7,-73 767.3,-227.3 1105.1,-448.3 210.6,-137.6 631.8,-558.8 771.5,-769.4 333.6,-500.4 496.2,-1032.1 496.2,-1615.9 0,-598.4 -158.4,-1123.8 -487.9,-1626.3 -143.9,-216.8 -563,-635.9 -779.8,-779.8 -502.5,-329.4 -1027.9,-487.9 -1626.3,-487.9 -583.8,0 -1115.5,162.6 -1615.9,496.2 -210.6,139.7 -631.8,560.9 -769.4,771.5 -329.4,502.5 -490,1027.9 -487.9,1615.9 0,479.6 87.6,850.7 298.2,1282.3 437.9,888.2 1309.4,1490.8 2314.4,1597.1 200.1,20.9 567.1,4.2 781.8,-35.4 z"
           inkscape:connector-curvature="0" />
        <path
           id="path11911"
           d="M 5333.6,1167.1 C 4966.6,1042 4701.9,768.9 4595.5,404 c -43.8,-148 -43.8,-440 0,-588 54.2,-181.4 156.4,-354.5 289.8,-487.9 433.7,-433.7 1130.1,-433.7 1563.8,0 598.4,598.4 331.5,1613.8 -487.9,1853.6 -171,50 -458.7,43.8 -627.6,-14.6 z m 537.9,-423.3 c 158.5,-52.1 291.9,-164.7 377.4,-321.1 68.8,-125.1 75.1,-148 75.1,-312.8 -2.1,-160.5 -8.3,-189.7 -70.9,-308.6 -79.2,-145.9 -145.9,-210.6 -302.3,-291.9 -89.7,-45.9 -133.4,-54.2 -283.6,-56.3 -164.7,0 -185.6,4.2 -312.8,75 -287.7,158.5 -421.2,485.8 -321.1,784 121,354.6 488,544.3 838.2,431.7 z"
           inkscape:connector-curvature="0" />
        <path
           id="path11913"
           d="m 5615.1,322.7 c -202.3,-48 -231.4,-333.6 -39.6,-412.8 93.8,-39.6 173,-22.9 243.9,50 75.1,79.2 87.6,152.2 45.9,241.9 -48,100 -146,145.9 -250.2,120.9 z"
           inkscape:connector-curvature="0" />
        <path
           id="path11915"
           d="m 7800.2,310.2 c -91.7,-41.7 -123,-116.8 -139.7,-335.7 -35.4,-504.6 -221,-907 -585.9,-1271.9 -364.9,-364.9 -767.3,-550.5 -1271.9,-585.9 -223.1,-16.7 -294,-48 -335.7,-148 -41.7,-95.9 -20.8,-179.3 60.4,-248.1 64.6,-54.2 70.9,-54.2 296.1,-43.8 565,27.1 1096.7,258.6 1520,661 460.8,435.8 727.7,1009.2 756.9,1618 l 12.5,231.4 -60.5,64.6 c -70.8,79.2 -160.4,98 -252.2,58.4 z"
           inkscape:connector-curvature="0" />
      </g>
    </g>
  </g>
<style id="stylebodge1" type="text/css">[id^="polygon"]{fill:#ff4500;fill-opacity:1}</style><style id="stylebodge2" type="text/css">[id^="path"]{fill:#ff4500;fill-opacity:1}</style></svg>
