<?xml version="1.0" encoding="UTF-8" standalone="no"?>
<svg
   xmlns:dc="http://purl.org/dc/elements/1.1/"
   xmlns:cc="http://creativecommons.org/ns#"
   xmlns:rdf="http://www.w3.org/1999/02/22-rdf-syntax-ns#"
   xmlns:svg="http://www.w3.org/2000/svg"
   xmlns="http://www.w3.org/2000/svg"
   width="205.66005mm"
   height="207.89409mm"
   viewBox="0 0 205.66004 207.89409"
   version="1.1"
   id="svg8">
  <defs
     id="defs2" />
  <metadata
     id="metadata5">
    <rdf:RDF>
      <cc:Work
         rdf:about="">
        <dc:format>image/svg+xml</dc:format>
        <dc:type
           rdf:resource="http://purl.org/dc/dcmitype/StillImage" />
        <dc:title></dc:title>
      </cc:Work>
    </rdf:RDF>
  </metadata>
  <ellipse
     ry="94.947044"
     rx="93.830025"
     cy="103.94704"
     cx="102.83002"
     id="path815"
     style="opacity:1;fill:none;fill-opacity:1;stroke:#ff4500;stroke-width:18;stroke-linecap:round;stroke-linejoin:miter;stroke-miterlimit:4;stroke-dasharray:none;stroke-opacity:1" />
  <g
     transform="matrix(0.26458332,0,0,0.26458332,35.552831,36.669983)"
     id="g1944">
    <g
       id="g1884">
      <g
         id="g1882">
        <g
           id="g1880">
          <g
             id="g1878">
            <path
               style="fill:#ff4500"
               d="m 263.381,0.079 -2.352,-0.064 c -5.244,0 -11.251,1.621 -18.116,5.784 0,0 -132.533,115.625 -138.317,121.346 H 31.782 C 14.239,127.146 0,141.384 0,158.928 V 353.66 c 0,17.576 14.239,31.782 31.782,31.782 h 72.814 c 5.784,5.721 138.317,117.246 138.317,117.246 6.865,4.227 12.872,5.848 18.116,5.848 l 2.352,-0.095 c 11.76,-1.112 20.15,-10.965 22.661,-21.358 V 21.501 C 283.563,11.044 275.141,1.192 263.381,0.079 Z M 254.26,470.778 C 204.679,429.016 132.883,368.279 127.003,362.876 c -5.943,-5.975 -13.984,-9.249 -22.438,-9.249 H 31.782 v -4.036 -190.695 h 72.814 c 8.136,0 16.304,-3.401 22.152,-8.994 5.784,-5.467 77.613,-68.301 127.511,-111.843 v 432.719 z"
               id="path1874" />
            <path
               style="fill:#ff4500"
               d="m 448.006,254.276 54.825,-54.857 c 7.628,-7.564 7.628,-19.864 0,-27.428 -7.532,-7.564 -19.864,-7.564 -27.397,0 l -54.857,54.857 -54.92,-54.857 c -7.532,-7.564 -19.864,-7.564 -27.397,0 -7.564,7.564 -7.564,19.864 0,27.428 l 54.888,54.857 -54.888,54.888 c -7.564,7.532 -7.564,19.864 0,27.396 7.532,7.564 19.864,7.564 27.396,0 l 54.92,-54.857 54.857,54.857 c 7.532,7.564 19.864,7.564 27.397,0 7.564,-7.532 7.564,-19.864 0,-27.396 z"
               id="path1876" />
          </g>
        </g>
      </g>
    </g>
    <g
       id="g1886" />
    <g
       id="g1888" />
    <g
       id="g1890" />
    <g
       id="g1892" />
    <g
       id="g1894" />
    <g
       id="g1896" />
    <g
       id="g1898" />
    <g
       id="g1900" />
    <g
       id="g1902" />
    <g
       id="g1904" />
    <g
       id="g1906" />
    <g
       id="g1908" />
    <g
       id="g1910" />
    <g
       id="g1912" />
    <g
       id="g1914" />
  </g>
<style id="stylebodge1" type="text/css">[id^="polygon"]{fill:#ff4500;fill-opacity:1}</style><style id="stylebodge2" type="text/css">[id^="path"]{fill:#ff4500;fill-opacity:1}</style></svg>
