<?xml version="1.0" encoding="UTF-8" standalone="no"?>
<svg
   id="svg8"
   version="1.1"
   viewBox="0 0 205.66004 207.89409"
   height="207.89409mm"
   width="205.66005mm"
   sodipodi:docname="padlock.svg"
   inkscape:version="1.1.1 (3bf5ae0d25, 2021-09-20)"
   xmlns:inkscape="http://www.inkscape.org/namespaces/inkscape"
   xmlns:sodipodi="http://sodipodi.sourceforge.net/DTD/sodipodi-0.dtd"
   xmlns="http://www.w3.org/2000/svg"
   xmlns:svg="http://www.w3.org/2000/svg"
   xmlns:rdf="http://www.w3.org/1999/02/22-rdf-syntax-ns#"
   xmlns:cc="http://creativecommons.org/ns#"
   xmlns:dc="http://purl.org/dc/elements/1.1/">
  <sodipodi:namedview
     id="namedview13"
     pagecolor="#ffffff"
     bordercolor="#666666"
     borderopacity="1.0"
     inkscape:pageshadow="2"
     inkscape:pageopacity="0.0"
     inkscape:pagecheckerboard="0"
     inkscape:document-units="mm"
     showgrid="false"
     inkscape:zoom="0.80179047"
     inkscape:cx="388.50549"
     inkscape:cy="392.24711"
     inkscape:window-width="2560"
     inkscape:window-height="1411"
     inkscape:window-x="0"
     inkscape:window-y="0"
     inkscape:window-maximized="1"
     inkscape:current-layer="svg8" />
  <defs
     id="defs2">
    <marker
       style="overflow:visible"
       id="Arrow2Lstart"
       refX="0.0"
       refY="0.0"
       orient="auto">
      <path
         transform="scale(1.1) translate(1,0)"
         d="M 8.7185878,4.0337352 L -2.2072895,0.016013256 L 8.7185884,-4.0017078 C 6.9730900,-1.6296469 6.9831476,1.6157441 8.7185878,4.0337352 z "
         style="fill-rule:evenodd;stroke-width:0.625;stroke-linejoin:round;stroke:#FF4D00;stroke-opacity:1;fill:#FF4D00;fill-opacity:1"
         id="path6891" />
    </marker>
  </defs>
  <metadata
     id="metadata5">
    <rdf:RDF>
      <cc:Work
         rdf:about="">
        <dc:format>image/svg+xml</dc:format>
        <dc:type
           rdf:resource="http://purl.org/dc/dcmitype/StillImage" />
      </cc:Work>
    </rdf:RDF>
  </metadata>
  <ellipse
     ry="94.947044"
     rx="93.830025"
     cy="-102.83002"
     cx="103.94704"
     id="path815"
     style="fill:none;fill-opacity:1;stroke:#FF4D00;stroke-width:18;stroke-linecap:round;stroke-linejoin:miter;stroke-miterlimit:4;stroke-dasharray:none;stroke-opacity:1"
     transform="rotate(90)" />
  <path
     d="M 141.93109,94.564122 H 132.9088 V 76.49308 c 0,-17.621249 -13.99646,-31.617709 -31.61771,-31.617709 -17.621248,0 -31.617706,13.99646 -31.617706,31.617709 V 94.564122 H 60.651092 V 76.49308 c 0,-22.568958 18.071041,-40.64 40.639998,-40.64 22.56896,0 40.64,18.071042 40.64,40.64 z"
     id="path2"
     style="stroke-width:0.264583;fill:#ff4d00;fill-opacity:1" />
  <path
     d="M 137.40672,159.70832 H 65.175467 c -7.672917,0 -13.546667,-5.05019 -13.546667,-11.64727 v -46.58906 c 0,-6.597089 5.87375,-11.64727 13.546667,-11.64727 h 72.257703 c 7.67292,0 13.54667,5.050181 13.54667,11.64727 v 46.58906 c -0.0265,6.59708 -5.90021,11.64727 -13.57312,11.64727 z M 65.175467,97.58198 c -2.69875,0 -4.524375,1.546903 -4.524375,3.89001 v 46.58906 c 0,2.32035 1.799167,3.89001 4.524375,3.89001 h 72.257703 c 2.69875,0 4.52438,-1.54691 4.52438,-3.89001 v -46.58906 c 0,-2.320358 -1.79917,-3.89001 -4.52438,-3.89001 z"
     id="path4"
     style="fill:#ff4d00;fill-opacity:1;stroke-width:0.245334" />
  <circle
     cx="101.29109"
     cy="113.2626"
     r="9.0222912"
     id="circle6"
     style="stroke-width:0.264583;fill:#ff4d00;fill-opacity:1" />
  <polygon
     points="264.5,307.2 247.5,307.2 230.4,409.6 281.6,409.6 "
     id="polygon8"
     transform="matrix(0.26458333,0,0,0.26458333,33.557759,31.982603)"
     style="fill:#ff4d00;fill-opacity:1" />
</svg>
