<?xml version="1.0" encoding="UTF-8" standalone="no"?>
<svg
   xmlns:dc="http://purl.org/dc/elements/1.1/"
   xmlns:cc="http://creativecommons.org/ns#"
   xmlns:rdf="http://www.w3.org/1999/02/22-rdf-syntax-ns#"
   xmlns:svg="http://www.w3.org/2000/svg"
   xmlns="http://www.w3.org/2000/svg"
   width="205.66005mm"
   height="207.89409mm"
   viewBox="0 0 205.66004 207.89409"
   version="1.1"
   id="svg8">
  <defs
     id="defs2" />
  <metadata
     id="metadata5">
    <rdf:RDF>
      <cc:Work
         rdf:about="">
        <dc:format>image/svg+xml</dc:format>
        <dc:type
           rdf:resource="http://purl.org/dc/dcmitype/StillImage" />
        <dc:title></dc:title>
      </cc:Work>
    </rdf:RDF>
  </metadata>
  <ellipse
     ry="94.947044"
     rx="93.830025"
     cy="103.94704"
     cx="102.83002"
     id="path815"
     style="opacity:1;fill:none;fill-opacity:1;stroke:#ff4500;stroke-width:18;stroke-linecap:round;stroke-linejoin:miter;stroke-miterlimit:4;stroke-dasharray:none;stroke-opacity:1" />
  <style
     type="text/css"
     id="style3111">
	.st0{fill:#ff4500;}
</style>
  <style
     type="text/css"
     id="style2">
	.st0{fill:none;}
	.st1{fill:#F4481E;}
	.st2{fill:url(#SVGID_1_);}
	.st3{opacity:0.1;fill:#FFFFFF;enable-background:new    ;}
	.st4{fill:#FFD119;}
	.st5{fill:#FF8C00;}
	.st6{fill:url(#SVGID_2_);}
	.st7{fill:#FAFAFA;}
	.st8{opacity:0.3;fill:#FFFFFF;enable-background:new    ;}
</style>
  <g
     transform="matrix(0.95278228,0,0,0.95278228,41.851954,42.968973)"
     id="g3813">
    <path
       d="M 114,8 H 14 C 7.4,8 2,13.4 2,20 2,26.6 7.4,32 14,32 h 100 c 6.6,0 12,-5.4 12,-12 0,-6.6 -5.4,-12 -12,-12 z"
       id="path3797" />
    <path
       d="M 114,52 H 14 C 7.4,52 2,57.4 2,64 2,70.6 7.4,76 14,76 h 100 c 6.6,0 12,-5.4 12,-12 0,-6.6 -5.4,-12 -12,-12 z"
       id="path3799" />
    <path
       d="M 114,96 H 14 c -6.6,0 -12,5.4 -12,12 0,6.6 5.4,12 12,12 h 100 c 6.6,0 12,-5.4 12,-12 0,-6.6 -5.4,-12 -12,-12 z"
       id="path3801" />
  </g>
<style id="stylebodge1" type="text/css">[id^="polygon"]{fill:#ff4500;fill-opacity:1}</style><style id="stylebodge2" type="text/css">[id^="path"]{fill:#ff4500;fill-opacity:1}</style></svg>
