<?xml version="1.0" encoding="UTF-8" standalone="no"?>
<svg
   xmlns:dc="http://purl.org/dc/elements/1.1/"
   xmlns:cc="http://creativecommons.org/ns#"
   xmlns:rdf="http://www.w3.org/1999/02/22-rdf-syntax-ns#"
   xmlns:svg="http://www.w3.org/2000/svg"
   xmlns="http://www.w3.org/2000/svg"
   width="205.66005mm"
   height="207.89409mm"
   viewBox="0 0 205.66004 207.89409"
   version="1.1"
   id="svg8">
  <defs
     id="defs2" />
  <metadata
     id="metadata5">
    <rdf:RDF>
      <cc:Work
         rdf:about="">
        <dc:format>image/svg+xml</dc:format>
        <dc:type
           rdf:resource="http://purl.org/dc/dcmitype/StillImage" />
        <dc:title></dc:title>
      </cc:Work>
    </rdf:RDF>
  </metadata>
  <ellipse
     ry="94.947044"
     rx="93.830025"
     cy="103.94704"
     cx="102.83002"
     id="path815"
     style="opacity:1;fill:none;fill-opacity:1;stroke:#ff4500;stroke-width:18;stroke-linecap:round;stroke-linejoin:miter;stroke-miterlimit:4;stroke-dasharray:none;stroke-opacity:1" />
  <g
     transform="matrix(0.3541291,0,0,0.3541291,36.318732,37.435751)"
     id="g2835">
    <g
       id="g2779">
      <path
         style="fill:#ff4500"
         d="m 375.627,279.726 -78.877,67.608 v -45.079 h -13.277 c -41.919,0 -72.786,-18.781 -98.268,-43.648 9.828,-11.569 18.738,-23.214 27.027,-34.108 1.904,-2.513 3.796,-4.993 5.684,-7.473 18.852,19.494 39.129,32.645 65.562,32.645 h 13.277 V 212.103 Z M 0,129.466 h 39.308 c 24.927,0 44.377,11.716 62.321,29.371 2.953,-3.791 5.939,-7.74 8.953,-11.683 7.337,-9.66 15.093,-19.831 23.497,-29.975 C 109.266,93.992 79.329,76.87 39.309,76.87 H 0 Z M 296.75,28.299 v 44.818 h -13.277 c -69.375,0 -108.488,51.421 -143.004,96.804 C 109.423,210.67 82.619,245.91 39.308,245.91 H 0 v 52.59 h 39.308 c 69.386,0 108.498,-51.394 143.015,-96.766 31.035,-40.798 57.844,-76.033 101.15,-76.033 h 13.277 v 37.84 l 78.883,-67.629 z"
         id="path2777" />
    </g>
    <g
       id="g2781" />
    <g
       id="g2783" />
    <g
       id="g2785" />
    <g
       id="g2787" />
    <g
       id="g2789" />
    <g
       id="g2791" />
    <g
       id="g2793" />
    <g
       id="g2795" />
    <g
       id="g2797" />
    <g
       id="g2799" />
    <g
       id="g2801" />
    <g
       id="g2803" />
    <g
       id="g2805" />
    <g
       id="g2807" />
    <g
       id="g2809" />
  </g>
<style id="stylebodge1" type="text/css">[id^="polygon"]{fill:#ff4500;fill-opacity:1}</style><style id="stylebodge2" type="text/css">[id^="path"]{fill:#ff4500;fill-opacity:1}</style></svg>
