<?xml version="1.0" encoding="UTF-8" standalone="no"?>
<!-- Generator: Adobe Illustrator 16.0.4, SVG Export Plug-In . SVG Version: 6.00 Build 0)  -->

<svg
   xmlns:dc="http://purl.org/dc/elements/1.1/"
   xmlns:cc="http://creativecommons.org/ns#"
   xmlns:rdf="http://www.w3.org/1999/02/22-rdf-syntax-ns#"
   xmlns:svg="http://www.w3.org/2000/svg"
   xmlns="http://www.w3.org/2000/svg"
   xmlns:xlink="http://www.w3.org/1999/xlink"
   xmlns:sodipodi="http://sodipodi.sourceforge.net/DTD/sodipodi-0.dtd"
   xmlns:inkscape="http://www.inkscape.org/namespaces/inkscape"
   id="Capa_1"
   style="enable-background:new 0 0 40.007 40.007;"
   xml:space="preserve"
   height="40.007px"
   viewBox="0 0 40.007 40.007"
   width="40.007px"
   version="1.1"
   y="0px"
   x="0px"
   sodipodi:docname="arrow-decrease.svg"
   inkscape:version="0.92.2 5c3e80d, 2017-08-06"><defs
     id="defs9"><linearGradient
       inkscape:collect="always"
       id="linearGradient831"><stop
         style="stop-color:#000099;stop-opacity:1"
         offset="0"
         id="stop827" /><stop
         style="stop-color:#000000;stop-opacity:1"
         offset="1"
         id="stop829" /></linearGradient><radialGradient
       inkscape:collect="always"
       xlink:href="#linearGradient831"
       id="radialGradient835"
       gradientUnits="userSpaceOnUse"
       gradientTransform="matrix(-3.4152774,-0.00847462,-0.00248137,0.99999335,88.372364,0.1696605)"
       cx="20.003891"
       cy="20.003517"
       fx="20.003891"
       fy="20.003517"
       r="20.003396" /></defs><sodipodi:namedview
     pagecolor="#ffffff"
     bordercolor="#666666"
     borderopacity="1"
     objecttolerance="10"
     gridtolerance="10"
     guidetolerance="10"
     inkscape:pageopacity="0"
     inkscape:pageshadow="2"
     inkscape:window-width="1166"
     inkscape:window-height="754"
     id="namedview7"
     showgrid="false"
     inkscape:zoom="5.8989677"
     inkscape:cx="-10.934116"
     inkscape:cy="20.0035"
     inkscape:window-x="586"
     inkscape:window-y="320"
     inkscape:window-maximized="0"
     inkscape:current-layer="Capa_1" /><metadata
     id="metadata42"><rdf:RDF><cc:Work
         rdf:about=""><dc:format>image/svg+xml</dc:format><dc:type
           rdf:resource="http://purl.org/dc/dcmitype/StillImage" /><dc:title /></cc:Work></rdf:RDF></metadata><path
     id="path6"
     d="m 37.324,30.003036 c -5.522,9.566 -17.755,12.844 -27.32,7.321 -9.566,-5.522 -12.844,-17.755 -7.32,-27.321 5.522,-9.565 17.754,-12.843 27.32,-7.32 9.565,5.523 12.844,17.755 7.32,27.32 z m -9.32,-23.855 c -7.652,-4.418 -17.438,-1.797 -21.856,5.855 -4.418,7.653 -1.796,17.438 5.856,21.856 7.652,4.419 17.438,1.797 21.856,-5.856 4.418,-7.652 1.796,-17.437 -5.856,-21.855 z m -6.586,18.441 c -0.391,0.391 -0.902,0.586 -1.414,0.586 -0.512,0 -1.023,-0.195 -1.414,-0.586 l -5.657,-5.656 c -0.781,-0.781 -0.781,-2.048 0,-2.829 v 10e-4 c 0.781,-0.781 2.048,-0.781 2.828,0 l 4.243,4.242 4.242,-4.242 c 0.781,-0.781 2.048,-0.781 2.828,0 v -10e-4 c 0.781,0.781 0.781,2.048 0,2.829 z"
     style="fill:url(#radialGradient835);fill-opacity:1;stroke:none"
     inkscape:connector-curvature="0" /></svg>