<?xml version="1.0" encoding="UTF-8" standalone="no"?>
<svg
   xmlns:dc="http://purl.org/dc/elements/1.1/"
   xmlns:cc="http://creativecommons.org/ns#"
   xmlns:rdf="http://www.w3.org/1999/02/22-rdf-syntax-ns#"
   xmlns:svg="http://www.w3.org/2000/svg"
   xmlns="http://www.w3.org/2000/svg"
   xmlns:xlink="http://www.w3.org/1999/xlink"
   xmlns:sodipodi="http://sodipodi.sourceforge.net/DTD/sodipodi-0.dtd"
   xmlns:inkscape="http://www.inkscape.org/namespaces/inkscape"
   id="svg8"
   version="1.1"
   viewBox="0 0 205.66004 207.89409"
   height="207.89409mm"
   width="205.66005mm"
   sodipodi:docname="artist-icon.svg"
   inkscape:version="0.92.2 5c3e80d, 2017-08-06">
  <sodipodi:namedview
     pagecolor="#ffffff"
     bordercolor="#666666"
     borderopacity="1"
     objecttolerance="10"
     gridtolerance="10"
     guidetolerance="10"
     inkscape:pageopacity="0"
     inkscape:pageshadow="2"
     inkscape:window-width="1385"
     inkscape:window-height="872"
     id="namedview14"
     showgrid="false"
     inkscape:zoom="0.44225745"
     inkscape:cx="388.64888"
     inkscape:cy="392.87071"
     inkscape:window-x="660"
     inkscape:window-y="267"
     inkscape:window-maximized="0"
     inkscape:current-layer="svg8" />
  <defs
     id="defs2">
    <linearGradient
       id="linearGradient855"
       inkscape:collect="always">
      <stop
         id="stop851"
         offset="0"
         style="stop-color:#656565;stop-opacity:1" />
      <stop
         id="stop853"
         offset="1"
         style="stop-color:#000000;stop-opacity:1" />
    </linearGradient>
    <linearGradient
       inkscape:collect="always"
       id="linearGradient840">
      <stop
         style="stop-color:#fb8626;stop-opacity:1"
         offset="0"
         id="stop836" />
      <stop
         style="stop-color:#fff663;stop-opacity:1"
         offset="1"
         id="stop838" />
    </linearGradient>
    <marker
       style="overflow:visible"
       id="marker8033"
       refX="0.0"
       refY="0.0"
       orient="auto">
      <path
         transform="scale(1.1) translate(1,0)"
         d="M 8.7185878,4.0337352 L -2.2072895,0.016013256 L 8.7185884,-4.0017078 C 6.9730900,-1.6296469 6.9831476,1.6157441 8.7185878,4.0337352 z "
         style="fill-rule:evenodd;stroke-width:0.625;stroke-linejoin:round;stroke:#FFF663;stroke-opacity:1;fill:#FFF663;fill-opacity:1"
         id="path8031" />
    </marker>
    <marker
       style="overflow:visible"
       id="marker7647"
       refX="0.0"
       refY="0.0"
       orient="auto">
      <path
         transform="scale(1.1) translate(1,0)"
         d="M 8.7185878,4.0337352 L -2.2072895,0.016013256 L 8.7185884,-4.0017078 C 6.9730900,-1.6296469 6.9831476,1.6157441 8.7185878,4.0337352 z "
         style="fill-rule:evenodd;stroke-width:0.625;stroke-linejoin:round;stroke:#FFF663;stroke-opacity:1;fill:#FFF663;fill-opacity:1"
         id="path7645" />
    </marker>
    <linearGradient
       inkscape:collect="always"
       xlink:href="#linearGradient840"
       id="linearGradient866"
       gradientUnits="userSpaceOnUse"
       x1="105.80263"
       y1="255.55115"
       x2="104.4495"
       y2="256.43207"
       gradientTransform="translate(-4.4983063,-46.776161)" />
    <radialGradient
       inkscape:collect="always"
       xlink:href="#linearGradient855"
       id="radialGradient837"
       cx="102.8337"
       cy="103.95188"
       fx="102.8337"
       fy="103.95188"
       r="47.821354"
       gradientTransform="matrix(2.1052104,0.02703346,-0.0274626,2.1386299,-110.79809,-121.14267)"
       gradientUnits="userSpaceOnUse" />
    <radialGradient
       inkscape:collect="always"
       xlink:href="#linearGradient855"
       id="radialGradient857"
       cx="102.83002"
       cy="103.94704"
       fx="102.83002"
       fy="103.94704"
       r="102.83002"
       gradientTransform="matrix(2.4370251,0.01745375,-0.00723952,1.0108369,-147.01679,-2.9212278)"
       gradientUnits="userSpaceOnUse" />
  </defs>
  <metadata
     id="metadata5">
    <rdf:RDF>
      <cc:Work
         rdf:about="">
        <dc:format>image/svg+xml</dc:format>
        <dc:type
           rdf:resource="http://purl.org/dc/dcmitype/StillImage" />
        <dc:title />
      </cc:Work>
    </rdf:RDF>
  </metadata>
  <ellipse
     style="opacity:1;fill:none;fill-opacity:1;stroke:url(#radialGradient857);stroke-width:18;stroke-linecap:round;stroke-linejoin:miter;stroke-miterlimit:4;stroke-dasharray:none;stroke-opacity:1"
     id="path815"
     cx="102.83002"
     cy="103.94704"
     rx="93.830025"
     ry="94.947044" />
  <path
     inkscape:connector-curvature="0"
     style="fill:url(#radialGradient837);stroke:url(#linearGradient866);stroke-width:1.33997023;fill-opacity:1"
     d="m 61.726978,164.41754 c -1.219685,-1.34776 -2.217623,-3.4171 -2.217623,-4.59849 0,-1.18144 4.974649,-8.00976 11.054767,-15.17411 6.080118,-7.16435 14.90617,-17.60702 19.613492,-23.20592 4.707321,-5.59887 9.983446,-10.95278 11.724756,-11.89755 1.74127,-0.94476 3.16599,-2.5434 3.16599,-3.55255 0,-1.00914 1.96348,-2.99332 4.36331,-4.40922 l 4.3633,-2.574441 5.21569,3.782041 c 2.86866,2.08013 5.8798,3.77977 6.69146,3.77703 0.81163,-0.003 -0.38671,-1.14071 -2.66301,-2.52882 -4.11714,-2.51059 -9.93095,-8.921501 -9.93095,-10.950881 0,-0.58494 0.97457,-2.03811 2.16569,-3.22923 1.80764,-1.80763 2.56043,-1.87885 4.55296,-0.43074 7.94522,5.77443 11.18767,7.83496 8.29136,5.26902 l -3.07958,-2.72834 4.2132,-2.17873 4.21319,-2.17873 -0.94191,4.28848 c -0.69787,3.17742 -0.52425,4.03034 0.67014,3.29217 0.88665,-0.54795 1.37082,-2.63992 1.07599,-4.64882 -0.42412,-2.88986 0.24842,-4.10278 3.22115,-5.80885 l 3.7572,-2.15635 v 5.8559 c 0,3.22073 0.68298,6.08354 1.51778,6.3618 4.75051,1.58349 -5.23628,11.752111 -11.56758,11.778131 -2.12661,0.008 -2.73024,0.98977 -2.92362,4.75145 -0.20739,4.03574 0.63922,5.55428 5.69497,10.21454 7.6061,7.01105 13.72625,19.41647 14.81622,30.0323 0.96509,9.39907 -0.59987,13.51226 -5.62052,14.77236 -5.25299,1.31844 -8.61433,-2.6019 -8.63021,-10.06545 -0.0152,-7.68993 -4.81272,-18.13989 -10.87757,-23.69918 -6.04513,-5.54121 -13.01068,-10.2398 -14.37634,-9.69754 -0.60967,0.24195 -8.82575,9.48495 -18.257974,20.53967 -9.432229,11.05477 -18.084697,20.85331 -19.227656,21.77452 -2.989446,2.40948 -7.500165,2.06205 -10.068072,-0.77547 z m 9.235172,-27.25468 c -0.514751,-1.22964 -0.07407,-5.62018 0.979592,-9.75676 1.053546,-4.13655 1.551432,-7.72412 1.106419,-7.9723 -0.444976,-0.24804 -3.944881,-1.1868 -7.777559,-2.08571 -3.832677,-0.89895 -7.675155,-2.48594 -8.538897,-3.52665 -1.943307,-2.34156 -1.898943,-2.34072 6.382086,0.11851 10.543737,3.13116 12.684672,2.89001 21.412423,-2.41183 8.64981,-5.25451 9.822357,-5.69808 9.822357,-3.7158 0,0.68362 -3.768637,3.49778 -8.374809,6.25362 -4.606134,2.75589 -8.525831,5.11128 -8.710393,5.23419 -0.184599,0.12307 -1.467299,4.69536 -2.850465,10.16098 -1.674232,6.61584 -2.827674,9.1902 -3.450754,7.70178 z m 24.275043,-30.35194 c -2.527644,-2.79303 -7.605569,-16.210061 -7.55904,-19.972661 0.06039,-4.87859 5.261918,-13.76602 9.607451,-16.41544 5.477546,-3.33958 11.798326,-3.38683 26.298636,-0.19675 9.57034,2.10557 16.88146,5.67589 14.90359,7.27807 -4.08697,3.31067 -17.65134,10.27109 -18.72411,9.60809 -1.78921,-1.10577 -7.99554,2.87569 -7.99554,5.12925 0,0.92956 -1.87787,2.79945 -4.17305,4.15527 -5.46418,3.22775 -6.75045,1.39114 -6.25036,-8.92458 0.36502,-7.52642 -0.53036,-9.83721 -2.162926,-5.58284 -1.57202,4.09662 -0.78409,9.92874 2.160196,15.98896 2.27585,4.684381 2.63517,6.657811 1.53133,8.410631 -2.05509,3.26349 -4.974486,3.46298 -7.636177,0.52185 z m 9.831167,-5.71297 c 0,-1.893621 3.97527,-5.144961 6.36484,-5.205781 2.90577,-0.0741 1.82412,1.97142 -2.34494,4.434151 -2.68968,1.58881 -4.0199,1.84417 -4.0199,0.77163 z m 37.51913,-13.846511 c 0,-3.37786 -0.36122,-6.14153 -0.803,-6.14153 -0.44164,0 -4.32046,2.17109 -8.61961,4.82469 -4.31519,2.66347 -8.519,4.39065 -9.38453,3.85569 -0.95771,-0.59189 2.42707,-3.32324 8.69771,-7.01861 l 10.26555,-6.04962 -0.41304,-6.67383 c -0.32665,-5.27837 0.0938,-6.99104 2.01039,-8.19086 1.9593,-1.22648 2.799,-1.01112 4.38446,1.1245 1.07858,1.45279 1.55349,3.56326 1.05533,4.68989 -0.49815,1.12662 -1.5667,7.12454 -2.37453,13.32872 -1.64373,12.62405 -4.81873,16.74266 -4.81873,6.25096 z m -16.74961,-19.157 c -3.77506,-0.90834 -9.68304,-6.78054 -10.63403,-10.56957 -1.08743,-4.332611 2.27312,-11.882991 6.53049,-14.67253 2.5183,-1.650075 5.06585,-2.075452 9.14921,-1.527769 14.11107,1.892675 16.14914,20.305509 2.86205,25.857199 -2.45942,1.0276 -4.64183,1.79844 -4.84976,1.71298 -0.20777,-0.0855 -1.58398,-0.44562 -3.05796,-0.80031 z"
     id="path8944" />
  <style
     id="stylebodge1"
     type="text/css">[id^=&quot;polygon&quot;]{fill:#FFF663;fill-opacity:1}</style>
  <style
     id="stylebodge2"
     type="text/css">[id^=&quot;path&quot;]{fill:#FFF663;fill-opacity:1}</style>
</svg>
