<?xml version="1.0" encoding="UTF-8" standalone="no"?>
<!-- Generator: Adobe Illustrator 23.0.1, SVG Export Plug-In . SVG Version: 6.00 Build 0)  -->

<svg
   version="1.1"
   id="Layer_1"
   x="0px"
   y="0px"
   viewBox="0 0 176 176"
   enable-background="new 0 0 176 176"
   xml:space="preserve"
   xmlns:xlink="http://www.w3.org/1999/xlink"
   xmlns="http://www.w3.org/2000/svg"
   xmlns:svg="http://www.w3.org/2000/svg"
   xmlns:ns="&amp;ns_sfw;"><defs
   id="defs11"><linearGradient
   id="linearGradient2945"><stop
     style="stop-color:#656565;stop-opacity:1"
     offset="0"
     id="stop2941" /><stop
     style="stop-color:#000000;stop-opacity:1"
     offset="1"
     id="stop2943" /></linearGradient>
	
	
	
<radialGradient
   xlink:href="#linearGradient2945"
   id="radialGradient2947"
   cx="88"
   cy="88"
   fx="88"
   fy="88"
   r="88"
   gradientUnits="userSpaceOnUse" /></defs>
<metadata
   id="metadata2">
	<ns:sfw>
		<ns:slices />
		<ns:sliceSourceBounds
   bottomLeftOrigin="true"
   height="176"
   width="176"
   x="8"
   y="-184" />
	</ns:sfw>
</metadata>
<path
   id="XMLID_791_"
   style="fill:url(#radialGradient2947);fill-opacity:1"
   d="M 88 0 A 88 88 0 0 0 0 88 A 88 88 0 0 0 88 176 A 88 88 0 0 0 176 88 A 88 88 0 0 0 88 0 z M 88 42 C 113.4 42 134 62.6 134 88 C 134 113.4 113.4 134 88 134 C 62.6 134 42 113.4 42 88 C 42 62.6 62.6 42 88 42 z M 88 46 C 64.9 46 46 64.8 46 88 C 46 111.2 64.8 130 88 130 C 111.2 130 130 111.2 130 88 C 130 64.8 111.1 46 88 46 z M 72 65 L 111 87 L 72 111 L 72 65 z " />
</svg>
