<?xml version="1.0" encoding="UTF-8" standalone="no"?>
<svg
   xmlns:dc="http://purl.org/dc/elements/1.1/"
   xmlns:cc="http://creativecommons.org/ns#"
   xmlns:rdf="http://www.w3.org/1999/02/22-rdf-syntax-ns#"
   xmlns:svg="http://www.w3.org/2000/svg"
   xmlns="http://www.w3.org/2000/svg"
   xmlns:xlink="http://www.w3.org/1999/xlink"
   xmlns:sodipodi="http://sodipodi.sourceforge.net/DTD/sodipodi-0.dtd"
   xmlns:inkscape="http://www.inkscape.org/namespaces/inkscape"
   width="205.66005mm"
   height="207.89409mm"
   viewBox="0 0 205.66004 207.89409"
   version="1.1"
   id="svg8"
   sodipodi:docname="internetarchive-logo.svg"
   inkscape:version="0.92.2 5c3e80d, 2017-08-06">
  <sodipodi:namedview
     pagecolor="#ffffff"
     bordercolor="#666666"
     borderopacity="1"
     objecttolerance="10"
     gridtolerance="10"
     guidetolerance="10"
     inkscape:pageopacity="0"
     inkscape:pageshadow="2"
     inkscape:window-width="1799"
     inkscape:window-height="1045"
     id="namedview67"
     showgrid="false"
     inkscape:zoom="0.30035326"
     inkscape:cx="-826.58679"
     inkscape:cy="392.87072"
     inkscape:window-x="0"
     inkscape:window-y="0"
     inkscape:window-maximized="0"
     inkscape:current-layer="svg8" />
  <defs
     id="defs2">
    <linearGradient
       inkscape:collect="always"
       id="linearGradient876">
      <stop
         style="stop-color:#000099;stop-opacity:1"
         offset="0"
         id="stop872" />
      <stop
         style="stop-color:#000000;stop-opacity:1"
         offset="1"
         id="stop874" />
    </linearGradient>
    <radialGradient
       inkscape:collect="always"
       xlink:href="#linearGradient876"
       id="radialGradient878"
       cx="321.47159"
       cy="102.59384"
       fx="321.47159"
       fy="102.59384"
       r="55.993671"
       gradientTransform="matrix(-3.391985,-0.05948513,0.01983407,-1.1309866,1409.8635,237.74887)"
       gradientUnits="userSpaceOnUse" />
  </defs>
  <metadata
     id="metadata5">
    <rdf:RDF>
      <cc:Work
         rdf:about="">
        <dc:format>image/svg+xml</dc:format>
        <dc:type
           rdf:resource="http://purl.org/dc/dcmitype/StillImage" />
        <dc:title />
      </cc:Work>
    </rdf:RDF>
  </metadata>
  <style
     type="text/css"
     id="style3111">
	.st0{fill:#333333;}
</style>
  <style
     type="text/css"
     id="style2">
	.st0{fill:none;}
	.st1{fill:#F4481E;}
	.st2{fill:url(#SVGID_1_);}
	.st3{opacity:0.1;fill:#FFFFFF;enable-background:new    ;}
	.st4{fill:#FFD119;}
	.st5{fill:#FF8C00;}
	.st6{fill:url(#SVGID_2_);}
	.st7{fill:#FAFAFA;}
	.st8{opacity:0.3;fill:#FFFFFF;enable-background:new    ;}
</style>
  <g
     transform="matrix(1.5868432,0,0,1.5868432,-407.29497,-58.853304)"
     id="g4663"
     style="fill-opacity:1;fill:url(#radialGradient878)">
    <rect
       id="rect21"
       y="160.1889"
       x="265.47791"
       height="5.7427711"
       width="111.98734"
       style="stroke-width:0.26458287;fill-opacity:1;fill:url(#radialGradient878)" />
    <rect
       id="rect23"
       y="149.14522"
       x="269.89642"
       height="7.9520378"
       width="103.37253"
       style="stroke-width:0.26458287;fill-opacity:1;fill:url(#radialGradient878)" />
    <rect
       id="rect25"
       y="58.58379"
       x="269.23233"
       height="11.044218"
       width="102.82219"
       style="stroke-width:0.26458287;fill-opacity:1;fill:url(#radialGradient878)" />
    <polygon
       id="polygon27"
       points="539.51,162.01 551.19,149.07 347.7,101.49 144.21,149.07 155.9,162.01 347.7,162.01 "
       transform="matrix(0.26458286,0,0,0.26458286,228.64797,12.403498)"
       style="fill-opacity:1;fill:url(#radialGradient878)" />
    <path
       id="path47"
       d="m 284.06485,104.58946 c -0.0886,-5.423951 -0.22913,-10.848164 -0.44159,-16.268408 -0.20002,-5.106979 -0.52916,-10.20893 -0.77761,-15.314321 -0.0214,-0.440795 -0.20822,-0.536045 -0.57388,-0.615949 -1.50627,-0.328347 -3.02048,-0.482599 -4.54103,-0.48498 -1.52056,0.0024 -3.03477,0.156633 -4.54104,0.48498 -0.36565,0.07964 -0.55245,0.175154 -0.57388,0.615949 -0.24844,5.105391 -0.57758,10.207342 -0.77761,15.314321 -0.21246,5.420244 -0.35322,10.844457 -0.44159,16.268408 -0.0627,3.84386 -0.0238,7.69063 0.037,11.53555 0.0672,4.26534 0.16193,8.53174 0.3347,12.7939 0.18521,4.57411 0.47149,9.14451 0.72258,13.71571 0.0481,0.87604 0.13785,1.74969 0.20637,2.60112 1.68778,0.4392 3.36126,0.69294 5.03369,0.71384 1.67243,-0.0209 3.34565,-0.27464 5.03369,-0.71384 0.0685,-0.85143 0.15796,-1.72535 0.20611,-2.60112 0.25109,-4.5712 0.53737,-9.1416 0.72258,-13.71571 0.17277,-4.26216 0.26749,-8.52856 0.33469,-12.7939 0.0582,-3.84439 0.0952,-7.69143 0.0344,-11.53582 z"
       style="stroke-width:0.26458287;fill-opacity:1;fill:url(#radialGradient878)"
       inkscape:connector-curvature="0" />
    <path
       id="path49"
       d="m 312.06036,104.58946 c -0.0886,-5.423951 -0.22939,-10.848164 -0.44185,-16.268408 -0.20029,-5.106979 -0.52943,-10.20893 -0.77761,-15.314321 -0.0214,-0.440795 -0.20796,-0.536045 -0.57388,-0.615949 -1.50601,-0.328347 -3.02048,-0.482599 -4.54077,-0.48498 -1.52056,0.0024 -3.03477,0.156633 -4.54104,0.48498 -0.36565,0.07964 -0.55245,0.175154 -0.57388,0.615949 -0.24818,5.105391 -0.57758,10.207342 -0.77761,15.314321 -0.21246,5.420244 -0.35321,10.844457 -0.44158,16.268408 -0.0627,3.84386 -0.0238,7.69063 0.0368,11.53555 0.0675,4.26534 0.16193,8.53174 0.3347,12.7939 0.18547,4.57411 0.47149,9.14451 0.72258,13.71571 0.0481,0.87604 0.13784,1.74969 0.20611,2.60112 1.68803,0.4392 3.36152,0.69294 5.03368,0.71384 1.67243,-0.0209 3.34565,-0.27464 5.03369,-0.71384 0.0683,-0.85143 0.15796,-1.72535 0.20611,-2.60112 0.25083,-4.5712 0.53711,-9.1416 0.72231,-13.71571 0.17278,-4.26216 0.2675,-8.52856 0.33497,-12.7939 0.0609,-3.84439 0.0979,-7.69143 0.037,-11.53582 z"
       style="stroke-width:0.26458287;fill-opacity:1;fill:url(#radialGradient878)"
       inkscape:connector-curvature="0" />
    <path
       id="path51"
       d="m 344.52733,104.58946 c -0.0886,-5.423951 -0.22913,-10.848164 -0.44186,-16.268408 -0.20002,-5.106979 -0.52916,-10.20893 -0.77734,-15.314321 -0.0217,-0.440795 -0.20823,-0.536045 -0.57415,-0.615949 -1.506,-0.328347 -3.02021,-0.482599 -4.54077,-0.48498 -1.52056,0.0024 -3.03476,0.156633 -4.54103,0.48498 -0.36566,0.07964 -0.55245,0.175154 -0.57388,0.615949 -0.24818,5.105391 -0.57759,10.207342 -0.77735,15.314321 -0.21272,5.420244 -0.35322,10.844457 -0.44185,16.268408 -0.0627,3.84386 -0.0238,7.69063 0.037,11.53555 0.0675,4.26534 0.16192,8.53174 0.3347,12.7939 0.18547,4.57411 0.47148,9.14451 0.72257,13.71571 0.0484,0.87604 0.13785,1.74969 0.20611,2.60112 1.68804,0.4392 3.36126,0.69294 5.03369,0.71384 1.67243,-0.0209 3.34565,-0.27464 5.03369,-0.71384 0.0683,-0.85143 0.15796,-1.72535 0.20611,-2.60112 0.25109,-4.5712 0.5371,-9.1416 0.72258,-13.71571 0.1725,-4.26216 0.26722,-8.52856 0.33469,-12.7939 0.0582,-3.84439 0.0979,-7.69143 0.0344,-11.53582 z"
       style="stroke-width:0.26458287;fill-opacity:1;fill:url(#radialGradient878)"
       inkscape:connector-curvature="0" />
    <path
       id="path53"
       d="m 371.86138,104.58946 c -0.0886,-5.423951 -0.22913,-10.848164 -0.44159,-16.268408 -0.20029,-5.106979 -0.52943,-10.20893 -0.77761,-15.314321 -0.0217,-0.440795 -0.20822,-0.536045 -0.57414,-0.615949 -1.50574,-0.328347 -3.02022,-0.482599 -4.54077,-0.48498 -1.5203,0.0024 -3.03477,0.156633 -4.54077,0.48498 -0.36592,0.07964 -0.55245,0.175154 -0.57388,0.615949 -0.24845,5.105391 -0.57785,10.207342 -0.77761,15.314321 -0.21246,5.420244 -0.35322,10.844457 -0.44186,16.268408 -0.0627,3.84386 -0.0238,7.69063 0.037,11.53555 0.0675,4.26534 0.16193,8.53174 0.33497,12.7939 0.1852,4.57411 0.47148,9.14451 0.72231,13.71571 0.0484,0.87604 0.13785,1.74969 0.20611,2.60112 1.6883,0.4392 3.36152,0.69294 5.03369,0.71384 1.67243,-0.0209 3.34591,-0.27464 5.03369,-0.71384 0.0685,-0.85143 0.15795,-1.72535 0.20611,-2.60112 0.25108,-4.5712 0.53736,-9.1416 0.72257,-13.71571 0.17277,-4.26216 0.26723,-8.52856 0.3347,-12.7939 0.0609,-3.84439 0.10054,-7.69143 0.037,-11.53582 z"
       style="stroke-width:0.26458287;fill-opacity:1;fill:url(#radialGradient878)"
       inkscape:connector-curvature="0" />
  </g>
</svg>
