<?xml version="1.0" encoding="UTF-8" standalone="no"?>
<svg
   xmlns:dc="http://purl.org/dc/elements/1.1/"
   xmlns:cc="http://creativecommons.org/ns#"
   xmlns:rdf="http://www.w3.org/1999/02/22-rdf-syntax-ns#"
   xmlns:svg="http://www.w3.org/2000/svg"
   xmlns="http://www.w3.org/2000/svg"
   xmlns:xlink="http://www.w3.org/1999/xlink"
   xmlns:sodipodi="http://sodipodi.sourceforge.net/DTD/sodipodi-0.dtd"
   xmlns:inkscape="http://www.inkscape.org/namespaces/inkscape"
   id="Layer_1"
   style="enable-background:new 0 0 32 32;"
   xml:space="preserve"
   height="32px"
   viewBox="0 0 32 32"
   width="32px"
   version="1.1"
   sodipodi:docname="output.svg"
   inkscape:version="0.92.2 5c3e80d, 2017-08-06"><defs
     id="defs7"><linearGradient
       inkscape:collect="always"
       id="linearGradient818"><stop
         style="stop-color:#656565;stop-opacity:1"
         offset="0"
         id="stop814" /><stop
         style="stop-color:#000000;stop-opacity:1"
         offset="1"
         id="stop816" /></linearGradient><radialGradient
       inkscape:collect="always"
       xlink:href="#linearGradient818"
       id="radialGradient820"
       cx="16"
       cy="16"
       fx="16"
       fy="16"
       r="16"
       gradientTransform="matrix(-3.1610539,1.2725373e-4,-3.964232e-5,-0.98520594,66.577497,31.761259)"
       gradientUnits="userSpaceOnUse" /></defs><sodipodi:namedview
     pagecolor="#ffffff"
     bordercolor="#666666"
     borderopacity="1"
     objecttolerance="10"
     gridtolerance="10"
     guidetolerance="10"
     inkscape:pageopacity="0"
     inkscape:pageshadow="2"
     inkscape:window-width="1375"
     inkscape:window-height="807"
     id="namedview5"
     showgrid="false"
     inkscape:zoom="7.375"
     inkscape:cx="-8.7457627"
     inkscape:cy="16"
     inkscape:window-x="541"
     inkscape:window-y="190"
     inkscape:window-maximized="0"
     inkscape:current-layer="Layer_1" /><metadata
     id="metadata3059"><rdf:RDF><cc:Work
         rdf:about=""><dc:format>image/svg+xml</dc:format><dc:type
           rdf:resource="http://purl.org/dc/dcmitype/StillImage" /><dc:title /></cc:Work></rdf:RDF></metadata><path
     id="path3053"
     d="M14,2c-0.781,0-1.313,0.438-2,1.016l-6,4.984h-4c-1.1,0-2,0.9-2,2v12c0,1.1,0.9,2,2,2h4l6,4.984c0.688,0.579,1.219,1.016,2,1.016,1.219,0,2-0.984,2-2v-24c0-1.016-0.781-2-2-2zm-2,21.784l-4.555-3.784h-3.445v-8h3.445l4.555-3.784v15.568zm8-17.784c-1.25,0-2,1.047-2,2,0,1.422,2,2.781,2,8s-2,6.578-2,8c0,0.953,0.75,2,2,2,1.016,0,1.625-0.547,2.281-2,1.229-2.721,1.719-5.328,1.719-8s-0.49-5.279-1.719-8c-0.656-1.453-1.265-2-2.281-2zm9.146-2c-0.838-1.771-1.63-2-2.333-2-1.188,0-2,1-2,2,0,1.672,3.187,4.531,3.187,12s-3.188,10.328-3.188,12c0,1,0.813,2,2,2,0.703,0,1.495-0.229,2.333-2,0.918-1.937,2.855-5.844,2.855-12s-1.937-10.062-2.854-12z"
     style="fill-opacity:1;fill:url(#radialGradient820)" /></svg>