<?xml version="1.0" encoding="UTF-8" standalone="no"?>
<svg id="svg2" stroke-linejoin="round" xmlns:rdf="http://www.w3.org/1999/02/22-rdf-syntax-ns#" xmlns="http://www.w3.org/2000/svg" fill-rule="evenodd" xml:space="preserve" stroke-linecap="round" height="600" width="600.09" version="1.1" stroke-miterlimit="1.4142" xmlns:cc="http://creativecommons.org/ns#" xmlns:dc="http://purl.org/dc/elements/1.1/"><metadata id="metadata74"><rdf:RDF><cc:Work rdf:about=""><dc:format>image/svg+xml</dc:format><dc:type rdf:resource="http://purl.org/dc/dcmitype/StillImage"/><dc:title/></cc:Work></rdf:RDF></metadata><g id="g3318" fill-rule="evenodd" transform="matrix(3.3338056,0,0,3.3333333,-720.10201,-1186.3)"><g id="g3260"><path id="path3262" fill="#314350" d="m216,355.89,180,0,0,180-180,0,0-180z"/><path id="path3264" fill="#0bacd3" d="m343.13,468.54,0-13.482,4.461,0,0,13.482-4.461,0z"/><path id="path3266" fill="#0bacd3" d="m359.87,468.54,6.716-13.482-5.135,0-4.085,8.201-4.085-8.201-5.136,0,6.717,13.482,5.008,0z"/><path id="path3268" fill="#0bacd3" d="m367.47,468.54,0-13.482,14.131,0,0,3.914-9.669,0,0,0.87,9.669,0,0,3.914-9.669,0,0,0.87,9.669,0,0,3.914-14.131,0z"/><path id="path3270" fill="#0bacd3" d="m305.39,455.06,14.069,0c1.833,0,3.331,1.499,3.331,3.331v6.82c0,1.832-1.498,3.331-3.331,3.331h-14.069v-13.482zm4.461,4.784,0,3.914,7.631,0c0.466,0,0.847-0.381,0.847-0.847v-2.22c0-0.466-0.381-0.847-0.847-0.847h-7.631z"/><path id="path3272" fill="#0bacd3" d="m323.94,455.06,14.069,0c1.832,0,3.331,1.499,3.331,3.331v2.036c0,1.794-1.438,3.269-3.219,3.329l4.573,4.786h-5.376l-3.167-3.314h-5.75v3.314h-4.461v-13.482zm4.461,3.914,0,2.445,7.631,0c0.465,0,0.847-0.381,0.847-0.847v-0.751c0-0.466-0.381-0.847-0.847-0.847h-7.631z"/><path id="path3274" fill="#a1d7eb" d="m230.4,455.06,12.723,0c1.538,0,2.432,0.703,2.432,2.233v3.466c1.468,0,2.029,0.425,2.029,1.623v2.829c0,2.19-1.07,3.331-3.582,3.331h-13.602v-13.482zm4.461,3.914,0,1.785,6.106,0c0.372,0,0.678-0.305,0.678-0.677v-0.43c0-0.372-0.305-0.678-0.678-0.678h-6.106zm0,4.04,0,1.614,7.584,0c0.372,0,0.677-0.306,0.677-0.677v-0.259c0-0.372-0.305-0.678-0.677-0.678h-7.584z"/><path id="path3276" fill="#a1d7eb" d="m271.57,455.06,14.398,0,0,3.914-11.898,0,0,0.87,9.759,0c1.516,0,2.139,0.748,2.139,2.238v4.499c0,1.078-0.883,1.961-1.961,1.961h-14.398v-3.914h11.898v-0.87h-9.954c-1.898,0-1.944-1.164-1.944-2.389v-4.348c0-1.079,0.882-1.961,1.961-1.961z"/><path id="path3278" fill="#a1d7eb" d="m289.64,455.06,14.398,0,0,3.914-11.898,0,0,0.87,9.758,0c1.516,0,2.14,0.748,2.14,2.238v4.499c0,1.078-0.883,1.961-1.961,1.961h-14.398v-3.914h11.898v-0.87h-9.954c-1.898,0-1.944-1.164-1.944-2.389v-4.348c0-1.079,0.882-1.961,1.961-1.961z"/><path id="path3280" fill="#a1d7eb" d="m255.88,455.06,4.879,0,7.296,13.482-5.072,0-1.437-2.653-6.453,0-1.436,2.653-5.073,0,7.296-13.482,0,0zm3.974,7.701-1.535-2.836-1.534,2.836,3.069,0z"/><path id="path3282" fill="#FFF" d="m230.76,427.7,7.728,0,0.318,0,0,0.319,0,2.59,0,0.319-0.318,0-7.728,0-0.319,0,0-0.319,0-2.59,0-0.319,0.319,0,0,0zm7.409,0.637-7.091,0,0,1.954,7.091,0,0-1.954zm-7.409,21.679,7.728,0,0.318,0,0,0.319,0,2.591,0,0.318-0.318,0-7.728,0-0.319,0,0-0.318,0-2.591,0-0.319,0.319,0zm7.409,0.637-7.091,0,0,1.954,7.091,0,0-1.954zm0.319-18.49,0.318,0,0,0.319,0,2.591,0,0.319-0.318,0-7.728,0-0.319,0,0-0.319,0-2.91,8.047,0zm-0.319,0.638-7.09,0,0,1.953,7.09,0,0-1.953zm0.319,3.826,0.318,0,0,0.318,0,2.591,0,0.318-0.318,0-7.728,0-0.319,0,0-0.318,0-2.909,8.047,0zm-0.319,0.637-7.09,0,0,1.953,7.09,0,0-1.953zm0.319,3.826,0.318,0,0,0.318,0,2.591,0,0.319-0.318,0-7.728,0-0.319,0,0-0.319,0-2.909,8.047,0zm-0.319,0.637-7.09,0,0,1.954,7.09,0,0-1.954zm0.319,3.826,0.318,0,0,0.318,0,2.591,0,0.319-0.318,0-7.728,0-0.319,0,0-0.319,0-2.909,8.047,0zm-0.319,0.637-7.09,0,0,1.953,7.09,0,0-1.953z"/><path id="path3284" fill="#FFF" d="m261.41,427.7,7.727,0,0.319,0,0,0.319,0,2.59,0,0.319-0.319,0-7.727,0-0.319,0,0-0.319,0-2.59,0-0.319,0.319,0,0,0zm7.409,0.637-7.091,0,0,1.954,7.091,0,0-1.954zm-7.409,21.679,7.727,0,0.319,0,0,0.319,0,2.591,0,0.318-0.319,0-7.727,0-0.319,0,0-0.318,0-2.591,0-0.319,0.319,0zm7.409,0.637-7.091,0,0,1.954,7.091,0,0-1.954zm0.319-18.49,0.318,0,0,0.319,0,2.591,0,0.319-0.318,0-7.728,0-0.319,0,0-0.319,0-2.91,8.047,0zm-0.319,0.638-7.09,0,0,1.953,7.09,0,0-1.953zm0.319,3.826,0.318,0,0,0.318,0,2.591,0,0.318-0.318,0-7.728,0-0.319,0,0-0.318,0-2.909,8.047,0zm-0.319,0.637-7.09,0,0,1.953,7.09,0,0-1.953zm0.319,3.826,0.318,0,0,0.318,0,2.591,0,0.319-0.318,0-7.728,0-0.319,0,0-0.319,0-2.909,8.047,0zm-0.319,0.637-7.09,0,0,1.954,7.09,0,0-1.954zm0.319,3.826,0.318,0,0,0.318,0,2.591,0,0.319-0.318,0-7.728,0-0.319,0,0-0.319,0-2.909,8.047,0zm-0.319,0.637-7.09,0,0,1.953,7.09,0,0-1.953z"/><path id="path3286" fill="#FFF" d="m322.4,450.01,7.728,0,0.319,0,0,0.319,0,2.591,0,0.318-0.319,0-7.728,0-0.318,0,0-0.318,0-2.591,0-0.319,0.318,0,0,0zm7.41,0.637-7.091,0,0,1.954,7.091,0,0-1.954z"/><path id="path3288" fill="#FFF" d="m240.98,427.7,7.728,0,0.319,0,0,0.319,0,2.59,0,0.319-0.319,0-7.728,0-0.319,0,0-0.319,0-2.59,0-0.319,0.319,0,0,0zm0-4.463,7.728,0,0.319,0,0,0.319,0,2.59,0,0.319-0.319,0-7.728,0-0.319,0,0-0.319,0-2.59,0-0.319,0.319,0zm7.409,0.637-7.09,0,0,1.954,7.09,0,0-1.954zm0,4.463-7.09,0,0,1.954,7.09,0,0-1.954zm-7.409,21.679,7.728,0,0.319,0,0,0.319,0,2.591,0,0.318-0.319,0-7.728,0-0.319,0,0-0.318,0-2.591,0-0.319,0.319,0zm7.409,0.637-7.09,0,0,1.954,7.09,0,0-1.954zm0.319-18.49,0.319,0,0,0.319,0,2.591,0,0.319-0.319,0-7.728,0-0.318,0,0-0.319,0-2.91,8.046,0zm-0.318,0.638-7.091,0,0,1.953,7.091,0,0-1.953zm0.318,3.826,0.319,0,0,0.318,0,2.591,0,0.318-0.319,0-7.728,0-0.318,0,0-0.318,0-2.909,8.046,0zm-0.318,0.637-7.091,0,0,1.953,7.091,0,0-1.953zm0.318,3.826,0.319,0,0,0.318,0,2.591,0,0.319-0.319,0-7.728,0-0.318,0,0-0.319,0-2.909,8.046,0zm-0.318,0.637-7.091,0,0,1.954,7.091,0,0-1.954zm0.318,3.826,0.319,0,0,0.318,0,2.591,0,0.319-0.319,0-7.728,0-0.318,0,0-0.319,0-2.909,8.046,0zm-0.318,0.637-7.091,0,0,1.953,7.091,0,0-1.953z"/><path id="path3290" fill="#FFF" d="m271.63,450.01,7.728,0,0.318,0,0,0.319,0,2.591,0,0.318-0.318,0-7.728,0-0.319,0,0-0.318,0-2.591,0-0.319,0.319,0,0,0zm7.409,0.637-7.091,0,0,1.954,7.091,0,0-1.954zm0.319-18.49,0.318,0,0,0.319,0,2.591,0,0.319-0.318,0-7.728,0-0.319,0,0-0.319,0-2.91,8.047,0zm-0.319,0.638-7.09,0,0,1.953,7.09,0,0-1.953zm0.319,3.826,0.318,0,0,0.318,0,2.591,0,0.318-0.318,0-7.728,0-0.319,0,0-0.318,0-2.909,8.047,0zm-0.319,0.637-7.09,0,0,1.953,7.09,0,0-1.953zm0.319,3.826,0.318,0,0,0.318,0,2.591,0,0.319-0.318,0-7.728,0-0.319,0,0-0.319,0-2.909,8.047,0zm-0.319,0.637-7.09,0,0,1.954,7.09,0,0-1.954zm0.319,3.826,0.318,0,0,0.318,0,2.591,0,0.319-0.318,0-7.728,0-0.319,0,0-0.319,0-2.909,8.047,0zm-0.319,0.637-7.09,0,0,1.953,7.09,0,0-1.953z"/><path id="path3292" fill="#FFF" d="m332.62,450.01,7.728,0,0.318,0,0,0.319,0,2.591,0,0.318-0.318,0-7.728,0-0.319,0,0-0.318,0-2.591,0-0.319,0.319,0,0,0zm7.409,0.637-7.091,0,0,1.954,7.091,0,0-1.954z"/><path id="path3294" fill="#FFF" d="m251.2,427.7,7.728,0,0.319,0,0,0.319,0,2.59,0,0.319-0.319,0-7.728,0-0.318,0,0-0.319,0-2.59,0-0.319,0.318,0,0,0zm0-4.463,7.728,0,0.319,0,0,0.319,0,2.59,0,0.319-0.319,0-7.728,0-0.318,0,0-0.319,0-2.59,0-0.319,0.318,0zm7.41,0.637-7.091,0,0,1.954,7.091,0,0-1.954zm0,4.463-7.091,0,0,1.954,7.091,0,0-1.954zm-7.41,21.679,7.728,0,0.319,0,0,0.319,0,2.591,0,0.318-0.319,0-7.728,0-0.318,0,0-0.318,0-2.591,0-0.319,0.318,0zm7.41,0.637-7.091,0,0,1.954,7.091,0,0-1.954zm0.318-18.49,0.319,0,0,0.319,0,2.591,0,0.319-0.319,0-7.728,0-0.318,0,0-0.319,0-2.91,8.046,0zm-0.318,0.638-7.091,0,0,1.953,7.091,0,0-1.953zm0.318,3.826,0.319,0,0,0.318,0,2.591,0,0.318-0.319,0-7.728,0-0.318,0,0-0.318,0-2.909,8.046,0zm-0.318,0.637-7.091,0,0,1.953,7.091,0,0-1.953zm0.318,3.826,0.319,0,0,0.318,0,2.591,0,0.319-0.319,0-7.728,0-0.318,0,0-0.319,0-2.909,8.046,0zm-0.318,0.637-7.091,0,0,1.954,7.091,0,0-1.954zm0.318,3.826,0.319,0,0,0.318,0,2.591,0,0.319-0.319,0-7.728,0-0.318,0,0-0.319,0-2.909,8.046,0zm-0.318,0.637-7.091,0,0,1.953,7.091,0,0-1.953z"/><path id="path3296" fill="#FFF" d="m281.85,450.01,7.728,0,0.319,0,0,0.319,0,2.591,0,0.318-0.319,0-7.728,0-0.319,0,0-0.318,0-2.591,0-0.319,0.319,0,0,0zm7.409,0.637-7.09,0,0,1.954,7.09,0,0-1.954zm0.319-14.026,0.319,0,0,0.318,0,2.591,0,0.318-0.319,0-7.728,0-0.318,0,0-0.318,0-2.909,8.046,0zm-0.318,0.637-7.091,0,0,1.953,7.091,0,0-1.953zm0.318,3.826,0.319,0,0,0.318,0,2.591,0,0.319-0.319,0-7.728,0-0.318,0,0-0.319,0-2.909,8.046,0zm-0.318,0.637-7.091,0,0,1.954,7.091,0,0-1.954zm0.318,3.826,0.319,0,0,0.318,0,2.591,0,0.319-0.319,0-7.728,0-0.318,0,0-0.319,0-2.909,8.046,0zm-0.318,0.637-7.091,0,0,1.953,7.091,0,0-1.953z"/><path id="path3298" fill="#FFF" d="m342.83,450.01,7.728,0,0.318,0,0,0.319,0,2.591,0,0.318-0.318,0-7.728,0-0.319,0,0-0.318,0-2.591,0-0.319,0.319,0,0,0zm7.409,0.637-7.09,0,0,1.954,7.09,0,0-1.954z"/><path id="path3300" fill="#FFF" d="m292.06,450.01,7.728,0,0.319,0,0,0.319,0,2.591,0,0.318-0.319,0-7.728,0-0.318,0,0-0.318,0-2.591,0-0.319,0.318,0,0,0zm7.41,0.637-7.091,0,0,1.954,7.091,0,0-1.954zm0.318-9.563,0.319,0,0,0.318,0,2.591,0,0.319-0.319,0-7.728,0-0.318,0,0-0.319,0-2.909,8.046,0zm-0.318,0.637-7.091,0,0,1.954,7.091,0,0-1.954zm0.318,3.826,0.319,0,0,0.318,0,2.591,0,0.319-0.319,0-7.728,0-0.318,0,0-0.319,0-2.909,8.046,0zm-0.318,0.637-7.091,0,0,1.953,7.091,0,0-1.953z"/><path id="path3302" fill="#FFF" d="m353.05,450.01,7.728,0,0.319,0,0,0.319,0,2.591,0,0.318-0.319,0-7.728,0-0.318,0,0-0.318,0-2.591,0-0.319,0.318,0,0,0zm7.41,0.637-7.091,0,0,1.954,7.091,0,0-1.954z"/><path id="path3304" fill="#FFF" d="m302.28,450.01,7.727,0,0.319,0,0,0.319,0,2.591,0,0.318-0.319,0-7.727,0-0.319,0,0-0.318,0-2.591,0-0.319,0.319,0,0,0zm7.409,0.637-7.091,0,0,1.954,7.091,0,0-1.954zm0.319-5.1,0.318,0,0,0.318,0,2.591,0,0.319-0.318,0-7.728,0-0.319,0,0-0.319,0-2.909,8.047,0zm-0.319,0.637-7.091,0,0,1.953,7.091,0,0-1.953z"/><path id="path3306" fill="#FFF" d="m363.27,450.01,7.729,0,0.318,0,0,0.319,0,2.591,0,0.318-0.318,0-7.729,0-0.318,0,0-0.318,0-2.591,0-0.319,0.318,0,0,0zm7.41,0.637-7.091,0,0,1.954,7.091,0,0-1.954zm0.319-5.1,0.318,0,0,0.318,0,2.591,0,0.319-0.318,0-7.728,0-0.319,0,0-0.319,0-2.909,8.047,0zm-0.319,0.637-7.091,0,0,1.953,7.091,0,0-1.953z"/><path id="path3308" fill="#FFF" d="m312.5,450.01,7.728,0,0.319,0,0,0.319,0,2.591,0,0.318-0.319,0-7.728,0-0.319,0,0-0.318,0-2.591,0-0.319,0.319,0,0,0zm7.409,0.637-7.09,0,0,1.954,7.09,0,0-1.954z"/><path id="path3310" fill="#FFF" d="m373.48,450.01,7.728,0,0.318,0,0,0.319,0,2.591,0,0.318-0.318,0-7.728,0-0.319,0,0-0.318,0-2.591,0-0.319,0.319,0,0,0zm7.409,0.637-7.091,0,0,1.954,7.091,0,0-1.954zm0.319-9.563,0.319,0,0,0.318,0,2.591,0,0.319-0.319,0-7.728,0-0.319,0,0-0.319,0-2.909,8.047,0zm-0.318,0.637-7.091,0,0,1.954,7.091,0,0-1.954zm0.318,3.826,0.319,0,0,0.318,0,2.591,0,0.319-0.319,0-7.728,0-0.319,0,0-0.319,0-2.909,8.047,0zm-0.318,0.637-7.091,0,0,1.953,7.091,0,0-1.953z"/></g></g></svg>
