<?xml version="1.0" encoding="UTF-8" standalone="no"?>
<!-- Created with Inkscape (http://www.inkscape.org/) -->
<svg id="svg2" xmlns:rdf="http://www.w3.org/1999/02/22-rdf-syntax-ns#" xmlns="http://www.w3.org/2000/svg" height="14" width="14" version="1.1" xmlns:cc="http://creativecommons.org/ns#" xmlns:dc="http://purl.org/dc/elements/1.1/">
 <metadata id="metadata7">
  <rdf:RDF>
   <cc:Work rdf:about="">
    <dc:format>image/svg+xml</dc:format>
    <dc:type rdf:resource="http://purl.org/dc/dcmitype/StillImage"/>
    <dc:title/>
   </cc:Work>
  </rdf:RDF>
 </metadata>
 <g id="layer1" transform="translate(-259.1901,-535.50503)">
  <g id="g3764" transform="matrix(0.06202532,0,0,0.06202532,243.11375,515.42181)">
   <path id="path2985" d="m394.29,436.65c0,62.329-50.528,112.86-112.86,112.86-62.329,0-112.86-50.528-112.86-112.86,0-62.329,50.528-112.86,112.86-112.86,62.329,0,112.86,50.528,112.86,112.86z" transform="translate(90.618683,0)" fill="#000"/>
   <g id="text2987" style="letter-spacing:0px;word-spacing:0px;" font-weight="normal" transform="matrix(6.7690567,0,0,-9.0783159,-794.40544,6166.2415)" font-size="40px" font-style="normal" font-family="Sans" line-height="125%" fill="#FFF">
    <path id="path2994" d="m174.24,623.18,10.605,10.879-3.9258,0-8.5938-7.7148-8.5938,7.7148-3.9258,0,10.605-10.879,3.8281,0" fill="#FFF"/>
   </g>
  </g>
 </g>
</svg>
