<?xml version="1.0" encoding="UTF-8" standalone="no"?>
<svg id="svg2" stroke-linejoin="round" xmlns:rdf="http://www.w3.org/1999/02/22-rdf-syntax-ns#" xmlns="http://www.w3.org/2000/svg" fill-rule="evenodd" xml:space="preserve" stroke-linecap="round" height="5461px" width="5461px" version="1.1" stroke-miterlimit="1.4142" clip-rule="evenodd" xmlns:cc="http://creativecommons.org/ns#" xmlns:dc="http://purl.org/dc/elements/1.1/"><metadata id="metadata74"><rdf:RDF><cc:Work rdf:about=""><dc:format>image/svg+xml</dc:format><dc:type rdf:resource="http://purl.org/dc/dcmitype/StillImage"/><dc:title/></cc:Work></rdf:RDF></metadata><g id="g4"><g id="Logo"><g id="The Cube"><g id="g8"><path id="path10" d="M2725,388.95v2523.4h-2504.7l2504.7-2523.4z" stroke="#7294F4" stroke-width="1px" fill="#7294F4"/></g><g id="g12"><path id="path14" d="M2725,5448.7v-2539.1h-2504.7l2504.7,2539.1z" stroke="#546DB2" stroke-width="1px" fill="#546DB2"/></g><g id="g16"><path id="path18" d="M5241,2932.9l-2520.8-3.7,3.7-2539.6,2517.1,2543.3z" stroke="#546DB2" stroke-width="1px" fill="#546DB2"/></g><g id="g20"><path id="path22" d="M5241,2924.3l-2520.8,3.8,3.7,2519.9,2517.1-2523.7z" stroke="#303F6A" stroke-width="1px" fill="#303F6A"/></g></g><g id="g24" stroke="#000" fill="#F2F2F2"><path id="path26" d="M737.98,3656.1s-87.88,467.2-32.71,521.8,50.23-15.3,141.93,1.1c91.69,16.3,64.25,60.2,64.25,60.2l529.55-1.7,235.8-91.8,18.1-422.4-207.7-119.6-749.22,52.4z" stroke-width="69.33px"/><path id="path28" d="M860.79,3479.3l81.75-343,321.56-41.3,260.5,20.6h253.6l102.3,151.3-20.5,302.6-299.3,19.8-751.57,33.6,51.66-143.6z" stroke-width="69.33px"/><path id="path30" d="M1704,4145.6l136.8,67.1h142.7l99-100.7,88.6-250.2,92.9-278.7-159-107.5-148,61-156.4,190.9-96.3,218.4-0.3,199.7z" stroke-width="69.33px"/><path id="path32" d="M1213.4,3015.8v-203.8l128.2-94.6,231.4-60.3h223.5l213.7-19.1,159.4,56.9,90.6,79.8-12.9,252.8-239.3,65.6-548.4-19.8-246.2-57.5z" stroke-width="69.33px"/><path id="path34" d="M2081.9,3406.8l137.5-219.2c80.8-73.7,202.6-155.6,239.8-199l116.3,28.8c54.8-6.8,71.3,83.7,119.9,148.3l-97.5,110.4-190.1,204.6-203.8,56-122.1-129.9z" stroke-width="69.33px"/><path id="path36" d="M3147.9,3027.7l-246.8-74-215.1,48.2v219.2l197,55.9,149.7,74.7,144.6,73.4,100.4-116.4-13.7-196.1-116.1-84.9z" stroke-width="69.33px"/><path id="path38" d="M3382.5,3266.4l149.7,73.9,194.8,115.2,73.1,223.7-212.9,155.6-236.5-251.9-127.3-154,159.1-162.5z" stroke-width="69.33px"/><path id="path40" d="M3861.3,3715.8l127.3,211.8,42.1,211.3-134,90.5c-113.9,1.3-140.8-62.8-181.1-122.6-45.3-59.7-123.8-130.2-119.2-234.4l109-124.6,155.9-32z" stroke-width="69.33px"/><path id="path42" d="M1399.1,2580.2l169.5-182.3,227.3-55.1,96.9,110.2-48.5,149.5-285.1,46.5-160.1-68.8z" stroke-width="69.33px"/><path id="path44" d="M1667.4,2136.6l197.7-94.7,216.8-128.1h456.6l123.8,197.7-67.1,115.3-444.5,55h-308.7c-144.9,42.9-203.1-5.6-174.6-145.2z" stroke-width="69.33px"/><path id="path46" d="M1957.9,2594c142.5,26.5,261.4,45.9,333.8,19.4l311-5.6c157.2,2.6,267.3-19.7,330.5-66.8-10.8-119.9-57.3-215.7-139.6-287.5-80-13.3-162-28.7-268.9-15.4-91.1-24-223.5-8.5-374.3,15.4-51.1-1.6-112.2,18.5-183.1,60.2l-9.4,280.3z" stroke-width="69.33px"/><path id="path48" d="M2388.5,2643.4l-74,230.5,191,116.9,280.2-40.4,211.6-40.5-18.9-149.1-234-182.9-355.9,65.5z" stroke-width="69.33px"/><path id="path50" d="M4075.4,4173.6c159.3,51.4,319,42.8,478.7,25.7l164.2-93.6c32.9-78.5,46.7-186,41.2-322.5l-74.7-135.9-135.9-54.2-212.4-13.8-300.1,42.3-140.1,141.8,74.9,210.7,104.2,199.5z" stroke-width="69.33px"/><path id="path52" d="M3838,3061l253.6-19.8h130.7l162.5,19.8,82.6,156.6,61.8,184.8-116,116.1-281.2,35.3-194.1,1-155.8-221.2,55.9-272.6z" stroke-width="69.33px"/><path id="path54" d="M3671.3,3061h-322.4l-238.3-102.3-80.8-189.2,48.1-123,239.9-20.6h635.4l94.6,75.6,103.2,74.9,48.2,198.6-254.5,54.2-273.4,31.8z" stroke-width="69.33px"/><path id="path56" d="M2914.4,2287.8l422.3-2.3,225.3-33.5h267.4l96.3,198.6-74,142.8h-480.5c-100.8,32.3-187.8,42.6-261.1,30.9-71.7,2.6-136-13.9-192.8-49.4l-31.1-82.2,28.2-204.9z" stroke-width="69.33px"/><path id="path58" d="M2659.2,1891.7h603.6l184,61.1v298.4h-260.5l-294.9,20.6c-100.1-16.7-154.6-71.5-163.4-164.2-29.8-61-52.8-133-68.8-215.9z" stroke-width="69.33px"/><path id="path60" d="M2255.2,1771.3l137.5-92,232.2-40.4h225.3l54.9,142.7-162.5,74.9-343,41.2c-96.4,16.7-144.5-25.4-144.4-126.4z" stroke-width="69.33px"/><path id="path62" d="M3718.4,3085.9l115.2,246.7-52.7,187.1-316.1-208.6-118.3-233.7,371.9,8.5z" stroke-width="69.33px"/><path id="path64" d="M1908.4,3150.4l284.9-46.1-0.2,134.7-61.8,149.6-134.8,72.3-84.6-37.9-3.5-272.6z" stroke-width="69.33px"/><path id="path66" d="M2802.7,1656.4l1517.5-1633.5" stroke-width="64px"/><path id="path68" d="M2384.3,1694.3l-1682.5-1681.6" stroke-width="64px"/></g></g></g></svg>
