<?xml version="1.0" encoding="UTF-8" standalone="no"?>
<svg
   id="svg2"
   viewBox="0 0 64 64"
   version="1.1"
   xmlns="http://www.w3.org/2000/svg"
   xmlns:svg="http://www.w3.org/2000/svg"
   xmlns:rdf="http://www.w3.org/1999/02/22-rdf-syntax-ns#"
   xmlns:cc="http://creativecommons.org/ns#"
   xmlns:dc="http://purl.org/dc/elements/1.1/">
  <defs
     id="defs95" />
  <g
     id="layer1"
     transform="translate(0 -988.36)">
    <g
       id="g4755">
      <path
         id="rect2846"
         d="m5 1044.4h55c1 0 1 2 0 2h-55c-1 0-1-2 0-2z"
         fill-opacity=".39216" />
      <path
         id="path2859"
         d="m40 1010.4v35h-30.058c-2.942 0-4.942-2-4.942-5v-25c0-3 2-5 5.0161-5h29.984z"
         fill="#9f482d" />
      <path
         id="rect2952"
         d="m40 1010.4h15c3 0 5 2 5 5v25c0 3-2 5-5 5h-15v-35z"
         fill="#f9d97b" />
      <g
         id="g3084"
         transform="translate(0,8)">
        <path
           id="rect2955"
           d="m36 1005.4h2v2h-2v-2z" />
        <path
           id="path2958"
           d="m32 1005.4h2v2h-2v-2z" />
        <path
           id="path2960"
           d="m28 1005.4h2v2h-2v-2z" />
        <path
           id="path2962"
           d="m24 1005.4h2v2h-2v-2z" />
        <path
           id="path2964"
           d="m20 1005.4h2v2h-2v-2z" />
        <path
           id="path2966"
           d="m16 1005.4h2v2h-2v-2z" />
        <path
           id="path2968"
           d="m12 1005.4h2v2h-2v-2z" />
        <path
           id="path2970"
           d="m8 1005.4h2v2h-2v-2z" />
        <path
           id="path2972"
           d="m36 1009.4h2v2h-2v-2z" />
        <path
           id="path2974"
           d="m32 1009.4h2v2h-2v-2z" />
        <path
           id="path2976"
           d="m28 1009.4h2v2h-2v-2z" />
        <path
           id="path2978"
           d="m24 1009.4h2v2h-2v-2z" />
        <path
           id="path2980"
           d="m20 1009.4h2v2h-2v-2z" />
        <path
           id="path2982"
           d="m16 1009.4h2v2h-2v-2z" />
        <path
           id="path2984"
           d="m12 1009.4h2v2h-2v-2z" />
        <path
           id="path2986"
           d="m8 1009.4h2v2h-2v-2z" />
        <path
           id="path2988"
           d="m36 1013.4h2v2h-2v-2z" />
        <path
           id="path2990"
           d="m32 1013.4h2v2h-2v-2z" />
        <path
           id="path2992"
           d="m28 1013.4h2v2h-2v-2z" />
        <path
           id="path2994"
           d="m24 1013.4h2v2h-2v-2z" />
        <path
           id="path2996"
           d="m20 1013.4h2v2h-2v-2z" />
        <path
           id="path2998"
           d="m16 1013.4h2v2h-2v-2z" />
        <path
           id="path3000"
           d="m12 1013.4h2v2h-2v-2z" />
        <path
           id="path3002"
           d="m8 1013.4h2v2h-2v-2z" />
        <path
           id="path3004"
           d="m36 1017.4h2v2h-2v-2z" />
        <path
           id="path3006"
           d="m32 1017.4h2v2h-2v-2z" />
        <path
           id="path3008"
           d="m28 1017.4h2v2h-2v-2z" />
        <path
           id="path3010"
           d="m24 1017.4h2v2h-2v-2z" />
        <path
           id="path3012"
           d="m20 1017.4h2v2h-2v-2z" />
        <path
           id="path3014"
           d="m16 1017.4h2v2h-2v-2z" />
        <path
           id="path3016"
           d="m12 1017.4h2v2h-2v-2z" />
        <path
           id="path3018"
           d="m8 1017.4h2v2h-2v-2z" />
        <path
           id="path3020"
           d="m36 1021.4h2v2h-2v-2z" />
        <path
           id="path3022"
           d="m32 1021.4h2v2h-2v-2z" />
        <path
           id="path3024"
           d="m28 1021.4h2v2h-2v-2z" />
        <path
           id="path3026"
           d="m24 1021.4h2v2h-2v-2z" />
        <path
           id="path3028"
           d="m20 1021.4h2v2h-2v-2z" />
        <path
           id="path3030"
           d="m16 1021.4h2v2h-2v-2z" />
        <path
           id="path3032"
           d="m12 1021.4h2v2h-2v-2z" />
        <path
           id="path3034"
           d="m8 1021.4h2v2h-2v-2z" />
        <path
           id="path3036"
           d="m36 1025.4h2v2h-2v-2z" />
        <path
           id="path3038"
           d="m32 1025.4h2v2h-2v-2z" />
        <path
           id="path3040"
           d="m28 1025.4h2v2h-2v-2z" />
        <path
           id="path3042"
           d="m24 1025.4h2v2h-2v-2z" />
        <path
           id="path3044"
           d="m20 1025.4h2v2h-2v-2z" />
        <path
           id="path3046"
           d="m16 1025.4h2v2h-2v-2z" />
        <path
           id="path3048"
           d="m12 1025.4h2v2h-2v-2z" />
        <path
           id="path3050"
           d="m8 1025.4h2v2h-2v-2z" />
        <path
           id="path3052"
           d="m36 1029.4h2v2h-2v-2z" />
        <path
           id="path3054"
           d="m32 1029.4h2v2h-2v-2z" />
        <path
           id="path3056"
           d="m28 1029.4h2v2h-2v-2z" />
        <path
           id="path3058"
           d="m24 1029.4h2v2h-2v-2z" />
        <path
           id="path3060"
           d="m20 1029.4h2v2h-2v-2z" />
        <path
           id="path3062"
           d="m16 1029.4h2v2h-2v-2z" />
        <path
           id="path3064"
           d="m12 1029.4h2v2h-2v-2z" />
        <path
           id="path3066"
           d="m8 1029.4h2v2h-2v-2z" />
        <path
           id="path3068"
           d="m36 1033.4h2v2h-2v-2z" />
        <path
           id="path3070"
           d="m32 1033.4h2v2h-2v-2z" />
        <path
           id="path3072"
           d="m28 1033.4h2v2h-2v-2z" />
        <path
           id="path3074"
           d="m24 1033.4h2v2h-2v-2z" />
        <path
           id="path3076"
           d="m20 1033.4h2v2h-2v-2z" />
        <path
           id="path3078"
           d="m16 1033.4h2v2h-2v-2z" />
        <path
           id="path3080"
           d="m12 1033.4h2v2h-2v-2z" />
        <path
           id="path3082"
           d="m8 1033.4h2v2h-2v-2z" />
      </g>
      <g
         id="g4727"
         transform="translate(0,2)">
        <path
           id="path4701"
           fill="#9f482d"
           d="m56 1033.9c0 3.5899-2.9101 6.5-6.5 6.5s-6.5-2.9101-6.5-6.5 2.9101-6.5 6.5-6.5 6.5 2.9101 6.5 6.5z" />
        <path
           id="path4716"
           d="m45 49 6 6h4c3 0 5-2 5-5v-1l-5-5c1 4-4 10-10 5z"
           transform="translate(0 988.36)"
           fill-opacity=".13725" />
        <g
           id="g4695"
           transform="translate(-5 -6)">
          <path
             id="path3921"
             fill="#9f482d"
             d="m61 1024.9c0 3.5899-2.9101 6.5-6.5 6.5s-6.5-2.9101-6.5-6.5 2.9101-6.5 6.5-6.5 6.5 2.9101 6.5 6.5z" />
          <path
             id="path3918"
             fill="#f9d97b"
             d="m60 1024.9c0 3.0375-2.4624 5.5-5.5 5.5s-5.5-2.4625-5.5-5.5 2.4624-5.5 5.5-5.5 5.5 2.4625 5.5 5.5z" />
        </g>
        <path
           id="path4718"
           d="m46 1023.4 14 14v-16l-7-7c5 6-1 13-7 9z"
           fill-opacity=".13725" />
        <path
           id="path4703"
           fill="#f9d97b"
           d="m55 1033.9c0 3.0375-2.4624 5.5-5.5 5.5s-5.5-2.4625-5.5-5.5 2.4624-5.5 5.5-5.5 5.5 2.4625 5.5 5.5z" />
      </g>
      <g
         id="g4750"
         transform="translate(0,2)">
        <path
           id="path4705"
           fill="#9f482d"
           d="m4.9344 1018.3-1.9344 0.1v-21c0-1 1-2 2-2h55c1 0 2 1 2 2v21h-2v-20.049c0-0.951 0-0.951-1-0.951h-53c-1 0-1 0-1.0032 0.9881l-0.06234 19.99z" />
        <rect
           id="rect4736"
           fill-opacity=".13725"
           transform="translate(0 988.36)"
           height="3"
           width="2"
           y="27"
           x="60" />
        <rect
           id="rect4738"
           fill-opacity=".13725"
           height="3"
           width="2"
           y="1015.4"
           x="3" />
      </g>
      <g
         id="g4743"
         transform="translate(0,2)">
        <path
           id="path4709"
           fill="#bebebe"
           d="m54 1007.4v-2h-46v1h17v1h29z" />
        <path
           id="path4707"
           fill="#e0e0e0"
           d="m51 1008.4h4v-2c0-3-4-3-4 0v2z" />
        <path
           id="path4711"
           fill="#808080"
           d="m54 1006.4c0 0.5522-0.44772 1-1 1s-1-0.4478-1-1c0-0.5524 0.44772-1 1-1s1 0.4476 1 1z" />
        <path
           id="path4714"
           d="m8 17c0 0.55228-0.44772 1-1 1s-1-0.44772-1-1 0.44772-1 1-1 1 0.44772 1 1z"
           fill="#9f482d"
           transform="matrix(1.5 0 0 1.5 -3 980.36)" />
        <path
           id="rect4740"
           d="m25 18h26v1h-26v-1z"
           transform="translate(0 988.36)"
           fill-opacity=".13725" />
      </g>
    </g>
  </g>
  <metadata
     id="metadata90">
    <rdf:RDF>
      <cc:Work>
        <dc:format>image/svg+xml</dc:format>
        <dc:type
           rdf:resource="http://purl.org/dc/dcmitype/StillImage" />
        <cc:license
           rdf:resource="http://creativecommons.org/licenses/publicdomain/" />
        <dc:publisher>
          <cc:Agent
             rdf:about="http://openclipart.org/">
            <dc:title>Openclipart</dc:title>
          </cc:Agent>
        </dc:publisher>
        <dc:date>2013-09-17T22:35:05</dc:date>
        <dc:description>portable compact radio</dc:description>
        <dc:source>http://openclipart.org/detail/183544/radio-portable-by-crisg-183544</dc:source>
        <dc:creator>
          <cc:Agent>
            <dc:title>crisg</dc:title>
          </cc:Agent>
        </dc:creator>
        <dc:subject>
          <rdf:Bag>
            <rdf:li>AM-FM tuner</rdf:li>
            <rdf:li>clip art</rdf:li>
            <rdf:li>icon</rdf:li>
            <rdf:li>music</rdf:li>
            <rdf:li>news</rdf:li>
            <rdf:li>object</rdf:li>
            <rdf:li>portable radio</rdf:li>
            <rdf:li>radio</rdf:li>
            <rdf:li>wooden radio</rdf:li>
          </rdf:Bag>
        </dc:subject>
      </cc:Work>
      <cc:License
         rdf:about="http://creativecommons.org/licenses/publicdomain/">
        <cc:permits
           rdf:resource="http://creativecommons.org/ns#Reproduction" />
        <cc:permits
           rdf:resource="http://creativecommons.org/ns#Distribution" />
        <cc:permits
           rdf:resource="http://creativecommons.org/ns#DerivativeWorks" />
      </cc:License>
    </rdf:RDF>
  </metadata>
</svg>
