<?xml version="1.0" encoding="UTF-8" standalone="no"?>
<!-- Created with Inkscape (http://www.inkscape.org/) -->
<svg id="svg2" xmlns:rdf="http://www.w3.org/1999/02/22-rdf-syntax-ns#" xmlns="http://www.w3.org/2000/svg" height="256" width="256" version="1.1" xmlns:cc="http://creativecommons.org/ns#" xmlns:dc="http://purl.org/dc/elements/1.1/">
 <metadata id="metadata7">
  <rdf:RDF>
   <cc:Work rdf:about="">
    <dc:format>image/svg+xml</dc:format>
    <dc:type rdf:resource="http://purl.org/dc/dcmitype/StillImage"/>
    <dc:title/>
   </cc:Work>
  </rdf:RDF>
 </metadata>
 <g id="layer1" transform="translate(-194.85712,-215.79076)">
  <path id="path3063" d="m194.86,343.79,0-128,128,0,128,0,0,128,0,128-128,0-128,0,0-128z" fill="#daedd1"/>
  <path id="path3061" d="m216.61,469.17c-8.0682-3.3289-14.546-9.1269-18.006-16.117-3.8371-7.7515-3.8822-9.1493-3.5851-111l0.28878-99,2.6604-5.6752c3.7246-7.9454,9.8695-14.222,17.696-18.075l6.6012-3.2499h100.02c77.731,0,100.95,0.2816,104.18,1.2636,6.0782,1.8474,13.268,7.0452,17.475,12.634,7.1398,9.4841,6.8689,4.9751,6.8569,114.17-0.0114,102.93,0.0377,101.68-4.3377,110.14-2.4833,4.8021-9.7973,11.437-15.651,14.199l-5.5,2.5943-101.5,0.2337-101.5,0.23372-5.6977-2.3508z" fill="#91e76a"/>
  <path id="path3059" d="m218.93,470.01c-6.2838-2.1111-13.705-7.8949-17.637-13.747-6.57-9.7757-6.3171-4.9752-6.015-114.18l0.27368-98.913,3.2811-5.9938c4.4395-8.11,10.423-13.956,18.219-17.801l6.5-3.2054h100,100l6.2224,2.8742c7.3068,3.375,15.222,11.2,18.546,18.335l2.2319,4.7908v101.52,101.52l-3.2868,6.6765c-3.6354,7.3847-9.4644,13.193-16.997,16.937l-4.7164,2.3443-101,0.19795c-88.997,0.17442-101.55,0.0134-105.62-1.3546zm183.12-154.2c0-1.6588-5.7636-8.772-10.45-12.897-2.6155-2.3023-7.2967-5.2134-10.403-6.4692-5.5072-2.2268-6.5143-2.2833-40.666-2.2834l-35.019-0.00005-6.6038,3.25c-3.6321,1.7875-7.0044,3.25-7.494,3.25-0.48962,0-7.3332-6.4545-15.208-14.343l-14.318-14.343,1.1193-4.1566c3.1424-11.67-7.9201-22.582-19.405-19.141-11.103,3.3265-15.048,16.795-7.4536,25.444,3.8961,4.4374,8.543,5.9398,15.633,5.054l5.5664-0.69547,17.811,17.79c16.826,16.806,18.021,17.79,21.601,17.783,2.0844-0.004,12.421-0.51403,22.969-1.133,20.574-1.2072,49.094-0.29667,67.82,2.1653,12.752,1.6766,14.5,1.764,14.5,0.72554z" fill="#76e444"/>
  <path id="path3057" d="m218.93,470.01c-6.2838-2.1111-13.705-7.8949-17.637-13.747-6.57-9.7757-6.3171-4.9752-6.015-114.18l0.27368-98.913,3.2811-5.9938c4.4395-8.11,10.423-13.956,18.219-17.801l6.5-3.2054h100,100l6.2224,2.8742c7.3068,3.375,15.222,11.2,18.546,18.335l2.2319,4.7908v101.52,101.52l-3.2868,6.6765c-3.6354,7.3847-9.4644,13.193-16.997,16.937l-4.7164,2.3443-101,0.19795c-88.997,0.17442-101.55,0.0134-105.62-1.3546zm165.33-55.02c8.224-3.896,15.089-10.577,18.629-18.129l2.6702-5.6965,0.30099-32.819c0.25709-28.032,0.0626-33.639-1.3335-38.441-2.9424-10.122-10.585-18.636-21-23.394-4.7332-2.1626-6.4521-2.2949-36.467-2.8076-17.325-0.29593-33.927-0.23064-36.893,0.1451-2.9662,0.37574-8.1964,2.0632-11.623,3.75-3.4263,1.6868-6.6302,3.0668-7.1199,3.0668-0.48962,0-7.3332-6.4545-15.208-14.343l-14.318-14.343,1.1193-4.1566c3.1424-11.67-7.9201-22.582-19.405-19.141-11.103,3.3265-15.048,16.795-7.4536,25.444,3.8759,4.4144,8.46,5.8984,15.697,5.0815l5.7037-0.64381,12.5,12.621c6.875,6.9415,17.356,17.156,23.29,22.7l10.79,10.079,2.7099-2.5851c1.4905-1.4218,3.9767-3.0637,5.525-3.6487,1.7398-0.65735,13.307-1.0636,30.282-1.0636,30.473,0,32.353,0.31602,36.504,6.1369,2.3821,3.34,2.4005,3.5629,2.6701,32.363,0.30379,32.454,0.0831,33.719-6.6693,38.23-3.3386,2.2303-3.9058,2.2699-32.5,2.2662-27.275-0.004-29.307-0.12846-32.361-1.9909-1.7925-1.0929-4.1533-3.4537-5.2463-5.2463-1.8418-3.0208-1.9874-5.0767-1.9909-28.118l-0.004-24.859-9.75-10.269c-5.3625-5.6481-10.235-10.324-10.828-10.391-2.4825-0.27992-3.7529,10.691-4.1831,36.125-0.4781,28.265,0.42625,38.915,3.9448,46.455,2.7081,5.803,10.841,14.166,16.317,16.778,8.7897,4.1928,11.65,4.4561,46,4.2341l33-0.21332,6.7007-3.1744z" fill="#55a531"/>
  <path id="path3055" d="m218.93,470.01c-6.2838-2.1111-13.705-7.8949-17.637-13.747-6.57-9.7757-6.3171-4.9752-6.015-114.18l0.27368-98.913,3.2811-5.9938c4.4395-8.11,10.423-13.956,18.219-17.801l6.5-3.2054h100,100l6.2224,2.8742c7.3068,3.375,15.222,11.2,18.546,18.335l2.2319,4.7908v101.52,101.52l-3.2868,6.6765c-3.6354,7.3847-9.4644,13.193-16.997,16.937l-4.7164,2.3443-101,0.19795c-88.997,0.17442-101.55,0.0134-105.62-1.3546zm164.37-53.166c7.5062-3.029,15.561-10.49,19.836-18.375l3.4174-6.3026v-36-36l-2.8184-5.7394c-3.7259-7.5875-10.226-13.918-18.443-17.964l-6.6969-3.2969h-36.542-36.542l-6.6017,3.25c-3.6309,1.7875-6.9906,3.25-7.466,3.25-0.47539,0-7.0253-6.1491-14.555-13.665l-13.691-13.665,0.52947-6.5853c0.46555-5.7902,0.24269-7.005-1.8458-10.061-5.3218-7.7884-13.765-10.137-21.767-6.0549-10.832,5.5259-11.013,22.067-0.31051,28.317,3.3354,1.948,10.021,2.5673,14.001,1.2968,1.9516-0.62297,5.3928,2.352,25.852,22.349,12.98,12.687,24.039,23.068,24.576,23.068,0.53642,0,2.299-1.3237,3.9168-2.9415,3.9644-3.9644,6.639-4.2399,37.584-3.8708,37.128,0.44286,35.317-1.5182,35.319,38.247,0.001,25.086-0.1387,27.224-2.0426,31.157-3.4704,7.169-4.6564,7.4089-36.607,7.4071-40.319-0.002-38.345,1.7943-38.347-34.908l-0.002-24.409-10.25-10.591c-5.6375-5.825-10.875-10.591-11.64-10.591-0.7643,0-2.0718,2.025-2.9057,4.5-1.9528,5.7965-2.95,59.507-1.2737,68.602,2.1455,11.641,8.7433,21.192,18.651,26.998,8.6265,5.0555,11.186,5.331,47.418,5.1049,32.469-0.20256,33.677-0.28039,39.247-2.528z" fill="#535453"/>
  <path id="path3053" d="m222.55,470.92c-4.9541-1.6567-12.908-6.5594-16.549-10.2-2.1894-2.1894-5.4335-6.7866-7.209-10.216l-3.2282-6.235-0.29898-51.093c-0.23899-40.84-0.0397-51.303,0.99319-52.14,5.5193-4.4724,43.013-17.386,65.772-22.653,12.768-2.955,15.71-3.353,16.791-2.2718,1.0614,1.0614,1.0732,1.8673,0.062,4.2341-1.688,3.951-2.4258,58.759-0.90228,67.026,2.3662,12.839,9.9214,22.738,21.829,28.601l6.6961,3.2969h35.522c34.84,0,35.632-0.0445,41.269-2.3206,7.5065-3.0313,15.562-10.494,19.836-18.377l3.4174-6.3026v-36-36l-2.8184-5.7394c-5.3077-10.809-16.435-19.193-28.682-21.611-3.0253-0.5973-19.673-1.2127-37-1.3678l-31.5-0.2819-6.9497,2.7804c-3.8223,1.5292-7.5348,2.5558-8.25,2.2814-1.0359-0.39752-1.3003-8.3329-1.3003-39.03v-38.531l3.75-0.13164,3.75-0.13164-3.5-0.65303c-4.7193-0.88051,116.27-2.2997,123.67-1.4506,3.2072,0.36833,6.0563,0.96216,6.3313,1.3196,0.275,0.35747,2.6003,1.4373,5.1673,2.3997,6.8583,2.5712,13.07,8.5733,17.486,16.897l3.8467,7.2501v100,100l-3.235,6.235c-3.942,7.5976-9.0293,12.836-16.851,17.351l-5.9139,3.4139-100,0.15986c-55,0.0879-100.9-0.14111-102-0.50896zm88.5-77.902c-6.5014-3.2478-6.9967-5.6024-6.9984-33.269l-0.002-24.521-9-8.9583c-8.2221-8.184-10.362-11.54-8.2057-12.873,1.5387-0.95096,8.7515,3.1821,12.659,7.2536,2.1741,2.2656,4.3462,4.1192,4.8269,4.1192,0.48069,0,2.1976-1.3237,3.8155-2.9415,3.9644-3.9644,6.639-4.2399,37.584-3.8708,37.128,0.44286,35.317-1.5182,35.319,38.247,0.001,25.086-0.1387,27.224-2.0426,31.157-3.4704,7.169-4.6564,7.4089-36.607,7.4071-24.51-0.001-28.268-0.21118-31.349-1.75z" fill="#335f1f"/>
  <path id="path3051" d="m222.55,470.92c-4.9541-1.6567-12.908-6.5594-16.549-10.2-2.1894-2.1895-5.4335-6.7866-7.209-10.216l-3.2282-6.235-0.29898-51.092c-0.23899-40.84-0.0397-51.303,0.99319-52.14,2.485-2.0137,21.415-9.5792,35.792-14.305,17.49-5.7487,45.059-12.304,46.343-11.02,0.5409,0.5409,0.38324,2.2452-0.39143,4.2314-1.6974,4.3521-2.573,56.838-1.1054,66.264,2.1811,14.01,10.238,24.864,22.913,30.868l6.7408,3.1931,33.367,0.3119c31.33,0.2928,33.781,0.1861,40.146-1.7471,10.791-3.2778,19.193-10.478,24.708-21.174l2.7793-5.3904v-36-36l-2.9396-5.9872c-3.9242-7.9926-11.012-14.889-19.32-18.798l-6.7408-3.1717-30.5-0.81782c-35.122-0.94175-39.367-0.69892-48.612,2.7808-3.7332,1.4052-7.3728,2.3304-8.088,2.0559-1.0359-0.39752-1.3003-8.3329-1.3003-39.03v-38.531l3.75-0.13164,3.75-0.13164-3.5-0.65303c-4.7193-0.88051,116.27-2.2997,123.67-1.4506,3.2072,0.36833,6.0563,0.96216,6.3313,1.3196,0.275,0.35747,2.6003,1.4373,5.1673,2.3997,6.8583,2.5712,13.07,8.5733,17.486,16.897l3.8467,7.2501v100,100l-3.235,6.235c-3.942,7.5976-9.0293,12.836-16.851,17.351l-5.9139,3.4139-100,0.1599c-55,0.088-100.9-0.1411-102-0.509zm88.821-78.741c-5.8428-2.9237-6.321-5.4097-6.321-32.865v-24.653l-9.5948-9.8879c-8.7985-9.0673-11.029-12.875-6.6232-11.304,0.94489,0.33684,4.7793,3.5324,8.5209,7.1012l6.8029,6.4888,3.1971-3.0249c1.7584-1.6637,4.18-3.5289,5.3814-4.1449,1.4551-0.74613,11.302-1.1195,29.5-1.1184,39.974,0.002,37.812-2.129,37.814,37.281,0.002,28.496-0.36778,31.117-4.9638,35.218-2.1179,1.8898-3.8475,2.0138-31.388,2.2502-24.991,0.2145-29.6,0.023-32.326-1.3405z" fill="#2f2f2f"/>
  <path id="path3049" d="m223.12,470.6c-1.2457-0.23942-2.0363-0.80513-1.7569-1.2571,0.27935-0.45201-0.72647-1.1174-2.2352-1.4785-3.8336-0.91778-12.399-6.9234-15.116-10.599-1.25-1.6907-3.3605-5.4103-4.69-8.2658s-2.4734-4.7418-2.542-4.1918-0.49709-0.8-0.95214-3-0.8533-25.604-0.885-52.008l-0.0576-48.008,14.299-5.6828c7.8644-3.1255,20.352-7.511,27.75-9.7455,14.639-4.4215,39.451-9.8895,40.431-8.9099,0.33585,0.33585,0.11121,2.5941-0.49922,5.0183-0.73388,2.9145-1.0032,15.244-0.79503,36.396l0.31484,31.989,3.2336,6.5648c6.129,12.443,17.783,20.814,31.797,22.839,8.9576,1.2945,52.882,1.3089,61.795,0.0202,14.139-2.0442,25.096-9.9796,31.408-22.747l3.7659-7.617v-32.055c0-17.63-0.39011-34.755-0.8669-38.055-0.4768-3.3-1.0519-27.488-1.278-53.75l-0.41109-47.75,8.778,0.00079c7.6189,0.00068,9.5703,0.38145,14.778,2.8836,9.3439,4.4895,18.211,15.301,18.548,22.616,0.0906,1.965,0.10566,1.9657,0.85767,0.043,0.5806-1.4845,0.92581-0.78677,1.4297,2.8896,0.96459,7.0374,0.70307,190.32-0.27833,195.07-0.45505,2.2-0.88352,3.55-0.95214,3-0.0686-0.55-1.2125,1.3363-2.542,4.1918s-3.44,6.5751-4.69,8.2658c-2.7176,3.6757-11.283,9.6813-15.116,10.599-1.5087,0.36118-2.5285,1.0039-2.2662,1.4283,0.26227,0.42436-0.92209,1.0514-2.6319,1.3933-3.4472,0.68945-195.02,0.60657-198.62-0.0859zm89.858-78.569c-1.8735-0.67271-4.3485-2.4925-5.5-4.044-1.9764-2.6629-2.111-4.2631-2.4039-28.582l-0.31021-25.761-8.4398-8.396c-4.6419-4.6178-8.4398-8.7434-8.4398-9.168,0-0.42465,1.0279-0.77208,2.2842-0.77208,1.4436,0,4.2829,2.0239,7.7158,5.5,2.9874,3.025,5.9992,5.5,6.6928,5.5,0.69361,0,1.9528-1.0556,2.7982-2.3459,2.868-4.3771,4.9901-4.6541,35.656-4.6541h29.053l3.4,3.4,3.4,3.4v29.053c0,30.951-0.24103,32.714-4.9041,35.883-2.3028,1.5649-5.7006,1.7892-30.096,1.9871-19.66,0.1595-28.471-0.12559-30.906-1zm97.656-175.46c2.3375-0.21053,6.1625-0.21053,8.5,0,2.3375,0.21054,0.425,0.3828-4.25,0.3828s-6.5875-0.17226-4.25-0.3828z" fill="#030303"/>
 </g>
</svg>
