<?xml version="1.0" encoding="UTF-8" standalone="no"?>
<svg
   id="svg2"
   viewBox="0 0 400 400"
   version="1.1"
   width="400"
   height="400"
   sodipodi:docname="radio.svg"
   inkscape:version="1.1.1 (3bf5ae0d25, 2021-09-20)"
   xmlns:inkscape="http://www.inkscape.org/namespaces/inkscape"
   xmlns:sodipodi="http://sodipodi.sourceforge.net/DTD/sodipodi-0.dtd"
   xmlns="http://www.w3.org/2000/svg"
   xmlns:svg="http://www.w3.org/2000/svg"
   xmlns:rdf="http://www.w3.org/1999/02/22-rdf-syntax-ns#"
   xmlns:cc="http://creativecommons.org/ns#"
   xmlns:dc="http://purl.org/dc/elements/1.1/">
  <sodipodi:namedview
     id="namedview93"
     pagecolor="#ffffff"
     bordercolor="#666666"
     borderopacity="1.0"
     inkscape:pageshadow="2"
     inkscape:pageopacity="0.0"
     inkscape:pagecheckerboard="0"
     showgrid="false"
     width="400px"
     inkscape:zoom="1.8876156"
     inkscape:cx="17.217489"
     inkscape:cy="183.03515"
     inkscape:window-width="2560"
     inkscape:window-height="1411"
     inkscape:window-x="0"
     inkscape:window-y="0"
     inkscape:window-maximized="1"
     inkscape:current-layer="svg2" />
  <defs
     id="defs95" />
  <g
     id="layer1"
     transform="matrix(6.7301539,0,0,6.7301539,-18.601154,-6676.9512)">
    <g
       id="g4755">
      <path
         id="rect2846"
         d="m 5,1044.4 h 55 c 1,0 1,2 0,2 H 5 c -1,0 -1,-2 0,-2 z"
         fill-opacity="0.39216" />
      <path
         id="path2859"
         d="m 40,1010.4 v 35 H 9.942 C 7,1045.4 5,1043.4 5,1040.4 v -25 c 0,-3 2,-5 5.0161,-5 h 29.984 z"
         fill="#9f482d" />
      <path
         id="rect2952"
         d="m 40,1010.4 h 15 c 3,0 5,2 5,5 v 25 c 0,3 -2,5 -5,5 H 40 Z"
         fill="#f9d97b" />
      <g
         id="g3084"
         transform="translate(0,8)">
        <path
           id="rect2955"
           d="m 36,1005.4 h 2 v 2 h -2 z" />
        <path
           id="path2958"
           d="m 32,1005.4 h 2 v 2 h -2 z" />
        <path
           id="path2960"
           d="m 28,1005.4 h 2 v 2 h -2 z" />
        <path
           id="path2962"
           d="m 24,1005.4 h 2 v 2 h -2 z" />
        <path
           id="path2964"
           d="m 20,1005.4 h 2 v 2 h -2 z" />
        <path
           id="path2966"
           d="m 16,1005.4 h 2 v 2 h -2 z" />
        <path
           id="path2968"
           d="m 12,1005.4 h 2 v 2 h -2 z" />
        <path
           id="path2970"
           d="m 8,1005.4 h 2 v 2 H 8 Z" />
        <path
           id="path2972"
           d="m 36,1009.4 h 2 v 2 h -2 z" />
        <path
           id="path2974"
           d="m 32,1009.4 h 2 v 2 h -2 z" />
        <path
           id="path2976"
           d="m 28,1009.4 h 2 v 2 h -2 z" />
        <path
           id="path2978"
           d="m 24,1009.4 h 2 v 2 h -2 z" />
        <path
           id="path2980"
           d="m 20,1009.4 h 2 v 2 h -2 z" />
        <path
           id="path2982"
           d="m 16,1009.4 h 2 v 2 h -2 z" />
        <path
           id="path2984"
           d="m 12,1009.4 h 2 v 2 h -2 z" />
        <path
           id="path2986"
           d="m 8,1009.4 h 2 v 2 H 8 Z" />
        <path
           id="path2988"
           d="m 36,1013.4 h 2 v 2 h -2 z" />
        <path
           id="path2990"
           d="m 32,1013.4 h 2 v 2 h -2 z" />
        <path
           id="path2992"
           d="m 28,1013.4 h 2 v 2 h -2 z" />
        <path
           id="path2994"
           d="m 24,1013.4 h 2 v 2 h -2 z" />
        <path
           id="path2996"
           d="m 20,1013.4 h 2 v 2 h -2 z" />
        <path
           id="path2998"
           d="m 16,1013.4 h 2 v 2 h -2 z" />
        <path
           id="path3000"
           d="m 12,1013.4 h 2 v 2 h -2 z" />
        <path
           id="path3002"
           d="m 8,1013.4 h 2 v 2 H 8 Z" />
        <path
           id="path3004"
           d="m 36,1017.4 h 2 v 2 h -2 z" />
        <path
           id="path3006"
           d="m 32,1017.4 h 2 v 2 h -2 z" />
        <path
           id="path3008"
           d="m 28,1017.4 h 2 v 2 h -2 z" />
        <path
           id="path3010"
           d="m 24,1017.4 h 2 v 2 h -2 z" />
        <path
           id="path3012"
           d="m 20,1017.4 h 2 v 2 h -2 z" />
        <path
           id="path3014"
           d="m 16,1017.4 h 2 v 2 h -2 z" />
        <path
           id="path3016"
           d="m 12,1017.4 h 2 v 2 h -2 z" />
        <path
           id="path3018"
           d="m 8,1017.4 h 2 v 2 H 8 Z" />
        <path
           id="path3020"
           d="m 36,1021.4 h 2 v 2 h -2 z" />
        <path
           id="path3022"
           d="m 32,1021.4 h 2 v 2 h -2 z" />
        <path
           id="path3024"
           d="m 28,1021.4 h 2 v 2 h -2 z" />
        <path
           id="path3026"
           d="m 24,1021.4 h 2 v 2 h -2 z" />
        <path
           id="path3028"
           d="m 20,1021.4 h 2 v 2 h -2 z" />
        <path
           id="path3030"
           d="m 16,1021.4 h 2 v 2 h -2 z" />
        <path
           id="path3032"
           d="m 12,1021.4 h 2 v 2 h -2 z" />
        <path
           id="path3034"
           d="m 8,1021.4 h 2 v 2 H 8 Z" />
        <path
           id="path3036"
           d="m 36,1025.4 h 2 v 2 h -2 z" />
        <path
           id="path3038"
           d="m 32,1025.4 h 2 v 2 h -2 z" />
        <path
           id="path3040"
           d="m 28,1025.4 h 2 v 2 h -2 z" />
        <path
           id="path3042"
           d="m 24,1025.4 h 2 v 2 h -2 z" />
        <path
           id="path3044"
           d="m 20,1025.4 h 2 v 2 h -2 z" />
        <path
           id="path3046"
           d="m 16,1025.4 h 2 v 2 h -2 z" />
        <path
           id="path3048"
           d="m 12,1025.4 h 2 v 2 h -2 z" />
        <path
           id="path3050"
           d="m 8,1025.4 h 2 v 2 H 8 Z" />
        <path
           id="path3052"
           d="m 36,1029.4 h 2 v 2 h -2 z" />
        <path
           id="path3054"
           d="m 32,1029.4 h 2 v 2 h -2 z" />
        <path
           id="path3056"
           d="m 28,1029.4 h 2 v 2 h -2 z" />
        <path
           id="path3058"
           d="m 24,1029.4 h 2 v 2 h -2 z" />
        <path
           id="path3060"
           d="m 20,1029.4 h 2 v 2 h -2 z" />
        <path
           id="path3062"
           d="m 16,1029.4 h 2 v 2 h -2 z" />
        <path
           id="path3064"
           d="m 12,1029.4 h 2 v 2 h -2 z" />
        <path
           id="path3066"
           d="m 8,1029.4 h 2 v 2 H 8 Z" />
        <path
           id="path3068"
           d="m 36,1033.4 h 2 v 2 h -2 z" />
        <path
           id="path3070"
           d="m 32,1033.4 h 2 v 2 h -2 z" />
        <path
           id="path3072"
           d="m 28,1033.4 h 2 v 2 h -2 z" />
        <path
           id="path3074"
           d="m 24,1033.4 h 2 v 2 h -2 z" />
        <path
           id="path3076"
           d="m 20,1033.4 h 2 v 2 h -2 z" />
        <path
           id="path3078"
           d="m 16,1033.4 h 2 v 2 h -2 z" />
        <path
           id="path3080"
           d="m 12,1033.4 h 2 v 2 h -2 z" />
        <path
           id="path3082"
           d="m 8,1033.4 h 2 v 2 H 8 Z" />
      </g>
      <g
         id="g4727"
         transform="translate(0,2)">
        <path
           id="path4701"
           fill="#9f482d"
           d="m 56,1033.9 c 0,3.5899 -2.9101,6.5 -6.5,6.5 -3.5899,0 -6.5,-2.9101 -6.5,-6.5 0,-3.5899 2.9101,-6.5 6.5,-6.5 3.5899,0 6.5,2.9101 6.5,6.5 z" />
        <path
           id="path4716"
           d="m 45,49 6,6 h 4 c 3,0 5,-2 5,-5 v -1 l -5,-5 c 1,4 -4,10 -10,5 z"
           transform="translate(0,988.36)"
           fill-opacity="0.13725" />
        <g
           id="g4695"
           transform="translate(-5,-6)">
          <path
             id="path3921"
             fill="#9f482d"
             d="m 61,1024.9 c 0,3.5899 -2.9101,6.5 -6.5,6.5 -3.5899,0 -6.5,-2.9101 -6.5,-6.5 0,-3.5899 2.9101,-6.5 6.5,-6.5 3.5899,0 6.5,2.9101 6.5,6.5 z" />
          <path
             id="path3918"
             fill="#f9d97b"
             d="m 60,1024.9 c 0,3.0375 -2.4624,5.5 -5.5,5.5 -3.0376,0 -5.5,-2.4625 -5.5,-5.5 0,-3.0375 2.4624,-5.5 5.5,-5.5 3.0376,0 5.5,2.4625 5.5,5.5 z" />
        </g>
        <path
           id="path4718"
           d="m 46,1023.4 14,14 v -16 l -7,-7 c 5,6 -1,13 -7,9 z"
           fill-opacity="0.13725" />
        <path
           id="path4703"
           fill="#f9d97b"
           d="m 55,1033.9 c 0,3.0375 -2.4624,5.5 -5.5,5.5 -3.0376,0 -5.5,-2.4625 -5.5,-5.5 0,-3.0375 2.4624,-5.5 5.5,-5.5 3.0376,0 5.5,2.4625 5.5,5.5 z" />
      </g>
      <g
         id="g4750"
         transform="translate(0,2)">
        <path
           id="path4705"
           fill="#9f482d"
           d="M 4.9344,1018.3 3,1018.4 v -21 c 0,-1 1,-2 2,-2 h 55 c 1,0 2,1 2,2 v 21 H 60 V 998.351 C 60,997.4 60,997.4 59,997.4 H 6 c -1,0 -1,0 -1.0032,0.9881 l -0.06234,19.99 z" />
        <rect
           id="rect4736"
           fill-opacity="0.13725"
           transform="translate(0,988.36)"
           height="3"
           width="2"
           y="27"
           x="60" />
        <rect
           id="rect4738"
           fill-opacity="0.13725"
           height="3"
           width="2"
           y="1015.4"
           x="3" />
      </g>
      <g
         id="g4743"
         transform="translate(0,2)">
        <path
           id="path4709"
           fill="#bebebe"
           d="m 54,1007.4 v -2 H 8 v 1 h 17 v 1 z" />
        <path
           id="path4707"
           fill="#e0e0e0"
           d="m 51,1008.4 h 4 v -2 c 0,-3 -4,-3 -4,0 z" />
        <path
           id="path4711"
           fill="#808080"
           d="m 54,1006.4 c 0,0.5522 -0.44772,1 -1,1 -0.55228,0 -1,-0.4478 -1,-1 0,-0.5524 0.44772,-1 1,-1 0.55228,0 1,0.4476 1,1 z" />
        <path
           id="path4714"
           d="m 8,17 c 0,0.55228 -0.44772,1 -1,1 -0.55228,0 -1,-0.44772 -1,-1 0,-0.55228 0.44772,-1 1,-1 0.55228,0 1,0.44772 1,1 z"
           fill="#9f482d"
           transform="matrix(1.5,0,0,1.5,-3,980.36)" />
        <path
           id="rect4740"
           d="m 25,18 h 26 v 1 H 25 Z"
           transform="translate(0,988.36)"
           fill-opacity="0.13725" />
      </g>
    </g>
  </g>
  <metadata
     id="metadata90">
    <rdf:RDF>
      <cc:Work>
        <dc:format>image/svg+xml</dc:format>
        <dc:type
           rdf:resource="http://purl.org/dc/dcmitype/StillImage" />
        <cc:license
           rdf:resource="http://creativecommons.org/publicdomain/zero/1.0/" />
        <dc:publisher>
          <cc:Agent
             rdf:about="http://openclipart.org/">
            <dc:title>Openclipart</dc:title>
          </cc:Agent>
        </dc:publisher>
        <dc:date>2013-09-17T22:35:05</dc:date>
        <dc:description>portable compact radio</dc:description>
        <dc:source>http://openclipart.org/detail/183544/radio-portable-by-crisg-183544</dc:source>
        <dc:creator>
          <cc:Agent>
            <dc:title>crisg</dc:title>
          </cc:Agent>
        </dc:creator>
        <dc:subject>
          <rdf:Bag>
            <rdf:li>AM-FM tuner</rdf:li>
            <rdf:li>clip art</rdf:li>
            <rdf:li>icon</rdf:li>
            <rdf:li>music</rdf:li>
            <rdf:li>news</rdf:li>
            <rdf:li>object</rdf:li>
            <rdf:li>portable radio</rdf:li>
            <rdf:li>radio</rdf:li>
            <rdf:li>wooden radio</rdf:li>
          </rdf:Bag>
        </dc:subject>
      </cc:Work>
      <cc:License
         rdf:about="http://creativecommons.org/publicdomain/zero/1.0/">
        <cc:permits
           rdf:resource="http://creativecommons.org/ns#Reproduction" />
        <cc:permits
           rdf:resource="http://creativecommons.org/ns#Distribution" />
        <cc:permits
           rdf:resource="http://creativecommons.org/ns#DerivativeWorks" />
      </cc:License>
    </rdf:RDF>
  </metadata>
</svg>
