<?xml version="1.0" encoding="UTF-8" standalone="no"?>
<svg id="Layer_1" xmlns:rdf="http://www.w3.org/1999/02/22-rdf-syntax-ns#" xmlns="http://www.w3.org/2000/svg" version="1.1" xml:space="preserve" height="150px" viewBox="0 0 150 150" width="150px" enable-background="new 0 0 150 150" xmlns:cc="http://creativecommons.org/ns#" xmlns:dc="http://purl.org/dc/elements/1.1/"><metadata id="metadata25"><rdf:RDF><cc:Work rdf:about=""><dc:format>image/svg+xml</dc:format><dc:type rdf:resource="http://purl.org/dc/dcmitype/StillImage"/><dc:title/></cc:Work></rdf:RDF></metadata><g id="g3"><circle id="circle5" opacity="0.1" cy="75.033" cx="75.005" r="75" fill="#F15822"/><path id="path7" opacity="0.1" d="M75.005,0.033v150c41.42,0,75-33.578,75-75s-33.58-74.997-74.995-74.997z" fill="#F15822"/><circle id="circle9" cy="75.033" cx="75.005" r="65.488" fill="#F15822"/><path id="path11" d="M75.005,9.545v130.98c36.168,0,65.488-29.32,65.488-65.488s-29.32-65.487-65.485-65.487z" fill="#E05220"/><g id="g13"><path id="path15" d="M9.591,72.107c-0.043,0.971-0.074,1.945-0.074,2.926,0,36.168,29.32,65.488,65.488,65.488v-5.854c-35.188,0-63.883-27.75-65.414-62.563z" fill="#E05220"/><path id="path17" d="M140.42,72.107c-1.533,34.809-30.227,62.561-65.414,62.561v5.854c36.168,0,65.488-29.32,65.488-65.488,0-0.979-0.03-1.954-0.07-2.925z" fill="#D24D1D"/></g></g><path id="path19" d="M79.077,97.529c0.039,0.002,37.362,0.019,37.605,0.019,7.491,0,13.56-6.062,13.56-13.564,0-7.492-6.068-13.563-13.56-13.563-1.861,0-3.627,0.371-5.251,1.057-1.081-12.241-11.33-21.827-23.831-21.827-3.062,0-6.049,0.599-8.688,1.621-1.018,0.398-1.282,0.808-1.3,1.599v43.057c0.02,0.826,0.658,1.523,1.466,1.601zm-4.242-44.704c-0.803,0-1.476,0.674-1.492,1.493l-0.604,30.559,0.604,11.098c0.017,0.809,0.689,1.485,1.492,1.485,0.812,0,1.485-0.677,1.503-1.493v0.012l0.659-11.102-0.659-30.568c-0.018-0.81-0.691-1.484-1.503-1.484zm-4.625,44.696c0.759,0,1.385-0.619,1.398-1.394v0.004l0.588-11.254-0.588-28.02c-0.014-0.767-0.64-1.396-1.398-1.396-0.763,0-1.391,0.629-1.404,1.396l-0.521,28.014c0,0.016,0.521,11.26,0.521,11.26,0.013,0.77,0.641,1.39,1.404,1.39zm-2.693-12.644l-0.655-23.559c-0.016-0.721-0.592-1.291-1.311-1.291-0.712,0-1.282,0.57-1.302,1.296l-0.583,23.554,0.589,11.334c0.014,0.72,0.584,1.284,1.296,1.284,0.719,0,1.295-0.564,1.311-1.298v0.014l0.655-11.334zm-6.575,12.602c0.662,0,1.186-0.533,1.203-1.205v0.011l0.721-11.407-0.721-24.443c-0.018-0.676-0.541-1.202-1.203-1.202-0.676,0-1.197,0.526-1.217,1.202l-0.641,24.443,0.641,11.396c0.02,0.671,0.542,1.205,1.217,1.205zm-4.588,0.011c0.614,0,1.097-0.484,1.127-1.104v0.006l0.775-11.515-0.775-25.082c-0.03-0.633-0.513-1.11-1.127-1.11-0.603,0-1.092,0.478-1.117,1.11l-0.69,25.076,0.69,11.521c0.026,0.614,0.515,1.098,1.117,1.098zm-4.544-37.895c-0.553,0-1.002,0.444-1.027,1.013l-0.753,24.263,0.752,11.586c0.025,0.566,0.475,1.014,1.027,1.014,0.548,0,1-0.447,1.027-1.018v0.004l0.845-11.586-0.845-24.264c-0.026-0.568-0.479-1.012-1.026-1.012zm-4.52,37.895c0.505,0,0.916-0.403,0.934-0.918v0.009l0.916-11.71-0.916-22.399c-0.018-0.512-0.429-0.926-0.934-0.926-0.486,0-0.896,0.414-0.922,0.926l-0.808,22.399,0.809,11.701c0.025,0.515,0.435,0.918,0.921,0.918zm-2.653-12.619l-0.98-18.231c-0.027-0.465-0.391-0.821-0.84-0.821-0.436,0-0.805,0.356-0.819,0.821l-0.866,18.231,0.866,11.779c0.015,0.457,0.384,0.824,0.819,0.824,0.449,0,0.812-0.367,0.84-0.828v0.004l0.98-11.779zm-6.253,12.506c0.398,0,0.713-0.32,0.745-0.73l1.042-11.786-1.042-11.2c-0.032-0.416-0.347-0.738-0.745-0.738-0.395,0-0.721,0.322-0.736,0.738l-0.922,11.2,0.922,11.786c0.015,0.41,0.341,0.73,0.736,0.73zm-4.401-0.198c0.335,0,0.615-0.267,0.643-0.636l1.108-11.683-1.108-12.069c-0.027-0.37-0.308-0.644-0.643-0.644-0.347,0-0.625,0.273-0.646,0.644l-0.973,12.069,0.973,11.683c0.021,0.369,0.3,0.636,0.646,0.636zm-3.811-24.073c-0.046-0.312-0.272-0.545-0.561-0.545-0.287,0-0.524,0.233-0.548,0.545,0,0.003-1.037,11.754-1.037,11.754l1.037,11.323c0.023,0.313,0.261,0.541,0.548,0.541,0.288,0,0.515-0.228,0.556-0.541l1.169-11.323-1.164-11.754zm-8.972,18.205c0.228,0,0.409-0.18,0.442-0.428l0.955-6.027-0.955-6.13c-0.033-0.249-0.215-0.423-0.442-0.423s-0.41,0.178-0.437,0.43l-0.807,6.123,0.807,6.027c0.027,0.248,0.211,0.428,0.437,0.428zm0.443-0.428zm3.635,4.108c0.236,0,0.425-0.181,0.461-0.451l1.238-9.685-1.238-9.908c-0.036-0.257-0.225-0.435-0.461-0.435-0.234,0-0.432,0.183-0.458,0.435,0,0.005-1.081,9.908-1.081,9.908l1.081,9.685c0.027,0.271,0.224,0.451,0.458,0.451z" fill="#FFF"/></svg>
