<?xml version="1.0" encoding="UTF-8" standalone="no"?>
<!-- Generator: Adobe Illustrator 17.0.1, SVG Export Plug-In . SVG Version: 6.00 Build 0)  -->
<svg id="Layer_1" xmlns:rdf="http://www.w3.org/1999/02/22-rdf-syntax-ns#" xmlns="http://www.w3.org/2000/svg" enable-background="new 0 0 200 43.028" xml:space="preserve" height="42" viewBox="0 0 42 42" width="42" version="1.1" y="0px" x="0px" xmlns:cc="http://creativecommons.org/ns#" xmlns:dc="http://purl.org/dc/elements/1.1/"><metadata id="metadata39"><rdf:RDF><cc:Work rdf:about=""><dc:format>image/svg+xml</dc:format><dc:type rdf:resource="http://purl.org/dc/dcmitype/StillImage"/><dc:title/></cc:Work></rdf:RDF></metadata><g id="g25" fill="#2cb5a7" transform="translate(1.501,-1.139)"><path id="path27" d="m19.249,15.023c-3.799,0-6.887-3.091-6.887-6.886-0.003-1.839,0.715-3.569,2.014-4.869,1.302-1.301,3.031-2.017,4.87-2.017,3.797,0,6.887,3.089,6.887,6.887,0.001,3.797-3.086,6.885-6.884,6.885"/><path id="path29" d="m0,17.779c0-0.362,0.293-0.655,0.655-0.655h18.536c3.344,0,6.064,2.71,6.064,6.042v5.384c0,0.364-0.295,0.657-0.658,0.657-0.011,0-0.025,0-0.038,0.002l-18.518-0.002c-3.33,0-6.041-2.71-6.041-6.043v-5.385z"/><path id="path31" d="m33.033,17.038h5.311c0.36,0,0.654,0.295,0.654,0.655v5.387c0,3.332-2.709,6.041-6.041,6.041l-5.297-0.001c-0.377,0-0.671-0.288-0.671-0.654v-5.385c0-3.333,2.712-6.043,6.044-6.043"/><path id="path33" d="M24.598,30.944h-10.699c-0.361,0-0.655,0.295-0.655,0.655v10.774c0,0.367,0.296,0.653,0.672,0.653l5.296,0.001c3.332,0,6.044-2.71,6.044-6.043v-5.385c-0.001-0.36-0.295-0.655-0.658-0.655"/></g></svg>
