<?xml version="1.0" encoding="UTF-8" standalone="no"?>
<!-- Generator: Adobe Illustrator 15.0.1, SVG Export Plug-In . SVG Version: 6.00 Build 0)  -->
<svg id="svg2" xmlns:rdf="http://www.w3.org/1999/02/22-rdf-syntax-ns#" xmlns="http://www.w3.org/2000/svg" enable-background="new 0 0 256 256" xml:space="preserve" viewBox="0 0 237.007 234.98801" height="234.99" width="237.01" version="1.1" y="0px" x="0px" xmlns:cc="http://creativecommons.org/ns#" xmlns:dc="http://purl.org/dc/elements/1.1/"><metadata id="metadata38"><rdf:RDF><cc:Work rdf:about=""><dc:format>image/svg+xml</dc:format><dc:type rdf:resource="http://purl.org/dc/dcmitype/StillImage"/><dc:title/></cc:Work></rdf:RDF></metadata><g id="layer1" transform="translate(-384.138,-328.849)"><path id="rect1942" d="M583.66,328.85h-164.04c-19.599,0-35.487,15.888-35.487,35.487v164.02c0,19.599,15.888,35.486,35.487,35.486h164.03c19.6,0,35.487-15.888,37.487-34.819v-164.03c-1.999-20.266-17.888-36.155-37.485-36.155z" fill="#e5e5e5"/><linearGradient id="path1950_1_" y2="1067.4" gradientUnits="userSpaceOnUse" x2="-1364.9" gradientTransform="matrix(-0.5915,0,0,0.5915,-332.8726,-247.899)" y1="916.69" x1="-1313.2"><stop id="stop7" stop-color="#FFF" offset="0"/><stop id="stop9" stop-color="#FFF" stop-opacity="0" offset="1"/></linearGradient><path id="path1950" opacity="0.83260001" d="M557.06,338.9h-110.83c-29.337,0-52.955,23.81-52.955,53.385v108.13c0.95,23.088,4.603,8.492,11.555-17.074,8.081-29.713,34.396-55.682,66.445-75.146,24.461-14.855,51.841-24.341,101.68-25.244,28.265-0.51,25.77-36.682-15.895-44.047z" enable-background="new    " fill="url(#path1950_1_)"/><g id="g12" enable-background="new    "><path id="path14" d="m433.28,353.76h15.304l1.97,7.879,1.667,5.818,1.364,5.697,1.364,5.939,1.061,4.97h0.606l1.061-4.97,1.212-5.939,1.515-5.697,1.515-5.818,2.121-7.879h14.849l-15.758,47.274v33.577h-14.091v-33.577l-15.76-47.274z"/><path id="path16" d="m497.83,373.64c11.97,0,18.031,5.697,18.031,16.97v27.88c0,11.273-6.061,16.97-18.031,16.97s-18.031-5.697-18.031-16.97v-27.88c0-11.272,6.06-16.97,18.031-16.97zm0,9.698c-3.182,0-4.849,1.939-4.849,5.576v31.272c0,3.515,1.818,5.576,4.849,5.576s4.849-2.061,4.849-5.576v-31.272c-0.001-3.637-1.819-5.576-4.849-5.576z"/><path id="path18" d="m553.43,434.61-1.061-5.212c-5.455,4.485-8.638,6.061-12.426,6.061-3.182,0-6.515-1.455-8.029-3.394-1.668-2.061-2.121-4.243-2.121-10.425v-47.27h13.182v46.911c0,3.03,1.061,4.485,3.484,4.485,1.668,0,3.183-0.606,5.91-2.424v-48.97h13.183v60.244h-12.122z"/></g><linearGradient id="rect3708_1_" y2="445.58" gradientUnits="userSpaceOnUse" x2="500.92" y1="547.51" x1="500.92"><stop id="stop21" stop-color="#932420" offset="0"/><stop id="stop23" stop-color="#CB322C" offset="1"/></linearGradient><path id="rect3708" fill="url(#rect3708_1_)" d="m434.38,445.58h133.08c19.6,0,35.488,15.896,35.488,35.496v30.941c0,19.6-15.89,35.487-35.488,35.487h-133.08c-19.599,0-35.487-15.89-35.487-35.487v-30.94c0-19.6,15.888-35.496,35.487-35.496z"/></g><g id="g26" enable-background="new    " fill="#FFF" transform="translate(-10.496,-10.505)"><path id="path28" d="M56.337,150.48h-11.983v-9.588h37.328v9.588h-12.535v63.914h-12.81v-63.914z"/><path id="path30" d="m105.37,214.4-0.964-4.737c-4.958,4.077-7.851,5.51-11.294,5.51-2.893,0-5.923-1.321-7.3-3.086-1.515-1.873-1.929-3.856-1.929-9.478v-42.978h11.984v42.646c0,2.756,0.964,4.078,3.168,4.078,1.515,0,2.893-0.552,5.372-2.203v-44.521h11.984v54.77h-11.021v-0.001z"/><path id="path32" d="m129.34,140.9h11.983v23.914c4.683-4.188,7.851-5.841,11.433-5.841,2.756,0,5.785,1.322,7.162,3.085,1.516,1.983,1.93,3.969,1.93,9.809v30.414c0,5.73-0.414,7.715-1.93,9.697-1.377,1.875-4.406,3.196-7.3,3.196-3.582,0-6.612-1.653-11.295-5.951v5.181h-11.98v-73.504zm17.355,65.459c2.203,0,3.168-1.322,3.168-4.078v-30.42c0-2.864-0.965-4.076-3.168-4.076-1.516,0-2.894,0.551-5.372,2.203v34.162c2.48,1.653,3.857,2.205,5.372,2.205z"/><path id="path34" d="m207.16,195.22v1.983c0.138,1.433,0.138,2.425,0.138,2.976,0,9.697-5.923,14.987-16.805,14.987-10.33,0-16.115-5.51-16.115-15.428v-25.456c0-10.358,5.51-15.317,16.666-15.317,9.918,0,16.116,5.179,16.116,13.664v16.089h-20.799v12.012c0,3.969,1.239,5.621,4.407,5.621,1.516,0,2.893-0.662,3.58-1.652,0.689-0.992,0.828-2.204,0.828-6.171v-3.308h11.984zm-11.98-14.21v-9.257c0-2.534-1.652-3.967-4.408-3.967-2.754,0-4.406,1.433-4.406,3.967v9.257h8.814z"/></g></svg>
