<?xml version="1.0" encoding="UTF-8" standalone="no"?>
<svg
   xmlns:dc="http://purl.org/dc/elements/1.1/"
   xmlns:cc="http://creativecommons.org/ns#"
   xmlns:rdf="http://www.w3.org/1999/02/22-rdf-syntax-ns#"
   xmlns:svg="http://www.w3.org/2000/svg"
   xmlns="http://www.w3.org/2000/svg"
   xml:space="preserve"
   style="enable-background:new 0 0 348.082 348.082;"
   viewBox="0 0 348.082 348.082"
   y="0px"
   x="0px"
   id="Capa_1"
   version="1.1"><metadata
     id="metadata39"><rdf:RDF><cc:Work
         rdf:about=""><dc:format>image/svg+xml</dc:format><dc:type
           rdf:resource="http://purl.org/dc/dcmitype/StillImage" /><dc:title></dc:title></cc:Work></rdf:RDF></metadata><defs
     id="defs37" /><path
     style="fill:#1e1e1e;fill-opacity:1"
     id="path2"
     d="M297.107,50.976c-67.967-67.967-178.164-67.967-246.131,0c-67.968,67.967-67.968,178.164,0,246.131  c67.967,67.967,178.164,67.967,246.131,0C365.074,229.14,365.074,118.943,297.107,50.976z M79.452,295.602  c-10.241-7.624-19.35-16.731-26.973-26.972c22.998-17.114,46.002-34.22,69.002-51.331c3.159,4.246,5.056,6.143,9.3,9.299  C113.671,249.6,96.561,272.6,79.452,295.602z M209.397,209.397c-19.526,19.526-51.186,19.525-70.711,0  c-19.526-19.526-19.526-51.185,0-70.711c19.526-19.526,51.185-19.526,70.711,0C228.922,158.211,228.923,189.87,209.397,209.397z   M226.6,130.783c-3.159-4.246-5.056-6.144-9.299-9.298c17.109-23.001,34.221-46.001,51.329-69.004  c10.241,7.623,19.349,16.73,26.972,26.972C272.605,96.567,249.6,113.672,226.6,130.783z" /><g
     id="g4" /><g
     id="g6" /><g
     id="g8" /><g
     id="g10" /><g
     id="g12" /><g
     id="g14" /><g
     id="g16" /><g
     id="g18" /><g
     id="g20" /><g
     id="g22" /><g
     id="g24" /><g
     id="g26" /><g
     id="g28" /><g
     id="g30" /><g
     id="g32" /><style
     type="text/css"
     id="stylebodge1">[id^=&quot;polygon&quot;]{fill:#FFF663;fill-opacity:1}</style><style
     type="text/css"
     id="stylebodge2">[id^=&quot;path&quot;]{fill:#FFF663;fill-opacity:1}</style></svg>
