<?xml version="1.0" encoding="UTF-8" standalone="no"?>
<svg
   xmlns:dc="http://purl.org/dc/elements/1.1/"
   xmlns:cc="http://creativecommons.org/ns#"
   xmlns:rdf="http://www.w3.org/1999/02/22-rdf-syntax-ns#"
   xmlns:svg="http://www.w3.org/2000/svg"
   xmlns="http://www.w3.org/2000/svg"
   xmlns:xlink="http://www.w3.org/1999/xlink"
   xml:space="preserve"
   width="24px"
   viewBox="0 0 24 24"
   version="1.1"
   id="Layer_1"
   height="24px"
   enable-background="new 0 0 24 24"><metadata
     id="metadata1462"><rdf:RDF><cc:Work
         rdf:about=""><dc:format>image/svg+xml</dc:format><dc:type
           rdf:resource="http://purl.org/dc/dcmitype/StillImage" /><dc:title></dc:title></cc:Work></rdf:RDF></metadata><defs
     id="defs1460"><linearGradient
       id="linearGradient2029"><stop
         id="stop2025"
         offset="0"
         style="stop-color:#656565;stop-opacity:1" /><stop
         id="stop2027"
         offset="1"
         style="stop-color:#000000;stop-opacity:0" /></linearGradient><radialGradient
       gradientUnits="userSpaceOnUse"
       gradientTransform="matrix(1.1343094,-0.00535097,0.00542702,1.1504312,-1.673365,-1.7397539)"
       r="10.50525"
       fy="11.991062"
       fx="11.9745"
       cy="11.991062"
       cx="11.9745"
       id="radialGradient2031"
       xlink:href="#linearGradient2029" /></defs><path
     style="fill-opacity:1;fill:#1e1e1e"
     id="path1455"
     d="M22.245,4.015c0.313,0.313,0.313,0.826,0,1.139l-6.276,6.27c-0.313,0.312-0.313,0.826,0,1.14l6.273,6.272  c0.313,0.313,0.313,0.826,0,1.14l-2.285,2.277c-0.314,0.312-0.828,0.312-1.142,0l-6.271-6.271c-0.313-0.313-0.828-0.313-1.141,0  l-6.276,6.267c-0.313,0.313-0.828,0.313-1.141,0l-2.282-2.28c-0.313-0.313-0.313-0.826,0-1.14l6.278-6.269  c0.313-0.312,0.313-0.826,0-1.14L1.709,5.147c-0.314-0.313-0.314-0.827,0-1.14l2.284-2.278C4.308,1.417,4.821,1.417,5.135,1.73  L11.405,8c0.314,0.314,0.828,0.314,1.141,0.001l6.276-6.267c0.312-0.312,0.826-0.312,1.141,0L22.245,4.015z" /></svg>
