<?xml version="1.0" encoding="UTF-8" standalone="no"?>
<!-- Created with Inkscape (http://www.inkscape.org/) -->

<svg
   version="1.1"
   id="svg2"
   width="2813.3333"
   height="2629.3333"
   viewBox="0 0 2813.3333 2629.3333"
   xmlns="http://www.w3.org/2000/svg"
   xmlns:svg="http://www.w3.org/2000/svg">
  <defs
     id="defs6" />
  <g
     id="g10"
     transform="matrix(1.3333333,0,0,-1.3333333,0,2629.3333)">
    <path
       d="m 1954.48,1971.1 h -907.19 c -85.642,0 -364.1723,-69.63 -364.1723,-155.27 0,-85.64 278.5343,-155.28 364.1723,-155.28 h 751.92 V 311.383 H 1047.29 C 961.648,311.383 699.82956,241.75 699.82956,156.109 699.82956,70.5352 961.652,0.902344 1047.29,0.902344 h 907.19 c 85.58,0 155.21,69.632856 155.21,155.206656 V 1815.83 c 0,85.64 -69.63,155.27 -155.21,155.27 z"
       style="fill:#000000;fill-opacity:1;fill-rule:nonzero;stroke:none;stroke-width:0.1"
       id="path14" />
    <path
       d="m 908.156,627.535 c 0,-31.203 16.145,-59.097 43.16,-74.699 13.504,-7.766 28.297,-11.684 43.09,-11.684 14.784,0 29.584,3.918 43.094,11.684 l 620.75,358.367 c 27.02,15.598 43.16,43.559 43.16,74.699 0,31.208 -16.14,59.168 -43.16,74.758 l -620.69,358.44 c -27.01,15.53 -59.228,15.6 -86.244,0.07 -27.015,-15.6 -43.16,-43.57 -43.16,-74.77 V 1141.24 H 155.5 c -45.594,0 -88.684,-19.92 -118.2621,-54.7 C 7.71914,1051.82 -5.04297,1005.69 2.38281,960.031 14.3359,886.348 83.3629,830.762 162.926,830.762 h 745.23 z"
       style="fill:#000000;fill-opacity:1;fill-rule:nonzero;stroke:none;stroke-width:0.1"
       id="path16" />
  </g>
</svg>
