<?xml version="1.0" encoding="UTF-8" standalone="no"?>
<svg
   xmlns:dc="http://purl.org/dc/elements/1.1/"
   xmlns:cc="http://creativecommons.org/ns#"
   xmlns:rdf="http://www.w3.org/1999/02/22-rdf-syntax-ns#"
   xmlns:svg="http://www.w3.org/2000/svg"
   xmlns="http://www.w3.org/2000/svg"
   width="205.66005mm"
   height="207.89409mm"
   viewBox="0 0 205.66004 207.89409"
   version="1.1"
   id="svg8">
  <defs
     id="defs2" />
  <metadata
     id="metadata5">
    <rdf:RDF>
      <cc:Work
         rdf:about="">
        <dc:format>image/svg+xml</dc:format>
        <dc:type
           rdf:resource="http://purl.org/dc/dcmitype/StillImage" />
        <dc:title></dc:title>
      </cc:Work>
    </rdf:RDF>
  </metadata>
  <style
     type="text/css"
     id="stylebodge1">[id^=&quot;polygon&quot;]{fill:#FFF663;fill-opacity:1}</style>
  <g
     style="fill:#1e1e1e;fill-opacity:1"
     transform="matrix(1.4539692,0,0,1.4539692,-78.284683,-93.659907)"
     id="g30000">
    <path
       d="m 67.512388,106.40559 c -2.939284,0.7964 -4.65934,1.84732 -6.718071,4.19751 -3.148647,3.61048 -3.191751,3.77879 -3.191751,25.35749 0,22.37715 -0.0431,22.04053 3.947098,26.07178 4.324771,4.28167 -1.342383,3.9471 63.016046,3.9471 64.36048,0 58.69332,0.33662 63.01604,-3.9471 3.98815,-4.03125 3.9471,-3.69463 3.9471,-26.07178 0,-22.37715 0.0431,-22.04053 -3.94505,-26.06973 -4.32272,-4.32477 1.51275,-3.9471 -62.17654,-4.03125 -47.734635,-0.0842 -55.963401,0 -57.894872,0.54598 z m 26.071783,13.64551 c 7.011589,2.35019 10.831429,7.9763 10.831429,15.91154 0,10.62207 -7.011591,17.21288 -17.801967,16.71 -3.189699,-0.12521 -4.281668,-0.37767 -6.633916,-1.46964 -3.401114,-1.59485 -6.172087,-4.28167 -7.725885,-7.59863 -1.637953,-3.40111 -1.931471,-9.27763 -0.63014,-13.39304 2.183938,-7.05264 7.851092,-10.95663 15.911546,-10.99974 2.438457,-0.0431 4.242668,0.20937 6.048933,0.83951 z m 40.638889,0.25041 c 2.47746,1.13302 4.49309,3.1897 5.71026,5.79441 1.59485,3.40112 1.34238,3.904 -2.43435,4.61829 -1.30133,0.25247 -1.42654,0.16831 -1.93147,-1.21717 -1.38549,-3.73774 -4.53414,-5.54195 -9.02722,-5.20533 -4.66139,0.37768 -7.9763,2.93929 -9.15242,7.01159 -0.7143,2.3933 -0.67119,7.26201 0.041,9.44594 0.7143,2.18394 3.14865,4.82766 5.37364,5.79442 3.2328,1.42859 9.02721,0.88055 12.13276,-1.17613 0.79639,-0.50288 0.96471,-0.96471 0.96471,-2.89618 v -2.30914 h -4.61829 -4.61829 v -2.72787 -2.72787 h 7.34616 7.34615 v 6.63391 6.63392 l -2.18393,1.30133 c -4.91181,2.98034 -6.00378,3.27386 -11.46157,3.27386 -4.57724,0 -5.24843,-0.0842 -7.43032,-1.13302 -3.358,-1.5538 -6.25624,-4.40893 -7.72383,-7.59863 -1.13302,-2.43435 -1.21717,-2.93928 -1.21717,-7.85109 0,-4.57519 0.1252,-5.49884 0.96676,-7.34616 2.14083,-4.61829 4.61829,-7.01159 9.02721,-8.64954 3.0255,-1.13918 10.11919,-0.97087 12.89016,0.33046 z m 36.94632,0 c 2.47745,1.13302 4.49308,3.1897 5.71026,5.79441 1.59484,3.40112 1.34443,3.904 -2.43436,4.61829 -1.42653,0.25247 -1.46964,0.20937 -2.18393,-1.63795 -1.34239,-3.48527 -4.36583,-5.12322 -8.8158,-4.7866 -6.2973,0.50493 -9.69841,4.65934 -9.65531,11.67093 0,3.81984 0.79845,6.08793 2.72787,8.18771 2.30915,2.51851 4.49308,3.27386 8.64954,3.1076 2.43436,-0.12521 3.81984,-0.46183 5.37364,-1.21718 l 2.09978,-1.04886 0.12521,-2.43435 0.12521,-2.3933 h -4.65934 -4.61829 v -2.72787 -2.72787 h 7.34615 7.34616 v 6.63391 6.63392 l -2.18393,1.30133 c -4.91181,2.98034 -6.00378,3.27386 -11.46157,3.27386 -4.57724,0 -5.24843,-0.0842 -7.43032,-1.13302 -3.35801,-1.5538 -6.25419,-4.40893 -7.72383,-7.59863 -1.13302,-2.43435 -1.21717,-2.93928 -1.21717,-7.85109 0,-4.82765 0.0841,-5.45779 1.13302,-7.64173 2.09978,-4.53413 4.57518,-6.88433 8.8589,-8.39708 3.06449,-1.09607 10.15819,-0.88466 12.88811,0.37357 z"
       id="path1038"
       style="fill:#1e1e1e;fill-opacity:1;stroke-width:0.0205257" />
    <path
       d="m 83.50809,125.00396 c -3.819839,1.34238 -5.582999,3.69463 -6.424554,8.73164 -0.587036,3.61048 -0.04105,6.75912 1.679005,9.44594 3.862942,6.08793 14.273593,5.91962 17.884068,-0.25246 3.148647,-5.37364 1.847316,-13.68656 -2.602662,-16.71 -3.062439,-2.09568 -6.75707,-2.51646 -10.535857,-1.21512 z"
       id="path1040"
       style="fill:#1e1e1e;fill-opacity:1;stroke-width:0.0205257" />
  </g>
  <style
     type="text/css"
     id="stylebodge2">[id^=&quot;path&quot;]{fill:#FFF663;fill-opacity:1}</style>
</svg>
