<?xml version="1.0" encoding="UTF-8" standalone="no"?>
<svg
   xmlns:dc="http://purl.org/dc/elements/1.1/"
   xmlns:cc="http://creativecommons.org/ns#"
   xmlns:rdf="http://www.w3.org/1999/02/22-rdf-syntax-ns#"
   xmlns:svg="http://www.w3.org/2000/svg"
   xmlns="http://www.w3.org/2000/svg"
   id="svg8"
   version="1.1"
   viewBox="0 0 205.66004 207.89409"
   height="207.89409mm"
   width="205.66005mm">
  <defs
     id="defs2" />
  <metadata
     id="metadata5">
    <rdf:RDF>
      <cc:Work
         rdf:about="">
        <dc:format>image/svg+xml</dc:format>
        <dc:type
           rdf:resource="http://purl.org/dc/dcmitype/StillImage" />
        <dc:title></dc:title>
      </cc:Work>
    </rdf:RDF>
  </metadata>
  <style
     id="style3111"
     type="text/css">
	.st0{fill:#333333;}
</style>
  <style
     id="style2"
     type="text/css">
	.st0{fill:none;}
	.st1{fill:#F4481E;}
	.st2{fill:url(#SVGID_1_);}
	.st3{opacity:0.1;fill:#FFFFFF;enable-background:new    ;}
	.st4{fill:#FFD119;}
	.st5{fill:#FF8C00;}
	.st6{fill:url(#SVGID_2_);}
	.st7{fill:#FAFAFA;}
	.st8{opacity:0.3;fill:#FFFFFF;enable-background:new    ;}
</style>
  <path
     style="fill:#1e1e1e;fill-opacity:1;fill-rule:evenodd;stroke:#1e1e1e;stroke-width:1.81732;stroke-miterlimit:4;stroke-dasharray:none;stroke-opacity:0"
     stroke-miterlimit="4"
     d="M 94.069748,108.17289 60.663373,86.215977 26.965948,107.91447 37.524893,69.357869 6.4749423,44.014783 46.407063,42.142157 60.914586,4.7812743 75.03467,42.181077 115.05149,44.433558 83.84636,69.419784 Z"
     id="path3817" />
  <g
     id="g837"
     style="fill:#1e1e1e;fill-opacity:1;stroke:#1e1e1e;stroke-opacity:1"
     transform="matrix(-0.26458332,0,0,0.26458332,202.97998,70.98215)">
    <path
       d="m 121.5,64.2 c -31.7,0 -57.3,25.7 -57.3,57.3 0,31.7 25.7,57.3 57.3,57.3 31.7,0 57.3,-25.7 57.3,-57.3 0.1,-31.7 -25.6,-57.3 -57.3,-57.3 z m 0,94.3 c -20.4,0 -37,-16.6 -37,-37 0,-20.4 16.6,-37 37,-37 20.4,0 37,16.6 37,37 0,20.4 -16.5,37 -37,37 z"
       id="path833"
       style="fill:#1e1e1e;fill-opacity:1;stroke:#1e1e1e;stroke-opacity:1" />
    <path
       d="M 244.5,29.8 C 234.1,18.3 219.5,12.1 203.8,12.1 L 96.5,11 C 73.6,11 51.7,19.3 36,36 19.3,51.7 11,73.6 11,96.5 l 1,107.4 c 1,14.6 6.3,29.2 17.7,40.7 L 286.2,501 501,286.2 Z m 40.7,442 L 43.3,229.9 C 36,222.6 31.8,213.2 31.8,202.8 L 30.8,96.5 C 30.8,79.8 38.1,63.1 49.6,50.6 62.1,38.1 78.8,30.8 96.5,30.8 l 106.3,1 c 10.4,0 19.8,4.2 27.1,11.5 l 241.9,241.9 z"
       id="path835"
       style="fill:#1e1e1e;fill-opacity:1;stroke:#1e1e1e;stroke-opacity:1" />
  </g>
  <path
     id="path1603"
     d="M 196.00183,11.011339 9.2495246,196.88274"
     style="fill:none;stroke:#1e1e1e;stroke-width:4.23333313;stroke-linecap:round;stroke-linejoin:miter;stroke-opacity:1;stroke-miterlimit:4;stroke-dasharray:none" />
</svg>
