<?xml version="1.0" encoding="UTF-8" standalone="no"?>
<svg
   xmlns:dc="http://purl.org/dc/elements/1.1/"
   xmlns:cc="http://creativecommons.org/ns#"
   xmlns:rdf="http://www.w3.org/1999/02/22-rdf-syntax-ns#"
   xmlns:svg="http://www.w3.org/2000/svg"
   xmlns="http://www.w3.org/2000/svg"
   version="1.1"
   x="0px"
   y="0px"
   viewBox="0 0 1000 1000"
   enable-background="new 0 0 1000 1000"
   xml:space="preserve"
   id="svg40732"><defs
   id="defs40736" />
<metadata
   id="metadata40724"> Svg Vector Icons : http://www.onlinewebfonts.com/icon <rdf:RDF><cc:Work
     rdf:about=""><dc:format>image/svg+xml</dc:format><dc:type
       rdf:resource="http://purl.org/dc/dcmitype/StillImage" /><dc:title></dc:title></cc:Work></rdf:RDF></metadata>
<path
   style="stroke:#1e1e1e;stroke-opacity:1;fill:#1e1e1e;fill-opacity:1"
   id="path40728"
   d="m 912.1,499.9 c 0,-87.5 -26.9,-168.7 -72.6,-235.9 -0.7,-1.1 -1.1,-2.3 -1.9,-3.4 -5.7,-8.2 -11.9,-15.9 -18,-23.5 -0.7,-0.9 -1.4,-1.9 -2.1,-2.8 -41.8,-51.4 -94.3,-91 -153.8,-117 -1.6,-0.7 -3.3,-1.5 -4.9,-2.2 -9.5,-4 -19.2,-7.5 -29,-10.8 -3.5,-1.2 -7,-2.5 -10.6,-3.5 -8.5,-2.6 -17.2,-4.7 -25.9,-6.8 -4.8,-1.1 -9.6,-2.4 -14.5,-3.3 -2.4,-0.5 -4.7,-1.2 -7.1,-1.6 -6.5,-1.1 -13,-1.6 -19.6,-2.5 -4.5,-0.6 -8.9,-1.3 -13.5,-1.8 -11,-1 -21.8,-1.5 -32.7,-1.7 -2,0 -3.9,-0.3 -5.9,-0.3 -0.4,0 -0.7,0.1 -1.1,0.1 -83.7,0.1 -165.2,25.6 -235.2,75.3 -22.4,15.8 -27.8,47.1 -12.2,69.7 15.6,22.7 46.5,28.2 68.9,12.3 54.1,-38.3 117.2,-57.8 181.9,-57.2 9.3,0.1 18.5,0.5 27.5,1.4 2.8,0.3 5.6,0.7 8.3,1.1 7.4,0.9 14.8,2 22.1,3.4 3.2,0.6 6.4,1.5 9.5,2.2 7.1,1.6 14.3,3.4 21.2,5.5 2.2,0.7 4.4,1.5 6.6,2.2 8,2.6 15.8,5.5 23.5,8.7 0.8,0.3 1.6,0.7 2.3,1.1 46.1,20.1 86.5,51 118.1,89.6 0.2,0.2 0.4,0.5 0.6,0.8 44.4,54.7 71.1,124.7 71.2,200.8 h -72.7 c -1.9,0 -3.7,1 -4.6,2.8 -1,1.8 -0.8,3.8 0.2,5.4 l 122.1,185.4 c 0.9,1.4 2.6,2.4 4.4,2.4 1.8,0 3.5,-0.9 4.4,-2.4 L 989.1,508 c 1,-1.6 1.2,-3.6 0.2,-5.4 -1,-1.8 -2.8,-2.8 -4.6,-2.8 z" />
</svg>
