<?xml version="1.0" encoding="UTF-8" standalone="no"?>
<svg
   xmlns:dc="http://purl.org/dc/elements/1.1/"
   xmlns:cc="http://creativecommons.org/ns#"
   xmlns:rdf="http://www.w3.org/1999/02/22-rdf-syntax-ns#"
   xmlns:svg="http://www.w3.org/2000/svg"
   xmlns="http://www.w3.org/2000/svg"
   id="svg40732"
   xml:space="preserve"
   enable-background="new 0 0 1000 1000"
   viewBox="0 0 1000 1000"
   y="0px"
   x="0px"
   version="1.1"><defs
   id="defs40736" />
<metadata
   id="metadata40724"> Svg Vector Icons : http://www.onlinewebfonts.com/icon <rdf:RDF><cc:Work
     rdf:about=""><dc:format>image/svg+xml</dc:format><dc:type
       rdf:resource="http://purl.org/dc/dcmitype/StillImage" /><dc:title></dc:title></cc:Work></rdf:RDF></metadata>
<path
   d="M 917.35534,243.78331 C 860.90964,158.68244 781.75994,96.669246 692.93377,60.125557 c -1.40617,-0.628491 -2.57833,-1.543389 -4.084,-2.10883 -10.96182,-4.381326 -22.09864,-7.961112 -33.07143,-11.50669 -1.27715,-0.433975 -2.61881,-0.965207 -3.89597,-1.399181 C 577.12955,21.475007 499.34131,16.061951 423.36068,28.289488 c -2.04372,0.327991 -4.25146,0.621773 -6.29518,0.949763 -12.03378,2.099409 -23.94404,4.811209 -35.82478,7.780574 -4.25695,1.039647 -8.57841,1.982035 -12.80585,3.279248 -10.13555,2.830524 -20.14758,6.273439 -30.15961,9.716354 -5.48607,1.956553 -11.10115,3.718589 -16.5577,5.932708 -2.71078,1.026905 -5.45106,1.796244 -8.09733,2.920408 -7.17773,3.0284 -13.96839,6.640348 -21.11661,9.926314 -4.86499,2.253694 -9.69497,4.34708 -14.59496,6.761081 -11.59115,5.962901 -22.66073,12.285992 -33.63629,18.963908 -1.99019,1.260997 -4.0744,2.167169 -6.06459,3.428166 -0.39804,0.252199 -0.63206,0.538607 -1.0301,0.790806 C 153.95268,151.60879 89.302273,227.79522 51.706737,320.2674 c -12.097662,29.48995 2.720258,63.33643 32.822871,75.481 30.167122,12.24182 64.463592,-1.89138 76.496752,-31.47859 29.12758,-71.35982 79.33879,-130.1096 144.10854,-170.3193 9.3189,-5.76637 18.73181,-11.17793 28.26826,-15.97709 2.9798,-1.47362 6.0241,-2.84998 8.9689,-4.1633 7.94429,-3.79036 16.0176,-7.38621 24.18493,-10.62723 3.57136,-1.43405 7.33626,-2.57632 10.87262,-3.85006 8.09733,-2.92041 16.42318,-5.70935 24.64404,-8.01737 2.64078,-0.70628 5.34606,-1.31532 7.98684,-2.02161 9.63801,-2.51527 19.27053,-4.61267 28.99707,-6.35525 0.9896,-0.21262 2.04371,-0.32799 2.99832,-0.38031 58.8403,-9.51709 118.97556,-4.93646 175.32121,12.68143 0.32803,0.0684 0.72058,0.2341 1.11313,0.39977 79.46888,25.20607 151.1945,76.45246 200.38565,150.40284 l -72.34346,45.83723 c -1.89068,1.19795 -3.03676,3.30543 -2.77118,5.62352 0.16608,2.38115 1.65528,4.20021 3.68253,5.12584 l 241.10158,103.33273 c 1.79872,0.79416 4.13547,0.6949 5.92664,-0.44 1.79118,-1.1349 2.90225,-3.08207 2.8302,-5.10839 l 1.90079,-257.30042 c -0.0371,-2.18663 -1.12822,-4.25789 -3.28449,-5.37804 -2.15626,-1.12014 -4.59253,-0.95783 -6.3837,0.17707 z"
   id="path40728"
   style="fill:#1e1e1e;fill-opacity:1;stroke:#1e1e1e;stroke-width:1.17241;stroke-opacity:1" />
</svg>
