<?xml version="1.0" encoding="UTF-8" standalone="no"?>
<svg
   xmlns:dc="http://purl.org/dc/elements/1.1/"
   xmlns:cc="http://creativecommons.org/ns#"
   xmlns:rdf="http://www.w3.org/1999/02/22-rdf-syntax-ns#"
   xmlns:svg="http://www.w3.org/2000/svg"
   xmlns="http://www.w3.org/2000/svg"
   version="1.1"
   id="Layer_1"
   x="0px"
   y="0px"
   viewBox="0 0 308 308"
   xml:space="preserve"
   width="308"
   height="308"><metadata
   id="metadata4713"><rdf:RDF><cc:Work
       rdf:about=""><dc:format>image/svg+xml</dc:format><dc:type
         rdf:resource="http://purl.org/dc/dcmitype/StillImage" /><dc:title></dc:title></cc:Work></rdf:RDF></metadata><defs
   id="defs4711">
	

		
	
			
			
			
			
			
			
			
		</defs>
<path
   style="stroke:#1e1e1e;stroke-width:4;stroke-miterlimit:4;stroke-dasharray:none;stroke-opacity:1;fill:#1e1e1e;fill-opacity:1"
   id="path4658"
   d="M 4,18.516 V 289.484 H 304 V 18.516 Z m 9.677,261.29 V 28.194 h 280.645 v 251.612 z" /><path
   style="stroke:#1e1e1e;stroke-width:4;stroke-miterlimit:4;stroke-dasharray:none;stroke-opacity:1;fill:#1e1e1e;fill-opacity:1"
   id="path4660"
   d="M 139.484,37.871 C 75.453,37.871 23.355,89.969 23.355,154 c 0,64.031 52.098,116.129 116.129,116.129 64.031,0 116.129,-52.098 116.129,-116.129 0,-64.031 -52.098,-116.129 -116.129,-116.129 z m 0,222.581 C 80.785,260.452 33.032,212.698 33.032,154 c 0,-58.698 47.753,-106.452 106.452,-106.452 58.698,0 106.452,47.753 106.452,106.452 0,58.699 -47.753,106.452 -106.452,106.452 z" /><path
   style="stroke:#1e1e1e;stroke-width:4;stroke-miterlimit:4;stroke-dasharray:none;stroke-opacity:1;fill:#1e1e1e;fill-opacity:1"
   id="path4662"
   d="m 173.355,154 c 0,-18.677 -15.194,-33.871 -33.871,-33.871 -18.677,0 -33.871,15.194 -33.871,33.871 0,18.673 15.193,33.871 33.871,33.871 18.677,0 33.871,-15.198 33.871,-33.871 z m -58.065,0 c 0,-13.34 10.854,-24.194 24.194,-24.194 13.34,0 24.194,10.853 24.194,24.194 0,13.341 -10.853,24.194 -24.194,24.194 -13.341,0 -24.194,-10.854 -24.194,-24.194 z" /><circle
   style="stroke:#1e1e1e;stroke-width:4;stroke-miterlimit:4;stroke-dasharray:none;stroke-opacity:1;fill:#1e1e1e;fill-opacity:1"
   id="circle4664"
   r="4.8390002"
   cy="154"
   cx="139.48399" /><path
   style="stroke:#1e1e1e;stroke-width:4;stroke-miterlimit:4;stroke-dasharray:none;stroke-opacity:1;fill:#1e1e1e;fill-opacity:1"
   id="path4668"
   d="m 241.90794,73.397913 8.80933,4.005022 -57.44847,126.361925 -0.005,-0.003 c -3.69669,8.13112 -10.30227,14.36086 -18.61805,17.56995 l -0.7015,-1.8711 c -2.19091,-5.84372 -9.19867,-9.0297 -15.04239,-6.8388 l -6.40783,2.40241 c -6.02456,2.26247 -9.09258,9.0108 -6.83672,15.03784 1.0952,2.92119 3.26691,5.2432 6.10807,6.5349 2.84117,1.29168 6.01312,1.39909 8.93523,0.3043 l 17.02399,-6.38257 c 10.89085,-4.07937 19.53943,-12.15948 24.35398,-22.74943 l 57.44847,-126.361917 8.80932,4.005019 16.0209,-35.239107 -26.42887,-12.015472 z m -84.6128,154.440017 c -1.35202,0.50689 -2.07027,0.18035 -2.57717,-1.17167 -0.39129,-1.03363 0.13722,-2.19612 1.17333,-2.5808 l 6.40783,-2.4024 c 0.67269,-0.2522 1.25284,-0.0785 1.53049,0.0477 0.27765,0.12625 0.78991,0.4492 1.04667,1.12397 l 0.70399,1.87772 z M 262.7286,50.97108 l 8.80932,4.00502 -8.01045,17.619552 -8.80933,-4.005019 z" />
<g
   id="g4678"
   transform="translate(4,-10.516)">
</g>
<g
   id="g4680"
   transform="translate(4,-10.516)">
</g>
<g
   id="g4682"
   transform="translate(4,-10.516)">
</g>
<g
   id="g4684"
   transform="translate(4,-10.516)">
</g>
<g
   id="g4686"
   transform="translate(4,-10.516)">
</g>
<g
   id="g4688"
   transform="translate(4,-10.516)">
</g>
<g
   id="g4690"
   transform="translate(4,-10.516)">
</g>
<g
   id="g4692"
   transform="translate(4,-10.516)">
</g>
<g
   id="g4694"
   transform="translate(4,-10.516)">
</g>
<g
   id="g4696"
   transform="translate(4,-10.516)">
</g>
<g
   id="g4698"
   transform="translate(4,-10.516)">
</g>
<g
   id="g4700"
   transform="translate(4,-10.516)">
</g>
<g
   id="g4702"
   transform="translate(4,-10.516)">
</g>
<g
   id="g4704"
   transform="translate(4,-10.516)">
</g>
<g
   id="g4706"
   transform="translate(4,-10.516)">
</g>
</svg>
