<?xml version="1.0" encoding="UTF-8" standalone="no"?>
<svg
   xmlns:dc="http://purl.org/dc/elements/1.1/"
   xmlns:cc="http://creativecommons.org/ns#"
   xmlns:rdf="http://www.w3.org/1999/02/22-rdf-syntax-ns#"
   xmlns:svg="http://www.w3.org/2000/svg"
   xmlns="http://www.w3.org/2000/svg"
   xmlns:sodipodi="http://sodipodi.sourceforge.net/DTD/sodipodi-0.dtd"
   xmlns:inkscape="http://www.inkscape.org/namespaces/inkscape"
   inkscape:version="1.0beta2 (2b71d25, 2019-12-03)"
   sodipodi:docname="soundcloud-logo.svg"
   xml:space="preserve"
   enable-background="new 0 0 512 512"
   viewBox="0 0 512 512"
   height="512px"
   width="512px"
   y="0px"
   x="0px"
   id="Layer_1"
   version="1.1"><metadata
     id="metadata15"><rdf:RDF><cc:Work
         rdf:about=""><dc:format>image/svg+xml</dc:format><dc:type
           rdf:resource="http://purl.org/dc/dcmitype/StillImage" /></cc:Work></rdf:RDF></metadata><defs
     id="defs13" /><sodipodi:namedview
     inkscape:document-rotation="0"
     inkscape:current-layer="Layer_1"
     inkscape:window-maximized="0"
     inkscape:window-y="118"
     inkscape:window-x="238"
     inkscape:cy="284.20339"
     inkscape:cx="256"
     inkscape:zoom="0.4609375"
     showgrid="false"
     id="namedview11"
     inkscape:window-height="760"
     inkscape:window-width="1202"
     inkscape:pageshadow="2"
     inkscape:pageopacity="0"
     guidetolerance="10"
     gridtolerance="10"
     objecttolerance="10"
     borderopacity="1"
     bordercolor="#666666"
     pagecolor="#ffffff" /><g
     style="fill-opacity:1;fill:#1e1e1e"
     transform="matrix(1.7542527,0,0,1.7542527,-189.83493,-191.46194)"
     id="g8"><g
       style="fill-opacity:1;fill:#1e1e1e"
       id="g6"><path
         style="clip-rule:evenodd;fill-rule:evenodd;fill-opacity:1;fill:#1e1e1e"
         inkscape:connector-curvature="0"
         id="path4"
         d="m 128.591,281.609 c -2.875,13.5 5.344,32 12.781,38.391 v -64 c -7.437,6.391 -10.594,15.5 -12.781,25.609 z m 218.75,-31.421 c -4.469,0 -8.672,0.875 -12.609,2.266 -1.969,-33.672 -31,-60.453 -66.812,-60.453 -22.891,0 -50.609,8.938 -62.703,25.594 V 320 h 142.125 c 20.25,0 36.656,-15.625 36.656,-34.891 -10e-4,-19.297 -16.407,-34.921 -36.657,-34.921 z M 179.685,320 h 12.766 v -89.594 h -12.766 z m -25.547,0 h 12.766 v -76.812 h -12.766 z" /></g></g></svg>
