<?xml version="1.0" encoding="UTF-8" standalone="no"?>
<svg
   xmlns:dc="http://purl.org/dc/elements/1.1/"
   xmlns:cc="http://creativecommons.org/ns#"
   xmlns:rdf="http://www.w3.org/1999/02/22-rdf-syntax-ns#"
   xmlns:svg="http://www.w3.org/2000/svg"
   xmlns="http://www.w3.org/2000/svg"
   id="svg9916"
   xml:space="preserve"
   enable-background="new 0 0 1000 1000"
   viewBox="0 0 1000 1000"
   y="0px"
   x="0px"
   version="1.1"><defs
   id="defs9920" />
<metadata
   id="metadata9872"> Svg Vector Icons : http://www.onlinewebfonts.com/icon <rdf:RDF><cc:Work
     rdf:about=""><dc:format>image/svg+xml</dc:format><dc:type
       rdf:resource="http://purl.org/dc/dcmitype/StillImage" /><dc:title></dc:title></cc:Work></rdf:RDF></metadata>
<g
   style="fill:#1e1e1e;fill-opacity:1"
   id="g9914"><g
     style="fill:#1e1e1e;fill-opacity:1"
     id="g9882"><path
       style="fill:#1e1e1e;fill-opacity:1"
       id="path9874"
       d="M685.9,644.4c-163.1-75.4-391.4-42-401-40.6c-21.5,3.2-36.3,23.3-33,44.8c3.2,21.5,23.3,36.3,44.8,33c2.1-0.3,214.3-31.4,356.2,34.2c5.3,2.5,11,3.6,16.5,3.6c14.9,0,29.1-8.5,35.7-22.8C714.3,676.9,705.7,653.6,685.9,644.4z" /><path
       style="fill:#1e1e1e;fill-opacity:1"
       id="path9876"
       d="M731.8,502.8c-185.2-85.6-444.9-47.7-455.9-46c-21.5,3.2-36.2,23.3-33,44.7c3.2,21.5,23.3,36.3,44.7,33c2.5-0.4,247.6-36,411.2,39.6c5.3,2.5,11,3.6,16.5,3.6c14.9,0,29.1-8.5,35.7-22.8C760.1,535.3,751.5,511.9,731.8,502.8z" /><path
       style="fill:#1e1e1e;fill-opacity:1"
       id="path9878"
       d="M762.6,354.8C558,260.2,270.7,302.2,258.5,304c-21.5,3.2-36.2,23.3-33,44.8c3.2,21.5,23.3,36.3,44.7,33c2.7-0.4,276.4-40.2,459.3,44.4c5.3,2.5,11,3.6,16.5,3.6c14.9,0,29.1-8.5,35.7-22.8C790.9,387.3,782.3,363.9,762.6,354.8z" /><path
       style="fill:#1e1e1e;fill-opacity:1"
       id="path9880"
       d="M500,10C229.8,10,10,229.8,10,500c0,270.2,219.8,490,490,490c270.2,0,490-219.8,490-490C990,229.8,770.2,10,500,10z M500,911.3C273.2,911.3,88.7,726.8,88.7,500C88.7,273.2,273.2,88.7,500,88.7c226.8,0,411.3,184.5,411.3,411.3C911.3,726.8,726.8,911.3,500,911.3z" /></g><g
     style="fill:#1e1e1e;fill-opacity:1"
     id="g9884" /><g
     style="fill:#1e1e1e;fill-opacity:1"
     id="g9886" /><g
     style="fill:#1e1e1e;fill-opacity:1"
     id="g9888" /><g
     style="fill:#1e1e1e;fill-opacity:1"
     id="g9890" /><g
     style="fill:#1e1e1e;fill-opacity:1"
     id="g9892" /><g
     style="fill:#1e1e1e;fill-opacity:1"
     id="g9894" /><g
     style="fill:#1e1e1e;fill-opacity:1"
     id="g9896" /><g
     style="fill:#1e1e1e;fill-opacity:1"
     id="g9898" /><g
     style="fill:#1e1e1e;fill-opacity:1"
     id="g9900" /><g
     style="fill:#1e1e1e;fill-opacity:1"
     id="g9902" /><g
     style="fill:#1e1e1e;fill-opacity:1"
     id="g9904" /><g
     style="fill:#1e1e1e;fill-opacity:1"
     id="g9906" /><g
     style="fill:#1e1e1e;fill-opacity:1"
     id="g9908" /><g
     style="fill:#1e1e1e;fill-opacity:1"
     id="g9910" /><g
     style="fill:#1e1e1e;fill-opacity:1"
     id="g9912" /></g>
</svg>
