<?xml version="1.0" encoding="UTF-8" standalone="no"?>
<svg
   xmlns:dc="http://purl.org/dc/elements/1.1/"
   xmlns:cc="http://creativecommons.org/ns#"
   xmlns:rdf="http://www.w3.org/1999/02/22-rdf-syntax-ns#"
   xmlns:svg="http://www.w3.org/2000/svg"
   xmlns="http://www.w3.org/2000/svg"
   id="svg843"
   xml:space="preserve"
   enable-background="new 0 0 1000 1000"
   viewBox="0 0 1000 1000"
   y="0px"
   x="0px"
   version="1.1"><defs
   id="defs847" />
<metadata
   id="metadata833"> Svg Vector Icons : http://www.onlinewebfonts.com/icon <rdf:RDF><cc:Work
     rdf:about=""><dc:format>image/svg+xml</dc:format><dc:type
       rdf:resource="http://purl.org/dc/dcmitype/StillImage" /><dc:title></dc:title></cc:Work></rdf:RDF></metadata>
<g
   id="g841"><path
     d="m 101.89,13 c -33.3,7.08 -63.55,30.63 -78.48,60.48 -14.36,29.09 -13.4,-0.96 -13.4,427.6 0,376.87 0,385.1 3.83,399.65 10.91,42.87 42.49,74.46 85.37,85.37 14.55,3.83 22.78,3.83 400.8,3.83 378.02,0 386.25,0 400.8,-3.83 42.87,-10.91 74.45,-42.49 85.37,-85.37 3.83,-14.55 3.83,-22.78 3.83,-400.8 0,-378.02 0,-386.25 -3.83,-400.8 C 975.27,56.26 943.69,24.67 900.81,13.76 886.26,9.93 878.22,9.93 500.2,10.12 177.68,10.13 112.22,10.71 101.89,13 Z m 788.58,61.25 c 7.85,2.3 12.82,5.55 21.25,13.97 18.76,18.76 17.04,-21.63 17.04,411.71 0,433.34 1.72,392.95 -17.04,411.71 -18.76,18.76 21.63,17.04 -411.71,17.04 C 66.67,928.68 107.06,930.4 88.3,911.65 69.54,892.89 71.27,933.28 71.27,499.94 71.27,66.6 69.55,106.99 88.3,88.23 c 8.04,-8.04 13.59,-11.87 20.48,-13.97 8.23,-2.49 56.66,-2.87 390.46,-2.87 342.8,-0.2 382.04,0.18 391.23,2.86 z"
     id="path835"
     style="fill:#1e1e1e;fill-opacity:1;stroke-width:0.1" /></g>
</svg>
