<?xml version="1.0" encoding="UTF-8" standalone="no"?>
<!-- Generator: Adobe Illustrator 17.0.0, SVG Export Plug-In . SVG Version: 6.00 Build 0)  -->
<svg id="Layer_1" xmlns:rdf="http://www.w3.org/1999/02/22-rdf-syntax-ns#" xmlns="http://www.w3.org/2000/svg" enable-background="new 0 0 26 26" xml:space="preserve" height="26px" viewBox="0 0 26 26" width="26px" version="1.1" y="0px" x="0px" xmlns:cc="http://creativecommons.org/ns#" xmlns:dc="http://purl.org/dc/elements/1.1/"><metadata id="metadata9"><rdf:RDF><cc:Work rdf:about=""><dc:format>image/svg+xml</dc:format><dc:type rdf:resource="http://purl.org/dc/dcmitype/StillImage"/><dc:title/></cc:Work></rdf:RDF></metadata><path id="path3" d="M25.856,11.141c-4.183,8.859-5.544,8.859-6.356,8.859h-8c-2.802,0-4.949-1.648-5.47-4.2-0.016-0.078-1.6-7.853-2.005-10.025-0.199-1.065-0.705-1.775-2.525-1.775-0.829,0-1.5-0.671-1.5-1.5s0.671-1.5,1.5-1.5c3.02,0,4.964,1.5,5.474,4.224,0.401,2.149,1.98,9.898,1.996,9.977,0.319,1.566,1.722,1.8,2.53,1.8h7.605c0.817-0.878,2.679-4.261,4.038-7.141,0.354-0.749,1.249-1.068,1.997-0.716,0.75,0.353,1.07,1.247,0.716,1.997zm-15.356,9.859c-1.381,0-2.5,1.119-2.5,2.5s1.119,2.5,2.5,2.5,2.5-1.119,2.5-2.5-1.119-2.5-2.5-2.5zm9,0c-1.381,0-2.5,1.119-2.5,2.5s1.119,2.5,2.5,2.5,2.5-1.119,2.5-2.5-1.119-2.5-2.5-2.5zm-4.837-8.156c0.1,0.081,0.223,0.12,0.346,0.12s0.244-0.039,0.346-0.12c0.1-0.079,2.828-2.74,4.316-4.954,0.115-0.172,0.126-0.392,0.028-0.574-0.095-0.181-0.285-0.295-0.49-0.295h-2.226s-0.217-4.291-0.359-4.49c-0.206-0.294-1.057-0.494-1.616-0.494-0.561,0-1.427,0.2-1.634,0.494-0.141,0.198-0.328,4.49-0.328,4.49h-2.255c-0.206,0-0.395,0.114-0.492,0.295-0.097,0.182-0.086,0.403,0.028,0.574,1.489,2.215,4.237,4.875,4.336,4.954z"/></svg>
