<?xml version="1.0" encoding="UTF-8" standalone="no"?>
<!-- Generator: Adobe Illustrator 12.0.1, SVG Export Plug-In . SVG Version: 6.00 Build 51448)  -->

<svg
   xmlns:dc="http://purl.org/dc/elements/1.1/"
   xmlns:cc="http://creativecommons.org/ns#"
   xmlns:rdf="http://www.w3.org/1999/02/22-rdf-syntax-ns#"
   xmlns:svg="http://www.w3.org/2000/svg"
   xmlns="http://www.w3.org/2000/svg"
   xmlns:sodipodi="http://sodipodi.sourceforge.net/DTD/sodipodi-0.dtd"
   xmlns:inkscape="http://www.inkscape.org/namespaces/inkscape"
   version="1.1"
   id="Layer_1"
   width="106.7448"
   height="97.173752"
   viewBox="0 0 106.7448 97.173752"
   overflow="visible"
   enable-background="new 0 0 253.474 301.721"
   xml:space="preserve"
   inkscape:version="0.48.5 r10040"
   sodipodi:docname="musicbrainz_logo.svg"
   style="overflow:visible"><metadata
     id="metadata305"><rdf:RDF><cc:Work
         rdf:about=""><dc:format>image/svg+xml</dc:format><dc:type
           rdf:resource="http://purl.org/dc/dcmitype/StillImage" /><dc:title /></cc:Work></rdf:RDF></metadata><defs
     id="defs303" /><sodipodi:namedview
     pagecolor="#ffffff"
     bordercolor="#666666"
     borderopacity="1"
     objecttolerance="10"
     gridtolerance="10"
     guidetolerance="10"
     inkscape:pageopacity="0"
     inkscape:pageshadow="2"
     inkscape:window-width="1315"
     inkscape:window-height="834"
     id="namedview301"
     showgrid="false"
     inkscape:zoom="1.5643591"
     inkscape:cx="-41.787898"
     inkscape:cy="-16.315291"
     inkscape:window-x="652"
     inkscape:window-y="421"
     inkscape:window-maximized="0"
     inkscape:current-layer="Layer_1"
     fit-margin-top="0"
     fit-margin-left="0"
     fit-margin-right="0"
     fit-margin-bottom="0" /><path
     style="fill:#ffffff;fill-opacity:1"
     d="m 52.741701,9.3909454 c 0,29.2609336 0,58.5218686 0,87.7828026 15.92167,0 31.84333,0 47.764999,0 2.6795,-9.09403 4.7866,-18.55479 3.96427,-28.0923 0.38609,-7.159152 2.42703,-14.21823 1.53452,-21.4368 -0.57376,-7.820129 -2.10355,-16.177442 -7.664709,-22.088222 -6.78723,-9.129013 -14.04883,-19.7085016 -25.70668,-22.7048476 -5.558818,-1.123165 -11.746302,-0.84354 -16.80986,1.847387 -1.586756,1.066763 -2.924234,2.723731 -3.08254,4.69198 z"
     id="path3"
     inkscape:connector-curvature="0" /><path
     style="fill:#000000;fill-opacity:1"
     d="m 105.9197,65.702815 c -0.16778,7.715073 0.62542,15.794743 -2.50551,23.071943 -0.50534,2.26679 -0.40243,8.47562 -3.632059,7.60595 0.769469,-6.10149 2.444129,-12.05953 3.530579,-18.0702 0.17067,-5.99213 -1.56686,-12.36403 1.37007,-17.967795 1.55239,-6.390034 -1.31508,-12.710817 -1.15786,-19.113896 C 103.15436,34.1873 97.700291,29.60379 94.649511,24.140341 91.752341,16.190102 85.637411,9.5362044 77.670391,6.5126044 72.428271,3.1531484 66.102102,3.0012914 60.208573,4.5226424 56.216088,3.4735204 55.172584,11.03329 53.105462,10.166266 51.641302,3.1058174 59.617344,-1.3432216 65.700828,0.36582844 c 9.880343,-0.54506 19.558633,4.86090096 25.568523,12.52346056 4.40271,6.38538 9.028909,12.727272 12.297969,19.793337 3.71376,9.219346 3.45616,19.48867 2.75415,29.240352 -0.11477,1.261882 -0.24968,2.521945 -0.40177,3.779837 z"
     id="path7"
     inkscape:connector-curvature="0" /><g
     id="g9"
     transform="matrix(1,0,0,1.3046027,-75.057299,-266.28465)"><path
       d="m 148.453,210.265 c -5.3765,2.3626 -11.98187,-1.80647 -16.80639,2.0094 -4.44999,4.39862 2.48727,8.77886 -0.38621,13.1026 1.19762,4.20389 2.53704,-2.69454 4.64973,-3.22682 1.69016,-1.66469 -4.55306,-1.71368 -3.09757,-5.06853 0.81877,-6.72022 8.43491,-4.46133 12.92736,-4.16339 1.38672,-0.18253 2.37468,-1.354 2.71308,-2.65326 z"
       id="path11"
       inkscape:connector-curvature="0" /><path
       d="m 153.525,216.571 c 4.05453,3.87209 -0.81677,9.50493 -2.54591,12.01583 2.5956,0.91838 4.35369,-5.19775 7.58007,-1.99108 5.65459,2.01558 5.1014,11.73867 -1.61045,11.21737 -3.76714,1.10214 -12.98903,-3.72905 -11.88242,2.99151 3.35696,-1.68855 7.5405,-1.93908 11.3185,-1.43801 5.27521,0.52414 9.4321,5.29268 9.28454,10.60303 1.07874,5.95237 -4.30033,7.2941 -8.24805,9.62982 -1.73249,2.17186 -0.0346,8.04717 3.28332,5.19467 3.8213,-1.14008 9.10556,0.84936 9.54156,5.36358 -0.53202,3.10728 1.86972,-0.98564 1.73635,-2.3678 0.0334,-3.16081 -6.39253,-6.71223 -10.32155,-5.30151 -4.63084,-4.47414 8.84132,-2.29987 5.09068,-5.88746 -0.38998,-5.78634 9.26936,-5.99186 8.7426,-12.40134 -0.23369,-3.95192 2.50291,-7.72619 2.77008,-10.93591 -1.81682,0.72072 -3.49739,6.84399 -6.54452,3.06225 -4.11922,-0.60356 3.46829,3.73964 2.33695,6.12333 1.13164,5.06831 -7.94385,10.47282 -7.51542,2.71083 -0.95295,-4.13915 -3.99104,-7.37584 -1.67775,-11.90414 2.16582,-5.901 -4.69536,-7.36197 -7.36408,-11.00752 -1.70552,-1.79583 -0.54694,-5.81314 -3.9745,-5.67745 z"
       id="path13"
       inkscape:connector-curvature="0" /><path
       d="m 146.551,227.444 c 4.1882,-3.26671 10.37096,6.10451 5.27434,6.01378 -0.61824,-2.74385 -1.84311,-6.13574 -5.27434,-6.01378 z"
       id="path15"
       inkscape:connector-curvature="0" /><path
       d="m 149.088,221.573 c -4.17808,-3.24046 -10.27466,1.67312 -11.89234,2.7715 -0.41839,-5.28415 6.42378,-5.53621 10.11552,-4.56071 0.86014,0.12734 4.12355,0.80795 1.77682,1.78921 z"
       id="path17"
       inkscape:connector-curvature="0" /><path
       d="m 144.967,219.833 c -1.52952,-2.09529 4.96931,-4.62761 -0.1924,-3.26947 -1.94378,0.83649 -4.00481,5.45465 0.1924,3.26947 z"
       id="path19"
       inkscape:connector-curvature="0" /><path
       d="m 142.431,228.751 c -4.67664,3.96698 -7.4883,10.62546 -5.28432,16.61959 0.761,4.99755 6.54496,4.29511 9.39013,3.86453 1.82266,4.32049 -7.31646,3.37273 -9.35254,0.86135 -4.43254,-4.07433 -3.93678,-11.257 -1.42683,-16.23372 0.869,-2.09883 4.15018,-7.83616 6.67356,-5.11175 z"
       id="path21"
       inkscape:connector-curvature="0" /><path
       d="m 156.063,246.149 c -2.41332,-1.7673 -6.10448,-1.70412 -3.73928,1.87326 1.76351,5.24928 -2.33506,12.40801 -8.36621,11.4339 -2.4473,-0.24689 -8.02781,-6.55365 -7.83021,-1.05055 3.43535,6.00383 13.92867,5.52169 17.01602,-0.62016 2.24289,-3.56006 1.23056,-7.93769 2.91968,-11.63645 z"
       id="path23"
       inkscape:connector-curvature="0" /></g><path
     d="m 76.102701,5.0557504 c 3.53425,0.814279 1.05511,9.3133476 5.99579,4.9727626 2.35844,1.70773 2.45585,7.005578 6.5306,5.119059 2.96942,0.599586 4.6948,8.390527 0.43193,4.066421 -4.21819,-1.205908 -2.323,5.99754 1.03265,3.548889 2.25872,1.314756 7.6923,7.644032 6.02442,0.885489 -1.66045,-7.963588 -9.03503,-12.78498 -15.35249,-16.9862416 -1.42725,-0.813078 -2.96848,-1.650292 -4.6629,-1.606379 z"
     id="path27"
     inkscape:connector-curvature="0" /><path
     d="m 97.266701,42.495238 c 4.233899,4.216956 5.110499,-9.775493 6.482239,-2.731728 -0.0537,1.309645 1.08465,5.649057 -1.24597,2.678582 -0.77765,1.834386 -4.820869,2.495186 -5.236269,0.05315 z"
     id="path29"
     inkscape:connector-curvature="0" /><path
     d="m 101.5347,64.137292 c 4.56691,-1.33369 0.4532,4.837946 0,0 z"
     id="path31"
     inkscape:connector-curvature="0" /><path
     d="m 62.435701,67.460115 c -3.21912,5.562583 0.663781,12.212213 2.358105,17.608653 4.327615,4.93435 11.146225,1.09114 16.572435,2.42998 4.19112,0.58762 -0.4248,9.89548 4.06703,5.67263 1.91153,-6.48216 -6.12178,-9.86422 -11.34135,-8.05026 -7.145895,2.33992 -8.670221,-6.11206 -9.852244,-11.10895 -0.698338,-2.09792 -0.677142,-4.68738 -1.803976,-6.552053 z"
     id="path33"
     inkscape:connector-curvature="0" /><path
     d="m 101.7687,85.505378 c -0.57675,2.29748 -4.282099,5.58643 -0.95516,7.26578 0.46006,-2.40279 0.45234,-4.86966 0.95516,-7.26578 z"
     id="path35"
     inkscape:connector-curvature="0" /><path
     d="m 84.268701,92.479788 c 2.31623,-3.16529 12.17812,1.71638 4.55266,0.64218 -1.50088,0.49692 -3.93664,1.60387 -4.55266,-0.64218 z"
     id="path37"
     inkscape:connector-curvature="0" /><path
     d="m 69.001701,93.316038 c -2.552948,-5.22043 -10.696471,-5.25743 -13.079694,-9.98661 0.966364,4.30879 6.375605,7.35484 10.542712,9.64216 0.93494,0.16825 3.066852,2.88537 2.536982,0.34445 z"
     id="path39"
     inkscape:connector-curvature="0" /><path
     style="fill:#ffffff;fill-opacity:1"
     d="m 53.302701,9.3909454 c 0,29.2609336 0,58.5218686 0,87.7828026 -15.722667,0 -31.445333,0 -47.1680001,0 -2.923074,-8.85656 -5.66094805,-18.1004 -4.685035,-27.53021 C 0.90310485,60.616675 -1.1917551,51.477293 1.0809969,42.507719 2.1968149,36.27449 4.3711759,29.808472 9.2579089,25.502989 15.596089,16.018314 23.373787,5.9679764 34.866557,2.7891084 c 5.460204,-1.091758 11.5974,-0.749521 16.492267,2.017401 1.315684,1.113455 2.080654,2.858896 1.943877,4.584436 z"
     id="path41"
     inkscape:connector-curvature="0" /><path
     d="m 48.999701,59.319394 c 2.859332,2.97779 11.880356,-2.944925 8.897557,3.477913 -2.489,4.230335 -12.66374,0.178484 -8.897557,-3.477913 z"
     id="path43"
     inkscape:connector-curvature="0" /><path
     d="m 49.832701,35.836546 c 1.171384,-5.00384 11.807992,3.821729 7.76306,-2.963784 -2.552133,-2.657541 -12.092679,0.188351 -8.673124,3.240966 0.303355,-0.09239 0.606709,-0.184788 0.910064,-0.277182 z"
     id="path45"
     inkscape:connector-curvature="0" /><g
     id="g47"
     transform="matrix(1,0,0,1.3046027,-75.057299,-266.28465)"><path
       d="m 75.906,254.474 c 0.154738,5.73811 -0.562963,11.88092 2.274307,17.13254 -0.246964,1.82748 2.681357,9.37566 3.596968,5.15159 -0.747096,-5.79332 -4.185623,-11.17067 -3.031559,-17.1581 1.087397,-6.09826 -3.713539,-11.47539 -1.438184,-17.52725 1.315635,-5.61927 1.111915,-12.3031 6.639811,-15.79129 4.096921,-2.28472 4.374656,-7.40649 7.939216,-10.26385 4.830368,-4.57899 11.321681,-6.89637 17.613861,-8.67024 3.82192,-1.02172 7.73007,-0.13232 11.56781,-0.14945 3.37256,-0.36634 6.27599,5.09699 7.55151,4.71222 1.0665,-5.4919 -5.60842,-8.54144 -10.24015,-7.56365 -6.11883,-0.10056 -12.41016,0.3197 -17.96081,3.14304 -6.417887,2.54439 -11.391992,7.53164 -15.524911,12.90167 -4.807347,5.12239 -9.142783,11.29246 -9.472763,18.55624 -0.702956,5.17191 -0.303267,10.39557 0.484894,15.52653 z"
       id="path49"
       inkscape:connector-curvature="0" /><g
       id="g51"><path
         d="m 108.43,210.265 c 5.37639,2.36243 11.98139,-1.80617 16.80598,2.00927 4.45057,4.39837 -2.48641,8.77875 0.38619,13.10258 -1.19757,4.20385 -2.53675,-2.69463 -4.64962,-3.22664 -1.68917,-1.66486 4.55295,-1.71395 3.09763,-5.06859 -0.81866,-6.72011 -8.43464,-4.46135 -12.927,-4.16342 -1.3811,-0.17832 -2.3797,-1.35909 -2.71318,-2.6532 z"
         id="path53"
         inkscape:connector-curvature="0" /><path
         d="m 103.357,216.571 c -4.054535,3.87209 0.81677,9.50493 2.54591,12.01583 -2.59561,0.91835 -4.35371,-5.19775 -7.580105,-1.99108 -5.654773,2.01571 -5.10072,11.73848 1.610906,11.2173 3.767569,1.10226 12.987379,-3.72892 11.882919,2.99159 -3.35723,-1.68849 -7.54088,-1.93901 -11.31907,-1.43803 -5.275335,0.52404 -9.432469,5.29259 -9.284891,10.60309 -1.078718,5.9524 4.300383,7.29432 8.248317,9.6298 1.733304,2.17162 0.03521,8.04751 -3.282882,5.19474 -3.821271,-1.14024 -9.105756,0.84927 -9.541558,5.36351 0.532623,3.10758 -1.870944,-0.98472 -1.736267,-2.36785 -0.03408,-3.16141 6.392465,-6.71188 10.321301,-5.30148 4.631435,-4.47432 -8.841655,-2.29967 -5.09121,-5.88731 0.389998,-5.78631 -9.268949,-5.99221 -8.742537,-12.40144 0.233856,-3.95198 -2.502835,-7.72642 -2.770073,-10.93595 1.817356,0.72043 3.498245,6.84413 6.545383,3.06204 4.117793,-0.60282 -3.468544,3.74023 -2.337197,6.12377 -1.131793,5.06839 7.943252,10.47275 7.514988,2.71081 0.952551,-4.1392 3.991178,-7.37606 1.677776,-11.90427 -2.166099,-5.90093 4.694897,-7.36223 7.363909,-11.00748 1.705731,-1.79567 0.547088,-5.81276 3.974381,-5.67759 z"
         id="path55"
         inkscape:connector-curvature="0" /><path
         d="m 110.332,227.444 c -4.1882,-3.26671 -10.370964,6.10451 -5.27434,6.01378 0.61824,-2.74385 1.84311,-6.13574 5.27434,-6.01378 z"
         id="path57"
         inkscape:connector-curvature="0" /><path
         d="m 107.795,221.573 c 4.17802,-3.24041 10.27472,1.67299 11.89214,2.77154 0.41838,-5.28412 -6.42359,-5.5363 -10.11532,-4.56075 -0.86014,0.12734 -4.12355,0.80795 -1.77682,1.78921 z"
         id="path59"
         inkscape:connector-curvature="0" /><path
         d="m 111.916,219.833 c 1.52937,-2.09554 -4.96929,-4.62791 0.19304,-3.26942 1.94383,0.83677 4.00364,5.45466 -0.19304,3.26942 z"
         id="path61"
         inkscape:connector-curvature="0" /><path
         d="m 114.452,228.751 c 4.67662,3.96698 7.48831,10.62543 5.28431,16.61953 -0.76083,4.99729 -6.54453,4.29509 -9.38948,3.86458 -1.8222,4.32053 7.31614,3.37264 9.35208,0.86121 4.43237,-4.07438 3.93667,-11.25696 1.42632,-16.23346 -0.86902,-2.09867 -4.14986,-7.83631 -6.67323,-5.11186 z"
         id="path63"
         inkscape:connector-curvature="0" /><path
         d="m 100.821,246.149 c 2.41327,-1.76814 6.10343,-1.70339 3.7384,1.87325 -1.76309,5.24917 2.33469,12.4081 8.36597,11.43384 2.44716,-0.24685 8.02798,-6.55351 7.82963,-1.05026 -3.43506,6.00381 -13.92807,5.52118 -17.01526,-0.6203 -2.24257,-3.56008 -1.23182,-7.93709 -2.91874,-11.63653 z"
         id="path65"
         inkscape:connector-curvature="0" /></g><path
       d="m 78.057,265.321 c -0.825328,-4.68467 2.727762,-10.24167 4.994373,-12.36401 -3.439177,-1.30854 -6.834148,2.52038 -5.417162,5.81362 0.140929,2.18346 0.281859,4.36693 0.422789,6.55039 z"
       id="path67"
       inkscape:connector-curvature="0" /><path
       d="m 105.723,207.987 c -3.31841,0.053 -1.3061,7.84091 -5.57069,3.76024 -2.757123,1.04353 -3.397312,5.78309 -7.191206,4.00935 -2.553802,0.74574 -4.576201,6.34171 -0.372559,3.01201 3.777899,-0.97327 2.915626,4.96981 -0.67506,2.80222 -2.385687,1.20033 -8.117032,5.95274 -5.878083,-0.23374 2.401524,-6.1269 9.002931,-8.67595 14.242368,-11.83165 1.71209,-0.80251 3.54789,-1.39947 5.44523,-1.51843 z"
       id="path69"
       inkscape:connector-curvature="0" /><path
       d="m 84.56,236.685 c -3.51414,3.81555 -5.736171,-8.52335 -6.550752,-1.24497 -0.553078,1.38196 -0.132272,3.30686 1.202519,1.12488 1.115519,1.31454 4.591814,2.24078 5.348233,0.12009 z"
       id="path71"
       inkscape:connector-curvature="0" /><path
       d="m 80.291,253.274 c -4.180208,-1.27461 -0.839608,3.80111 0,0 z"
       id="path73"
       inkscape:connector-curvature="0" /><path
       d="m 119.39,255.821 c 3.14135,4.61733 -0.69628,11.2537 -3.94157,14.69549 -4.76549,2.57503 -10.28067,-1.08482 -15.07967,0.79102 -3.818963,1.06033 0.72127,7.14905 -3.78322,4.63547 -1.735293,-5.99576 6.81595,-8.08285 11.36413,-6.47344 5.96085,1.75574 8.766,-4.16682 9.7111,-8.94403 0.51207,-1.59046 1.04428,-3.17854 1.72923,-4.70451 z"
       id="path75"
       inkscape:connector-curvature="0" /><path
       d="m 80.057,269.653 c 0.60591,1.81283 4.284102,4.29538 1.071626,5.64417 -0.750634,-1.79514 -0.451759,-3.81576 -1.071626,-5.64417 z"
       id="path77"
       inkscape:connector-curvature="0" /><path
       d="m 112.824,275.64 c 3.05317,-4.30027 10.15857,-3.78942 13.11303,-7.63311 -1.47304,3.51408 -6.52445,5.7018 -10.45197,7.3398 -0.75606,-0.009 -3.23452,2.49087 -2.66106,0.29331 z"
       id="path79"
       inkscape:connector-curvature="0" /></g><path
     d="m 22.499701,92.818978 c -2.290467,-3.16318 -12.18938,1.70937 -4.603396,0.6467 1.502216,0.5015 3.931544,1.53235 4.603396,-0.6467 z"
     id="path99"
     inkscape:connector-curvature="0" /></svg>