<?xml version="1.0" encoding="UTF-8" standalone="no"?>
<!-- Generator: Adobe Illustrator 15.0.0, SVG Export Plug-In . SVG Version: 6.00 Build 0)  -->
<svg id="Icons" xmlns:rdf="http://www.w3.org/1999/02/22-rdf-syntax-ns#" xmlns="http://www.w3.org/2000/svg" xml:space="preserve" height="90" viewBox="0 0 90 90" width="90" version="1.1" y="0px" x="0px" xmlns:cc="http://creativecommons.org/ns#" xmlns:dc="http://purl.org/dc/elements/1.1/"><metadata id="metadata8"><rdf:RDF><cc:Work rdf:about=""><dc:format>image/svg+xml</dc:format><dc:type rdf:resource="http://purl.org/dc/dcmitype/StillImage"/><dc:title/></cc:Work></rdf:RDF></metadata><path id="Podcast" d="M0.091,48.51c-0.028-0.612-0.091-1.21-0.091-1.826,0-25.784,20.146-46.684,45-46.684s45,20.9,45,46.684c0,0.616-0.068,1.215-0.088,1.826-0.935-24.927-20.652-44.854-44.912-44.854-24.261,0-43.978,19.927-44.909,44.854zm44.909-27.888c15.164,0,27.527,12.291,28.425,27.788,0.034-0.6,0.088-1.191,0.088-1.796,0-16.338-12.764-29.579-28.513-29.579s-28.513,13.241-28.513,29.579c0,0.604,0.054,1.196,0.087,1.796,0.899-15.497,13.261-27.788,28.426-27.788zm0,8.652c-5.158,0-9.343,4.342-9.343,9.692s4.186,9.691,9.343,9.691c5.156,0,9.342-4.342,9.342-9.691,0-5.35-4.186-9.692-9.342-9.692zm0,20.193c-7.513,0-13.605,0.416-13.605,14.685,0,14.274,6.092,25.848,13.605,25.848s13.605-11.574,13.605-25.849c0-14.268-6.092-14.684-13.605-14.684z"/></svg>
