<?xml version="1.0" encoding="UTF-8" standalone="no"?>
<!-- Generator: Adobe Illustrator 16.0.4, SVG Export Plug-In . SVG Version: 6.00 Build 0)  -->
<svg id="Capa_1" xmlns:rdf="http://www.w3.org/1999/02/22-rdf-syntax-ns#" xmlns="http://www.w3.org/2000/svg" enable-background="new 0 0 512 512" xml:space="preserve" height="512px" viewBox="0 0 512 512" width="512px" version="1.1" y="0px" x="0px" xmlns:cc="http://creativecommons.org/ns#" xmlns:dc="http://purl.org/dc/elements/1.1/"><metadata id="metadata9"><rdf:RDF><cc:Work rdf:about=""><dc:format>image/svg+xml</dc:format><dc:type rdf:resource="http://purl.org/dc/dcmitype/StillImage"/><dc:title/></cc:Work></rdf:RDF></metadata><path id="path3" d="M256,0c-139.37,0-252.73,111.38-255.92,249.99,2.96-120.93,94.916-217.99,207.92-217.99,114.88,0,208,100.29,208,224,0,26.51,21.49,48,48,48s48-21.49,48-48c0-141.38-114.62-256-256-256zm0,512c139.37,0,252.73-111.38,255.92-249.99-2.96,120.93-94.91,217.99-207.92,217.99-114.88,0-208-100.29-208-224,0-26.51-21.49-48-48-48s-48,21.49-48,48c0,141.38,114.62,256,256,256z"/></svg>
