<?xml version="1.0" encoding="UTF-8" standalone="no"?>
<!-- Created with Inkscape (http://www.inkscape.org/) -->

<svg
   xmlns:dc="http://purl.org/dc/elements/1.1/"
   xmlns:cc="http://creativecommons.org/ns#"
   xmlns:rdf="http://www.w3.org/1999/02/22-rdf-syntax-ns#"
   xmlns:svg="http://www.w3.org/2000/svg"
   xmlns="http://www.w3.org/2000/svg"
   xmlns:xlink="http://www.w3.org/1999/xlink"
   xmlns:sodipodi="http://sodipodi.sourceforge.net/DTD/sodipodi-0.dtd"
   xmlns:inkscape="http://www.inkscape.org/namespaces/inkscape"
   id="svg2"
   xml:space="preserve"
   height="171.8"
   width="326.08"
   version="1.1"
   inkscape:version="0.48.5 r10040"
   sodipodi:docname="togglebutton-new2-off.svg"><sodipodi:namedview
     pagecolor="#ffffff"
     bordercolor="#666666"
     borderopacity="1"
     objecttolerance="10"
     gridtolerance="10"
     guidetolerance="10"
     inkscape:pageopacity="0"
     inkscape:pageshadow="2"
     inkscape:window-width="1155"
     inkscape:window-height="727"
     id="namedview5364"
     showgrid="false"
     inkscape:zoom="1.2924303"
     inkscape:cx="62.945278"
     inkscape:cy="28.370781"
     inkscape:window-x="300"
     inkscape:window-y="287"
     inkscape:window-maximized="0"
     inkscape:current-layer="g10" /><metadata
     id="metadata8"><rdf:RDF><cc:Work
         rdf:about=""><dc:format>image/svg+xml</dc:format><dc:type
           rdf:resource="http://purl.org/dc/dcmitype/StillImage" /><dc:title></dc:title></cc:Work></rdf:RDF></metadata><defs
     id="defs6"><linearGradient
       id="linearGradient26"
       gradientUnits="userSpaceOnUse"
       gradientTransform="matrix(-190.27019,1.66e-5,1.66e-5,190.27019,543.52148,403.16455)"><stop
         id="stop28"
         stop-color="#f9f9f9"
         offset="0" /><stop
         id="stop30"
         stop-color="#5f5c5d"
         offset="1" /></linearGradient><clipPath
       id="clipPath38"
       clipPathUnits="userSpaceOnUse"><path
         id="path40"
         d="m157.6,38.422,512.98,0,0,506.98-512.98,0,0-506.98z" /></clipPath><linearGradient
       id="linearGradient58"
       gradientUnits="userSpaceOnUse"
       gradientTransform="matrix(-5.4e-6,-122.70947,-122.70947,5.4e-6,426.77734,468.84814)"><stop
         id="stop60"
         stop-color="#cbcaca"
         offset="0" /><stop
         id="stop62"
         stop-color="#231f20"
         offset="1" /></linearGradient><clipPath
       id="clipPath1094"
       clipPathUnits="userSpaceOnUse"><path
         id="path1096"
         d="m329.03,443.63c-10.692-9.9-17.382-24.055-17.382-39.775,0-8.607,2.006-16.748,5.579-23.976,3.438-6.961,8.33-13.079,14.278-17.955,9.349-7.665,21.306-12.263,34.339-12.263,14.472,0,27.618,5.672,37.338,14.915,10.384,9.872,16.857,23.82,16.857,39.279,0,9.535-2.463,18.497-6.789,26.281-4.634,8.344-11.408,15.335-19.58,20.234-8.134,4.878-17.653,7.68-27.826,7.68-14.213,0-27.149-5.471-36.814-14.42m91.009-39.775" /></clipPath><clipPath
       id="clipPath2882"
       clipPathUnits="userSpaceOnUse"><path
         id="path2884"
         d="m312.73,403.86c0-29.332,23.779-53.112,53.112-53.112,29.331,0,53.111,23.78,53.111,53.112s-23.78,53.111-53.111,53.111c-29.333,0-53.112-23.779-53.112-53.111" /></clipPath><clipPath
       id="clipPath3580"
       clipPathUnits="userSpaceOnUse"><path
         id="path3582"
         d="m312.73,403.86c0-29.332,23.779-53.112,53.112-53.112,29.331,0,53.111,23.78,53.111,53.112s-23.78,53.111-53.111,53.111c-29.333,0-53.112-23.779-53.112-53.111" /></clipPath><clipPath
       id="clipPath3588"
       clipPathUnits="userSpaceOnUse"><path
         id="path3590"
         d="m289.97,479.77,151.75,0,0-151.34-151.75,0,0,151.34z" /></clipPath><clipPath
       id="clipPath11660"
       clipPathUnits="userSpaceOnUse"><path
         id="path11662"
         d="m157.6,38.422,512.98,0,0,506.98-512.98,0,0-506.98z" /></clipPath><linearGradient
       id="linearGradient11692"
       gradientUnits="userSpaceOnUse"
       gradientTransform="matrix(-1.2e-6,-27.730913,-27.730913,1.2e-6,455.20117,417.01465)"><stop
         id="stop11694"
         stop-color="#f9f9f9"
         offset="0" /><stop
         id="stop11696"
         stop-color="#5f5c5d"
         offset="1" /></linearGradient><clipPath
       id="clipPath11704"
       clipPathUnits="userSpaceOnUse"><path
         id="path11706"
         d="m157.6,38.422,512.98,0,0,506.98-512.98,0,0-506.98z" /></clipPath><linearGradient
       id="linearGradient11724"
       gradientUnits="userSpaceOnUse"
       gradientTransform="matrix(-1.2e-6,-27.730198,-27.730198,1.2e-6,479.66406,417.01465)"><stop
         id="stop11726"
         stop-color="#f9f9f9"
         offset="0" /><stop
         id="stop11728"
         stop-color="#5f5c5d"
         offset="1" /></linearGradient><clipPath
       id="clipPath11736"
       clipPathUnits="userSpaceOnUse"><path
         id="path11738"
         d="m157.6,38.422,512.98,0,0,506.98-512.98,0,0-506.98z" /></clipPath><linearGradient
       id="linearGradient11756"
       gradientUnits="userSpaceOnUse"
       gradientTransform="matrix(-1.2e-6,-27.730198,-27.730198,1.2e-6,501.3457,417.01465)"><stop
         id="stop11758"
         stop-color="#f9f9f9"
         offset="0" /><stop
         id="stop11760"
         stop-color="#5f5c5d"
         offset="1" /></linearGradient><clipPath
       id="clipPath11768"
       clipPathUnits="userSpaceOnUse"><path
         id="path11770"
         d="m157.6,38.422,512.98,0,0,506.98-512.98,0,0-506.98z" /></clipPath><linearGradient
       inkscape:collect="always"
       xlink:href="#linearGradient58"
       id="linearGradient3834"
       x1="320.483"
       y1="403.16599"
       x2="533.07599"
       y2="403.16599"
       gradientUnits="userSpaceOnUse" /></defs><g
     id="g10"
     transform="matrix(1.25,0,0,-1.25,-367.23175,589.857)"><g
       id="g34"><g
         id="g36"
         clip-path="url(#clipPath38)"><g
           id="g42"
           transform="translate(538.1484,401.5376)"><path
             id="path44"
             stroke-linejoin="miter"
             d="m0,0c0-32.361-26.233-58.594-58.594-58.594h-110.68c-32.359,0-58.594,26.233-58.594,58.594v3.254c0,32.36,26.235,58.594,58.594,58.594h110.68c32.357,0,58.59-26.234,58.59-58.594v-3.254z"
             stroke="#000"
             stroke-linecap="butt"
             stroke-miterlimit="10"
             stroke-dasharray="none"
             stroke-width="1"
             fill="none" /></g></g></g><g
       id="g46"
       transform="matrix(1.0262045,0,0,1,-13.350018,3.4721485e-6)"
       style="fill-opacity:1.0;fill:url(#linearGradient3834)"><g
         id="g48"
         style="fill-opacity:1.0;fill:url(#linearGradient3834)"><g
           id="g54"
           style="fill-opacity:1.0;fill:url(#linearGradient3834)"><g
             id="g56"
             style="fill-opacity:1.0;fill:url(#linearGradient3834)"><path
               id="path64"
               d="m 375.15,459.35 c -30.192,0 -54.667,-24.474 -54.667,-54.667 v -3.035 c 0,-30.192 24.475,-54.666 54.667,-54.666 h 103.26 c 30.192,0 54.666,24.474 54.666,54.666 v 3.035 c 0,30.193 -24.474,54.667 -54.666,54.667 H 375.15 z"
               style="fill:url(#linearGradient3834);fill-opacity:1.0"
               inkscape:connector-curvature="0" /></g></g></g></g><g
       id="g11680"><g
         id="g11682"><g
           id="g11688"><g
             id="g11690"><path
               id="path11698"
               fill="url(#linearGradient11692)"
               d="m446.47,411.51c-2.113-2.129-3.168-5.069-3.168-8.819,0-3.74,1.055-6.674,3.168-8.803,2.114-2.128,5.025-3.192,8.734-3.192,3.719,0,6.632,1.064,8.74,3.192,2.108,2.129,3.162,5.063,3.162,8.803,0,3.75-1.054,6.69-3.162,8.819-2.108,2.127-5.021,3.193-8.74,3.193-3.709,0-6.62-1.066-8.734-3.193m4.502-14.475c-1.001,1.342-1.504,3.229-1.504,5.656,0,2.438,0.503,4.329,1.504,5.673,1.003,1.343,2.414,2.014,4.232,2.014,1.828,0,3.245-0.671,4.247-2.014,1.002-1.344,1.503-3.235,1.503-5.673,0-2.427-0.501-4.314-1.503-5.656-1.002-1.343-2.419-2.015-4.247-2.015-1.818,0-3.229,0.672-4.232,2.015" /></g></g></g></g><g
       id="g11700"><g
         id="g11702"
         clip-path="url(#clipPath11704)"><g
           id="g11708"
           transform="translate(455.2012,410.3813)"><path
             id="path11710"
             stroke-linejoin="miter"
             d="m0,0c-1.818,0-3.229-0.671-4.231-2.014-1.002-1.344-1.504-3.235-1.504-5.673,0-2.428,0.502-4.313,1.504-5.657,1.002-1.343,2.413-2.014,4.231-2.014,1.828,0,3.244,0.671,4.247,2.014,1.002,1.344,1.503,3.229,1.503,5.657,0,2.438-0.501,4.329-1.503,5.673-1.003,1.343-2.419,2.014-4.247,2.014zm0,4.324c3.719,0,6.632-1.065,8.74-3.192,2.108-2.129,3.161-5.069,3.161-8.819,0-3.74-1.053-6.674-3.161-8.803-2.108-2.128-5.021-3.193-8.74-3.193-3.709,0-6.62,1.065-8.733,3.193-2.114,2.129-3.169,5.063-3.169,8.803,0,3.75,1.055,6.69,3.169,8.819,2.113,2.127,5.024,3.192,8.733,3.192z"
             stroke="#221f1f"
             stroke-linecap="butt"
             stroke-miterlimit="10"
             stroke-dasharray="none"
             stroke-width="0.5"
             fill="none" /></g></g></g><g
       id="g11712"><g
         id="g11714"><g
           id="g11720"><g
             id="g11722"><path
               id="path11730"
               fill="url(#linearGradient11724)"
               d="m471.61,414.29,0-23.138,5.968,0,0,9.81,9.53,0,0,4.511-9.53,0,0,4.308,10.134,0,0,4.509-16.102,0z" /></g></g></g></g><g
       id="g11732"><g
         id="g11734"
         clip-path="url(#clipPath11736)"><g
           id="g11740"
           transform="translate(471.6133,414.2866)"><path
             id="path11742"
             stroke-linejoin="miter"
             d="m0,0,16.102,0,0-4.51-10.135,0,0-4.308,9.53,0,0-4.511-9.53,0,0-9.809-5.967,0v23.138z"
             stroke="#221f1f"
             stroke-linecap="butt"
             stroke-miterlimit="10"
             stroke-dasharray="none"
             stroke-width="0.5"
             fill="none" /></g></g></g><g
       id="g11744"><g
         id="g11746"><g
           id="g11752"><g
             id="g11754"><path
               id="path11762"
               fill="url(#linearGradient11756)"
               d="m493.29,414.29,0-23.138,5.966,0,0,9.81,9.531,0,0,4.511-9.531,0,0,4.308,10.136,0,0,4.509-16.102,0z" /></g></g></g></g><g
       id="g11764"><g
         id="g11766"
         clip-path="url(#clipPath11768)"><g
           id="g11772"
           transform="translate(493.2949,414.2866)"><path
             id="path11774"
             stroke-linejoin="miter"
             d="m0,0,16.102,0,0-4.51-10.137,0,0-4.308,9.531,0,0-4.511-9.531,0,0-9.809-5.965,0v23.138z"
             stroke="#221f1f"
             stroke-linecap="butt"
             stroke-miterlimit="10"
             stroke-dasharray="none"
             stroke-width="0.5"
             fill="none" /></g></g></g><path
       sodipodi:type="arc"
       style="fill:#f0f0f0;fill-opacity:1;stroke:#000000;stroke-width:1;stroke-linecap:round;stroke-linejoin:miter;stroke-miterlimit:4;stroke-opacity:1;stroke-dasharray:none"
       id="path20512"
       sodipodi:cx="221.28854"
       sodipodi:cy="294.05032"
       sodipodi:rx="57.256474"
       sodipodi:ry="54.935265"
       d="m 278.54502,294.05032 c 0,30.33991 -25.6346,54.93527 -57.25648,54.93527 -31.62187,0 -57.25647,-24.59536 -57.25647,-54.93527 0,-30.33991 25.6346,-54.93526 57.25647,-54.93526 31.62188,0 57.25648,24.59535 57.25648,54.93526 z"
       transform="matrix(0.96306384,0,0,-1.0222732,158.04402,703.75313)" /></g></svg>