<?xml version="1.0" encoding="UTF-8" standalone="no"?>
<svg
   xmlns:dc="http://purl.org/dc/elements/1.1/"
   xmlns:cc="http://creativecommons.org/ns#"
   xmlns:rdf="http://www.w3.org/1999/02/22-rdf-syntax-ns#"
   xmlns:svg="http://www.w3.org/2000/svg"
   xmlns="http://www.w3.org/2000/svg"
   xmlns:sodipodi="http://sodipodi.sourceforge.net/DTD/sodipodi-0.dtd"
   xmlns:inkscape="http://www.inkscape.org/namespaces/inkscape"
   id="svg8"
   version="1.1"
   viewBox="0 0 205.66004 207.89409"
   height="207.89409mm"
   width="205.66005mm"
   sodipodi:docname="aac-audio.svg"
   inkscape:version="0.92.2 5c3e80d, 2017-08-06">
  <sodipodi:namedview
     pagecolor="#ffffff"
     bordercolor="#666666"
     borderopacity="1"
     objecttolerance="10"
     gridtolerance="10"
     guidetolerance="10"
     inkscape:pageopacity="0"
     inkscape:pageshadow="2"
     inkscape:window-width="1411"
     inkscape:window-height="980"
     id="namedview17"
     showgrid="false"
     inkscape:pagecheckerboard="false"
     inkscape:zoom="0.8495273"
     inkscape:cx="210.0605"
     inkscape:cy="292.98833"
     inkscape:window-x="755"
     inkscape:window-y="196"
     inkscape:window-maximized="0"
     inkscape:current-layer="svg8" />
  <defs
     id="defs2">
    <marker
       style="overflow:visible"
       id="marker8033"
       refX="0.0"
       refY="0.0"
       orient="auto">
      <path
         transform="scale(1.1) translate(1,0)"
         d="M 8.7185878,4.0337352 L -2.2072895,0.016013256 L 8.7185884,-4.0017078 C 6.9730900,-1.6296469 6.9831476,1.6157441 8.7185878,4.0337352 z "
         style="fill-rule:evenodd;stroke-width:0.625;stroke-linejoin:round;stroke:#ffffff;stroke-opacity:1;fill:#ffffff;fill-opacity:1"
         id="path8031" />
    </marker>
    <marker
       style="overflow:visible"
       id="marker7647"
       refX="0.0"
       refY="0.0"
       orient="auto">
      <path
         transform="scale(1.1) translate(1,0)"
         d="M 8.7185878,4.0337352 L -2.2072895,0.016013256 L 8.7185884,-4.0017078 C 6.9730900,-1.6296469 6.9831476,1.6157441 8.7185878,4.0337352 z "
         style="fill-rule:evenodd;stroke-width:0.625;stroke-linejoin:round;stroke:#ffffff;stroke-opacity:1;fill:#ffffff;fill-opacity:1"
         id="path7645" />
    </marker>
  </defs>
  <metadata
     id="metadata5">
    <rdf:RDF>
      <cc:Work
         rdf:about="">
        <dc:format>image/svg+xml</dc:format>
        <dc:type
           rdf:resource="http://purl.org/dc/dcmitype/StillImage" />
        <dc:title></dc:title>
      </cc:Work>
    </rdf:RDF>
  </metadata>
  <ellipse
     style="opacity:1;fill:none;fill-opacity:1;stroke:#ffffff;stroke-width:18;stroke-linecap:round;stroke-linejoin:miter;stroke-miterlimit:4;stroke-dasharray:none;stroke-opacity:1"
     id="path815"
     cx="102.83002"
     cy="103.94704"
     rx="93.830025"
     ry="94.947044" />
  <path
     inkscape:connector-curvature="0"
     style="fill:#ffffff;stroke-width:4.68517113"
     d="M 65.435867,139.1611 C 48.020749,117.15088 42.663358,103.8014 42.663358,82.416831 c 0,-28.202181 11.471446,-40.494314 40.475928,-43.371651 29.199314,-2.896671 67.882124,6.281014 75.922194,18.01289 5.04001,7.354266 4.4696,7.881598 -5.02352,4.644247 C 86.603196,38.705661 60.996245,47.78169 65.272287,93.164085 c 1.635376,17.356455 5.925866,27.257045 18.473583,42.629025 15.989212,19.58806 16.110722,20.0221 5.605357,20.0221 -6.556043,0 -15.870151,-6.48614 -23.91536,-16.65411 z m 36.177663,6.54479 C 95.704664,140.14578 87.567145,127.26999 83.530147,117.09302 68.419534,79.000251 93.317611,53.544926 136.17705,63.267833 c 27.38157,6.211672 34.64326,17.589546 8.27759,12.969652 -26.10026,-4.57341 -39.24887,-0.428436 -44.789598,14.119507 -5.554158,14.583188 -0.452441,32.379368 14.725408,51.366268 13.59072,17.00145 4.17689,19.9358 -12.77692,3.98263 z m 22.88272,-8.00418 C 101.16913,105.91936 109.02393,82.209107 141.94137,85.042363 l 18.52204,1.594235 1.26665,34.589312 1.26662,34.5893 H 150.3938 c -9.06378,0 -16.33626,-5.08658 -25.89755,-18.1135 z"
     id="path9040"
     sodipodi:nodetypes="ssssssssscssssscsscccss" />
  <style
     id="stylebodge1"
     type="text/css">[id^=&quot;polygon&quot;]{fill:#ffffff;fill-opacity:1}</style>
  <style
     id="stylebodge2"
     type="text/css">[id^=&quot;path&quot;]{fill:#ffffff;fill-opacity:1}</style>
</svg>
