<?xml version="1.0" encoding="UTF-8" standalone="no"?>
<svg
   xmlns:dc="http://purl.org/dc/elements/1.1/"
   xmlns:cc="http://creativecommons.org/ns#"
   xmlns:rdf="http://www.w3.org/1999/02/22-rdf-syntax-ns#"
   xmlns:svg="http://www.w3.org/2000/svg"
   xmlns="http://www.w3.org/2000/svg"
   width="205.66005mm"
   height="207.89409mm"
   viewBox="0 0 205.66004 207.89409"
   version="1.1"
   id="svg8">
  <defs
     id="defs2">
    <linearGradient
       gradientUnits="userSpaceOnUse"
       x1="30.06"
       y1="30.06"
       x2="225.94001"
       y2="225.94001"
       id="RSSg">
      <stop
         offset="0.0"
         stop-color="#E3702D"
         id="stop6" />
      <stop
         offset="0.1071"
         stop-color="#EA7D31"
         id="stop8" />
      <stop
         offset="0.3503"
         stop-color="#F69537"
         id="stop10" />
      <stop
         offset="0.5"
         stop-color="#FB9E3A"
         id="stop12" />
      <stop
         offset="0.7016"
         stop-color="#EA7C31"
         id="stop14" />
      <stop
         offset="0.8866"
         stop-color="#DE642B"
         id="stop16" />
      <stop
         offset="1.0"
         stop-color="#D95B29"
         id="stop18" />
    </linearGradient>
    <filter
       x="0"
       y="0"
       width="1"
       height="1"
       color-interpolation-filters="sRGB"
       id="filter3011">
      <feColorMatrix
         type="saturate"
         values="0"
         id="feColorMatrix3013"
         result="fbSourceGraphic" />
      <feColorMatrix
         result="fbSourceGraphicAlpha"
         in="fbSourceGraphic"
         values="0 0 0 -1 0 0 0 0 -1 0 0 0 0 -1 0 0 0 0 1 0"
         id="feColorMatrix3035" />
      <feFlood
         id="feFlood3037"
         result="result1"
         flood-opacity="0"
         flood-color="rgb(128,128,128)"
         in="fbSourceGraphic" />
      <feBlend
         id="feBlend3039"
         in2="fbSourceGraphic"
         mode="normal"
         result="result2" />
      <feComposite
         id="feComposite3041"
         in2="fbSourceGraphic"
         k2="1"
         operator="arithmetic"
         result="result3" />
      <feComposite
         id="feComposite3043"
         in2="fbSourceGraphic"
         operator="in" />
    </filter>
    <filter
       x="0"
       y="0"
       width="1"
       height="1"
       color-interpolation-filters="sRGB"
       id="filter3015">
      <feColorMatrix
         type="saturate"
         values="0"
         id="feColorMatrix3017"
         result="fbSourceGraphic" />
      <feColorMatrix
         result="fbSourceGraphicAlpha"
         in="fbSourceGraphic"
         values="0 0 0 -1 0 0 0 0 -1 0 0 0 0 -1 0 0 0 0 1 0"
         id="feColorMatrix3045" />
      <feFlood
         id="feFlood3047"
         result="result1"
         flood-opacity="0"
         flood-color="rgb(128,128,128)"
         in="fbSourceGraphic" />
      <feBlend
         id="feBlend3049"
         in2="fbSourceGraphic"
         mode="normal"
         result="result2" />
      <feComposite
         id="feComposite3051"
         in2="fbSourceGraphic"
         k2="1"
         operator="arithmetic"
         result="result3" />
      <feComposite
         id="feComposite3053"
         in2="fbSourceGraphic"
         operator="in" />
    </filter>
    <filter
       x="0"
       y="0"
       width="1"
       height="1"
       color-interpolation-filters="sRGB"
       id="filter3019">
      <feColorMatrix
         type="saturate"
         values="0"
         id="feColorMatrix3021"
         result="fbSourceGraphic" />
      <feColorMatrix
         result="fbSourceGraphicAlpha"
         in="fbSourceGraphic"
         values="0 0 0 -1 0 0 0 0 -1 0 0 0 0 -1 0 0 0 0 1 0"
         id="feColorMatrix3055" />
      <feFlood
         id="feFlood3057"
         result="result1"
         flood-opacity="0"
         flood-color="rgb(128,128,128)"
         in="fbSourceGraphic" />
      <feBlend
         id="feBlend3059"
         in2="fbSourceGraphic"
         mode="normal"
         result="result2" />
      <feComposite
         id="feComposite3061"
         in2="fbSourceGraphic"
         k2="1"
         operator="arithmetic"
         result="result3" />
      <feComposite
         id="feComposite3063"
         in2="fbSourceGraphic"
         operator="in" />
    </filter>
    <filter
       x="0"
       y="0"
       width="1"
       height="1"
       color-interpolation-filters="sRGB"
       id="filter3023">
      <feColorMatrix
         type="saturate"
         values="0"
         id="feColorMatrix3025"
         result="fbSourceGraphic" />
      <feColorMatrix
         result="fbSourceGraphicAlpha"
         in="fbSourceGraphic"
         values="0 0 0 -1 0 0 0 0 -1 0 0 0 0 -1 0 0 0 0 1 0"
         id="feColorMatrix3065" />
      <feFlood
         id="feFlood3067"
         result="result1"
         flood-opacity="0"
         flood-color="rgb(128,128,128)"
         in="fbSourceGraphic" />
      <feBlend
         id="feBlend3069"
         in2="fbSourceGraphic"
         mode="normal"
         result="result2" />
      <feComposite
         id="feComposite3071"
         in2="fbSourceGraphic"
         k2="1"
         operator="arithmetic"
         result="result3" />
      <feComposite
         id="feComposite3073"
         in2="fbSourceGraphic"
         operator="in" />
    </filter>
    <filter
       x="0"
       y="0"
       width="1"
       height="1"
       color-interpolation-filters="sRGB"
       id="filter3027">
      <feColorMatrix
         type="saturate"
         values="0"
         id="feColorMatrix3029"
         result="fbSourceGraphic" />
      <feColorMatrix
         result="fbSourceGraphicAlpha"
         in="fbSourceGraphic"
         values="0 0 0 -1 0 0 0 0 -1 0 0 0 0 -1 0 0 0 0 1 0"
         id="feColorMatrix3075" />
      <feFlood
         id="feFlood3077"
         result="result1"
         flood-opacity="0"
         flood-color="rgb(128,128,128)"
         in="fbSourceGraphic" />
      <feBlend
         id="feBlend3079"
         in2="fbSourceGraphic"
         mode="normal"
         result="result2" />
      <feComposite
         id="feComposite3081"
         in2="fbSourceGraphic"
         k2="1"
         operator="arithmetic"
         result="result3" />
      <feComposite
         id="feComposite3083"
         in2="fbSourceGraphic"
         operator="in" />
    </filter>
    <filter
       x="0"
       y="0"
       width="1"
       height="1"
       color-interpolation-filters="sRGB"
       id="filter3031">
      <feColorMatrix
         type="saturate"
         values="0"
         id="feColorMatrix3033"
         result="fbSourceGraphic" />
      <feColorMatrix
         result="fbSourceGraphicAlpha"
         in="fbSourceGraphic"
         values="0 0 0 -1 0 0 0 0 -1 0 0 0 0 -1 0 0 0 0 1 0"
         id="feColorMatrix3085" />
      <feFlood
         id="feFlood3087"
         result="result1"
         flood-opacity="0"
         flood-color="rgb(128,128,128)"
         in="fbSourceGraphic" />
      <feBlend
         id="feBlend3089"
         in2="fbSourceGraphic"
         mode="normal"
         result="result2" />
      <feComposite
         id="feComposite3091"
         in2="fbSourceGraphic"
         k2="1"
         operator="arithmetic"
         result="result3" />
      <feComposite
         id="feComposite3093"
         in2="fbSourceGraphic"
         operator="in" />
    </filter>
  </defs>
  <metadata
     id="metadata5">
    <rdf:RDF>
      <cc:Work
         rdf:about="">
        <dc:format>image/svg+xml</dc:format>
        <dc:type
           rdf:resource="http://purl.org/dc/dcmitype/StillImage" />
        <dc:title></dc:title>
      </cc:Work>
    </rdf:RDF>
  </metadata>
  <style
     type="text/css"
     id="style3111">
	.st0{fill:#ffffff;}
</style>
  <style
     type="text/css"
     id="style2">
	.st0{fill:none;}
	.st1{fill:#F4481E;}
	.st2{fill:url(#SVGID_1_);}
	.st3{opacity:0.1;fill:#FFFFFF;enable-background:new    ;}
	.st4{fill:#FFD119;}
	.st5{fill:#FF8C00;}
	.st6{fill:url(#SVGID_2_);}
	.st7{fill:#FAFAFA;}
	.st8{opacity:0.3;fill:#FFFFFF;enable-background:new    ;}
</style>
  <g
     transform="matrix(0.26458332,0,0,0.26458332,229.5367,39.400622)"
     id="g5135" />
  <g
     transform="matrix(0.26458332,0,0,0.26458332,229.5367,39.400622)"
     id="g5137" />
  <g
     transform="matrix(0.26458332,0,0,0.26458332,229.5367,39.400622)"
     id="g5139" />
  <g
     transform="matrix(0.26458332,0,0,0.26458332,229.5367,39.400622)"
     id="g5141" />
  <g
     transform="matrix(0.26458332,0,0,0.26458332,229.5367,39.400622)"
     id="g5143" />
  <g
     transform="matrix(0.26458332,0,0,0.26458332,229.5367,39.400622)"
     id="g5145" />
  <g
     transform="matrix(0.26458332,0,0,0.26458332,229.5367,39.400622)"
     id="g5147" />
  <g
     transform="matrix(0.26458332,0,0,0.26458332,229.5367,39.400622)"
     id="g5149" />
  <g
     transform="matrix(0.26458332,0,0,0.26458332,229.5367,39.400622)"
     id="g5151" />
  <g
     transform="matrix(0.26458332,0,0,0.26458332,229.5367,39.400622)"
     id="g5153" />
  <g
     transform="matrix(0.26458332,0,0,0.26458332,229.5367,39.400622)"
     id="g5155" />
  <g
     transform="matrix(0.26458332,0,0,0.26458332,229.5367,39.400622)"
     id="g5157" />
  <g
     transform="matrix(0.26458332,0,0,0.26458332,229.5367,39.400622)"
     id="g5159" />
  <g
     transform="matrix(0.26458332,0,0,0.26458332,229.5367,39.400622)"
     id="g5161" />
  <g
     transform="matrix(0.26458332,0,0,0.26458332,229.5367,39.400622)"
     id="g5163" />
  <ellipse
     transform="rotate(-90)"
     ry="94.947044"
     rx="93.830025"
     cy="102.83002"
     cx="-103.94704"
     id="path815"
     style="opacity:1;fill:none;fill-opacity:1;stroke:#ffffff;stroke-width:18;stroke-linecap:round;stroke-linejoin:miter;stroke-miterlimit:4;stroke-dasharray:none;stroke-opacity:1" />
  <g
     transform="matrix(0.1496604,0,0,0.1496604,27.947439,29.049492)"
     id="g5511">
    <path
       style="fill:#ffffff"
       d="m 359.3,499.7 c 0,-78.3 63.5,-141.8 141.7,-141.8 v 0 c 78.3,0 141.7,63.4 141.7,141.8 v 0 c 0,78.3 -63.5,141.7 -141.7,141.7 v 0 C 422.8,641.4 359.3,578 359.3,499.7 Z m 6.2,0 c 0.2,74.9 60.7,135.4 135.5,135.5 v 0 c 74.8,0 135.6,-60.7 135.6,-135.5 v 0 C 636.5,424.8 575.9,364.2 501,364.1 v 0 c -74.8,0 -135.5,60.7 -135.5,135.6 z"
       id="path5456" />
    <path
       style="fill:#ffffff"
       d="m 523.5,499.7 c 0,12.3 -10.1,22.3 -22.4,22.3 -12.3,0 -22.4,-10 -22.4,-22.3 0,-12.4 10,-22.4 22.4,-22.4 12.3,0 22.4,10 22.4,22.4 z"
       id="path5458" />
    <g
       id="g5486">
      <path
         style="fill:none"
         d="m 501.1,314.8 c -102.2,0 -184.9,82.8 -184.9,184.9 0,52.2 21.7,99.2 56.5,132.8 -0.2,-0.2 -0.4,-0.4 -0.6,-0.6 L 323.9,684 c 16.8,16.2 35.8,30.1 56.6,41.3 l 34.8,-62 v 0 c 25.7,13.5 54.9,21.2 85.9,21.2 102.1,0 184.9,-82.8 184.9,-184.9 0,-49.4 -19.5,-94.2 -51,-127.3 l 48.5,-52.2 c -16.5,-16.7 -35.2,-31.2 -55.7,-42.9 l -34.2,62.4 c -27.4,-15.7 -58.9,-24.8 -92.6,-24.8 z"
         id="path5460" />
      <path
         style="fill:none"
         d="m 262.4,750.5 -49.2,53.2 c 26.2,24.8 55.4,46.3 87.3,63.7 L 336,804.2 c -26.8,-14.6 -51.5,-32.8 -73.6,-53.7 z"
         id="path5462" />
      <path
         style="fill:none"
         d="m 745.1,253.8 49.3,-53.1 c -26.3,-25.8 -56,-48.2 -88.3,-66.4 l -34.8,63.6 c 27,15.4 51.8,34.2 73.8,55.9 z"
         id="path5464" />
      <path
         style="fill:none"
         d="m 689.7,313.4 49.1,-52.8 C 717.4,239.3 693.2,221 666.8,206 l -34.6,63.2 c 21.1,12.1 40.5,27 57.5,44.2 z"
         id="path5466" />
      <path
         style="fill:none"
         d="m 317.6,690.8 -48.9,52.9 c 21.5,20.5 45.6,38.2 71.9,52.5 l 35.3,-62.8 c -21.4,-11.5 -41,-25.9 -58.3,-42.6 z"
         id="path5468" />
      <path
         style="fill:#ffffff"
         d="m 245.1,499.7 c 0,72.4 30.2,137.8 78.7,184.4 L 372,632 c 0.2,0.2 0.4,0.4 0.6,0.6 -34.8,-33.6 -56.5,-80.7 -56.5,-132.8 0,-102.1 82.7,-184.9 184.9,-184.9 33.7,0 65.2,9.1 92.4,24.9 l 34.2,-62.4 C 590.2,256 547,243.8 501,243.8 360,243.6 245.1,358.5 245.1,499.7 Z"
         id="path5470" />
      <path
         style="fill:#ffffff"
         d="m 686,499.7 c 0,102.1 -82.8,184.9 -184.9,184.9 -31,0 -60.2,-7.7 -85.9,-21.2 v 0 l -34.8,62 c 36,19.3 77.1,30.3 120.7,30.3 141.2,0 256,-114.8 256,-256 0,-69.9 -28.2,-133.3 -73.7,-179.5 L 635,372.3 c 31.5,33.2 51,78 51,127.4 z"
         id="path5472" />
      <path
         style="fill:#ffffff"
         d="m 163.9,499.7 c 0,95.9 40.3,182.6 104.8,244.1 l 48.9,-52.9 c -50.3,-48.3 -81.7,-116.1 -81.7,-191.2 0,-146.3 119,-265.2 265.2,-265.2 47.6,0 92.3,12.7 131,34.8 l 34.6,-63.2 c -49,-27.7 -105.5,-43.7 -165.6,-43.7 -185.9,0 -337.2,151.3 -337.2,337.3 z"
         id="path5474" />
      <path
         style="fill:#ffffff"
         d="m 766.4,499.7 c 0,146.3 -119,265.2 -265.2,265.2 -45.3,0 -87.9,-11.4 -125.3,-31.5 l -35.3,62.8 c 47.8,26 102.5,40.7 160.6,40.7 186,0 337.3,-151.3 337.3,-337.3 0,-93.3 -38.1,-177.9 -99.6,-239.1 l -49.1,52.8 c 47.3,48 76.6,113.8 76.6,186.4 z"
         id="path5476" />
      <path
         style="fill:#ffffff"
         d="m 847.6,499.7 c 0,191.1 -155.4,346.5 -346.5,346.5 -59.7,0 -116,-15.2 -165.1,-41.9 l -35.5,63.2 c 59.6,32.6 128,51.2 200.6,51.2 231,0 419,-188 419,-419 0,-117 -48.2,-222.8 -125.7,-298.9 l -49.3,53.1 c 63.3,62.8 102.5,149.7 102.5,245.8 z"
         id="path5478" />
      <path
         style="fill:#ffffff"
         d="m 82.1,499.7 c 0,119.6 50.5,227.6 131.1,304 l 49.2,-53.2 C 196.1,687.3 154.6,598.3 154.6,499.7 154.6,308.6 310,153.2 501.1,153.2 c 61.8,0 119.8,16.3 170.1,44.8 L 706,134.4 C 645.4,100.2 575.5,80.7 501.1,80.7 c -231,-0.1 -419,187.9 -419,419 z"
         id="path5480" />
      <path
         style="fill:#ffffff"
         d="M 848.8,142.3 800.7,194 c 79.3,77.8 128.7,186 128.7,305.7 0,236.1 -192.1,428.2 -428.2,428.2 -74.3,0 -144.2,-19 -205.1,-52.4 l -35.6,63.4 c 71.2,39.1 152.9,61.4 239.8,61.5 276.1,0 500.1,-223.9 500.1,-500 -0.2,-140.5 -58.3,-267.3 -151.6,-358.1 z"
         id="path5482" />
      <path
         style="fill:#ffffff"
         d="M 72.9,499.7 C 72.9,263.5 265,71.4 501.1,71.4 c 76,0 147.4,20 209.4,54.9 l 33.9,-62 C 674.4,24.9 594,1.9 508.3,0.5 h -8.1 C 225.7,1 3.3,221.7 0.3,495.7 v 0 4.8 C 0.6,643.8 61,772.8 157.6,863.9 L 207,810.5 C 124.5,732.4 72.9,621.9 72.9,499.7 Z"
         id="path5484" />
    </g>
  </g>
<style id="stylebodge1" type="text/css">[id^="polygon"]{fill:#ffffff;fill-opacity:1}</style><style id="stylebodge2" type="text/css">[id^="path"]{fill:#ffffff;fill-opacity:1}</style></svg>
