<?xml version="1.0" encoding="UTF-8" standalone="no"?>
<!-- Created with Inkscape (http://www.inkscape.org/) -->

<svg
   xmlns:dc="http://purl.org/dc/elements/1.1/"
   xmlns:cc="http://creativecommons.org/ns#"
   xmlns:rdf="http://www.w3.org/1999/02/22-rdf-syntax-ns#"
   xmlns:svg="http://www.w3.org/2000/svg"
   xmlns="http://www.w3.org/2000/svg"
   xmlns:sodipodi="http://sodipodi.sourceforge.net/DTD/sodipodi-0.dtd"
   xmlns:inkscape="http://www.inkscape.org/namespaces/inkscape"
   width="205.66005mm"
   height="207.89409mm"
   viewBox="0 0 205.66004 207.89409"
   version="1.1"
   id="svg8"
   inkscape:version="0.92.2 5c3e80d, 2017-08-06"
   sodipodi:docname="file.svg">
  <defs
     id="defs2">
    <inkscape:path-effect
       effect="bspline"
       id="path-effect9125"
       is_visible="true"
       weight="33.333333"
       steps="2"
       helper_size="0"
       apply_no_weight="true"
       apply_with_weight="true"
       only_selected="false" />
    <inkscape:path-effect
       effect="bspline"
       id="path-effect9121"
       is_visible="true"
       weight="33.333333"
       steps="2"
       helper_size="0"
       apply_no_weight="true"
       apply_with_weight="true"
       only_selected="false" />
    <inkscape:path-effect
       effect="bspline"
       id="path-effect8746"
       is_visible="true"
       weight="33.333333"
       steps="2"
       helper_size="0"
       apply_no_weight="true"
       apply_with_weight="true"
       only_selected="false" />
    <marker
       inkscape:stockid="Arrow2Lstart"
       orient="auto"
       refY="0.0"
       refX="0.0"
       id="marker8033"
       style="overflow:visible"
       inkscape:isstock="true">
      <path
         id="path8031"
         style="fill-rule:evenodd;stroke-width:0.625;stroke-linejoin:round;stroke:#ffffff;stroke-opacity:1;fill:#ffffff;fill-opacity:1"
         d="M 8.7185878,4.0337352 L -2.2072895,0.016013256 L 8.7185884,-4.0017078 C 6.9730900,-1.6296469 6.9831476,1.6157441 8.7185878,4.0337352 z "
         transform="scale(1.1) translate(1,0)" />
    </marker>
    <inkscape:path-effect
       effect="bspline"
       id="path-effect8029"
       is_visible="true"
       weight="33.333333"
       steps="2"
       helper_size="0"
       apply_no_weight="true"
       apply_with_weight="true"
       only_selected="false" />
    <marker
       inkscape:stockid="Arrow2Lstart"
       orient="auto"
       refY="0.0"
       refX="0.0"
       id="marker7647"
       style="overflow:visible"
       inkscape:isstock="true">
      <path
         id="path7645"
         style="fill-rule:evenodd;stroke-width:0.625;stroke-linejoin:round;stroke:#ffffff;stroke-opacity:1;fill:#ffffff;fill-opacity:1"
         d="M 8.7185878,4.0337352 L -2.2072895,0.016013256 L 8.7185884,-4.0017078 C 6.9730900,-1.6296469 6.9831476,1.6157441 8.7185878,4.0337352 z "
         transform="scale(1.1) translate(1,0)" />
    </marker>
    <inkscape:path-effect
       effect="bspline"
       id="path-effect7643"
       is_visible="true"
       weight="33.333333"
       steps="2"
       helper_size="0"
       apply_no_weight="true"
       apply_with_weight="true"
       only_selected="false" />
    <inkscape:path-effect
       only_selected="false"
       apply_with_weight="true"
       apply_no_weight="true"
       helper_size="0"
       steps="2"
       weight="33.333333"
       is_visible="true"
       id="path-effect7401"
       effect="bspline" />
    <inkscape:path-effect
       effect="bspline"
       id="path-effect6871"
       is_visible="true"
       weight="33.333333"
       steps="2"
       helper_size="0"
       apply_no_weight="true"
       apply_with_weight="true"
       only_selected="false" />
    <inkscape:path-effect
       only_selected="false"
       apply_with_weight="true"
       apply_no_weight="true"
       helper_size="0"
       steps="2"
       weight="33.333333"
       is_visible="true"
       id="path-effect6791"
       effect="bspline" />
    <inkscape:path-effect
       effect="bspline"
       id="path-effect6787"
       is_visible="true"
       weight="33.333333"
       steps="2"
       helper_size="0"
       apply_no_weight="true"
       apply_with_weight="true"
       only_selected="false" />
    <rect
       height="512"
       id="SVGID_1_"
       width="512"
       x="50"
       y="140" />
    <marker
       orient="auto"
       refX="0"
       refY="0"
       id="TriangleOutM">
      <path
         style="fill-rule:evenodd;stroke:#ffffff;stroke-width:1pt"
         inkscape:connector-curvature="0"
         transform="scale(0.4,0.4)"
         d="m 5.77,0 -8.65,5 0,-10 8.65,5 z"
         id="path3919" />
    </marker>
  </defs>
  <sodipodi:namedview
     id="base"
     pagecolor="#ffffff"
     bordercolor="#666666"
     borderopacity="1.0"
     inkscape:pageopacity="0.0"
     inkscape:pageshadow="2"
     inkscape:zoom="0.7"
     inkscape:cx="1.5699529"
     inkscape:cy="342.87069"
     inkscape:document-units="mm"
     inkscape:current-layer="layer1"
     showgrid="false"
     inkscape:window-width="2560"
     inkscape:window-height="1396"
     inkscape:window-x="0"
     inkscape:window-y="0"
     inkscape:window-maximized="1"
     inkscape:snap-text-baseline="false" />
  <metadata
     id="metadata5">
    <rdf:RDF>
      <cc:Work
         rdf:about="">
        <dc:format>image/svg+xml</dc:format>
        <dc:type
           rdf:resource="http://purl.org/dc/dcmitype/StillImage" />
        <dc:title />
      </cc:Work>
    </rdf:RDF>
  </metadata>
  <g
     inkscape:label="Layer 1"
     inkscape:groupmode="layer"
     id="layer1"
     transform="translate(-4.4983063,-46.776161)">
    <ellipse
       style="opacity:1;fill:none;fill-opacity:1;stroke:#ffffff;stroke-width:18;stroke-linecap:round;stroke-linejoin:miter;stroke-miterlimit:4;stroke-dasharray:none;stroke-opacity:1"
       id="path815"
       cx="107.32833"
       cy="150.72321"
       rx="93.830025"
       ry="94.947044" />
    <text
       xml:space="preserve"
       style="font-style:normal;font-weight:normal;font-size:10.58333302px;line-height:125%;font-family:Sans;letter-spacing:0px;word-spacing:0px;fill:#ffffff;fill-opacity:1;stroke:none;stroke-width:0.26458332px;stroke-linecap:butt;stroke-linejoin:miter;stroke-opacity:1"
       x="98.236397"
       y="130.31609"
       id="text9654"><tspan
         sodipodi:role="line"
         id="tspan9652"
         x="98.236397"
         y="139.67986"
         style="stroke-width:0.26458332px;fill:#ffffff;fill-opacity:1" /></text>
    <path
       d="M 130.39115,85.631113 H 70.87906 c -3.995257,0 -7.249858,3.584906 -7.249858,7.983594 V 207.83164 c 0,4.40375 3.254601,7.98366 7.249858,7.98366 h 72.89703 c 3.99981,0 7.25137,-3.57991 7.25137,-7.98366 v -97.51462 z m 1.71095,11.946946 9.04597,10.821741 H 132.1021 V 97.577549 Z M 144.93801,207.83 c 0,0.70493 -0.52319,1.28089 -1.16345,1.28089 h -72.8955 c -0.640277,0 -1.160408,-0.5759 -1.160408,-1.28089 V 93.614707 c 0,-0.704932 0.520143,-1.275889 1.160408,-1.275889 h 55.13206 v 19.414832 c 0,1.84855 1.36724,3.34714 3.04625,3.34714 h 15.88064 z M 80.460363,121.28779 h 51.708647 c 1.25926,0 2.28127,1.12521 2.28127,2.51159 0,1.38645 -1.02201,2.51166 -2.28127,2.51166 H 80.460363 c -1.259257,0 -2.281258,-1.12521 -2.281258,-2.51166 0,-1.38638 1.022001,-2.51159 2.281258,-2.51159 z m 53.989917,19.38971 c 0,1.38644 -1.02201,2.51165 -2.28127,2.51165 H 80.460363 c -1.259257,0 -2.281258,-1.12521 -2.281258,-2.51165 0,-1.38639 1.022001,-2.5116 2.281258,-2.5116 h 51.708647 c 1.25926,0 2.28127,1.12521 2.28127,2.5116 z m 0,16.32557 c 0,1.38646 -1.02201,2.51167 -2.28127,2.51167 H 80.460363 c -1.259257,0 -2.281258,-1.12521 -2.281258,-2.51167 0,-1.38639 1.022001,-2.51159 2.281258,-2.51159 h 51.708647 c 1.25926,0 2.28127,1.1252 2.28127,2.51159 z m 0,16.60353 c 0,1.38639 -1.02201,2.51159 -2.28127,2.51159 H 80.460363 c -1.259257,0 -2.281258,-1.1252 -2.281258,-2.51159 0,-1.38645 1.022001,-2.51166 2.281258,-2.51166 h 51.708647 c 1.25926,0 2.28127,1.12521 2.28127,2.51166 z"
       id="path3"
       inkscape:connector-curvature="0"
       style="fill:#ffffff;stroke-width:1.59578288;fill-opacity:1" />
  </g>
  <style
     id="style2"
     type="text/css">
	.st0{clip-path:url(#SVGID_2_);fill:#00AEEF;}
</style>
<style id="stylebodge1" type="text/css">[id^="polygon"]{fill:#ffffff;fill-opacity:1}</style><style id="stylebodge2" type="text/css">[id^="path"]{fill:#ffffff;fill-opacity:1}</style></svg>
