<?xml version="1.0" encoding="UTF-8" standalone="no"?>
<svg
   xmlns:dc="http://purl.org/dc/elements/1.1/"
   xmlns:cc="http://creativecommons.org/ns#"
   xmlns:rdf="http://www.w3.org/1999/02/22-rdf-syntax-ns#"
   xmlns:svg="http://www.w3.org/2000/svg"
   xmlns="http://www.w3.org/2000/svg"
   xmlns:sodipodi="http://sodipodi.sourceforge.net/DTD/sodipodi-0.dtd"
   xmlns:inkscape="http://www.inkscape.org/namespaces/inkscape"
   width="205.66005mm"
   height="207.89409mm"
   viewBox="0 0 205.66004 207.89409"
   version="1.1"
   id="svg8"
   sodipodi:docname="musicbrainz_logo.svg"
   inkscape:version="0.92.2 5c3e80d, 2017-08-06">
  <sodipodi:namedview
     pagecolor="#ffffff"
     bordercolor="#666666"
     borderopacity="1"
     objecttolerance="10"
     gridtolerance="10"
     guidetolerance="10"
     inkscape:pageopacity="0"
     inkscape:pageshadow="2"
     inkscape:window-width="1321"
     inkscape:window-height="1111"
     id="namedview47"
     showgrid="false"
     inkscape:pagecheckerboard="true"
     inkscape:zoom="0.8495273"
     inkscape:cx="388.64891"
     inkscape:cy="392.87072"
     inkscape:window-x="945"
     inkscape:window-y="158"
     inkscape:window-maximized="0"
     inkscape:current-layer="svg8" />
  <defs
     id="defs2" />
  <metadata
     id="metadata5">
    <rdf:RDF>
      <cc:Work
         rdf:about="">
        <dc:format>image/svg+xml</dc:format>
        <dc:type
           rdf:resource="http://purl.org/dc/dcmitype/StillImage" />
        <dc:title></dc:title>
      </cc:Work>
    </rdf:RDF>
  </metadata>
  <ellipse
     ry="94.947044"
     rx="93.830025"
     cy="103.94704"
     cx="102.83002"
     id="path815"
     style="opacity:1;fill:none;fill-opacity:1;stroke:#ffffff;stroke-width:18;stroke-linecap:round;stroke-linejoin:miter;stroke-miterlimit:4;stroke-dasharray:none;stroke-opacity:1" />
  <path
     inkscape:connector-curvature="0"
     id="path7"
     d="m 171.18415,114.81562 c -0.21825,10.03585 0.81356,20.54598 -3.25919,30.01225 -0.65735,2.94866 -0.52349,11.02518 -4.72463,9.89391 1.00094,-7.93689 3.17935,-15.68718 4.59262,-23.50593 0.22201,-7.79463 -2.03819,-16.08327 1.7822,-23.37272 2.01937,-8.312226 -1.71067,-16.534374 -1.50615,-24.863574 -0.48203,-9.159687 -7.57675,-15.12197 -11.54524,-22.228887 -3.76867,-10.341764 -11.72304,-18.997231 -22.08663,-22.930365 -6.81901,-4.370019 -15.04817,-4.567556 -22.71454,-2.588565 -5.19347,-1.36471 -6.55087,8.469126 -9.23981,7.341291 -1.9046,-9.184314 8.47073,-14.971675 16.3842,-12.748523 12.85246,-0.70902 25.4421,6.323116 33.25983,16.290663 5.7271,8.306176 11.74491,16.555783 15.99734,25.747402 4.8309,11.992632 4.49581,25.351088 3.58263,38.036188 -0.14929,1.64147 -0.32479,3.28058 -0.52263,4.91686 z"
     style="fill:#ffffff;fill-opacity:1;stroke-width:1.30081165" />
  <path
     d="m 128.87656,39.791069 c -6.99381,4.009432 -15.58616,-3.065656 -21.86195,3.410037 -5.7886,7.464644 3.23547,14.898097 -0.50238,22.235666 1.55787,7.13418 3.30021,-4.572748 6.04842,-5.47605 2.19858,-2.825049 -5.92267,-2.908187 -4.02936,-8.601509 1.06507,-11.404498 10.97223,-7.571066 16.81606,-7.065449 1.80386,-0.309761 3.08901,-2.297796 3.52921,-4.502695 z"
     id="path11"
     inkscape:connector-curvature="0"
     style="stroke-width:1.48577666;fill:#ffffff;fill-opacity:1" />
  <path
     d="m 135.47428,50.492618 c 5.27418,6.5711 -1.06247,16.130268 -3.31175,20.391372 3.37638,1.558529 5.66333,-8.820802 9.86024,-3.378947 7.35556,3.420524 6.63596,19.921019 -2.09489,19.036351 -4.90034,1.870378 -16.89628,-6.328355 -15.45679,5.076719 4.36677,-2.865541 9.80877,-3.290701 14.72323,-2.440364 6.86206,0.889488 12.26939,8.981902 12.07744,17.993791 1.40324,10.10142 -5.59392,12.3784 -10.72916,16.34221 -2.25364,3.68574 -0.045,13.65639 4.27098,8.81558 4.97079,-1.93477 11.84462,1.4414 12.41177,9.10222 -0.69205,5.27318 2.43216,-1.67267 2.25867,-4.01826 0.0435,-5.36403 -8.31548,-11.39094 -13.42639,-8.99688 -6.02385,-7.59281 11.50089,-3.90298 6.62201,-9.99127 -0.50729,-9.81967 12.05769,-10.16844 11.37248,-21.045602 -0.30399,-6.706576 3.25581,-13.111671 3.60335,-18.558702 -2.36334,1.223092 -4.54945,11.61454 -8.51319,5.196768 -5.35833,-1.024267 4.51159,6.346327 3.03993,10.39155 1.47205,8.601136 -10.33345,17.772816 -9.77614,4.600393 -1.23961,-7.024313 -5.19159,-12.517113 -2.18244,-20.201829 2.81733,-10.014247 -6.10778,-12.493575 -9.57928,-18.680227 -2.21856,-3.0476 -0.71146,-9.865145 -5.17007,-9.634873 z"
     id="path13"
     inkscape:connector-curvature="0"
     style="stroke-width:1.48577666;fill:#ffffff;fill-opacity:1" />
  <path
     d="m 126.40242,68.944559 c 5.44805,-5.543745 13.49066,10.359612 6.86092,10.205639 -0.80422,-4.65643 -2.39754,-10.41261 -6.86092,-10.205639 z"
     id="path15"
     inkscape:connector-curvature="0"
     style="stroke-width:1.48577666;fill:#ffffff;fill-opacity:1" />
  <path
     d="m 129.70257,58.981224 c -5.43489,-5.499198 -13.36539,2.839355 -15.46969,4.703352 -0.54425,-8.967426 8.35613,-9.395182 13.15839,-7.739718 1.11888,0.216102 5.36396,1.371126 2.3113,3.036366 z"
     id="path17"
     inkscape:connector-curvature="0"
     style="stroke-width:1.48577666;fill:#ffffff;fill-opacity:1" />
  <path
     d="m 124.34193,56.02837 c -1.98962,-3.555796 6.46414,-7.85325 -0.25028,-5.548429 -2.52849,1.419559 -5.2095,9.256772 0.25028,5.548429 z"
     id="path19"
     inkscape:connector-curvature="0"
     style="stroke-width:1.48577666;fill:#ffffff;fill-opacity:1" />
  <path
     d="m 121.04307,71.162593 c -6.08343,6.732133 -9.74087,18.031855 -6.8739,28.204147 0.98991,8.48105 8.51376,7.28898 12.21479,6.55827 2.37093,7.33206 -9.51734,5.72367 -12.1659,1.46175 -5.76589,-6.91431 -5.121,-19.103607 -1.85603,-27.549311 1.1304,-3.561803 5.3986,-13.298295 8.68104,-8.674856 z"
     id="path21"
     inkscape:connector-curvature="0"
     style="stroke-width:1.48577666;fill:#ffffff;fill-opacity:1" />
  <path
     d="m 138.77574,100.68774 c -3.13928,-2.999188 -7.94078,-2.891969 -4.8641,3.179 2.29399,8.90825 -3.03748,21.05691 -10.88287,19.40381 -3.18347,-0.41898 -10.44266,-11.12182 -10.18562,-1.78283 4.46874,10.18875 18.11857,9.37054 22.13463,-1.05244 2.91758,-6.04157 1.60073,-13.47059 3.79796,-19.74754 z"
     id="path23"
     inkscape:connector-curvature="0"
     style="stroke-width:1.48577666;fill:#ffffff;fill-opacity:1" />
  <path
     inkscape:connector-curvature="0"
     id="path27"
     d="m 132.39786,35.925212 c 4.59739,1.059223 1.3725,12.11491 7.79939,6.468627 3.06789,2.221435 3.1946,9.112937 8.49508,6.658931 3.86266,0.779949 6.10705,10.914495 0.56186,5.289648 -5.48707,-1.568659 -3.02179,7.80167 1.34328,4.616436 2.93817,1.71025 10.00624,9.943445 7.83664,1.151854 -2.15993,-10.359127 -11.75287,-16.63085 -19.9707,-22.0959 -1.85658,-1.057661 -3.86143,-2.146719 -6.06555,-2.089596 z"
     style="stroke-width:1.30081165;fill:#ffffff;fill-opacity:1" />
  <path
     inkscape:connector-curvature="0"
     id="path29"
     d="m 159.92823,84.626932 c 5.50751,5.485465 6.6478,-12.716075 8.43217,-3.553464 -0.0699,1.703601 1.41093,7.348359 -1.62077,3.484331 -1.01157,2.38619 -6.27104,3.245766 -6.8114,0.06914 z"
     style="stroke-width:1.30081165;fill:#ffffff;fill-opacity:1" />
  <path
     inkscape:connector-curvature="0"
     id="path31"
     d="m 165.4801,112.77917 c 5.94069,-1.73488 0.58952,6.29325 0,0 z"
     style="stroke-width:1.30081165;fill:#ffffff;fill-opacity:1" />
  <path
     inkscape:connector-curvature="0"
     id="path33"
     d="m 114.61966,117.10153 c -4.18746,7.23588 0.86346,15.88579 3.06745,22.90554 5.62942,6.41866 14.49914,1.41937 21.55762,3.16095 5.45186,0.76438 -0.55258,12.87215 5.29044,7.37902 2.48654,-8.43207 -7.96328,-12.83149 -14.75296,-10.47187 -9.29546,3.0438 -11.27832,-7.95064 -12.81591,-14.45065 -0.90841,-2.729 -0.88084,-6.0974 -2.34664,-8.52299 z"
     style="stroke-width:1.30081165;fill:#ffffff;fill-opacity:1" />
  <path
     inkscape:connector-curvature="0"
     id="path35"
     d="m 165.78449,140.57502 c -0.75025,2.98859 -5.57021,7.26689 -1.24249,9.45141 0.59845,-3.12558 0.58841,-6.33451 1.24249,-9.45141 z"
     style="stroke-width:1.30081165;fill:#ffffff;fill-opacity:1" />
  <path
     inkscape:connector-curvature="0"
     id="path37"
     d="m 143.02028,149.64741 c 3.01298,-4.11744 15.84144,2.23269 5.92216,0.83536 -1.95237,0.6464 -5.12083,2.08633 -5.92216,-0.83536 z"
     style="stroke-width:1.30081165;fill:#ffffff;fill-opacity:1" />
  <path
     inkscape:connector-curvature="0"
     id="path39"
     d="m 123.16079,150.73522 c -3.3209,-6.7908 -13.91409,-6.83893 -17.01421,-12.9907 1.25705,5.60492 8.29346,9.56726 13.71408,12.54263 1.21618,0.21886 3.98939,3.75333 3.30013,0.44807 z"
     style="stroke-width:1.30081165;fill:#ffffff;fill-opacity:1" />
  <path
     inkscape:connector-curvature="0"
     id="path43"
     d="m 97.141959,106.51199 c 3.719451,3.87354 15.454101,-3.83079 11.574041,4.52411 -3.23772,5.50287 -16.473135,0.23217 -11.574041,-4.52411 z"
     style="stroke-width:1.30081165;fill:#ffffff;fill-opacity:1" />
  <path
     inkscape:connector-curvature="0"
     id="path45"
     d="m 98.225536,75.965228 c 1.523749,-6.509053 15.359974,4.971349 10.098274,-3.855325 -3.31984,-3.45696 -15.730293,0.245009 -11.282096,4.215886 0.394607,-0.120182 0.789214,-0.240374 1.183822,-0.360561 z"
     style="stroke-width:1.30081165;fill:#ffffff;fill-opacity:1" />
  <path
     d="m 34.50658,114.81561 c 0.201285,9.73782 -0.732308,20.16243 2.958445,29.07465 -0.321253,3.10131 3.487941,15.91089 4.678978,8.74246 -0.971831,-9.83151 -5.444707,-18.9571 -3.943487,-29.11802 1.414498,-10.349 -4.830615,-19.47422 -1.870807,-29.744483 1.711394,-9.536139 1.446392,-20.878881 8.637144,-26.798487 5.329322,-3.877266 5.690603,-12.569127 10.327424,-17.418187 6.283399,-7.77074 14.727374,-11.703432 22.912315,-14.713764 4.971597,-1.733902 10.055364,-0.224553 15.047541,-0.253623 4.387065,-0.621695 8.163877,8.649807 9.823087,7.996836 1.38732,-9.319986 -7.295493,-14.495185 -13.320501,-12.835834 -7.959445,-0.170654 -16.14328,0.542545 -23.36363,5.333872 -8.348462,4.317938 -14.818835,12.781512 -20.194984,21.89468 -6.253453,8.692912 -11.893039,19.163782 -12.32228,31.490724 -0.914414,8.77695 -0.394494,17.641726 0.630755,26.349176 z"
     id="path49"
     inkscape:connector-curvature="0"
     style="stroke-width:1.48577666;fill:#ffffff;fill-opacity:1" />
  <path
     inkscape:connector-curvature="0"
     id="path53"
     d="m 76.814177,39.791069 c 6.99367,4.009144 15.585531,-3.065147 21.861414,3.409816 5.789349,7.46422 -3.234351,14.89791 0.50236,22.235633 -1.557813,7.134111 -3.299834,-4.572901 -6.04828,-5.475745 -2.197292,-2.825338 5.92253,-2.908645 4.029433,-8.601611 -1.064922,-11.404311 -10.971877,-7.5711 -16.815591,-7.0655 -1.796551,-0.302617 -3.095542,-2.306433 -3.529336,-4.502593 z"
     style="stroke-width:1.48577666;fill:#ffffff;fill-opacity:1" />
  <path
     inkscape:connector-curvature="0"
     id="path55"
     d="m 70.21516,50.492618 c -5.274187,6.5711 1.062463,16.130268 3.311749,20.391372 -3.3764,1.558479 -5.663357,-8.820802 -9.860289,-3.378947 -7.355794,3.420745 -6.635075,19.920697 2.095485,19.036232 4.900898,1.870582 16.894134,-6.328135 15.457439,5.076855 -4.367123,-2.865439 -9.809264,-3.290582 -14.723977,-2.440398 -6.862217,0.889318 -12.269865,8.981749 -12.077894,17.993888 -1.403209,10.10148 5.593988,12.37877 10.729506,16.34218 2.254702,3.68533 0.0458,13.65697 -4.270411,8.8157 -4.970753,-1.93504 -11.844873,1.44124 -12.411769,9.1021 0.692842,5.27369 -2.433746,-1.67111 -2.258556,-4.01834 -0.04433,-5.36505 8.315392,-11.39035 13.426068,-8.99684 6.024624,-7.59311 -11.501328,-3.90264 -6.622705,-9.99101 0.507314,-9.81961 -12.057157,-10.16904 -11.372394,-21.04577 0.304203,-6.706678 -3.255717,-13.112062 -3.603343,-18.55877 2.364038,1.2226 4.550558,11.614778 8.51431,5.196411 5.356473,-1.023011 -4.511922,6.347329 -3.040253,10.392297 -1.472249,8.601272 10.332675,17.772702 9.775584,4.600359 1.239089,-7.024397 5.191771,-12.517486 2.18247,-20.202049 -2.817686,-10.014128 6.107177,-12.494016 9.579059,-18.68016 2.218834,-3.047328 0.711658,-9.864499 5.169921,-9.63511 z"
     style="stroke-width:1.48577666;fill:#ffffff;fill-opacity:1" />
  <path
     inkscape:connector-curvature="0"
     id="path57"
     d="m 79.28832,68.944559 c -5.448059,-5.543745 -13.49067,10.359612 -6.860922,10.205639 0.804214,-4.65643 2.397539,-10.41261 6.860922,-10.205639 z"
     style="stroke-width:1.48577666;fill:#ffffff;fill-opacity:1" />
  <path
     inkscape:connector-curvature="0"
     id="path59"
     d="m 75.988161,58.981224 c 5.434817,-5.499113 13.365475,2.839134 15.469434,4.70342 0.544234,-8.967375 -8.35588,-9.395335 -13.158126,-7.739786 -1.11888,0.216102 -5.363961,1.371126 -2.311308,3.036366 z"
     style="stroke-width:1.48577666;fill:#ffffff;fill-opacity:1" />
  <path
     inkscape:connector-curvature="0"
     id="path61"
     d="m 81.348806,56.02837 c 1.989422,-3.55622 -6.46411,-7.853759 0.251109,-5.548344 2.528556,1.420034 5.207981,9.256789 -0.251109,5.548344 z"
     style="stroke-width:1.48577666;fill:#ffffff;fill-opacity:1" />
  <path
     inkscape:connector-curvature="0"
     id="path63"
     d="m 84.647664,71.162593 c 6.083402,6.732133 9.740881,18.031804 6.873892,28.204046 -0.989697,8.480611 -8.513201,7.288951 -12.213945,6.558351 -2.370338,7.33213 9.51692,5.72352 12.165295,1.46151 5.765678,-6.91439 5.120866,-19.103533 1.855373,-27.548864 -1.130431,-3.561532 -5.398186,-13.29855 -8.680615,-8.675043 z"
     style="stroke-width:1.48577666;fill:#ffffff;fill-opacity:1" />
  <path
     inkscape:connector-curvature="0"
     id="path65"
     d="m 66.916301,100.68774 c 3.13921,-3.000613 7.939413,-2.89073 4.862954,3.17898 -2.293448,8.90806 3.036992,21.05707 10.882551,19.40371 3.183294,-0.41892 10.44289,-11.12158 10.184874,-1.78234 -4.468366,10.18872 -18.117795,9.36968 -22.133648,-1.05267 -2.917161,-6.04161 -1.602366,-13.46958 -3.796731,-19.74768 z"
     style="stroke-width:1.48577666;fill:#ffffff;fill-opacity:1" />
  <path
     d="m 37.304626,133.22343 c -1.073596,-7.95008 3.548305,-17.38055 6.496738,-20.98225 -4.473721,-2.22065 -8.889939,4.27719 -7.046707,9.86596 0.183322,3.70543 0.366646,7.41087 0.549969,11.11629 z"
     id="path67"
     inkscape:connector-curvature="0"
     style="stroke-width:1.48577666;fill:#ffffff;fill-opacity:1" />
  <path
     d="m 73.29288,35.925207 c -4.316626,0.08994 -1.69899,13.306356 -7.246418,6.381286 -3.586498,1.770915 -4.419263,9.814149 -9.354405,6.804037 -3.322015,1.265552 -5.952775,10.76215 -0.484629,5.111508 4.914335,-1.65168 3.79268,8.433978 -0.878126,4.755486 -3.103329,2.037011 -10.558729,10.102052 -7.646278,-0.396667 3.12393,-10.397608 11.711117,-14.723454 18.526637,-20.07881 2.227107,-1.361894 4.615137,-2.37496 7.083219,-2.57684 z"
     id="path69"
     inkscape:connector-curvature="0"
     style="stroke-width:1.48577666;fill:#ffffff;fill-opacity:1" />
  <path
     d="m 45.763804,84.626927 c -4.571234,6.47515 -7.461678,-14.464486 -8.521294,-2.112767 -0.719451,2.345245 -0.172061,5.611881 1.56425,1.908969 1.45108,2.23083 5.973085,3.802698 6.957044,0.203798 z"
     id="path71"
     inkscape:connector-curvature="0"
     style="stroke-width:1.48577666;fill:#ffffff;fill-opacity:1" />
  <path
     d="m 40.210639,112.77916 c -5.437663,-2.16307 -1.092172,6.45065 0,0 z"
     id="path73"
     inkscape:connector-curvature="0"
     style="stroke-width:1.48577666;fill:#ffffff;fill-opacity:1" />
  <path
     d="m 91.071072,117.10153 c 4.086304,7.8358 -0.905729,19.098 -5.12724,24.93887 -6.199005,4.36993 -13.373215,-1.84099 -19.61581,1.34239 -4.967751,1.79943 0.938237,12.13224 -4.921256,7.86659 -2.257289,-10.17506 8.866267,-13.71694 14.782592,-10.9857 7.753943,2.97956 11.402914,-7.07127 12.632311,-15.1784 0.666107,-2.69908 1.358412,-5.39412 2.249403,-7.98375 z"
     id="path75"
     inkscape:connector-curvature="0"
     style="stroke-width:1.48577666;fill:#ffffff;fill-opacity:1" />
  <path
     d="m 39.906249,140.57502 c 0.788175,3.07645 5.57281,7.28944 1.393984,9.57839 -0.976434,-3.04643 -0.587654,-6.4755 -1.393984,-9.57839 z"
     id="path77"
     inkscape:connector-curvature="0"
     style="stroke-width:1.48577666;fill:#ffffff;fill-opacity:1" />
  <path
     d="m 82.529943,150.73521 c 3.971599,-7.29774 13.214386,-6.43081 17.057581,-12.95371 -1.916147,5.96354 -8.48708,9.67619 -13.596043,12.45595 -0.983492,-0.0153 -4.207501,4.22711 -3.461538,0.49776 z"
     id="path79"
     inkscape:connector-curvature="0"
     style="stroke-width:1.48577666;fill:#ffffff;fill-opacity:1" />
  <path
     inkscape:connector-curvature="0"
     id="path99"
     d="m 62.670452,150.08864 c -2.979466,-4.1147 -15.856087,2.22356 -5.988151,0.84123 1.9541,0.65236 5.114198,1.9933 5.988151,-0.84123 z"
     style="stroke-width:1.30081165;fill:#ffffff;fill-opacity:1" />
  <style
     id="stylebodge1"
     type="text/css">[id^=&quot;polygon&quot;]{fill:#ffffff;fill-opacity:1}</style>
  <style
     id="stylebodge2"
     type="text/css">[id^=&quot;path&quot;]{fill:#ffffff;fill-opacity:1}</style>
</svg>
