<?xml version="1.0" encoding="UTF-8" standalone="no"?>
<svg
   xmlns:dc="http://purl.org/dc/elements/1.1/"
   xmlns:cc="http://creativecommons.org/ns#"
   xmlns:rdf="http://www.w3.org/1999/02/22-rdf-syntax-ns#"
   xmlns:svg="http://www.w3.org/2000/svg"
   xmlns="http://www.w3.org/2000/svg"
   width="205.66005mm"
   height="207.89409mm"
   viewBox="0 0 205.66004 207.89409"
   version="1.1"
   id="svg8">
  <defs
     id="defs2" />
  <metadata
     id="metadata5">
    <rdf:RDF>
      <cc:Work
         rdf:about="">
        <dc:format>image/svg+xml</dc:format>
        <dc:type
           rdf:resource="http://purl.org/dc/dcmitype/StillImage" />
        <dc:title></dc:title>
      </cc:Work>
    </rdf:RDF>
  </metadata>
  <ellipse
     ry="94.947044"
     rx="93.830025"
     cy="103.94704"
     cx="102.83002"
     id="path815"
     style="opacity:1;fill:none;fill-opacity:1;stroke:#ffffff;stroke-width:18;stroke-linecap:round;stroke-linejoin:miter;stroke-miterlimit:4;stroke-dasharray:none;stroke-opacity:1" />
  <g
     transform="matrix(0.26458332,0,0,0.26458332,35.358929,36.475939)"
     id="g2129">
    <g
       id="g2069">
      <g
         id="g2067">
        <path
           style="fill:#ffffff"
           d="m 186,29.084 -110,110 H 21 c -12,0 -21,10 -21,22 v 188 c 0,12 9,22 21,22 h 55 l 110,110 c 4,4 9,6 15,6 13,0 21,-11 21,-22 v -421 c 0,-17 -22,-29 -36,-15 z m -6,385 -80,-80 c -4,-4 -9,-6 -15,-6 H 43 v -146 h 42 c 6,0 11,-2 15,-6 l 80,-80 z"
           id="path2059" />
        <path
           style="fill:#ffffff"
           d="m 294,162.084 c -8,-9 -21,-10 -30,-2 -9,8 -10,21 -2,30 2,3 58,66 0,130 -13,14 -1,35 16,35 6,0 12,-2 16,-7 66,-74 29,-154 0,-186 z"
           id="path2061" />
        <path
           style="fill:#ffffff"
           d="m 361,102.084 c -8,-9 -21,-9 -30,-1 -9,8 -9,21 -1,30 5,5 110,125 0,248 -13,14 -1,36 16,36 6,0 11,-3 15,-8 135,-151 1,-303 0,-305 z"
           id="path2063" />
        <path
           style="fill:#ffffff"
           d="m 498,180.084 c -22,-72 -64,-120 -66,-122 -8,-9 -21,-10 -30,-2 -9,8 -10,21 -2,30 0,0 38,43 57,106 25,83 6,161 -57,231 -13,14 -1,36 16,36 6,0 12,-2 16,-7 91,-102 86,-204 66,-272 z"
           id="path2065" />
      </g>
    </g>
    <g
       id="g2071" />
    <g
       id="g2073" />
    <g
       id="g2075" />
    <g
       id="g2077" />
    <g
       id="g2079" />
    <g
       id="g2081" />
    <g
       id="g2083" />
    <g
       id="g2085" />
    <g
       id="g2087" />
    <g
       id="g2089" />
    <g
       id="g2091" />
    <g
       id="g2093" />
    <g
       id="g2095" />
    <g
       id="g2097" />
    <g
       id="g2099" />
  </g>
<style id="stylebodge1" type="text/css">[id^="polygon"]{fill:#ffffff;fill-opacity:1}</style><style id="stylebodge2" type="text/css">[id^="path"]{fill:#ffffff;fill-opacity:1}</style></svg>
