<?xml version="1.0" encoding="UTF-8" standalone="no"?>
<!-- Generator: Adobe Illustrator 16.2.1, SVG Export Plug-In . SVG Version: 6.00 Build 0)  -->

<svg
   xmlns:dc="http://purl.org/dc/elements/1.1/"
   xmlns:cc="http://creativecommons.org/ns#"
   xmlns:rdf="http://www.w3.org/1999/02/22-rdf-syntax-ns#"
   xmlns:svg="http://www.w3.org/2000/svg"
   xmlns="http://www.w3.org/2000/svg"
   xmlns:sodipodi="http://sodipodi.sourceforge.net/DTD/sodipodi-0.dtd"
   xmlns:inkscape="http://www.inkscape.org/namespaces/inkscape"
   version="1.1"
   id="Layer_1"
   x="0px"
   y="0px"
   width="512px"
   height="512px"
   viewBox="0 0 512 512"
   enable-background="new 0 0 512 512"
   xml:space="preserve"
   sodipodi:docname="soundcloud-logo.svg"
   inkscape:version="0.92.2 5c3e80d, 2017-08-06"><metadata
     id="metadata17"><rdf:RDF><cc:Work
         rdf:about=""><dc:format>image/svg+xml</dc:format><dc:type
           rdf:resource="http://purl.org/dc/dcmitype/StillImage" /></cc:Work></rdf:RDF></metadata><defs
     id="defs15" /><sodipodi:namedview
     pagecolor="#ffffff"
     bordercolor="#666666"
     borderopacity="1"
     objecttolerance="10"
     gridtolerance="10"
     guidetolerance="10"
     inkscape:pageopacity="0"
     inkscape:pageshadow="2"
     inkscape:window-width="1836"
     inkscape:window-height="954"
     id="namedview13"
     showgrid="false"
     inkscape:zoom="0.4609375"
     inkscape:cx="-47.728815"
     inkscape:cy="82.440678"
     inkscape:window-x="0"
     inkscape:window-y="0"
     inkscape:window-maximized="0"
     inkscape:current-layer="Layer_1" /><path
     d="M256,0C114.609,0,0,114.609,0,256s114.609,256,256,256s256-114.609,256-256S397.391,0,256,0z M256,472  c-119.297,0-216-96.703-216-216S136.703,40,256,40s216,96.703,216,216S375.297,472,256,472z"
     id="path2"
     style="fill:#ffffff;fill-opacity:1" /><g
     id="g8"
     style="fill:#ffffff;fill-opacity:1"><g
       id="g6"
       style="fill:#ffffff;fill-opacity:1"><path
         fill-rule="evenodd"
         clip-rule="evenodd"
         d="M128.591,281.609c-2.875,13.5,5.344,32,12.781,38.391v-64    C133.935,262.391,130.778,271.5,128.591,281.609z M347.341,250.188c-4.469,0-8.672,0.875-12.609,2.266    c-1.969-33.672-31-60.453-66.812-60.453c-22.891,0-50.609,8.938-62.703,25.594V320h142.125c20.25,0,36.656-15.625,36.656-34.891    C383.997,265.812,367.591,250.188,347.341,250.188z M179.685,320h12.766v-89.594h-12.766V320z M154.138,320h12.766v-76.812    h-12.766V320z"
         id="path4"
         style="fill:#ffffff;fill-opacity:1" /></g></g><style
     id="stylebodge1"
     type="text/css">[id^=&quot;polygon&quot;]{fill:#ff0000;fill-opacity:1}</style><style
     id="stylebodge2"
     type="text/css">[id^=&quot;path&quot;]{fill:#ff0000;fill-opacity:1}</style><style id="stylebodge1" type="text/css">[id^="polygon"]{fill:#ffffff;fill-opacity:1}</style><style id="stylebodge2" type="text/css">[id^="path"]{fill:#ffffff;fill-opacity:1}</style></svg>