<?xml version="1.0" encoding="UTF-8" standalone="no"?>
<svg
   id="svg8"
   version="1.1"
   viewBox="0 0 205.66004 207.89409"
   height="207.89409mm"
   width="205.66005mm"
   xmlns:xlink="http://www.w3.org/1999/xlink"
   xmlns="http://www.w3.org/2000/svg"
   xmlns:svg="http://www.w3.org/2000/svg"
   xmlns:rdf="http://www.w3.org/1999/02/22-rdf-syntax-ns#"
   xmlns:cc="http://creativecommons.org/ns#"
   xmlns:dc="http://purl.org/dc/elements/1.1/">
  <defs
     id="defs2">
    <linearGradient
       id="linearGradient1987">
      <stop
         style="stop-color:#fb8626;stop-opacity:1;"
         offset="0"
         id="stop1983" />
      <stop
         style="stop-color:#fff663;stop-opacity:1;"
         offset="1"
         id="stop1985" />
    </linearGradient>
    <linearGradient
       id="linearGradient1847">
      <stop
         style="stop-color:#fb8626;stop-opacity:1;"
         offset="0"
         id="stop1843" />
      <stop
         style="stop-color:#fff663;stop-opacity:1;"
         offset="1"
         id="stop1845" />
    </linearGradient>
    <marker
       style="overflow:visible"
       id="Arrow2Lstart"
       refX="0.0"
       refY="0.0"
       orient="auto">
      <path
         transform="scale(1.1) translate(1,0)"
         d="M 8.7185878,4.0337352 L -2.2072895,0.016013256 L 8.7185884,-4.0017078 C 6.9730900,-1.6296469 6.9831476,1.6157441 8.7185878,4.0337352 z "
         style="fill-rule:evenodd;stroke-width:0.625;stroke-linejoin:round;stroke:#000000;stroke-opacity:1;fill:#000000;fill-opacity:1"
         id="path6891" />
    </marker>
    <linearGradient
       xlink:href="#linearGradient1847"
       id="linearGradient1849"
       x1="-206.77706"
       y1="-102.83002"
       x2="-1.117012"
       y2="-102.83002"
       gradientUnits="userSpaceOnUse" />
    <linearGradient
       xlink:href="#linearGradient1987"
       id="linearGradient1989"
       x1="1212.4628"
       y1="-880.14948"
       x2="1088.9397"
       y2="2836.2017"
       gradientUnits="userSpaceOnUse" />
  </defs>
  <metadata
     id="metadata5">
    <rdf:RDF>
      <cc:Work
         rdf:about="">
        <dc:format>image/svg+xml</dc:format>
        <dc:type
           rdf:resource="http://purl.org/dc/dcmitype/StillImage" />
      </cc:Work>
    </rdf:RDF>
  </metadata>
  <ellipse
     ry="94.947044"
     rx="93.830025"
     cy="-102.83002"
     cx="-103.94704"
     id="path815"
     style="fill:none;fill-opacity:1;stroke:url(#linearGradient1849);stroke-width:18;stroke-linecap:round;stroke-linejoin:miter;stroke-miterlimit:4;stroke-dasharray:none;stroke-opacity:1"
     transform="matrix(0,-1,-1,0,0,0)" />
  <g
     id="g1034"
     style="fill:url(#linearGradient1989);fill-opacity:1"
     transform="matrix(0.05522927,0,0,-0.05522927,41.042555,158.61567)">
    <path
       d="m 1954.48,1971.1 h -907.19 c -85.642,0 -364.1723,-69.63 -364.1723,-155.27 0,-85.64 278.5343,-155.28 364.1723,-155.28 h 751.92 V 311.383 H 1047.29 C 961.648,311.383 699.82956,241.75 699.82956,156.109 699.82956,70.5352 961.652,0.902344 1047.29,0.902344 h 907.19 c 85.58,0 155.21,69.632856 155.21,155.206656 V 1815.83 c 0,85.64 -69.63,155.27 -155.21,155.27 z"
       style="fill:url(#linearGradient1989);fill-opacity:1;fill-rule:nonzero;stroke:#000000;stroke-width:0.1;stroke-opacity:1"
       id="path14" />
    <path
       d="m 908.156,627.535 c 0,-31.203 16.145,-59.097 43.16,-74.699 13.504,-7.766 28.297,-11.684 43.09,-11.684 14.784,0 29.584,3.918 43.094,11.684 l 620.75,358.367 c 27.02,15.598 43.16,43.559 43.16,74.699 0,31.208 -16.14,59.168 -43.16,74.758 l -620.69,358.44 c -27.01,15.53 -59.228,15.6 -86.244,0.07 -27.015,-15.6 -43.16,-43.57 -43.16,-74.77 V 1141.24 H 155.5 c -45.594,0 -88.684,-19.92 -118.2621,-54.7 C 7.71914,1051.82 -5.04297,1005.69 2.38281,960.031 14.3359,886.348 83.3629,830.762 162.926,830.762 h 745.23 z"
       style="fill:url(#linearGradient1989);fill-opacity:1;fill-rule:nonzero;stroke:#000000;stroke-width:0.1;stroke-opacity:1"
       id="path16" />
  </g>
</svg>
