<?xml version="1.0" encoding="UTF-8" standalone="no"?>
<svg
   xmlns:dc="http://purl.org/dc/elements/1.1/"
   xmlns:cc="http://creativecommons.org/ns#"
   xmlns:rdf="http://www.w3.org/1999/02/22-rdf-syntax-ns#"
   xmlns:svg="http://www.w3.org/2000/svg"
   xmlns="http://www.w3.org/2000/svg"
   xmlns:xlink="http://www.w3.org/1999/xlink"
   xmlns:sodipodi="http://sodipodi.sourceforge.net/DTD/sodipodi-0.dtd"
   xmlns:inkscape="http://www.inkscape.org/namespaces/inkscape"
   width="205.66005mm"
   height="207.89409mm"
   viewBox="0 0 205.66004 207.89409"
   version="1.1"
   id="svg8"
   sodipodi:docname="movie-1.svg"
   inkscape:version="0.92.2 5c3e80d, 2017-08-06">
  <sodipodi:namedview
     pagecolor="#ffffff"
     bordercolor="#666666"
     borderopacity="1"
     objecttolerance="10"
     gridtolerance="10"
     guidetolerance="10"
     inkscape:pageopacity="0"
     inkscape:pageshadow="2"
     inkscape:window-width="1412"
     inkscape:window-height="1023"
     id="namedview9"
     showgrid="false"
     inkscape:zoom="0.30035326"
     inkscape:cx="388.64891"
     inkscape:cy="392.87072"
     inkscape:window-x="758"
     inkscape:window-y="90"
     inkscape:window-maximized="0"
     inkscape:current-layer="svg8" />
  <defs
     id="defs2">
    <linearGradient
       inkscape:collect="always"
       id="linearGradient823">
      <stop
         style="stop-color:#fff663;stop-opacity:1;"
         offset="0"
         id="stop819" />
      <stop
         style="stop-color:#fb8626;stop-opacity:1"
         offset="1"
         id="stop821" />
    </linearGradient>
    <linearGradient
       inkscape:collect="always"
       xlink:href="#linearGradient823"
       id="linearGradient825"
       x1="100.4234"
       y1="0.8809045"
       x2="99.070274"
       y2="207.89407"
       gradientUnits="userSpaceOnUse" />
    <linearGradient
       inkscape:collect="always"
       xlink:href="#linearGradient823"
       id="linearGradient833"
       x1="103.30518"
       y1="-2.6139251e-06"
       x2="104.99759"
       y2="206.13226"
       gradientUnits="userSpaceOnUse" />
  </defs>
  <metadata
     id="metadata5">
    <rdf:RDF>
      <cc:Work
         rdf:about="">
        <dc:format>image/svg+xml</dc:format>
        <dc:type
           rdf:resource="http://purl.org/dc/dcmitype/StillImage" />
        <dc:title />
      </cc:Work>
    </rdf:RDF>
  </metadata>
  <ellipse
     ry="94.947044"
     rx="93.830025"
     cy="103.94704"
     cx="102.83002"
     id="path815"
     style="opacity:1;fill:none;fill-opacity:1;stroke:url(#linearGradient825);stroke-width:18;stroke-linecap:round;stroke-linejoin:miter;stroke-miterlimit:4;stroke-dasharray:none;stroke-opacity:1" />
  <path
     style="stroke-width:0.22869384;fill:url(#linearGradient833);fill-opacity:1"
     d="M 154.05744,45.40142 H 51.602604 c -4.044908,0 -7.318203,3.276726 -7.318203,7.318203 V 155.17445 c 0,4.04514 3.273295,7.31821 7.318203,7.31821 H 154.05744 c 4.04514,0 7.3182,-3.27329 7.3182,-7.31821 V 52.719623 c 0,-4.041477 -3.27306,-7.318203 -7.3182,-7.318203 z m -36.59101,7.318203 7.3182,14.636403 h -14.6364 l -7.31821,-14.636403 z m -29.272812,0 7.318203,14.636403 H 80.875415 L 73.557212,52.719623 Z m -36.591014,0 h 7.318203 L 66.23901,67.356026 H 51.602604 Z M 154.05744,155.17445 H 51.602604 V 74.674232 H 154.05744 Z m 0,-87.818424 h -14.6364 l -7.3182,-14.636403 h 14.6364 l 7.3182,7.318206 z m -28.50097,44.295254 c 3.60194,1.80096 3.60194,4.7454 0,6.54636 l -38.134694,19.06734 c -3.601927,1.80097 -6.546361,-0.0215 -6.546361,-4.04513 V 96.628839 c 0,-4.02364 2.944434,-5.8461 6.546361,-4.04513 z"
     id="path928" />
  <style
     id="stylebodge1"
     type="text/css">[id^=&quot;polygon&quot;]{fill:#FFF663;fill-opacity:1}</style>
  <style
     id="stylebodge2"
     type="text/css">[id^=&quot;path&quot;]{fill:#FFF663;fill-opacity:1}</style>
</svg>
