<?xml version="1.0" encoding="UTF-8" standalone="no"?>
<svg
   id="svg8"
   version="1.1"
   viewBox="0 0 205.66004 207.89409"
   height="207.89409mm"
   width="205.66005mm"
   xmlns:xlink="http://www.w3.org/1999/xlink"
   xmlns="http://www.w3.org/2000/svg"
   xmlns:svg="http://www.w3.org/2000/svg"
   xmlns:rdf="http://www.w3.org/1999/02/22-rdf-syntax-ns#"
   xmlns:cc="http://creativecommons.org/ns#"
   xmlns:dc="http://purl.org/dc/elements/1.1/">
  <defs
     id="defs2">
    <linearGradient
       id="linearGradient1216">
      <stop
         style="stop-color:#fb8626;stop-opacity:1"
         offset="0"
         id="stop1212" />
      <stop
         style="stop-color:#fff663;stop-opacity:1"
         offset="1"
         id="stop1214" />
    </linearGradient>
    <marker
       style="overflow:visible"
       id="Arrow2Lstart"
       refX="0.0"
       refY="0.0"
       orient="auto">
      <path
         transform="scale(1.1) translate(1,0)"
         d="M 8.7185878,4.0337352 L -2.2072895,0.016013256 L 8.7185884,-4.0017078 C 6.9730900,-1.6296469 6.9831476,1.6157441 8.7185878,4.0337352 z "
         style="fill-rule:evenodd;stroke-width:0.625;stroke-linejoin:round;stroke:#000000;stroke-opacity:1;fill:#000000;fill-opacity:1"
         id="path6891" />
    </marker>
    <linearGradient
       xlink:href="#linearGradient1216"
       id="linearGradient1720"
       x1="205.48747"
       y1="-104.59184"
       x2="0.64478081"
       y2="-105.47274"
       gradientUnits="userSpaceOnUse" />
    <linearGradient
       xlink:href="#linearGradient1216"
       id="linearGradient2332"
       x1="281.38242"
       y1="697.44891"
       x2="270.67053"
       y2="-88.292549"
       gradientUnits="userSpaceOnUse" />
  </defs>
  <metadata
     id="metadata5">
    <rdf:RDF>
      <cc:Work
         rdf:about="">
        <dc:format>image/svg+xml</dc:format>
        <dc:type
           rdf:resource="http://purl.org/dc/dcmitype/StillImage" />
      </cc:Work>
    </rdf:RDF>
  </metadata>
  <ellipse
     ry="94.947044"
     rx="93.830025"
     cy="-102.83002"
     cx="103.94704"
     id="path815"
     style="fill:none;fill-opacity:1;stroke:url(#linearGradient1720);stroke-width:18;stroke-linecap:round;stroke-linejoin:miter;stroke-miterlimit:4;stroke-dasharray:none;stroke-opacity:1"
     transform="rotate(90)" />
  <g
     id="g2324"
     transform="matrix(0.26458333,0,0,0.26458333,34.438668,24.241617)"
     style="fill-opacity:1;fill:url(#linearGradient2332)">
    <path
       d="m 409.6,265.78572 h -34.1 v -68.3 c 0,-66.6 -52.9,-119.500005 -119.5,-119.500005 -66.6,0 -119.5,52.900005 -119.5,119.500005 v 68.3 h -34.1 v -68.3 c 0,-85.3 68.3,-153.600005 153.6,-153.600005 85.3,0 153.6,68.300005 153.6,153.600005 z"
       id="path2"
       style="fill-opacity:1.0;fill:url(#linearGradient2332)" />
    <path
       d="m 392.5,512 h -273 c -29,0 -51.2,-19.0873 -51.2,-44.02116 V 291.89418 c 0,-24.93386 22.2,-44.02116 51.2,-44.02116 h 273.1 c 29,0 51.2,19.0873 51.2,44.02116 V 467.97884 C 443.7,492.9127 421.5,512 392.5,512 Z m -273,-234.8082 c -10.2,0 -17.1,5.84656 -17.1,14.70238 v 176.08466 c 0,8.76984 6.8,14.70238 17.1,14.70238 h 273.1 c 10.2,0 17.1,-5.84656 17.1,-14.70238 V 291.89418 c 0,-8.76984 -6.8,-14.70238 -17.1,-14.70238 z"
       id="path4"
       style="stroke-width:0.927248;fill-opacity:1.0;fill:url(#linearGradient2332)" />
    <circle
       cx="256"
       cy="336.45715"
       r="34.099998"
       id="circle6"
       style="fill-opacity:1.0;fill:url(#linearGradient2332)" />
    <polygon
       points="281.6,409.6 264.5,307.2 247.5,307.2 230.4,409.6 "
       id="polygon8"
       transform="translate(0,29.257143)"
       style="fill-opacity:1.0;fill:url(#linearGradient2332)" />
  </g>
</svg>
