<?xml version="1.0" encoding="UTF-8" standalone="no"?>
<!-- Generator: Adobe Illustrator 16.0.4, SVG Export Plug-In . SVG Version: 6.00 Build 0)  -->

<svg
   xmlns:dc="http://purl.org/dc/elements/1.1/"
   xmlns:cc="http://creativecommons.org/ns#"
   xmlns:rdf="http://www.w3.org/1999/02/22-rdf-syntax-ns#"
   xmlns:svg="http://www.w3.org/2000/svg"
   xmlns="http://www.w3.org/2000/svg"
   xmlns:xlink="http://www.w3.org/1999/xlink"
   xmlns:sodipodi="http://sodipodi.sourceforge.net/DTD/sodipodi-0.dtd"
   xmlns:inkscape="http://www.inkscape.org/namespaces/inkscape"
   id="Capa_1"
   enable-background="new 0 0 216 146"
   xml:space="preserve"
   height="146"
   viewBox="0 0 146 146"
   width="146"
   version="1.1"
   y="0px"
   x="0px"
   sodipodi:docname="resize.svg"
   inkscape:version="0.92.2 5c3e80d, 2017-08-06"><defs
     id="defs9"><linearGradient
       inkscape:collect="always"
       id="linearGradient831"><stop
         style="stop-color:#fff663;stop-opacity:1"
         offset="0"
         id="stop827" /><stop
         style="stop-color:#fb8626;stop-opacity:1"
         offset="1"
         id="stop829" /></linearGradient><linearGradient
       inkscape:collect="always"
       xlink:href="#linearGradient831"
       id="linearGradient833"
       x1="0.759"
       y1="72.679"
       x2="146.759"
       y2="72.679"
       gradientUnits="userSpaceOnUse" /></defs><sodipodi:namedview
     pagecolor="#ffffff"
     bordercolor="#666666"
     borderopacity="1"
     objecttolerance="10"
     gridtolerance="10"
     guidetolerance="10"
     inkscape:pageopacity="0"
     inkscape:pageshadow="2"
     inkscape:window-width="1213"
     inkscape:window-height="706"
     id="namedview7"
     showgrid="false"
     inkscape:zoom="1.6164384"
     inkscape:cx="73"
     inkscape:cy="73"
     inkscape:window-x="677"
     inkscape:window-y="193"
     inkscape:window-maximized="0"
     inkscape:current-layer="Capa_1" /><metadata
     id="metadata9"><rdf:RDF><cc:Work
         rdf:about=""><dc:format>image/svg+xml</dc:format><dc:type
           rdf:resource="http://purl.org/dc/dcmitype/StillImage" /><dc:title /></cc:Work></rdf:RDF></metadata><path
     id="path3"
     d="M145.2,69.013,124.35,48.156c-1.033-1.032-2.255-1.548-3.666-1.548-1.412,0-2.635,0.516-3.668,1.548-1.031,1.032-1.547,2.254-1.547,3.666v10.429h-83.424v-10.429c0-1.412-0.516-2.634-1.548-3.666-1.033-1.032-2.255-1.548-3.667-1.548s-2.634,0.516-3.666,1.548l-20.857,20.857c-1.032,1.031-1.548,2.254-1.548,3.666s0.516,2.634,1.548,3.666l20.857,20.857c1.032,1.031,2.253,1.548,3.666,1.548s2.635-0.517,3.667-1.548c1.032-1.032,1.548-2.254,1.548-3.666v-10.43h83.429v10.43c0,1.412,0.516,2.634,1.547,3.666,1.033,1.031,2.256,1.548,3.668,1.548,1.411,0,2.633-0.517,3.666-1.548l20.856-20.857c1.032-1.032,1.548-2.254,1.548-3.666s-0.516-2.635-1.548-3.666z"
     style="stroke:none;fill-opacity:1;fill:url(#linearGradient833)" /><style
     id="stylebodge1"
     type="text/css">[id^=&quot;polygon&quot;]{fill:#FFF663;fill-opacity:1}</style><style
     id="stylebodge2"
     type="text/css">[id^=&quot;path&quot;]{fill:#FFF663;fill-opacity:1}</style></svg>