<?xml version="1.0" encoding="UTF-8" standalone="no"?>
<!-- Svg Vector Icons : http://www.onlinewebfonts.com/icon -->

<svg
   xmlns:dc="http://purl.org/dc/elements/1.1/"
   xmlns:cc="http://creativecommons.org/ns#"
   xmlns:rdf="http://www.w3.org/1999/02/22-rdf-syntax-ns#"
   xmlns:svg="http://www.w3.org/2000/svg"
   xmlns="http://www.w3.org/2000/svg"
   xmlns:xlink="http://www.w3.org/1999/xlink"
   xmlns:sodipodi="http://sodipodi.sourceforge.net/DTD/sodipodi-0.dtd"
   xmlns:inkscape="http://www.inkscape.org/namespaces/inkscape"
   version="1.1"
   x="0px"
   y="0px"
   viewBox="0 0 1000 1000"
   enable-background="new 0 0 1000 1000"
   xml:space="preserve"
   id="svg60"
   sodipodi:docname="calendar.svg"
   inkscape:version="0.92.2 5c3e80d, 2017-08-06"><defs
     id="defs64"><linearGradient
       inkscape:collect="always"
       id="linearGradient878"><stop
         style="stop-color:#ca91be;stop-opacity:1"
         offset="0"
         id="stop874" /><stop
         style="stop-color:#ba3e91;stop-opacity:1"
         offset="1"
         id="stop876" /></linearGradient><radialGradient
       inkscape:collect="always"
       xlink:href="#linearGradient878"
       id="radialGradient880"
       cx="500"
       cy="500"
       fx="500"
       fy="500"
       r="490"
       gradientUnits="userSpaceOnUse"
       gradientTransform="matrix(3.576963,-0.04323763,0.01208692,0.99992695,-1294.525,21.655342)" /></defs><sodipodi:namedview
     pagecolor="#ffffff"
     bordercolor="#666666"
     borderopacity="1"
     objecttolerance="10"
     gridtolerance="10"
     guidetolerance="10"
     inkscape:pageopacity="0"
     inkscape:pageshadow="2"
     inkscape:window-width="1565"
     inkscape:window-height="977"
     id="namedview62"
     showgrid="false"
     inkscape:zoom="0.236"
     inkscape:cx="149.52991"
     inkscape:cy="500"
     inkscape:window-x="720"
     inkscape:window-y="234"
     inkscape:window-maximized="0"
     inkscape:current-layer="svg60" /><metadata
     id="metadata2"> Svg Vector Icons : http://www.onlinewebfonts.com/icon <rdf:RDF><cc:Work
     rdf:about=""><dc:format>image/svg+xml</dc:format><dc:type
       rdf:resource="http://purl.org/dc/dcmitype/StillImage" /></cc:Work></rdf:RDF></metadata><g
     id="g58"
     style="fill-opacity:1;fill:url(#radialGradient880)"><g
       id="g26"
       style="fill-opacity:1;fill:url(#radialGradient880)"><g
         id="g24"
         style="fill-opacity:1;fill:url(#radialGradient880)"><path
           d="M990,752.7c0-112.6-78.5-206.9-183.8-231.2c-17.2-4-35.2-6.1-53.6-6.1c-5.2,0-10.2,0.2-15.3,0.5c-115,7.3-207.7,96.5-220.5,210c-1,8.8-1.5,17.7-1.5,26.8c0,17.1,1.8,33.7,5.3,49.8C543.5,909.6,638.6,990,752.7,990C883.7,990,990,883.7,990,752.7z M752.7,909.6c-86.7,0-157-70.3-157-157s70.3-157,157-157s157,70.3,157,157S839.3,909.6,752.7,909.6z"
           id="path4"
           style="fill-opacity:1;fill:url(#radialGradient880)" /><polygon
           points="783.3,645.5 729.7,645.5 729.7,729.7 645.5,729.7 645.5,783.3 783.3,783.3 783.3,729.7 783.3,729.7 "
           id="polygon6"
           style="fill-opacity:1;fill:url(#radialGradient880)" /><path
           d="M186.1,10c-14.8,0-26.8,12-26.8,26.8V98v65.1c0,14.8,12,26.8,26.8,26.8h23c14.8,0,26.8-12,26.8-26.8V98V36.8c0-14.8-12-26.8-26.8-26.8H186.1z"
           id="path8"
           style="fill-opacity:1;fill:url(#radialGradient880)" /><path
           d="M607.2,10c-14.8,0-26.8,12-26.8,26.8V98v65.1c0,14.8,12,26.8,26.8,26.8h23c14.8,0,26.8-12,26.8-26.8V98V36.8c0-14.8-12-26.8-26.8-26.8H607.2z"
           id="path10"
           style="fill-opacity:1;fill:url(#radialGradient880)" /><path
           d="M71.3,802.4h379c-3.7-18.6-5.7-37.8-5.7-57.4c0-6.4,0.3-12.8,0.7-19.1H124.8c-25.4,0-45.9-20.6-45.9-45.9V312.4h658.4v142c5.1-0.3,10.2-0.4,15.3-0.4c18.3,0,36.2,1.8,53.6,5V159.3c0-33.8-27.4-61.3-61.3-61.3h-49.8v65.1c0,35.9-29.2,65.1-65.1,65.1h-23c-35.9,0-65.1-29.2-65.1-65.1V98h-268v65.1c0,35.9-29.2,65.1-65.1,65.1h-23c-35.9,0-65.1-29.2-65.1-65.1V98H71.3C37.4,98,10,125.5,10,159.3v581.9C10,775,37.4,802.4,71.3,802.4z"
           id="path12"
           style="fill-opacity:1;fill:url(#radialGradient880)" /><circle
           cx="225.8"
           cy="427.3"
           r="60.8"
           id="circle14"
           style="fill-opacity:1;fill:url(#radialGradient880)" /><circle
           cx="408.1"
           cy="427.3"
           r="60.8"
           id="circle16"
           style="fill-opacity:1;fill:url(#radialGradient880)" /><circle
           cx="590.4"
           cy="427.3"
           r="60.8"
           id="circle18"
           style="fill-opacity:1;fill:url(#radialGradient880)" /><circle
           cx="408.1"
           cy="611"
           r="60.8"
           id="circle20"
           style="fill-opacity:1;fill:url(#radialGradient880)" /><circle
           cx="225.8"
           cy="611"
           r="60.8"
           id="circle22"
           style="fill-opacity:1;fill:url(#radialGradient880)" /></g></g><g
       id="g28"
       style="fill-opacity:1;fill:url(#radialGradient880)" /><g
       id="g30"
       style="fill-opacity:1;fill:url(#radialGradient880)" /><g
       id="g32"
       style="fill-opacity:1;fill:url(#radialGradient880)" /><g
       id="g34"
       style="fill-opacity:1;fill:url(#radialGradient880)" /><g
       id="g36"
       style="fill-opacity:1;fill:url(#radialGradient880)" /><g
       id="g38"
       style="fill-opacity:1;fill:url(#radialGradient880)" /><g
       id="g40"
       style="fill-opacity:1;fill:url(#radialGradient880)" /><g
       id="g42"
       style="fill-opacity:1;fill:url(#radialGradient880)" /><g
       id="g44"
       style="fill-opacity:1;fill:url(#radialGradient880)" /><g
       id="g46"
       style="fill-opacity:1;fill:url(#radialGradient880)" /><g
       id="g48"
       style="fill-opacity:1;fill:url(#radialGradient880)" /><g
       id="g50"
       style="fill-opacity:1;fill:url(#radialGradient880)" /><g
       id="g52"
       style="fill-opacity:1;fill:url(#radialGradient880)" /><g
       id="g54"
       style="fill-opacity:1;fill:url(#radialGradient880)" /><g
       id="g56"
       style="fill-opacity:1;fill:url(#radialGradient880)" /></g></svg>