<?xml version="1.0" encoding="UTF-8" standalone="no"?>
<!-- Generator: Adobe Illustrator 16.0.0, SVG Export Plug-In . SVG Version: 6.00 Build 0)  -->

<svg
   xmlns:dc="http://purl.org/dc/elements/1.1/"
   xmlns:cc="http://creativecommons.org/ns#"
   xmlns:rdf="http://www.w3.org/1999/02/22-rdf-syntax-ns#"
   xmlns:svg="http://www.w3.org/2000/svg"
   xmlns="http://www.w3.org/2000/svg"
   xmlns:xlink="http://www.w3.org/1999/xlink"
   xmlns:sodipodi="http://sodipodi.sourceforge.net/DTD/sodipodi-0.dtd"
   xmlns:inkscape="http://www.inkscape.org/namespaces/inkscape"
   version="1.1"
   id="Layer_1"
   x="0px"
   y="0px"
   width="512px"
   height="512px"
   viewBox="0 0 512 512"
   style="enable-background:new 0 0 512 512;"
   xml:space="preserve"
   sodipodi:docname="folder.svg"
   inkscape:version="0.92.2 5c3e80d, 2017-08-06"><metadata
     id="metadata13"><rdf:RDF><cc:Work
         rdf:about=""><dc:format>image/svg+xml</dc:format><dc:type
           rdf:resource="http://purl.org/dc/dcmitype/StillImage" /></cc:Work></rdf:RDF></metadata><defs
     id="defs11"><linearGradient
       inkscape:collect="always"
       id="linearGradient824"><stop
         style="stop-color:#ca91be;stop-opacity:1"
         offset="0"
         id="stop820" /><stop
         style="stop-color:#ba3e91;stop-opacity:1"
         offset="1"
         id="stop822" /></linearGradient><radialGradient
       inkscape:collect="always"
       xlink:href="#linearGradient824"
       id="radialGradient826"
       cx="256.00052"
       cy="256.00049"
       fx="256.00052"
       fy="256.00049"
       r="225.29137"
       gradientTransform="matrix(-3.6610585,0.02170121,-0.00471666,-0.79571402,1194.4408,454.14814)"
       gradientUnits="userSpaceOnUse" /></defs><sodipodi:namedview
     pagecolor="#ffffff"
     bordercolor="#666666"
     borderopacity="1"
     objecttolerance="10"
     gridtolerance="10"
     guidetolerance="10"
     inkscape:pageopacity="0"
     inkscape:pageshadow="2"
     inkscape:window-width="1245"
     inkscape:window-height="761"
     id="namedview9"
     showgrid="false"
     inkscape:zoom="0.4609375"
     inkscape:cx="-139.9322"
     inkscape:cy="256"
     inkscape:window-x="477"
     inkscape:window-y="156"
     inkscape:window-maximized="0"
     inkscape:current-layer="Layer_1" /><g
     id="g6"
     style="fill-opacity:1;fill:url(#radialGradient826)"><path
       d="M478.919,219.366c-1.898-2.242-4.689-3.535-7.629-3.535H40.708c-2.938,0-5.729,1.293-7.629,3.535   c-1.898,2.242-2.717,5.207-2.234,8.106l29.547,177.705c1.838,11.157,11.379,19.255,22.688,19.255h345.842   c11.309,0,20.85-8.098,22.686-19.24l29.549-177.72C481.638,224.572,480.819,221.608,478.919,219.366z"
       id="path2"
       style="fill-opacity:1;fill:url(#radialGradient826)" /><path
       d="M444.692,135.387c0-7.661-6.211-13.874-13.875-13.874H224.921v-20.069c0-7.664-6.211-13.875-13.873-13.875H81.181   c-7.662,0-13.873,6.211-13.873,13.875v82.418h377.385V135.387z"
       id="path4"
       style="fill-opacity:1;fill:url(#radialGradient826)" /></g></svg>