<?xml version="1.0" encoding="UTF-8" standalone="no"?>
<svg
   xmlns:dc="http://purl.org/dc/elements/1.1/"
   xmlns:cc="http://creativecommons.org/ns#"
   xmlns:rdf="http://www.w3.org/1999/02/22-rdf-syntax-ns#"
   xmlns:svg="http://www.w3.org/2000/svg"
   xmlns="http://www.w3.org/2000/svg"
   xmlns:xlink="http://www.w3.org/1999/xlink"
   xmlns:sodipodi="http://sodipodi.sourceforge.net/DTD/sodipodi-0.dtd"
   xmlns:inkscape="http://www.inkscape.org/namespaces/inkscape"
   width="205.66005mm"
   height="207.89409mm"
   viewBox="0 0 205.66004 207.89409"
   version="1.1"
   id="svg8"
   sodipodi:docname="neverheard.svg"
   inkscape:version="0.92.2 5c3e80d, 2017-08-06">
  <sodipodi:namedview
     pagecolor="#ffffff"
     bordercolor="#666666"
     borderopacity="1"
     objecttolerance="10"
     gridtolerance="10"
     guidetolerance="10"
     inkscape:pageopacity="0"
     inkscape:pageshadow="2"
     inkscape:window-width="1632"
     inkscape:window-height="915"
     id="namedview11"
     showgrid="false"
     inkscape:zoom="0.30035326"
     inkscape:cx="-826.58679"
     inkscape:cy="392.87072"
     inkscape:window-x="404"
     inkscape:window-y="140"
     inkscape:window-maximized="0"
     inkscape:current-layer="svg8" />
  <defs
     id="defs2">
    <linearGradient
       inkscape:collect="always"
       id="linearGradient822">
      <stop
         style="stop-color:#ca91be;stop-opacity:1"
         offset="0"
         id="stop818" />
      <stop
         style="stop-color:#ba3e91;stop-opacity:1"
         offset="1"
         id="stop820" />
    </linearGradient>
    <radialGradient
       inkscape:collect="always"
       xlink:href="#linearGradient822"
       id="radialGradient829"
       cx="97.435745"
       cy="71.522728"
       fx="97.435745"
       fy="71.522728"
       r="28.263145"
       gradientTransform="matrix(-4.1992239,-0.02542408,0.00852378,-1.4078462,505.98061,174.69295)"
       gradientUnits="userSpaceOnUse" />
  </defs>
  <metadata
     id="metadata5">
    <rdf:RDF>
      <cc:Work
         rdf:about="">
        <dc:format>image/svg+xml</dc:format>
        <dc:type
           rdf:resource="http://purl.org/dc/dcmitype/StillImage" />
        <dc:title />
      </cc:Work>
    </rdf:RDF>
  </metadata>
  <g
     transform="matrix(2.4518529,0,0,2.4518529,-136.0681,-71.416168)"
     id="g1272"
     style="fill:url(#radialGradient829);fill-opacity:1;stroke:none">
    <path
       d="m 107.85364,70.417206 -3.45789,-3.458758 c 3.83766,-3.83767 3.83766,-10.083204 0,-13.920874 -3.84028,-3.838536 -10.084943,-3.838536 -13.921745,0 l -3.458758,-3.458758 c 5.744365,-5.745232 15.093153,-5.745232 20.839253,0 5.74437,5.744365 5.74437,15.093157 -8.6e-4,20.83839 z"
       id="path1244"
       style="fill:url(#radialGradient829);fill-opacity:1;stroke:none;stroke-width:0.86707401"
       inkscape:connector-curvature="0" />
    <path
       d="m 95.834256,111.31362 c -8.13142,0 -14.747194,-6.61578 -14.747194,-14.748063 h 4.915442 c 0,5.421813 4.410806,9.831753 9.831752,9.831753 5.421814,0 9.831754,-4.40994 9.831754,-9.831753 -8.7e-4,-7.549614 2.93938,-14.648349 8.27795,-19.986056 4.40994,-4.410806 6.83862,-10.275694 6.83862,-16.511691 0,-12.946282 -10.47339,-23.420536 -23.347705,-23.420536 -12.873448,0 -23.346835,10.474254 -23.346835,23.349436 h -4.915442 c 0,-15.585655 12.678356,-28.264878 28.262277,-28.264878 15.584785,0 28.264015,12.679223 28.264015,28.264878 0,7.620714 -2.94025,14.718582 -8.27796,20.058023 -4.4108,4.409939 -6.83948,10.27396 -6.83861,16.510824 0,8.132283 -6.61578,14.748063 -14.748064,14.748063 z"
       id="path1246"
       style="fill:url(#radialGradient829);fill-opacity:1;stroke:none;stroke-width:0.86707401"
       inkscape:connector-curvature="0" />
  </g>
  <style
     id="stylebodge1"
     type="text/css">[id^=&quot;polygon&quot;]{fill:#FFF663;fill-opacity:1}</style>
  <style
     id="stylebodge2"
     type="text/css">[id^=&quot;path&quot;]{fill:#FFF663;fill-opacity:1}</style>
</svg>
