<?xml version="1.0" encoding="UTF-8" standalone="no"?>
<!-- Generator: Adobe Illustrator 17.0.0, SVG Export Plug-In . SVG Version: 6.00 Build 0)  -->

<svg
   xmlns:dc="http://purl.org/dc/elements/1.1/"
   xmlns:cc="http://creativecommons.org/ns#"
   xmlns:rdf="http://www.w3.org/1999/02/22-rdf-syntax-ns#"
   xmlns:svg="http://www.w3.org/2000/svg"
   xmlns="http://www.w3.org/2000/svg"
   xmlns:xlink="http://www.w3.org/1999/xlink"
   xmlns:sodipodi="http://sodipodi.sourceforge.net/DTD/sodipodi-0.dtd"
   xmlns:inkscape="http://www.inkscape.org/namespaces/inkscape"
   version="1.1"
   id="Layer_1"
   x="0px"
   y="0px"
   width="26px"
   height="26px"
   viewBox="0 0 26 26"
   enable-background="new 0 0 26 26"
   xml:space="preserve"
   sodipodi:docname="unlistened.svg"
   inkscape:version="0.92.2 5c3e80d, 2017-08-06"><metadata
     id="metadata9"><rdf:RDF><cc:Work
         rdf:about=""><dc:format>image/svg+xml</dc:format><dc:type
           rdf:resource="http://purl.org/dc/dcmitype/StillImage" /></cc:Work></rdf:RDF></metadata><defs
     id="defs7"><linearGradient
       inkscape:collect="always"
       id="linearGradient823"><stop
         style="stop-color:#ca91be;stop-opacity:1"
         offset="0"
         id="stop819" /><stop
         style="stop-color:#ba3e91;stop-opacity:1"
         offset="1"
         id="stop821" /></linearGradient><radialGradient
       inkscape:collect="always"
       xlink:href="#linearGradient823"
       id="radialGradient825"
       cx="13"
       cy="13"
       fx="13"
       fy="13"
       r="11.990875"
       gradientTransform="matrix(-3.6765787,-0.01837555,0.00541856,-1.0841442,60.725081,27.332756)"
       gradientUnits="userSpaceOnUse" /></defs><sodipodi:namedview
     pagecolor="#ffffff"
     bordercolor="#666666"
     borderopacity="1"
     objecttolerance="10"
     gridtolerance="10"
     guidetolerance="10"
     inkscape:pageopacity="0"
     inkscape:pageshadow="2"
     inkscape:window-width="1631"
     inkscape:window-height="876"
     id="namedview5"
     showgrid="false"
     inkscape:zoom="9.0769231"
     inkscape:cx="-7.1059322"
     inkscape:cy="13"
     inkscape:window-x="451"
     inkscape:window-y="202"
     inkscape:window-maximized="0"
     inkscape:current-layer="Layer_1" /><path
     d="m 15.086375,20.626 c -0.146,0.253 -0.266,0.497 -0.366,0.746 -0.564,1.389 -1.883,4.628 -5.766,4.628 -3.542,0 -4.642,-3.665 -4.642,-5 0,-0.553 0.448,-1 1,-1 0.552,0 1,0.447 1,1 0,0.03 0.28,3 2.642,3 2.113,0 3.063,-1.292 3.913,-3.377 0.134,-0.334 0.294,-0.661 0.487,-0.997 0.275,-0.479 0.889,-0.643 1.366,-0.366 0.479,0.276 0.643,0.887 0.366,1.366 z m 9.612,4.084 c -0.195,0.195 -0.451,0.293 -0.707,0.293 -0.256,0 -0.512,-0.098 -0.707,-0.293 l -10.76,-10.76 c 0,0.003 0.001,0.006 0.002,0.009 l -4.15,-4.152 c 0.001,-0.001 0.002,-0.002 0.003,-0.003 l -7.077,-7.076 c -0.391,-0.391 -0.391,-1.023 0,-1.414 0.391,-0.391 1.023,-0.391 1.414,0 l 3.153,3.153 c 1.169,-2.626 4.032,-4.467 7.24,-4.467 3.945,0 8.203,3.291 8.203,8.607 0,4.062 -1.505,6.413 -3.07,8.233 l 6.456,6.456 c 0.39,0.391 0.39,1.023 0,1.414 z m -7.873,-9.286 c 1.367,-1.609 2.487,-3.482 2.487,-6.817 0,-4.081 -3.22,-6.607 -6.203,-6.607 -3.092,0 -5.167,2.039 -5.663,4.044 l 2.134,2.134 c 1.154,-3.367 2.038,-4.178 4.154,-4.178 1.953,0 3.585,1.418 3.585,4.133 0,0.422 -0.038,0.867 -0.397,0.867 -0.917,0 0.328,-3 -2.688,-3 -1.92,0 -2.854,1.602 -2.546,4.286 z m -9.513,1.691 c 0,0.309 0,1.893 2,1.893 1.18,0 2.35,-1.048 2.914,-2.521 l -2.963,-2.963 c 0.019,0.08 0.049,0.152 0.049,0.248 0,1.83 -2,1.329 -2,3.343 z"
     id="path2"
     inkscape:connector-curvature="0"
     style="fill-opacity:1;fill:url(#radialGradient825)" /></svg>