<?xml version="1.0" encoding="UTF-8" standalone="no"?>
<!-- Generator: Adobe Illustrator 16.0.0, SVG Export Plug-In . SVG Version: 6.00 Build 0)  -->

<svg
   xmlns:dc="http://purl.org/dc/elements/1.1/"
   xmlns:cc="http://creativecommons.org/ns#"
   xmlns:rdf="http://www.w3.org/1999/02/22-rdf-syntax-ns#"
   xmlns:svg="http://www.w3.org/2000/svg"
   xmlns="http://www.w3.org/2000/svg"
   xmlns:xlink="http://www.w3.org/1999/xlink"
   xmlns:sodipodi="http://sodipodi.sourceforge.net/DTD/sodipodi-0.dtd"
   xmlns:inkscape="http://www.inkscape.org/namespaces/inkscape"
   version="1.1"
   x="0px"
   y="0px"
   width="31.236px"
   height="28.311px"
   viewBox="0 0 31.236 28.311"
   style="enable-background:new 0 0 31.236 28.311;"
   xml:space="preserve"
   id="svg12"
   sodipodi:docname="volume.svg"
   inkscape:version="0.92.2 5c3e80d, 2017-08-06"><metadata
     id="metadata18"><rdf:RDF><cc:Work
         rdf:about=""><dc:format>image/svg+xml</dc:format><dc:type
           rdf:resource="http://purl.org/dc/dcmitype/StillImage" /></cc:Work></rdf:RDF></metadata><defs
     id="defs16"><linearGradient
       inkscape:collect="always"
       id="linearGradient832"><stop
         style="stop-color:#ca91be;stop-opacity:1"
         offset="0"
         id="stop828" /><stop
         style="stop-color:#ba3e91;stop-opacity:1"
         offset="1"
         id="stop830" /></linearGradient><radialGradient
       inkscape:collect="always"
       xlink:href="#linearGradient832"
       id="radialGradient834"
       cx="15.6185"
       cy="14.154"
       fx="15.6185"
       fy="14.154"
       r="15.6185"
       gradientTransform="matrix(-3.1168846,-0.00768075,0.00223333,-0.90629426,64.267951,27.101651)"
       gradientUnits="userSpaceOnUse" /></defs><sodipodi:namedview
     pagecolor="#ffffff"
     bordercolor="#666666"
     borderopacity="1"
     objecttolerance="10"
     gridtolerance="10"
     guidetolerance="10"
     inkscape:pageopacity="0"
     inkscape:pageshadow="2"
     inkscape:window-width="1327"
     inkscape:window-height="801"
     id="namedview14"
     showgrid="false"
     inkscape:zoom="8.3359822"
     inkscape:cx="-6.275041"
     inkscape:cy="14.1555"
     inkscape:window-x="571"
     inkscape:window-y="192"
     inkscape:window-maximized="0"
     inkscape:current-layer="svg12" /><g
     id="c75_volume"
     style="fill-opacity:1;fill:url(#radialGradient834)"><path
       style="fill:url(#radialGradient834);fill-opacity:1"
       d="M4.363,9.297H0v9.715h4.363l8.244,6.114c0,0,1.512,1.268,1.512-0.041c0-1.312,0-20.858,0-22.051   c0-1.028-1.33-0.024-1.33-0.024L4.363,9.297z"
       id="path2" /><path
       style="fill:url(#radialGradient834);fill-opacity:1"
       d="M18.816,7.4c-0.436-0.434-1.137-0.434-1.568,0c-0.436,0.434-0.436,1.138,0,1.568   c1.426,1.431,2.133,3.286,2.135,5.157c-0.002,1.875-0.709,3.742-2.135,5.166c-0.436,0.434-0.436,1.136,0,1.573   c0.215,0.218,0.498,0.324,0.785,0.324c0.281,0,0.566-0.106,0.783-0.324c1.855-1.859,2.787-4.306,2.785-6.739   C21.604,11.691,20.672,9.257,18.816,7.4z"
       id="path4" /><path
       style="fill:url(#radialGradient834);fill-opacity:1"
       d="M21.824,3.906c-0.438-0.436-1.139-0.436-1.572,0c-0.43,0.435-0.43,1.137,0,1.572   c2.398,2.396,3.592,5.52,3.596,8.657c-0.004,3.154-1.193,6.292-3.596,8.702c-0.432,0.434-0.43,1.133,0,1.57   c0.219,0.212,0.502,0.322,0.787,0.322c0.283,0,0.568-0.11,0.785-0.322c2.832-2.84,4.242-6.562,4.242-10.272   C26.066,10.437,24.645,6.73,21.824,3.906z"
       id="path6" /><path
       style="fill:url(#radialGradient834);fill-opacity:1"
       d="M25.508,0.326c-0.432-0.436-1.135-0.436-1.57,0c-0.43,0.434-0.43,1.138,0,1.568   c3.387,3.387,5.078,7.809,5.078,12.245c0,4.449-1.686,8.884-5.078,12.278c-0.434,0.433-0.43,1.139,0,1.57   c0.219,0.215,0.504,0.322,0.789,0.322c0.281,0,0.564-0.107,0.781-0.322c3.822-3.825,5.73-8.845,5.729-13.849   C31.238,9.143,29.32,4.137,25.508,0.326z"
       id="path8" /></g><g
     id="Capa_1" /></svg>