<?xml version="1.0" encoding="UTF-8" standalone="no"?>
<svg
   xmlns:dc="http://purl.org/dc/elements/1.1/"
   xmlns:cc="http://creativecommons.org/ns#"
   xmlns:rdf="http://www.w3.org/1999/02/22-rdf-syntax-ns#"
   xmlns:svg="http://www.w3.org/2000/svg"
   xmlns="http://www.w3.org/2000/svg"
   xmlns:sodipodi="http://sodipodi.sourceforge.net/DTD/sodipodi-0.dtd"
   xmlns:inkscape="http://www.inkscape.org/namespaces/inkscape"
   id="svg8"
   version="1.1"
   viewBox="0 0 205.66004 207.89409"
   height="207.89409mm"
   width="205.66005mm"
   sodipodi:docname="aac-audio.svg"
   inkscape:version="0.92.2 5c3e80d, 2017-08-06">
  <sodipodi:namedview
     pagecolor="#ffffff"
     bordercolor="#666666"
     borderopacity="1"
     objecttolerance="10"
     gridtolerance="10"
     guidetolerance="10"
     inkscape:pageopacity="0"
     inkscape:pageshadow="2"
     inkscape:window-width="1785"
     inkscape:window-height="1163"
     id="namedview15"
     showgrid="false"
     inkscape:zoom="0.30035326"
     inkscape:cx="388.64891"
     inkscape:cy="392.87072"
     inkscape:window-x="628"
     inkscape:window-y="123"
     inkscape:window-maximized="0"
     inkscape:current-layer="svg8" />
  <defs
     id="defs2">
    <marker
       style="overflow:visible"
       id="marker8033"
       refX="0.0"
       refY="0.0"
       orient="auto">
      <path
         transform="scale(1.1) translate(1,0)"
         d="M 8.7185878,4.0337352 L -2.2072895,0.016013256 L 8.7185884,-4.0017078 C 6.9730900,-1.6296469 6.9831476,1.6157441 8.7185878,4.0337352 z "
         style="fill-rule:evenodd;stroke-width:0.625;stroke-linejoin:round;stroke:#ffffff;stroke-opacity:1;fill:#ffffff;fill-opacity:1"
         id="path8031" />
    </marker>
    <marker
       style="overflow:visible"
       id="marker7647"
       refX="0.0"
       refY="0.0"
       orient="auto">
      <path
         transform="scale(1.1) translate(1,0)"
         d="M 8.7185878,4.0337352 L -2.2072895,0.016013256 L 8.7185884,-4.0017078 C 6.9730900,-1.6296469 6.9831476,1.6157441 8.7185878,4.0337352 z "
         style="fill-rule:evenodd;stroke-width:0.625;stroke-linejoin:round;stroke:#ffffff;stroke-opacity:1;fill:#ffffff;fill-opacity:1"
         id="path7645" />
    </marker>
  </defs>
  <metadata
     id="metadata5">
    <rdf:RDF>
      <cc:Work
         rdf:about="">
        <dc:format>image/svg+xml</dc:format>
        <dc:type
           rdf:resource="http://purl.org/dc/dcmitype/StillImage" />
        <dc:title />
      </cc:Work>
    </rdf:RDF>
  </metadata>
  <g
     id="g864"
     transform="matrix(1.5617478,0,0,1.5617478,-57.764552,-58.628912)">
    <path
       id="path9040"
       d="m 141.30653,160.14384 c -10.45875,-10.13333 0.43121,-28.49615 12.58386,-21.2191 6.39661,3.83032 4.32966,9.9574 -2.50222,7.41733 -4.12813,-1.53482 -6.35893,0.10552 -6.35893,4.67574 0,4.57027 2.2308,6.21058 6.35893,4.67575 3.49742,-1.30032 6.35894,-0.77167 6.35894,1.17481 0,5.91647 -11.37561,8.18284 -16.44058,3.27547 z M 86.560711,148.27956 c 2.302942,-6.40068 5.721611,-11.63759 7.597035,-11.63759 1.875438,0 5.294108,5.23691 7.597044,11.63759 3.94354,10.96047 3.5015,11.6376 -7.597044,11.6376 -11.098549,0 -11.540576,-0.67713 -7.597035,-11.6376 z m 24.554209,10.78591 c 0,-0.74349 2.05019,-6.55502 4.55597,-12.9145 4.39426,-11.15225 4.77048,-11.27967 10.59824,-3.58973 8.77464,11.57849 7.45061,16.59228 -4.55898,17.26369 -5.82738,0.32579 -10.59523,-0.016 -10.59523,-0.75946 z M 65.823005,119.18557 C 48.588183,101.54341 43.286256,90.843209 43.286256,73.702529 c 0,-22.605297 11.352684,-32.457986 40.056887,-34.764299 28.897017,-2.32181 67.179357,5.034511 75.136187,14.438129 4.98783,5.89477 4.42333,6.31745 -4.97151,3.72257 -66.736628,-18.432838 -92.078474,-11.157999 -87.846701,25.218 1.618445,13.91197 5.864516,21.847731 18.282329,34.169051 15.823676,15.7007 15.943926,16.0486 5.547325,16.0486 -6.488169,0 -15.70585,-5.19893 -23.667768,-13.34901 z m 35.803125,5.24594 C 95.778434,119.97484 87.725162,109.65432 83.729958,101.49703 68.775783,70.963989 93.416094,50.560419 135.83182,58.353759 c 27.09809,4.97893 34.2846,14.0988 8.19189,10.39575 -25.83005,-3.66579 -38.84253,-0.34341 -44.325896,11.31741 -5.49666,11.68907 -0.44776,25.953501 14.572956,41.172341 13.45002,13.62741 4.13365,15.97942 -12.64464,3.19225 z m 22.64582,-6.4157 C 101.18633,92.540849 108.95981,73.536029 141.53646,75.807009 l 18.33029,1.27785 1.25353,27.724861 1.25351,27.72486 h -12.47241 c -8.96994,0 -16.16713,-4.07712 -25.62943,-14.51877 z"
       style="fill:#ffffff;stroke-width:4.17281771"
       inkscape:connector-curvature="0" />
    <rect
       y="132.53459"
       x="61.832146"
       height="30.616072"
       width="100.54166"
       id="rect9042"
       style="opacity:1;fill:#ffffff;fill-opacity:1;stroke:#ffffff;stroke-width:0;stroke-linecap:round;stroke-linejoin:miter;stroke-miterlimit:4;stroke-dasharray:none;stroke-opacity:1" />
    <g
       id="text9050"
       style="font-style:normal;font-weight:normal;font-size:34.05105972px;line-height:125%;font-family:Sans;letter-spacing:0px;word-spacing:0px;fill:#ffffff;fill-opacity:1;stroke:none;stroke-width:0.85127652px;stroke-linecap:butt;stroke-linejoin:miter;stroke-opacity:1"
       aria-label="AAC">
      <path
         id="path851"
         style="stroke-width:0.85127652px;fill:#ffffff;fill-opacity:1"
         d="m 79.910404,148.23436 -4.555659,12.35348 h 9.127945 z m -1.89542,-3.30868 h 3.807467 l 9.460475,24.82336 h -3.491564 l -2.261203,-6.36795 h -11.18963 l -2.261204,6.36795 h -3.541443 z"
         inkscape:connector-curvature="0" />
      <path
         id="path853"
         style="stroke-width:0.85127652px;fill:#ffffff;fill-opacity:1"
         d="m 104.11858,148.23436 -4.55566,12.35348 h 9.12795 z m -1.89542,-3.30868 h 3.80747 l 9.46047,24.82336 h -3.49156 l -2.26121,-6.36795 H 98.548704 l -2.261203,6.36795 h -3.541443 z"
         inkscape:connector-curvature="0" />
      <path
         id="path855"
         style="stroke-width:0.85127652px;fill:#ffffff;fill-opacity:1"
         d="m 137.12217,146.83773 v 3.54144 q -1.6959,-1.57951 -3.62457,-2.36096 -1.91205,-0.78144 -4.0735,-0.78144 -4.25638,0 -6.51758,2.61036 -2.2612,2.59373 -2.2612,7.51517 0,4.90482 2.2612,7.51518 2.2612,2.59373 6.51758,2.59373 2.16145,0 4.0735,-0.78145 1.92867,-0.78144 3.62457,-2.36096 v 3.50819 q -1.76241,1.19711 -3.74096,1.79566 -1.96193,0.59856 -4.15662,0.59856 -5.63638,0 -8.87855,-3.44169 -3.24217,-3.45831 -3.24217,-9.42722 0,-5.98554 3.24217,-9.42722 3.24217,-3.45831 8.87855,-3.45831 2.22795,0 4.18987,0.59855 1.97856,0.58193 3.70771,1.76241 z"
         inkscape:connector-curvature="0" />
    </g>
  </g>
<style id="stylebodge1" type="text/css">[id^="polygon"]{fill:#ffffff;fill-opacity:1}</style><style id="stylebodge2" type="text/css">[id^="path"]{fill:#ffffff;fill-opacity:1}</style></svg>
