<?xml version="1.0" encoding="UTF-8" standalone="no"?>
<!-- Generator: Adobe Illustrator 18.0.0, SVG Export Plug-In . SVG Version: 6.00 Build 0)  -->

<svg
   xmlns:dc="http://purl.org/dc/elements/1.1/"
   xmlns:cc="http://creativecommons.org/ns#"
   xmlns:rdf="http://www.w3.org/1999/02/22-rdf-syntax-ns#"
   xmlns:svg="http://www.w3.org/2000/svg"
   xmlns="http://www.w3.org/2000/svg"
   xmlns:sodipodi="http://sodipodi.sourceforge.net/DTD/sodipodi-0.dtd"
   xmlns:inkscape="http://www.inkscape.org/namespaces/inkscape"
   id="Capa_1"
   style="enable-background:new 0 0 50.864 53.771;"
   xml:space="preserve"
   viewBox="0 0 50.864 53.771"
   height="100%"
   width="100%"
   version="1.1"
   y="0px"
   x="0px"
   inkscape:version="0.48.5 r10040"
   sodipodi:docname="alarmclock_false.svg"><defs
     id="defs7"><filter
       inkscape:label="Invert"
       x="0"
       y="0"
       width="1"
       height="1"
       inkscape:menu="Color"
       inkscape:menu-tooltip="Invert colors"
       color-interpolation-filters="sRGB"
       id="filter2990"><feColorMatrix
         type="saturate"
         values="1"
         result="fbSourceGraphic"
         id="feColorMatrix2992" /><feColorMatrix
         in="fbSourceGraphic"
         values="-1 0 0 0 1 0 -1 0 0 1 0 0 -1 0 1 0 0 0 1 0 "
         id="feColorMatrix2994" /></filter></defs><sodipodi:namedview
     pagecolor="#ffffff"
     bordercolor="#666666"
     borderopacity="1"
     objecttolerance="10"
     gridtolerance="10"
     guidetolerance="10"
     inkscape:pageopacity="0"
     inkscape:pageshadow="2"
     inkscape:window-width="640"
     inkscape:window-height="480"
     id="namedview5"
     showgrid="false"
     inkscape:zoom="4.3889829"
     inkscape:cx="25.432"
     inkscape:cy="26.8855"
     inkscape:window-x="736"
     inkscape:window-y="365"
     inkscape:window-maximized="0"
     inkscape:current-layer="Capa_1" /><metadata
     id="metadata39"><rdf:RDF><cc:Work
         rdf:about=""><dc:format>image/svg+xml</dc:format><dc:type
           rdf:resource="http://purl.org/dc/dcmitype/StillImage" /><dc:title /></cc:Work></rdf:RDF></metadata><path
     id="path3"
     d="M16.611,3.498c-1.826-1.584-4.116-2.444-6.554-2.444-2.156,0-4.222,0.685-5.974,1.981-2.593,1.922-4.081,4.866-4.083,8.074,0.002,1.588,0.371,3.139,1.081,4.537l8.047-6.295,7.483-5.853zm30.171-0.466c-1.749-1.294-3.815-1.978-5.973-1.978-2.437,0-4.729,0.86-6.555,2.444l7.484,5.855,8.046,6.293c0.709-1.402,1.079-2.951,1.079-4.537,0.001-3.209-1.488-6.152-4.081-8.077zm-18.702,3.109v-0.841h0.113c1.176-0.001,2.131-0.96,2.131-2.136v-1.029c-0.001-1.178-0.958-2.135-2.131-2.135h-5.52c-1.172,0-2.13,0.957-2.132,2.135v1.029c0,1.178,0.957,2.135,2.132,2.135h0.112v0.842c-11.818,1.324-20.954,11.459-20.954,23.445,0,5.423,1.872,10.674,5.286,14.874-1.906,2.274-2.991,4.556-3.002,6.335,0,0.884,0.282,1.631,0.815,2.164,0.531,0.531,1.275,0.81,2.167,0.81,1.932-0.01,4.488-1.316,6.932-3.523,3.481,1.923,7.408,2.938,11.404,2.938,3.994,0,7.922-1.015,11.402-2.938,2.445,2.206,5.001,3.513,6.934,3.525h0.012c0.871,0,1.618-0.279,2.156-0.815,0.532-0.534,0.812-1.281,0.811-2.166-0.008-1.775-1.094-4.053-2.998-6.331,3.412-4.198,5.281-9.45,5.285-14.874-0.005-11.985-9.138-22.12-20.955-23.444zm13.266,37.555c-0.166,0.186-0.336,0.369-0.509,0.551l-0.071,0.075c-0.175,0.18-0.352,0.359-0.556,0.557-0.533,0.516-1.108,1.016-1.712,1.488l-0.053,0.039-0.08,0.064c-0.164,0.125-0.335,0.25-0.502,0.371l-0.232,0.166c-0.164,0.115-0.33,0.229-0.496,0.339l-0.172,0.11-0.059,0.039c-0.168,0.106-0.334,0.213-0.506,0.315l-0.062,0.04c-3.287,1.967-7.057,3.005-10.904,3.005-3.84,0-7.603-1.035-10.885-2.995l-0.083-0.05c-0.174-0.105-0.346-0.214-0.524-0.329l-0.078-0.049-0.132-0.084c-0.17-0.113-0.336-0.229-0.5-0.342-0.071-0.051-0.142-0.101-0.224-0.16-0.171-0.125-0.342-0.25-0.519-0.387l-0.066-0.053-0.041-0.029c-0.826-0.646-1.603-1.348-2.316-2.092-0.184-0.193-0.367-0.39-0.546-0.594l-0.038-0.041c-3.431-3.887-5.322-8.883-5.322-14.064,0-5.683,2.214-11.025,6.23-15.043,3.657-3.654,8.507-5.85,13.663-6.18,0.17-0.014,0.341-0.023,0.512-0.029,0.289-0.01,0.576-0.021,0.869-0.021,0.291,0,0.583,0.011,0.871,0.021,0.17,0.007,0.337,0.016,0.512,0.029,5.153,0.328,10.005,2.525,13.66,6.18,4.018,4.017,6.23,9.36,6.23,15.043,0,5.204-1.906,10.219-5.359,14.11zm-3.6-26.425c-3.287-3.291-7.661-5.101-12.313-5.101-4.655,0-9.028,1.81-12.317,5.101-3.29,3.29-5.101,7.664-5.101,12.313,0,4.652,1.811,9.025,5.101,12.318,3.29,3.287,7.665,5.098,12.317,5.098,4.651,0,9.024-1.811,12.313-5.1,3.29-3.29,5.101-7.664,5.101-12.316s-1.81-9.025-5.101-12.313zm-2.425,24.06l-0.209,0.659-0.69-0.011c-0.598-0.01-1.044-0.517-1.21-0.735l-6.19-8.198c-0.496,0.228-1.038,0.349-1.589,0.35-1.211,0-2.331-0.573-3.041-1.516l-3.988,1.364c-0.092,0.037-0.226,0.061-0.368,0.061-0.485,0-0.92-0.307-1.083-0.766l-0.025-0.078c-0.094-0.271-0.077-0.586,0.061-0.864,0.133-0.275,0.368-0.483,0.656-0.58l3.977-1.359v-0.071c0-1.947,1.463-3.553,3.348-3.784l1.322-9.501c0.077-0.561,0.563-0.984,1.135-0.984h0.053l0.055,0.006,0.098,0.012c0.316,0.047,0.577,0.199,0.76,0.436,0.199,0.273,0.274,0.574,0.227,0.875l-1.341,9.609c1.166,0.651,1.96,1.898,1.963,3.328-0.001,0.726-0.202,1.42-0.579,2.02l6.294,8.326c0.358,0.472,0.495,0.998,0.364,1.401zm-9.888-13.231c-0.818,0.004-1.483,0.669-1.485,1.487,0.001,0.815,0.667,1.479,1.485,1.482,0.817,0,1.483-0.664,1.483-1.483,0.001-0.819-0.666-1.483-1.483-1.486z"
     style="filter:url(#filter2990)" /></svg>