<?xml version="1.0" encoding="UTF-8" standalone="no"?>
<!-- Generator: Adobe Illustrator 17.1.0, SVG Export Plug-In . SVG Version: 6.00 Build 0)  -->

<svg
   xmlns:dc="http://purl.org/dc/elements/1.1/"
   xmlns:cc="http://creativecommons.org/ns#"
   xmlns:rdf="http://www.w3.org/1999/02/22-rdf-syntax-ns#"
   xmlns:svg="http://www.w3.org/2000/svg"
   xmlns="http://www.w3.org/2000/svg"
   xmlns:sodipodi="http://sodipodi.sourceforge.net/DTD/sodipodi-0.dtd"
   xmlns:inkscape="http://www.inkscape.org/namespaces/inkscape"
   id="Capa_1"
   style="enable-background:new 0 0 200 200;"
   xml:space="preserve"
   viewBox="0 0 200 200"
   height="100%"
   width="100%"
   version="1.1"
   y="0px"
   x="0px"
   inkscape:version="0.48.5 r10040"
   sodipodi:docname="arrow-right-double.svg"><defs
     id="defs9"><filter
       inkscape:label="Invert"
       x="0"
       y="0"
       width="1"
       height="1"
       inkscape:menu="Color"
       inkscape:menu-tooltip="Invert colors"
       color-interpolation-filters="sRGB"
       id="filter2986"><feColorMatrix
         type="saturate"
         values="1"
         result="fbSourceGraphic"
         id="feColorMatrix2988" /><feColorMatrix
         in="fbSourceGraphic"
         values="-1 0 0 0 1 0 -1 0 0 1 0 0 -1 0 1 0 0 0 1 0 "
         id="feColorMatrix2990" /></filter></defs><sodipodi:namedview
     pagecolor="#ffffff"
     bordercolor="#666666"
     borderopacity="1"
     objecttolerance="10"
     gridtolerance="10"
     guidetolerance="10"
     inkscape:pageopacity="0"
     inkscape:pageshadow="2"
     inkscape:window-width="640"
     inkscape:window-height="480"
     id="namedview7"
     showgrid="false"
     inkscape:zoom="1.18"
     inkscape:cx="100"
     inkscape:cy="100"
     inkscape:window-x="0"
     inkscape:window-y="0"
     inkscape:window-maximized="0"
     inkscape:current-layer="Capa_1" /><metadata
     id="metadata13"><rdf:RDF><cc:Work
         rdf:about=""><dc:format>image/svg+xml</dc:format><dc:type
           rdf:resource="http://purl.org/dc/dcmitype/StillImage" /><dc:title /></cc:Work></rdf:RDF></metadata><g
     id="g3"
     fill="#010101"
     transform="matrix(-1,0,0,1,202.93993,0)"
     style="filter:url(#filter2986)"><path
       id="path5"
       d="m16.9,103.13,86.199,70.743c2.154,1.728,3.135,1.025,2.192-1.571l-22.582-67.6c-0.944-2.595-0.935-6.8,0.02-9.391l22.542-66.619c0.955-2.591-0.027-3.302-2.192-1.588l-86.16,69.794c-2.165,1.714-2.174,4.505-0.02,6.232z" /><path
       id="path7"
       d="m98.9,103.13,86.199,70.743c2.154,1.728,3.135,1.025,2.192-1.571l-22.583-67.602c-0.944-2.595-0.935-6.8,0.02-9.391l22.54-66.619c0.955-2.591-0.027-3.302-2.192-1.588l-86.16,69.794c-2.165,1.714-2.174,4.505-0.02,6.232z" /></g></svg>