<?xml version="1.0" encoding="UTF-8" standalone="no"?>
<svg id="svg2" xmlns:rdf="http://www.w3.org/1999/02/22-rdf-syntax-ns#" xmlns="http://www.w3.org/2000/svg" height="300" width="300" version="1.0" xmlns:cc="http://creativecommons.org/ns#" xmlns:dc="http://purl.org/dc/elements/1.1/">
 <metadata id="metadata22">
  <rdf:RDF>
   <cc:Work rdf:about="">
    <dc:format>image/svg+xml</dc:format>
    <dc:type rdf:resource="http://purl.org/dc/dcmitype/StillImage"/>
    <dc:title/>
   </cc:Work>
  </rdf:RDF>
 </metadata>
 <g id="g6" fill="#FFF" transform="translate(-27.1382,-834.81349)">
  <g id="g8" transform="matrix(0.82302261,0,0,-0.82302261,189.63913,997.27701)">
   <path id="path10" d="m0,0c0-11.25-14-10.583-14-10.583h-14v20.333h14c14.417,0.083,14-9.75,14-9.75m-28,40.75,10.667,0c11.083-0.584,10.666-8.833,10.666-8.833,0-10.25-12.25-10.417-12.25-10.417h-9.083v19.25zm25.417-23.25s9.583,4.083,9.5,14.917c0,0,1.457,17.749-22.063,19.916h-26.104v-74.416h29.917s25-0.084,25,21c0,0,0.583,14.333-16.25,18.583m-67.545,49.416,109.88,0,0-103.54-109.88,0,0,103.54z" fill-rule="nonzero" fill="#FFF"/>
  </g>
  <g id="g12" transform="matrix(0.82302261,0,0,-0.82302261,85.355129,997.27701)">
   <path id="path14" d="m0,0c0-11.25-14-10.583-14-10.583h-14v20.333h14c14.417,0.083,14-9.75,14-9.75m-28,40.75,10.667,0c11.083-0.584,10.666-8.833,10.666-8.833,0-10.25-12.25-10.417-12.25-10.417h-9.083v19.25zm25.417-23.25s9.583,4.083,9.5,14.917c0,0,1.457,17.749-22.063,19.916h-26.104v-74.416h29.917s25-0.084,25,21c0,0,0.583,14.333-16.25,18.583m-67.545,49.416,109.88,0,0-103.54-109.88,0,0,103.54z" fill-rule="nonzero" fill="#FFF"/>
  </g>
  <g id="g16" transform="matrix(0.82302261,0,0,-0.82302261,308.1885,958.5961)">
   <path id="path18" d="m0,0,0-13.75s-13.417,8.25-28.25,8.417c0,0-27.666,0.54-28.916-26.522,0,0-1-24.895,28.583-26.312,0,0,12.417-1.5,29.25,9.25v-14.25s-22.583-13.416-48.75-3.083c0,0-22,8.04-22.834,34.395,0,0-0.917,27.105,28.417,36.105,0,0,7.834,3,21.917,1.667,0,0,8.416-0.834,20.583-5.917m-87.461-83.627,109.88,0,0,103.54-109.88,0,0-103.54z" fill-rule="nonzero" fill="#FFF"/>
  </g>
 </g>
</svg>
