<?xml version="1.0" encoding="UTF-8" standalone="no"?>
<!-- Generator: Adobe Illustrator 16.0.4, SVG Export Plug-In . SVG Version: 6.00 Build 0)  -->

<svg
   xmlns:dc="http://purl.org/dc/elements/1.1/"
   xmlns:cc="http://creativecommons.org/ns#"
   xmlns:rdf="http://www.w3.org/1999/02/22-rdf-syntax-ns#"
   xmlns:svg="http://www.w3.org/2000/svg"
   xmlns="http://www.w3.org/2000/svg"
   xmlns:sodipodi="http://sodipodi.sourceforge.net/DTD/sodipodi-0.dtd"
   xmlns:inkscape="http://www.inkscape.org/namespaces/inkscape"
   id="Layer_1"
   enable-background="new 0 0 50 50"
   xml:space="preserve"
   height="25.033"
   viewBox="0 0 22.594 25.033001"
   width="22.594"
   version="1.1"
   y="0px"
   x="0px"
   inkscape:version="0.48.5 r10040"
   sodipodi:docname="broadcast-new.svg"><defs
     id="defs7"><filter
       inkscape:label="Invert"
       x="0"
       y="0"
       width="1"
       height="1"
       inkscape:menu="Color"
       inkscape:menu-tooltip="Invert colors"
       color-interpolation-filters="sRGB"
       id="filter2984"><feColorMatrix
         type="saturate"
         values="1"
         result="fbSourceGraphic"
         id="feColorMatrix2986" /><feColorMatrix
         in="fbSourceGraphic"
         values="-1 0 0 0 1 0 -1 0 0 1 0 0 -1 0 1 0 0 0 1 0 "
         id="feColorMatrix2988" /></filter></defs><sodipodi:namedview
     pagecolor="#ffffff"
     bordercolor="#666666"
     borderopacity="1"
     objecttolerance="10"
     gridtolerance="10"
     guidetolerance="10"
     inkscape:pageopacity="0"
     inkscape:pageshadow="2"
     inkscape:window-width="640"
     inkscape:window-height="480"
     id="namedview5"
     showgrid="false"
     inkscape:zoom="9.4275553"
     inkscape:cx="11.297"
     inkscape:cy="12.5165"
     inkscape:window-x="0"
     inkscape:window-y="0"
     inkscape:window-maximized="0"
     inkscape:current-layer="Layer_1" /><metadata
     id="metadata9"><rdf:RDF><cc:Work
         rdf:about=""><dc:format>image/svg+xml</dc:format><dc:type
           rdf:resource="http://purl.org/dc/dcmitype/StillImage" /><dc:title /></cc:Work></rdf:RDF></metadata><path
     id="path3"
     d="M1.992,17.7c-1.254-1.821-1.992-4.023-1.992-6.402,0-6.239,5.057-11.298,11.297-11.298s11.297,5.059,11.297,11.298c0,2.378-0.738,4.581-1.992,6.402,0.77-1.461,1.209-3.123,1.209-4.89,0-5.805-4.705-10.513-10.514-10.513s-10.514,4.708-10.514,10.513c0,1.767,0.441,3.429,1.209,4.89zm15.479-6.08c0-3.407-2.764-6.174-6.174-6.174s-6.174,2.767-6.174,6.174c0,1.021,0.27,1.967,0.707,2.814-0.153-0.519-0.262-1.057-0.262-1.625,0-3.162,2.562-5.728,5.729-5.728s5.729,2.565,5.729,5.728c0,0.568-0.106,1.106-0.262,1.625,0.437-0.849,0.707-1.794,0.707-2.814zm-6.174-1.875c-1.035,0-1.873,0.839-1.873,1.873,0,1.036,0.838,1.874,1.873,1.874s1.873-0.838,1.873-1.874c0-1.034-0.838-1.873-1.873-1.873zm-4.37,15.288,2.224-10.617h4.293l2.225,10.617h-1.217l-0.372-1.785h-5.562l-0.373,1.785h-1.218zm2.681-6.994h3.379l-0.51-2.436h-2.36l-0.509,2.436zm-0.842,4.018h5.062l-0.592-2.826h-3.879l-0.591,2.826z"
     style="filter:url(#filter2984)" /></svg>