<?xml version="1.0" encoding="UTF-8" standalone="no"?>
<!-- Generator: Adobe Illustrator 16.0.0, SVG Export Plug-In . SVG Version: 6.00 Build 0)  -->

<svg
   xmlns:dc="http://purl.org/dc/elements/1.1/"
   xmlns:cc="http://creativecommons.org/ns#"
   xmlns:rdf="http://www.w3.org/1999/02/22-rdf-syntax-ns#"
   xmlns:svg="http://www.w3.org/2000/svg"
   xmlns="http://www.w3.org/2000/svg"
   xmlns:sodipodi="http://sodipodi.sourceforge.net/DTD/sodipodi-0.dtd"
   xmlns:inkscape="http://www.inkscape.org/namespaces/inkscape"
   id="Layer_1"
   enable-background="new 0 0 100 100"
   xml:space="preserve"
   height="80"
   viewBox="0 0 80 80"
   width="80"
   version="1.1"
   y="0px"
   x="0px"
   inkscape:version="0.48.5 r10040"
   sodipodi:docname="cd_case.svg"><defs
     id="defs7"><filter
       inkscape:label="Invert"
       x="0"
       y="0"
       width="1"
       height="1"
       inkscape:menu="Color"
       inkscape:menu-tooltip="Invert colors"
       color-interpolation-filters="sRGB"
       id="filter2984"><feColorMatrix
         type="saturate"
         values="1"
         result="fbSourceGraphic"
         id="feColorMatrix2986" /><feColorMatrix
         in="fbSourceGraphic"
         values="-1 0 0 0 1 0 -1 0 0 1 0 0 -1 0 1 0 0 0 1 0 "
         id="feColorMatrix2988" /></filter></defs><sodipodi:namedview
     pagecolor="#ffffff"
     bordercolor="#666666"
     borderopacity="1"
     objecttolerance="10"
     gridtolerance="10"
     guidetolerance="10"
     inkscape:pageopacity="0"
     inkscape:pageshadow="2"
     inkscape:window-width="640"
     inkscape:window-height="480"
     id="namedview5"
     showgrid="false"
     inkscape:zoom="2.95"
     inkscape:cx="40"
     inkscape:cy="40"
     inkscape:window-x="0"
     inkscape:window-y="0"
     inkscape:window-maximized="0"
     inkscape:current-layer="Layer_1" /><metadata
     id="metadata9"><rdf:RDF><cc:Work
         rdf:about=""><dc:format>image/svg+xml</dc:format><dc:type
           rdf:resource="http://purl.org/dc/dcmitype/StillImage" /><dc:title /></cc:Work></rdf:RDF></metadata><path
     id="path3"
     fill="#020202"
     d="m52.672,40.097c0,2.479-2.015,4.494-4.493,4.494s-4.494-2.016-4.494-4.494,2.017-4.494,4.494-4.494c2.479,0,4.493,2.015,4.493,4.494zm-2.791-9.979,2.381-10.431s-3.968-1.248-6.463,0l1.701,10.432h2.381zm6.549,9.979c0,4.557-3.694,8.251-8.251,8.251s-8.251-3.694-8.251-8.251,3.694-8.251,8.251-8.251,8.251,3.694,8.251,8.251zm-1.96,0c0-3.47-2.821-6.291-6.291-6.291s-6.291,2.821-6.291,6.291,2.821,6.291,6.291,6.291,6.291-2.821,6.291-6.291zm25.044-35.667v71.333h-78.667v-71.333h78.667zm-65.501,3.333h-8.9995v64.667h9v-64.667zm61.832,32.334c0-15.255-12.411-27.666-27.666-27.666s-27.666,12.411-27.666,27.666,12.411,27.666,27.666,27.666,27.666-12.411,27.666-27.666zm-2.721,0c0,13.755-11.189,24.944-24.944,24.944s-24.945-11.189-24.945-24.944,11.189-24.944,24.944-24.944,24.945,11.189,24.945,24.944zm-2.721,0c0-12.274-9.949-22.224-22.224-22.224s-22.223,9.95-22.223,22.224,9.949,22.224,22.224,22.224,22.223-9.95,22.223-22.224z"
     style="filter:url(#filter2984)" /></svg>