<?xml version="1.0" encoding="UTF-8" standalone="no"?>
<!-- Generator: Adobe Illustrator 16.0.4, SVG Export Plug-In . SVG Version: 6.00 Build 0)  -->

<svg
   xmlns:dc="http://purl.org/dc/elements/1.1/"
   xmlns:cc="http://creativecommons.org/ns#"
   xmlns:rdf="http://www.w3.org/1999/02/22-rdf-syntax-ns#"
   xmlns:svg="http://www.w3.org/2000/svg"
   xmlns="http://www.w3.org/2000/svg"
   xmlns:sodipodi="http://sodipodi.sourceforge.net/DTD/sodipodi-0.dtd"
   xmlns:inkscape="http://www.inkscape.org/namespaces/inkscape"
   version="1.1"
   id="Capa_1"
   x="0px"
   y="0px"
   width="16px"
   height="16px"
   viewBox="0 0 16 16"
   enable-background="new 0 0 16 16"
   xml:space="preserve"
   inkscape:version="0.48.5 r10040"
   sodipodi:docname="dialog-error.svg"><metadata
     id="metadata9"><rdf:RDF><cc:Work
         rdf:about=""><dc:format>image/svg+xml</dc:format><dc:type
           rdf:resource="http://purl.org/dc/dcmitype/StillImage" /></cc:Work></rdf:RDF></metadata><defs
     id="defs7"><filter
       inkscape:label="Invert"
       x="0"
       y="0"
       width="1"
       height="1"
       inkscape:menu="Color"
       inkscape:menu-tooltip="Invert colors"
       color-interpolation-filters="sRGB"
       id="filter2986"><feColorMatrix
         type="saturate"
         values="1"
         result="fbSourceGraphic"
         id="feColorMatrix2988" /><feColorMatrix
         in="fbSourceGraphic"
         values="-1 0 0 0 1 0 -1 0 0 1 0 0 -1 0 1 0 0 0 1 0 "
         id="feColorMatrix2990" /></filter></defs><sodipodi:namedview
     pagecolor="#ffffff"
     bordercolor="#666666"
     borderopacity="1"
     objecttolerance="10"
     gridtolerance="10"
     guidetolerance="10"
     inkscape:pageopacity="0"
     inkscape:pageshadow="2"
     inkscape:window-width="640"
     inkscape:window-height="480"
     id="namedview5"
     showgrid="false"
     inkscape:zoom="14.75"
     inkscape:cx="8"
     inkscape:cy="8"
     inkscape:window-x="0"
     inkscape:window-y="0"
     inkscape:window-maximized="0"
     inkscape:current-layer="Capa_1" /><path
     d="M15.82,14.529l-6.938-13C8.709,1.204,8.37,1,8.001,1H8C7.631,1,7.293,1.203,7.119,1.528l-6.969,13  c-0.166,0.311-0.157,0.685,0.023,0.986C0.354,15.814,0.68,16,1.031,16h13.906c0.351,0,0.677-0.184,0.858-0.486  C15.976,15.213,15.985,14.839,15.82,14.529z M8,14c-0.552,0-1-0.448-1-1s0.448-1,1-1c0.551,0,1,0.448,1,1S8.551,14,8,14z M9,10.016  c0,0.553-0.449,1-1,1c-0.552,0-1-0.447-1-1v-4c0-0.552,0.448-1,1-1c0.551,0,1,0.448,1,1V10.016z"
     id="path3"
     style="filter:url(#filter2986)" /></svg>