<?xml version="1.0" encoding="UTF-8" standalone="no"?>
<!-- Generator: Adobe Illustrator 15.0.0, SVG Export Plug-In . SVG Version: 6.00 Build 0)  -->

<svg
   xmlns:dc="http://purl.org/dc/elements/1.1/"
   xmlns:cc="http://creativecommons.org/ns#"
   xmlns:rdf="http://www.w3.org/1999/02/22-rdf-syntax-ns#"
   xmlns:svg="http://www.w3.org/2000/svg"
   xmlns="http://www.w3.org/2000/svg"
   xmlns:sodipodi="http://sodipodi.sourceforge.net/DTD/sodipodi-0.dtd"
   xmlns:inkscape="http://www.inkscape.org/namespaces/inkscape"
   id="Layer_1"
   enable-background="new 0 0 26 26"
   xml:space="preserve"
   height="23.625"
   viewBox="0 0 23.625 23.625"
   width="23.625"
   version="1.1"
   y="0px"
   x="0px"
   inkscape:version="0.48.5 r10040"
   sodipodi:docname="dialog-information.svg"><defs
     id="defs8"><filter
       inkscape:label="Invert"
       x="0"
       y="0"
       width="1"
       height="1"
       inkscape:menu="Color"
       inkscape:menu-tooltip="Invert colors"
       color-interpolation-filters="sRGB"
       id="filter2985"><feColorMatrix
         type="saturate"
         values="1"
         result="fbSourceGraphic"
         id="feColorMatrix2987" /><feColorMatrix
         in="fbSourceGraphic"
         values="-1 0 0 0 1 0 -1 0 0 1 0 0 -1 0 1 0 0 0 1 0 "
         id="feColorMatrix2989" /></filter><filter
       inkscape:label="Invert"
       x="0"
       y="0"
       width="1"
       height="1"
       inkscape:menu="Color"
       inkscape:menu-tooltip="Invert colors"
       color-interpolation-filters="sRGB"
       id="filter2991"><feColorMatrix
         type="saturate"
         values="1"
         result="fbSourceGraphic"
         id="feColorMatrix2993" /><feColorMatrix
         in="fbSourceGraphic"
         values="-1 0 0 0 1 0 -1 0 0 1 0 0 -1 0 1 0 0 0 1 0 "
         id="feColorMatrix2995" /></filter></defs><sodipodi:namedview
     pagecolor="#ffffff"
     bordercolor="#666666"
     borderopacity="1"
     objecttolerance="10"
     gridtolerance="10"
     guidetolerance="10"
     inkscape:pageopacity="0"
     inkscape:pageshadow="2"
     inkscape:window-width="640"
     inkscape:window-height="480"
     id="namedview6"
     showgrid="false"
     inkscape:zoom="9.989418"
     inkscape:cx="11.8125"
     inkscape:cy="11.8125"
     inkscape:window-x="0"
     inkscape:window-y="0"
     inkscape:window-maximized="0"
     inkscape:current-layer="Layer_1" /><metadata
     id="metadata11"><rdf:RDF><cc:Work
         rdf:about=""><dc:format>image/svg+xml</dc:format><dc:type
           rdf:resource="http://purl.org/dc/dcmitype/StillImage" /><dc:title /></cc:Work></rdf:RDF></metadata><rect
     id="rect3"
     height="26"
     width="26"
     y="-1.188"
     x="-1.188"
     fill="none"
     style="filter:url(#filter2991)" /><path
     id="path5"
     fill="#000"
     d="M11.812,0c-6.523,0-11.812,5.289-11.812,11.812s5.289,11.813,11.812,11.813,11.813-5.29,11.813-11.813-5.29-11.812-11.813-11.812zm2.459,18.307c-0.608,0.24-1.092,0.422-1.455,0.548-0.362,0.126-0.783,0.189-1.262,0.189-0.736,0-1.309-0.18-1.717-0.539s-0.611-0.814-0.611-1.367c0-0.215,0.015-0.435,0.045-0.659,0.031-0.224,0.08-0.476,0.147-0.759l0.761-2.688c0.067-0.258,0.125-0.503,0.171-0.731,0.046-0.23,0.068-0.441,0.068-0.633,0-0.342-0.071-0.582-0.212-0.717-0.143-0.135-0.412-0.201-0.813-0.201-0.196,0-0.398,0.029-0.605,0.09-0.205,0.063-0.383,0.12-0.529,0.176l0.201-0.828c0.498-0.203,0.975-0.377,1.43-0.521,0.455-0.146,0.885-0.218,1.29-0.218,0.731,0,1.295,0.178,1.692,0.53,0.395,0.353,0.594,0.812,0.594,1.376,0,0.117-0.014,0.323-0.041,0.617-0.027,0.295-0.078,0.564-0.152,0.811l-0.757,2.68c-0.062,0.215-0.117,0.461-0.167,0.736-0.049,0.275-0.073,0.485-0.073,0.626,0,0.356,0.079,0.599,0.239,0.728,0.158,0.129,0.435,0.194,0.827,0.194,0.185,0,0.392-0.033,0.626-0.097,0.232-0.064,0.4-0.121,0.506-0.17l-0.203,0.827zm-0.134-10.878c-0.353,0.328-0.778,0.492-1.275,0.492-0.496,0-0.924-0.164-1.28-0.492-0.354-0.328-0.533-0.727-0.533-1.193,0-0.465,0.18-0.865,0.533-1.196,0.356-0.332,0.784-0.497,1.28-0.497,0.497,0,0.923,0.165,1.275,0.497,0.353,0.331,0.53,0.731,0.53,1.196,0,0.467-0.177,0.865-0.53,1.193z"
     style="filter:url(#filter2985)" /></svg>