<?xml version="1.0" encoding="UTF-8" standalone="no"?>
<!-- Generator: Adobe Illustrator 19.1.0, SVG Export Plug-In . SVG Version: 6.00 Build 0)  -->

<svg
   xmlns:dc="http://purl.org/dc/elements/1.1/"
   xmlns:cc="http://creativecommons.org/ns#"
   xmlns:rdf="http://www.w3.org/1999/02/22-rdf-syntax-ns#"
   xmlns:svg="http://www.w3.org/2000/svg"
   xmlns="http://www.w3.org/2000/svg"
   xmlns:sodipodi="http://sodipodi.sourceforge.net/DTD/sodipodi-0.dtd"
   xmlns:inkscape="http://www.inkscape.org/namespaces/inkscape"
   version="1.1"
   id="Layer_1"
   x="0px"
   y="0px"
   viewBox="0 0 1000 1000"
   enable-background="new 0 0 1000 1000"
   xml:space="preserve"
   sodipodi:docname="discogs-logo.svg"
   inkscape:version="0.92.2 5c3e80d, 2017-08-06"><metadata
     id="metadata39"><rdf:RDF><cc:Work
         rdf:about=""><dc:format>image/svg+xml</dc:format><dc:type
           rdf:resource="http://purl.org/dc/dcmitype/StillImage" /></cc:Work></rdf:RDF></metadata><defs
     id="defs37" /><sodipodi:namedview
     pagecolor="#ffffff"
     bordercolor="#666666"
     borderopacity="1"
     objecttolerance="10"
     gridtolerance="10"
     guidetolerance="10"
     inkscape:pageopacity="0"
     inkscape:pageshadow="2"
     inkscape:window-width="1544"
     inkscape:window-height="1038"
     id="namedview35"
     showgrid="false"
     inkscape:zoom="0.236"
     inkscape:cx="500"
     inkscape:cy="500"
     inkscape:window-x="531"
     inkscape:window-y="123"
     inkscape:window-maximized="0"
     inkscape:current-layer="Layer_1" /><path
     fill="#333333"
     d="M359.3,499.7c0-78.3,63.5-141.8,141.7-141.8l0,0c78.3,0,141.7,63.4,141.7,141.8l0,0  c0,78.3-63.5,141.7-141.7,141.7l0,0C422.8,641.4,359.3,578,359.3,499.7L359.3,499.7z M365.5,499.7c0.2,74.9,60.7,135.4,135.5,135.5  l0,0c74.8,0,135.6-60.7,135.6-135.5l0,0c-0.1-74.9-60.7-135.5-135.6-135.6l0,0C426.2,364.1,365.5,424.8,365.5,499.7L365.5,499.7z"
     id="path2"
     style="fill:#ffffff;fill-opacity:1" /><path
     fill="#333333"
     d="M523.5,499.7c0,12.3-10.1,22.3-22.4,22.3c-12.3,0-22.4-10-22.4-22.3c0-12.4,10-22.4,22.4-22.4  C513.4,477.3,523.5,487.3,523.5,499.7z"
     id="path4"
     style="fill:#ffffff;fill-opacity:1" /><path
     style="fill:none"
     inkscape:connector-curvature="0"
     id="path6"
     d="m 501.1,314.8 c -102.2,0 -184.9,82.8 -184.9,184.9 0,52.2 21.7,99.2 56.5,132.8 -0.2,-0.2 -0.4,-0.4 -0.6,-0.6 L 323.9,684 c 16.8,16.2 35.8,30.1 56.6,41.3 l 34.8,-62 v 0 c 25.7,13.5 54.9,21.2 85.9,21.2 102.1,0 184.9,-82.8 184.9,-184.9 0,-49.4 -19.5,-94.2 -51,-127.3 l 48.5,-52.2 c -16.5,-16.7 -35.2,-31.2 -55.7,-42.9 l -34.2,62.4 c -27.4,-15.7 -58.9,-24.8 -92.6,-24.8 z" /><path
     style="fill:none"
     inkscape:connector-curvature="0"
     id="path8"
     d="m 262.4,750.5 -49.2,53.2 c 26.2,24.8 55.4,46.3 87.3,63.7 L 336,804.2 c -26.8,-14.6 -51.5,-32.8 -73.6,-53.7 z" /><path
     style="fill:none"
     inkscape:connector-curvature="0"
     id="path10"
     d="m 745.1,253.8 49.3,-53.1 c -26.3,-25.8 -56,-48.2 -88.3,-66.4 l -34.8,63.6 c 27,15.4 51.8,34.2 73.8,55.9 z" /><path
     style="fill:none"
     inkscape:connector-curvature="0"
     id="path12"
     d="m 689.7,313.4 49.1,-52.8 C 717.4,239.3 693.2,221 666.8,206 l -34.6,63.2 c 21.1,12.1 40.5,27 57.5,44.2 z" /><path
     style="fill:none"
     inkscape:connector-curvature="0"
     id="path14"
     d="m 317.6,690.8 -48.9,52.9 c 21.5,20.5 45.6,38.2 71.9,52.5 l 35.3,-62.8 c -21.4,-11.5 -41,-25.9 -58.3,-42.6 z" /><path
     style="fill:#ffffff;fill-opacity:1"
     inkscape:connector-curvature="0"
     id="path16"
     d="m 245.1,499.7 c 0,72.4 30.2,137.8 78.7,184.4 L 372,632 c 0.2,0.2 0.4,0.4 0.6,0.6 -34.8,-33.6 -56.5,-80.7 -56.5,-132.8 0,-102.1 82.7,-184.9 184.9,-184.9 33.7,0 65.2,9.1 92.4,24.9 l 34.2,-62.4 C 590.2,256 547,243.8 501,243.8 360,243.6 245.1,358.5 245.1,499.7 Z" /><path
     style="fill:#ffffff;fill-opacity:1"
     inkscape:connector-curvature="0"
     id="path18"
     d="m 686,499.7 c 0,102.1 -82.8,184.9 -184.9,184.9 -31,0 -60.2,-7.7 -85.9,-21.2 v 0 l -34.8,62 c 36,19.3 77.1,30.3 120.7,30.3 141.2,0 256,-114.8 256,-256 0,-69.9 -28.2,-133.3 -73.7,-179.5 L 635,372.3 c 31.5,33.2 51,78 51,127.4 z" /><path
     style="fill:#ffffff;fill-opacity:1"
     inkscape:connector-curvature="0"
     id="path20"
     d="m 163.9,499.7 c 0,95.9 40.3,182.6 104.8,244.1 l 48.9,-52.9 c -50.3,-48.3 -81.7,-116.1 -81.7,-191.2 0,-146.3 119,-265.2 265.2,-265.2 47.6,0 92.3,12.7 131,34.8 l 34.6,-63.2 c -49,-27.7 -105.5,-43.7 -165.6,-43.7 -185.9,0 -337.2,151.3 -337.2,337.3 z" /><path
     style="fill:#ffffff;fill-opacity:1"
     inkscape:connector-curvature="0"
     id="path22"
     d="m 766.4,499.7 c 0,146.3 -119,265.2 -265.2,265.2 -45.3,0 -87.9,-11.4 -125.3,-31.5 l -35.3,62.8 c 47.8,26 102.5,40.7 160.6,40.7 186,0 337.3,-151.3 337.3,-337.3 0,-93.3 -38.1,-177.9 -99.6,-239.1 l -49.1,52.8 c 47.3,48 76.6,113.8 76.6,186.4 z" /><path
     style="fill:#ffffff;fill-opacity:1"
     inkscape:connector-curvature="0"
     id="path24"
     d="m 847.6,499.7 c 0,191.1 -155.4,346.5 -346.5,346.5 -59.7,0 -116,-15.2 -165.1,-41.9 l -35.5,63.2 c 59.6,32.6 128,51.2 200.6,51.2 231,0 419,-188 419,-419 0,-117 -48.2,-222.8 -125.7,-298.9 l -49.3,53.1 c 63.3,62.8 102.5,149.7 102.5,245.8 z" /><path
     style="fill:#ffffff;fill-opacity:1"
     inkscape:connector-curvature="0"
     id="path26"
     d="m 82.1,499.7 c 0,119.6 50.5,227.6 131.1,304 l 49.2,-53.2 C 196.1,687.3 154.6,598.3 154.6,499.7 154.6,308.6 310,153.2 501.1,153.2 c 61.8,0 119.8,16.3 170.1,44.8 L 706,134.4 C 645.4,100.2 575.5,80.7 501.1,80.7 c -231,-0.1 -419,187.9 -419,419 z" /><path
     style="fill:#ffffff;fill-opacity:1"
     inkscape:connector-curvature="0"
     id="path28"
     d="M 848.8,142.3 800.7,194 c 79.3,77.8 128.7,186 128.7,305.7 0,236.1 -192.1,428.2 -428.2,428.2 -74.3,0 -144.2,-19 -205.1,-52.4 l -35.6,63.4 c 71.2,39.1 152.9,61.4 239.8,61.5 276.1,0 500.1,-223.9 500.1,-500 -0.2,-140.5 -58.3,-267.3 -151.6,-358.1 z" /><path
     style="fill:#ffffff;fill-opacity:1"
     inkscape:connector-curvature="0"
     id="path30"
     d="M 72.9,499.7 C 72.9,263.5 265,71.4 501.1,71.4 c 76,0 147.4,20 209.4,54.9 l 33.9,-62 C 674.4,24.9 594,1.9 508.3,0.5 h -8.1 C 225.7,1 3.3,221.7 0.3,495.7 v 0 4.8 C 0.6,643.8 61,772.8 157.6,863.9 L 207,810.5 C 124.5,732.4 72.9,621.9 72.9,499.7 Z" /></svg>