<?xml version="1.0" encoding="UTF-8" standalone="no"?>
<!-- Generator: Adobe Illustrator 16.0.4, SVG Export Plug-In . SVG Version: 6.00 Build 0)  -->

<svg
   xmlns:dc="http://purl.org/dc/elements/1.1/"
   xmlns:cc="http://creativecommons.org/ns#"
   xmlns:rdf="http://www.w3.org/1999/02/22-rdf-syntax-ns#"
   xmlns:svg="http://www.w3.org/2000/svg"
   xmlns="http://www.w3.org/2000/svg"
   xmlns:sodipodi="http://sodipodi.sourceforge.net/DTD/sodipodi-0.dtd"
   xmlns:inkscape="http://www.inkscape.org/namespaces/inkscape"
   id="Layer_1"
   enable-background="new 0 0 78.335 112.176"
   xml:space="preserve"
   height="112.18"
   viewBox="0 0 112.18 112.18"
   width="112.18"
   version="1.1"
   y="0px"
   x="0px"
   inkscape:version="0.48.5 r10040"
   sodipodi:docname="edit-clear-list.svg"><defs
     id="defs7"><filter
       inkscape:label="Invert"
       x="0"
       y="0"
       width="1"
       height="1"
       inkscape:menu="Color"
       inkscape:menu-tooltip="Invert colors"
       color-interpolation-filters="sRGB"
       id="filter2984"><feColorMatrix
         type="saturate"
         values="0"
         id="feColorMatrix2986"
         result="fbSourceGraphic" /><feColorMatrix
         result="fbSourceGraphicAlpha"
         in="fbSourceGraphic"
         values="0 0 0 -1 0 0 0 0 -1 0 0 0 0 -1 0 0 0 0 1 0"
         id="feColorMatrix2988" /><feColorMatrix
         id="feColorMatrix2990"
         type="saturate"
         values="1"
         result="fbSourceGraphic"
         in="fbSourceGraphic" /><feColorMatrix
         id="feColorMatrix2992"
         in="fbSourceGraphic"
         values="-1 0 0 0 1 0 -1 0 0 1 0 0 -1 0 1 0 0 0 1 0 " /></filter></defs><sodipodi:namedview
     pagecolor="#ffffff"
     bordercolor="#666666"
     borderopacity="1"
     objecttolerance="10"
     gridtolerance="10"
     guidetolerance="10"
     inkscape:pageopacity="0"
     inkscape:pageshadow="2"
     inkscape:window-width="640"
     inkscape:window-height="480"
     id="namedview5"
     showgrid="false"
     inkscape:zoom="2.1037618"
     inkscape:cx="56.09"
     inkscape:cy="56.09"
     inkscape:window-x="0"
     inkscape:window-y="0"
     inkscape:window-maximized="0"
     inkscape:current-layer="Layer_1" /><metadata
     id="metadata9"><rdf:RDF><cc:Work
         rdf:about=""><dc:format>image/svg+xml</dc:format><dc:type
           rdf:resource="http://purl.org/dc/dcmitype/StillImage" /><dc:title /></cc:Work></rdf:RDF></metadata><path
     id="path3"
     d="m90.753,45.961-0.021,0.252c0,0.032,0.021,0.06,0.021,0.088,0,0.065-0.022,0.126-0.026,0.191l-2.685,54.878h-0.02c-0.231,4.304-5.166,10.81-31.748,10.81-26.58,0-31.509-6.506-31.746-10.81h-0.006l-2.679-54.878c-0.009-0.06-0.028-0.126-0.028-0.191,0-0.032,0.01-0.06,0.01-0.088l-0.01-0.252h0.028c0.099-0.466,0.364-0.919,0.784-1.353,3.439,3.477,17.191,4.051,33.646,4.051s30.221-0.574,33.642-4.051c0.426,0.434,0.711,0.887,0.784,1.353h0.054zm4.694-20.855v6.407c0,1.316-1.34,2.567-3.715,3.696-6.266,2.936-19.777,4.975-35.459,4.975-15.666,0-29.189-2.039-35.442-4.975-2.389-1.13-3.719-2.38-3.719-3.696v-6.407c0-3.374,8.681-6.286,21.359-7.724v-13.701c0-2.16,1.768-3.929,3.93-3.929h26.314c2.164,0,3.938,1.773,3.938,3.938v13.296c13.439,1.372,22.792,4.377,22.794,7.868zm-29.919-13.707c0-2.348-0.321-4.27-0.715-4.27h-4.979-8.545-4.989c-0.388,0-0.714,1.922-0.714,4.27v5.367l1.083-0.065c3.067-0.173,6.286-0.27,9.595-0.271,3.202,0,6.292,0.098,9.264,0.252v-5.283z"
     style="filter:url(#filter2984)" /></svg>