<?xml version="1.0" encoding="UTF-8" standalone="no"?>
<!-- Generator: Adobe Illustrator 16.0.0, SVG Export Plug-In . SVG Version: 6.00 Build 0)  -->

<svg
   xmlns:dc="http://purl.org/dc/elements/1.1/"
   xmlns:cc="http://creativecommons.org/ns#"
   xmlns:rdf="http://www.w3.org/1999/02/22-rdf-syntax-ns#"
   xmlns:svg="http://www.w3.org/2000/svg"
   xmlns="http://www.w3.org/2000/svg"
   xmlns:sodipodi="http://sodipodi.sourceforge.net/DTD/sodipodi-0.dtd"
   xmlns:inkscape="http://www.inkscape.org/namespaces/inkscape"
   id="Layer_1"
   enable-background="new 0 0 100 100"
   xml:space="preserve"
   height="78"
   viewBox="0 0 78 78"
   width="78"
   version="1.1"
   y="0px"
   x="0px"
   inkscape:version="0.48.5 r10040"
   sodipodi:docname="file.svg"><defs
     id="defs7"><filter
       inkscape:label="Invert"
       x="0"
       y="0"
       width="1"
       height="1"
       inkscape:menu="Color"
       inkscape:menu-tooltip="Invert colors"
       color-interpolation-filters="sRGB"
       id="filter2984"><feColorMatrix
         type="saturate"
         values="1"
         result="fbSourceGraphic"
         id="feColorMatrix2986" /><feColorMatrix
         in="fbSourceGraphic"
         values="-1 0 0 0 1 0 -1 0 0 1 0 0 -1 0 1 0 0 0 1 0 "
         id="feColorMatrix2988" /></filter></defs><sodipodi:namedview
     pagecolor="#ffffff"
     bordercolor="#666666"
     borderopacity="1"
     objecttolerance="10"
     gridtolerance="10"
     guidetolerance="10"
     inkscape:pageopacity="0"
     inkscape:pageshadow="2"
     inkscape:window-width="640"
     inkscape:window-height="480"
     id="namedview5"
     showgrid="false"
     inkscape:zoom="3.025641"
     inkscape:cx="39"
     inkscape:cy="39"
     inkscape:window-x="0"
     inkscape:window-y="0"
     inkscape:window-maximized="0"
     inkscape:current-layer="Layer_1" /><metadata
     id="metadata9"><rdf:RDF><cc:Work
         rdf:about=""><dc:format>image/svg+xml</dc:format><dc:type
           rdf:resource="http://purl.org/dc/dcmitype/StillImage" /><dc:title /></cc:Work></rdf:RDF></metadata><path
     id="path3"
     fill="#020202"
     d="m54.491,0.67473h-39.131c-2.627,0-4.767,2.141-4.767,4.768v68.213c0,2.63,2.14,4.768,4.767,4.768h47.932c2.63,0,4.768-2.138,4.768-4.768v-58.238l-13.569-14.743zm1.125,7.135,5.948,6.463h-5.948v-6.4633zm8.44,65.845c0,0.421-0.344,0.765-0.765,0.765h-47.931c-0.421,0-0.763-0.344-0.763-0.765v-68.212c0-0.421,0.342-0.762,0.763-0.762h36.251v11.595c0,1.104,0.899,1.999,2.003,1.999h10.442v55.38zm-42.396-51.685h34c0.828,0,1.5,0.672,1.5,1.5s-0.672,1.5-1.5,1.5h-34c-0.828,0-1.5-0.672-1.5-1.5s0.672-1.5,1.5-1.5zm35.5,11.58c0,0.828-0.672,1.5-1.5,1.5h-34c-0.828,0-1.5-0.672-1.5-1.5s0.672-1.5,1.5-1.5h34c0.828,0,1.5,0.672,1.5,1.5zm0,9.75c0,0.828-0.672,1.5-1.5,1.5h-34c-0.828,0-1.5-0.672-1.5-1.5s0.672-1.5,1.5-1.5h34c0.828,0,1.5,0.672,1.5,1.5zm0,9.916c0,0.828-0.672,1.5-1.5,1.5h-34c-0.828,0-1.5-0.672-1.5-1.5s0.672-1.5,1.5-1.5h34c0.828,0,1.5,0.672,1.5,1.5z"
     style="filter:url(#filter2984)" /></svg>