<?xml version="1.0" encoding="UTF-8" standalone="no"?>
<!-- Generator: Adobe Illustrator 17.0.2, SVG Export Plug-In . SVG Version: 6.00 Build 0)  -->

<svg
   xmlns:dc="http://purl.org/dc/elements/1.1/"
   xmlns:cc="http://creativecommons.org/ns#"
   xmlns:rdf="http://www.w3.org/1999/02/22-rdf-syntax-ns#"
   xmlns:svg="http://www.w3.org/2000/svg"
   xmlns="http://www.w3.org/2000/svg"
   xmlns:sodipodi="http://sodipodi.sourceforge.net/DTD/sodipodi-0.dtd"
   xmlns:inkscape="http://www.inkscape.org/namespaces/inkscape"
   id="Capa_1"
   xml:space="preserve"
   height="48"
   viewBox="0 0 48 48"
   width="48"
   version="1.1"
   y="0px"
   x="0px"
   inkscape:version="0.48.5 r10040"
   sodipodi:docname="gmusic-logo.svg"><defs
     id="defs9"><filter
       inkscape:label="Invert"
       x="0"
       y="0"
       width="1"
       height="1"
       inkscape:menu="Color"
       inkscape:menu-tooltip="Invert colors"
       color-interpolation-filters="sRGB"
       id="filter2986"><feColorMatrix
         type="saturate"
         values="1"
         result="fbSourceGraphic"
         id="feColorMatrix2988" /><feColorMatrix
         in="fbSourceGraphic"
         values="-1 0 0 0 1 0 -1 0 0 1 0 0 -1 0 1 0 0 0 1 0 "
         id="feColorMatrix2990" /></filter></defs><sodipodi:namedview
     pagecolor="#ffffff"
     bordercolor="#666666"
     borderopacity="1"
     objecttolerance="10"
     gridtolerance="10"
     guidetolerance="10"
     inkscape:pageopacity="0"
     inkscape:pageshadow="2"
     inkscape:window-width="640"
     inkscape:window-height="480"
     id="namedview7"
     showgrid="false"
     inkscape:zoom="4.9166667"
     inkscape:cx="24"
     inkscape:cy="10.715364"
     inkscape:window-x="336"
     inkscape:window-y="284"
     inkscape:window-maximized="0"
     inkscape:current-layer="Capa_1" /><metadata
     id="metadata13"><rdf:RDF><cc:Work
         rdf:about=""><dc:format>image/svg+xml</dc:format><dc:type
           rdf:resource="http://purl.org/dc/dcmitype/StillImage" /><dc:title /></cc:Work></rdf:RDF></metadata><g
     id="g3"
     transform="translate(-10.106855,-6.028916)"
     style="filter:url(#filter2986)"><path
       id="path5"
       d="m12.548,35.377v16.072c0,1.792,0.645,2.57,1.567,2.774,1.078,0.239,2.195-0.149,2.464-0.203,0.182-0.036,0.348-0.104,0.445-0.203,0.035-0.035,0.07-0.07,0.104-0.105,0.059-0.058,0.54-0.296,1.058-0.566,0.332-0.173,0.646-0.349,0.927-0.512,11.556-6.699,23.111-13.398,34.667-20.097,3.552-2.059,3.034-4.261-0.332-6.091-5.897-3.206-11.795-6.411-17.692-9.616-6.132-3.333-12.264-6.665-18.395-9.998-0.011-0.006-0.025-0.009-0.039-0.012-0.023-0.004-0.055-0.016-0.069-0.026-0.008-0.005-0.016-0.01-0.027-0.015-0.016-0.005-0.029-0.009-0.043-0.013-0.023-0.006-0.051-0.021-0.06-0.032-0.007-0.006-0.013-0.013-0.019-0.019-0.063-0.068-0.153-0.107-0.258-0.127-0.158-0.029-1.211-0.382-2.265-0.05-2.161,0.682-2.032,4.168-2.032,6.731-0.001,7.37-0.001,14.739-0.001,22.108zm29.637,2.83c-2.342,1.358-4.683,2.715-7.026,4.073-2.042,1.184-4.084,2.368-6.126,3.552-0.956,0.554-1.076,0.392-0.27-0.363,1.302-1.218,2.594-2.427,3.859-3.614,0.807-0.756,1.631-1.475,2.447-2.22,0.845-0.772,2.088-1.915,3.61-3.32,0.812-0.749,1.353-1.48,1.21-1.633s-0.909,0.339-1.713,1.096c-0.795,0.748-1.714,1.61-2.74,2.57-3.552,3.503-0.588,0.411-8.023,7.828-0.782,0.78-2.191,1.864-3.147,2.417-1.038,0.602-2.077,1.204-3.116,1.806-0.955,0.554-1.099,0.368-0.32-0.416,5.538-5.578,11.077-11.155,16.616-16.732,0.778-0.784,2.023-0.768,2.78,0.037,0.773,0.82,1.544,1.64,2.316,2.46,0.759,0.805,0.6,1.906-0.357,2.459zm4.845-13.878c0.156,0.085,0.312,0.17,0.469,0.255,2.436,1.324,10.46,4.479,5.014,7.637-1.879,1.089-3.759,2.179-5.638,3.268-0.955,0.554-2.006,0.71-2.345,0.351-0.339-0.36-0.155-1.116,0.409-1.688,0.565-0.572,0.932-1.133,0.818-1.253-0.113-0.12-0.66,0.249-1.223,0.825-0.562,0.576-1.412,0.622-1.9,0.103s-0.26-1.579,0.513-2.369c1.31-1.338,2.608-2.664,3.87-3.949,0.774-0.788,1.142-1.569,0.819-1.744-0.322-0.175-1.214,0.319-1.992,1.104-1.222,1.231-2.421,2.439-3.601,3.627-0.777,0.784-1.572,1.248-1.773,1.034s0.266-1.023,1.043-1.809c1.223-1.236,2.349-2.375,3.347-3.386,0.776-0.786,1.378-1.439,1.344-1.458-0.034-0.018-0.693,0.602-1.472,1.386-1.107,1.116-2.216,2.231-3.323,3.347-0.778,0.784-1.446,1.379-1.493,1.33s0.547-0.725,1.326-1.509c1.303-1.312,2.606-2.626,3.91-3.938,0.779-0.784,1.619-1.305,1.878-1.164zm-25.565-13.893c7.458,4.051,14.914,8.104,22.371,12.157,0.971,0.527,1.125,1.59,0.347,2.375-0.538,0.543-1.077,1.085-1.615,1.627-0.778,0.784-1.582,1.235-1.796,1.008s-0.847,0.05-1.414,0.62-1.496,0.535-2.074-0.079c-0.578-0.613-0.59-1.577-0.027-2.151,0.562-0.575,0.962-1.101,0.892-1.176s-0.609,0.303-1.204,0.843c-0.596,0.541-1.449,0.585-1.907,0.098s-0.356-1.329,0.228-1.881,1.031-1.026,1.002-1.057-0.518,0.398-1.093,0.96-1.442,0.592-1.938,0.066c-0.494-0.525-0.418-1.394,0.171-1.94,0.59-0.547,0.87-1.2,0.626-1.458-0.244-0.259-0.919-0.026-1.508,0.521s-1.277,0.766-1.538,0.489c-0.261-0.276,0.004-0.945,0.591-1.494s0.989-1.074,0.896-1.171c-0.093-0.098-0.629,0.282-1.198,0.85-0.57,0.567-1.409,0.625-1.877,0.129-0.467-0.496-0.391-1.366,0.17-1.943,0.562-0.577,0.904-1.162,0.767-1.308-0.138-0.146-0.693,0.161-1.24,0.684-0.311,0.299-0.642,0.614-0.989,0.947-0.02,0.021-0.04,0.04-0.061,0.06-0.032,0.033-0.488-0.396-1.018-0.958s-0.622-1.351-0.206-1.761c0.415-0.41,0.491-0.884,0.171-1.059-0.321-0.174-0.848-0.042-1.175,0.295-0.327,0.338-0.749,0.445-0.942,0.239s-0.135-0.591,0.131-0.861,0.249-0.288-0.021-0.022-0.507,0.461-0.538,0.428c-0.032-0.034,0.148-0.271,0.399-0.528,0.253-0.258,0.177-0.621-0.171-0.81s-0.766-0.207-0.936-0.041c-0.169,0.167-0.642-0.053-1.055-0.492s-0.725-0.818-0.696-0.847c0.028-0.029-0.041-0.103-0.155-0.165s-0.636-0.568-1.166-1.131c-0.531-0.561-0.175-0.59,0.796-0.063zm-7.35,0.262c0.121-0.733,0.282-1.381,0.492-1.895,0.419-1.022,1.713-0.9,2.108-0.48,0.396,0.42,0.086,1.396-0.689,2.183-0.244,0.248-0.49,0.498-0.738,0.75-0.774,0.787-1.353,0.531-1.173-0.558zm1.204,0.746c0.278-0.268,0.557-0.534,0.835-0.8,0.797-0.764,1.683-1.131,1.977-0.819,0.293,0.311-0.116,1.183-0.914,1.947-0.648,0.622-1.312,1.258-1.99,1.908-0.797,0.765-1.437,0.884-1.412,0.266,0.024-0.617,0.706-1.738,1.504-2.502zm-0.094,2.332c0.688-0.66,1.368-1.312,2.04-1.955,0.798-0.764,2.059-0.73,2.815,0.074,5.56,5.904,11.12,11.808,16.681,17.712,0.757,0.804,0.739,2.091-0.039,2.875-5.209,5.245-10.418,10.49-15.626,15.735-0.778,0.784-1.41,1.381-1.41,1.332,0-0.048-0.657,0.522-1.469,1.271-0.229,0.212-0.459,0.423-0.689,0.634-0.812,0.748-1.928,1.367-2.352,1.069-0.424-0.297,0.064-1.308,0.884-2.048,0.716-0.647,1.432-1.294,2.146-1.943,0.817-0.742,1.479-1.79,1.479-2.338s-0.655-0.381-1.463,0.372c-0.88,0.82-1.76,1.641-2.639,2.462-0.808,0.754-1.608,0.478-1.634-0.626-0.012-0.513-0.006-1.03,0.005-1.527,0.025-1.104,0.438-2.367,0.922-2.821,0.29-0.272,0.581-0.546,0.876-0.822,0.848-0.877,1.692-1.747,2.538-2.616,0.769-0.792,1.394-1.818,1.394-2.291s-0.635-0.225-1.418,0.554c-1.107,1.1-2.194,2.182-3.254,3.236-0.168,0.181-0.336,0.36-0.504,0.54-0.279,0.297-0.507-0.155-0.507-1.01s0.635-2.18,1.417-2.96c0.617-0.615,1.235-1.229,1.857-1.844,0.141-0.154,0.281-0.308,0.421-0.461,0.232-0.254-0.224,0.162-1.018,0.929-0.373,0.36-0.728,0.703-1.046,1.009-0.796,0.767-1.491,1.419-1.54,1.469-0.051,0.05-0.091-0.262-0.091-0.698,0-0.435,0.637-1.417,1.423-2.193,0.945-0.933,1.892-1.865,2.836-2.797,0.787-0.775,1.424-1.816,1.424-2.324s-0.623-0.277-1.392,0.516c-0.967,0.997-1.933,1.994-2.899,2.991-0.768,0.794-1.392,0.957-1.392,0.364s0.623-1.716,1.393-2.508c0.987-1.017,1.954-2.012,2.894-2.978,0.771-0.792,1.396-1.994,1.396-2.686,0-0.691-0.638-0.622-1.425,0.153-0.94,0.926-1.886,1.858-2.834,2.794-0.787,0.775-1.424,0.56-1.424-0.481s0.648-2.502,1.446-3.266c1.366-1.307,2.732-2.62,4.097-3.952,0.023-0.023,0.047-0.047,0.07-0.07,0.038-0.039,0.069-0.301,0.069-0.585s-0.631,0.122-1.408,0.907c-0.956,0.966-1.912,1.932-2.868,2.899-0.776,0.786-1.406,0.673-1.406-0.251,0-0.925,0.626-2.313,1.4-3.101,0.962-0.98,1.922-1.957,2.878-2.929,0.775-0.787,1.404-1.768,1.404-2.193s-0.644-0.146-1.438,0.622c-0.763,0.737-1.718,1.661-2.824,2.732-0.794,0.769-1.439,1.38-1.439,1.366-0.001-0.015,0.639-0.652,1.431-1.422,1.021-0.995,2.005-1.953,2.832-2.754,0.793-0.769,1.438-1.406,1.438-1.428,0-0.021-0.64,0.587-1.43,1.36-0.928,0.908-1.876,1.833-2.844,2.777-0.79,0.771-1.461,0.897-1.493,0.279-0.033-0.618,0.586-1.744,1.378-2.514,0.974-0.948,1.957-1.907,2.956-2.879,0.792-0.771,1.433-1.838,1.433-2.385s-0.636-0.359-1.419,0.419c-1.017,1.01-2.032,2.018-3.048,3.026-0.783,0.778-1.437,0.772-1.442-0.014-0.003-0.786,0.654-2.044,1.451-2.808z" /><path
       id="path7"
       d="m33.499,38.144c-0.773,0.788-0.74,0.824,0.074,0.078,1.146-1.05,2.292-2.099,3.438-3.145,0.278-0.279,0.559-0.558,0.838-0.836,0.463-0.461,0.781-0.897,0.711-0.972-0.071-0.075-0.755,0.504-1.53,1.291-1.177,1.195-2.355,2.388-3.531,3.584z" /></g></svg>