<?xml version="1.0" encoding="UTF-8" standalone="no"?>
<!-- Generator: Adobe Illustrator 17.1.0, SVG Export Plug-In . SVG Version: 6.00 Build 0)  -->

<svg
   xmlns:dc="http://purl.org/dc/elements/1.1/"
   xmlns:cc="http://creativecommons.org/ns#"
   xmlns:rdf="http://www.w3.org/1999/02/22-rdf-syntax-ns#"
   xmlns:svg="http://www.w3.org/2000/svg"
   xmlns="http://www.w3.org/2000/svg"
   xmlns:sodipodi="http://sodipodi.sourceforge.net/DTD/sodipodi-0.dtd"
   xmlns:inkscape="http://www.inkscape.org/namespaces/inkscape"
   version="1.1"
   id="Capa_1"
   x="0px"
   y="0px"
   viewBox="0 0 200 200"
   style="enable-background:new 0 0 200 200;"
   xml:space="preserve"
   inkscape:version="0.48.5 r10040"
   width="100%"
   height="100%"
   sodipodi:docname="headphones.svg"><metadata
     id="metadata15"><rdf:RDF><cc:Work
         rdf:about=""><dc:format>image/svg+xml</dc:format><dc:type
           rdf:resource="http://purl.org/dc/dcmitype/StillImage" /></cc:Work></rdf:RDF></metadata><defs
     id="defs13"><filter
       inkscape:label="Invert"
       x="0"
       y="0"
       width="1"
       height="1"
       inkscape:menu="Color"
       inkscape:menu-tooltip="Invert colors"
       color-interpolation-filters="sRGB"
       id="filter2992"><feColorMatrix
         type="saturate"
         values="1"
         result="fbSourceGraphic"
         id="feColorMatrix2994" /><feColorMatrix
         in="fbSourceGraphic"
         values="-1 0 0 0 1 0 -1 0 0 1 0 0 -1 0 1 0 0 0 1 0 "
         id="feColorMatrix2996" /></filter></defs><sodipodi:namedview
     pagecolor="#ffffff"
     bordercolor="#666666"
     borderopacity="1"
     objecttolerance="10"
     gridtolerance="10"
     guidetolerance="10"
     inkscape:pageopacity="0"
     inkscape:pageshadow="2"
     inkscape:window-width="640"
     inkscape:window-height="480"
     id="namedview11"
     showgrid="false"
     inkscape:zoom="1.18"
     inkscape:cx="100"
     inkscape:cy="100"
     inkscape:window-x="0"
     inkscape:window-y="0"
     inkscape:window-maximized="0"
     inkscape:current-layer="Capa_1" /><g
     id="g3"
     style="filter:url(#filter2992)"><path
       d="M99.965,14.564C49.991,14.796,9.333,55.641,9.333,105.613c0,15.176,3.805,30.137,11,43.394v-24.072   c0-4.437,1.579-8.552,4.347-12.082c-0.229-2.401-0.347-4.817-0.347-7.24c0-41.74,33.959-75.855,75.632-76.049   c41.742,0.193,75.701,34.309,75.701,76.049c0,2.683-0.149,5.357-0.43,8.013c2.406,3.352,3.764,7.193,3.764,11.309v25.293   c7.631-13.555,11.667-28.973,11.667-44.615C190.667,55.641,150.009,14.796,99.965,14.564z"
       id="path5" /><path
       d="M25.92,121.048c-0.383,1.255-0.587,2.555-0.587,3.888v23.201v10.799c0,10.493,12.497,19,27.914,19H65v-72H53.247   C39.788,105.936,28.557,112.419,25.92,121.048z"
       id="path7" /><path
       d="M174,158.936v-11.177v-22.823c0-0.819-0.085-1.625-0.233-2.417c-1.745-9.352-13.468-16.583-27.681-16.583h-11.753v72   h11.753C161.503,177.936,174,169.429,174,158.936z"
       id="path9" /></g></svg>