<?xml version="1.0" encoding="UTF-8" standalone="no"?>
<svg
   xmlns:dc="http://purl.org/dc/elements/1.1/"
   xmlns:cc="http://creativecommons.org/ns#"
   xmlns:rdf="http://www.w3.org/1999/02/22-rdf-syntax-ns#"
   xmlns:svg="http://www.w3.org/2000/svg"
   xmlns="http://www.w3.org/2000/svg"
   xmlns:sodipodi="http://sodipodi.sourceforge.net/DTD/sodipodi-0.dtd"
   xmlns:inkscape="http://www.inkscape.org/namespaces/inkscape"
   id="svg2"
   stroke-linejoin="round"
   fill-rule="evenodd"
   xml:space="preserve"
   stroke-linecap="round"
   height="5470"
   width="5470"
   version="1.1"
   stroke-miterlimit="1.4142"
   inkscape:version="0.48.5 r10040"
   sodipodi:docname="icecast.svg"><defs
     id="defs37"><filter
       inkscape:label="Invert"
       x="0"
       y="0"
       width="1"
       height="1"
       inkscape:menu="Color"
       inkscape:menu-tooltip="Invert colors"
       color-interpolation-filters="sRGB"
       id="filter3014"><feColorMatrix
         type="saturate"
         values="1"
         result="fbSourceGraphic"
         id="feColorMatrix3016" /><feColorMatrix
         in="fbSourceGraphic"
         values="-1 0 0 0 1 0 -1 0 0 1 0 0 -1 0 1 0 0 0 1 0 "
         id="feColorMatrix3018" /></filter></defs><sodipodi:namedview
     pagecolor="#ffffff"
     bordercolor="#666666"
     borderopacity="1"
     objecttolerance="10"
     gridtolerance="10"
     guidetolerance="10"
     inkscape:pageopacity="0"
     inkscape:pageshadow="2"
     inkscape:window-width="640"
     inkscape:window-height="480"
     id="namedview35"
     showgrid="false"
     inkscape:zoom="0.043144424"
     inkscape:cx="2735"
     inkscape:cy="2735"
     inkscape:window-x="0"
     inkscape:window-y="0"
     inkscape:window-maximized="0"
     inkscape:current-layer="svg2" /><metadata
     id="metadata74"><rdf:RDF><cc:Work
         rdf:about=""><dc:format>image/svg+xml</dc:format><dc:type
           rdf:resource="http://purl.org/dc/dcmitype/StillImage" /><dc:title /></cc:Work></rdf:RDF></metadata><g
     id="g3914"
     transform="translate(17.432301,29.012722)"
     style="filter:url(#filter3014)"><g
       id="g8"
       fill="#c8c8c8"><path
         id="path10"
         d="m2725,388.95,0,2523.4-2504.7,0l2504.7-2523.4z"
         stroke="#7294f4"
         stroke-width="1px"
         fill="#c8c8c8" /></g><g
       id="g12"
       fill="#969696"><path
         id="path14"
         d="m2725,5448.7,0-2539.1-2504.7,0,2504.7,2539.1z"
         stroke="#546db2"
         stroke-width="1px"
         fill="#969696" /></g><g
       id="g16"
       fill="#969696"><path
         id="path18"
         d="M5241,2932.9,2720.2,2929.2,2723.9,389.63,5241,2932.9z"
         stroke="#546db2"
         stroke-width="1px"
         fill="#969696" /></g><g
       id="g20"
       fill="#646464"><path
         id="path22"
         d="m5241,2924.3-2520.8,3.72,3.72,2519.9,2517.1-2523.6z"
         stroke="#303f6a"
         stroke-width="1px"
         fill="#646464" /></g><path
       id="path26"
       d="m737.98,3656.1s-87.881,467.24-32.712,521.85,50.228-15.31,141.92,1.04c91.694,16.36,64.251,60.21,64.251,60.21l529.58-1.7,235.72-91.72,18.17-422.4-207.72-119.6-749.22,52.32z"
       stroke="#000"
       stroke-width="69.33000183px"
       fill="#f2f2f2" /><path
       id="path28"
       d="m860.79,3479.3,81.742-342.98,321.56-41.3,260.54,20.65,253.58,0,102.32,151.27-20.57,302.61-299.29,19.8-751.54,33.56,51.66-143.61z"
       stroke="#000"
       stroke-width="69.33000183px"
       fill="#f2f2f2" /><path
       id="path30"
       d="m1704,4145.6,136.73,67.13,142.76,0,98.99-100.69,88.54-250.25,92.96-278.64-159-107.57-148.02,61.09-156.45,190.86-96.28,218.4-0.23,199.67z"
       stroke="#000"
       stroke-width="69.33000183px"
       fill="#f2f2f2" /><path
       id="path32"
       d="m1213.4,3015.8,0-203.77,128.14-94.66,231.39-60.25,223.57,0,213.71-19.15,159.33,56.9,90.63,79.8-12.92,252.82-239.24,65.65-548.46-19.8-246.15-57.54z"
       stroke="#000"
       stroke-width="69.33000183px"
       fill="#f2f2f2" /><path
       id="path34"
       d="m2081.9,3406.8,137.5-219.25c80.84-73.7,202.56-155.61,239.77-198.94l116.34,28.8c54.81-6.84,71.23,83.72,119.92,148.26l-97.56,110.43-190.09,204.63-203.77,55.93-122.11-129.86z"
       stroke="#000"
       stroke-width="69.33000183px"
       fill="#f2f2f2" /><path
       id="path36"
       d="m3147.9,3027.7-246.78-74.01-215.07,48.18,0,219.25,196.98,55.83,149.64,74.78,144.62,73.39,100.45-116.46-13.76-196.12-116.08-84.84z"
       stroke="#000"
       stroke-width="69.33000183px"
       fill="#f2f2f2" /><path
       id="path38"
       d="m3382.5,3266.4,149.64,73.93,194.87,115.23,73.08,223.65-212.89,155.67-236.56-251.95-127.29-153.98,159.15-162.55z"
       stroke="#000"
       stroke-width="69.33000183px"
       fill="#f2f2f2" /><path
       id="path40"
       d="m3861.3,3715.8,127.25,211.78,42.11,211.31-133.95,90.52c-113.9,1.21-140.78-62.88-181.08-122.61-45.3-59.76-123.85-130.28-119.28-234.48l109.08-124.55,155.87-31.97z"
       stroke="#000"
       stroke-width="69.33000183px"
       fill="#f2f2f2" /><path
       id="path42"
       d="m1399.1,2580.2,169.44-182.35,227.36-55.08,96.9,110.14-48.49,149.58-285.13,46.46-160.08-68.75z"
       stroke="#000"
       stroke-width="69.33000183px"
       fill="#f2f2f2" /><path
       id="path44"
       d="m1667.4,2136.6,197.75-94.66,216.77-128.15,456.58,0,123.81,197.75-67.12,115.3-444.52,54.99-308.65,0c-144.92,42.84-203.13-5.57-174.62-145.23z"
       stroke="#000"
       stroke-width="69.33000183px"
       fill="#f2f2f2" /><path
       id="path46"
       d="m1957.9,2594c142.54,26.47,261.45,45.88,333.86,19.41l310.96-5.64c157.22,2.57,267.37-19.68,330.47-66.74-10.76-119.95-57.27-215.79-139.53-287.53-80.06-13.34-162.05-28.77-268.89-15.43-91.12-23.95-223.52-8.52-374.31,15.43-51.13-1.61-112.17,18.44-183.12,60.16l-9.44,280.34z"
       stroke="#000"
       stroke-width="69.33000183px"
       fill="#f2f2f2" /><path
       id="path48"
       d="m2388.5,2643.4-74.01,230.53,190.94,116.93,280.26-40.44,211.61-40.45-18.97-149.12-233.94-182.88-355.89,65.43z"
       stroke="#000"
       stroke-width="69.33000183px"
       fill="#f2f2f2" /><path
       id="path50"
       d="m4075.4,4173.6c159.3,51.37,318.94,42.82,478.63,25.7l164.26-93.66c32.91-78.48,46.65-185.97,41.22-322.48l-74.78-135.87-135.88-54.21-212.36-13.77-300.16,42.31-140.03,141.75,74.86,210.66,104.24,199.57z"
       stroke="#000"
       stroke-width="69.33000183px"
       fill="#f2f2f2" /><path
       id="path52"
       d="m3838,3061,253.58-19.79,130.7,0,162.55,19.79,82.52,156.53,61.87,184.83-116.08,116.08-281.11,35.33-194.19,1.04-155.75-221.2,55.91-272.61z"
       stroke="#000"
       stroke-width="69.33000183px"
       fill="#f2f2f2" /><path
       id="path54"
       d="m3671.3,3061-322.41,0-238.27-102.31-80.81-189.24,48.1-122.96,239.89-20.65,635.46,0,94.58,75.63,103.16,74.86,48.18,198.6-254.5,54.21-273.38,31.86z"
       stroke="#000"
       stroke-width="69.33000183px"
       fill="#f2f2f2" /><path
       id="path56"
       d="m2914.4,2287.8,422.31-2.32,225.27-33.48,267.43,0,96.28,198.59-74.01,142.76-480.56,0c-100.74,32.28-187.77,42.56-261.07,30.86-71.72,2.6-135.99-13.85-192.81-49.36l-31.08-82.19,28.24-204.86z"
       stroke="#000"
       stroke-width="69.33000183px"
       fill="#f2f2f2" /><path
       id="path58"
       d="m2659.2,1891.7,603.6,0,183.98,61.09,0,298.44-260.47,0-294.95,20.64c-100.08-16.77-154.52-71.52-163.33-164.25-29.85-60.99-52.79-132.97-68.83-215.92z"
       stroke="#000"
       stroke-width="69.33000183px"
       fill="#f2f2f2" /><path
       id="path60"
       d="m2255.2,1771.3,137.5-91.99,232.16-40.45,225.28,0,54.98,142.76-162.55,74.86-342.98,41.22c-96.39,16.74-144.52-25.39-144.39-126.4z"
       stroke="#000"
       stroke-width="69.33000183px"
       fill="#f2f2f2" /><path
       id="path62"
       d="m3718.4,3085.9,115.23,246.7-52.67,187.14-316.16-208.57-118.28-233.72,371.88,8.45z"
       stroke="#000"
       stroke-width="69.33000183px"
       fill="#f2f2f2" /><path
       id="path64"
       d="m1908.4,3150.4,284.89-46.1-0.25,134.65-61.74,149.64-134.85,72.23-84.56-37.88-3.49-272.54z"
       stroke="#000"
       stroke-width="69.33000183px"
       fill="#f2f2f2" /><path
       id="path66"
       d="M2802.7,1656.4,4320.2,22.876"
       stroke="#000"
       stroke-width="64px"
       fill="#f2f2f2" /><path
       id="path68"
       d="M2384.3,1694.3,701.79,12.667"
       stroke="#000"
       stroke-width="64px"
       fill="#f2f2f2" /></g></svg>