<?xml version="1.0" encoding="UTF-8" standalone="no"?>
<!-- Generator: Adobe Illustrator 16.0.4, SVG Export Plug-In . SVG Version: 6.00 Build 0)  -->

<svg
   xmlns:dc="http://purl.org/dc/elements/1.1/"
   xmlns:cc="http://creativecommons.org/ns#"
   xmlns:rdf="http://www.w3.org/1999/02/22-rdf-syntax-ns#"
   xmlns:svg="http://www.w3.org/2000/svg"
   xmlns="http://www.w3.org/2000/svg"
   xmlns:sodipodi="http://sodipodi.sourceforge.net/DTD/sodipodi-0.dtd"
   xmlns:inkscape="http://www.inkscape.org/namespaces/inkscape"
   id="Layer_1"
   enable-background="new 0 0 50 50"
   xml:space="preserve"
   height="31"
   viewBox="0 0 30.999999 31"
   width="31"
   version="1.1"
   y="0px"
   x="0px"
   inkscape:version="0.48.5 r10040"
   sodipodi:docname="lyrics.svg"><defs
     id="defs7"><filter
       inkscape:label="Invert"
       x="0"
       y="0"
       width="1"
       height="1"
       inkscape:menu="Color"
       inkscape:menu-tooltip="Invert colors"
       color-interpolation-filters="sRGB"
       id="filter2984"><feColorMatrix
         type="saturate"
         values="1"
         result="fbSourceGraphic"
         id="feColorMatrix2986" /><feColorMatrix
         in="fbSourceGraphic"
         values="-1 0 0 0 1 0 -1 0 0 1 0 0 -1 0 1 0 0 0 1 0 "
         id="feColorMatrix2988" /></filter></defs><sodipodi:namedview
     pagecolor="#ffffff"
     bordercolor="#666666"
     borderopacity="1"
     objecttolerance="10"
     gridtolerance="10"
     guidetolerance="10"
     inkscape:pageopacity="0"
     inkscape:pageshadow="2"
     inkscape:window-width="640"
     inkscape:window-height="480"
     id="namedview5"
     showgrid="false"
     inkscape:zoom="7.6129032"
     inkscape:cx="15.5"
     inkscape:cy="15.5"
     inkscape:window-x="0"
     inkscape:window-y="0"
     inkscape:window-maximized="0"
     inkscape:current-layer="Layer_1" /><metadata
     id="metadata9"><rdf:RDF><cc:Work
         rdf:about=""><dc:format>image/svg+xml</dc:format><dc:type
           rdf:resource="http://purl.org/dc/dcmitype/StillImage" /><dc:title /></cc:Work></rdf:RDF></metadata><path
     id="path3"
     d="m17.246,17.474c-0.186-0.174-0.291-0.404-0.291-0.658,0-0.4,0.271-0.77,0.643-1.043,0.371-0.281,0.841-0.466,1.234-0.457,0.344,0.008,0.645,0.049,0.822,0.221v-7.861h0.237c0.069,0.514,0.079,1.158,0.589,1.814,0.393,0.5,0.833,0.956,1.137,1.358,0.399,0.528,0.682,1.163,0.682,1.798,0,1.012-0.484,2.055-0.817,2.646-0.053,0.004-0.106,0.006-0.157,0.01,0.234-0.559,0.703-1.467,0.664-2.4-0.021-0.523-0.215-1.09-0.548-1.521-0.37-0.5-0.997-0.93-1.548-0.974v5.792c0,0.458-0.266,0.887-0.648,1.186-0.373,0.3-0.863,0.455-1.293,0.41-0.276-0.027-0.53-0.15-0.706-0.321zm9.756-15.545v27.609c0,0.689-0.561,1.25-1.25,1.25h-20.265c-0.69,0-1.25-0.561-1.25-1.25v-27.609c0-0.69,0.56-1.25,1.25-1.25h20.265c0.691,0,1.25,0.56,1.25,1.25zm-10.489,27.61c0-0.492-0.4-0.893-0.893-0.893s-0.893,0.398-0.893,0.893,0.4,0.894,0.893,0.894,0.893-0.401,0.893-0.894zm7.989-26.36h-13.616v3.123l-0.973-0.817-0.973,0.817v-3.123h-2.204v25.109h17.764v-25.109h0.002zm-15.562,16.487h13.357v-0.979h-13.357v0.979zm0,3.773h13.357v-0.982h-13.357v0.982zm7.099-11.9h-7.0987v0.98h7.099v-0.98zm0,3.771h-7.0987v0.982h7.099v-0.982z"
     style="filter:url(#filter2984)" /></svg>