<?xml version="1.0" encoding="UTF-8" standalone="no"?>
<!-- Generator: Adobe Illustrator 16.0.0, SVG Export Plug-In . SVG Version: 6.00 Build 0)  -->
<svg id="Layer_1" xmlns:rdf="http://www.w3.org/1999/02/22-rdf-syntax-ns#" xmlns="http://www.w3.org/2000/svg" enable-background="new 0 0 512 512" xml:space="preserve" height="512px" viewBox="0 0 512 512" width="512px" version="1.1" y="0px" x="0px" xmlns:cc="http://creativecommons.org/ns#" xmlns:dc="http://purl.org/dc/elements/1.1/"><metadata id="metadata9"><rdf:RDF><cc:Work rdf:about=""><dc:format>image/svg+xml</dc:format><dc:type rdf:resource="http://purl.org/dc/dcmitype/StillImage"/><dc:title/></cc:Work></rdf:RDF></metadata><path id="path3" fill="#ffffff" d="M480,0h-448c-17.687,0-32,14.328-32,32v448c0,17.688,14.313,32,32,32h448c17.688,0,32-14.313,32-32v-448c0-17.672-14.31-32-32-32zm-160,32l32,64h-64l-32-64h64zm-128,0l32,64h-64l-32-64h64zm-160,0h32l32,64h-64v-64zm448,448h-448v-352h448v352zm0-384h-64l-32-64h64l32,32v32zm-124.62,193.69c15.75,7.875,15.75,20.75,0,28.625l-166.75,83.375c-15.75,7.86-28.63-0.11-28.63-17.7v-160c0-17.594,12.875-25.563,28.625-17.688l166.76,83.38z"/></svg>
