<?xml version="1.0" encoding="UTF-8" standalone="no"?>
<!-- Generator: Adobe Illustrator 12.0.1, SVG Export Plug-In . SVG Version: 6.00 Build 51448)  -->

<svg
   xmlns:dc="http://purl.org/dc/elements/1.1/"
   xmlns:cc="http://creativecommons.org/ns#"
   xmlns:rdf="http://www.w3.org/1999/02/22-rdf-syntax-ns#"
   xmlns:svg="http://www.w3.org/2000/svg"
   xmlns="http://www.w3.org/2000/svg"
   xmlns:sodipodi="http://sodipodi.sourceforge.net/DTD/sodipodi-0.dtd"
   xmlns:inkscape="http://www.inkscape.org/namespaces/inkscape"
   version="1.1"
   id="Layer_1"
   width="171"
   height="171"
   viewBox="0 0 171 171"
   overflow="visible"
   enable-background="new 0 0 253.474 301.721"
   xml:space="preserve"
   inkscape:version="0.48.5 r10040"
   sodipodi:docname="musicbrainz_logo.svg"
   style="overflow:visible"><metadata
     id="metadata305"><rdf:RDF><cc:Work
         rdf:about=""><dc:format>image/svg+xml</dc:format><dc:type
           rdf:resource="http://purl.org/dc/dcmitype/StillImage" /><dc:title /></cc:Work></rdf:RDF></metadata><defs
     id="defs303"><filter
       inkscape:label="Invert"
       x="0"
       y="0"
       width="1"
       height="1"
       inkscape:menu="Color"
       inkscape:menu-tooltip="Invert colors"
       color-interpolation-filters="sRGB"
       id="filter3055"><feColorMatrix
         type="saturate"
         values="1"
         result="fbSourceGraphic"
         id="feColorMatrix3057" /><feColorMatrix
         in="fbSourceGraphic"
         values="-1 0 0 0 1 0 -1 0 0 1 0 0 -1 0 1 0 0 0 1 0 "
         id="feColorMatrix3059" /></filter></defs><sodipodi:namedview
     pagecolor="#ffffff"
     bordercolor="#666666"
     borderopacity="1"
     objecttolerance="10"
     gridtolerance="10"
     guidetolerance="10"
     inkscape:pageopacity="0"
     inkscape:pageshadow="2"
     inkscape:window-width="1315"
     inkscape:window-height="834"
     id="namedview301"
     showgrid="false"
     inkscape:zoom="1.5643591"
     inkscape:cx="-9.793099"
     inkscape:cy="25.638499"
     inkscape:window-x="652"
     inkscape:window-y="421"
     inkscape:window-maximized="0"
     inkscape:current-layer="Layer_1"
     fit-margin-top="0"
     fit-margin-left="0"
     fit-margin-right="0"
     fit-margin-bottom="0" /><g
     id="g4067"
     transform="translate(-43.0625,-157.3045)"
     style="filter:url(#filter3055)"><path
       style="fill:#ffffff;fill-opacity:1"
       id="path3"
       d="m 127.799,211.31 v 67.287 h 47.765 c 0,0 4,-10.922 4,-14.307 0,-3.383 0,-9.547 0,-9.547 0,0 1.666,-4.736 1.666,-10.828 0,-6.09 -2.231,-17.594 -7.646,-19.625 0,0 -15.564,-20.979 -33.836,-18.271 0,0 -11.039,-0.247 -11.949,5.291 z"
       inkscape:connector-curvature="0" /><path
       style="fill:#000000;fill-opacity:1"
       d="m 180.977,254.474 c -0.219,3.145 0.219,9.883 -0.438,11.906 -0.656,2.02 -2.408,7.861 -3.281,9.883 -0.307,0.709 -0.584,1.557 -0.867,2.441 l -2.004,-0.117 c 0.127,-0.33 0.27,-0.656 0.463,-0.977 1.094,-1.795 0.877,-4.492 0.877,-4.492 0,0 2.188,-6.514 2.623,-8.535 0.439,-2.021 -0.654,-7.639 -0.436,-9.213 0.221,-1.57 0.875,-2.471 1.969,-5.615 1.094,-3.146 -0.439,-6.963 -0.656,-8.313 -0.219,-1.346 -0.656,-6.289 -1.096,-7.637 -0.436,-1.35 -3.061,-5.393 -3.227,-6.348 -0.164,-0.955 -4.41,-2.137 -4.41,-2.137 -0.221,-2.246 -1.551,-3.873 -1.551,-3.873 0,-2.246 -7.658,-8.537 -7.658,-8.537 -2.406,-1.797 -13.346,-5.615 -16.189,-6.291 -2.847,-0.672 -4.378,1.125 -4.378,1.125 -3.721,-1.797 -7.002,0 -9.189,1.348 -2.187,1.348 -2.406,3.594 -2.406,3.594 -1.314,1.574 -1.094,-2.021 -1.094,-2.021 0,0 0.873,-4.492 4.156,-5.615 3.281,-1.125 8.752,-0.451 8.752,-0.451 7.44,-1.57 19.255,4.27 22.757,6.965 3.5,2.697 11.156,12.355 11.156,12.355 0,0 2.408,2.023 4.594,6.74 2.189,4.719 2.627,14.828 2.408,16.85 -0.219,2.022 -0.657,3.818 -0.875,6.965 z"
       id="path7"
       inkscape:connector-curvature="0" /><g
       id="g9"><path
         d="m 148.453,210.265 c -0.635,-1.088 -3.17,1.086 -5.071,1.086 -1.902,0 -5.389,-1.305 -7.609,-0.869 -2.219,0.436 -5.072,2.176 -5.705,3.697 -0.635,1.521 0.951,7.176 2.854,7.611 0,0 -3.172,3.48 -1.588,4.785 1.588,1.305 2.221,0 2.221,-0.652 0,-0.652 -0.318,-2.393 0.951,-2.828 1.268,-0.434 2.854,-1.957 2.854,-1.957 0,0 -2.537,0 -3.805,-1.305 -1.27,-1.305 -0.635,-3.697 0,-4.785 0.633,-1.088 2.217,-3.045 3.805,-3.045 1.584,0 4.754,1.305 6.976,1.088 2.215,-0.217 4.752,-1.738 4.117,-2.826 z"
         id="path11"
         inkscape:connector-curvature="0" /><path
         d="m 153.525,216.571 c 0,0 3.486,3.914 0,8.48 -3.486,4.568 -3.17,2.611 -3.17,2.611 l 1.268,1.74 c 0,0 2.535,-3.697 4.756,-3.48 2.219,0.217 5.072,2.174 6.023,5.438 0.951,3.262 -1.268,5.873 -4.121,6.307 -2.854,0.436 -13.633,-0.652 -13.633,-0.652 0,0 0.953,0.652 0.635,1.74 -0.316,1.086 -0.949,2.393 -0.949,2.393 0,0 2.535,-2.176 8.875,-1.959 6.34,0.219 8.561,1.305 11.096,5.438 2.535,4.133 0.949,10.221 -0.318,11.744 -1.267,1.523 -6.975,1.959 -7.607,3.48 -0.632,1.521 1.268,3.045 1.586,4.131 0.316,1.088 -0.951,1.959 -0.951,1.959 0,0 3.486,-1.523 6.021,-1.305 2.537,0.217 7.293,2.609 7.293,2.609 0,0 -0.953,0.436 -0.635,1.088 0.318,0.652 0.951,1.305 0.635,1.957 -0.316,0.652 -1.268,1.086 -1.268,1.086 0,0 1.584,0.219 2.535,-1.086 0.951,-1.305 -0.951,-1.523 -0.316,-2.176 0.633,-0.652 1.902,-0.434 1.902,-0.434 0,0 -0.953,-0.219 -2.537,-2.176 -1.584,-1.957 -2.219,-3.045 -4.438,-3.045 -2.221,0 -4.756,0.217 -4.756,0.217 0,0 -2.219,-0.869 -1.268,-2.174 0.951,-1.305 8.242,-2.176 8.242,-2.176 0,0 -2.219,-1.305 -2.219,-2.391 0,-1.088 1.584,-3.264 4.438,-4.785 2.854,-1.523 5.072,-3.916 5.072,-8.482 0,-4.566 1.209,-5.607 3.109,-7.348 l -0.666,-3 c 0,0 -1.809,4.041 -3.711,5.346 l -4.756,-2.176 c 0,0 0.951,2.828 3.488,3.916 0,0 1.9,3.697 0.316,6.307 -1.586,2.609 -5.707,4.566 -5.707,4.566 0,0 -1.268,-6.307 -1.902,-7.611 -0.633,-1.305 -1.902,-2.609 -2.219,-3.48 -0.316,-0.869 1.904,-6.307 1.586,-8.047 -0.318,-1.738 -2.854,-6.959 -7.609,-7.395 10e-4,0.001 -0.633,-7.61 -4.12,-7.175 z"
         id="path13"
         inkscape:connector-curvature="0" /><path
         d="m 146.551,227.444 c 0,0 2.537,-0.65 4.756,0.436 2.219,1.088 3.805,4.35 1.902,6.09 0,0 -0.951,0.652 -1.902,-0.436 0,0 0.316,-4.566 -1.586,-5.002 -1.902,-0.436 -3.17,-1.088 -3.17,-1.088 z"
         id="path15"
         inkscape:connector-curvature="0" /><path
         d="m 149.088,221.573 c 0,0 -3.486,-1.521 -6.657,-0.652 -3.17,0.869 -5.072,4.783 -5.072,4.783 0,0 -1.586,-2.826 1.268,-5 2.854,-2.176 7.608,-0.871 9.827,-0.652 2.218,0.217 2.536,0.433 0.634,1.521 z"
         id="path17"
         inkscape:connector-curvature="0" /><path
         d="m 144.967,219.833 c 0,0 -0.951,-1.74 0.316,-2.174 1.268,-0.436 2.854,-0.871 2.219,-1.523 -0.633,-0.652 -3.803,0.652 -4.755,2.609 -0.951,1.959 -0.951,1.959 -0.951,1.959 l 3.171,-0.871 z"
         id="path19"
         inkscape:connector-curvature="0" /><path
         d="m 142.431,228.751 c 0,0 -6.023,5.436 -6.023,11.09 0,5.656 2.854,10.223 5.072,10.223 2.22,0 2.222,-1.957 3.804,-1.523 1.586,0.436 3.805,2.395 1.586,2.828 -2.221,0.436 -4.438,1.305 -6.341,0.436 -1.902,-0.871 -4.121,-1.959 -5.391,-3.916 -1.266,-1.957 -0.949,-6.088 -1.266,-8.264 -0.318,-2.176 3.801,-9.787 5.389,-10.873 1.584,-1.089 3.17,-1.96 3.17,-0.001 z"
         id="path21"
         inkscape:connector-curvature="0" /><path
         d="m 156.063,246.149 c 0,0 -2.537,-0.436 -3.488,-1.523 -0.951,-1.086 -1.266,0.219 -0.633,2.393 0.633,2.174 0.951,5.654 0.316,7.178 -0.635,1.521 -3.488,5.654 -7.291,5.219 -3.806,-0.436 -5.073,-1.521 -6.024,-2.826 -0.951,-1.307 -2.852,-1.523 -3.17,-0.219 -0.316,1.305 0.949,2.828 1.586,3.697 0.633,0.869 0.316,0.869 2.219,1.521 1.902,0.654 5.706,1.523 8.876,0.436 3.17,-1.087 6.023,-5.871 6.023,-7.395 0,-1.522 0.634,-6.307 1.586,-8.481 z"
         id="path23"
         inkscape:connector-curvature="0" /></g><path
       d="m 178.826,265.321 c 0,0 -0.344,-8.244 -2.678,-9.91 -2.334,-1.666 -3.008,-1.418 -3.08,-2.137 -0.055,-0.555 -0.109,-0.748 1.555,-0.693 1.332,0.045 4.871,2.406 4.871,2.406 l -0.668,10.334 z"
       id="path25"
       inkscape:connector-curvature="0" /><path
       d="m 151.16,207.987 c 0,0 3,1 2.334,2.666 -0.668,1.668 -0.666,2.334 0.666,2.334 1.334,0 2,-2 3.666,-1.334 1.668,0.668 0.334,3.334 2,3.668 1.668,0.332 2.334,-0.002 3.334,0.332 1,0.334 4.666,3 4.334,4.334 -0.334,1.332 -3.668,-2 -4.668,-1.334 -1,0.668 -2.666,1.666 -1.332,2.334 1.332,0.666 5.332,0.666 7,2.334 1.666,1.666 2.092,2.613 3,1.666 0.949,-0.994 -2,-7 -4,-8.666 -2,-1.668 -13,-9.002 -16.334,-8.334 z"
       id="path27"
       inkscape:connector-curvature="0" /><path
       d="m 172.324,236.685 c 0,0 1.689,0.705 2.205,0.518 0.518,-0.189 1.83,-1.361 2.488,-2.629 0.656,-1.268 0.375,-2.254 0.094,-2.91 l 1.408,1.408 0.752,5.115 -0.424,-0.375 c 0,0 -0.141,-1.268 -0.609,-1.221 -0.468,0.047 -1.502,0.939 -1.502,0.939 l -3.004,0.422 -1.455,-0.846 0.047,-0.421 z"
       id="path29"
       inkscape:connector-curvature="0" /><path
       d="m 176.592,253.274 c 0,0 1.055,0.555 1.525,0.334 0.473,-0.223 0.666,-1 0.666,-1 l -0.416,2.109 h -1.109 l -0.666,-1.443 z"
       id="path31"
       inkscape:connector-curvature="0" /><path
       d="m 137.493,255.821 c -0.869,0.521 -1.693,0.93 -1.525,1.43 0.166,0.5 1.525,13.736 7.526,14.07 6,0.332 11.166,-1.5 14.166,0.5 3,2 -0.334,3.832 -0.334,3.832 0,0 -0.334,2.334 2.334,0.5 0,0 0.832,0.5 1,0 0.166,-0.5 0.334,-3.998 -1.166,-4.832 -1.5,-0.834 -3.668,-1.5 -4.668,-2.168 -1,-0.666 -7.836,0.76 -9.67,0.432 -3.843,-0.691 -3.579,-4.029 -5.079,-6.529 -1.5,-2.5 -1.752,-7.735 -2.584,-7.235 z"
       id="path33"
       inkscape:connector-curvature="0" /><path
       d="m 176.826,269.653 c 0,0 -1.332,3.668 -3.332,3.668 0,0 2.666,1 2.332,2.332 -0.332,1.334 1,-6 1,-6 z"
       id="path35"
       inkscape:connector-curvature="0" /><path
       d="m 159.326,274.999 c 0,0 2.922,-0.893 5.254,-0.797 2.334,0.094 3.338,2.086 3.338,2.086 0,0 -2.432,-0.986 -3.758,-0.967 -1.328,0.02 -3.676,1.023 -3.676,1.023 l -1.158,-1.345 z"
       id="path37"
       inkscape:connector-curvature="0" /><path
       d="m 144.059,275.64 c 0,0 -1.548,-3.174 -4.548,-3.361 -3,-0.187 -2.559,-0.207 -3.559,-0.395 -1,-0.188 -2.584,-3.418 -3.646,-3.668 -1.062,-0.25 -1.438,-0.625 -1.875,-0.438 -0.437,0.187 -0.188,0.688 0.063,0.813 0.251,0.125 1.188,0.25 1.625,0.5 0.437,0.25 1.25,2.875 3,3.688 1.75,0.813 3.111,0.895 3.799,1.082 0.688,0.187 2.893,1.395 3.955,2.77 -10e-4,-10e-4 1.582,0.591 1.186,-0.991 z"
       id="path39"
       inkscape:connector-curvature="0" /><path
       style="fill:#ffffff;fill-opacity:1"
       id="path41"
       d="m 128.36,211.31 v 67.287 H 81.192 c 0,0 -4.698,-11.043 -4.698,-14.428 0,-3.383 -0.049,-9.426 -0.049,-9.426 0,0 -1.354,-4.736 -1.354,-10.828 0,-6.09 3.384,-17.594 8.798,-19.625 0,0 15.565,-20.979 33.836,-18.271 0.001,0 11.041,-0.247 10.635,5.291 z"
       inkscape:connector-curvature="0" /><path
       id="path43"
       d="m 124.057,249.581 c 1.489,-0.748 2.333,1 4.333,1 2,0 4.333,-2.334 5.333,-1.002 1,1.334 0.333,0 0,1.668 -0.333,1.666 -3.104,2.311 -5.333,2.334 -2.108,0.021 -3.001,-0.334 -4.667,-2.334 -1.666,-2 -0.332,-1.332 0.334,-1.666 z"
       inkscape:connector-curvature="0" /><path
       id="path45"
       d="m 124.89,231.581 c 0,0 1.167,-1.334 3.5,-1.334 2.333,0 3.833,1.834 4.5,1.834 0.667,0 1.333,-0.334 1.333,-0.334 0,0 10e-4,-1.832 -0.666,-2.166 -0.667,-0.334 -3.5,-1 -5,-1 -1.5,0 -4.001,0.998 -4.834,1.166 -0.833,0.166 -1.667,1.334 -1,1.834 0.667,0.5 2.167,0 2.167,0 z"
       inkscape:connector-curvature="0" /><g
       id="g47"><path
         id="path49"
         d="m 75.906,254.474 c 0.22,3.145 -0.219,9.883 0.438,11.906 0.656,2.02 2.408,7.861 3.282,9.883 0.306,0.709 0.584,1.557 0.866,2.441 l 2.005,-0.117 c -0.127,-0.33 -0.27,-0.656 -0.464,-0.977 -1.094,-1.795 -0.876,-4.492 -0.876,-4.492 0,0 -2.188,-6.514 -2.624,-8.535 -0.438,-2.021 0.655,-7.639 0.437,-9.213 -0.221,-1.57 -0.875,-2.471 -1.97,-5.615 -1.094,-3.146 0.439,-6.963 0.656,-8.313 0.22,-1.346 0.656,-6.289 1.096,-7.637 0.437,-1.35 3.062,-5.393 3.227,-6.348 0.165,-0.955 4.411,-2.137 4.411,-2.137 0.22,-2.246 1.551,-3.873 1.551,-3.873 0,-2.246 7.657,-8.537 7.657,-8.537 2.407,-1.797 13.347,-5.615 16.19,-6.291 2.846,-0.672 4.377,1.125 4.377,1.125 3.72,-1.797 7.001,0 9.189,1.348 2.188,1.348 2.405,3.594 2.405,3.594 1.314,1.574 1.095,-2.021 1.095,-2.021 0,0 -0.874,-4.492 -4.157,-5.615 -3.281,-1.125 -8.752,-0.451 -8.752,-0.451 -7.438,-1.57 -19.254,4.27 -22.755,6.965 -3.5,2.697 -11.157,12.355 -11.157,12.355 0,0 -2.407,2.023 -4.594,6.74 -2.189,4.719 -2.627,14.828 -2.408,16.85 0.219,2.022 0.657,3.818 0.875,6.965 z"
         inkscape:connector-curvature="0" /><g
         id="g51"><path
           id="path53"
           d="m 108.43,210.265 c 0.635,-1.088 3.17,1.086 5.071,1.086 1.902,0 5.389,-1.305 7.608,-0.869 2.219,0.436 5.073,2.176 5.706,3.697 0.635,1.521 -0.951,7.176 -2.854,7.611 0,0 3.172,3.48 1.587,4.785 -1.587,1.305 -2.22,0 -2.22,-0.652 0,-0.652 0.317,-2.393 -0.951,-2.828 -1.269,-0.434 -2.854,-1.957 -2.854,-1.957 0,0 2.537,0 3.805,-1.305 1.269,-1.305 0.635,-3.697 0,-4.785 -0.633,-1.088 -2.218,-3.045 -3.805,-3.045 -1.584,0 -4.755,1.305 -6.975,1.088 -2.216,-0.217 -4.753,-1.738 -4.118,-2.826 z"
           inkscape:connector-curvature="0" /><path
           id="path55"
           d="m 103.357,216.571 c 0,0 -3.486,3.914 0,8.48 3.486,4.568 3.17,2.611 3.17,2.611 l -1.268,1.74 c 0,0 -2.535,-3.697 -4.756,-3.48 -2.219,0.217 -5.072,2.174 -6.023,5.438 -0.951,3.262 1.269,5.873 4.122,6.307 2.853,0.436 13.632,-0.652 13.632,-0.652 0,0 -0.953,0.652 -0.635,1.74 0.316,1.086 0.95,2.393 0.95,2.393 0,0 -2.535,-2.176 -8.876,-1.959 -6.34,0.219 -8.561,1.305 -11.096,5.438 -2.535,4.133 -0.949,10.221 0.318,11.744 1.267,1.523 6.975,1.959 7.607,3.48 0.634,1.521 -1.268,3.045 -1.585,4.131 -0.316,1.088 0.951,1.959 0.951,1.959 0,0 -3.487,-1.523 -6.022,-1.305 -2.537,0.217 -7.292,2.609 -7.292,2.609 0,0 0.952,0.436 0.634,1.088 -0.317,0.652 -0.951,1.305 -0.634,1.957 0.316,0.652 1.268,1.086 1.268,1.086 0,0 -1.585,0.219 -2.536,-1.086 -0.951,-1.305 0.951,-1.523 0.317,-2.176 -0.634,-0.653 -1.902,-0.434 -1.902,-0.434 0,0 0.952,-0.219 2.536,-2.176 1.585,-1.957 2.219,-3.045 4.438,-3.045 2.221,0 4.756,0.217 4.756,0.217 0,0 2.22,-0.869 1.269,-2.174 -0.951,-1.305 -8.243,-2.176 -8.243,-2.176 0,0 2.219,-1.305 2.219,-2.391 0,-1.088 -1.584,-3.264 -4.438,-4.785 -2.853,-1.523 -5.072,-3.916 -5.072,-8.482 0,-4.566 -1.208,-5.607 -3.109,-7.348 l 0.666,-3 c 0,0 1.81,4.041 3.712,5.346 l 4.755,-2.176 c 0,0 -0.951,2.828 -3.487,3.916 0,0 -1.901,3.697 -0.316,6.307 1.585,2.61 5.706,4.566 5.706,4.566 0,0 1.269,-6.307 1.902,-7.611 0.633,-1.305 1.902,-2.609 2.219,-3.48 0.316,-0.869 -1.903,-6.307 -1.586,-8.047 0.318,-1.738 2.854,-6.959 7.609,-7.395 -10e-4,0.001 0.634,-7.61 4.12,-7.175 z"
           inkscape:connector-curvature="0" /><path
           id="path57"
           d="m 110.332,227.444 c 0,0 -2.537,-0.65 -4.756,0.436 -2.219,1.088 -3.805,4.35 -1.902,6.09 0,0 0.951,0.652 1.902,-0.436 0,0 -0.316,-4.566 1.586,-5.002 1.902,-0.436 3.17,-1.088 3.17,-1.088 z"
           inkscape:connector-curvature="0" /><path
           id="path59"
           d="m 107.795,221.573 c 0,0 3.486,-1.521 6.657,-0.652 3.17,0.869 5.072,4.783 5.072,4.783 0,0 1.585,-2.826 -1.268,-5 -2.854,-2.176 -7.608,-0.871 -9.827,-0.652 -2.218,0.217 -2.536,0.433 -0.634,1.521 z"
           inkscape:connector-curvature="0" /><path
           id="path61"
           d="m 111.916,219.833 c 0,0 0.952,-1.74 -0.316,-2.174 -1.268,-0.436 -2.854,-0.871 -2.219,-1.523 0.634,-0.652 3.804,0.652 4.755,2.609 0.951,1.959 0.951,1.959 0.951,1.959 l -3.171,-0.871 z"
           inkscape:connector-curvature="0" /><path
           id="path63"
           d="m 114.452,228.751 c 0,0 6.023,5.436 6.023,11.09 0,5.656 -2.854,10.223 -5.072,10.223 -2.218,0 -2.221,-1.957 -3.804,-1.523 -1.585,0.436 -3.804,2.395 -1.585,2.828 2.22,0.436 4.438,1.305 6.34,0.436 1.902,-0.871 4.121,-1.959 5.391,-3.916 1.266,-1.957 0.949,-6.088 1.266,-8.264 0.318,-2.176 -3.802,-9.787 -5.389,-10.873 -1.584,-1.089 -3.17,-1.96 -3.17,-0.001 z"
           inkscape:connector-curvature="0" /><path
           id="path65"
           d="m 100.821,246.149 c 0,0 2.536,-0.436 3.487,-1.523 0.951,-1.086 1.267,0.219 0.633,2.393 -0.633,2.174 -0.95,5.654 -0.316,7.178 0.635,1.521 3.488,5.654 7.291,5.219 3.805,-0.436 5.073,-1.521 6.024,-2.826 0.951,-1.307 2.852,-1.523 3.169,-0.219 0.317,1.304 -0.949,2.828 -1.585,3.697 -0.633,0.869 -0.317,0.869 -2.219,1.521 -1.902,0.654 -5.706,1.523 -8.876,0.436 -3.17,-1.087 -6.023,-5.871 -6.023,-7.395 0,-1.522 -0.635,-6.307 -1.585,-8.481 z"
           inkscape:connector-curvature="0" /></g><path
         id="path67"
         d="m 78.057,265.321 c 0,0 0.345,-8.244 2.678,-9.91 2.334,-1.666 3.008,-1.418 3.08,-2.137 0.055,-0.555 0.11,-0.748 -1.554,-0.693 -1.333,0.045 -4.871,2.406 -4.871,2.406 l 0.667,10.334 z"
         inkscape:connector-curvature="0" /><path
         id="path69"
         d="m 105.723,207.987 c 0,0 -3,1 -2.333,2.666 0.667,1.668 0.666,2.334 -0.667,2.334 -1.333,0 -2,-2 -3.666,-1.334 -1.667,0.668 -0.334,3.334 -2,3.668 -1.667,0.332 -2.334,-0.002 -3.334,0.332 -1,0.334 -4.666,3 -4.333,4.334 0.333,1.332 3.667,-2 4.667,-1.334 1,0.668 2.666,1.666 1.333,2.334 -1.333,0.666 -5.333,0.666 -7,2.334 -1.667,1.666 -2.093,2.613 -3,1.666 -0.95,-0.994 2,-7 4,-8.666 2,-1.668 12.999,-9.002 16.333,-8.334 z"
         inkscape:connector-curvature="0" /><path
         id="path71"
         d="m 84.56,236.685 c 0,0 -1.689,0.705 -2.206,0.518 -0.517,-0.189 -1.83,-1.361 -2.488,-2.629 -0.656,-1.268 -0.375,-2.254 -0.094,-2.91 l -1.408,1.408 -0.751,5.115 0.423,-0.375 c 0,0 0.141,-1.268 0.609,-1.221 0.47,0.047 1.502,0.939 1.502,0.939 l 3.005,0.422 1.455,-0.846 -0.047,-0.421 z"
         inkscape:connector-curvature="0" /><path
         id="path73"
         d="m 80.291,253.274 c 0,0 -1.054,0.555 -1.525,0.334 -0.472,-0.223 -0.666,-1 -0.666,-1 l 0.416,2.109 h 1.109 l 0.666,-1.443 z"
         inkscape:connector-curvature="0" /><path
         id="path75"
         d="m 119.39,255.821 c 0.869,0.521 1.692,0.93 1.525,1.43 -0.167,0.5 -1.525,13.736 -7.525,14.07 -6,0.332 -11.167,-1.5 -14.167,0.5 -3,2 0.334,3.832 0.334,3.832 0,0 0.334,2.334 -2.334,0.5 0,0 -0.832,0.5 -1,0 -0.166,-0.5 -0.333,-3.998 1.167,-4.832 1.5,-0.834 3.667,-1.5 4.667,-2.168 1,-0.666 7.836,0.76 9.67,0.432 3.843,-0.691 3.578,-4.029 5.078,-6.529 1.5,-2.5 1.752,-7.735 2.585,-7.235 z"
         inkscape:connector-curvature="0" /><path
         id="path77"
         d="m 80.057,269.653 c 0,0 1.333,3.668 3.333,3.668 0,0 -2.667,1 -2.333,2.332 0.333,1.334 -1,-6 -1,-6 z"
         inkscape:connector-curvature="0" /><path
         id="path79"
         d="m 112.824,275.64 c 0,0 1.548,-3.174 4.548,-3.361 3,-0.187 2.559,-0.207 3.559,-0.395 1,-0.188 2.584,-3.418 3.646,-3.668 1.062,-0.25 1.438,-0.625 1.875,-0.438 0.437,0.187 0.188,0.688 -0.063,0.813 -0.251,0.125 -1.188,0.25 -1.625,0.5 -0.437,0.25 -1.25,2.875 -3,3.688 -1.75,0.813 -3.112,0.895 -3.8,1.082 -0.688,0.187 -2.892,1.395 -3.954,2.77 10e-4,-10e-4 -1.581,0.591 -1.186,-0.991 z"
         inkscape:connector-curvature="0" /></g><path
       id="path81"
       d="m 91.167,191.888 -8.958,3.016 -0.062,9.303 c -0.294,-0.036 -0.616,-0.027 -0.954,0.034 -1.366,0.251 -2.473,1.26 -2.473,2.254 0,0.993 1.106,1.596 2.473,1.347 1.363,-0.25 2.469,-1.259 2.469,-2.252 0,-0.036 -0.012,-0.068 -0.015,-0.104 v -7.826 l 6.018,-2.029 v 5.954 c -0.299,-0.039 -0.626,-0.031 -0.972,0.031 -1.366,0.251 -2.473,1.26 -2.473,2.254 0,0.993 1.106,1.596 2.473,1.347 1.334,-0.244 2.413,-1.216 2.46,-2.188 h 0.012 l 0.002,-11.141 z"
       inkscape:connector-curvature="0" /><path
       id="path83"
       d="m 58.167,220.888 -8.958,3.016 -0.062,9.303 c -0.294,-0.036 -0.616,-0.027 -0.954,0.034 -1.366,0.251 -2.473,1.26 -2.473,2.254 0,0.993 1.106,1.596 2.473,1.347 1.363,-0.25 2.469,-1.259 2.469,-2.252 0,-0.036 -0.012,-0.068 -0.015,-0.104 v -7.826 l 6.018,-2.029 v 5.954 c -0.299,-0.039 -0.626,-0.031 -0.972,0.031 -1.366,0.251 -2.473,1.26 -2.473,2.254 0,0.993 1.106,1.596 2.473,1.347 1.334,-0.244 2.413,-1.216 2.46,-2.188 h 0.012 l 0.002,-11.141 z"
       inkscape:connector-curvature="0" /><path
       id="path85"
       d="m 69.167,242.888 -8.958,3.016 -0.062,9.303 c -0.294,-0.036 -0.616,-0.027 -0.954,0.034 -1.366,0.251 -2.473,1.26 -2.473,2.254 0,0.993 1.106,1.596 2.473,1.347 1.363,-0.25 2.469,-1.259 2.469,-2.252 0,-0.036 -0.012,-0.068 -0.015,-0.104 v -7.826 l 6.018,-2.029 v 5.954 c -0.299,-0.039 -0.626,-0.031 -0.972,0.031 -1.366,0.251 -2.473,1.26 -2.473,2.254 0,0.993 1.106,1.596 2.473,1.347 1.334,-0.244 2.413,-1.216 2.46,-2.188 h 0.012 l 0.002,-11.141 z"
       inkscape:connector-curvature="0" /><path
       id="path87"
       d="m 160.667,183.888 -8.958,3.016 -0.062,9.303 c -0.294,-0.036 -0.616,-0.027 -0.954,0.034 -1.366,0.251 -2.473,1.26 -2.473,2.254 0,0.993 1.106,1.596 2.473,1.347 1.363,-0.25 2.469,-1.259 2.469,-2.252 0,-0.036 -0.012,-0.068 -0.015,-0.104 v -7.826 l 6.018,-2.029 v 5.954 c -0.299,-0.039 -0.626,-0.031 -0.972,0.031 -1.366,0.251 -2.473,1.26 -2.473,2.254 0,0.993 1.106,1.596 2.473,1.347 1.334,-0.244 2.413,-1.216 2.46,-2.188 h 0.012 l 0.002,-11.141 z"
       inkscape:connector-curvature="0" /><path
       id="path89"
       d="m 203,200.388 -8.958,3.016 -0.062,9.303 c -0.294,-0.036 -0.616,-0.027 -0.954,0.034 -1.366,0.251 -2.473,1.26 -2.473,2.254 0,0.993 1.106,1.596 2.473,1.347 1.363,-0.25 2.469,-1.259 2.469,-2.252 0,-0.036 -0.012,-0.068 -0.015,-0.104 v -7.826 l 6.018,-2.029 v 5.954 c -0.299,-0.039 -0.626,-0.031 -0.972,0.031 -1.366,0.251 -2.473,1.26 -2.473,2.254 0,0.993 1.106,1.596 2.473,1.347 1.334,-0.244 2.413,-1.216 2.46,-2.188 h 0.012 L 203,200.388 z"
       inkscape:connector-curvature="0" /><path
       id="path91"
       d="m 196.667,227.888 -8.958,3.016 -0.062,9.303 c -0.294,-0.036 -0.616,-0.027 -0.954,0.034 -1.366,0.251 -2.473,1.26 -2.473,2.254 0,0.993 1.106,1.596 2.473,1.347 1.363,-0.25 2.469,-1.259 2.469,-2.252 0,-0.036 -0.012,-0.068 -0.015,-0.104 v -7.826 l 6.018,-2.029 v 5.954 c -0.299,-0.039 -0.626,-0.031 -0.972,0.031 -1.366,0.251 -2.473,1.26 -2.473,2.254 0,0.993 1.106,1.596 2.473,1.347 1.334,-0.244 2.413,-1.216 2.46,-2.188 h 0.012 l 0.002,-11.141 z"
       inkscape:connector-curvature="0" /><polygon
       id="polygon95"
       points="211.207,278.548 210.805,299.575 47.442,299.575 47.844,278.548 "
       style="fill:#9999ff" /><path
       id="path97"
       d="m 166.078,278.493 h 9 c 0,0 -0.57,-2.297 -2.574,-2.352 -2.002,-0.052 -6.428,2.353 -6.426,2.352 z"
       inkscape:connector-curvature="0"
       style="fill:#ff9900" /><path
       id="path99"
       d="m 97.557,275.259 c 0,0 -2.922,-0.893 -5.254,-0.797 -2.333,0.094 -3.338,2.086 -3.338,2.086 0,0 2.432,-0.986 3.758,-0.967 1.328,0.02 3.676,1.023 3.676,1.023 l 1.158,-1.345 z"
       inkscape:connector-curvature="0" /><rect
       style="fill:#ffffff;fill-opacity:1;stroke:#000000"
       id="rect101"
       height="25.333"
       width="170"
       y="275.888"
       x="43.563" /><g
       style="fill:#000000;fill-opacity:1"
       id="g103"><g
         style="fill:#000000;fill-opacity:1"
         id="g105"><path
           style="fill:#000000;fill-opacity:1"
           id="path107"
           d="m 51.35,279.122 h 5.039 l 3.995,10.522 4.229,-10.522 h 5.092 l 2.977,19.688 H 67.564 L 66.128,287.478 H 66.076 L 61.35,298.81 H 59.314 L 54.796,287.478 H 54.744 L 53.1,298.81 h -5.092 l 3.342,-19.688 z"
           inkscape:connector-curvature="0" /><path
           style="fill:#000000;fill-opacity:1"
           id="path109"
           d="m 79.418,285.415 v 7.154 c 0,1.697 0.418,2.897 2.376,2.897 1.958,0 2.376,-1.2 2.376,-2.897 v -7.154 h 4.752 v 8.067 c 0,4.413 -3.107,5.771 -7.128,5.771 -4.021,0 -7.128,-1.357 -7.128,-5.771 v -8.067 h 4.752 z"
           inkscape:connector-curvature="0" /><path
           style="fill:#000000;fill-opacity:1"
           id="path111"
           d="m 100.802,288.861 c -0.731,-0.392 -1.749,-0.652 -2.559,-0.652 -0.548,0 -1.488,0.234 -1.488,0.913 0,0.914 1.488,1.045 2.141,1.176 2.22,0.443 3.891,1.488 3.891,3.969 0,3.524 -3.212,4.986 -6.318,4.986 -1.906,0 -3.786,-0.548 -5.405,-1.54 l 1.724,-3.316 c 0.966,0.679 2.585,1.358 3.76,1.358 0.601,0 1.488,-0.288 1.488,-1.019 0,-1.045 -1.488,-1.097 -2.977,-1.488 -1.489,-0.391 -2.977,-1.123 -2.977,-3.525 0,-3.289 2.977,-4.752 5.901,-4.752 1.514,0 3.028,0.235 4.412,0.862 l -1.593,3.028 z"
           inkscape:connector-curvature="0" /><path
           style="fill:#000000;fill-opacity:1"
           id="path113"
           d="m 110.384,280.271 c 0,1.462 -1.2,2.663 -2.663,2.663 -1.462,0 -2.663,-1.201 -2.663,-2.663 0,-1.462 1.201,-2.663 2.663,-2.663 1.463,0 2.663,1.202 2.663,2.663 z m -0.287,18.539 h -4.752 v -13.395 h 4.752 v 13.395 z"
           inkscape:connector-curvature="0" /><path
           style="fill:#000000;fill-opacity:1"
           id="path115"
           d="m 122.891,289.775 c -0.705,-0.522 -1.54,-0.94 -2.454,-0.94 -1.827,0 -3.264,1.41 -3.264,3.264 0,1.933 1.384,3.29 3.342,3.29 0.836,0 1.75,-0.339 2.376,-0.914 v 4.021 c -1.044,0.522 -2.193,0.757 -3.342,0.757 -3.969,0 -7.284,-2.95 -7.284,-6.997 0,-4.309 3.289,-7.285 7.493,-7.285 1.097,0 2.193,0.262 3.133,0.783 v 4.021 z"
           inkscape:connector-curvature="0" /><path
           style="fill:#000000;fill-opacity:1"
           id="path117"
           d="m 125.945,298.81 v -19.688 h 7.312 c 3.498,0 5.849,1.358 5.849,5.118 0,1.775 -0.575,3.211 -2.168,4.021 v 0.053 c 2.82,0.365 4.021,2.271 4.021,5.013 0,4.125 -3.525,5.483 -7.128,5.483 h -7.886 z m 5.118,-11.959 h 0.574 c 1.357,0 2.768,-0.234 2.768,-1.905 0,-1.802 -1.593,-1.906 -2.977,-1.906 h -0.365 v 3.811 z m 0,8.042 h 0.652 c 1.515,0 4.073,0.078 4.073,-2.089 0,-2.376 -2.532,-2.141 -4.203,-2.141 h -0.522 v 4.23 z"
           inkscape:connector-curvature="0" /><path
           style="fill:#000000;fill-opacity:1"
           id="path119"
           d="m 148.27,287.608 h 0.053 c 0.913,-1.646 2.48,-2.376 4.334,-2.376 h 0.914 v 4.569 c -0.653,-0.366 -1.279,-0.444 -2.011,-0.444 -2.637,0 -3.29,1.749 -3.29,4.047 v 5.405 h -4.752 v -13.395 h 4.752 v 2.194 z"
           inkscape:connector-curvature="0" /><path
           style="fill:#000000;fill-opacity:1"
           id="path121"
           d="m 169.993,298.81 h -4.752 v -1.488 h -0.053 c -0.835,1.331 -2.479,1.932 -4.047,1.932 -3.969,0 -6.762,-3.315 -6.762,-7.154 0,-3.838 2.741,-7.128 6.71,-7.128 1.54,0 3.159,0.575 4.151,1.75 v -1.306 h 4.752 v 13.394 z m -10.705,-6.685 c 0,1.697 1.123,3.003 3.055,3.003 1.933,0 3.055,-1.306 3.055,-3.003 0,-1.645 -1.122,-3.028 -3.055,-3.028 -1.932,0 -3.055,1.383 -3.055,3.028 z"
           inkscape:connector-curvature="0" /><path
           style="fill:#000000;fill-opacity:1"
           id="path123"
           d="m 178.191,280.271 c 0,1.462 -1.201,2.663 -2.663,2.663 -1.462,0 -2.663,-1.201 -2.663,-2.663 0,-1.462 1.201,-2.663 2.663,-2.663 1.462,0 2.663,1.202 2.663,2.663 z m -0.287,18.539 h -4.752 v -13.395 h 4.752 v 13.395 z"
           inkscape:connector-curvature="0" /><path
           style="fill:#000000;fill-opacity:1"
           id="path125"
           d="m 185.79,287.139 h 0.052 c 1.097,-1.619 2.429,-2.168 4.282,-2.168 3.603,0 5.039,2.271 5.039,5.562 v 8.277 h -4.752 v -6.527 c 0,-1.28 0.209,-3.525 -2.141,-3.525 -1.933,0 -2.48,1.437 -2.48,3.107 v 6.945 h -4.752 v -13.395 h 4.752 v 1.724 z"
           inkscape:connector-curvature="0" /><path
           style="fill:#000000;fill-opacity:1"
           id="path127"
           d="m 210.516,294.866 v 3.943 h -13.577 l 6.293,-9.452 h -5.457 v -3.942 h 13.368 l -6.267,9.451 h 5.64 z"
           inkscape:connector-curvature="0" /></g><g
         style="fill:#000000;fill-opacity:1"
         id="g129"><path
           style="fill:#000000;fill-opacity:1"
           id="path131"
           d="m 51.35,279.122 h 5.039 l 3.995,10.522 4.229,-10.522 h 5.092 l 2.977,19.688 H 67.564 L 66.128,287.478 H 66.076 L 61.35,298.81 H 59.314 L 54.796,287.478 H 54.744 L 53.1,298.81 h -5.092 l 3.342,-19.688 z"
           inkscape:connector-curvature="0" /><path
           style="fill:#000000;fill-opacity:1"
           id="path133"
           d="m 79.418,285.415 v 7.154 c 0,1.697 0.418,2.897 2.376,2.897 1.958,0 2.376,-1.2 2.376,-2.897 v -7.154 h 4.752 v 8.067 c 0,4.413 -3.107,5.771 -7.128,5.771 -4.021,0 -7.128,-1.357 -7.128,-5.771 v -8.067 h 4.752 z"
           inkscape:connector-curvature="0" /><path
           style="fill:#000000;fill-opacity:1"
           id="path135"
           d="m 100.802,288.861 c -0.731,-0.392 -1.749,-0.652 -2.559,-0.652 -0.548,0 -1.488,0.234 -1.488,0.913 0,0.914 1.488,1.045 2.141,1.176 2.22,0.443 3.891,1.488 3.891,3.969 0,3.524 -3.212,4.986 -6.318,4.986 -1.906,0 -3.786,-0.548 -5.405,-1.54 l 1.724,-3.316 c 0.966,0.679 2.585,1.358 3.76,1.358 0.601,0 1.488,-0.288 1.488,-1.019 0,-1.045 -1.488,-1.097 -2.977,-1.488 -1.489,-0.391 -2.977,-1.123 -2.977,-3.525 0,-3.289 2.977,-4.752 5.901,-4.752 1.514,0 3.028,0.235 4.412,0.862 l -1.593,3.028 z"
           inkscape:connector-curvature="0" /><path
           style="fill:#000000;fill-opacity:1"
           id="path137"
           d="m 110.384,280.271 c 0,1.462 -1.2,2.663 -2.663,2.663 -1.462,0 -2.663,-1.201 -2.663,-2.663 0,-1.462 1.201,-2.663 2.663,-2.663 1.463,0 2.663,1.202 2.663,2.663 z m -0.287,18.539 h -4.752 v -13.395 h 4.752 v 13.395 z"
           inkscape:connector-curvature="0" /><path
           style="fill:#000000;fill-opacity:1"
           id="path139"
           d="m 122.891,289.775 c -0.705,-0.522 -1.54,-0.94 -2.454,-0.94 -1.827,0 -3.264,1.41 -3.264,3.264 0,1.933 1.384,3.29 3.342,3.29 0.836,0 1.75,-0.339 2.376,-0.914 v 4.021 c -1.044,0.522 -2.193,0.757 -3.342,0.757 -3.969,0 -7.284,-2.95 -7.284,-6.997 0,-4.309 3.289,-7.285 7.493,-7.285 1.097,0 2.193,0.262 3.133,0.783 v 4.021 z"
           inkscape:connector-curvature="0" /><path
           style="fill:#000000;fill-opacity:1"
           id="path141"
           d="m 125.945,298.81 v -19.688 h 7.312 c 3.498,0 5.849,1.358 5.849,5.118 0,1.775 -0.575,3.211 -2.168,4.021 v 0.053 c 2.82,0.365 4.021,2.271 4.021,5.013 0,4.125 -3.525,5.483 -7.128,5.483 h -7.886 z m 5.118,-11.959 h 0.574 c 1.357,0 2.768,-0.234 2.768,-1.905 0,-1.802 -1.593,-1.906 -2.977,-1.906 h -0.365 v 3.811 z m 0,8.042 h 0.652 c 1.515,0 4.073,0.078 4.073,-2.089 0,-2.376 -2.532,-2.141 -4.203,-2.141 h -0.522 v 4.23 z"
           inkscape:connector-curvature="0" /><path
           style="fill:#000000;fill-opacity:1"
           id="path143"
           d="m 148.27,287.608 h 0.053 c 0.913,-1.646 2.48,-2.376 4.334,-2.376 h 0.914 v 4.569 c -0.653,-0.366 -1.279,-0.444 -2.011,-0.444 -2.637,0 -3.29,1.749 -3.29,4.047 v 5.405 h -4.752 v -13.395 h 4.752 v 2.194 z"
           inkscape:connector-curvature="0" /><path
           style="fill:#000000;fill-opacity:1"
           id="path145"
           d="m 169.993,298.81 h -4.752 v -1.488 h -0.053 c -0.835,1.331 -2.479,1.932 -4.047,1.932 -3.969,0 -6.762,-3.315 -6.762,-7.154 0,-3.838 2.741,-7.128 6.71,-7.128 1.54,0 3.159,0.575 4.151,1.75 v -1.306 h 4.752 v 13.394 z m -10.705,-6.685 c 0,1.697 1.123,3.003 3.055,3.003 1.933,0 3.055,-1.306 3.055,-3.003 0,-1.645 -1.122,-3.028 -3.055,-3.028 -1.932,0 -3.055,1.383 -3.055,3.028 z"
           inkscape:connector-curvature="0" /><path
           style="fill:#000000;fill-opacity:1"
           id="path147"
           d="m 178.191,280.271 c 0,1.462 -1.201,2.663 -2.663,2.663 -1.462,0 -2.663,-1.201 -2.663,-2.663 0,-1.462 1.201,-2.663 2.663,-2.663 1.462,0 2.663,1.202 2.663,2.663 z m -0.287,18.539 h -4.752 v -13.395 h 4.752 v 13.395 z"
           inkscape:connector-curvature="0" /><path
           style="fill:#000000;fill-opacity:1"
           id="path149"
           d="m 185.79,287.139 h 0.052 c 1.097,-1.619 2.429,-2.168 4.282,-2.168 3.603,0 5.039,2.271 5.039,5.562 v 8.277 h -4.752 v -6.527 c 0,-1.28 0.209,-3.525 -2.141,-3.525 -1.933,0 -2.48,1.437 -2.48,3.107 v 6.945 h -4.752 v -13.395 h 4.752 v 1.724 z"
           inkscape:connector-curvature="0" /><path
           style="fill:#000000;fill-opacity:1"
           id="path151"
           d="m 210.516,294.866 v 3.943 h -13.577 l 6.293,-9.452 h -5.457 v -3.942 h 13.368 l -6.267,9.451 h 5.64 z"
           inkscape:connector-curvature="0" /></g></g></g></svg>