<?xml version="1.0" encoding="UTF-8" standalone="no"?>
<svg id="Layer_1" xmlns:rdf="http://www.w3.org/1999/02/22-rdf-syntax-ns#" style="enable-background:new 0 0 32 32;" xmlns="http://www.w3.org/2000/svg" xml:space="preserve" height="32px" viewBox="0 0 32 32" width="32px" version="1.1" xmlns:cc="http://creativecommons.org/ns#" xmlns:dc="http://purl.org/dc/elements/1.1/"><metadata id="metadata3059"><rdf:RDF><cc:Work rdf:about=""><dc:format>image/svg+xml</dc:format><dc:type rdf:resource="http://purl.org/dc/dcmitype/StillImage"/><dc:title/></cc:Work></rdf:RDF></metadata><path id="path3053" fill="#ffffff" d="M14,2c-0.781,0-1.313,0.438-2,1.016l-6,4.984h-4c-1.1,0-2,0.9-2,2v12c0,1.1,0.9,2,2,2h4l6,4.984c0.688,0.579,1.219,1.016,2,1.016,1.219,0,2-0.984,2-2v-24c0-1.016-0.781-2-2-2zm-2,21.784-4.555-3.784-3.445,0,0-8,3.445,0,4.555-3.784z"/></svg>
