<?xml version="1.0" encoding="UTF-8" standalone="no"?>
<svg
   xmlns:dc="http://purl.org/dc/elements/1.1/"
   xmlns:cc="http://creativecommons.org/ns#"
   xmlns:rdf="http://www.w3.org/1999/02/22-rdf-syntax-ns#"
   xmlns:svg="http://www.w3.org/2000/svg"
   xmlns="http://www.w3.org/2000/svg"
   xmlns:sodipodi="http://sodipodi.sourceforge.net/DTD/sodipodi-0.dtd"
   xmlns:inkscape="http://www.inkscape.org/namespaces/inkscape"
   width="205.66005mm"
   height="207.89409mm"
   viewBox="0 0 205.66004 207.89409"
   version="1.1"
   id="svg8"
   sodipodi:docname="ratandtag.svg"
   inkscape:version="0.92.2 5c3e80d, 2017-08-06">
  <sodipodi:namedview
     pagecolor="#ffffff"
     bordercolor="#666666"
     borderopacity="1"
     objecttolerance="10"
     gridtolerance="10"
     guidetolerance="10"
     inkscape:pageopacity="0"
     inkscape:pageshadow="2"
     inkscape:window-width="1349"
     inkscape:window-height="899"
     id="namedview10"
     showgrid="false"
     inkscape:zoom="0.30035326"
     inkscape:cx="388.64891"
     inkscape:cy="392.87072"
     inkscape:window-x="609"
     inkscape:window-y="137"
     inkscape:window-maximized="0"
     inkscape:current-layer="svg8" />
  <defs
     id="defs2" />
  <metadata
     id="metadata5">
    <rdf:RDF>
      <cc:Work
         rdf:about="">
        <dc:format>image/svg+xml</dc:format>
        <dc:type
           rdf:resource="http://purl.org/dc/dcmitype/StillImage" />
        <dc:title />
      </cc:Work>
    </rdf:RDF>
  </metadata>
  <style
     type="text/css"
     id="style3111">
	.st0{fill:#ffffff;}
</style>
  <style
     type="text/css"
     id="style2">
	.st0{fill:none;}
	.st1{fill:#F4481E;}
	.st2{fill:url(#SVGID_1_);}
	.st3{opacity:0.1;fill:#FFFFFF;enable-background:new    ;}
	.st4{fill:#FFD119;}
	.st5{fill:#FF8C00;}
	.st6{fill:url(#SVGID_2_);}
	.st7{fill:#FAFAFA;}
	.st8{opacity:0.3;fill:#FFFFFF;enable-background:new    ;}
</style>
  <g
     id="g819"
     transform="matrix(1.4002093,0,0,1.4002093,-39.870029,-43.349341)">
    <path
       style="fill:#ffffff;fill-rule:evenodd;stroke:#ffffff;stroke-width:1.29788911;stroke-miterlimit:4;stroke-dasharray:none"
       stroke-miterlimit="4"
       d="M 102.89191,108.21399 79.03378,92.532822 54.967789,108.02943 62.508765,80.493116 40.333544,62.393618 68.852224,61.056228 79.213191,34.373872 89.297458,61.084024 117.87663,62.692698 95.590581,80.537335 Z"
       id="path3817"
       inkscape:connector-curvature="0" />
    <path
       id="path3925"
       d="m 157.84529,99.361137 h -22.11323 c -4.05432,0 -9.7167,2.345413 -12.58337,5.212093 L 88.89473,138.8272 c -2.866668,2.86666 -2.866668,7.55779 0,10.42447 l 26.43132,26.43101 c 2.86666,2.86682 7.55765,2.86682 10.42432,0 l 34.25398,-34.25381 c 2.86666,-2.86682 5.21208,-8.52936 5.21208,-12.58338 v -22.11322 c 0,-4.05418 -3.31713,-7.371133 -7.37114,-7.371133 z m -9.79455,24.522413 c -4.06306,0 -7.35672,-3.29368 -7.35672,-7.35673 0,-4.06306 3.29366,-7.35672 7.35672,-7.35672 4.06306,0 7.35672,3.29366 7.35672,7.35672 0,4.06305 -3.29366,7.35673 -7.35672,7.35673 z"
       style="stroke-width:0.15326504;fill:#ffffff;fill-opacity:1"
       inkscape:connector-curvature="0" />
  </g>
<style id="stylebodge1" type="text/css">[id^="polygon"]{fill:#ffffff;fill-opacity:1}</style><style id="stylebodge2" type="text/css">[id^="path"]{fill:#ffffff;fill-opacity:1}</style></svg>
