<?xml version="1.0" encoding="UTF-8" standalone="no"?>
<!-- Generator: Adobe Illustrator 16.0.4, SVG Export Plug-In . SVG Version: 6.00 Build 0)  -->

<svg
   xmlns:dc="http://purl.org/dc/elements/1.1/"
   xmlns:cc="http://creativecommons.org/ns#"
   xmlns:rdf="http://www.w3.org/1999/02/22-rdf-syntax-ns#"
   xmlns:svg="http://www.w3.org/2000/svg"
   xmlns="http://www.w3.org/2000/svg"
   xmlns:sodipodi="http://sodipodi.sourceforge.net/DTD/sodipodi-0.dtd"
   xmlns:inkscape="http://www.inkscape.org/namespaces/inkscape"
   id="Capa_1"
   enable-background="new 0 0 216 146"
   xml:space="preserve"
   height="146"
   viewBox="0 0 146 146"
   width="146"
   version="1.1"
   y="0px"
   x="0px"
   inkscape:version="0.48.5 r10040"
   sodipodi:docname="resize.svg"><defs
     id="defs7"><filter
       inkscape:label="Invert"
       x="0"
       y="0"
       width="1"
       height="1"
       inkscape:menu="Color"
       inkscape:menu-tooltip="Invert colors"
       color-interpolation-filters="sRGB"
       id="filter2984"><feColorMatrix
         type="saturate"
         values="1"
         result="fbSourceGraphic"
         id="feColorMatrix2986" /><feColorMatrix
         in="fbSourceGraphic"
         values="-1 0 0 0 1 0 -1 0 0 1 0 0 -1 0 1 0 0 0 1 0 "
         id="feColorMatrix2988" /></filter></defs><sodipodi:namedview
     pagecolor="#ffffff"
     bordercolor="#666666"
     borderopacity="1"
     objecttolerance="10"
     gridtolerance="10"
     guidetolerance="10"
     inkscape:pageopacity="0"
     inkscape:pageshadow="2"
     inkscape:window-width="640"
     inkscape:window-height="480"
     id="namedview5"
     showgrid="false"
     inkscape:zoom="1.6164384"
     inkscape:cx="73"
     inkscape:cy="73"
     inkscape:window-x="0"
     inkscape:window-y="0"
     inkscape:window-maximized="0"
     inkscape:current-layer="Capa_1" /><metadata
     id="metadata9"><rdf:RDF><cc:Work
         rdf:about=""><dc:format>image/svg+xml</dc:format><dc:type
           rdf:resource="http://purl.org/dc/dcmitype/StillImage" /><dc:title /></cc:Work></rdf:RDF></metadata><path
     id="path3"
     d="M145.2,69.013,124.35,48.156c-1.033-1.032-2.255-1.548-3.666-1.548-1.412,0-2.635,0.516-3.668,1.548-1.031,1.032-1.547,2.254-1.547,3.666v10.429h-83.424v-10.429c0-1.412-0.516-2.634-1.548-3.666-1.033-1.032-2.255-1.548-3.667-1.548s-2.634,0.516-3.666,1.548l-20.857,20.857c-1.032,1.031-1.548,2.254-1.548,3.666s0.516,2.634,1.548,3.666l20.857,20.857c1.032,1.031,2.253,1.548,3.666,1.548s2.635-0.517,3.667-1.548c1.032-1.032,1.548-2.254,1.548-3.666v-10.43h83.429v10.43c0,1.412,0.516,2.634,1.547,3.666,1.033,1.031,2.256,1.548,3.668,1.548,1.411,0,2.633-0.517,3.666-1.548l20.856-20.857c1.032-1.032,1.548-2.254,1.548-3.666s-0.516-2.635-1.548-3.666z"
     style="filter:url(#filter2984)" /></svg>