<?xml version="1.0" encoding="UTF-8" standalone="no"?>
<!-- Generator: Adobe Illustrator 17.0.0, SVG Export Plug-In . SVG Version: 6.00 Build 0)  -->

<svg
   xmlns:dc="http://purl.org/dc/elements/1.1/"
   xmlns:cc="http://creativecommons.org/ns#"
   xmlns:rdf="http://www.w3.org/1999/02/22-rdf-syntax-ns#"
   xmlns:svg="http://www.w3.org/2000/svg"
   xmlns="http://www.w3.org/2000/svg"
   xmlns:sodipodi="http://sodipodi.sourceforge.net/DTD/sodipodi-0.dtd"
   xmlns:inkscape="http://www.inkscape.org/namespaces/inkscape"
   version="1.1"
   id="Layer_1"
   x="0px"
   y="0px"
   width="26px"
   height="26px"
   viewBox="0 0 26 26"
   enable-background="new 0 0 26 26"
   xml:space="preserve"
   inkscape:version="0.48.5 r10040"
   sodipodi:docname="smartradio.svg"><metadata
     id="metadata9"><rdf:RDF><cc:Work
         rdf:about=""><dc:format>image/svg+xml</dc:format><dc:type
           rdf:resource="http://purl.org/dc/dcmitype/StillImage" /></cc:Work></rdf:RDF></metadata><defs
     id="defs7"><filter
       inkscape:label="Invert"
       x="0"
       y="0"
       width="1"
       height="1"
       inkscape:menu="Color"
       inkscape:menu-tooltip="Invert colors"
       color-interpolation-filters="sRGB"
       id="filter2986"><feColorMatrix
         type="saturate"
         values="1"
         result="fbSourceGraphic"
         id="feColorMatrix2988" /><feColorMatrix
         in="fbSourceGraphic"
         values="-1 0 0 0 1 0 -1 0 0 1 0 0 -1 0 1 0 0 0 1 0 "
         id="feColorMatrix2990" /></filter></defs><sodipodi:namedview
     pagecolor="#ffffff"
     bordercolor="#666666"
     borderopacity="1"
     objecttolerance="10"
     gridtolerance="10"
     guidetolerance="10"
     inkscape:pageopacity="0"
     inkscape:pageshadow="2"
     inkscape:window-width="640"
     inkscape:window-height="480"
     id="namedview5"
     showgrid="false"
     inkscape:zoom="9.0769231"
     inkscape:cx="13"
     inkscape:cy="13"
     inkscape:window-x="0"
     inkscape:window-y="0"
     inkscape:window-maximized="0"
     inkscape:current-layer="Layer_1" /><path
     d="M20,13c0,1.971-0.838,3.862-2.3,5.188c-0.287,0.261-0.647,0.39-1.008,0.39c-0.408,0-0.814-0.166-1.11-0.492  c-0.557-0.613-0.511-1.562,0.103-2.118C16.521,15.208,17,14.127,17,13c0-1.13-0.478-2.21-1.31-2.965  c-0.614-0.556-0.661-1.505-0.104-2.119c0.556-0.615,1.504-0.661,2.118-0.104C19.163,9.134,20,11.025,20,13z M21.514,4.534  c-0.584-0.587-1.535-0.589-2.121-0.005c-0.588,0.584-0.59,1.534-0.006,2.122C21.072,8.343,22,10.598,22,13  c0,2.396-0.93,4.649-2.618,6.347c-0.584,0.587-0.582,1.537,0.006,2.121c0.292,0.291,0.675,0.437,1.058,0.437  c0.385,0,0.771-0.147,1.063-0.442C23.76,19.199,25,16.194,25,13C25,9.8,23.762,6.793,21.514,4.534z M13,11.187  c-1.003,0-1.812,0.809-1.812,1.813c0,1,0.81,1.813,1.813,1.813c1.003,0,1.812-0.813,1.812-1.813  C14.813,11.996,14.003,11.187,13,11.187z M10.419,7.914C9.862,7.3,8.914,7.254,8.3,7.811C6.838,9.137,6,11.029,6,13  c0,1.977,0.837,3.867,2.297,5.188c0.287,0.26,0.647,0.388,1.006,0.388c0.409,0,0.816-0.166,1.113-0.493  c0.556-0.614,0.508-1.563-0.106-2.119C9.478,15.211,9,14.131,9,13c0-1.127,0.479-2.208,1.316-2.967  C10.93,9.476,10.976,8.527,10.419,7.914z M4,13c0-2.396,0.93-4.649,2.618-6.346c0.584-0.587,0.583-1.537-0.005-2.121  C6.027,3.948,5.077,3.951,4.492,4.538C2.24,6.8,1,9.806,1,13c0,3.199,1.238,6.206,3.486,8.466c0.293,0.295,0.678,0.442,1.063,0.442  c0.383,0,0.765-0.146,1.058-0.437c0.587-0.584,0.589-1.534,0.005-2.121C4.928,17.656,4,15.401,4,13z"
     id="path3"
     style="filter:url(#filter2986)" /></svg>