<?xml version="1.0" encoding="UTF-8" standalone="no"?>
<!-- Generator: Adobe Illustrator 16.0.4, SVG Export Plug-In . SVG Version: 6.00 Build 0)  -->

<svg
   xmlns:dc="http://purl.org/dc/elements/1.1/"
   xmlns:cc="http://creativecommons.org/ns#"
   xmlns:rdf="http://www.w3.org/1999/02/22-rdf-syntax-ns#"
   xmlns:svg="http://www.w3.org/2000/svg"
   xmlns="http://www.w3.org/2000/svg"
   xmlns:sodipodi="http://sodipodi.sourceforge.net/DTD/sodipodi-0.dtd"
   xmlns:inkscape="http://www.inkscape.org/namespaces/inkscape"
   id="Layer_1"
   enable-background="new 0 0 100 100"
   xml:space="preserve"
   height="100px"
   viewBox="0 0 100 100"
   width="100px"
   version="1.1"
   y="0px"
   x="0px"
   inkscape:version="0.48.5 r10040"
   sodipodi:docname="somafm.svg"><defs
     id="defs14"><filter
       inkscape:label="Invert"
       x="0"
       y="0"
       width="1"
       height="1"
       inkscape:menu="Color"
       inkscape:menu-tooltip="Invert colors"
       color-interpolation-filters="sRGB"
       id="filter2991"><feColorMatrix
         type="saturate"
         values="1"
         result="fbSourceGraphic"
         id="feColorMatrix2993" /><feColorMatrix
         in="fbSourceGraphic"
         values="-1 0 0 0 1 0 -1 0 0 1 0 0 -1 0 1 0 0 0 1 0 "
         id="feColorMatrix2995" /></filter><filter
       inkscape:label="Invert"
       x="0"
       y="0"
       width="1"
       height="1"
       inkscape:menu="Color"
       inkscape:menu-tooltip="Invert colors"
       color-interpolation-filters="sRGB"
       id="filter2997"><feColorMatrix
         type="saturate"
         values="1"
         result="fbSourceGraphic"
         id="feColorMatrix2999" /><feColorMatrix
         in="fbSourceGraphic"
         values="-1 0 0 0 1 0 -1 0 0 1 0 0 -1 0 1 0 0 0 1 0 "
         id="feColorMatrix3001" /></filter><filter
       inkscape:label="Invert"
       x="0"
       y="0"
       width="1"
       height="1"
       inkscape:menu="Color"
       inkscape:menu-tooltip="Invert colors"
       color-interpolation-filters="sRGB"
       id="filter3003"><feColorMatrix
         type="saturate"
         values="1"
         result="fbSourceGraphic"
         id="feColorMatrix3005" /><feColorMatrix
         in="fbSourceGraphic"
         values="-1 0 0 0 1 0 -1 0 0 1 0 0 -1 0 1 0 0 0 1 0 "
         id="feColorMatrix3007" /></filter><filter
       inkscape:label="Invert"
       x="0"
       y="0"
       width="1"
       height="1"
       inkscape:menu="Color"
       inkscape:menu-tooltip="Invert colors"
       color-interpolation-filters="sRGB"
       id="filter3009"><feColorMatrix
         type="saturate"
         values="1"
         result="fbSourceGraphic"
         id="feColorMatrix3011" /><feColorMatrix
         in="fbSourceGraphic"
         values="-1 0 0 0 1 0 -1 0 0 1 0 0 -1 0 1 0 0 0 1 0 "
         id="feColorMatrix3013" /></filter><filter
       inkscape:label="Invert"
       x="0"
       y="0"
       width="1"
       height="1"
       inkscape:menu="Color"
       inkscape:menu-tooltip="Invert colors"
       color-interpolation-filters="sRGB"
       id="filter3015"><feColorMatrix
         type="saturate"
         values="1"
         result="fbSourceGraphic"
         id="feColorMatrix3017" /><feColorMatrix
         in="fbSourceGraphic"
         values="-1 0 0 0 1 0 -1 0 0 1 0 0 -1 0 1 0 0 0 1 0 "
         id="feColorMatrix3019" /></filter><filter
       inkscape:label="Invert"
       x="0"
       y="0"
       width="1"
       height="1"
       inkscape:menu="Color"
       inkscape:menu-tooltip="Invert colors"
       color-interpolation-filters="sRGB"
       id="filter3021"><feColorMatrix
         type="saturate"
         values="1"
         result="fbSourceGraphic"
         id="feColorMatrix3023" /><feColorMatrix
         in="fbSourceGraphic"
         values="-1 0 0 0 1 0 -1 0 0 1 0 0 -1 0 1 0 0 0 1 0 "
         id="feColorMatrix3025" /></filter></defs><sodipodi:namedview
     pagecolor="#ffffff"
     bordercolor="#666666"
     borderopacity="1"
     objecttolerance="10"
     gridtolerance="10"
     guidetolerance="10"
     inkscape:pageopacity="0"
     inkscape:pageshadow="2"
     inkscape:window-width="640"
     inkscape:window-height="480"
     id="namedview12"
     showgrid="false"
     inkscape:zoom="2.36"
     inkscape:cx="50"
     inkscape:cy="50"
     inkscape:window-x="0"
     inkscape:window-y="0"
     inkscape:window-maximized="0"
     inkscape:current-layer="Layer_1" /><metadata
     id="metadata25"><rdf:RDF><cc:Work
         rdf:about=""><dc:format>image/svg+xml</dc:format><dc:type
           rdf:resource="http://purl.org/dc/dcmitype/StillImage" /><dc:title /></cc:Work></rdf:RDF></metadata><g
     id="g3"
     fill="#9A9C9F"
     style="filter:url(#filter3021)"><path
       id="path5"
       d="M83.792,51.784h-3.11v6.847h-0.603v-8.644c0-1.579,1.364-2.298,2.507-2.298h1.206v0.563h-1.206c-0.889,0-1.904,0.562-1.904,1.891v1.08h3.11v0.561z" /><path
       id="path7"
       d="M88.963,58.631v-4.907c0-1.407-0.968-2.096-1.951-2.096-0.968,0-1.951,0.688-1.951,2.096v4.907h-0.604v-4.907c0-1.721,1.143-2.658,2.555-2.658,1.19,0,1.92,0.532,2.236,1.454h0.032c0.317-0.922,1.047-1.454,2.237-1.454,1.412,0,2.555,0.938,2.555,2.658v4.907h-0.604v-4.907c0-1.407-0.983-2.096-1.951-2.096-0.983,0-1.951,0.688-1.951,2.096v4.907h-0.603z" /></g><path
     id="path11"
     d="m3.987,57.366h7.214c2.825,0,3.914-1.089,3.914-2.723,0-5.376-11.162-4.992-11.162-11.016,0-2.11,1.464-3.913,4.118-3.913h87.374v1.226h-87.273c-1.395,0-2.791,0.885-2.791,2.654,0,4.764,11.163,4.481,11.163,10.847,0,2.824-2.076,4.151-5.649,4.151h-6.908v-1.226z"
     stroke="#000"
     stroke-miterlimit="10"
     stroke-width="0.47870001000000001"
     fill="#000"
     style="filter:url(#filter3015)" /><path
     id="path13"
     d="m35.428,50.526c0,4.56-3.539,8.405-8.167,8.405s-8.167-3.846-8.167-8.405c0-4.561,3.539-8.406,8.167-8.406s8.167,3.846,8.167,8.406zm-14.973,0c0,3.743,2.859,7.18,6.807,7.18s6.806-3.437,6.806-7.18c0-3.744-2.859-7.181-6.806-7.181s-6.807,3.438-6.807,7.181z"
     stroke="#000"
     stroke-miterlimit="10"
     stroke-width="0.47870001000000001"
     fill="#000"
     style="filter:url(#filter3009)" /><path
     id="path15"
     d="M48.357,58.592v-10.687c0-3.062-2.076-4.56-4.186-4.56-2.076,0-4.186,1.498-4.186,4.56v10.687h-1.293v-10.687c0-3.743,2.45-5.785,5.479-5.785,2.553,0,4.118,1.157,4.798,3.166h0.068c0.68-2.009,2.246-3.166,4.798-3.166,3.029,0,5.479,2.042,5.479,5.785v10.687h-1.293v-10.687c0-3.062-2.109-4.56-4.186-4.56-2.109,0-4.186,1.498-4.186,4.56v10.687h-1.292z"
     stroke="#000"
     stroke-miterlimit="10"
     stroke-width="0.47870001000000001"
     fill="#000"
     style="filter:url(#filter3003)" /><path
     id="path17"
     d="m76.871,58.592v-8.065c0-3.744-2.688-7.181-6.568-7.181-3.267,0-6.499,3.029-6.499,7.181,0,4.151,3.232,7.18,6.499,7.18,2.144,0,3.642-0.884,5.037-2.349v1.532c-0.987,0.816-2.553,2.042-5.037,2.042-4.39,0-7.86-3.539-7.86-8.405,0-4.867,3.471-8.406,7.86-8.406,4.391,0,7.862,3.54,7.862,8.406v8.065h-1.294z"
     stroke="#000"
     stroke-miterlimit="10"
     stroke-width="0.47870001000000001"
     fill="#000"
     style="filter:url(#filter2997)" /><rect
     id="rect19"
     height="0.951"
     width="92.75"
     stroke="#000"
     y="60.441"
     x="3.75"
     fill="#9A9C9F"
     style="filter:url(#filter2991)" /></svg>