<?xml version="1.0" encoding="UTF-8" standalone="no"?>
<!-- Generator: Adobe Illustrator 16.0.4, SVG Export Plug-In . SVG Version: 6.00 Build 0)  -->

<svg
   xmlns:dc="http://purl.org/dc/elements/1.1/"
   xmlns:cc="http://creativecommons.org/ns#"
   xmlns:rdf="http://www.w3.org/1999/02/22-rdf-syntax-ns#"
   xmlns:svg="http://www.w3.org/2000/svg"
   xmlns="http://www.w3.org/2000/svg"
   xmlns:sodipodi="http://sodipodi.sourceforge.net/DTD/sodipodi-0.dtd"
   xmlns:inkscape="http://www.inkscape.org/namespaces/inkscape"
   version="1.1"
   id="Capa_1"
   x="0px"
   y="0px"
   width="16px"
   height="16px"
   viewBox="0 0 16 16"
   enable-background="new 0 0 16 16"
   xml:space="preserve"
   inkscape:version="0.48.5 r10040"
   sodipodi:docname="spotify-logo.svg"><metadata
     id="metadata9"><rdf:RDF><cc:Work
         rdf:about=""><dc:format>image/svg+xml</dc:format><dc:type
           rdf:resource="http://purl.org/dc/dcmitype/StillImage" /></cc:Work></rdf:RDF></metadata><defs
     id="defs7"><filter
       inkscape:label="Invert"
       x="0"
       y="0"
       width="1"
       height="1"
       inkscape:menu="Color"
       inkscape:menu-tooltip="Invert colors"
       color-interpolation-filters="sRGB"
       id="filter2986"><feColorMatrix
         type="saturate"
         values="1"
         result="fbSourceGraphic"
         id="feColorMatrix2988" /><feColorMatrix
         in="fbSourceGraphic"
         values="-1 0 0 0 1 0 -1 0 0 1 0 0 -1 0 1 0 0 0 1 0 "
         id="feColorMatrix2990" /></filter></defs><sodipodi:namedview
     pagecolor="#ffffff"
     bordercolor="#666666"
     borderopacity="1"
     objecttolerance="10"
     gridtolerance="10"
     guidetolerance="10"
     inkscape:pageopacity="0"
     inkscape:pageshadow="2"
     inkscape:window-width="640"
     inkscape:window-height="480"
     id="namedview5"
     showgrid="false"
     inkscape:zoom="14.75"
     inkscape:cx="8"
     inkscape:cy="-1.6868363"
     inkscape:window-x="0"
     inkscape:window-y="0"
     inkscape:window-maximized="0"
     inkscape:current-layer="Capa_1" /><path
     d="M8,0C3.582,0,0,3.582,0,8s3.582,8,8,8s8-3.582,8-8S12.418,0,8,0z M11.695,12.689c-0.1,0.183-0.287,0.285-0.481,0.285  c-0.09,0-0.18-0.021-0.265-0.067c-1.281-0.706-2.736-1.079-4.206-1.079c-0.881,0-1.751,0.131-2.584,0.389  c-0.29,0.09-0.598-0.072-0.687-0.363c-0.09-0.289,0.072-0.904,0.363-0.994c0.939-0.291,1.918-0.438,2.909-0.438  c1.655,0,3.293,0.42,4.736,1.215C11.746,11.782,11.843,12.424,11.695,12.689z M12.712,9.676c-0.114,0.221-0.338,0.577-0.569,0.577  c-0.101,0-0.201-0.022-0.295-0.073C10.26,9.355,8.543,8.938,6.744,8.938c-0.991,0-1.975,0.131-2.925,0.392  c-0.343,0.093-0.695-0.108-0.788-0.45C2.939,8.537,3.14,7.954,3.482,7.861c1.06-0.289,2.158-0.436,3.262-0.436  c1.979,0,3.947,0.48,5.693,1.388C12.752,8.975,12.875,9.361,12.712,9.676z M13.137,7.263c-0.109,0-0.221-0.025-0.326-0.077  c-1.895-0.945-3.936-1.423-6.066-1.423c-1.11,0-2.216,0.135-3.289,0.4C3.062,6.26,2.665,6.021,2.568,5.628  C2.47,5.236,2.71,4.761,3.103,4.664C4.29,4.369,5.515,4.22,6.744,4.22c2.359,0,4.621,0.531,6.72,1.577  c0.363,0.181,0.511,0.621,0.33,0.983C13.665,7.037,13.407,7.263,13.137,7.263z"
     id="path3"
     style="filter:url(#filter2986)" /></svg>