<?xml version="1.0" encoding="UTF-8" standalone="no"?>
<!-- Created with Inkscape (http://www.inkscape.org/) -->

<svg
   xmlns:dc="http://purl.org/dc/elements/1.1/"
   xmlns:cc="http://creativecommons.org/ns#"
   xmlns:rdf="http://www.w3.org/1999/02/22-rdf-syntax-ns#"
   xmlns:svg="http://www.w3.org/2000/svg"
   xmlns="http://www.w3.org/2000/svg"
   xmlns:xlink="http://www.w3.org/1999/xlink"
   xmlns:sodipodi="http://sodipodi.sourceforge.net/DTD/sodipodi-0.dtd"
   xmlns:inkscape="http://www.inkscape.org/namespaces/inkscape"
   id="svg32219"
   height="171.8"
   width="326.08"
   version="1.1"
   inkscape:version="0.48.5 r10040"
   sodipodi:docname="togglebutton-new2-on.svg">
  <sodipodi:namedview
     pagecolor="#ffffff"
     bordercolor="#666666"
     borderopacity="1"
     objecttolerance="10"
     gridtolerance="10"
     guidetolerance="10"
     inkscape:pageopacity="0"
     inkscape:pageshadow="2"
     inkscape:window-width="1352"
     inkscape:window-height="744"
     id="namedview19106"
     showgrid="false"
     inkscape:zoom="1.2924303"
     inkscape:cx="42.113298"
     inkscape:cy="35.101113"
     inkscape:window-x="972"
     inkscape:window-y="175"
     inkscape:window-maximized="0"
     inkscape:current-layer="layer1" />
  <defs
     id="defs32221">
    <linearGradient
       id="linearGradient3823">
      <stop
         style="stop-color:#000000;stop-opacity:1;"
         offset="0"
         id="stop3825" />
      <stop
         style="stop-color:#000000;stop-opacity:0;"
         offset="1"
         id="stop3827" />
    </linearGradient>
    <linearGradient
       id="linearGradient20514">
      <stop
         style="stop-color:#c8c8c8;stop-opacity:1;"
         offset="0"
         id="stop20516" />
      <stop
         style="stop-color:#646464;stop-opacity:1;"
         offset="1"
         id="stop20518" />
    </linearGradient>
    <linearGradient
       inkscape:collect="always"
       id="linearGradient19894">
      <stop
         style="stop-color:#000000;stop-opacity:1;"
         offset="0"
         id="stop19896" />
      <stop
         style="stop-color:#000000;stop-opacity:0;"
         offset="1"
         id="stop19898" />
    </linearGradient>
    <clipPath
       id="clipPath23498"
       clipPathUnits="userSpaceOnUse">
      <path
         id="path23500"
         d="m157.6,38.422,512.98,0,0,506.98-512.98,0,0-506.98z" />
    </clipPath>
    <linearGradient
       id="linearGradient23486"
       gradientUnits="userSpaceOnUse"
       gradientTransform="matrix(-1e-6,-22.608698,-22.608698,1e-6,394.58398,207.11816)">
      <stop
         id="stop23488"
         stop-color="#f9f9f9"
         offset="0" />
      <stop
         id="stop23490"
         stop-color="#5f5c5d"
         offset="1" />
    </linearGradient>
    <clipPath
       id="clipPath23466"
       clipPathUnits="userSpaceOnUse">
      <path
         id="path23468"
         d="m157.6,38.422,512.98,0,0,506.98-512.98,0,0-506.98z" />
    </clipPath>
    <linearGradient
       id="linearGradient23454"
       gradientUnits="userSpaceOnUse"
       gradientTransform="matrix(-1e-6,-22.608562,-22.608562,1e-6,367.80322,207.11719)">
      <stop
         id="stop23456"
         stop-color="#f9f9f9"
         offset="0" />
      <stop
         id="stop23458"
         stop-color="#5f5c5d"
         offset="1" />
    </linearGradient>
    <clipPath
       id="clipPath23422"
       clipPathUnits="userSpaceOnUse">
      <path
         id="path23424"
         d="m157.6,38.422,512.98,0,0,506.98-512.98,0,0-506.98z" />
    </clipPath>
    <clipPath
       id="clipPath15342"
       clipPathUnits="userSpaceOnUse">
      <path
         id="path15344"
         d="m432.4,195.86c0-29.335,23.781-53.114,53.113-53.114,29.331,0,53.11,23.779,53.11,53.114,0,29.331-23.779,53.11-53.11,53.11-29.332,0-53.113-23.779-53.113-53.11" />
    </clipPath>
    <clipPath
       id="clipPath15350"
       clipPathUnits="userSpaceOnUse">
      <path
         id="path15352"
         d="m409.65,271.78,151.75,0,0-151.34-151.75,0,0,151.34z" />
    </clipPath>
    <clipPath
       id="clipPath14644"
       clipPathUnits="userSpaceOnUse">
      <path
         id="path14646"
         d="m432.4,195.86c0-29.335,23.781-53.114,53.113-53.114,29.331,0,53.11,23.779,53.11,53.114,0,29.331-23.779,53.11-53.11,53.11-29.332,0-53.113-23.779-53.113-53.11" />
    </clipPath>
    <clipPath
       id="clipPath12856"
       clipPathUnits="userSpaceOnUse">
      <path
         id="path12858"
         d="m448.7,235.64c-10.691-9.903-17.382-24.057-17.382-39.774,0-8.609,2.007-16.75,5.578-23.978,3.439-6.963,8.332-13.078,14.28-17.955,9.347-7.667,21.306-12.264,34.338-12.264,14.472,0,27.617,5.672,37.339,14.916,10.382,9.871,16.855,23.818,16.855,39.281,0,9.533-2.463,18.494-6.787,26.278-4.635,8.344-11.409,15.334-19.58,20.234-8.135,4.877-17.654,7.68-27.827,7.68-14.213,0-27.149-5.469-36.814-14.418m91.008-39.774" />
    </clipPath>
    <linearGradient
       id="linearGradient11820"
       gradientUnits="userSpaceOnUse"
       gradientTransform="matrix(-5.4e-6,-122.71001,-122.71001,5.4e-6,432.25488,261.33789)">
      <stop
         id="stop11822"
         stop-color="#a9ff00"
         offset="0" />
      <stop
         id="stop11824"
         stop-color="#005600"
         offset="1" />
    </linearGradient>
    <clipPath
       id="clipPath11800"
       clipPathUnits="userSpaceOnUse">
      <path
         id="path11802"
         d="m157.6,38.422,512.98,0,0,506.98-512.98,0,0-506.98z" />
    </clipPath>
    <linearGradient
       id="linearGradient11788"
       gradientUnits="userSpaceOnUse"
       gradientTransform="matrix(184.93996,2.5597227,2.5597227,-184.93996,363.93457,194.7168)">
      <stop
         id="stop11790"
         stop-color="#cbcaca"
         offset="0" />
      <stop
         id="stop11792"
         stop-color="#231f20"
         offset="1" />
    </linearGradient>
    <radialGradient
       inkscape:collect="always"
       xlink:href="#linearGradient19894"
       id="radialGradient19902"
       cx="485.5159"
       cy="195.86031"
       fx="485.5159"
       fy="195.86031"
       r="55.129002"
       gradientTransform="matrix(1,0,0,0.99998186,0,0.00355276)"
       gradientUnits="userSpaceOnUse" />
    <linearGradient
       inkscape:collect="always"
       xlink:href="#linearGradient11820"
       id="linearGradient3819"
       gradientUnits="userSpaceOnUse"
       gradientTransform="matrix(-5.4e-6,-122.71001,-122.71001,5.4e-6,432.25488,261.33789)" />
    <linearGradient
       inkscape:collect="always"
       xlink:href="#linearGradient11820"
       id="linearGradient3866"
       x1="323.995"
       y1="195.655"
       x2="540.51703"
       y2="195.655"
       gradientUnits="userSpaceOnUse" />
  </defs>
  <metadata
     id="metadata32224">
    <rdf:RDF>
      <cc:Work
         rdf:about="">
        <dc:format>image/svg+xml</dc:format>
        <dc:type
           rdf:resource="http://purl.org/dc/dcmitype/StillImage" />
        <dc:title></dc:title>
      </cc:Work>
    </rdf:RDF>
  </metadata>
  <g
     id="layer1"
     transform="translate(-211.96063,-446.46094)">
    <g
       id="g11796"
       transform="matrix(1.25,0,0,-1.25,-164.59125,776.93006)"
       style="fill:none">
      <g
         id="g11798"
         clip-path="url(#clipPath11800)"
         style="fill:none">
        <g
           id="g11804"
           transform="translate(545.6045,194.0273)"
           style="fill:none">
          <path
             id="path11806"
             stroke-linejoin="miter"
             d="m0,0c0-32.361-26.234-58.594-58.595-58.594h-110.68c-32.359,0-58.593,26.233-58.593,58.594v3.254c0,32.361,26.234,58.594,58.593,58.594h110.68c32.366,0,58.6-26.233,58.6-58.594v-3.254z"
             stroke="#4f5654"
             stroke-linecap="butt"
             stroke-miterlimit="10"
             stroke-dasharray="none"
             stroke-width="1"
             fill="none"
             style="fill:none" />
        </g>
      </g>
    </g>
    <g
       id="g11810"
       transform="matrix(1.25,0,0,-1.25,-166.7797,776.93006)"
       style="fill-opacity:1.0;fill:url(#linearGradient3866)">
      <g
         id="g11818"
         style="fill-opacity:1.0;fill:url(#linearGradient3866)">
        <path
           id="path11826"
           d="m 379.67,251.84 c -30.746,0 -55.675,-24.475 -55.675,-54.666 v -3.038 c 0,-30.191 24.929,-54.666 55.675,-54.666 h 105.17 c 30.748,0 55.677,24.475 55.677,54.666 v 3.038 c 0,30.191 -24.929,54.666 -55.677,54.666 H 379.67 z"
           style="fill:url(#linearGradient3866);fill-opacity:1.0"
           inkscape:connector-curvature="0" />
      </g>
    </g>
    <g
       id="g23442"
       transform="matrix(1.25,0,0,-1.25,-164.59125,776.93006)">
      <g
         id="g23444">
        <g
           id="g23450">
          <g
             id="g23452">
            <path
               id="path23460"
               fill="url(#linearGradient23454)"
               d="m359.07,202.46c-2.115-2.127-3.171-5.069-3.171-8.818,0-3.739,1.056-6.675,3.171-8.803,2.112-2.13,5.022-3.192,8.732-3.192,3.72,0,6.631,1.062,8.74,3.192,2.108,2.128,3.162,5.064,3.162,8.803,0,3.749-1.054,6.691-3.162,8.818-2.109,2.128-5.02,3.191-8.74,3.191-3.71,0-6.62-1.063-8.732-3.191m4.499-14.475c-1.001,1.342-1.501,3.228-1.501,5.657,0,2.439,0.5,4.328,1.501,5.671,1.004,1.344,2.414,2.016,4.233,2.016,1.829,0,3.243-0.672,4.245-2.016,1.003-1.343,1.504-3.232,1.504-5.671,0-2.429-0.501-4.315-1.504-5.657-1.002-1.344-2.416-2.013-4.245-2.013-1.819,0-3.229,0.669-4.233,2.013" />
          </g>
        </g>
      </g>
    </g>
    <g
       id="g23462"
       transform="matrix(1.25,0,0,-1.25,-164.59125,776.93006)"
       style="fill:none">
      <g
         id="g23464"
         clip-path="url(#clipPath23466)"
         style="fill:none">
        <g
           id="g23470"
           transform="translate(367.8037,201.334)"
           style="fill:none">
          <path
             id="path23472"
             stroke-linejoin="miter"
             d="m0,0c-1.818,0-3.229-0.672-4.232-2.016-1.001-1.343-1.502-3.232-1.502-5.671,0-2.428,0.501-4.315,1.502-5.657,1.003-1.344,2.414-2.013,4.232-2.013,1.829,0,3.244,0.669,4.246,2.013,1.003,1.342,1.504,3.229,1.504,5.657,0,2.439-0.501,4.328-1.504,5.671-1.002,1.344-2.417,2.016-4.246,2.016zm0,4.322c3.72,0,6.632-1.062,8.74-3.191,2.108-2.127,3.161-5.069,3.161-8.818,0-3.739-1.053-6.674-3.161-8.803s-5.02-3.192-8.74-3.192c-3.709,0-6.621,1.063-8.732,3.192-2.115,2.129-3.17,5.064-3.17,8.803,0,3.749,1.055,6.691,3.17,8.818,2.111,2.129,5.023,3.191,8.732,3.191z"
             stroke="#221f1f"
             stroke-linecap="butt"
             stroke-miterlimit="10"
             stroke-dasharray="none"
             stroke-width="0.5"
             fill="none"
             style="fill:none" />
        </g>
      </g>
    </g>
    <g
       id="g23474"
       transform="matrix(1.25,0,0,-1.25,-164.59125,776.93006)">
      <g
         id="g23476">
        <g
           id="g23482">
          <g
             id="g23484">
            <path
               id="path23492"
               fill="url(#linearGradient23486)"
               d="m399.3,205.24,0-15.874-8.414,15.874-6.666,0,0-23.137,5.656,0,0,15.873,8.417-15.873,6.664,0,0,23.137-5.657,0z" />
          </g>
        </g>
      </g>
    </g>
    <g
       id="g23494"
       transform="matrix(1.25,0,0,-1.25,-164.59125,776.93006)"
       style="fill:none">
      <g
         id="g23496"
         clip-path="url(#clipPath23498)"
         style="fill:none">
        <g
           id="g23502"
           transform="translate(384.2158,205.2383)"
           style="fill:none">
          <path
             id="path23504"
             d="m0,0,6.665,0,8.414-15.873,0,15.873,5.657,0,0-23.137-6.664,0-8.417,15.873,0-15.873-5.655,0v23.137z"
             stroke-miterlimit="10"
             stroke-dasharray="none"
             stroke-linejoin="miter"
             stroke-linecap="butt"
             stroke-width="0.5"
             stroke="#221f1f"
             fill="none"
             style="fill:none" />
        </g>
      </g>
    </g>
    <path
       sodipodi:type="arc"
       style="fill:#f0f0f0;fill-opacity:1;stroke:#000000;stroke-width:1;stroke-linecap:round;stroke-linejoin:miter;stroke-miterlimit:4;stroke-opacity:1;stroke-dasharray:none"
       id="path20512"
       sodipodi:cx="221.28854"
       sodipodi:cy="294.05032"
       sodipodi:rx="57.256474"
       sodipodi:ry="54.935265"
       d="m 278.54502,294.05032 a 57.256474,54.935265 0 1 1 -114.51295,0 57.256474,54.935265 0 1 1 114.51295,0 z"
       transform="matrix(1.2038298,0,0,1.2778415,173.55636,157.08628)" />
  </g>
</svg>
