<?xml version="1.0" encoding="UTF-8" standalone="no"?>
<!-- Generator: Adobe Illustrator 17.0.0, SVG Export Plug-In . SVG Version: 6.00 Build 0)  -->

<svg
   xmlns:dc="http://purl.org/dc/elements/1.1/"
   xmlns:cc="http://creativecommons.org/ns#"
   xmlns:rdf="http://www.w3.org/1999/02/22-rdf-syntax-ns#"
   xmlns:svg="http://www.w3.org/2000/svg"
   xmlns="http://www.w3.org/2000/svg"
   xmlns:sodipodi="http://sodipodi.sourceforge.net/DTD/sodipodi-0.dtd"
   xmlns:inkscape="http://www.inkscape.org/namespaces/inkscape"
   version="1.1"
   id="Layer_1"
   x="0px"
   y="0px"
   width="26px"
   height="26px"
   viewBox="0 0 26 26"
   enable-background="new 0 0 26 26"
   xml:space="preserve"
   inkscape:version="0.48.5 r10040"
   sodipodi:docname="unlistened.svg"><metadata
     id="metadata9"><rdf:RDF><cc:Work
         rdf:about=""><dc:format>image/svg+xml</dc:format><dc:type
           rdf:resource="http://purl.org/dc/dcmitype/StillImage" /></cc:Work></rdf:RDF></metadata><defs
     id="defs7"><filter
       inkscape:label="Invert"
       x="0"
       y="0"
       width="1"
       height="1"
       inkscape:menu="Color"
       inkscape:menu-tooltip="Invert colors"
       color-interpolation-filters="sRGB"
       id="filter2986"><feColorMatrix
         type="saturate"
         values="1"
         result="fbSourceGraphic"
         id="feColorMatrix2988" /><feColorMatrix
         in="fbSourceGraphic"
         values="-1 0 0 0 1 0 -1 0 0 1 0 0 -1 0 1 0 0 0 1 0 "
         id="feColorMatrix2990" /></filter></defs><sodipodi:namedview
     pagecolor="#ffffff"
     bordercolor="#666666"
     borderopacity="1"
     objecttolerance="10"
     gridtolerance="10"
     guidetolerance="10"
     inkscape:pageopacity="0"
     inkscape:pageshadow="2"
     inkscape:window-width="640"
     inkscape:window-height="480"
     id="namedview5"
     showgrid="false"
     inkscape:zoom="9.0769231"
     inkscape:cx="13"
     inkscape:cy="13"
     inkscape:window-x="0"
     inkscape:window-y="0"
     inkscape:window-maximized="0"
     inkscape:current-layer="Layer_1" /><path
     d="M15.774,20.626c-0.146,0.253-0.266,0.497-0.366,0.746C14.844,22.761,13.525,26,9.642,26C6.1,26,5,22.335,5,21  c0-0.553,0.448-1,1-1s1,0.447,1,1c0,0.03,0.28,3,2.642,3c2.113,0,3.063-1.292,3.913-3.377c0.134-0.334,0.294-0.661,0.487-0.997  c0.275-0.479,0.889-0.643,1.366-0.366C15.887,19.536,16.051,20.147,15.774,20.626z M25.386,24.71  c-0.195,0.195-0.451,0.293-0.707,0.293s-0.512-0.098-0.707-0.293l-10.76-10.76c0,0.003,0.001,0.006,0.002,0.009l-4.15-4.152  c0.001-0.001,0.002-0.002,0.003-0.003L1.99,2.728c-0.391-0.391-0.391-1.023,0-1.414s1.023-0.391,1.414,0l3.153,3.153  C7.726,1.841,10.589,0,13.797,0C17.742,0,22,3.291,22,8.607c0,4.062-1.505,6.413-3.07,8.233l6.456,6.456  C25.776,23.687,25.776,24.319,25.386,24.71z M17.513,15.424C18.88,13.815,20,11.942,20,8.607C20,4.526,16.78,2,13.797,2  c-3.092,0-5.167,2.039-5.663,4.044l2.134,2.134C11.422,4.811,12.306,4,14.422,4c1.953,0,3.585,1.418,3.585,4.133  C18.007,8.555,17.969,9,17.61,9c-0.917,0,0.328-3-2.688-3c-1.92,0-2.854,1.602-2.546,4.286L17.513,15.424z M8,17.115  c0,0.309,0,1.893,2,1.893c1.18,0,2.35-1.048,2.914-2.521l-2.963-2.963C9.97,13.604,10,13.676,10,13.772C10,15.602,8,15.101,8,17.115  z"
     id="path3"
     style="filter:url(#filter2986)" /></svg>