<?xml version="1.0" encoding="UTF-8" standalone="no"?>
<!-- Generator: Adobe Illustrator 16.0.0, SVG Export Plug-In . SVG Version: 6.00 Build 0)  -->

<svg
   xmlns:dc="http://purl.org/dc/elements/1.1/"
   xmlns:cc="http://creativecommons.org/ns#"
   xmlns:rdf="http://www.w3.org/1999/02/22-rdf-syntax-ns#"
   xmlns:svg="http://www.w3.org/2000/svg"
   xmlns="http://www.w3.org/2000/svg"
   xmlns:sodipodi="http://sodipodi.sourceforge.net/DTD/sodipodi-0.dtd"
   xmlns:inkscape="http://www.inkscape.org/namespaces/inkscape"
   version="1.1"
   x="0px"
   y="0px"
   width="31.236px"
   height="28.311px"
   viewBox="0 0 31.236 28.311"
   style="enable-background:new 0 0 31.236 28.311;"
   xml:space="preserve"
   id="svg2"
   inkscape:version="0.48.5 r10040"
   sodipodi:docname="volume.svg"><metadata
     id="metadata18"><rdf:RDF><cc:Work
         rdf:about=""><dc:format>image/svg+xml</dc:format><dc:type
           rdf:resource="http://purl.org/dc/dcmitype/StillImage" /></cc:Work></rdf:RDF></metadata><defs
     id="defs16"><filter
       inkscape:label="Invert"
       x="0"
       y="0"
       width="1"
       height="1"
       inkscape:menu="Color"
       inkscape:menu-tooltip="Invert colors"
       color-interpolation-filters="sRGB"
       id="filter2995"><feColorMatrix
         type="saturate"
         values="1"
         result="fbSourceGraphic"
         id="feColorMatrix2997" /><feColorMatrix
         in="fbSourceGraphic"
         values="-1 0 0 0 1 0 -1 0 0 1 0 0 -1 0 1 0 0 0 1 0 "
         id="feColorMatrix2999" /></filter></defs><sodipodi:namedview
     pagecolor="#ffffff"
     bordercolor="#666666"
     borderopacity="1"
     objecttolerance="10"
     gridtolerance="10"
     guidetolerance="10"
     inkscape:pageopacity="0"
     inkscape:pageshadow="2"
     inkscape:window-width="640"
     inkscape:window-height="480"
     id="namedview14"
     showgrid="false"
     inkscape:zoom="8.3359822"
     inkscape:cx="15.618"
     inkscape:cy="14.1555"
     inkscape:window-x="0"
     inkscape:window-y="0"
     inkscape:window-maximized="0"
     inkscape:current-layer="svg2" /><g
     id="c75_volume"
     style="filter:url(#filter2995)"><path
       style="fill:#000000;"
       d="M4.363,9.297H0v9.715h4.363l8.244,6.114c0,0,1.512,1.268,1.512-0.041c0-1.312,0-20.858,0-22.051   c0-1.028-1.33-0.024-1.33-0.024L4.363,9.297z"
       id="path5" /><path
       style="fill:#000000;"
       d="M18.816,7.4c-0.436-0.434-1.137-0.434-1.568,0c-0.436,0.434-0.436,1.138,0,1.568   c1.426,1.431,2.133,3.286,2.135,5.157c-0.002,1.875-0.709,3.742-2.135,5.166c-0.436,0.434-0.436,1.136,0,1.573   c0.215,0.218,0.498,0.324,0.785,0.324c0.281,0,0.566-0.106,0.783-0.324c1.855-1.859,2.787-4.306,2.785-6.739   C21.604,11.691,20.672,9.257,18.816,7.4z"
       id="path7" /><path
       style="fill:#000000;"
       d="M21.824,3.906c-0.438-0.436-1.139-0.436-1.572,0c-0.43,0.435-0.43,1.137,0,1.572   c2.398,2.396,3.592,5.52,3.596,8.657c-0.004,3.154-1.193,6.292-3.596,8.702c-0.432,0.434-0.43,1.133,0,1.57   c0.219,0.212,0.502,0.322,0.787,0.322c0.283,0,0.568-0.11,0.785-0.322c2.832-2.84,4.242-6.562,4.242-10.272   C26.066,10.437,24.645,6.73,21.824,3.906z"
       id="path9" /><path
       style="fill:#000000;"
       d="M25.508,0.326c-0.432-0.436-1.135-0.436-1.57,0c-0.43,0.434-0.43,1.138,0,1.568   c3.387,3.387,5.078,7.809,5.078,12.245c0,4.449-1.686,8.884-5.078,12.278c-0.434,0.433-0.43,1.139,0,1.57   c0.219,0.215,0.504,0.322,0.789,0.322c0.281,0,0.564-0.107,0.781-0.322c3.822-3.825,5.73-8.845,5.729-13.849   C31.238,9.143,29.32,4.137,25.508,0.326z"
       id="path11" /></g><g
     id="Capa_1" /></svg>