<?xml version="1.0" encoding="UTF-8" standalone="no"?>
<svg
   height="760"
   width="760"
   viewBox="-35.20005 -41.33325 193.20917 235.59952"
   version="1.1"
   id="svg6"
   sodipodi:docname="youtube-logo.svg"
   inkscape:version="1.1.2 (0a00cf5339, 2022-02-04)"
   xmlns:inkscape="http://www.inkscape.org/namespaces/inkscape"
   xmlns:sodipodi="http://sodipodi.sourceforge.net/DTD/sodipodi-0.dtd"
   xmlns="http://www.w3.org/2000/svg"
   xmlns:svg="http://www.w3.org/2000/svg">
  <sodipodi:namedview
     id="namedview6"
     pagecolor="#ffffff"
     bordercolor="#666666"
     borderopacity="1.0"
     inkscape:pageshadow="2"
     inkscape:pageopacity="0.0"
     inkscape:pagecheckerboard="0"
     showgrid="false"
     inkscape:zoom="0.84736842"
     inkscape:cx="380"
     inkscape:cy="379.40994"
     inkscape:window-width="2560"
     inkscape:window-height="1367"
     inkscape:window-x="0"
     inkscape:window-y="0"
     inkscape:window-maximized="1"
     inkscape:current-layer="svg6" />
  <defs
     id="defs10" />
  <path
     d="m 173.83403,19.61701 c -2.699,-10.162 -10.65,-18.165 -20.747,-20.881 -18.3,-4.936 -91.682991,-4.936 -91.682991,-4.936 0,0 -73.382,0 -91.682,4.936 -10.097,2.716 -18.049,10.719 -20.747,20.881 -4.904,18.42 -4.904,56.85 -4.904,56.85 0,0 0,38.43 4.904,56.85 2.698,10.162 10.65,18.164 20.747,20.881 18.3,4.935 91.682,4.935 91.682,4.935 0,0 73.382991,0 91.682991,-4.935 10.097,-2.717 18.048,-10.72 20.747,-20.88 4.904,-18.422 4.904,-56.851 4.904,-56.851 0,0 0,-38.43 -4.904,-56.85"
     fill="#282828"
     id="path2"
     style="fill:#ffffff;fill-opacity:1" />
  <path
     d="m 30.737535,111.35801 61.334,-34.89 -61.334,-34.893 z"
     fill="#ffffff"
     id="path4"
     style="fill:#000000;fill-opacity:1" />
</svg>
