<?xml version="1.0" encoding="UTF-8" standalone="no"?>
<svg
   xmlns:dc="http://purl.org/dc/elements/1.1/"
   xmlns:cc="http://creativecommons.org/ns#"
   xmlns:rdf="http://www.w3.org/1999/02/22-rdf-syntax-ns#"
   xmlns:svg="http://www.w3.org/2000/svg"
   xmlns="http://www.w3.org/2000/svg"
   id="svg8"
   version="1.1"
   viewBox="0 0 205.66004 207.89409"
   height="207.89409mm"
   width="205.66005mm">
  <defs
     id="defs2">
    <marker
       style="overflow:visible"
       id="marker8033"
       refX="0.0"
       refY="0.0"
       orient="auto">
      <path
         transform="scale(1.1) translate(1,0)"
         d="M 8.7185878,4.0337352 L -2.2072895,0.016013256 L 8.7185884,-4.0017078 C 6.9730900,-1.6296469 6.9831476,1.6157441 8.7185878,4.0337352 z "
         style="fill-rule:evenodd;stroke-width:0.625;stroke-linejoin:round;stroke:#0000ff;stroke-opacity:1;fill:#0000ff;fill-opacity:1"
         id="path8031" />
    </marker>
    <marker
       style="overflow:visible"
       id="marker7647"
       refX="0.0"
       refY="0.0"
       orient="auto">
      <path
         transform="scale(1.1) translate(1,0)"
         d="M 8.7185878,4.0337352 L -2.2072895,0.016013256 L 8.7185884,-4.0017078 C 6.9730900,-1.6296469 6.9831476,1.6157441 8.7185878,4.0337352 z "
         style="fill-rule:evenodd;stroke-width:0.625;stroke-linejoin:round;stroke:#0000ff;stroke-opacity:1;fill:#0000ff;fill-opacity:1"
         id="path7645" />
    </marker>
    <rect
       y="140"
       x="50"
       width="512"
       id="SVGID_1_"
       height="512" />
    <marker
       id="TriangleOutM"
       refY="0"
       refX="0"
       orient="auto">
      <path
         id="path3919"
         d="m 5.77,0 -8.65,5 0,-10 8.65,5 z"
         transform="scale(0.4,0.4)"
         style="fill-rule:evenodd;stroke:#0000ff;stroke-width:1pt" />
    </marker>
  </defs>
  <metadata
     id="metadata5">
    <rdf:RDF>
      <cc:Work
         rdf:about="">
        <dc:format>image/svg+xml</dc:format>
        <dc:type
           rdf:resource="http://purl.org/dc/dcmitype/StillImage" />
        <dc:title></dc:title>
      </cc:Work>
    </rdf:RDF>
  </metadata>
  <g
     transform="translate(-4.4983063,-46.776161)"
     id="layer1">
    <ellipse
       ry="94.947044"
       rx="93.830025"
       cy="150.72321"
       cx="107.32833"
       id="path815"
       style="opacity:1;fill:none;fill-opacity:1;stroke:#0000ff;stroke-width:18;stroke-linecap:round;stroke-linejoin:miter;stroke-miterlimit:4;stroke-dasharray:none;stroke-opacity:1" />
    <text
       id="text9654"
       y="130.31609"
       x="98.236397"
       style="font-style:normal;font-weight:normal;font-size:10.58333302px;line-height:125%;font-family:Sans;letter-spacing:0px;word-spacing:0px;fill:#0000ff;fill-opacity:1;stroke:none;stroke-width:0.26458332px;stroke-linecap:butt;stroke-linejoin:miter;stroke-opacity:1"
       xml:space="preserve"><tspan
         style="stroke-width:0.26458332px;fill:#0000ff;fill-opacity:1"
         y="139.67986"
         x="98.236397"
         id="tspan9652" /></text>
    <path
       style="fill:#0000ff;stroke-width:1.51894426"
       d="m 159.12585,119.71165 v 82.02299 c 0,6.70008 -5.4515,12.15158 -12.15156,12.15158 H 91.532825 c -6.700063,0 -12.151551,-5.4515 -12.151551,-12.15158 v -53.33317 c 1.733112,0.28877 3.501164,0.47535 5.316301,0.47535 1.286546,0 2.550311,-0.0959 3.797365,-0.24284 v 53.10078 c 0,1.67542 1.362492,3.03791 3.037885,3.03791 h 55.441465 c 1.67539,0 3.03789,-1.36249 3.03789,-3.03791 v -82.02299 c 0,-1.67537 -1.3625,-3.03785 -3.03789,-3.03785 h -30.07358 c 0,-3.16852 -0.47546,-6.22164 -1.32907,-9.11367 h 31.40265 c 6.70006,0 12.15156,5.45149 12.15156,12.15152 z m -74.935603,25.16738 c -15.803096,0 -28.659439,-12.85632 -28.659439,-28.65939 0,-15.80312 12.856343,-28.65945 28.659439,-28.65945 15.803097,0 28.659443,12.85633 28.659443,28.65945 0,15.80307 -12.856346,28.65939 -28.659443,28.65939 z m 0,-6.07575 c 12.45231,0 22.583663,-10.12981 22.583663,-22.58364 0,-12.45383 -10.129837,-22.58369 -22.583663,-22.58369 -12.45382,0 -22.583664,10.12986 -22.583664,22.58369 0,12.45383 10.13136,22.58364 22.583664,22.58364 z m 17.188373,-19.54579 c 1.67691,0 3.03789,-1.36094 3.03789,-3.03785 0,-1.67691 -1.36098,-3.03791 -3.03789,-3.03791 H 87.228138 v -11.92521 c 0,-1.67691 -1.360976,-3.03791 -3.037891,-3.03791 -1.676914,0 -3.037885,1.361 -3.037885,3.03791 v 14.96312 c 0,1.67691 1.360971,3.03785 3.037885,3.03785 z m 35.06179,24.63124 h -32.90945 c -1.67691,0 -3.03788,1.36094 -3.03788,3.03785 0,1.67691 1.36097,3.03791 3.03788,3.03791 h 32.91097 c 1.67691,0 3.03789,-1.361 3.03789,-3.03791 0,-1.67691 -1.36098,-3.03785 -3.03941,-3.03785 z m 0.0545,18.4278 h -32.91083 c -1.67691,0 -3.03788,1.361 -3.03788,3.03791 0,1.67692 1.36097,3.03785 3.03788,3.03785 h 32.91098 c 1.67691,0 3.03788,-1.36093 3.03788,-3.03785 0,-1.67691 -1.35945,-3.03791 -3.03788,-3.03791 z m 0,19.19037 h -32.91083 c -1.67691,0 -3.03788,1.36094 -3.03788,3.03785 0,1.67691 1.36097,3.03791 3.03788,3.03791 h 32.91098 c 1.67691,0 3.03788,-1.361 3.03788,-3.03791 0,-1.67691 -1.35945,-3.03785 -3.03788,-3.03785 z"
       id="path13782" />
  </g>
  <style
     type="text/css"
     id="style2">
	.st0{clip-path:url(#SVGID_2_);fill:#00AEEF;}
</style>
<style id="stylebodge1" type="text/css">[id^="polygon"]{fill:#0000ff;fill-opacity:1}</style><style id="stylebodge2" type="text/css">[id^="path"]{fill:#0000ff;fill-opacity:1}</style></svg>
