<?xml version="1.0" encoding="UTF-8" standalone="no"?>
<svg
   xmlns:dc="http://purl.org/dc/elements/1.1/"
   xmlns:cc="http://creativecommons.org/ns#"
   xmlns:rdf="http://www.w3.org/1999/02/22-rdf-syntax-ns#"
   xmlns:svg="http://www.w3.org/2000/svg"
   xmlns="http://www.w3.org/2000/svg"
   width="205.66005mm"
   height="207.89409mm"
   viewBox="0 0 205.66004 207.89409"
   version="1.1"
   id="svg8">
  <defs
     id="defs2">
    <linearGradient
       gradientUnits="userSpaceOnUse"
       x1="30.06"
       y1="30.06"
       x2="225.94001"
       y2="225.94001"
       id="RSSg">
      <stop
         offset="0.0"
         stop-color="#E3702D"
         id="stop6" />
      <stop
         offset="0.1071"
         stop-color="#EA7D31"
         id="stop8" />
      <stop
         offset="0.3503"
         stop-color="#F69537"
         id="stop10" />
      <stop
         offset="0.5"
         stop-color="#FB9E3A"
         id="stop12" />
      <stop
         offset="0.7016"
         stop-color="#EA7C31"
         id="stop14" />
      <stop
         offset="0.8866"
         stop-color="#DE642B"
         id="stop16" />
      <stop
         offset="1.0"
         stop-color="#D95B29"
         id="stop18" />
    </linearGradient>
    <filter
       x="0"
       y="0"
       width="1"
       height="1"
       color-interpolation-filters="sRGB"
       id="filter3011">
      <feColorMatrix
         type="saturate"
         values="0"
         id="feColorMatrix3013"
         result="fbSourceGraphic" />
      <feColorMatrix
         result="fbSourceGraphicAlpha"
         in="fbSourceGraphic"
         values="0 0 0 -1 0 0 0 0 -1 0 0 0 0 -1 0 0 0 0 1 0"
         id="feColorMatrix3035" />
      <feFlood
         id="feFlood3037"
         result="result1"
         flood-opacity="0"
         flood-color="rgb(128,128,128)"
         in="fbSourceGraphic" />
      <feBlend
         id="feBlend3039"
         in2="fbSourceGraphic"
         mode="normal"
         result="result2" />
      <feComposite
         id="feComposite3041"
         in2="fbSourceGraphic"
         k2="1"
         operator="arithmetic"
         result="result3" />
      <feComposite
         id="feComposite3043"
         in2="fbSourceGraphic"
         operator="in" />
    </filter>
    <filter
       x="0"
       y="0"
       width="1"
       height="1"
       color-interpolation-filters="sRGB"
       id="filter3015">
      <feColorMatrix
         type="saturate"
         values="0"
         id="feColorMatrix3017"
         result="fbSourceGraphic" />
      <feColorMatrix
         result="fbSourceGraphicAlpha"
         in="fbSourceGraphic"
         values="0 0 0 -1 0 0 0 0 -1 0 0 0 0 -1 0 0 0 0 1 0"
         id="feColorMatrix3045" />
      <feFlood
         id="feFlood3047"
         result="result1"
         flood-opacity="0"
         flood-color="rgb(128,128,128)"
         in="fbSourceGraphic" />
      <feBlend
         id="feBlend3049"
         in2="fbSourceGraphic"
         mode="normal"
         result="result2" />
      <feComposite
         id="feComposite3051"
         in2="fbSourceGraphic"
         k2="1"
         operator="arithmetic"
         result="result3" />
      <feComposite
         id="feComposite3053"
         in2="fbSourceGraphic"
         operator="in" />
    </filter>
    <filter
       x="0"
       y="0"
       width="1"
       height="1"
       color-interpolation-filters="sRGB"
       id="filter3019">
      <feColorMatrix
         type="saturate"
         values="0"
         id="feColorMatrix3021"
         result="fbSourceGraphic" />
      <feColorMatrix
         result="fbSourceGraphicAlpha"
         in="fbSourceGraphic"
         values="0 0 0 -1 0 0 0 0 -1 0 0 0 0 -1 0 0 0 0 1 0"
         id="feColorMatrix3055" />
      <feFlood
         id="feFlood3057"
         result="result1"
         flood-opacity="0"
         flood-color="rgb(128,128,128)"
         in="fbSourceGraphic" />
      <feBlend
         id="feBlend3059"
         in2="fbSourceGraphic"
         mode="normal"
         result="result2" />
      <feComposite
         id="feComposite3061"
         in2="fbSourceGraphic"
         k2="1"
         operator="arithmetic"
         result="result3" />
      <feComposite
         id="feComposite3063"
         in2="fbSourceGraphic"
         operator="in" />
    </filter>
    <filter
       x="0"
       y="0"
       width="1"
       height="1"
       color-interpolation-filters="sRGB"
       id="filter3023">
      <feColorMatrix
         type="saturate"
         values="0"
         id="feColorMatrix3025"
         result="fbSourceGraphic" />
      <feColorMatrix
         result="fbSourceGraphicAlpha"
         in="fbSourceGraphic"
         values="0 0 0 -1 0 0 0 0 -1 0 0 0 0 -1 0 0 0 0 1 0"
         id="feColorMatrix3065" />
      <feFlood
         id="feFlood3067"
         result="result1"
         flood-opacity="0"
         flood-color="rgb(128,128,128)"
         in="fbSourceGraphic" />
      <feBlend
         id="feBlend3069"
         in2="fbSourceGraphic"
         mode="normal"
         result="result2" />
      <feComposite
         id="feComposite3071"
         in2="fbSourceGraphic"
         k2="1"
         operator="arithmetic"
         result="result3" />
      <feComposite
         id="feComposite3073"
         in2="fbSourceGraphic"
         operator="in" />
    </filter>
    <filter
       x="0"
       y="0"
       width="1"
       height="1"
       color-interpolation-filters="sRGB"
       id="filter3027">
      <feColorMatrix
         type="saturate"
         values="0"
         id="feColorMatrix3029"
         result="fbSourceGraphic" />
      <feColorMatrix
         result="fbSourceGraphicAlpha"
         in="fbSourceGraphic"
         values="0 0 0 -1 0 0 0 0 -1 0 0 0 0 -1 0 0 0 0 1 0"
         id="feColorMatrix3075" />
      <feFlood
         id="feFlood3077"
         result="result1"
         flood-opacity="0"
         flood-color="rgb(128,128,128)"
         in="fbSourceGraphic" />
      <feBlend
         id="feBlend3079"
         in2="fbSourceGraphic"
         mode="normal"
         result="result2" />
      <feComposite
         id="feComposite3081"
         in2="fbSourceGraphic"
         k2="1"
         operator="arithmetic"
         result="result3" />
      <feComposite
         id="feComposite3083"
         in2="fbSourceGraphic"
         operator="in" />
    </filter>
    <filter
       x="0"
       y="0"
       width="1"
       height="1"
       color-interpolation-filters="sRGB"
       id="filter3031">
      <feColorMatrix
         type="saturate"
         values="0"
         id="feColorMatrix3033"
         result="fbSourceGraphic" />
      <feColorMatrix
         result="fbSourceGraphicAlpha"
         in="fbSourceGraphic"
         values="0 0 0 -1 0 0 0 0 -1 0 0 0 0 -1 0 0 0 0 1 0"
         id="feColorMatrix3085" />
      <feFlood
         id="feFlood3087"
         result="result1"
         flood-opacity="0"
         flood-color="rgb(128,128,128)"
         in="fbSourceGraphic" />
      <feBlend
         id="feBlend3089"
         in2="fbSourceGraphic"
         mode="normal"
         result="result2" />
      <feComposite
         id="feComposite3091"
         in2="fbSourceGraphic"
         k2="1"
         operator="arithmetic"
         result="result3" />
      <feComposite
         id="feComposite3093"
         in2="fbSourceGraphic"
         operator="in" />
    </filter>
  </defs>
  <metadata
     id="metadata5">
    <rdf:RDF>
      <cc:Work
         rdf:about="">
        <dc:format>image/svg+xml</dc:format>
        <dc:type
           rdf:resource="http://purl.org/dc/dcmitype/StillImage" />
        <dc:title></dc:title>
      </cc:Work>
    </rdf:RDF>
  </metadata>
  <ellipse
     ry="94.947044"
     rx="93.830025"
     cy="103.94704"
     cx="102.83002"
     id="path815"
     style="opacity:1;fill:none;fill-opacity:1;stroke:#0000ff;stroke-width:18;stroke-linecap:round;stroke-linejoin:miter;stroke-miterlimit:4;stroke-dasharray:none;stroke-opacity:1" />
  <style
     type="text/css"
     id="style3111">
	.st0{fill:#0000ff;}
</style>
  <style
     type="text/css"
     id="style2">
	.st0{fill:none;}
	.st1{fill:#F4481E;}
	.st2{fill:url(#SVGID_1_);}
	.st3{opacity:0.1;fill:#FFFFFF;enable-background:new    ;}
	.st4{fill:#FFD119;}
	.st5{fill:#FF8C00;}
	.st6{fill:url(#SVGID_2_);}
	.st7{fill:#FAFAFA;}
	.st8{opacity:0.3;fill:#FFFFFF;enable-background:new    ;}
</style>
  <g
     transform="matrix(0.95288161,0,0,0.95288161,-203.80578,-0.04170154)"
     id="g4663">
    <rect
       id="rect21"
       y="160.1889"
       x="265.47791"
       height="5.7427711"
       width="111.98734"
       style="stroke-width:0.26458287;fill:#0000ff;fill-opacity:1" />
    <rect
       id="rect23"
       y="149.14522"
       x="269.89642"
       height="7.9520378"
       width="103.37253"
       style="stroke-width:0.26458287;fill:#0000ff;fill-opacity:1" />
    <rect
       id="rect25"
       y="58.58379"
       x="269.23233"
       height="11.044218"
       width="102.82219"
       style="stroke-width:0.26458287;fill:#0000ff;fill-opacity:1" />
    <polygon
       id="polygon27"
       points="347.7,101.49 144.21,149.07 155.9,162.01 347.7,162.01 539.51,162.01 551.19,149.07 "
       transform="matrix(0.26458286,0,0,0.26458286,228.64797,12.403498)" />
    <path
       id="path47"
       d="m 284.06485,104.58946 c -0.0886,-5.423951 -0.22913,-10.848164 -0.44159,-16.268408 -0.20002,-5.106979 -0.52916,-10.20893 -0.77761,-15.314321 -0.0214,-0.440795 -0.20822,-0.536045 -0.57388,-0.615949 -1.50627,-0.328347 -3.02048,-0.482599 -4.54103,-0.48498 -1.52056,0.0024 -3.03477,0.156633 -4.54104,0.48498 -0.36565,0.07964 -0.55245,0.175154 -0.57388,0.615949 -0.24844,5.105391 -0.57758,10.207342 -0.77761,15.314321 -0.21246,5.420244 -0.35322,10.844457 -0.44159,16.268408 -0.0627,3.84386 -0.0238,7.69063 0.037,11.53555 0.0672,4.26534 0.16193,8.53174 0.3347,12.7939 0.18521,4.57411 0.47149,9.14451 0.72258,13.71571 0.0481,0.87604 0.13785,1.74969 0.20637,2.60112 1.68778,0.4392 3.36126,0.69294 5.03369,0.71384 1.67243,-0.0209 3.34565,-0.27464 5.03369,-0.71384 0.0685,-0.85143 0.15796,-1.72535 0.20611,-2.60112 0.25109,-4.5712 0.53737,-9.1416 0.72258,-13.71571 0.17277,-4.26216 0.26749,-8.52856 0.33469,-12.7939 0.0582,-3.84439 0.0952,-7.69143 0.0344,-11.53582 z"
       style="stroke-width:0.26458287;fill:#0000ff;fill-opacity:1" />
    <path
       id="path49"
       d="m 312.06036,104.58946 c -0.0886,-5.423951 -0.22939,-10.848164 -0.44185,-16.268408 -0.20029,-5.106979 -0.52943,-10.20893 -0.77761,-15.314321 -0.0214,-0.440795 -0.20796,-0.536045 -0.57388,-0.615949 -1.50601,-0.328347 -3.02048,-0.482599 -4.54077,-0.48498 -1.52056,0.0024 -3.03477,0.156633 -4.54104,0.48498 -0.36565,0.07964 -0.55245,0.175154 -0.57388,0.615949 -0.24818,5.105391 -0.57758,10.207342 -0.77761,15.314321 -0.21246,5.420244 -0.35321,10.844457 -0.44158,16.268408 -0.0627,3.84386 -0.0238,7.69063 0.0368,11.53555 0.0675,4.26534 0.16193,8.53174 0.3347,12.7939 0.18547,4.57411 0.47149,9.14451 0.72258,13.71571 0.0481,0.87604 0.13784,1.74969 0.20611,2.60112 1.68803,0.4392 3.36152,0.69294 5.03368,0.71384 1.67243,-0.0209 3.34565,-0.27464 5.03369,-0.71384 0.0683,-0.85143 0.15796,-1.72535 0.20611,-2.60112 0.25083,-4.5712 0.53711,-9.1416 0.72231,-13.71571 0.17278,-4.26216 0.2675,-8.52856 0.33497,-12.7939 0.0609,-3.84439 0.0979,-7.69143 0.037,-11.53582 z"
       style="stroke-width:0.26458287;fill:#0000ff;fill-opacity:1" />
    <path
       id="path51"
       d="m 344.52733,104.58946 c -0.0886,-5.423951 -0.22913,-10.848164 -0.44186,-16.268408 -0.20002,-5.106979 -0.52916,-10.20893 -0.77734,-15.314321 -0.0217,-0.440795 -0.20823,-0.536045 -0.57415,-0.615949 -1.506,-0.328347 -3.02021,-0.482599 -4.54077,-0.48498 -1.52056,0.0024 -3.03476,0.156633 -4.54103,0.48498 -0.36566,0.07964 -0.55245,0.175154 -0.57388,0.615949 -0.24818,5.105391 -0.57759,10.207342 -0.77735,15.314321 -0.21272,5.420244 -0.35322,10.844457 -0.44185,16.268408 -0.0627,3.84386 -0.0238,7.69063 0.037,11.53555 0.0675,4.26534 0.16192,8.53174 0.3347,12.7939 0.18547,4.57411 0.47148,9.14451 0.72257,13.71571 0.0484,0.87604 0.13785,1.74969 0.20611,2.60112 1.68804,0.4392 3.36126,0.69294 5.03369,0.71384 1.67243,-0.0209 3.34565,-0.27464 5.03369,-0.71384 0.0683,-0.85143 0.15796,-1.72535 0.20611,-2.60112 0.25109,-4.5712 0.5371,-9.1416 0.72258,-13.71571 0.1725,-4.26216 0.26722,-8.52856 0.33469,-12.7939 0.0582,-3.84439 0.0979,-7.69143 0.0344,-11.53582 z"
       style="stroke-width:0.26458287;fill:#0000ff;fill-opacity:1" />
    <path
       id="path53"
       d="m 371.86138,104.58946 c -0.0886,-5.423951 -0.22913,-10.848164 -0.44159,-16.268408 -0.20029,-5.106979 -0.52943,-10.20893 -0.77761,-15.314321 -0.0217,-0.440795 -0.20822,-0.536045 -0.57414,-0.615949 -1.50574,-0.328347 -3.02022,-0.482599 -4.54077,-0.48498 -1.5203,0.0024 -3.03477,0.156633 -4.54077,0.48498 -0.36592,0.07964 -0.55245,0.175154 -0.57388,0.615949 -0.24845,5.105391 -0.57785,10.207342 -0.77761,15.314321 -0.21246,5.420244 -0.35322,10.844457 -0.44186,16.268408 -0.0627,3.84386 -0.0238,7.69063 0.037,11.53555 0.0675,4.26534 0.16193,8.53174 0.33497,12.7939 0.1852,4.57411 0.47148,9.14451 0.72231,13.71571 0.0484,0.87604 0.13785,1.74969 0.20611,2.60112 1.6883,0.4392 3.36152,0.69294 5.03369,0.71384 1.67243,-0.0209 3.34591,-0.27464 5.03369,-0.71384 0.0685,-0.85143 0.15795,-1.72535 0.20611,-2.60112 0.25108,-4.5712 0.53736,-9.1416 0.72257,-13.71571 0.17277,-4.26216 0.26723,-8.52856 0.3347,-12.7939 0.0609,-3.84439 0.10054,-7.69143 0.037,-11.53582 z"
       style="stroke-width:0.26458287;fill:#0000ff;fill-opacity:1" />
  </g>
<style id="stylebodge1" type="text/css">[id^="polygon"]{fill:#0000ff;fill-opacity:1}</style><style id="stylebodge2" type="text/css">[id^="path"]{fill:#0000ff;fill-opacity:1}</style></svg>
