<?xml version="1.0" encoding="UTF-8" standalone="no"?>
<svg
   xmlns:dc="http://purl.org/dc/elements/1.1/"
   xmlns:cc="http://creativecommons.org/ns#"
   xmlns:rdf="http://www.w3.org/1999/02/22-rdf-syntax-ns#"
   xmlns:svg="http://www.w3.org/2000/svg"
   xmlns="http://www.w3.org/2000/svg"
   width="205.66005mm"
   height="207.89409mm"
   viewBox="0 0 205.66004 207.89409"
   version="1.1"
   id="svg8">
  <defs
     id="defs2" />
  <metadata
     id="metadata5">
    <rdf:RDF>
      <cc:Work
         rdf:about="">
        <dc:format>image/svg+xml</dc:format>
        <dc:type
           rdf:resource="http://purl.org/dc/dcmitype/StillImage" />
        <dc:title></dc:title>
      </cc:Work>
    </rdf:RDF>
  </metadata>
  <ellipse
     ry="94.947044"
     rx="93.830025"
     cy="103.94704"
     cx="102.83002"
     id="path815"
     style="opacity:1;fill:none;fill-opacity:1;stroke:#0000ff;stroke-width:18;stroke-linecap:round;stroke-linejoin:miter;stroke-miterlimit:4;stroke-dasharray:none;stroke-opacity:1" />
  <style
     type="text/css"
     id="style3111">
	.st0{fill:#0000ff;}
</style>
  <style
     type="text/css"
     id="style2">
	.st0{fill:none;}
	.st1{fill:#F4481E;}
	.st2{fill:url(#SVGID_1_);}
	.st3{opacity:0.1;fill:#FFFFFF;enable-background:new    ;}
	.st4{fill:#FFD119;}
	.st5{fill:#FF8C00;}
	.st6{fill:url(#SVGID_2_);}
	.st7{fill:#FAFAFA;}
	.st8{opacity:0.3;fill:#FFFFFF;enable-background:new    ;}
</style>
  <path
     id="path3817"
     d="M 102.89191,108.21399 79.03378,92.532822 54.967789,108.02943 62.508765,80.493116 40.333544,62.393618 68.852224,61.056228 79.213191,34.373872 89.297458,61.084024 117.87663,62.692698 95.590581,80.537335 Z"
     stroke-miterlimit="4"
     style="fill:#0000ff;fill-rule:evenodd;stroke:#0000ff;stroke-width:1.29788911;stroke-miterlimit:4;stroke-dasharray:none" />
  <path
     style="stroke-width:0.15326504;fill:#0000ff;fill-opacity:1"
     d="m 157.84529,99.361137 h -22.11323 c -4.05432,0 -9.7167,2.345413 -12.58337,5.212093 L 88.89473,138.8272 c -2.866668,2.86666 -2.866668,7.55779 0,10.42447 l 26.43132,26.43101 c 2.86666,2.86682 7.55765,2.86682 10.42432,0 l 34.25398,-34.25381 c 2.86666,-2.86682 5.21208,-8.52936 5.21208,-12.58338 v -22.11322 c 0,-4.05418 -3.31713,-7.371133 -7.37114,-7.371133 z m -9.79455,24.522413 c -4.06306,0 -7.35672,-3.29368 -7.35672,-7.35673 0,-4.06306 3.29366,-7.35672 7.35672,-7.35672 4.06306,0 7.35672,3.29366 7.35672,7.35672 0,4.06305 -3.29366,7.35673 -7.35672,7.35673 z"
     id="path3925" />
<style id="stylebodge1" type="text/css">[id^="polygon"]{fill:#0000ff;fill-opacity:1}</style><style id="stylebodge2" type="text/css">[id^="path"]{fill:#0000ff;fill-opacity:1}</style></svg>
