<?xml version="1.0" encoding="UTF-8" standalone="no"?>
<!-- Created with Inkscape (http://www.inkscape.org/) -->

<svg
   xmlns:dc="http://purl.org/dc/elements/1.1/"
   xmlns:cc="http://creativecommons.org/ns#"
   xmlns:rdf="http://www.w3.org/1999/02/22-rdf-syntax-ns#"
   xmlns:svg="http://www.w3.org/2000/svg"
   xmlns="http://www.w3.org/2000/svg"
   version="1.1"
   width="42"
   height="42"
   viewBox="0 0 42 41.999999"
   id="Capa_1"
   xml:space="preserve"><metadata
     id="metadata42"><rdf:RDF><cc:Work
         rdf:about=""><dc:format>image/svg+xml</dc:format><dc:type
           rdf:resource="http://purl.org/dc/dcmitype/StillImage" /><dc:title></dc:title></cc:Work></rdf:RDF></metadata><defs
     id="defs40" /><g
     transform="translate(1.9491102,-0.19391184)"
     id="_x33_44._Playlist"><g
       id="g4"><path
         d="M 2,19.999 H 14 V 16 H 2 c -1.104,0 -2,0.895 -2,1.999 0,1.104 0.896,2 2,2 z M 2,12 H 14 V 11.999 L 31.141,8 H 2 C 0.896,8 0,8.895 0,9.999 V 10 c 0,1.104 0.896,2 2,2 z M 2,4 H 32 C 33.104,4 34,3.104 34,2 34,0.895 33.104,0 32,0 H 2 C 0.896,0 0,0.895 0,2 0,3.104 0.896,4 2,4 z M 2,28 H 14 V 23.999 H 2 c -1.104,0 -2,0.896 -2,2 V 26 c 0,1.104 0.896,2 2,2 z M 34.077,12.784 21.922,15.215 C 19.756,15.648 18,17.79 18,19.999 V 32.1 c -0.323,-0.065 -0.657,-0.101 -1,-0.101 -2.762,0 -5,2.239 -5,5 0,2.762 2.238,5 5,5 2.761,0 5,-2.238 5,-5 0,-0.255 -0.038,-0.499 -0.075,-0.743 L 22,36.241 V 22.285 L 34,19.999 V 28.1 c -0.323,-0.065 -0.657,-0.101 -1,-0.101 -2.762,0 -5,2.239 -5,5 0,2.762 2.238,5 5,5 2.687,0 4.863,-2.125 4.979,-4.785 L 38,33.21 V 16 c 0,-2.21 -1.757,-3.649 -3.923,-3.216 z M 0,33.999 c 0,1.104 0.896,2 2,2 h 6.059 c 0.163,-1.469 0.676,-2.831 1.459,-4 H 2 c -1.104,0 -2,0.896 -2,2 z"
         id="path6" /></g></g><g
     transform="translate(0,9.9917603e-4)"
     id="g8" /><g
     transform="translate(0,9.9917603e-4)"
     id="g10" /><g
     transform="translate(0,9.9917603e-4)"
     id="g12" /><g
     transform="translate(0,9.9917603e-4)"
     id="g14" /><g
     transform="translate(0,9.9917603e-4)"
     id="g16" /><g
     transform="translate(0,9.9917603e-4)"
     id="g18" /><g
     transform="translate(0,9.9917603e-4)"
     id="g20" /><g
     transform="translate(0,9.9917603e-4)"
     id="g22" /><g
     transform="translate(0,9.9917603e-4)"
     id="g24" /><g
     transform="translate(0,9.9917603e-4)"
     id="g26" /><g
     transform="translate(0,9.9917603e-4)"
     id="g28" /><g
     transform="translate(0,9.9917603e-4)"
     id="g30" /><g
     transform="translate(0,9.9917603e-4)"
     id="g32" /><g
     transform="translate(0,9.9917603e-4)"
     id="g34" /><g
     transform="translate(0,9.9917603e-4)"
     id="g36" /></svg>