<?xml version="1.0" standalone="no"?>
<!DOCTYPE svg PUBLIC "-//W3C//DTD SVG 1.1//EN" "http://www.w3.org/Graphics/SVG/1.1/DTD/svg11.dtd">
<svg xmlns="http://www.w3.org/2000/svg">
<metadata>Copyright (C) 2015 by original authors @ fontello.com</metadata>
<defs>
<font id="rompr" horiz-adv-x="1000" >
<font-face font-family="rompr" font-weight="400" font-stretch="normal" units-per-em="1000" ascent="1000" descent="0" />
<missing-glyph horiz-adv-x="1000" />
<glyph glyph-name="play-circled" unicode="&#xe800;" d="m0 500q0 207 147 354t353 146 354-146 146-354-146-353-354-147-353 147-147 353z m375-250l375 250-375 250 0-500z" horiz-adv-x="1000" />
<glyph glyph-name="pause-circled" unicode="&#xe801;" d="m0 500q0 207 147 354t353 146 354-146 146-354-146-353-354-147-353 147-147 353z m275-260l153 0 0 520-153 0 0-520z m297 0l153 0 0 520-153 0 0-520z" horiz-adv-x="1000" />
<glyph glyph-name="gmusic-circled" unicode="&#xe802;" d="m0 500q0 95 37 182t100 149 150 100 182 37 182-37 149-100 100-149 37-182-37-182-100-150-149-100-182-37q-96 0-184 38h1q106 0 169 51t64 121q0 46-25 79-20 26-51 51-18 14-24 19-25 21-25 42 0 25 33 54 8 8 27 26 33 36 33 93 0 38-16 72t-46 52h56l56 32h-182q-37 0-77-8-59-13-98-59t-39-104q0-61 44-102t106-41q7 0 29 2 0-3-3-10t-3-8q-3-7-3-18 0-28 27-62-31-1-62-5-83-14-125-45-22-16-36-40t-18-47q-97 126-97 286z m172-282q0 27 12 45 19 33 69 49 41 14 89 14 11 0 21-1 2-1 26-18 1-1 8-5t11-9 7-6q2-1 7-6t10-10 6-7q1-2 9-13 5-8 7-14 6-18 6-32 0-53-43-77-37-21-89-21-55 0-102 25-24 13-39 35t-15 51z m46 416q0 42 22 70t59 28q27 0 49-17t36-44q26-56 26-107 0-43-19-68t-58-25q-20 0-40 11-34 21-56 68-19 42-19 84z m304-33h106v-106h53v106h107v53h-107v107h-53v-107h-106v-53z" horiz-adv-x="937.5" />
<glyph glyph-name="increase" unicode="&#xe803;" d="m650 364l57 57q11 11 11 25t-11 26l-253 253q-11 10-25 10t-26-10l-253-254q-10-10-10-25t10-25l57-57q11-10 25-10t25 10l172 172 171-172q11-10 25-10t25 10z m207 136q0-117-57-215t-156-156-215-58-216 58-155 156-58 215 58 215 155 156 216 58 215-58 156-156 57-215z" horiz-adv-x="857.1" />
<glyph glyph-name="decrease" unicode="&#xe804;" d="m454 275l253 253q11 11 11 26t-11 25l-57 57q-10 10-25 10t-25-10l-171-172-172 172q-10 10-25 10t-25-10l-57-57q-10-11-10-25t10-26l253-253q11-10 26-10t25 10z m403 225q0-117-57-215t-156-156-215-58-216 58-155 156-58 215 58 215 155 156 216 58 215-58 156-156 57-215z" horiz-adv-x="857.1" />
<glyph glyph-name="headphones" unicode="&#xe805;" d="m929 506q0-93-34-176l-11-27-103-18q-13-47-51-77t-87-29v-18q0-8-5-13t-13-5h-36q-8 0-13 5t-5 13v321q0 8 5 13t13 5h36q8 0 13-5t5-13v-18q39 0 72-20t52-53l38 7q16 53 16 108 0 82-49 155t-132 117-176 43-176-43-132-117-49-155q0-55 16-108l38-7q19 34 52 53t73 20v18q0 8 5 13t13 5h35q8 0 13-5t5-13v-321q0-8-5-13t-13-5h-35q-8 0-13 5t-5 13v18q-49 0-88 29t-50 77l-103 18-11 27q-34 83-34 176 0 84 37 162t100 135 149 92 178 34 179-34 148-92 100-135 38-162z" horiz-adv-x="928.6" />
<glyph glyph-name="cancel-circled" unicode="&#xe806;" d="m0 221l279 279-279 279 221 221 279-279 279 279 221-221-279-279 279-279-221-221-279 279-279-279z" horiz-adv-x="1000" />
<glyph glyph-name="output-mute" unicode="&#xe807;" d="m0 701l305 0 345 282 0-965-345 279-229 0z m713-283q0 4 2 6l76 76-76 76q-2 2-2 6t2 6l53 53q2 2 5 2t6-2l76-76 77 76q4 2 6 2t5-2l55-53q2-2 2-6t-2-6l-76-76 76-76q2-4 2-7t-2-5l-55-55q-2-1-5-1t-6 1l-77 79-76-79q-2-1-5-1t-6 1l-53 55q-2 2-2 6z" horiz-adv-x="1000" />
<glyph glyph-name="folder-open-empty" unicode="&#xe808;" d="m994 480q0 20-30 20h-607q-22 0-48-12t-39-29l-164-203q-11-13-11-22 0-20 30-20h607q22 0 48 13t40 29l164 203q10 12 10 21z m-637 91h429v90q0 22-16 38t-38 15h-321q-23 0-38 16t-16 38v36q0 22-15 38t-38 15h-179q-22 0-38-15t-16-38v-476l143 175q25 30 65 49t78 19z m708-91q0-34-25-66l-165-203q-24-30-65-49t-78-19h-607q-51 0-88 37t-37 88v536q0 51 37 88t88 37h179q51 0 88-37t37-88v-18h303q51 0 88-37t37-88v-90h107q30 0 56-13t37-40q8-17 8-38z" horiz-adv-x="1071.4" />
<glyph glyph-name="search" unicode="&#xe809;" d="m643 536q0 103-74 176t-176 74-177-74-73-176 73-177 177-73 176 73 74 177z m286-465q0-29-22-50t-50-21q-30 0-50 21l-191 191q-100-69-223-69-80 0-153 31t-125 84-84 125-31 153 31 152 84 126 125 84 153 31 152-31 126-84 84-126 31-152q0-123-69-223l191-191q21-21 21-51z" horiz-adv-x="928.6" />
<glyph glyph-name="cd" unicode="&#xe80a;" d="m5 426q-18 127 29 260 51 126 158 209t234 99 258-29q127-51 210-158t100-234-30-259q-51-126-157-209t-234-100-260 30q-127 51-209 157t-99 234z m89 236q-68-168 4-335t239-233 335 5 233 239-5 334-239 233-334-4-233-239z m57-23q57 144 200 205 15 8 21-7t-8-21q-131-56-183-189-6-14-21-8t-9 20z m59-24q47 121 166 172 14 6 20-9t-8-20q-106-45-151-154-6-14-19-8t-8 19z m57-21q39 94 132 135l2 1q14 6 20-8t-8-21q-84-35-117-119-6-16-21-10t-8 22z m58-24q29 73 101 103t143 1 103-101 1-143-101-103-143-1-103 101-1 143z m58-24q-19-48 2-96t68-66 96 2 66 68-2 96-68 66-96-2-66-68z m57-23q10 24 35 35t47 1 35-35 1-47-35-35-47-1-35 35-1 47z m31-35q5-11 16-16t24 0 16 16 0 24-16 16-24 0-16-16 0-24z m106-210q-6 15 8 21 84 35 117 119 6 16 21 10t8-22q-39-95-132-136l-2 0q-14-6-20 8z m24-57q-6 13 9 21 108 45 151 153 6 15 20 9t9-21q-49-119-168-170-14-6-21 8z m25-58q-6 15 8 21 131 56 183 189 6 14 21 8t9-20q-57-144-200-205l0-2q-15-6-21 9z" horiz-adv-x="998" />
<glyph glyph-name="video" unicode="&#xe80b;" d="m214 107v72q0 14-10 25t-25 10h-72q-14 0-25-10t-11-25v-72q0-14 11-25t25-11h72q14 0 25 11t10 25z m0 214v72q0 14-10 25t-25 11h-72q-14 0-25-11t-11-25v-72q0-14 11-25t25-10h72q14 0 25 10t10 25z m0 215v71q0 15-10 25t-25 11h-72q-14 0-25-11t-11-25v-71q0-15 11-25t25-11h72q14 0 25 11t10 25z m572-429v286q0 14-11 25t-25 11h-429q-14 0-25-11t-10-25v-286q0-14 10-25t25-11h429q15 0 25 11t11 25z m-572 643v71q0 15-10 26t-25 10h-72q-14 0-25-10t-11-26v-71q0-15 11-25t25-11h72q14 0 25 11t10 25z m786-643v72q0 14-11 25t-25 10h-71q-15 0-25-10t-11-25v-72q0-14 11-25t25-11h71q15 0 25 11t11 25z m-214 429v285q0 15-11 26t-25 10h-429q-14 0-25-10t-10-26v-285q0-15 10-25t25-11h429q15 0 25 11t11 25z m214-215v72q0 14-11 25t-25 11h-71q-15 0-25-11t-11-25v-72q0-14 11-25t25-10h71q15 0 25 10t11 25z m0 215v71q0 15-11 25t-25 11h-71q-15 0-25-11t-11-25v-71q0-15 11-25t25-11h71q15 0 25 11t11 25z m0 214v71q0 15-11 26t-25 10h-71q-15 0-25-10t-11-26v-71q0-15 11-25t25-11h71q15 0 25 11t11 25z m71 89v-750q0-36-26-63t-63-26h-893q-36 0-63 26t-26 63v750q0 37 26 63t63 27h893q37 0 63-27t26-63z" horiz-adv-x="1071.4" />
<glyph glyph-name="angle-double-left" unicode="&#xe80c;" d="m350 232q0-7-6-13l-28-28q-5-5-12-5t-13 5l-260 260q-6 6-6 13t6 13l260 260q5 6 13 6t12-6l28-28q6-5 6-13t-6-12l-219-220 219-219q6-6 6-13z m214 0q0-7-5-13l-28-28q-6-5-13-5t-13 5l-260 260q-6 6-6 13t6 13l260 260q6 6 13 6t13-6l28-28q5-5 5-13t-5-12l-220-220 220-219q5-6 5-13z" horiz-adv-x="571.4" />
<glyph glyph-name="angle-double-right" unicode="&#xe80d;" d="m332 464q0-7-6-13l-260-260q-5-5-12-5t-13 5l-28 28q-6 6-6 13t6 13l219 219-219 220q-6 5-6 12t6 13l28 28q5 6 13 6t12-6l260-260q6-5 6-13z m214 0q0-7-5-13l-260-260q-6-5-13-5t-13 5l-28 28q-5 6-5 13t5 13l219 219-219 220q-5 5-5 12t5 13l28 28q6 6 13 6t13-6l260-260q5-5 5-13z" horiz-adv-x="571.4" />
<glyph glyph-name="star" unicode="&#xe80e;" d="m929 639q0-12-15-27l-203-197 48-279q1-4 1-12 0-11-6-19t-17-8q-10 0-22 6l-251 132-250-132q-13-6-23-6-11 0-17 8t-6 19q0 4 1 12l48 279-203 197q-14 15-14 27 0 21 31 26l280 40 126 254q11 23 27 23t28-23l125-254 280-40q32-5 32-26z" horiz-adv-x="928.6" />
<glyph glyph-name="cog-alt" unicode="&#xe80f;" d="m500 500q0 59-42 101t-101 42-101-42-42-101 42-101 101-42 101 42 42 101z m429-286q0 29-22 51t-50 21-50-21-21-51q0-29 21-50t50-21 51 21 21 50z m0 572q0 29-22 50t-50 21-50-21-21-50q0-30 21-51t50-21 51 21 21 51z m-215-235v-103q0-6-4-11t-9-6l-86-14q-6-19-18-42 19-27 50-64 4-6 4-11 0-7-4-11-13-17-46-50t-44-33q-6 0-11 4l-64 50q-21-11-43-17-6-60-13-87-4-13-17-13h-104q-6 0-11 4t-5 10l-13 85q-19 6-42 18l-66-50q-4-4-11-4-6 0-12 4-80 75-80 90 0 5 4 10 5 8 23 30t26 34q-13 24-20 46l-85 13q-5 1-9 5t-4 11v103q0 6 4 11t9 6l86 14q7 19 18 42-19 27-50 64-4 6-4 11 0 7 4 11 12 17 46 50t44 33q6 0 12-4l64-50q19 10 43 18 6 60 13 86 3 13 16 13h104q6 0 11-4t6-10l13-85q19-6 41-17l66 49q5 4 11 4 7 0 12-4 81-75 81-90 0-5-4-10-7-9-24-30t-25-34q13-27 19-46l85-12q5-2 9-6t4-11z m357-298v-78q0-9-83-17-6-15-16-29 28-63 28-77 0-2-2-4-68-40-69-40-5 0-26 27t-29 38q-11-2-17-2t-17 2q-7-12-29-38t-25-27q-1 0-69 40-3 2-3 4 0 14 29 77-10 14-17 29-83 8-83 17v78q0 9 83 18 7 16 17 29-29 63-29 77 0 2 3 4 2 1 19 11t33 19 17 9q4 0 25-26t29-38q12 1 17 1t17-1q28 40 51 63l4 1q2 0 69-39 2-2 2-4 0-14-28-77 9-13 16-29 83-9 83-18z m0 572v-78q0-9-83-18-6-15-16-29 28-63 28-77 0-2-2-4-68-39-69-39-5 0-26 26t-29 38q-11-1-17-1t-17 1q-7-12-29-38t-25-26q-1 0-69 39-3 2-3 4 0 14 29 77-10 14-17 29-83 9-83 18v78q0 9 83 17 7 16 17 29-29 63-29 77 0 2 3 4 2 1 19 11t33 19 17 9q4 0 25-26t29-38q12 2 17 2t17-2q28 40 51 63l4 1q2 0 69-39 2-2 2-4 0-14-28-77 9-13 16-29 83-8 83-17z" horiz-adv-x="1071.4" />
<glyph glyph-name="star-empty" unicode="&#xe810;" d="m634 440l171 165-235 35-106 213-105-213-236-35 171-165-41-235 211 111 211-111z m295 199q0-12-15-27l-203-197 48-279q1-4 1-12 0-27-23-27-10 0-22 6l-251 132-250-132q-13-6-23-6-11 0-17 8t-6 19q0 4 1 12l48 279-203 197q-14 15-14 27 0 21 31 26l280 40 126 254q11 23 27 23t28-23l125-254 280-40q32-5 32-26z" horiz-adv-x="928.6" />
<glyph glyph-name="menu" unicode="&#xe811;" d="m857 250v-71q0-15-10-25t-26-11h-785q-15 0-25 11t-11 25v71q0 15 11 25t25 11h785q15 0 26-11t10-25z m0 286v-72q0-14-10-25t-26-10h-785q-15 0-25 10t-11 25v72q0 14 11 25t25 10h785q15 0 26-10t10-25z m0 285v-71q0-15-10-25t-26-11h-785q-15 0-25 11t-11 25v71q0 15 11 26t25 10h785q15 0 26-10t10-26z" horiz-adv-x="857.1" />
<glyph glyph-name="spotify" unicode="&#xe812;" d="m0 500q0 136 67 251t182 182 251 67 251-67 182-182 67-251q0-101-38-192t-107-160q-60 73-145 114t-183 41q-107 0-199-49t-151-135q-83 71-130 170t-47 211z m164 144q0-17 12-29t30-13q6 0 9 1 144 58 298 58t298-58q1 0 4 0t5-1q17 0 30 13t12 29q0 25-23 37-159 63-326 63-170 0-329-64-20-13-20-36z m46-149l6-16q8-13 23-13 3 0 9 2 127 55 265 55 139 0 267-56 4-2 7-2 15 0 23 13l5 17q0 13-10 21-138 62-292 62-153 0-293-62-10-10-10-21z m48-144q10-25 31-16 108 51 224 51 112 0 219-48 24-13 35 12 5 13 0 23t-14 15q-106 53-240 53-128 0-244-55-19-10-11-35z m61-317q37 48 92 76t116 28q114 0 193-86-104-52-220-52-94 0-181 34z" horiz-adv-x="1000" />
<glyph glyph-name="lastfm-1" unicode="&#xe813;" d="m480 980q198 0 339-140t141-340q0-198-141-339t-339-141q-200 0-340 141t-140 339q0 200 140 340t340 140z m132-620q120 0 120 80 0 66-76 84l-38 8q-32 8-32 34 0 30 40 30 44 0 46-34l58 6q-6 74-100 74-102 0-102-84 0-60 66-76l40-8q40-10 40-36 0-32-62-32-76 0-100 74l-20 58q-18 58-45 81t-85 23q-54 0-95-40t-41-106q0-62 39-99t93-37 86 26l-18 50q-28-28-66-28-32 0-55 25t-23 65q0 50 25 73t57 23q34 0 49-18t27-56l18-58q32-102 154-102z" horiz-adv-x="960" />
<glyph glyph-name="flac-audio" unicode="&#xe814;" d="m-4 1006l2016 0 0-1000-2016 0z m23-877l62 0 0-92-62 0z m100 0l62 0 0-92-62 0z m100 0l62 0 0-92-62 0z m100 0l62 0 0-92-62 0z m-300 123l62 0 0-92-62 0z m100 0l62 0 0-92-62 0z m100 0l62 0 0-92-62 0z m100 0l62 0 0-92-62 0z m-300 123l62 0 0-92-62 0z m100 0l62 0 0-92-62 0z m100 0l62 0 0-92-62 0z m100 0l62 0 0-92-62 0z m-300 123l62 0 0-92-62 0z m100 0l62 0 0-92-62 0z m100 0l62 0 0-92-62 0z m100 0l62 0 0-92-62 0z m-300 123l62 0 0-92-62 0z m100 0l62 0 0-92-62 0z m100 0l62 0 0-92-62 0z m-200 116l62 0 0-93-62 0z m100 0l62 0 0-93-62 0z m100 0l62 0 0-93-62 0z m-200 123l62 0 0-93-62 0z m200 0l62 0 0-93-62 0z m-200 123l62 0 0-93-62 0z m1785-629c-75 0-136 61-136 136s61 136 136 136c34 0 65-12 89-33l84 123c-48 37-108 59-173 59-157 0-285-127-285-285 0-157 128-284 285-284 70 0 133 25 183 66l-90 120c-24-23-57-38-93-38z m-673 400l-19-132c221 72 223-47 223-47v-43c-33 29-76 47-123 47-102 0-185-83-185-185s83-184 185-184c47 0 90 17 123 47v-34l130 7 8 397c0 46-69 202-342 127z m119-414c-40 0-73 30-73 66s33 65 73 65 73-29 73-65-33-66-73-66z m-415-123l0 720 152 16 0-719z m-323 4l146 16v384l84 0v131h-84v17c0 40 35 60 63 60h67l-38 138h-53c-94 0-185-68-185-183v-32h-54l-31-131h84l1-400z m9-88c2 3 7 5 15 5 0 0 1-1 2-1s1 0 2 0v-8c-1 0-2 0-2 0-1 0-1 0-2 0-3 0-5-1-6-2 0-2-1-6-1-12h11v-7h-11v-49h-11v49h-9v7h9v9c0 4 1 7 3 9z m30-18h11v-9c1 2 3 4 6 7 4 2 7 4 12 4 0 0 0 0 1 0s1 0 3-1v-10c-1 1-2 1-2 1s-1 0-2 0c-6 0-10-2-13-5-3-3-5-7-5-11v-32h-11v56z m83-1c5-2 8-4 11-7 2-3 3-7 4-10 1-3 1-7 1-13h-49c1-5 2-10 5-14s8-5 14-5c6 0 10 2 14 5 2 2 3 4 4 7h11c0-2-1-5-3-7-1-3-3-5-5-6-4-3-8-5-13-6-3-1-6-1-9-1-8 0-15 3-21 8-6 5-9 12-9 21 0 9 3 17 9 22s13 9 23 9c4 0 9-1 13-3z m4-22c0 4-1 7-3 10-3 4-8 6-15 6-5 0-9-1-13-4-3-3-5-7-5-12h36z m67 22c5-2 8-4 11-7 2-3 3-7 4-10 1-3 1-7 1-13h-49c1-5 2-10 5-14s8-5 14-5c6 0 10 2 14 5 2 2 3 4 4 7h11c0-2-1-5-3-7-2-3-3-5-5-6-4-3-8-5-13-6-3-1-6-1-9-1-8 0-15 3-21 8-6 5-9 12-9 21 0 9 3 17 9 22s13 9 23 9c4 0 9-1 13-3z m4-22c0 4-1 7-3 10-3 4-8 6-15 6-5 0-9-1-13-4-3-3-5-7-5-12h36z m62 44h11v-77h-11v77z m76-26c6-5 9-12 9-22 0-9-2-16-8-22s-13-9-24-9c-9 0-16 3-22 8s-8 12-8 21c0 10 3 17 9 23s13 8 23 8c8 0 15-2 21-7z m-7-38c3 5 4 10 4 16 0 5-1 10-3 13-3 5-8 8-16 8-6 0-11-2-15-7s-4-10-4-16c0-6 1-11 4-15s8-6 15-6c7 0 13 3 15 7z m37 5c0-3 1-6 2-7 3-3 8-5 15-5 5 0 8 1 12 2 3 2 4 4 4 7 0 3-1 5-3 6-2 1-5 2-10 3l-9 1c-6 2-10 3-13 4-5 3-7 7-7 11 0 5 2 10 7 13s10 5 18 5c10 0 18-3 22-8 3-3 4-6 4-10h-10c-1 2-1 4-3 6-3 3-7 4-14 4-4 0-7-1-10-2s-3-3-3-6c0-2 1-4 4-6 2 0 5-1 8-2l7-1c9-2 14-4 17-5 4-3 7-6 7-12 0-5-3-9-7-13-5-3-12-5-21-5-10 0-17 2-22 6-4 4-6 8-6 14h11z m63 0c1-3 2-6 3-7 3-3 8-5 15-5 4 0 8 1 11 2 4 2 5 4 5 7 0 3-1 5-4 6-1 1-5 2-9 3l-9 1c-6 2-10 3-13 4-5 3-8 7-8 11 0 5 3 10 7 13s11 5 19 5c10 0 17-3 22-8 3-3 4-6 4-10h-10c-1 2-2 4-3 6-3 3-7 4-14 4-4 0-8-1-10-2s-3-3-3-6c0-2 1-4 4-6 2 0 4-1 8-2l7-1c9-2 14-4 17-5 4-3 6-6 6-12 0-5-2-9-6-13-5-3-12-5-21-5-10 0-17 2-22 6-4 4-6 8-6 14h10z m58 59h11v-77h-11v77z m69-22c4-2 8-4 10-7 2-3 4-7 5-10 0-3 1-7 1-13h-49c0-5 2-10 5-14s7-5 14-5c5 0 10 2 13 5 2 2 4 4 5 7h11c-1-2-2-5-3-7-2-3-4-5-6-6-3-3-7-5-12-6-3-1-6-1-9-1-9 0-16 3-21 8-6 5-9 12-9 21 0 9 3 17 9 22 5 6 13 9 22 9 5 0 10-1 14-3z m4-22c0 4-2 7-3 10-3 4-8 6-15 6-6 0-10-1-13-4-4-3-6-7-6-12h37z m32-15c1-3 2-6 3-7 3-3 8-5 15-5 5 0 8 1 11 2 4 2 5 4 5 7 0 3-1 5-4 6-1 1-4 2-9 3l-9 1c-6 2-10 3-13 4-5 3-7 7-7 11 0 5 2 10 6 13 5 3 11 5 19 5 10 0 18-3 22-8 3-3 4-6 4-10h-10c-1 2-2 4-3 6-3 3-7 4-14 4-4 0-8-1-10-2s-3-3-3-6c0-2 1-4 4-6 2 0 5-1 8-2l7-1c9-2 14-4 17-5 4-3 6-6 6-12 0-5-2-9-6-13-5-3-12-5-21-5-10 0-17 2-22 6-4 4-6 8-6 14h10z m64 0c1-3 1-6 3-7 3-3 8-5 15-5 4 0 8 1 11 2 3 2 5 4 5 7 0 3-1 5-4 6-1 1-5 2-10 3l-9 1c-5 2-10 3-12 4-5 3-8 7-8 11 0 5 3 10 7 13 5 3 11 5 19 5 10 0 17-3 22-8 3-3 4-6 4-10h-11c0 2-1 4-2 6-3 3-8 4-14 4-4 0-8-1-10-2s-3-3-3-6c0-2 1-4 4-6 2 0 4-1 8-2l7-1c8-2 14-4 17-5 4-3 6-6 6-12 0-5-2-9-7-13-4-3-11-5-21-5-10 0-17 2-21 6-4 4-6 8-7 14h11z m129 16c2 0 4 1 5 3 0 1 0 2 0 4 0 3-1 5-4 7-2 1-6 2-11 2-6 0-10-2-13-4-1-2-2-4-2-7h-11c0 7 3 12 8 15 5 2 11 4 18 4 8 0 14-1 19-4 5-2 7-6 7-12v-32c0-1 1-2 1-3 1 0 2 0 3 0 1 0 1 0 2 0 0 0 1 0 2 0v-7c-2-1-3-1-4-1s-2 0-4 0c-4 0-7 1-8 3-1 2-2 3-2 6-3-3-6-5-10-7-4-2-9-3-14-3-6 0-12 2-15 5-4 3-6 7-6 12 0 5 2 9 5 12s9 5 16 5l18 2z m-24-25c2-2 5-3 8-3 4 0 8 1 12 3 6 2 9 6 9 12v8c-1-1-3-2-5-2-2-1-4-1-7-1l-6-1c-4 0-7-1-9-2-4-2-6-4-6-8 0-3 2-5 4-6z m70 47v-37c0-3 0-5 1-7 2-3 6-5 11-5 8 0 13 3 16 9 1 3 2 7 2 13v27h11v-56h-10l0 8c-2-2-3-4-5-5-5-3-10-4-16-4-9 0-15 2-19 8-2 3-3 6-3 11v38h12z m96-1c2-1 5-3 7-6v29h11v-78h-10v8c-3-3-6-6-10-8-3-1-7-2-12-2-7 0-14 3-19 8-5 5-8 12-8 21 0 8 2 15 7 21 5 6 12 9 21 9 6 0 10 0 13-2z m-25-42c3-5 8-7 15-7 5 0 9 2 13 6 3 4 5 9 5 16 0 7-2 13-6 16-3 4-7 5-12 5-6 0-11-2-14-5s-5-9-5-16c0-7 1-12 4-16z m60 64h11v-10h-11v10z m0-21h11v-56h-11v56z m76-5c6-5 9-12 9-22 0-9-2-16-8-22s-13-9-24-9c-9 0-16 3-22 8-5 5-8 12-8 21 0 10 3 17 9 23s13 8 23 8c8 0 15-2 21-7z m-7-38c3 5 4 10 4 16 0 5-1 10-3 13-3 5-8 8-16 8-6 0-11-2-15-7s-4-10-4-16c0-6 1-11 4-15s8-6 15-6c7 0 13 3 15 7z m109 40c5-3 8-8 9-15h-11c-1 3-2 6-5 8-2 2-6 4-11 4-7 0-12-3-15-9-2-4-3-9-3-14 0-6 1-11 4-15s7-5 13-5c5 0 9 1 11 3 3 3 5 6 6 10h11c-1-7-5-13-9-16-5-4-12-6-20-6-8 0-15 3-20 9-6 5-8 12-8 20 0 10 3 17 8 23s13 8 22 8c8 0 14-1 18-5z m68-2c6-5 9-12 9-22 0-9-2-16-8-22s-13-9-24-9c-9 0-16 3-21 8-6 5-8 12-8 21 0 10 2 17 8 23s13 8 23 8c8 0 15-2 21-7z m-6-38c2 5 4 10 4 16 0 5-1 10-3 13-3 5-9 8-16 8-7 0-12-2-15-7s-5-10-5-16c0-6 2-11 5-15s8-6 14-6c8 0 13 3 16 7z m66 42c2-1 4-3 6-6v29h11v-78h-10v8c-3-3-6-6-9-8-4-1-8-2-12-2-8 0-14 3-20 8-5 5-8 12-8 21 0 8 3 15 8 21 5 6 12 9 21 9 5 0 9 0 13-2z m-25-42c3-5 8-7 14-7 5 0 10 2 13 6 3 4 5 9 5 16 0 7-2 13-5 16-4 4-8 5-13 5-6 0-10-2-14-5s-5-9-5-16c0-7 2-12 5-16z m100 42c5-2 8-4 10-7 3-3 4-7 5-10 0-3 1-7 1-13h-49c0-5 2-10 5-14s8-5 14-5c6 0 10 2 14 5 2 2 3 4 4 7h11c0-2-1-5-3-7-2-3-4-5-6-6-3-3-7-5-12-6-3-1-6-1-9-1-8 0-15 3-21 8-6 5-9 12-9 21 0 9 3 17 9 22 6 6 13 9 23 9 4 0 9-1 13-3z m4-22c0 4-1 7-3 10-3 4-8 6-15 6-5 0-10-1-13-4-3-3-5-7-6-12h37z m70 20c5-3 8-8 9-15h-11c-1 3-3 6-5 8-2 2-6 4-11 4-7 0-13-3-16-9-2-4-3-9-3-14 0-6 2-11 5-15s7-5 13-5c5 0 8 1 11 3 3 3 5 6 6 10h11c-2-7-5-13-10-16-5-4-11-6-19-6-9 0-16 3-21 9-5 5-8 12-8 20 0 10 3 17 9 23s13 8 22 8c7 0 13-1 18-5z" horiz-adv-x="2015" />
<glyph glyph-name="somafm" unicode="&#xe815;" d="m838 482h-31v-68h-6v86c0 16 13 23 25 23h12v-5h-12c-9 0-19-6-19-19v-11h31v-6z m52-68v49c0 14-10 21-20 21-10 0-19-7-19-21v-49h-6v49c0 17 11 26 25 26 12 0 19-5 23-14h0c3 9 10 14 22 14 14 0 26-9 26-26v-49h-6v49c0 14-10 21-20 21-10 0-19-7-19-21v-49h-6z m-850 12h72c28 0 39 11 39 28 0 53-111 50-111 110 0 21 14 39 41 39h874v-12h-873c-14 0-28-9-28-27 0-48 111-45 111-108 0-29-20-42-56-42h-69v12z m314 69c0-46-35-84-81-84s-82 38-82 84c0 45 35 84 82 84s81-39 81-84z m-149 0c0-38 28-72 68-72s68 34 68 72c0 37-29 72-68 72s-68-35-68-72z m279-81v107c0 31-21 46-42 46-21 0-42-15-42-46v-107h-13v107c0 37 24 58 55 58 25 0 41-12 48-32h0c7 20 23 32 48 32 31 0 55-21 55-58v-107h-13v107c0 31-21 46-42 46-21 0-41-15-41-46v-107h-13z m285 0v81c0 37-27 72-66 72-33 0-65-31-65-72 0-42 32-72 65-72 22 0 36 9 50 23v-15c-9-8-25-20-50-20-44 0-79 35-79 84 0 48 35 84 79 84 44 0 79-36 79-84v-81h-13z" horiz-adv-x="1000" />
<glyph glyph-name="left-circled" unicode="&#xe816;" d="m0 500q0 207 147 354t353 146 354-146 146-354-146-353-354-147-353 147-147 353z m178 0l377-252 0 135 267 0 0 234-267 0 0 135z" horiz-adv-x="1000" />
<glyph glyph-name="right-circled" unicode="&#xe817;" d="m0 500q0 207 147 354t353 146 354-146 146-354-146-353-354-147-353 147-147 353z m178-117l267 0 0-135 377 252-377 252 0-135-267 0 0-234z" horiz-adv-x="1000" />
<glyph glyph-name="music" unicode="&#xe818;" d="m600 950q42 0 71-29t29-71l0-700q0-40-29-70t-71-30l-500 0q-40 0-70 30t-30 70l0 700q0 42 30 71t70 29l500 0z m-110-476q32 44 23 92t-33 80-49 66-25 54l-60 0 0-368q-42 16-90-2-42-14-64-48t-12-64q12-32 53-45t85 1q88 30 88 98l0 262q36-6 55-32t18-52-3-42q-4-10 2-10 4 0 12 10z" horiz-adv-x="700" />
<glyph glyph-name="icecast" unicode="&#xe819;" d="m501 924l0-462-457 0 457 462z m0-925l0 464-457 0 457-464z m460 460l-460 0 0 465 460-465z m0 1l-460-1 0-460 460 461z m-823-134s-16-85-6-95 9 3 26 0c17-3 12-11 12-11l97 0 43 17 3 77-38 22-137-10z m23 33l15 62 58 8 48-4 46 0 19-28-4-55-54-3-138-7 10 27z m154-122l25-12 26 0 18 18 16 46 17 51-29 19-27-11-29-35-17-40 0-36z m-90 206l0 38 23 17 43 11 41 0 39 3 29-10 16-15-2-46-44-12-100 4-45 10z m159-71l25 40c15 13 37 28 44 36l21-5c10 1 13-15 22-27l-18-20-35-38-37-10-22 24z m195 69l-45 14-40-9 0-40 36-10 28-14 26-13 18 21-2 36-21 15z m43-43l27-14 36-21 13-41-39-28-43 46-23 28 29 30z m87-83l23-38 8-39-24-16c-21-1-26 11-33 22-9 11-23 24-22 43l20 23 28 5z m-450 208l31 33 42 10 17-20-9-27-52-9-29 13z m49 81l36 17 40 24 83 0 23-36-12-21-82-10-56 0c-27-8-37 1-32 26z m53-83c26-5 48-9 61-4l57 1c29 0 49 4 60 12-1 22-10 40-25 53-15 2-30 5-49 3-17 4-41 1-69-3-9 0-20-4-33-11l-2-51z m79-10l-14-42 35-21 52 7 38 8-3 27-43 33-65-12z m308-279c29-10 59-8 88-5l30 17c6 15 8 34 7 59l-13 25-25 10-39 2-55-7-25-26 13-39 19-36z m-43 203l46 4 24 0 30-4 15-28 11-34-21-21-51-7-36 0-28 40 10 50z m-31 0l-59 0-43 19-15 34 9 23 44 4 116 0 17-14 19-14 9-36-47-10-50-6z m-138 142l77 0 41 6 49 0 18-36-14-26-87 0c-19-6-35-8-48-6-13 0-25 3-35 9l-6 15 5 38z m-47 72l111 0 33-11 0-55-47 0-54-4c-18 3-28 13-30 30-5 12-10 25-13 40z m-73 22l25 17 42 7 41 0 10-26-29-14-63-7c-18-3-27 4-26 23z m267-240l21-46-10-34-57 38-22 43 68-1z m-331-12l52 8 0-24-11-28-25-13-15 7-1 50z m164 273l277 299m-354-306l-307 307" horiz-adv-x="1000" />
<glyph glyph-name="library" unicode="&#xe81a;" d="m819 788q16-16 27-42t11-50v-642q0-23-15-38t-38-16h-750q-23 0-38 16t-16 38v892q0 23 16 38t38 16h500q22 0 49-11t42-27z m-248 136v-210h210q-5 16-12 23l-175 175q-6 7-23 12z m215-853v572h-232q-23 0-38 15t-16 38v233h-429v-858h715z m-440 455q11-5 11-17v-304q0-12-11-16-4-1-7-1-6 0-13 5l-92 93h-73q-8 0-13 5t-5 13v107q0 8 5 13t13 5h73l92 93q9 8 20 4z m233-385q17 0 28 14 72 88 72 202t-72 203q-9 11-24 13t-27-8q-11-9-13-24t8-26q56-69 56-158t-56-157q-9-12-8-27t13-23q10-9 23-9z m-118 83q15 0 26 11 49 52 49 122t-49 122q-10 11-25 12t-26-10-11-25 10-26q29-32 29-73t-29-73q-10-11-10-26t11-25q12-9 25-9z" horiz-adv-x="857.1" />
<glyph glyph-name="ogg-audio" unicode="&#xe81b;" d="m0 184l0 184 632 0 632 0 0-184 0-184-632 0-632 0 0 184z m1258-3l0 174-623 0-622 0 0-174 0-174 622 0 623 0 0 174z m-1105-11c-20 58-37 108-37 113 0 5 12 7 32 7l31 0 21-59c12-33 23-62 25-65 2-2 14 25 26 60l23 64 31 0c20 0 31-2 31-8 0-4-17-55-37-113l-37-104-36 0-36 0-37 105z m129 4c18 52 34 96 34 99 0 3-6 4-14 3-13-1-19-13-40-75-19-54-28-72-36-70-6 1-19 28-36 74-22 63-27 72-40 72-8 0-14 0-14-1 0-3 54-156 63-181 6-16 11-18 28-16 20 2 21 3 55 95z m117-100c-34 19-49 86-28 126 17 33 39 45 82 45 34 0 40-2 61-21 20-19 24-27 26-57 4-44-10-79-37-93-23-12-82-12-104 0z m102 23c32 31 31 85-1 116-14 13-24 16-49 16-29 0-35-3-52-21-33-38-21-106 23-125 21-9 62-2 79 14z m-82 13c-9 9-13 21-13 45 0 38 16 58 46 58 30 0 45-20 45-61 0-29-3-37-15-45-19-14-47-13-63 3z m52 13c7 7 13 21 13 32 0 19-19 45-32 45s-33-26-33-45 19-45 33-45c3 0 12 6 19 13z m100-50c-2 5-3 45-2 89l2 80 56 2c62 2 62 2 49-35-6-19-10-21-27-20l-20 1-2-63-2-62-25 0c-16 0-28 3-29 8z m35 58c0 60 10 82 36 82 16 0 27 10 20 18-3 2-14-1-24-7-24-14-32-14-32-1 0 5-4 9-9 9-8 0-10-13-10-77s2-78 10-78c8 0 9 11 9 54z m104 40l0 107 16 6c33 12 42 9 42-18l0-24 34 2c29 2 36 0 51-14 36-33 39-113 5-147-17-17-20-18-83-18l-65 0 0 106z m38-84c0 12 13 12 29 0 16-12 32-12 55 0 40 21 44 95 7 128-22 19-25 19-73 7-17-4-18-3-18 22 0 29 0 29-15 23-9-3-10-18-10-97 0-88 0-93 12-93 8 0 13 5 13 10z m14 27c-18 23-18 66 0 85 32 34 83 7 83-45 0-51-55-77-83-40z m63 40c1 22-1 28-15 37-16 10-18 10-30-1-17-15-16-50 1-68 12-12 15-12 28-4 9 7 14 17 16 36z m92 28l2 118 26 0 26 0 2-118 2-117-30 0-29 0 1 117z m38-27c0 64-2 77-10 77s-10-13-10-77 2-78 10-78 10 13 10 78z m-1 127c-6 6-9 7-16 1-7-5-7-9-2-16 6-7 10-7 17-2 6 6 7 10 1 17z m70-210c-20 7-21 11-10 34 8 18 15 20 41 10 18-7 44-3 39 6-2 3-16 9-31 12-38 10-50 20-54 48-4 21-2 27 15 44 19 18 24 19 64 19 56 0 63-4 58-35-5-25-10-27-42-16-15 5-23 6-28 1-5-5 2-9 22-14 15-4 34-12 42-17 29-19 24-77-9-92-19-9-82-9-107 0z m106 23c13 11 15 32 6 46-3 5-21 14-40 21-40 13-51 25-38 41 7 9 16 11 40 8 36-3 45 11 12 18-41 9-84-11-84-39 0-19 16-32 55-43 34-9 43-23 28-42-6-7-17-9-43-7-24 2-34 1-34-5 0-18 78-17 98 2z m-554 353l-34 16 0 65 0 66 24-5c51-12 73-7 96 18 12 13 22 30 22 38 0 13-1 13-20-3-37-32-92-20-147 31-86 81-82 213 9 282 91 69 202 56 271-33 16-20 32-47 36-61 4-15 6-78 5-158-2-124-4-135-17-161-53-98-154-137-245-95z m120 7c41 13 87 55 109 101 13 29 14 40 14 164 0 150 0 153-50 205-42 43-73 58-121 58-49 0-92-21-133-65-66-71-57-169 23-239 31-27 72-43 92-36 42 15 54 59 24 87-14 13-21 15-58 13-48-2-50 3-25 40 9 13 16 26 16 29 0 2-7 15-16 28-29 42-21 52 29 34 32-11 34-10 55 23 10 16 21 26 29 26 11 0 13-5 13-36 0-39-3-35 50-55 33-12 27-28-15-38l-35-9 0-80c0-90-7-111-40-128-15-8-31-10-61-8l-41 4 0-48c0-52 1-54 55-71 34-11 46-11 86 1z m19 352l30 8-23 6c-33 9-38 16-38 52l0 33-12-19c-19-31-31-37-59-34-28 4-30 2-16-17 13-18 12-34-6-57l-16-21 34 2c29 2 37 0 53-14l19-16 2 34 1 34 31 9z m274-359l-34 16 0 65 0 66 24-5c51-12 72-7 96 18 12 13 22 30 22 38 0 13-1 13-20-3-38-32-92-20-147 31-86 81-82 213 9 282 91 69 202 56 271-33 16-20 32-47 36-61 4-15 6-78 4-158-2-124-3-135-16-161-53-98-154-137-245-95z m120 7c41 13 87 55 109 101 13 29 14 40 14 164 0 150 0 153-50 205-42 43-73 58-121 58-49 0-92-21-133-65-66-71-57-169 23-239 31-27 72-43 92-36 41 15 54 59 24 87-14 13-22 15-58 13-48-2-51 3-25 40 9 13 16 26 16 29 0 2-7 15-16 28-29 42-21 52 29 34 32-11 34-10 55 23 10 16 21 26 29 26 11 0 13-5 13-36 0-39-3-35 50-55 33-12 27-28-15-38l-35-9 0-80c0-90-7-111-40-128-16-8-31-10-62-8l-40 4 0-48c0-52 1-54 55-71 34-11 46-11 86 1z m19 352l30 8-23 6c-33 9-38 16-38 52l0 33-12-19c-19-31-31-37-59-34-28 4-30 2-16-17 13-18 12-34-6-57l-16-21 34 2c29 2 37 0 53-14l19-16 1 34 2 34 31 9z m-971-164c-40 14-88 60-106 100-17 40-20 98-6 137 10 31 52 77 89 99 38 22 108 27 156 12 44-15 97-64 116-108 39-91-14-209-108-241-36-12-105-12-141 1z m154 26c32 18 60 47 78 83 38 76-2 170-91 214-43 21-98 23-138 7-35-16-76-56-93-92-66-141 104-288 244-212z m-147 78c2 13 5 32 7 41 4 15 1 20-22 35-15 10-26 23-26 29 0 11 5 13 30 13 38 0 45 4 55 35 12 33 21 35 34 8 19-36 29-43 59-43 31 0 45-15 27-29-5-4-18-13-28-21l-18-15 11-26c12-29 13-51 4-51-4 0-20 10-36 22l-30 23-26-23c-36-30-47-30-41 2z m36 21c15 15 43 16 63 3 8-6 14-8 14-4 0 4-2 8-6 10-13 9-6 36 13 50 26 19 24 25-7 25-23 0-27 2-36 22l-11 23-10-21c-10-19-13-21-46-24-33-3-34-4-18-11 28-13 40-36 32-63-7-27-6-28 12-10z" horiz-adv-x="1264" />
<glyph glyph-name="trash" unicode="&#xe81c;" d="m50 608q122-70 330-70t330 70l-54-486q-2-14-35-36t-100-43-141-21-140 21-100 43-36 36z m488 300q94-18 158-55t64-71l0-10q0-58-112-99t-268-41-268 41-112 99l0 10q0 34 64 71t158 55l42 48q22 26 70 26l92 0q52 0 70-26z m-54-112l84 0q-92 110-104 126-14 16-32 16l-102 0q-22 0-32-16l-106-126 84 0 64 66 82 0z" horiz-adv-x="760" />
<glyph glyph-name="discogs" unicode="&#xe81d;" d="m644 97c-8 8 3 19 18 16 15-3 34 7 34 19 0 3-6 4-13 1-16-5-37 2-37 13 0 6-6 4-23-7-28-19-68-20-89-3-13 10-16 10-23 3-5-5-19-9-30-9-20 0-23 3-32 23-14 34-8 88 10 103 18 14 35 14 49 0 11-12 12-12 26 0 22 17 65 15 92-6 12-9 20-13 18-9-8 12 21 25 50 21l26-3 0-46 0-46 19-3c10-2 19-7 19-10s4-5 9-5c16 0 10 15-15 40-27 27-32 46-14 61 18 15 33 18 49 8 17-12 19-28 2-28-7 0-13 3-13 6s-4 6-9 6c-15 0-11-15 10-34 27-26 33-45 21-63-7-11-15-15-34-15-13 0-26 3-28 7-7 11-16 6-16-9 0-21-18-35-47-35-14 0-27 2-29 4z m-86 55c8 18-2 21-11 4-8-15-8-19-1-19 2 0 8 7 12 15z m-61 5c9 8 14 74 4 69-2-2-6 1-8 6-11 29-25-18-18-59 5-26 7-28 22-16z m192 39c0 37-1 46-9 46-7 0-9-9-9-42 0-24 2-45 4-47 11-11 14 0 14 43z m-99-22c19 10 16 36-4 44-11 4-19 4-25-1-12-10-10-35 3-43 13-8 12-8 26 0z m15 59c12 12 13 22 1 22-8 0-16-13-16-26 0-8 4-7 15 4z m-388-19l0 84 34 0c23 0 38-3 48-12 13-11 15-16 15-71 0-75-7-85-60-85l-37 0 0 84z m61-12c2 57-1 77-14 77-8 0-9-11-9-65 0-59 1-66 10-64 10 2 12 10 13 52z m47-6c1 63 1 65 15 65 14 0 14-2 14-65 0-65 0-66-15-66-15 0-15 1-14 66z m42-54c-4 7-7 14-7 16 0 6 22 3 30-4 6-6 9-6 15 0 5 5 2 11-13 25-35 33-37 76-4 84 19 5 47-9 47-24 0-10-22-13-28-3-2 3-7 6-10 6-11 0-5-14 16-38 23-25 28-52 14-66-12-13-53-10-60 4z m-40 129c-2 2-4 9-4 16 0 8 5 11 15 11 13 0 16-3 16-15 0-11-3-16-11-16-7 0-14 2-16 4z m88 128c-69 24-120 67-152 131-76 148-12 323 141 384 49 20 143 20 194 0 71-28 134-95 157-167 17-51 16-136-3-183-42-110-128-172-243-177-43-2-60 0-94 12z m11 95c11 28 11 32-3 37-10 3-20-4-41-26-15-16-28-30-28-31s14-2 31-2c30 0 32 1 41 22z m119 56c29 12 44 25 58 54 22 43 11 111-23 143-18 16-55 29-80 29-66 0-115-50-115-118 0-86 81-141 160-108z m101 301c0 7 3 12 8 13s-1 7-11 15c-19 15-32 20-25 10 2-4-7-26-19-50-18-35-21-46-15-53 6-7 12-4 34 22 16 17 28 36 28 43z m4-754c-9 9-3 14 19 16 17 1 24 5 26 14 1 9-1 11-13 7-9-2-20 0-27 5-9 7-9 10-3 22 4 8 6 25 4 40-8 63-11 56 29 59l35 1 0-74c0-70 0-75-13-84-14-10-49-13-57-6z m39 98c0 26-2 48-5 50-10 6-19-18-19-49 0-33 4-47 16-47 6 0 8 11 8 46z m-142-65c-8 5-6 7 9 7 10 0 15 2 11 3-4 2-5 8-4 15 2 8-1 12-13 14-14 3-15 2-8-7 6-8 6-8-4-5-9 4-10 2-7-10 4-12 4-12-5-5-14 12-25 47-20 69 5 20 19 38 39 49 16 9 55 9 61 1 2-4-1-6-7-6s-8-3-6-7c2-3 1-6-3-6s-6-4-6-8-7-11-15-13c-20-5-27-26-13-41 13-14 28-16 39-5 10 10 10 31 0 42-7 7-5 8 6 5 11-3 14-2 12 5-3 6-1 7 7 4 9-3 9-2 2 7-14 17-4 18 12 1 11-13 15-23 15-44 0-25-3-31-23-50-18-16-29-21-47-21-13 0-27 3-32 6z m-323 84l0 84 24 0c39 0 55-9 62-35 13-48 4-115-18-126-6-4-25-7-40-7l-28 0 0 84z m56-55c14 38 3 118-18 125-6 2-7-14-7-69 0-61 1-72 9-72 5 0 12 7 16 16z m49 37c0 61 1 65 13 65s12-4 12-65-1-66-12-66-13 4-13 66z m45-58c-11 10-9 23 2 23 5 0 9-2 9-6s6-6 12-6c19 0 16 14-9 37-36 35-28 75 14 75 18 0 33-13 33-28 0-8-24-2-28 6-2 6-6 8-10 6-12-7-6-25 16-46 23-23 28-43 12-59-12-11-41-13-51-2z m84 3c-21 23-21 90-1 110 11 11 49 13 56 3 2-3 0-10-4-15-7-8-9-8-16 2-13 17-21-1-21-47 0-31 2-40 10-43 6-3 12-1 14 3 1 6 4 6 11 1 6-6 7-10 2-16-10-12-39-11-51 2z m279 1c-6 6-10 13-10 15 0 7 23 5 28-2 5-8 21-8 21 1 0 4-11 19-24 35-28 31-30 36-16 56 17 23 65 16 65-9 0-11-15-10-25 1-8 10-18 7-18-6 0-4 10-18 21-30 23-23 29-51 15-65-12-12-45-9-57 4z m-408 144c0 8 4 12 13 12s12-4 12-12-4-13-12-13-13 4-13 13z m109 108c-17 4-44 14-59 22-32 16-83 56-78 61 1 1 14-7 28-19s32-27 42-32c19-9 19-9 29 14l11 24 131 4c73 2 139 6 147 7 14 4 13 2-9-19-64-58-159-83-242-62z m227 199c-4 5-12 7-17 5-8-3-9-1-6 13 3 13 2 16-7 16-7 0-15-6-19-14-6-9-6-10-3-1 7 20 7 96 0 92-4-3-5 0-2 6 2 6 2 10-1 8-2-1-10 5-16 13s-9 14-5 12c4-3 12-2 17 3 5 4 10 6 11 5 15-21 27-51 24-62-3-12-1-13 13-10 13 3 17 2 17-5 0-5 3-9 6-9s6-5 6-10-3-9-6-9c-9 0-8-17 2-21 5-2 4-5-4-10-8-6-9-10-4-19 8-14 4-16-6-3z m-366 9c1 4 4 7 7 7 7-1 6-9-2-12-4-1-6 1-5 5z m-27 28c-19 23-15 28 22 28 33 0 37-7 18-29-10-11-19-20-20-20-2 0-11 10-20 21z m408 55c3 17 0 20-20 17-15-2-8 10 11 17 14 5 17 9 14 18-4 10-3 10 6 3 10-8 11-7 11 5 0 7 4 13 9 13 5 0 9 3 9 6 0 4-5 5-14 3-10-3-11-2-5 2 8 5 8 8-1 17-6 5-13 8-17 6-9-6-7 0 5 14 7 8 14 12 16 10 2-3 4-1 4 2s-17 23-39 43c-40 37-38 39 4 6 46-37 92-127 91-180-1-15-2-17-6-7-3 8-6 9-9 5-2-5-16-7-33-5-17 1-32-1-35-5-3-4-3 0-1 10z m-320 7c0 13 18 52 26 57 4 2 3-2-1-10s-8-21-9-29c-2-19-16-35-16-18z m19-3c0 6 3 14 6 19 7 11 7 2 0-15-3-9-5-10-6-4z m-143 17c0 3 5 22 12 41 49 141 195 215 338 168 39-12 34-17-5-5-17 5-40 9-53 8l-22-1 20-2c18-2 37-20 30-28-6-6-10-81-4-89 11-12 2-29-13-24-19 6-71 4-85-3-9-5-14-5-16 0-3 3-11 5-18 3-10-3-9 0 6 12l18 15-15 15c-18 17-25 27-35 45-4 6-12 11-18 10-5-1-10 1-10 5s4 6 8 6c4 0 5 2 3 4-2 2-13-2-24-9-25-16-54-45-44-45 4 0 8-2 8-5 0-3 4-16 10-30 6-13 10-26 9-28 0-3 2-5 6-5 4 0 4-4-1-13-4-8-11-12-23-11-14 2-17 0-19-14-2-16-3-17-27-14-17 2-27 0-31-5-3-5-5-5-5-1z m247 211c-6 2-16 2-22 0-6-1-1-3 11-3s17 2 11 3z m-76-178c6 7 12 13 14 13s-2-6-8-13c-6-7-13-12-14-12s2 5 8 12z m251 44c0 3 3 6 7 6 4 0 5-3 3-6s-5-7-7-7c-1 0-3 3-3 7z m-4-686c-15 6-8 15 8 11 16-4 34 6 34 20 0 5-9 9-24 10-19 1-23 4-21 14 7 41 8 66 1 77-11 21 2 32 38 32l31 0 0-70c0-47-3-74-8-81-8-11-45-19-59-13z m40 98c2 46-4 61-20 47-7-5-9-19-9-46 0-41 3-49 18-46 7 2 10 12 11 45z m-126-66c13 6 19 26 8 26-4 1 0 5 9 10 19 10 26 24 20 42-2 7-1 10 2 8 9-5 27 2 27 10 0 4-4 11-8 17-4 6-2 4 6-5 10-10 14-22 14-42 0-38-24-64-62-68-18-2-24-1-16 2z m-344 86l0 85 31-3c51-5 58-17 56-103-1-51-12-64-56-64l-31 0 0 85z m55-60c4 6 7 33 7 58 0 36-3 50-12 61-19 24-26 10-26-59 0-35 2-66 5-68 7-8 20-4 26 8z m50 40c0 62 1 64 13 61 11-3 12-8 12-64 0-58-1-62-12-62-12 0-13 4-13 65z m45-57c-4 4-8 10-8 14 0 10 18 9 22-1 4-11 15-10 20 1 2 6-6 19-19 34-34 38-29 75 9 75 21 0 41-17 31-27-4-4-10-3-18 4-14 13-17 13-22 1-2-5 7-21 21-37 27-31 30-47 15-62-12-11-41-13-51-2z m81 9c-15 24-15 83 1 101 21 23 65 12 50-12-3-5-7-4-12 4-14 19-22 3-22-41 0-29 3-45 9-50 6-5 10-5 13 0 5 9 15 8 15-2 0-5-4-11-10-13-19-7-33-3-44 13z m282-5c-6 6-10 13-10 15 0 7 22 2 33-7 8-7 11-7 14 1 2 7-4 19-19 35-35 40-28 75 17 75 16 0 29-11 29-23 0-9-18-7-24 4-3 4-9 6-12 4-13-8-7-26 15-47 23-23 27-43 12-59-14-13-42-12-55 2z m-217 12c-22 26-16 71 13 97 15 13 60 21 66 11 3-5-2-7-11-7-16 0-18-8-8-25 4-5 3-7 0-4-4 2-13-1-21-7-11-7-13-13-10-27 3-17 2-18-9-12-9 5-12 5-12 0 0-4-3-5-6-3-10 6-8-5 3-20 12-17 9-19-5-3z m-191 132c0 9 3 12 11 11 16-3 18-24 2-24-9 0-13 4-13 13z m117 110c4 1 10 1 12-1 2-2-2-3-8-3-8 0-9 2-4 4z m36 5c-2 7-2 21-1 32 2 15 0 20-11 26-10 5 4 6 62 6 42 1 80-1 85-3 15-5 14-29-1-25-10 3-38-15-38-24 0-2 7-3 17-1l17 4-19-10c-10-6-38-12-63-13-39-3-45-2-48 8z m120 46c0 4-2 6-6 6s-6-2-6-6 3-6 6-6 6 3 6 6z m-181-45c5 2 10 1 12-1 2-2-2-3-8-3-7 0-9 2-4 4z m194 17c0 1 4 4 9 6 6 2 8 1 6-3-3-6-15-8-15-3z m37 18c0 1 5 6 11 11 10 8 10 8 2-2-8-11-13-14-13-9z" horiz-adv-x="1006" />
<glyph glyph-name="floppy" unicode="&#xe81e;" d="m214 143h429v214h-429v-214z m500 0h72v500q0 8-6 21t-11 20l-157 156q-5 6-19 12t-22 5v-232q0-22-15-38t-38-16h-322q-22 0-37 16t-16 38v232h-72v-714h72v232q0 22 16 38t37 16h465q22 0 38-16t15-38v-232z m-214 518v178q0 8-5 13t-13 5h-107q-7 0-13-5t-5-13v-178q0-8 5-13t13-5h107q7 0 13 5t5 13z m357-18v-518q0-22-15-38t-38-16h-750q-23 0-38 16t-16 38v750q0 22 16 38t38 16h517q23 0 50-12t42-26l156-157q16-15 27-42t11-49z" horiz-adv-x="857.1" />
<glyph glyph-name="download" unicode="&#xe81f;" d="m714 250q0 15-10 25t-25 11-26-11-10-25 10-25 26-11 25 11 10 25z m143 0q0 15-10 25t-26 11-25-11-10-25 10-25 25-11 26 11 10 25z m72 125v-179q0-22-16-37t-38-16h-821q-23 0-38 16t-16 37v179q0 22 16 38t38 16h259l75-76q33-32 76-32t76 32l76 76h259q22 0 38-16t16-38z m-182 318q10-23-8-40l-250-250q-10-10-25-10t-25 10l-250 250q-17 17-8 40 10 21 33 21h143v250q0 15 11 25t25 11h143q14 0 25-11t10-25v-250h143q24 0 33-21z" horiz-adv-x="928.6" />
<glyph glyph-name="imdb-logo" unicode="&#xe820;" d="m805 356c-9 0-17 2-25 6-5 3-10 7-15 11l-3-9 0-4h-72v286h77v-60c4 3 9 6 13 8 8 4 16 6 25 6 10 0 19-2 26-5 8-4 14-8 18-14 4-6 6-12 7-18 1-5 1-16 1-33v-102c0-17-1-30-3-38-2-9-8-17-17-24-9-6-20-10-32-10z m-32 195c-3 0-4-2-4-2-1-1-2-6-2-22v-98c0-15 1-20 2-21 1-2 2-3 5-3 3 0 4 1 4 3 1 1 2 7 2 24v95c0 14-1 19-2 21-1 2-2 3-5 3z m-180-191h-94v286h58c35 0 58-2 71-5 13-4 23-10 30-17 7-8 11-17 13-27 2-9 2-27 2-53v-97c0-26-1-42-3-51-3-9-7-17-14-22-6-5-14-9-23-11-9-2-22-3-40-3z m-14 230v-174c6 1 10 2 11 4 1 2 3 8 3 32v108c0 15-1 21-1 23-1 2-2 4-3 5-1 1-4 1-10 2z m-100-230h-72v5l0 123-16-124-1-4h-52l-1 4-17 124-1-123 0-5h-71v286h101l1-4 3-20c1-12 3-25 5-39l6-39 13 98 0 4h102v-286h0z m-251 0h-81v286h81v-286z m-76 281l71 0 0-276-71 0z m322 0v-276h-62l-1 186-25-186h-44l-27 182 0-182h-63v276h93c3-17 6-36 9-59l10-70 17 129h93z m101-47v-182c10 0 16 2 19 6 2 4 3 16 3 34v108c0 12 0 20-1 24-1 3-3 6-5 8-3 1-8 2-16 2m-72 47h54c34 0 58-1 70-5 12-3 22-8 28-15 6-8 10-16 12-25 1-9 2-26 2-52v-97c0-25-1-42-3-50-3-8-7-15-12-20-6-4-13-8-22-10-8-1-21-2-38-2h-91v276z m281-114c0 11-1 19-2 23-2 3-4 5-9 5-4 0-7-2-8-5-1-3-2-11-2-23v-98c0-12 1-20 2-23 2-3 4-5 9-5 4 0 7 2 8 5 2 4 2 12 2 26v95z m-21 114v-66c6 7 12 12 19 15 7 4 15 5 23 5 9 0 18-1 25-4 7-3 12-7 16-13 3-5 5-10 6-15 1-5 1-16 1-33v-102c0-17-1-29-3-37-2-8-8-15-16-21-8-6-18-9-29-9-8 0-16 1-23 5-7 4-13 9-19 16l-5-17h-64v276h69z m117-31h2c4 0 6 1 6 4 0 2-1 4-6 4-1 0-2 0-2-1v-7z m0-13h-4v23c2 0 4 1 7 1 3 0 6-1 7-2 1-1 2-3 2-5 0-3-2-5-4-6v0c2 0 3-2 3-6 1-3 2-5 2-5h-4c-1 0-1 2-2 6 0 3-2 4-5 4h-2v-10z m4 30c-10 0-17-8-17-18 0-10 7-18 17-18 9 0 17 8 17 18 0 10-8 18-17 18h0z m0 3c11 0 20-10 20-21 0-12-9-21-20-21-12 0-21 9-21 21 0 11 9 21 21 21h0z" horiz-adv-x="1001" />
<glyph glyph-name="sliders" unicode="&#xe821;" d="m196 214v-71h-196v71h196z m197 72q14 0 25-11t11-25v-143q0-14-11-25t-25-11h-143q-14 0-25 11t-11 25v143q0 15 11 25t25 11h143z m89 214v-71h-482v71h482z m-357 286v-72h-125v72h125z m732-572v-71h-411v71h411z m-536 643q15 0 26-10t10-26v-142q0-15-10-26t-26-10h-142q-15 0-26 10t-10 25v143q0 15 10 25t26 11h142z m358-286q14 0 25-10t10-25v-143q0-15-10-25t-25-11h-143q-15 0-25 11t-11 25v143q0 14 11 25t25 10h143z m178-71v-71h-125v71h125z m0 286v-72h-482v72h482z" horiz-adv-x="857.1" />
<glyph glyph-name="wifi" unicode="&#xe822;" d="m571 150q-11 0-51 41t-41 52q0 18 35 30t57 13 58-13 35-30q0-11-41-52t-52-41z m151 151q-1 0-22 14t-57 28-72 14-71-14-57-28-22-14q-10 0-52 42t-43 52q0 7 6 13 44 43 109 67t130 25 130-25 110-67q5-6 5-13 0-10-42-52t-52-42z m152 152q-6 0-12 5-76 58-141 86t-150 27q-47 0-95-12t-83-30-63-34-44-30-18-12q-9 0-51 42t-42 52q0 7 6 12 73 74 178 114t212 41 212-41 179-114q6-6 6-12 0-10-42-52t-52-42z m152 151q-6 0-13 5-100 88-207 132t-235 45-234-45-207-132q-7-5-13-5-9 0-51 42t-43 52q0 7 6 13 104 104 248 161t294 56 295-56 248-161q5-6 5-13 0-10-42-52t-51-42z" horiz-adv-x="1142.9" />
<glyph glyph-name="podcast" unicode="&#xe823;" d="m0 481q0 141 67 261t182 189 251 69 251-69 182-189 67-261q0-4 0-10t-1-10q-8 208-152 353t-347 145-346-145-153-353q0 4 0 10t-1 10z m183 1q0 136 93 233t224 96 224-96 93-233q0-3 0-10t-1-10q-8 129-99 219t-217 90-217-90-99-219q0 3 0 10t-1 10z m166-195q0 33 5 59t10 43 19 29 23 18 28 10 31 4 35 0 35 0 31-4 29-10 23-18 18-29 11-43 4-59q0-118-44-202t-107-85-106 85-45 202z m47 280q0 44 31 76t73 32 74-32 30-76-30-76-74-32-73 32-31 76z" horiz-adv-x="1000" />
<glyph glyph-name="doc-text" unicode="&#xe824;" d="m819 788q16-16 27-42t11-50v-642q0-23-15-38t-38-16h-750q-23 0-38 16t-16 38v892q0 23 16 38t38 16h500q22 0 49-11t42-27z m-248 136v-210h210q-5 16-12 23l-175 175q-6 7-23 12z m215-853v572h-232q-23 0-38 15t-16 38v233h-429v-858h715z m-572 483q0 7 5 12t13 5h393q8 0 13-5t5-12v-36q0-8-5-13t-13-5h-393q-8 0-13 5t-5 13v36z m411-125q8 0 13-5t5-13v-36q0-8-5-13t-13-5h-393q-8 0-13 5t-5 13v36q0 8 5 13t13 5h393z m0-143q8 0 13-5t5-13v-36q0-8-5-13t-13-5h-393q-8 0-13 5t-5 13v36q0 8 5 13t13 5h393z" horiz-adv-x="857.1" />
<glyph glyph-name="doc-text-1" unicode="&#xe825;" d="m678 32l-522 0q-65 0-110 45t-46 111l0 625q0 65 46 110t110 46l522 0q65 0 110-46t46-110l0-625q0-65-46-111t-110-46z m-522 833q-21 0-37-15t-15-37l0-625q0-21 15-37t37-16l522 0q21 0 36 16t15 37l0 625q0 21-15 37t-36 15l-522 0z m469-312l-416 0q-26 0-26 25 0 11 7 19t19 7l416 0q11 0 19-7t7-19q0-25-26-25z m0 156l-416 0q-11 0-19 8t-7 18q0 25 26 25l416 0q26 0 26-25 0-11-7-18t-19-8z m0-312l-416 0q-11 0-19 7t-7 19q0 25 26 25l416 0q26 0 26-25 0-11-7-19t-19-7z m0-157l-416 0q-26 0-26 25 0 12 7 19t19 8l416 0q11 0 19-8t7-19q0-25-26-25z" horiz-adv-x="834" />
<glyph glyph-name="sun" unicode="&#xe828;" d="m465 612q-46 0-79-33t-33-79 33-78 79-33 78 33 33 78-33 79-78 33z m0 112q92 0 158-66t65-158-65-158-158-65-158 65-66 158 66 158 158 66z m-56 168q0 55 55 55 57 0 57-55 0-57-57-57-55 0-55 57z m-279-112q0 55 56 55 55 0 55-55 0-56-55-56-56 0-56 56z m-56-223q23 0 40-16t16-40-16-40-40-16-40 16-16 40q0 24 16 40t40 16z m56-335q0 55 56 55 55 0 55-55 0-56-55-56-56 0-56 56z m279-111q0 22 17 38t38 17q24 0 41-17t16-39-17-39-39-17-39 16-17 41z m296 71q-16 16-16 39t16 39 39 17 40-17 15-39-15-39-40-15-39 15z m151 263q-24 0-40 16t-17 40q0 24 17 40t40 16 39-16 16-40-16-40-39-16z m-72 295q-16-16-40-16t-39 16-16 40 16 40 39 17 40-17 15-40-15-40z" horiz-adv-x="928" />
<glyph glyph-name="alarm-clock" unicode="&#xe82a;" d="m851 538c-43 119-148 211-278 240 33 48 89 79 152 79 102 0 184-83 184-185 0-53-22-100-58-134z m-355 312v-116c177-7 319-153 319-332 0-74-25-143-67-199l77-133-64-37-66 114c-58-48-132-77-213-77-80 0-154 29-212 76l-68-117-63 37 78 136c-42 56-67 125-67 200 0 178 139 323 315 332v116c-18 6-31 23-31 43 0 26 21 47 46 47 26 0 47-21 47-47 0-20-13-37-31-43z m-272-448c0-143 115-258 258-258 143 0 259 115 259 258 0 143-116 259-259 259-143 0-258-116-258-259z m336-56h-93c-17 0-31 14-31 31v124c0 17 14 31 31 31 17 0 31-14 31-31v-93h62c17 0 31-14 31-31s-14-31-31-31z m-442 192c-36 34-58 81-58 134 0 102 82 185 184 185 63 0 118-31 152-79-130-29-235-121-278-240z" horiz-adv-x="1000" />
<glyph glyph-name="alarm" unicode="&#xe82b;" d="m500 875c-242 0-437-196-437-437s195-438 437-438 438 196 438 438-196 437-438 437z m0-789c-194 0-352 157-352 352 0 194 158 351 352 351 194 0 352-157 352-351 0-195-158-352-352-352z m413 634c16 27 25 59 25 93 0 103-84 187-188 187-60 0-114-28-148-73 128-26 239-103 311-207z m-515 207c-34 45-88 73-148 73-104 0-187-84-187-187 0-34 9-66 24-93 72 104 183 181 311 207z m40-239h62v-313h-62v313z m62-250h188v-63h-188v63z" horiz-adv-x="1000" />
<glyph glyph-name="radio-tower" unicode="&#xe82d;" d="m300 618c15 16 15 42 0 58-20 21-30 47-30 74 0 28 10 54 30 75 15 16 15 42 0 58-8 8-18 12-28 12-10 0-21-4-28-12-36-37-54-85-54-133 0-47 18-95 54-132 15-15 40-15 56 0z m-154 350c-8 8-19 12-29 12-10 0-21-4-29-12-58-60-87-139-87-218 0-78 29-157 87-217 16-16 42-16 58 0 15 16 15 43 0 59-43 44-64 101-64 158s21 115 64 159c15 16 15 43 0 59z m355-319c56 0 102 45 102 101s-46 102-102 102c-56 0-101-46-101-102s45-101 101-101z m411 318c-16 16-42 16-57 0-16-16-16-42 0-59 42-43 63-101 63-158 0-58-21-115-63-159-16-16-16-42 0-58 7-8 18-12 28-12 10 0 21 4 29 12 58 60 87 138 87 217 0 78-29 157-87 217z m-411-399v0c-26-1-51 6-75 19l-196-524h93l53 62h250l53-62h93l-197 523c-23-12-48-18-74-18z m0-30l63-225h-125l62 225z m-125-350l63 62h125l62-62h-250z m324 694c-15-16-15-42 0-58 20-20 30-47 30-74 0-27-10-54-30-75-15-16-15-41 0-57 8-8 18-12 28-12 11 0 21 4 28 12 36 36 54 84 54 132 0 47-18 95-54 132-15 16-40 16-56 0z" horiz-adv-x="1000" />
<glyph glyph-name="versions" unicode="&#xe82e;" d="m0 313h125v62h-62v250h62v63h-125v-375z m375 500v-625h500v625h-500z m375-500h-250v375h250v-375z m-562-63h125v63h-63v375h63v62h-125v-500z" horiz-adv-x="875" />
<glyph glyph-name="output" unicode="&#xe82f;" d="m0 319l0 360 203 0 307 250 0-858-307 248-203 0z m563 33q62 63 62 151t-62 152l60 65q90-90 92-219 0-125-92-213z m101-105q106 105 106 256t-106 258l66 62q131-133 131-319t-131-321z m100-98q146 147 146 354t-146 353l62 65q82-82 128-190t46-227-46-229-128-190z" horiz-adv-x="1000" />
<glyph glyph-name="attention-1" unicode="&#xe830;" d="m0 500q0 207 147 354t353 146 354-146 146-354-146-353-354-147-353 147-147 353z m318 402l79-550 207 0 78 550-364 0z m77-696q0-44 31-76t76-32 76 32 31 76-31 76-76 33-76-33-31-76z" horiz-adv-x="1000" />
<glyph glyph-name="wikipedia" unicode="&#xe831;" d="m0 827l0 21 2 2 249 0 2-2 0-20q0-8-10-8l-26-1q-33-1-33-20 0-13 7-28 50-122 222-484l6-1 111 221q-13 30-22 49l-76 150-20 40q-26 51-34 61t-33 13q-14 2-14 7l0 21 3 2 197 0 5-1 0-21q0-8-10-8l-15-2q-13-2-19-5t-5-12 4-17 14-31l73-150 81 162q16 32 5 43-6 8-37 11l-9 1q-4 0-7 3-3 1-3 6l0 19 3 2q57 1 186 0l2-2 0-20q0-8-9-8-22-1-30-4t-17-16q-23-34-30-48l-105-196-3-7 128-262 8-3 202 481q12 28-3 41-13 12-39 13l-19 1q-3 0-6 3-4 2-4 6l0 20 3 2 229 0 2-2 0-20q0-7-9-9-46-2-66-19-20-16-34-49l-250-567q-10-23-22-30t-24 1-23 30q-38 75-122 263-105-216-131-264-41-71-71-1-32 75-130 285t-130 286q-16 42-28 52-11 10-52 13-14 2-14 7z" horiz-adv-x="1106" />
<glyph glyph-name="spin6" unicode="&#xe832;" d="m855 159c-189-190-520-172-705 13-190 190-200 494-28 695 11 13 21 26 35 34 36 23 85 18 117-13 30-31 35-76 16-112-5-9-9-15-16-22-140-151-145-379-8-516 153-153 407-121 542 34 106 122 142 297 77 451-83 198-305 291-510 222l0 1c236 82 492-24 588-252 71-167 37-355-72-493-11-15-23-29-36-42z" horiz-adv-x="1000" />
<glyph glyph-name="musicbrainz" unicode="&#xe833;" d="m496 766l0-577 279 0s23 93 23 123l0 81s10 41 10 93c0 53-13 151-45 169 0 0-91 180-198 157 0 0-64 2-69-46z m311-370c-2-27 1-85-3-102-4-18-14-68-19-85-2-6-4-14-5-21l-12 1c1 3 2 6 3 8 6 16 5 39 5 39s13 56 15 73c3 17-4 66-2 79 1 14 5 21 11 48 7 27-2 60-4 72-1 11-3 54-6 65-3 12-18 47-19 55-1 8-26 18-26 18-1 19-9 33-9 33 0 20-45 74-45 74-14 15-78 48-94 54-17 5-26-10-26-10-22 15-41 0-54-12s-14-31-14-31c-7-13-6 18-6 18s5 38 24 48c19 10 51 4 51 4 44 13 113-37 134-60 20-23 65-106 65-106s14-17 27-58c12-40 15-127 14-144s-4-33-5-60z m-191 379c-3 10-18-9-29-9-11 0-32 11-45 7-13-3-29-18-33-31-4-13 5-62 17-66 0 0-19-30-10-41 10-11 13 0 13 6s-2 20 6 24c7 4 16 17 16 17l-22 11c-7 11-3 32 0 41 4 10 13 26 22 26 10 0 28-11 41-9 13 2 28 15 24 24z m30-54s20-33 0-73c-20-39-19-22-19-22l8-15s15 32 28 30c13-2 29-19 35-47 5-28-8-50-24-54-17-4-80 6-80 6s6-6 4-15c-2-10-6-21-6-21s15 19 52 17c37-2 50-11 65-47s6-87-2-100-41-17-44-30 7-26 9-36c2-9-6-17-6-17s21 13 36 12c14-2 42-23 42-23s-5-4-3-9 5-11 3-17-7-9-7-9 9-2 15 9-6 13-2 19c4 5 11 3 11 3s-6 2-15 19-13 26-26 26c-13 0-28-2-28-2s-13 8-7 19 48 19 48 19-13 11-13 20c0 10 9 28 26 41 17 13 30 34 30 73s7 48 18 63l-4 26s-11-35-22-46l-27 19s5-25 20-34c0 0 11-32 2-54-9-22-34-39-34-39s-7 54-11 65c-3 11-11 23-13 30-2 7 11 54 10 69-2 15-17 60-45 64 0 0-4 65-24 61z m-41-93s15 5 28-4c13-9 22-37 11-52 0 0-5-6-11 4 0 0 2 39-9 42s-19 10-19 10z m15 50s-20 13-39 6c-18-8-29-41-29-41s-10 24 7 43c17 18 44 7 57 5 13-2 15-3 4-13z m-24 15s-6 15 2 19c7 4 17 7 13 13-4 5-22-6-28-23-6-16-6-16-6-16l19 7z m-15-76s-35-47-35-96c0-48 17-87 30-87 13 0 13 16 22 13 9-4 22-21 9-25-13-3-26-11-37-3-11 7-24 17-32 33-7 17-5 53-7 71-2 19 22 84 32 94 9 9 18 16 18 0z m80-150s-15 4-21 13c-5 10-7-2-3-20s5-49 2-62c-4-13-21-48-43-45-22 4-30 13-35 25-6 11-17 13-19 1-2-11 6-24 9-31 4-8 2-8 13-13 12-6 34-13 52-4s36 50 36 63c0 14 3 55 9 73z m133-164s-2 70-16 85-17 12-18 18c0 5 0 7 9 6 8 0 29-21 29-21l-4-88z m-162 492s18-9 14-23c-4-14-4-20 4-20 8 0 11 17 21 11 10-5 2-28 12-31 10-3 14 0 19-3s28-26 26-37c-2-12-22 17-28 11-5-6-15-14-7-20 7-6 31-6 41-20 9-14 12-22 17-14 6 8-12 60-23 74-12 15-76 77-96 72z m124-246s10-7 13-5c3 2 11 12 14 23 4 11 3 19 1 25l8-12 5-44-3 3s-1 11-3 10-9-8-9-8l-18-3-8 7 0 4z m25-143s6-5 9-3c3 2 4 9 4 9l-3-18-6 0-4 12z m-229-22c-5-4-10-8-9-12 1-4 9-118 44-121 35-3 66 13 83-4s-2-33-2-33-2-20 14-4c0 0 5-5 6 0 1 4 2 34-7 41s-22 13-27 19c-6 6-46-7-57-4-22 6-21 35-30 56s-10 67-15 62z m230-118s-7-32-19-32l13-20c-1-11 6 52 6 52z m-102-46s17 7 31 6c13 0 19-17 19-17s-14 8-22 8c-8 0-21-9-21-9l-7 12z m-89-6s-9 27-27 29-15 2-21 3-15 30-21 32-8 5-11 4-1-6 0-7 7-3 10-5 7-24 17-31 19-8 23-10 17-12 23-23c0 0 9-5 7 8z m-92 552l0-577-276 0s-27 95-27 124c0 29-1 80-1 80s-8 41-8 93c0 53 20 151 52 169 0 0 91 180 198 157 0 0 64 2 62-46z m-25-328c8 6 13-9 25-9s25 20 31 9c6-12 2 0 0-15-2-14-18-19-31-20-12 0-17 3-27 20s-2 12 2 15z m5 154s6 12 20 12 22-16 26-16 8 3 8 3 0 16-4 18-20 9-29 9-23-9-28-10c-5-1-10-11-6-16s13 0 13 0z m-287-196c1-27-1-85 3-102 4-18 14-68 19-85 2-6 3-14 5-21l12 1c-1 3-2 6-3 8-6 16-5 39-5 39s-13 56-16 73c-2 17 4 66 3 79-1 14-5 21-11 48-7 27 2 60 3 72 2 11 4 54 7 65 2 12 18 47 19 55s25 18 25 18c2 19 9 33 9 33 0 20 45 74 45 74 14 15 78 48 95 54 17 5 26-10 26-10 21 15 40 0 53-12s14-31 14-31c8-13 7 18 7 18s-5 38-25 48c-19 10-51 4-51 4-43 13-112-37-133-60-20-23-65-106-65-106s-14-17-27-58c-13-40-15-127-14-144s4-33 5-60z m190 379c4 10 19-9 30-9 11 0 31 11 44 7s30-18 34-31c4-13-6-62-17-66 0 0 19-30 9-41-9-11-13 0-13 6s2 20-5 24c-8 4-17 17-17 17l22 11c8 11 4 32 0 41-3 10-13 26-22 26-9 0-28-11-41-9-13 2-27 15-24 24z m-29-54s-21-33 0-73c20-39 18-22 18-22l-7-15s-15 32-28 30c-13-2-30-19-35-47-6-28 7-50 24-54 17-4 80 6 80 6s-6-6-4-15c2-10 5-21 5-21s-14 19-51 17c-38-2-51-11-65-47s-6-87 1-100 41-17 45-30c4-13-7-26-9-36-2-9 5-17 5-17s-20 13-35 12c-15-2-43-23-43-23s6-4 4-9c-2-6-5-11-4-17 2-6 8-9 8-9s-9-2-15 9 6 13 2 19-11 3-11 3 5 2 15 19c9 17 13 26 26 26 12 0 27-2 27-2s13 8 8 19-48 19-48 19 13 11 13 20c0 10-10 28-26 41-17 13-30 34-30 73s-7 48-18 63l4 26s10-35 21-46l28 19s-5-25-20-34c0 0-11-32-2-54s33-39 33-39 8 54 11 65c4 11 11 23 13 30 2 7-11 54-9 69 2 15 17 60 45 64 0 0 3 65 24 61z m40-93s-14 5-27-4c-13-9-23-37-12-52 0 0 6-6 12 4 0 0-2 39 9 42s18 10 18 10z m-14 50s20 13 39 6c18-8 29-41 29-41s9 24-7 43c-17 18-45 7-58 5-13-2-14-3-3-13z m24 15s5 15-2 19c-8 4-17 7-13 13 4 5 22-6 28-23 5-16 5-16 5-16l-18 7z m15-76s35-47 35-96c0-48-17-87-30-87s-13 16-22 13c-9-4-22-21-9-25 13-3 26-11 37-3 11 7 24 17 31 33 8 17 6 53 8 71 1 19-23 84-32 94-9 9-18 16-18 0z m-80-150s15 4 20 13c6 10 8-2 4-20-4-19-6-49-2-62 4-13 20-48 43-45 22 4 29 13 35 25 5 11 17 13 18 1s-5-24-9-31c-4-8-2-8-13-13-11-6-33-13-52-4s-35 50-35 63c0 14-4 55-9 73z m-133-164s2 70 15 85c14 14 18 12 18 18 1 5 1 7-9 6-8 0-28-21-28-21l4-88z m161 492s-17-9-13-23c4-14 4-20-4-20s-12 17-22 11c-9-5-1-28-11-31-10-3-14 0-20-3s-27-26-25-37c2-12 21 17 27 11 6-6 16-14 8-20-8-6-31-6-41-20-10-14-12-22-17-14-6 8 11 60 23 74 12 15 76 77 95 72z m-123-246s-10-7-13-5c-3 2-11 12-15 23-4 11-2 19 0 25l-9-12-4-44 3 3s0 11 3 10c3 0 9-8 9-8l17-3 9 7 0 4z m-25-143s-6-5-9-3c-3 2-4 9-4 9l2-18 7 0 4 12z m228-22c5-4 10-8 9-12s-9-118-44-121c-35-3-65 13-83-4s2-33 2-33 2-20-13-4c0 0-5-5-6 0-1 4-2 34 7 41s21 13 27 19c6 6 46-7 57-4 22 6 21 35 29 56s11 67 15 62z m-230-118s8-32 20-32c0 0-16-9-14-20 2-11-6 52-6 52z m192-52s9 27 27 29 15 2 20 3 16 30 22 32 8 5 11 4 1-6-1-7-7-3-9-5-7-24-18-31-18-8-22-10-17-12-23-23c0 0-9-5-7 8z m-127 719l-52-26 0-80c-2 0-4 0-6 0-8-2-14-11-14-19 0-9 6-14 14-12 8 2 14 11 14 19 0 1 0 1 0 1l0 67 36 18 0-51c-2 0-4 0-6-1-8-2-15-10-15-19 0-8 7-14 15-11 8 2 14 10 14 18l0 0 0 96z m-193-249l-52-26 0-80c-2 1-4 1-6 0-8-2-14-11-14-19 0-9 6-14 14-12 8 2 14 11 14 19 0 1 0 1 0 1l0 67 36 18 0-51c-2 0-4 0-6 0-8-3-15-11-15-20 0-8 7-14 15-11 8 2 14 10 14 18l0 0 0 96z m65-189l-53-26 0-80c-2 1-4 1-6 0-8-2-14-11-14-19 0-9 6-14 14-12 8 2 15 11 15 20 0 0 0 0 0 1l0 67 35 17 0-51c-2 0-4 0-6 0-8-2-14-11-14-20 0-8 6-13 14-11 8 2 14 10 15 19l0 0 0 95z m535 507l-53-26 0-80c-2 0-4 0-6 0-8-3-14-11-14-20 0-8 6-13 14-11 8 2 15 10 15 19 0 0 0 1 0 1l0 67 35 17 0-51c-2 1-4 1-6 0-8-2-14-11-14-19 0-9 6-14 14-12 8 2 14 11 15 19l0 0 0 96z m247-142l-52-26 0-80c-2 1-4 0-6 0-8-2-14-11-14-19 0-9 6-14 14-12 8 2 14 11 14 19 0 1 0 1 0 1l0 67 36 18 0-51c-2 0-4 0-6-1-8-2-15-10-15-19 0-8 7-14 15-11 8 2 14 10 14 18l0 0 0 96z m-37-236l-52-26 0-80c-2 1-4 0-6 0-8-2-14-11-14-19 0-9 6-14 14-12 8 2 14 11 14 19 0 1 0 1 0 1l0 67 36 18 0-51c-2 0-4 0-6-1-8-2-15-10-15-19 0-8 7-14 15-11 8 2 14 10 14 18l0 0 0 96z m-179-434l53 0s-3 19-15 20c-12 0-38-20-38-20z m-400 27s-17 8-31 7c-14-1-20-18-20-18s15 9 22 9c8-1 22-9 22-9l7 11z m-270-33l29 0 23-90 25 90 30 0 17-169-30 0-8 98 0 0-28-98-12 0-26 98-1 0-9-98-30 0 20 169z m164-54l0-61c0-15 2-25 14-25s13 10 13 25l0 61 28 0 0-69c0-38-18-50-41-50s-42 12-42 50l0 69 28 0z m125-29c-5 3-11 5-15 5-3 0-9-2-9-8 0-7 9-9 13-10 13-3 22-12 22-34 0-30-18-43-37-43-11 0-22 5-31 14l10 28c5-6 15-11 22-11 3 0 9 2 9 8 0 9-9 10-18 13s-17 10-17 30c0 28 17 41 34 41 9 0 18-2 26-7l-9-26z m56 73c0-12-7-22-16-22-8 0-15 10-15 22s7 23 15 23c9 0 16-10 16-23z m-2-159l-28 0 0 115 28 0 0-115z m75 78c-4 4-9 8-14 8-11 0-20-12-20-28 0-17 9-28 20-28 5 0 10 3 14 7l0-34c-6-5-13-7-20-7-23 0-42 26-42 60 0 37 19 63 44 63 6 0 12-2 18-7l0-34z m18-78l0 169 42 0c21 0 35-11 35-44 0-15-4-27-13-34l0-1c16-3 24-19 24-43 0-35-21-47-42-47l-46 0z m30 103l3 0c8 0 16 2 16 16 0 16-9 17-17 17l-2 0 0-33z m0-69l3 0c9 0 24-1 24 18 0 20-15 18-24 18l-3 0 0-36z m100 62l1 0c5 15 14 21 25 21l5 0 0-39c-4 3-7 3-11 3-16 0-20-15-20-34l0-47-27 0 0 115 27 0 0-19z m127-96l-27 0 0 13-1 0c-5-11-14-17-23-17-24 0-40 29-40 62 0 33 16 61 39 61 9 0 19-5 25-15l0 11 27 0 0-115z m-62 58c0-15 6-26 18-26 11 0 17 11 17 26 0 14-6 26-17 26-12 0-18-12-18-26z m110 101c0-12-7-22-15-22s-16 10-16 22 7 23 16 23 15-10 15-23z m-1-159l-28 0 0 115 28 0 0-115z m46 100l0 0c6 14 14 19 25 19 21 0 30-19 30-48l0-71-28 0 0 56c0 11 1 31-13 31-11 0-14-13-14-27l0-60-28 0 0 115 28 0 0-15z m144-66l0-34-79 0 37 81-32 0 0 34 78 0-37-81 33 0z m-930 135l29 0 23-90 25 90 30 0 17-169-30 0-8 98 0 0-28-98-12 0-26 98-1 0-9-98-30 0 20 169z m164-54l0-61c0-15 2-25 14-25s13 10 13 25l0 61 28 0 0-69c0-38-18-50-41-50s-42 12-42 50l0 69 28 0z m125-29c-5 3-11 5-15 5-3 0-9-2-9-8 0-7 9-9 13-10 13-3 22-12 22-34 0-30-18-43-37-43-11 0-22 5-31 14l10 28c5-6 15-11 22-11 3 0 9 2 9 8 0 9-9 10-18 13s-17 10-17 30c0 28 17 41 34 41 9 0 18-2 26-7l-9-26z m56 73c0-12-7-22-16-22-8 0-15 10-15 22s7 23 15 23c9 0 16-10 16-23z m-2-159l-28 0 0 115 28 0 0-115z m75 78c-4 4-9 8-14 8-11 0-20-12-20-28 0-17 9-28 20-28 5 0 10 3 14 7l0-34c-6-5-13-7-20-7-23 0-42 26-42 60 0 37 19 63 44 63 6 0 12-2 18-7l0-34z m18-78l0 169 42 0c21 0 35-11 35-44 0-15-4-27-13-34l0-1c16-3 24-19 24-43 0-35-21-47-42-47l-46 0z m30 103l3 0c8 0 16 2 16 16 0 16-9 17-17 17l-2 0 0-33z m0-69l3 0c9 0 24-1 24 18 0 20-15 18-24 18l-3 0 0-36z m100 62l1 0c5 15 14 21 25 21l5 0 0-39c-4 3-7 3-11 3-16 0-20-15-20-34l0-47-27 0 0 115 27 0 0-19z m127-96l-27 0 0 13-1 0c-5-11-14-17-23-17-24 0-40 29-40 62 0 33 16 61 39 61 9 0 19-5 25-15l0 11 27 0 0-115z m-62 58c0-15 6-26 18-26 11 0 17 11 17 26 0 14-6 26-17 26-12 0-18-12-18-26z m110 101c0-12-7-22-15-22s-16 10-16 22 7 23 16 23 15-10 15-23z m-1-159l-28 0 0 115 28 0 0-115z m46 100l0 0c6 14 14 19 25 19 21 0 30-19 30-48l0-71-28 0 0 56c0 11 1 31-13 31-11 0-14-13-14-27l0-60-28 0 0 115 28 0 0-15z m144-66l0-34-79 0 37 81-32 0 0 34 78 0-37-81 33 0z" horiz-adv-x="1000" />
<glyph glyph-name="basket-circled" unicode="&#xe834;" d="m357 143q0-29-21-50t-50-22-50 22-22 50 22 50 50 21 50-21 21-50z m500 0q0-29-21-50t-50-22-51 22-21 50 21 50 51 21 50-21 21-50z m72 607v-286q0-13-10-23t-22-12l-583-68q7-34 7-40 0-8-13-35h513q15 0 26-11t10-25-10-25-26-11h-571q-14 0-25 11t-11 25q0 6 5 18t9 20 12 22 8 16l-98 460h-114q-15 0-25 10t-11 25 11 26 25 10h143q9 0 16-3t10-9 8-14 4-14 3-17 3-14h670q14 0 25-11t11-25z" horiz-adv-x="928.6" />
<glyph glyph-name="block" unicode="&#xe835;" d="m732 502q0 90-48 164l-421-420q76-50 166-50 62 0 118 25t96 65 65 97 24 119z m-557-167l421 421q-75 50-167 50-83 0-153-40t-110-112-41-152q0-91 50-167z m682 167q0-88-34-168t-91-137-137-91-166-35-167 35-137 91-91 137-34 168 34 167 91 137 137 91 167 34 166-34 137-91 91-137 34-167z" horiz-adv-x="857.1" />
<glyph glyph-name="info-circled" unicode="&#xe836;" d="m454 960q190 2 326-130t140-322q2-190-131-327t-323-141q-190-2-327 131t-139 323q-4 190 130 327t324 139z m52-152q-42 0-65-24t-23-50q-2-28 15-44t49-16q38 0 61 22t23 54q0 58-60 58z m-120-594q30 0 84 26t106 78l-18 24q-48-36-72-36-14 0-4 38l42 160q26 96-22 96-30 0-89-29t-115-75l16-26q52 34 74 34 12 0 0-34l-36-152q-26-104 34-104z" horiz-adv-x="920" />
<glyph glyph-name="youtube" unicode="&#xe837;" d="m807 889v-313h-64v35q-37-39-74-39-45 0-45 56v261h64v-240q0-21 17-21t38 24v237h64z m-237-73v-162q0-42-25-64t-68-22q-41 0-66 24t-26 63v162q0 39 28 60t67 20q38 0 64-22t26-59z m-65-167v171q0 10-9 17t-19 6-18-6-8-17v-171q0-26 26-26 28 0 28 26z m-190 351h73l-55-165q-4-12-10-27t-10-28-8-28v-176h-72v168q-2 12-29 85l-57 171h73l46-169h5z m611-739q0-49-6-145-4-50-38-79t-85-32q-99-5-297-5-199 0-297 5-50 2-84 32t-39 79q-6 96-6 145t6 145q4 50 39 80t84 31q98 5 297 5t297-5q50-2 85-31t38-80q6-96 6-145z m-71-91v19h-53q0-2 1-13t0-15-3-12-7-10-14-3q-10 0-15 6t-6 12-1 17v48h98v64q0 35-19 55t-54 20q-34 0-56-20t-23-55v-113q0-36 20-57t55-22q77 0 77 79z m-191-19v140q0 63-50 63-25 0-46-23v110h-52v-343h52v20q22-23 49-23 47 0 47 56z m-250-53h51v253h-51v-192q-17-19-31-19-13 0-13 17v194h-52v-213q0-44 36-44 30 0 60 32v-28z m-156 293h61v50h-179v-50h60v-293h58v293z m544-105v-28h-45v28q0 27 23 27 22 0 22-27z m-191 3v-133q0-21-18-21-14 0-25 11v158q10 10 22 10 21 0 21-25z" horiz-adv-x="1000" />
<glyph glyph-name="facebook-logo" unicode="&#xe839;" d="m696 929q67 0 114-48t47-113v-536q0-66-47-113t-114-48h-104v332h111l16 130h-127v83q0 31 13 46t51 16l68 1v115q-35 5-100 5-75 0-121-45t-45-126v-95h-112v-130h112v-332h-297q-67 0-114 48t-47 113v536q0 66 47 113t114 48h535z" horiz-adv-x="857.1" />
<glyph glyph-name="toggle-closed" unicode="&#xe83a;" d="m321 500q0-14-10-25l-250-250q-11-11-25-11t-25 11-11 25v500q0 15 11 25t25 11 25-11l250-250q10-10 10-25z" horiz-adv-x="357.1" />
<glyph glyph-name="stop-1" unicode="&#xe83c;" d="m0 500q0 207 147 354t353 146 354-146 146-354-146-353-354-147-353 147-147 353z m250-250l500 0 0 500-500 0 0-500z" horiz-adv-x="1000" />
<glyph glyph-name="to-end-1" unicode="&#xe83d;" d="m0 500q0 207 147 354t353 146 354-146 146-354-146-353-354-147-353 147-147 353z m164-133l672 0 0 266-672 0 0-266z" horiz-adv-x="1000" />
<glyph glyph-name="fast-forward" unicode="&#xe83e;" d="m0 500q0 207 147 354t353 146 354-146 146-354-146-353-354-147-353 147-147 353z m250-187l250 187-250 188 0-375z m313 0l249 187-249 188 0-375z" horiz-adv-x="1000" />
<glyph glyph-name="fast-backward" unicode="&#xe83f;" d="m0 500q0 207 147 354t353 146 354-146 146-354-146-353-354-147-353 147-147 353z m188 0l250-187 0 375z m312 0l250-187 0 375z" horiz-adv-x="1000" />
<glyph glyph-name="rss" unicode="&#xe840;" d="m104 292q44 0 74-31t31-73-31-73-74-31-74 31-30 73 30 73 74 31z m0 625q197 0 365-98t267-266 98-365q0-43-31-73t-74-31-74 31-30 73q0 215-152 368t-369 153q-44 0-74 31t-30 73 30 73 74 31z m0-313q172 0 295-122t122-294q0-43-30-73t-75-31-73 31-30 73q0 86-62 147t-147 62q-44 0-74 30t-30 73 30 73 74 31z" horiz-adv-x="834" />
<glyph glyph-name="heart" unicode="&#xe841;" d="m500 71q-14 0-25 11l-348 335q-5 5-15 15t-31 36-38 55-30 67-13 77q0 123 71 192t196 70q34 0 70-12t67-33 54-38 42-38q20 20 42 38t54 38 67 33 70 12q125 0 196-70t71-192q0-123-128-251l-347-335q-10-10-25-10z" horiz-adv-x="1000" />
<glyph glyph-name="heart-broken" unicode="&#xe842;" d="m0 680q0 103 73 176t177 73q81 0 147-47l-14-250q0-12 9-20t21-9h10q12 0 18-8t3-20l-57-172q-4-12-2-13t9 8l194 267q7 9 4 16t-16 7h-77q-12 0-17 8t-1 18l82 182q57 33 124 33 103 0 177-73t73-176q0-94-63-166l-343-403q-25-31-62-31t-63 31l-342 403q-64 72-64 166z" horiz-adv-x="937.5" />
<glyph glyph-name="resize-horizontal" unicode="&#xe843;" d="m1000 500q0-14-11-25l-142-143q-11-11-26-11t-25 11-10 25v72h-572v-72q0-14-10-25t-25-11-25 11l-143 143q-11 11-11 25t11 25l143 143q10 11 25 11t25-11 10-25v-72h572v72q0 14 10 25t25 10 26-10l142-143q11-11 11-25z" horiz-adv-x="1000" />
<glyph glyph-name="soundcloud-circled" unicode="&#xe844;" d="m0 500q0 95 37 182t100 149 150 100 182 37 182-37 149-100 100-149 37-182-37-182-100-150-149-100-182-37-182 37-150 100-100 150-37 182z m165-86q0-11 8-17t18-4q9 2 12 6t3 15v82q0 9-5 15t-15 6-15-6-6-15v-82z m65-35q0-8 6-12t14-5q10 0 16 5t6 12v191q0 8-6 15t-16 6q-8 0-14-6t-6-15v-191z m64-9q0-16 22-16 20 0 20 16v175q0 8-6 14t-14 6q-9 0-15-6t-7-14v-175z m66-1q0-15 20-15 22 0 22 15v283q0 23-15 26-9 3-18-5t-9-21v-283z m66-7q-1-6 5-8h245q40 0 68 27t29 68q0 40-29 68t-68 28q-18 0-36-8-6 65-54 109t-114 44q-19 0-38-4-8-3-8-17v-307z" horiz-adv-x="937.5" />
<glyph glyph-name="tags" unicode="&#xe845;" d="m250 750q0 30-21 51t-50 20-51-20-21-51 21-50 51-21 50 21 21 50z m595-321q0-30-20-51l-274-274q-22-21-51-21-30 0-50 21l-399 399q-21 21-36 57t-15 65v232q0 29 21 50t50 22h233q29 0 65-15t57-36l399-399q20-21 20-50z" horiz-adv-x="857.1" />
<glyph glyph-name="volume-up" unicode="&#xe846;" d="m896 330q0-34-24-57t-56-23l-780 0q-22 0-31 5t-3 15 24 20l802 452q28 18 48 7t20-45l0-374z" horiz-adv-x="896" />
<glyph glyph-name="toggle-off" unicode="&#xe847;" d="m643 500q0 58-23 111t-61 91-91 61-111 23-111-23-91-61-61-91-23-111 23-111 61-91 91-61 111-23 111 23 91 61 61 91 23 111z m428 0q0 58-22 111t-61 91-92 61-110 23h-216q67-51 106-125t38-161-38-161-106-125h216q58 0 110 23t92 61 61 91 22 111z m72 0q0-73-29-139t-76-113-114-77-138-28h-429q-72 0-138 28t-114 77-76 113-29 139 29 139 76 114 114 76 138 28h429q72 0 138-28t114-76 76-114 29-139z" horiz-adv-x="1142.9" />
<glyph glyph-name="toggle-on" unicode="&#xe848;" d="m0 500q0 73 29 139t76 114 114 76 138 28h429q72 0 138-28t114-76 76-114 29-139-29-139-76-113-114-77-138-28h-429q-72 0-138 28t-114 77-76 113-29 139z m786-286q58 0 110 23t92 61 61 91 22 111-22 111-61 91-92 61-110 23-111-23-91-61-61-91-23-111 23-111 61-91 91-61 111-23z" horiz-adv-x="1142.9" />
<glyph glyph-name="unlistened" unicode="&#xe84a;" d="m0 88q0 22 16 38l248 250q17 16 40 16t38-16q15-18 15-41t-15-39l-248-250q-41-35-78 0-16 19-16 42z m125 477q4 131 90 219 94 90 219 92 129-4 216-92 90-94 90-219 0-50-11-83t-36-75q-9-23-41-60t-41-53q-6-18-6-39t0-48 2-42q-2-90-54-133-53-29-114-29-21 2-35 16t-14 33 12 35q10 10 21 14t26 4 24 3q25 8 27 16 6 20 6 59 2 9 0 59t4 58q10 41 29 68 6 6 16 18t15 17l32 47q5 8 14 25t13 22q12 31 12 68-2 90-61 149-64 60-146 60-88-2-147-60-60-65-62-149 0-21-14-36t-35-14q-22 2-36 16t-15 34z m154-7q2 66 45 109 47 45 110 47 64-4 107-47 45-47 47-109-2-20-14-32t-29-11q-41 3-41 43-2 29-23 49t-47 21q-30-2-50-23t-21-47q-2-20-13-32t-30-11q-41 3-41 43z m434 249q0 22 17 38l135 136q20 16 41 16t37-16q18-17 17-40t-17-38l-134-136q-41-38-79 0-17 17-17 40z" horiz-adv-x="960" />
<glyph glyph-name="refresh" unicode="&#xe84b;" d="m843 411q0-3 0-4-36-150-150-243t-267-93q-81 0-157 31t-136 88l-72-72q-11-11-25-11t-25 11-11 25v250q0 14 11 25t25 11h250q14 0 25-11t10-25-10-25l-77-77q40-37 90-57t105-20q74 0 139 37t104 99q6 10 29 66 5 13 17 13h107q8 0 13-6t5-12z m14 446v-250q0-14-10-25t-26-11h-250q-14 0-25 11t-10 25 10 25l77 77q-82 77-194 77-75 0-140-37t-104-99q-6-10-29-66-5-13-17-13h-111q-7 0-13 6t-5 12v4q36 150 151 243t268 93q81 0 158-31t137-88l72 72q11 11 25 11t26-11 10-25z" horiz-adv-x="857.1" />
<glyph glyph-name="tick" unicode="&#xe84f;" d="m932 684q0-22-15-38l-404-404-76-76q-16-15-38-15t-38 15l-76 76-202 202q-15 16-15 38t15 38l76 76q16 16 38 16t38-16l164-165 366 367q16 16 38 16t38-16l76-76q15-16 15-38z" horiz-adv-x="1000" />
<glyph glyph-name="twitter-logo" unicode="&#xe850;" d="m904 772q-37-54-90-93 0-8 0-23 0-73-21-145t-64-139-103-117-144-82-181-30q-151 0-276 81 19-3 43-3 126 0 224 77-59 2-105 36t-64 89q19-2 34-2 24 0 48 6-63 13-104 62t-41 115v2q38-21 82-23-37 25-59 64t-22 86q0 49 25 91 68-83 164-133t208-55q-5 21-5 41 0 75 53 127t127 53q79 0 132-57 61 12 114 44-20-65-79-100 52 6 104 28z" horiz-adv-x="928.6" />
<glyph glyph-name="bbc-logo" unicode="&#xe853;" d="m542 459c0-31-39-30-39-30l-38 0 0 56 38 0c40 0 39-26 39-26m-77 111l29 0c31-1 29-24 29-24 0-28-33-29-33-29l-25 0 0 53z m70-63s26 11 26 40c0 0 4 49-61 55l-71 0 0-204 82 0s68 0 68 58c0 0 2 39-44 51m-186 135l302 0 0-284-302 0 0 284z m-155-183c0-31-38-30-38-30l-39 0 0 56 39 0c39 0 38-26 38-26m-77 111l30 0c30-1 29-24 29-24 0-28-34-29-34-29l-25 0 0 53z m70-63s26 11 26 40c0 0 4 49-60 55l-72 0 0-204 82 0s69 0 69 58c0 0 1 39-45 51m-185 135l301 0 0-284-301 0 0 284z m935-55l0-37s-37 22-78 23c0 0-76 1-79-73 0 0-3-68 78-72 0 0 35-4 81 25l0-39s-62-37-134-8c0 0-60 22-63 94 0 0-2 74 78 99 0 0 22 8 60 5 0 0 24-3 57-17m-240-229l301 0 0 284-301 0 0-284z" horiz-adv-x="1000" />
<glyph glyph-name="internetarchive-circled" unicode="&#xe854;" d="m251 897l-11 31h-38l-12-31h-9l30 82c1 2 3 8 3 9 0 6-7 6-12 7v3h28l37-101h-16z m-31 82l-16-44h34l-18 44z m160-82l-26 47h-10v-47h-16v81c0 14 0 15-14 17v3h38c18 0 41-4 41-27 0-15-9-22-23-24l28-50h-18z m-26 94c-10 0-10-4-10-13v-27h9c13 0 23 5 23 20 0 14-7 20-22 20z m139-95c-34 0-44 22-44 53 0 29 10 50 42 50 10 0 21-2 30-5l1-25h-4c-1 3-2 7-3 9-5 9-13 14-22 14-23 0-26-25-26-43 0-18 6-45 29-45 10 0 18 2 26 8v-11c-9-4-18-5-29-5z m153 1v49h-41v-49h-16v82c0 13-3 13-15 14v4l31 3v-47h41v45h17v-101h-17z m75 0v4c11 0 13 3 13 14v65c0 11-2 14-13 14v3h42v-3c-11 0-13-4-13-14v-65c0-11 2-14 13-14v-4h-42z m152 0h-13l-30 82c-4 13-5 14-18 16v3h29l30-82h0l29 82h10l-37-101z m156 0h-61v81c0 14 0 15-14 17v3h72l1-22h-4c0 11-6 15-17 15h-11c-7 0-10 0-10-8v-29h18c9 0 11 3 13 11h4v-31h-4c0 8-4 12-13 12h-18v-33c0-8 2-9 10-9h16c10 0 13 5 14 15h4l0-22z m-928-897h-3c0 11-3 13-14 13h-65c-11 0-14-2-14-13h-4v42h4c0-11 3-13 14-13h65c10 0 14 2 14 13h3v-42z m0 165l-85-49v-1h85v-9h-82c-14 0-13-2-16-15h-3v32l82 47v0h-82v10h101v-15z m-79 149c-11 0-15-5-15-16v-10h94v-17h-94v-10c0-12 3-16 15-17v-4l-22 1v77l22 1v-5z m79 125v-60h-80c-15 0-15 0-18-14h-3v72l22 0v-4c-11 0-15-5-15-16v-12c0-7 0-9 8-9h30v18c0 8-4 11-12 12v4h32v-4c-9 0-13-3-13-12v-18h34c8 0 8 1 8 9v17c0 10-5 13-14 13v5l21-1z m0 121l-46-26v-10h46v-16h-80c-15 0-16 0-18-15h-3v39c0 18 4 41 27 41 15 0 23-9 25-23l49 28v-18z m-94-26c0-10 4-10 14-10h26v9c0 13-4 23-19 23-15 0-21-7-21-22z m94 168l-85-50v0h85v-10h-82c-14 0-13-2-16-15h-3v32l82 47v1h-82v9h101v-14z m0 148v-60h-80c-15 0-15 0-18-15h-3v72l22 1v-4c-11 0-15-6-15-17v-11c0-7 0-10 8-10h30v18c0 9-4 11-12 13v4h32v-4c-9 0-13-4-13-13v-18h34c8 0 8 2 8 10v16c0 11-5 13-14 14v4l21 0z m-79 129c-11 0-15-5-15-16v-10h94v-17h-94v-10c0-12 3-16 15-17v-4l-22 1v77l22 0v-4z m337-576c0 35-1 70-3 105-1 33-3 66-5 99 0 3-1 4-3 4-10 2-20 3-30 3-10 0-19-1-29-3-3 0-4-1-4-4-2-33-4-66-5-99-1-35-2-70-3-105 0-25 0-50 0-75 1-28 1-56 3-83 1-30 3-59 4-89 1-6 1-11 2-17 11-3 21-4 32-5 11 1 22 2 33 5 0 6 1 11 1 17 2 30 4 59 5 89 1 27 2 55 2 83 0 25 1 50 0 75z m182 0c-1 35-2 70-3 105-1 33-4 66-5 99 0 3-2 4-4 4-10 2-19 3-29 3-10 0-20-1-30-3-2 0-3-1-4-4-1-33-3-66-5-99-1-35-2-70-2-105-1-25-1-50 0-75 0-28 1-56 2-83 1-30 3-59 5-89 0-6 1-11 1-17 11-3 22-4 33-5 10 1 21 2 32 5 1 6 1 11 2 17 1 30 3 59 4 89 1 27 2 55 2 83 1 25 1 50 1 75z m210 0c0 35-1 70-3 105-1 33-3 66-5 99 0 3-1 4-3 4-10 2-20 3-30 3-10 0-20-1-29-3-3 0-4-1-4-4-2-33-4-66-5-99-1-35-2-70-3-105 0-25 0-50 0-75 1-28 1-56 2-83 2-30 3-59 5-89 0-6 1-11 1-17 11-3 22-4 33-5 11 1 22 2 33 5 0 6 1 11 1 17 2 30 4 59 5 89 1 27 1 55 2 83 0 25 1 50 0 75z m177 0c0 35-1 70-3 105-1 33-3 66-5 99 0 3-1 4-3 4-10 2-20 3-30 3-10 0-19-1-29-3-3 0-4-1-4-4-2-33-4-66-5-99-1-35-2-70-3-105 0-25 0-50 0-75 1-28 1-56 3-83 1-30 3-59 4-89 1-6 1-11 2-17 11-3 21-4 32-5 11 1 22 2 33 5 0 6 1 11 1 17 2 30 4 59 5 89 1 27 2 55 2 83 0 25 1 50 0 75z" horiz-adv-x="1029" />
<glyph glyph-name="explicit" unicode="&#xe855;" d="m0 311c526 0 1053 0 1579 0l0-314-1579 0 0 314z m145-232c0 0 0 21 0 21 0 0-34 0-34 0 0 0 0 58 0 58 0 0 20 0 20 0 0 0 0 22 0 22 0 0-21 0-21 0 0 0 0 46 0 46 0 0 35 0 35 0 0 0 0 21 0 21l-55 0 0-168c0 0 55 0 55 0z m64 62c0 0 9-62 9-62 0 0 21 0 21 0 0 0-13 86-13 86 0 0 12 82 12 82 0 0-19 0-19 0 0 0-10-63-10-63 0 0-14 63-14 63 0 0-21 0-21 0 0 0 18-82 18-82 0 0-17-86-17-86 0 0 20 0 20 0 0 0 14 62 14 62z m89 1c1 0 16 1 26 13 11 13 13 25 13 42 0 25-9 51-36 50l-24 0c0 0 0-168 0-168 0 0 21 0 21 0 0 0 0 64 0 63z m0 79c0 0 3 0 6 0 8-2 12-8 12-26 0-19-5-25-12-26-3-1-6 0-6 0 0 0 0 52 0 52z m133-121l-31 0c0 0 0 147 0 147 0 0-21 0-21 0 0 0 0-168 0-168 0 0 52 0 52 0 0 0 0 21 0 21z m54-21c0 0 0 168 0 168 0 0-21 0-21 0 0 0 0-168 0-168 0 0 21 0 21 0z m106 47c0 0-19 0-19 0 0 0 0-10 0-16 0-16-19-15-19 1 0 10 0 30 0 52 0 27-1 45 0 54 2 13 19 14 19 1 0-5 0-18 0-18 0 0 19 0 19 0 0 0 0 10 0 16 1 9-2 18-5 22-7 9-18 10-25 9-12 0-23-5-27-19-3-8-3-65-3-65 0 0 0-49 0-49 1-21 8-36 30-36 18 1 29 11 30 27 1 7 0 14 0 21z m56 121c0 0-21 0-21 0 0 0 0-168 0-168 0 0 21 0 21 0 1 0 0 168 0 168z m79-21c0 0 21 0 21 0 0 0 0 21 0 21 0 1-62 0-62 0 0 0 0-21 0-21 0 0 20 0 20 0 0 0 0-147 0-147 0 0 21 0 21 0 0 0 0 147 0 147z m185-138c6 11 5 38 5 38 0 0-21 0-21 0 0 0 1-19-1-22 0-2-4-6-8-6-5 0-6 4-7 6-1 1-2 5-2 9 0 1-1 96 1 103 1 10 14 9 16 1 1-3 1-17 1-17 0 0 21 0 21 0 0 0 1 21-6 34-9 15-30 19-44 6-5-5-8-10-9-23-1-11-1-28-1-53 0-25-1-53 1-64 2-15 15-24 28-24 10 1 21 3 26 12z m87-3c6 7 11 24 11 78 0 42-1 64-7 74-8 14-32 13-38 3-10-8-12-31-13-77-1-57 1-68 8-77 10-12 29-12 39-1z m-28 78c1 30 1 47 3 55 1 4 4 5 6 5 2 0 5-1 7-5 2-8 3-25 2-55-1-32 0-51-2-58-1-2-2-6-6-6-10 0-10 17-10 64z m100 24c0 0 25-108 25-108 0 0 21 0 21 0 0 0 0 168 0 168 0 0-21 1-21 1 0-1 0-111 0-111 0 0-27 110-27 110 0 0-19 0-19 0 0 0 0-168 0-168 0 0 21 0 21 0 0 0 0 108 0 108z m120 39c-1 0 21 0 21 0 0 0 0 21 0 21 0 0-64 0-64 0 0 0 0-21 0-21 0 0 22 0 22 0 0 0 0-147 0-147 0 0 21 0 21 0-1 0 0 147 0 147z m109-147c0 0 0 21 0 21 0 0-30 0-30 0 0 0 0 58 0 58 0 0 20 0 20 0 0 0 0 22 0 22 0 0-20 0-20 0 0 0 0 47 0 47 0 0 30 0 30 0 0 0 0 20 0 20l-52 0 0-83 0-85c0 0 52 0 52 0z m61 108c0 0 25-108 25-108 0 0 21 0 21 0 0 0 0 168 0 168 0 0-21 0-21 0l0-110-26 110c0 0-20 0-20 0 0 0 0-168 0-168 0 0 21 0 21 0 0 0 0 108 0 108z m119 39c0 0 21 0 21 0 0 0 0 21 0 21 0 0-63 0-63 0 0 0 0-21 0-21 0 0 21 0 21 0 0 0 0-147 0-147 0 0 21 0 21 0 0 0 0 147 0 147z m-1424 157c2 17 13 93 22 171l18 146c0 0 43 0 43 0 0 0 41-347 41-347 0 0-47 0-47 0 0 0-4 83-4 84-1 0-19 0-20 0l-8-84-48 0 1 11 2 19z m71 90c-1 35-9 151-8 150-1 0-9-150-9-150 1 0 17 0 17 0z m132 227l43 0c47 0 66-13 76-43 9-24 10-230 1-258-3-11-13-26-21-33-14-12-21-13-57-13l-42 0 0 347z m74-285c3 8 5 53 5 113 0 88-1 104-9 111-7 8-21 8-21 8 0 0-2-240-2-241 0 0 23 0 27 9z m164-62c-10 116-24 231-33 347 0 0 41 0 41 0 9-68 9-137 17-205l26 205c0 0 42 0 42 0 0 0-42-347-42-347 1 0-51 0-51 0z m167 347l48 0 0-347-48 0 0 347z m160-342c-19 9-29 35-27 68l-1 29 24 0 22 0 1-27c2-22 5-26 13-26 9 0 11 4 12 26 2 28 1 30-50 112-22 35-31 76-22 107 8 30 31 53 52 53 40 0 64-29 64-76l0-25c0 0-46 1-46 1 0 0 1 10 1 22 0 25-12 33-22 24-6-4-8-13-6-31 2-20 10-36 35-74 35-54 43-74 43-110 0-28-13-65-31-73-16-8-47-7-62 0z m174 41c-4 38-3 177-1 237 0 35 20 63 57 64 43 0 60-29 63-67 1-23 0-58 0-104 1-79-2-113-4-131-6-25-17-44-54-45-39-1-55 16-61 46z m76 236c-1 19-8 22-16 23-10 0-17-9-18-25-1-19-1-178 0-200 1-22 0-33 19-33 16 0 14 23 15 36 0 24 0 183 0 199z m132 65l42 0c32-1 44-5 53-13 19-17 26-41 26-86 0-34-2-44-11-56l-11-14 11-12c11-11 11-18 11-89l0-77-47 0 0 68c0 63-1 80-10 84-2 1-16 0-16 0l0-152-48 0 0 347z m68-141c2 2 4 6 6 18 1 11 1 29 1 38 0 34-25 31-26 31 0 0 0-93 0-93 0 0 12 0 19 6z m167-206c0 0 0 158 0 158 0 0-36 189-35 189 0 0 38 0 38 0 0 0 22-126 23-125 0 0 17 125 17 125 0 0 39 0 39 0 0 0 0 0 0 0 0 0-35-189-35-189l0-158c0 0-47 0-47 0z m-1440 647l1579 0 0-268-1579 0 0 268z m121-163c11 4 24 5 35 13 10 10 13 18 13 40 0 37-16 53-53 53l-26 0 0-79c0-43 0-80 0-80 0 0 31 0 31 0 0 18-1 35 0 53z m0 53c0 15 0 21 0 21 0 0 4 0 5 0 8 0 11-5 11-10 0-4 0-7 0-11 0-3 0-6 0-10 0-7-2-12-14-12 0 0-2 0-2 0 0 0 0 6 0 22z m188-68c0 0 14-1 14-1 0 0 3-36 4-37 0 0 30 0 30 0 0 0-33 159-33 159 0 0-22 0-22 0 0 0-25-159-25-159 0 0 28 0 28 0 0 0 4 38 4 38z m6 75c0 0 8-60 8-60 0 0-14 0-14 0 0 0 6 60 6 60z m619 46l-29 0c0 0 1-78 1-78 0 0-33 78-33 78l-26 0 0-159 32 0c0 0-1 87-2 87 0 0 29-87 29-87 0 0 28 0 28 0 0 0 0 159 0 159z m171-32c0 0 21 0 21 0l0 32c0 0-73 0-73 0 0 0 0-32 0-32 0 0 21 0 21 0 0 0 0-127 0-127 0 0 31 0 31 0 1 0 0 127 0 127z m158-127c0 0 6 37 6 37 0 0 14 0 14 0 0 0 7-37 7-37l27 0-29 159c0 0-24 0-24 0 0 0-24-159-24-159 0 0 23 0 23 0z m6 53c-1 0 6 50 8 60 0 0 6-46 7-60 0 0-15 0-15 0z m-764 10c4 0 7 0 11 0l0-63 30 0 0 33c0 23-2 31-6 40 0 0-3 8-3 8 0 0 3 3 4 5 2 4 5 8 5 26 0 27-7 47-28 47l-44 0 0-159 31 0c0 0 0 64 0 63z m0 48c0 4 0 16 0 16 0 0 11 0 11 0 0 0 2-8 2-17 0-8-2-15-2-15 0 0-11 0-11 0 0 0 0 12 0 16z m226-111c0 0 1 27 1 27 0 0-32 0-32 0 0 0 0 42 0 42 0 0 20 0 21 0 0 0 0 26 0 26-1 0-21 0-21 0 0 0-1 32 0 32 0 0 32 0 32 0 0 0 0 16 0 16 0 0 0 16 0 16l-63 0 0-159 29 0c1 0 33 0 33 0z m764 27l-31 0 0 132-32 0 0-159 63 0c0 0 0 27 0 27z" horiz-adv-x="1579" />
<glyph glyph-name="mp3-audio" unicode="&#xe856;" d="m423 7c-20 1-46 2-56 4-74 10-151 43-209 90-9 7-28 25-42 39-60 63-99 145-110 232-3 29-1 99 4 128 15 93 54 183 112 256 104 130 276 220 454 238 158 15 303-46 379-161 21-31 44-82 42-90-3-8-9-5-13 7-14 41-42 85-74 117-41 41-105 73-168 85-79 16-159 10-252-18-105-32-191-82-261-152-75-75-120-162-140-268-5-30-5-110 0-136 14-63 42-114 87-157 48-46 109-77 180-92 29-5 101-8 134-4 92 11 167 46 220 103 29 30 43 55 71 124 10 23 27 64 39 90 46 106 46 105 37 113-4 4-6 5-15 4-17-2-32-16-45-41-3-6-26-57-51-112l-45-101-80 0c-76 0-81 0-81 3 0 2 22 54 50 116 42 94 49 113 49 121 0 9 0 10-6 13-15 5-34-4-48-24-4-7-29-60-56-119-26-59-48-108-49-108-1-1-37-2-80-3-68 0-79 0-81 3-2 3 31 77 124 284l16 35 78 0c76-1 77-1 78-5 2-7 4-8 16-2 24 10 48 15 81 15 25 0 32-1 45-5 18-5 33-15 39-24l4-6 17 8c59 28 126 35 169 19 16-6 34-23 39-36 6-15 5-38-2-59-13-39-100-227-126-274-64-114-135-181-232-219-40-16-99-28-148-30-48-3-57-3-94-1z m494 131c-1 1 17 43 39 93 77 172 90 200 132 297l44 97 84 0 85 0 1-6c1-7 1-7 16 0 23 10 44 14 75 15 66 0 105-20 117-60 19-64-39-181-116-232-45-30-86-43-141-45-31-2-45 1-68 12-7 3-13 6-14 6 0-1-16-37-36-82-20-44-38-84-40-89l-4-8-87 0c-54 0-86 1-87 2z m332 224c24 9 54 54 80 119 14 33 19 57 18 75 0 11-1 15-5 18-15 11-46-10-71-48-21-32-47-89-54-119-4-19-3-38 2-44 5-5 19-6 30-1z m330-63c-29 4-45 9-69 20-16 8-24 13-37 26-8 8-15 16-15 18 2 3 82 63 86 63 2-1 10-3 18-6 12-4 14-6 13-10-3-30-3-39 0-45 6-16 29-22 57-16 26 5 42 14 64 35 27 28 42 59 40 86-1 16-6 25-20 31-8 4-13 4-46 4-32 0-37 1-39 4-1 3 15 41 20 48 1 2 9 2 27 2 29 0 43 4 67 15 33 15 64 55 70 89 2 12 2 15-2 22-5 12-16 17-34 17-23 0-46-9-63-24-11-10-17-21-18-35l-1-11-20-6c-11-3-20-6-22-5-3 1-39 59-39 63 0 3 30 24 51 34 53 27 130 41 195 36 72-6 110-30 114-72 4-54-43-106-117-132-10-4-19-7-20-8-1-1 5-5 12-9 43-23 56-62 35-109-15-35-50-70-94-92-20-10-60-24-84-28-41-9-89-10-129-5z" horiz-adv-x="1981" />
<glyph glyph-name="wma-audio" unicode="&#xe857;" d="m967 500l-94 0c0-206-167-373-373-373l0-94c258 0 467 209 467 467z m-467 373c206 0 373-167 373-373l94 0c0 258-209 467-467 467l0-94z m-467-373c0-258 209-467 467-467l0 94c-206 0-373 167-373 373l-94 0z m0 0l94 0c0 206 167 373 373 373l0 94c-258 0-467-209-467-467z m337 206c-14-1-26-14-26-29l0-354c0-10 6-20 14-25 9-5 20-5 29 0l298 178c9 5 14 14 14 24 0 10-5 19-14 24l-298 178c-5 3-11 4-17 4z" horiz-adv-x="1000" />
</font>
</defs>
</svg>
