<?xml version="1.0" encoding="UTF-8" standalone="no"?>
<!-- Generator: Adobe Illustrator 16.0.4, SVG Export Plug-In . SVG Version: 6.00 Build 0)  -->

<svg
   xmlns:dc="http://purl.org/dc/elements/1.1/"
   xmlns:cc="http://creativecommons.org/ns#"
   xmlns:rdf="http://www.w3.org/1999/02/22-rdf-syntax-ns#"
   xmlns:svg="http://www.w3.org/2000/svg"
   xmlns="http://www.w3.org/2000/svg"
   xmlns:xlink="http://www.w3.org/1999/xlink"
   xmlns:sodipodi="http://sodipodi.sourceforge.net/DTD/sodipodi-0.dtd"
   xmlns:inkscape="http://www.inkscape.org/namespaces/inkscape"
   version="1.1"
   id="Capa_1"
   x="0px"
   y="0px"
   width="16px"
   height="16px"
   viewBox="0 0 16 16"
   enable-background="new 0 0 16 16"
   xml:space="preserve"
   sodipodi:docname="dialog-error.svg"
   inkscape:version="0.92.2 5c3e80d, 2017-08-06"><metadata
     id="metadata9"><rdf:RDF><cc:Work
         rdf:about=""><dc:format>image/svg+xml</dc:format><dc:type
           rdf:resource="http://purl.org/dc/dcmitype/StillImage" /></cc:Work></rdf:RDF></metadata><defs
     id="defs7"><linearGradient
       inkscape:collect="always"
       id="linearGradient823"><stop
         style="stop-color:#fff94b;stop-opacity:1"
         offset="0"
         id="stop819" /><stop
         style="stop-color:#c8451f;stop-opacity:1"
         offset="1"
         id="stop821" /></linearGradient><radialGradient
       inkscape:collect="always"
       xlink:href="#linearGradient823"
       id="radialGradient825"
       cx="7.9845181"
       cy="8.5"
       fx="7.9845181"
       fy="8.5"
       r="7.9530453"
       gradientTransform="matrix(2.8667948,0.02768971,-0.01284617,0.850039,-14.796264,0.51120604)"
       gradientUnits="userSpaceOnUse" /></defs><sodipodi:namedview
     pagecolor="#ffffff"
     bordercolor="#666666"
     borderopacity="1"
     objecttolerance="10"
     gridtolerance="10"
     guidetolerance="10"
     inkscape:pageopacity="0"
     inkscape:pageshadow="2"
     inkscape:window-width="1545"
     inkscape:window-height="971"
     id="namedview5"
     showgrid="false"
     inkscape:zoom="14.75"
     inkscape:cx="-4.3016949"
     inkscape:cy="8"
     inkscape:window-x="481"
     inkscape:window-y="141"
     inkscape:window-maximized="0"
     inkscape:current-layer="Capa_1" /><path
     d="M 15.82,13.496133 8.882,1.5537593 C 8.709,1.2552 8.37,1.0677966 8.001,1.0677966 H 8 c -0.369,0 -0.707,0.1864848 -0.881,0.4850441 L 0.15,13.495213 c -0.166,0.285699 -0.157,0.629272 0.023,0.905784 0.181,0.275593 0.507,0.446461 0.858,0.446461 h 13.906 c 0.351,0 0.677,-0.169031 0.858,-0.446461 0.181,-0.276512 0.19,-0.620085 0.025,-0.904864 z M 8,13.010169 c -0.552,0 -1,-0.411552 -1,-0.918644 0,-0.507091 0.448,-0.918644 1,-0.918644 0.551,0 1,0.411553 1,0.918644 0,0.507092 -0.449,0.918644 -1,0.918644 z M 9,9.3502912 c 0,0.5080106 -0.449,0.9186438 -1,0.9186438 -0.552,0 -1,-0.4106332 -1,-0.9186438 v -3.674576 c 0,-0.5070915 0.448,-0.918644 1,-0.918644 0.551,0 1,0.4115525 1,0.918644 z"
     id="path2"
     style="fill:url(#radialGradient825);fill-opacity:1;stroke-width:0.9584592"
     inkscape:connector-curvature="0" /></svg>