<?xml version="1.0" encoding="UTF-8" standalone="no"?>
<!-- Generator: Adobe Illustrator 18.0.0, SVG Export Plug-In . SVG Version: 6.00 Build 0)  -->

<svg
   xmlns:dc="http://purl.org/dc/elements/1.1/"
   xmlns:cc="http://creativecommons.org/ns#"
   xmlns:rdf="http://www.w3.org/1999/02/22-rdf-syntax-ns#"
   xmlns:svg="http://www.w3.org/2000/svg"
   xmlns="http://www.w3.org/2000/svg"
   xmlns:xlink="http://www.w3.org/1999/xlink"
   xmlns:sodipodi="http://sodipodi.sourceforge.net/DTD/sodipodi-0.dtd"
   xmlns:inkscape="http://www.inkscape.org/namespaces/inkscape"
   id="Capa_1"
   enable-background="new 0 0 100 100"
   xml:space="preserve"
   viewBox="0 0 55 55"
   height="100%"
   width="100%"
   version="1.1"
   y="0px"
   x="0px"
   sodipodi:docname="edit-delete.svg"
   inkscape:version="0.92.2 5c3e80d, 2017-08-06"><defs
     id="defs7"><linearGradient
       inkscape:collect="always"
       id="linearGradient818"><stop
         style="stop-color:#fff94b;stop-opacity:1"
         offset="0"
         id="stop814" /><stop
         style="stop-color:#c8451f;stop-opacity:1"
         offset="1"
         id="stop816" /></linearGradient><radialGradient
       inkscape:collect="always"
       xlink:href="#linearGradient818"
       id="radialGradient820"
       cx="27.405682"
       cy="27.544149"
       fx="27.405682"
       fy="27.544149"
       r="27.405457"
       gradientTransform="matrix(-2.9117903,0.08496141,-0.02890525,-0.99063843,108.00145,52.502017)"
       gradientUnits="userSpaceOnUse" /></defs><sodipodi:namedview
     pagecolor="#ffffff"
     bordercolor="#666666"
     borderopacity="1"
     objecttolerance="10"
     gridtolerance="10"
     guidetolerance="10"
     inkscape:pageopacity="0"
     inkscape:pageshadow="2"
     inkscape:window-width="1197"
     inkscape:window-height="725"
     id="namedview5"
     showgrid="false"
     inkscape:zoom="4.2909091"
     inkscape:cx="-15.03178"
     inkscape:cy="27.5"
     inkscape:window-x="619"
     inkscape:window-y="183"
     inkscape:window-maximized="0"
     inkscape:current-layer="Capa_1" /><metadata
     id="metadata9"><rdf:RDF><cc:Work
         rdf:about=""><dc:format>image/svg+xml</dc:format><dc:type
           rdf:resource="http://purl.org/dc/dcmitype/StillImage" /><dc:title /></cc:Work></rdf:RDF></metadata><path
     id="path3"
     d="m54.53,41.358c0-0.3-0.1-0.6-0.4-0.9-4.3-4.4-8.5-9.1-12.9-13.9,4-4.3,8-8.4,12.3-12.4,0.4-0.4,0.5-0.9,0.3-1.3,0.4-0.4,0.6-1,0.2-1.5-1.4-2-3.4-3.7-5.3-5.2-1.4-1.2-4.2-3.6-6.2-2.8-0.2,0.1-0.4,0.3-0.6,0.5,0,0-0.1,0.1-0.1,0.1-2.7,2.8-4.9,6-7.7,8.8-1.1,1-2.2,2.1-3.3,3.1-5.6-5.4-11.5-10.3-18-14-0.3-0.1-0.5-0.1-0.8,0-0.3,0-0.7,0.1-0.9,0.4-1.5,1.8-3.3,3.4-5.1,4.9-1,0.9-2.1,1.8-3.2,2.5-0.6,0.4-1.5,0.6-1.9,1.2-0.1,0.1-0.2,0.2-0.3,0.3-0.5,0.2-0.9,0.9-0.4,1.3,5.4,5.2,10.5,10.7,15.7,16-1.9,1.5-3.9,2.9-5.9,4.4-3,2.2-5.8,4.6-7.4,7.9-0.4,0.2-0.7,0.6-0.6,1.1,0.7,2.7,3.4,5.1,5.3,7,1.3,1.3,4.3,4.9,6.3,4.4,0.1,0,0.2-0.1,0.3-0.2,0.3,0.2,0.6,0.2,0.9,0,5.1-3.3,9.5-8,13.7-12.7,2.5,2.2,5,4.4,7.4,6.8,1.5,1.5,4.1,5.1,6.5,5,0.1,0,0.2,0,0.3-0.1,0.1,0.6,0.7,1.2,1.4,0.7,3.9-2.6,8.9-5.4,10.5-10.2,0.3-0.5,0.2-0.9-0.1-1.2zm-27.3-18.8c1.8,1.5,3.4,3.2,5,4.9-1.7-1.6-3.4-3.2-5-4.9z"
     style="fill-opacity:1;fill:url(#radialGradient820)" /></svg>