<?xml version="1.0" encoding="UTF-8" standalone="no"?>
<svg
   xmlns:dc="http://purl.org/dc/elements/1.1/"
   xmlns:cc="http://creativecommons.org/ns#"
   xmlns:rdf="http://www.w3.org/1999/02/22-rdf-syntax-ns#"
   xmlns:svg="http://www.w3.org/2000/svg"
   xmlns="http://www.w3.org/2000/svg"
   xmlns:xlink="http://www.w3.org/1999/xlink"
   xmlns:sodipodi="http://sodipodi.sourceforge.net/DTD/sodipodi-0.dtd"
   xmlns:inkscape="http://www.inkscape.org/namespaces/inkscape"
   width="205.66005mm"
   height="207.89409mm"
   viewBox="0 0 205.66004 207.89409"
   version="1.1"
   id="svg8"
   sodipodi:docname="musicbrainz_logo.svg"
   inkscape:version="0.92.2 5c3e80d, 2017-08-06">
  <sodipodi:namedview
     pagecolor="#ffffff"
     bordercolor="#666666"
     borderopacity="1"
     objecttolerance="10"
     gridtolerance="10"
     guidetolerance="10"
     inkscape:pageopacity="0"
     inkscape:pageshadow="2"
     inkscape:window-width="1611"
     inkscape:window-height="952"
     id="namedview45"
     showgrid="false"
     inkscape:zoom="0.8495273"
     inkscape:cx="177.19932"
     inkscape:cy="392.87072"
     inkscape:window-x="541"
     inkscape:window-y="352"
     inkscape:window-maximized="0"
     inkscape:current-layer="svg8" />
  <defs
     id="defs2">
    <linearGradient
       inkscape:collect="always"
       id="linearGradient964">
      <stop
         style="stop-color:#fff94b;stop-opacity:1"
         offset="0"
         id="stop960" />
      <stop
         style="stop-color:#c8451f;stop-opacity:1"
         offset="1"
         id="stop962" />
    </linearGradient>
    <radialGradient
       inkscape:collect="always"
       xlink:href="#linearGradient964"
       id="radialGradient968"
       gradientUnits="userSpaceOnUse"
       gradientTransform="matrix(-2.1769317,-0.02784069,0.01155624,-0.90361045,325.13695,200.73449)"
       cx="102.72118"
       cy="103.94703"
       fx="102.72118"
       fy="103.94703"
       r="100.68104" />
    <radialGradient
       inkscape:collect="always"
       xlink:href="#linearGradient964"
       id="radialGradient974"
       gradientUnits="userSpaceOnUse"
       gradientTransform="matrix(-4.1065372,-0.06851556,0.02179955,-2.223773,473.78732,4.6519299)"
       cx="102.72118"
       cy="103.94703"
       fx="102.72118"
       fy="103.94703"
       r="100.68104" />
    <radialGradient
       inkscape:collect="always"
       xlink:href="#linearGradient964"
       id="radialGradient978"
       gradientUnits="userSpaceOnUse"
       gradientTransform="matrix(-4.1065372,-0.06851556,0.02179955,-2.223773,473.78732,4.6519299)"
       cx="102.72118"
       cy="103.94703"
       fx="102.72118"
       fy="103.94703"
       r="100.68104" />
    <radialGradient
       inkscape:collect="always"
       xlink:href="#linearGradient964"
       id="radialGradient982"
       gradientUnits="userSpaceOnUse"
       gradientTransform="matrix(-4.1065372,-0.06851556,0.02179955,-2.223773,473.78732,4.6519299)"
       cx="102.72118"
       cy="103.94703"
       fx="102.72118"
       fy="103.94703"
       r="100.68104" />
    <radialGradient
       inkscape:collect="always"
       xlink:href="#linearGradient964"
       id="radialGradient986"
       gradientUnits="userSpaceOnUse"
       gradientTransform="matrix(-2.1769317,-0.02784069,0.01155624,-0.90361045,325.13695,200.73449)"
       cx="102.72118"
       cy="103.94703"
       fx="102.72118"
       fy="103.94703"
       r="100.68104" />
    <radialGradient
       inkscape:collect="always"
       xlink:href="#linearGradient964"
       id="radialGradient988"
       gradientUnits="userSpaceOnUse"
       gradientTransform="matrix(-2.1769317,-0.02784069,0.01155624,-0.90361045,325.13695,200.73449)"
       cx="102.72118"
       cy="103.94703"
       fx="102.72118"
       fy="103.94703"
       r="100.68104" />
    <radialGradient
       inkscape:collect="always"
       xlink:href="#linearGradient964"
       id="radialGradient990"
       gradientUnits="userSpaceOnUse"
       gradientTransform="matrix(-2.1769317,-0.02784069,0.01155624,-0.90361045,325.13695,200.73449)"
       cx="102.72118"
       cy="103.94703"
       fx="102.72118"
       fy="103.94703"
       r="100.68104" />
    <radialGradient
       inkscape:collect="always"
       xlink:href="#linearGradient964"
       id="radialGradient992"
       gradientUnits="userSpaceOnUse"
       gradientTransform="matrix(-2.1769317,-0.02784069,0.01155624,-0.90361045,325.13695,200.73449)"
       cx="102.72118"
       cy="103.94703"
       fx="102.72118"
       fy="103.94703"
       r="100.68104" />
    <radialGradient
       inkscape:collect="always"
       xlink:href="#linearGradient964"
       id="radialGradient994"
       gradientUnits="userSpaceOnUse"
       gradientTransform="matrix(-2.1769317,-0.02784069,0.01155624,-0.90361045,325.13695,200.73449)"
       cx="102.72118"
       cy="103.94703"
       fx="102.72118"
       fy="103.94703"
       r="100.68104" />
    <radialGradient
       inkscape:collect="always"
       xlink:href="#linearGradient964"
       id="radialGradient996"
       gradientUnits="userSpaceOnUse"
       gradientTransform="matrix(-2.1769317,-0.02784069,0.01155624,-0.90361045,325.13695,200.73449)"
       cx="102.72118"
       cy="103.94703"
       fx="102.72118"
       fy="103.94703"
       r="100.68104" />
    <radialGradient
       inkscape:collect="always"
       xlink:href="#linearGradient964"
       id="radialGradient998"
       gradientUnits="userSpaceOnUse"
       gradientTransform="matrix(-2.1769317,-0.02784069,0.01155624,-0.90361045,325.13695,200.73449)"
       cx="102.72118"
       cy="103.94703"
       fx="102.72118"
       fy="103.94703"
       r="100.68104" />
    <radialGradient
       inkscape:collect="always"
       xlink:href="#linearGradient964"
       id="radialGradient1000"
       gradientUnits="userSpaceOnUse"
       gradientTransform="matrix(-2.1769317,-0.02784069,0.01155624,-0.90361045,325.13695,200.73449)"
       cx="102.72118"
       cy="103.94703"
       fx="102.72118"
       fy="103.94703"
       r="100.68104" />
    <radialGradient
       inkscape:collect="always"
       xlink:href="#linearGradient964"
       id="radialGradient1002"
       gradientUnits="userSpaceOnUse"
       gradientTransform="matrix(-2.1769317,-0.02784069,0.01155624,-0.90361045,325.13695,200.73449)"
       cx="102.72118"
       cy="103.94703"
       fx="102.72118"
       fy="103.94703"
       r="100.68104" />
    <radialGradient
       inkscape:collect="always"
       xlink:href="#linearGradient964"
       id="radialGradient1004"
       gradientUnits="userSpaceOnUse"
       gradientTransform="matrix(-2.1769317,-0.02784069,0.01155624,-0.90361045,325.13695,200.73449)"
       cx="102.72118"
       cy="103.94703"
       fx="102.72118"
       fy="103.94703"
       r="100.68104" />
    <radialGradient
       inkscape:collect="always"
       xlink:href="#linearGradient964"
       id="radialGradient1006"
       gradientUnits="userSpaceOnUse"
       gradientTransform="matrix(-2.1769317,-0.02784069,0.01155624,-0.90361045,325.13695,200.73449)"
       cx="102.72118"
       cy="103.94703"
       fx="102.72118"
       fy="103.94703"
       r="100.68104" />
    <radialGradient
       inkscape:collect="always"
       xlink:href="#linearGradient964"
       id="radialGradient1008"
       gradientUnits="userSpaceOnUse"
       gradientTransform="matrix(-2.1769317,-0.02784069,0.01155624,-0.90361045,325.13695,200.73449)"
       cx="102.72118"
       cy="103.94703"
       fx="102.72118"
       fy="103.94703"
       r="100.68104" />
    <radialGradient
       inkscape:collect="always"
       xlink:href="#linearGradient964"
       id="radialGradient1010"
       gradientUnits="userSpaceOnUse"
       gradientTransform="matrix(-2.1769317,-0.02784069,0.01155624,-0.90361045,325.13695,200.73449)"
       cx="102.72118"
       cy="103.94703"
       fx="102.72118"
       fy="103.94703"
       r="100.68104" />
    <radialGradient
       inkscape:collect="always"
       xlink:href="#linearGradient964"
       id="radialGradient1012"
       gradientUnits="userSpaceOnUse"
       gradientTransform="matrix(-2.1769317,-0.02784069,0.01155624,-0.90361045,325.13695,200.73449)"
       cx="102.72118"
       cy="103.94703"
       fx="102.72118"
       fy="103.94703"
       r="100.68104" />
    <radialGradient
       inkscape:collect="always"
       xlink:href="#linearGradient964"
       id="radialGradient1014"
       gradientUnits="userSpaceOnUse"
       gradientTransform="matrix(-2.1769317,-0.02784069,0.01155624,-0.90361045,325.13695,200.73449)"
       cx="102.72118"
       cy="103.94703"
       fx="102.72118"
       fy="103.94703"
       r="100.68104" />
    <radialGradient
       inkscape:collect="always"
       xlink:href="#linearGradient964"
       id="radialGradient1016"
       gradientUnits="userSpaceOnUse"
       gradientTransform="matrix(-2.1769317,-0.02784069,0.01155624,-0.90361045,325.13695,200.73449)"
       cx="102.72118"
       cy="103.94703"
       fx="102.72118"
       fy="103.94703"
       r="100.68104" />
    <radialGradient
       inkscape:collect="always"
       xlink:href="#linearGradient964"
       id="radialGradient1018"
       gradientUnits="userSpaceOnUse"
       gradientTransform="matrix(-2.1769317,-0.02784069,0.01155624,-0.90361045,325.13695,200.73449)"
       cx="102.72118"
       cy="103.94703"
       fx="102.72118"
       fy="103.94703"
       r="100.68104" />
    <radialGradient
       inkscape:collect="always"
       xlink:href="#linearGradient964"
       id="radialGradient1020"
       gradientUnits="userSpaceOnUse"
       gradientTransform="matrix(-2.1769317,-0.02784069,0.01155624,-0.90361045,325.13695,200.73449)"
       cx="102.72118"
       cy="103.94703"
       fx="102.72118"
       fy="103.94703"
       r="100.68104" />
    <radialGradient
       inkscape:collect="always"
       xlink:href="#linearGradient964"
       id="radialGradient1022"
       gradientUnits="userSpaceOnUse"
       gradientTransform="matrix(-2.1769317,-0.02784069,0.01155624,-0.90361045,325.13695,200.73449)"
       cx="102.72118"
       cy="103.94703"
       fx="102.72118"
       fy="103.94703"
       r="100.68104" />
    <radialGradient
       inkscape:collect="always"
       xlink:href="#linearGradient964"
       id="radialGradient1024"
       gradientUnits="userSpaceOnUse"
       gradientTransform="matrix(-2.1769317,-0.02784069,0.01155624,-0.90361045,325.13695,200.73449)"
       cx="102.72118"
       cy="103.94703"
       fx="102.72118"
       fy="103.94703"
       r="100.68104" />
    <radialGradient
       inkscape:collect="always"
       xlink:href="#linearGradient964"
       id="radialGradient1026"
       gradientUnits="userSpaceOnUse"
       gradientTransform="matrix(-2.1769317,-0.02784069,0.01155624,-0.90361045,325.13695,200.73449)"
       cx="102.72118"
       cy="103.94703"
       fx="102.72118"
       fy="103.94703"
       r="100.68104" />
    <radialGradient
       inkscape:collect="always"
       xlink:href="#linearGradient964"
       id="radialGradient1028"
       gradientUnits="userSpaceOnUse"
       gradientTransform="matrix(-2.1769317,-0.02784069,0.01155624,-0.90361045,325.13695,200.73449)"
       cx="102.72118"
       cy="103.94703"
       fx="102.72118"
       fy="103.94703"
       r="100.68104" />
    <radialGradient
       inkscape:collect="always"
       xlink:href="#linearGradient964"
       id="radialGradient1030"
       gradientUnits="userSpaceOnUse"
       gradientTransform="matrix(-2.1769317,-0.02784069,0.01155624,-0.90361045,325.13695,200.73449)"
       cx="102.72118"
       cy="103.94703"
       fx="102.72118"
       fy="103.94703"
       r="100.68104" />
    <radialGradient
       inkscape:collect="always"
       xlink:href="#linearGradient964"
       id="radialGradient1032"
       gradientUnits="userSpaceOnUse"
       gradientTransform="matrix(-2.1769317,-0.02784069,0.01155624,-0.90361045,325.13695,200.73449)"
       cx="102.72118"
       cy="103.94703"
       fx="102.72118"
       fy="103.94703"
       r="100.68104" />
    <radialGradient
       inkscape:collect="always"
       xlink:href="#linearGradient964"
       id="radialGradient1034"
       gradientUnits="userSpaceOnUse"
       gradientTransform="matrix(-2.1769317,-0.02784069,0.01155624,-0.90361045,325.13695,200.73449)"
       cx="102.72118"
       cy="103.94703"
       fx="102.72118"
       fy="103.94703"
       r="100.68104" />
    <radialGradient
       inkscape:collect="always"
       xlink:href="#linearGradient964"
       id="radialGradient1083"
       cx="165.33011"
       cy="110.95945"
       fx="165.33011"
       fy="110.95945"
       r="31.398489"
       gradientTransform="matrix(1,0,0,2.1447637,0,-127.02235)"
       gradientUnits="userSpaceOnUse" />
    <radialGradient
       inkscape:collect="always"
       xlink:href="#linearGradient964"
       id="radialGradient1091"
       cx="123.19395"
       cy="48.364403"
       fx="123.19395"
       fy="48.364403"
       r="17.298939"
       gradientTransform="matrix(1,0,0,1.1710556,0,-8.2729994)"
       gradientUnits="userSpaceOnUse" />
    <radialGradient
       inkscape:collect="always"
       xlink:href="#linearGradient964"
       id="radialGradient1099"
       cx="131.24304"
       cy="56.593624"
       fx="131.24304"
       fy="56.593624"
       r="12.020449"
       gradientTransform="matrix(1,0,0,0.51264452,0,27.581214)"
       gradientUnits="userSpaceOnUse" />
    <radialGradient
       inkscape:collect="always"
       xlink:href="#linearGradient964"
       id="radialGradient1107"
       cx="125.14273"
       cy="101.6025"
       fx="125.14273"
       fy="101.6025"
       r="12.186184"
       gradientTransform="matrix(1,0,0,2.4432493,0,-146.63774)"
       gradientUnits="userSpaceOnUse" />
  </defs>
  <metadata
     id="metadata5">
    <rdf:RDF>
      <cc:Work
         rdf:about="">
        <dc:format>image/svg+xml</dc:format>
        <dc:type
           rdf:resource="http://purl.org/dc/dcmitype/StillImage" />
        <dc:title />
      </cc:Work>
    </rdf:RDF>
  </metadata>
  <path
     inkscape:connector-curvature="0"
     id="path7"
     d="m 201.84576,136.90415 c -0.3165,14.55361 1.17979,29.795 -4.72636,43.52263 -0.95326,4.27603 -0.75914,15.98829 -6.85148,14.34777 1.45153,-11.50978 4.61058,-22.74896 6.66005,-34.08741 0.32195,-11.30348 -2.95571,-23.32335 2.58448,-33.89423 2.92841,-12.05408 -2.48075,-23.97753 -2.18417,-36.056216 -0.69902,-13.283031 -10.98751,-21.929308 -16.74247,-32.235489 -5.46518,-14.997234 -17.0003,-27.549065 -32.02919,-33.252747 -9.88867,-6.337235 -21.82229,-6.623696 -32.93976,-3.753838 -7.53138,-1.979051 -9.49983,12.281605 -13.39923,10.646062 -2.761975,-13.318744 12.28394,-21.711356 23.75975,-18.487425 18.63815,-1.028194 36.89517,9.169543 48.23214,23.624102 8.30523,12.045301 17.03203,24.008569 23.19874,37.337906 7.00559,17.391261 6.51965,36.763185 5.19539,55.158635 -0.21649,2.3804 -0.47099,4.75738 -0.75789,7.13025 z"
     style="fill:url(#radialGradient968);fill-opacity:1;stroke:none;stroke-width:1.88638771" />
  <path
     style="fill:url(#radialGradient1091);fill-opacity:1.0;stroke:none;stroke-width:2.15461707"
     d="m 140.49289,28.106385 c -10.14216,5.814327 -22.60245,-4.445698 -31.70336,4.945106 -8.39441,10.824944 4.69195,21.604656 -0.72855,32.245321 2.25918,10.345716 4.78585,-6.631226 8.7712,-7.94116 3.18829,-4.09678 -8.58884,-4.217343 -5.84322,-12.473584 1.54452,-16.53837 15.91151,-10.979272 24.38601,-10.246046 2.61589,-0.449204 4.47957,-3.332175 5.11792,-6.529637 z"
     id="path11"
     inkscape:connector-curvature="0" />
  <path
     style="fill:url(#radialGradient1083);fill-opacity:1.0;stroke:none;stroke-width:2.15461707"
     d="m 150.06065,43.625366 c 7.64842,9.52916 -1.54074,23.391503 -4.80257,29.570794 4.89631,2.260121 8.21275,-12.791592 14.29895,-4.900021 10.66675,4.960315 9.62322,28.888707 -3.03793,27.605795 -7.10629,2.712352 -24.50235,-9.177141 -22.41485,7.362066 6.33252,-4.155499 14.2243,-4.77205 21.35107,-3.538924 9.9511,1.289904 17.7926,13.025214 17.51425,26.093914 2.03492,14.6487 -8.11209,17.95068 -15.55902,23.69886 -3.26815,5.34491 -0.0653,19.80397 6.19361,12.78401 7.20845,-2.80572 17.17662,2.09026 17.99908,13.19969 -1.00359,7.64698 3.52702,-2.42564 3.27543,-5.82712 0.063,-7.77871 -12.05879,-16.51871 -19.47044,-13.04694 -8.73556,-11.0108 16.67815,-5.65995 9.60299,-14.48896 -0.73565,-14.24011 17.48561,-14.74589 16.49194,-30.51953 -0.44083,-9.72562 4.72145,-19.014049 5.22544,-26.913127 -3.42723,1.773682 -6.59743,16.842967 -12.3455,7.536156 -7.77045,-1.485353 6.54254,9.203201 4.40839,15.069431 2.13471,12.47304 -14.98518,25.77347 -14.17699,6.67132 -1.79764,-10.1864 -7.52865,-18.151845 -3.16489,-29.29593 4.08558,-14.522281 -8.85727,-18.117708 -13.89151,-27.089357 -3.21727,-4.419513 -1.03174,-14.306059 -7.49745,-13.972127 z"
     id="path13"
     inkscape:connector-curvature="0" />
  <path
     style="fill:url(#radialGradient974);fill-opacity:1;stroke:none;stroke-width:2.15461707"
     d="m 136.90498,70.383671 c 7.90057,-8.039329 19.56366,15.023116 9.94945,14.799831 -1.16624,-6.752578 -3.47682,-15.099973 -9.94945,-14.799831 z"
     id="path15"
     inkscape:connector-curvature="0" />
  <path
     style="fill:url(#radialGradient1099);fill-opacity:1.0;stroke:none;stroke-width:2.15461707"
     d="m 141.69075,55.93522 c -7.88148,-7.974728 -19.38199,4.117525 -22.43356,6.820623 -0.78925,-13.004221 12.11774,-13.624537 19.08179,-11.223845 1.62256,0.313382 7.77861,1.988354 3.35177,4.403222 z"
     id="path17"
     inkscape:connector-curvature="0" />
  <path
     style="fill:url(#radialGradient978);fill-opacity:1;stroke:none;stroke-width:2.15461707"
     d="m 133.91695,51.653103 c -2.88527,-5.15648 9.37404,-11.388485 -0.36295,-8.046121 -3.66672,2.058591 -7.55462,13.42382 0.36295,8.046121 z"
     id="path19"
     inkscape:connector-curvature="0" />
  <path
     style="fill:url(#radialGradient1107);fill-opacity:1.0;stroke:none;stroke-width:2.15461707"
     d="m 129.13307,73.60018 c -8.82196,9.762684 -14.12584,26.149113 -9.96828,40.90058 1.43554,12.29891 12.34633,10.57021 17.71343,9.51056 3.43824,10.63267 -13.80168,8.30024 -17.64252,2.11977 -8.36149,-10.02687 -7.42629,-27.703323 -2.69156,-39.950963 1.63928,-5.165192 7.82885,-19.284683 12.58893,-12.579947 z"
     id="path21"
     inkscape:connector-curvature="0" />
  <path
     style="fill:url(#radialGradient982);fill-opacity:1;stroke:none;stroke-width:2.15461707"
     d="m 154.8483,116.41642 c -4.55245,-4.3493 -11.51541,-4.19381 -7.05373,4.61007 3.32667,12.91841 -4.40483,30.53594 -15.78191,28.13867 -4.61656,-0.60759 -15.14357,-16.12844 -14.77082,-2.58539 6.48041,14.77535 26.27488,13.58881 32.09882,-1.5262 4.23096,-8.76126 2.32131,-19.53455 5.50764,-28.63715 z"
     id="path23"
     inkscape:connector-curvature="0" />
  <path
     inkscape:connector-curvature="0"
     id="path27"
     d="m 145.59935,22.500268 c 6.66696,1.536045 1.99035,17.568583 11.31038,9.380558 4.44894,3.22144 4.63269,13.215235 12.31924,9.656529 5.60148,1.131052 8.85621,15.827787 0.81479,7.670847 -7.95714,-2.27481 -4.38209,11.313686 1.94797,6.694581 4.26083,2.480139 14.51067,14.419607 11.3644,1.670375 -3.13225,-15.022414 -17.04356,-24.117429 -28.96075,-32.042637 -2.69234,-1.53378 -5.5997,-3.113091 -8.79603,-3.030253 z"
     style="fill:url(#radialGradient986);fill-opacity:1;stroke:none;stroke-width:1.88638771" />
  <path
     inkscape:connector-curvature="0"
     id="path29"
     d="m 185.52285,93.125656 c 7.98678,7.954814 9.64039,-18.44037 12.22801,-5.153098 -0.10137,2.470497 2.04608,10.656311 -2.35038,5.052844 -1.46694,3.460363 -9.09402,4.706887 -9.87763,0.100265 z"
     style="fill:url(#radialGradient988);fill-opacity:1;stroke:none;stroke-width:1.88638771" />
  <path
     inkscape:connector-curvature="0"
     id="path31"
     d="m 193.57396,133.95097 c 8.61496,-2.51586 0.8549,9.12623 0,0 z"
     style="fill:url(#radialGradient990);fill-opacity:1;stroke:none;stroke-width:1.88638771" />
  <path
     inkscape:connector-curvature="0"
     id="path33"
     d="m 119.81808,140.21909 c -6.0725,10.4932 1.25215,23.03697 4.4483,33.21674 8.16357,9.3081 21.0261,2.05832 31.26204,4.58389 7.90608,1.10848 -0.80133,18.66671 7.672,10.70078 3.60588,-12.22787 -11.54805,-18.60774 -21.39419,-15.18591 -13.47992,4.414 -16.35539,-11.52972 -18.58514,-20.95579 -1.31735,-3.95749 -1.27737,-8.84221 -3.40301,-12.35971 z"
     style="fill:url(#radialGradient992);fill-opacity:1;stroke:none;stroke-width:1.88638771" />
  <path
     inkscape:connector-curvature="0"
     id="path35"
     d="m 194.01537,174.25945 c -1.08798,4.33394 -8.0777,10.53817 -1.80181,13.70608 0.86785,-4.5326 0.85329,-9.18607 1.80181,-13.70608 z"
     style="fill:url(#radialGradient994);fill-opacity:1;stroke:none;stroke-width:1.88638771" />
  <path
     inkscape:connector-curvature="0"
     id="path37"
     d="m 161.00358,187.41589 c 4.36931,-5.97096 22.97266,3.23776 8.58809,1.21141 -2.83125,0.93738 -7.42603,3.02551 -8.58809,-1.21141 z"
     style="fill:url(#radialGradient996);fill-opacity:1;stroke:none;stroke-width:1.88638771" />
  <path
     inkscape:connector-curvature="0"
     id="path39"
     d="m 132.2041,188.99339 c -4.81584,-9.84776 -20.17769,-9.91756 -24.67336,-18.83862 1.82292,8.12804 12.02686,13.87408 19.88764,18.18885 1.76365,0.31738 5.78526,5.44293 4.78572,0.64977 z"
     style="fill:url(#radialGradient998);fill-opacity:1;stroke:none;stroke-width:1.88638771" />
  <path
     inkscape:connector-curvature="0"
     id="path43"
     d="m 94.472577,124.86254 c 5.393807,5.61726 22.410953,-5.55527 16.784233,6.56069 -4.69522,7.98005 -23.888713,0.33669 -16.784233,-6.56069 z"
     style="fill:url(#radialGradient1000);fill-opacity:1;stroke:none;stroke-width:1.88638771" />
  <path
     inkscape:connector-curvature="0"
     id="path45"
     d="m 96.04394,80.564782 c 2.209683,-9.439182 22.27445,7.209261 14.64413,-5.590847 -4.8143,-5.013152 -22.811471,0.355303 -16.360864,6.113718 0.572244,-0.174283 1.144488,-0.348581 1.716734,-0.522871 z"
     style="fill:url(#radialGradient1002);fill-opacity:1;stroke:none;stroke-width:1.88638771" />
  <path
     d="m 3.6411245,136.90413 c 0.2918959,14.12142 -1.0619653,29.23879 4.2902248,42.16296 -0.4658689,4.4974 5.0580797,23.07337 6.7852767,12.67798 C 13.307313,177.48779 6.8209182,164.2542 8.9979305,149.51922 11.049182,134.5115 1.9927557,121.27845 6.2849571,106.3849 8.7667558,92.555954 8.38246,76.10714 18.810216,67.522752 26.538597,61.900087 27.062513,49.29548 33.786655,42.263557 42.898602,30.994724 55.143734,25.291683 67.013226,20.926214 74.222847,18.411775 81.595133,20.600576 88.834599,20.55842 95.196555,19.656861 100.67354,33.102042 103.07967,32.155128 105.09151,18.639638 92.50002,11.13476 83.762782,13.541088 72.220297,13.293612 60.352409,14.327866 49.881731,21.276067 37.775108,27.537777 28.392018,39.811331 20.595731,53.026902 11.52721,65.633034 3.3488966,80.817493 2.7264275,98.693557 1.400379,111.42156 2.1543473,124.27692 3.6411245,136.90413 Z"
     id="path49"
     inkscape:connector-curvature="0"
     style="fill:url(#radialGradient1004);fill-opacity:1;stroke:none;stroke-width:2.15461707" />
  <path
     inkscape:connector-curvature="0"
     id="path53"
     d="m 64.993998,28.106387 c 10.141955,5.813909 22.601547,-4.44496 31.702594,4.944786 8.395498,10.824329 -4.690333,21.604385 0.728504,32.245272 -2.259082,10.345618 -4.785295,-6.631447 -8.770987,-7.940718 -3.186429,-4.097198 8.588629,-4.218006 5.843331,-12.47373 -1.544309,-16.538099 -15.911,-10.979322 -24.385332,-10.24612 -2.605291,-0.438844 -4.489038,-3.344702 -5.11811,-6.52949 z"
     style="fill:url(#radialGradient1006);fill-opacity:1;stroke:none;stroke-width:2.15461707" />
  <path
     inkscape:connector-curvature="0"
     id="path55"
     d="m 55.424354,43.625368 c -7.648426,9.52916 1.540743,23.391503 4.802573,29.570795 -4.896328,2.260047 -8.212786,-12.791593 -14.299018,-4.900021 -10.667093,4.960635 -9.621934,28.88824 3.038793,27.605622 7.107097,2.712647 24.499233,-9.176821 22.415792,7.362266 -6.333036,-4.155354 -14.225022,-4.771881 -21.352153,-3.538976 -9.951327,1.289656 -17.793293,13.024996 -17.514904,26.094056 -2.034881,14.64878 8.112189,17.95122 15.559523,23.69881 3.269683,5.34432 0.06642,19.80482 -6.192788,12.78419 -7.208398,-2.80612 -17.176986,2.09003 -17.999077,13.19952 1.004733,7.64771 -3.529326,-2.42338 -3.275273,-5.82724 -0.06428,-7.78019 12.058667,-16.51786 19.469975,-13.04688 8.736682,-11.01124 -16.67879,-5.65946 -9.603995,-14.48858 C 31.209489,127.8989 12.988969,127.39217 13.981987,111.61915 14.42313,101.89338 9.2606694,92.604535 8.7565554,84.705925 c 3.4282386,1.772969 6.5990466,16.843315 12.3471296,7.535639 7.767754,-1.483532 -6.543018,9.204656 -4.40886,15.070516 -2.134999,12.47324 14.984054,25.7733 14.176182,6.67127 1.79688,-10.18652 7.528909,-18.152389 3.164935,-29.296251 C 29.949841,70.16499 42.892339,66.568751 47.92713,57.597839 51.144799,53.17872 48.95915,43.292717 55.424354,43.625368 Z"
     style="fill:url(#radialGradient1008);fill-opacity:1;stroke:none;stroke-width:2.15461707" />
  <path
     inkscape:connector-curvature="0"
     id="path57"
     d="m 68.581907,70.383673 c -7.900569,-8.039328 -19.563659,15.023117 -9.949449,14.799831 1.16624,-6.752578 3.47682,-15.099972 9.949449,-14.799831 z"
     style="fill:url(#radialGradient1010);fill-opacity:1;stroke:none;stroke-width:2.15461707" />
  <path
     inkscape:connector-curvature="0"
     id="path59"
     d="m 63.796141,55.935223 c 7.881366,-7.974606 19.382105,4.117204 22.433187,6.820721 C 87.018556,49.751797 74.111948,49.131185 67.147912,51.532 c -1.622557,0.313383 -7.778613,1.988355 -3.351771,4.403223 z"
     style="fill:url(#radialGradient1012);fill-opacity:1;stroke:none;stroke-width:2.15461707" />
  <path
     inkscape:connector-curvature="0"
     id="path61"
     d="m 71.569945,51.653106 c 2.884985,-5.157096 -9.374007,-11.389224 0.364149,-8.045998 3.666816,2.059279 7.552417,13.423844 -0.364149,8.045998 z"
     style="fill:url(#radialGradient1014);fill-opacity:1;stroke:none;stroke-width:2.15461707" />
  <path
     inkscape:connector-curvature="0"
     id="path63"
     d="m 76.353824,73.600182 c 8.821919,9.762684 14.125857,26.149039 9.968258,40.900438 -1.435221,12.29826 -12.345522,10.57016 -17.7122,9.51067 -3.437375,10.63278 13.801076,8.30003 17.641649,2.11943 C 94.612699,116.10373 93.677617,98.4275 88.942123,86.180401 87.302815,81.015602 81.113878,66.895348 76.353824,73.600182 Z"
     style="fill:url(#radialGradient1016);fill-opacity:1;stroke:none;stroke-width:2.15461707" />
  <path
     inkscape:connector-curvature="0"
     id="path65"
     d="m 50.640474,116.41643 c 4.552363,-4.35137 11.513435,-4.19203 7.052071,4.61004 -3.325871,12.91813 4.404131,30.53616 15.781463,28.13852 4.616292,-0.6075 15.143883,-16.12809 14.769718,-2.58468 -6.479855,14.7753 -26.273739,13.58756 -32.097377,-1.52654 -4.230356,-8.76132 -2.32369,-19.53308 -5.505875,-28.63734 z"
     style="fill:url(#radialGradient1018);fill-opacity:1;stroke:none;stroke-width:2.15461707" />
  <path
     d="m 7.6987448,163.59846 c -1.5568883,-11.52891 5.1456172,-25.20462 9.4213232,-30.42767 -6.487621,-3.2203 -12.8918526,6.20262 -10.2188674,14.30724 0.2658466,5.37348 0.5316961,10.74697 0.7975442,16.12043 z"
     id="path67"
     inkscape:connector-curvature="0"
     style="fill:url(#radialGradient1020);fill-opacity:1;stroke:none;stroke-width:2.15461707" />
  <path
     d="m 59.887547,22.500261 c -6.259808,0.130427 -2.463811,19.296373 -10.508481,9.253899 -5.201003,2.568114 -6.408648,14.232107 -13.565404,9.866956 -4.81746,1.835256 -8.632488,15.606862 -0.70279,7.412515 7.126582,-2.395203 5.500001,12.230636 -1.273425,6.896226 -4.50033,2.953996 -15.311869,14.649613 -11.088343,-0.575231 4.530205,-15.078217 16.983018,-21.351395 26.866627,-29.11753 3.229666,-1.974967 6.692697,-3.444077 10.271816,-3.736835 z"
     id="path69"
     inkscape:connector-curvature="0"
     style="fill:url(#radialGradient1022);fill-opacity:1;stroke:none;stroke-width:2.15461707" />
  <path
     d="M 19.965924,93.125649 C 13.336894,102.51567 9.1452815,72.1498 7.6086665,90.061795 c -1.0433206,3.400985 -0.2495163,8.138137 2.2684161,2.768314 2.1043014,3.235065 8.6619414,5.514529 10.0888414,0.29554 z"
     id="path71"
     inkscape:connector-curvature="0"
     style="fill:url(#radialGradient1024);fill-opacity:1;stroke:none;stroke-width:2.15461707" />
  <path
     d="m 11.912935,133.95095 c -7.8854931,-3.1368 -1.583827,9.35449 0,0 z"
     id="path73"
     inkscape:connector-curvature="0"
     style="fill:url(#radialGradient1026);fill-opacity:1;stroke:none;stroke-width:2.15461707" />
  <path
     d="m 85.668807,140.21909 c 5.925803,11.36318 -1.313454,27.69519 -7.435329,36.1654 -8.989562,6.33711 -19.39333,-2.66973 -28.446104,1.94668 -7.204045,2.60947 1.360595,17.59372 -7.136619,11.40784 -3.273435,-14.75549 12.857524,-19.89179 21.437154,-15.93105 11.244475,4.32084 16.536074,-10.25449 18.318899,-22.01114 0.965963,-3.9141 1.969918,-7.82235 3.261999,-11.57773 z"
     id="path75"
     inkscape:connector-curvature="0"
     style="fill:url(#radialGradient1028);fill-opacity:1;stroke:none;stroke-width:2.15461707" />
  <path
     d="m 11.47152,174.25945 c 1.142981,4.46135 8.081478,10.57087 2.021503,13.89022 -1.415988,-4.41782 -0.852194,-9.39052 -2.021503,-13.89022 z"
     id="path77"
     inkscape:connector-curvature="0"
     style="fill:url(#radialGradient1030);fill-opacity:1;stroke:none;stroke-width:2.15461707" />
  <path
     d="m 73.282785,188.99338 c 5.759463,-10.58291 19.163002,-9.32572 24.736258,-18.78498 -2.778724,8.6481 -12.307642,14.03204 -19.716466,18.06314 -1.426223,-0.0222 -6.101559,6.13 -5.019792,0.72184 z"
     id="path79"
     inkscape:connector-curvature="0"
     style="fill:url(#radialGradient1032);fill-opacity:1;stroke:none;stroke-width:2.15461707" />
  <path
     inkscape:connector-curvature="0"
     id="path99"
     d="m 44.483304,188.05574 c -4.320708,-5.96698 -22.993896,3.22453 -8.683789,1.21992 2.833761,0.94603 7.416416,2.89061 8.683789,-1.21992 z"
     style="fill:url(#radialGradient1034);fill-opacity:1;stroke:none;stroke-width:1.88638771" />
  <style
     id="stylebodge1"
     type="text/css">[id^=&quot;polygon&quot;]{fill:#FFF663;fill-opacity:1}</style>
  <style
     id="stylebodge2"
     type="text/css">[id^=&quot;path&quot;]{fill:#FFF663;fill-opacity:1}</style>
</svg>
