<?xml version="1.0" encoding="UTF-8" standalone="no"?>
<svg
   xmlns:dc="http://purl.org/dc/elements/1.1/"
   xmlns:cc="http://creativecommons.org/ns#"
   xmlns:rdf="http://www.w3.org/1999/02/22-rdf-syntax-ns#"
   xmlns:svg="http://www.w3.org/2000/svg"
   xmlns="http://www.w3.org/2000/svg"
   xmlns:xlink="http://www.w3.org/1999/xlink"
   xmlns:sodipodi="http://sodipodi.sourceforge.net/DTD/sodipodi-0.dtd"
   xmlns:inkscape="http://www.inkscape.org/namespaces/inkscape"
   id="svg8"
   version="1.1"
   viewBox="0 0 205.66004 207.89409"
   height="207.89409mm"
   width="205.66005mm"
   sodipodi:docname="ogg-audio.svg"
   inkscape:version="0.92.2 5c3e80d, 2017-08-06">
  <sodipodi:namedview
     pagecolor="#ffffff"
     bordercolor="#666666"
     borderopacity="1"
     objecttolerance="10"
     gridtolerance="10"
     guidetolerance="10"
     inkscape:pageopacity="0"
     inkscape:pageshadow="2"
     inkscape:window-width="1645"
     inkscape:window-height="1120"
     id="namedview13"
     showgrid="false"
     inkscape:zoom="0.30035326"
     inkscape:cx="-826.58679"
     inkscape:cy="392.87072"
     inkscape:window-x="512"
     inkscape:window-y="121"
     inkscape:window-maximized="0"
     inkscape:current-layer="svg8" />
  <defs
     id="defs2">
    <linearGradient
       inkscape:collect="always"
       id="linearGradient859">
      <stop
         style="stop-color:#fff94b;stop-opacity:1"
         offset="0"
         id="stop855" />
      <stop
         style="stop-color:#c8451f;stop-opacity:1"
         offset="1"
         id="stop857" />
    </linearGradient>
    <radialGradient
       inkscape:collect="always"
       xlink:href="#linearGradient859"
       id="radialGradient861"
       cx="4353.6963"
       cy="110.0447"
       fx="4353.6963"
       fy="110.0447"
       r="3600.7038"
       gradientTransform="matrix(-0.09323586,7.3394583e-4,2.1987652e-4,0.02793164,496.98869,99.439749)"
       gradientUnits="userSpaceOnUse" />
    <radialGradient
       inkscape:collect="always"
       xlink:href="#linearGradient859"
       id="radialGradient880"
       cx="99.019409"
       cy="67.265221"
       fx="99.019409"
       fy="67.265221"
       r="66.963158"
       gradientTransform="matrix(-4.3278521,0.03092912,-0.01101317,-1.5410484,528.30157,205.67324)"
       gradientUnits="userSpaceOnUse" />
    <radialGradient
       inkscape:collect="always"
       xlink:href="#linearGradient859"
       id="radialGradient902"
       cx="92.022667"
       cy="107.58732"
       fx="92.022667"
       fy="107.58732"
       r="10.762002"
       gradientTransform="matrix(10.576855,-8.0327958e-7,7.3526648e-7,9.6813203,-881.28781,-936.45995)"
       gradientUnits="userSpaceOnUse" />
  </defs>
  <metadata
     id="metadata5">
    <rdf:RDF>
      <cc:Work
         rdf:about="">
        <dc:format>image/svg+xml</dc:format>
        <dc:type
           rdf:resource="http://purl.org/dc/dcmitype/StillImage" />
        <dc:title />
      </cc:Work>
    </rdf:RDF>
  </metadata>
  <path
     d="M 75.447635,5.4354209 C 70.87245,6.3590788 62.768892,11.229835 54.035194,18.323527 48.36804,22.941816 35.059157,36.250699 30.440867,41.917853 c -7.430314,9.152423 -12.048603,16.91936 -12.93121,21.874271 -0.293518,1.594849 -0.377673,22.083633 -0.293518,61.295986 0.08416,55.37637 0.168311,59.11205 0.882607,61.4643 2.183938,7.262 7.682781,13.85487 14.107334,16.91936 6.297294,2.98034 2.770974,2.81202 58.986843,2.81202 47.987107,0 50.967437,-0.0411 53.529047,-0.75534 9.02722,-2.56161 16.75105,-10.24439 19.0602,-18.97604 0.37767,-1.38549 0.7964,-5.03701 0.96471,-8.10356 l 0.25246,-5.54195 h -6.71807 -6.75912 l -0.16831,5.33259 c -0.12521,4.61829 -0.29352,5.6261 -1.13302,7.26406 -1.30133,2.56161 -3.61048,4.8687 -6.12899,6.21313 l -2.09978,1.13302 -50.548713,0.12521 -50.548715,0.0842 -2.350196,-1.04887 c -2.896181,-1.34443 -5.205326,-3.52632 -6.674968,-6.29729 l -1.13302,-2.09978 -0.12726,-59.0279 -0.08415,-59.070997 12.260018,-0.209363 c 13.686557,-0.209362 15.030992,-0.420777 20.277369,-3.148647 3.988149,-2.056678 9.152423,-7.220952 11.209101,-11.209101 2.729922,-5.248429 2.939285,-6.590812 3.148647,-20.277369 l 0.209363,-12.260018 32.200774,0.08415 32.15971,0.125207 2.09978,1.133021 c 2.77098,1.469642 4.95491,3.778786 6.25624,6.633916 l 1.09197,2.309144 v 35.14005 35.181101 h 6.71807 6.75913 l -0.16831,-35.811241 c -0.12521,-39.758339 0.041,-37.196728 -3.0645,-43.537126 -2.05667,-4.15646 -7.09574,-9.236578 -11.29325,-11.4205161 C 144.3012,5.098799 146.18956,5.2240059 109.87544,5.1398504 91.82101,5.098799 76.4965,5.2260585 75.447635,5.4354209 Z"
     id="path1036"
     style="fill:url(#radialGradient861);fill-opacity:1;stroke-width:0.02052573"
     inkscape:connector-curvature="0" />
  <path
     d="m 67.512388,106.40559 c -2.939284,0.7964 -4.65934,1.84732 -6.718071,4.19751 -3.148647,3.61048 -3.191751,3.77879 -3.191751,25.35749 0,22.37715 -0.0431,22.04053 3.947098,26.07178 4.324771,4.28167 -1.342383,3.9471 63.016046,3.9471 64.36048,0 58.69332,0.33662 63.01604,-3.9471 3.98815,-4.03125 3.9471,-3.69463 3.9471,-26.07178 0,-22.37715 0.0431,-22.04053 -3.94505,-26.06973 -4.32272,-4.32477 1.51275,-3.9471 -62.17654,-4.03125 -47.734635,-0.0842 -55.963401,0 -57.894872,0.54598 z m 26.071783,13.64551 c 7.011589,2.35019 10.831429,7.9763 10.831429,15.91154 0,10.62207 -7.011591,17.21288 -17.801967,16.71 -3.189699,-0.12521 -4.281668,-0.37767 -6.633916,-1.46964 -3.401114,-1.59485 -6.172087,-4.28167 -7.725885,-7.59863 -1.637953,-3.40111 -1.931471,-9.27763 -0.63014,-13.39304 2.183938,-7.05264 7.851092,-10.95663 15.911546,-10.99974 2.438457,-0.0431 4.242668,0.20937 6.048933,0.83951 z m 40.638889,0.25041 c 2.47746,1.13302 4.49309,3.1897 5.71026,5.79441 1.59485,3.40112 1.34238,3.904 -2.43435,4.61829 -1.30133,0.25247 -1.42654,0.16831 -1.93147,-1.21717 -1.38549,-3.73774 -4.53414,-5.54195 -9.02722,-5.20533 -4.66139,0.37768 -7.9763,2.93929 -9.15242,7.01159 -0.7143,2.3933 -0.67119,7.26201 0.041,9.44594 0.7143,2.18394 3.14865,4.82766 5.37364,5.79442 3.2328,1.42859 9.02721,0.88055 12.13276,-1.17613 0.79639,-0.50288 0.96471,-0.96471 0.96471,-2.89618 v -2.30914 h -4.61829 -4.61829 v -2.72787 -2.72787 h 7.34616 7.34615 v 6.63391 6.63392 l -2.18393,1.30133 c -4.91181,2.98034 -6.00378,3.27386 -11.46157,3.27386 -4.57724,0 -5.24843,-0.0842 -7.43032,-1.13302 -3.358,-1.5538 -6.25624,-4.40893 -7.72383,-7.59863 -1.13302,-2.43435 -1.21717,-2.93928 -1.21717,-7.85109 0,-4.57519 0.1252,-5.49884 0.96676,-7.34616 2.14083,-4.61829 4.61829,-7.01159 9.02721,-8.64954 3.0255,-1.13918 10.11919,-0.97087 12.89016,0.33046 z m 36.94632,0 c 2.47745,1.13302 4.49308,3.1897 5.71026,5.79441 1.59484,3.40112 1.34443,3.904 -2.43436,4.61829 -1.42653,0.25247 -1.46964,0.20937 -2.18393,-1.63795 -1.34239,-3.48527 -4.36583,-5.12322 -8.8158,-4.7866 -6.2973,0.50493 -9.69841,4.65934 -9.65531,11.67093 0,3.81984 0.79845,6.08793 2.72787,8.18771 2.30915,2.51851 4.49308,3.27386 8.64954,3.1076 2.43436,-0.12521 3.81984,-0.46183 5.37364,-1.21718 l 2.09978,-1.04886 0.12521,-2.43435 0.12521,-2.3933 h -4.65934 -4.61829 v -2.72787 -2.72787 h 7.34615 7.34616 v 6.63391 6.63392 l -2.18393,1.30133 c -4.91181,2.98034 -6.00378,3.27386 -11.46157,3.27386 -4.57724,0 -5.24843,-0.0842 -7.43032,-1.13302 -3.35801,-1.5538 -6.25419,-4.40893 -7.72383,-7.59863 -1.13302,-2.43435 -1.21717,-2.93928 -1.21717,-7.85109 0,-4.82765 0.0841,-5.45779 1.13302,-7.64173 2.09978,-4.53413 4.57518,-6.88433 8.8589,-8.39708 3.06449,-1.09607 10.15819,-0.88466 12.88811,0.37357 z"
     id="path1038"
     style="fill:url(#radialGradient880);fill-opacity:1;stroke-width:0.02052573"
     inkscape:connector-curvature="0" />
  <path
     d="m 83.50809,125.00396 c -3.819839,1.34238 -5.582999,3.69463 -6.424554,8.73164 -0.587036,3.61048 -0.04105,6.75912 1.679005,9.44594 3.862942,6.08793 14.273593,5.91962 17.884068,-0.25246 3.148647,-5.37364 1.847316,-13.68656 -2.602662,-16.71 -3.062439,-2.09568 -6.75707,-2.51646 -10.535857,-1.21512 z"
     id="path1040"
     style="fill:url(#radialGradient902);fill-opacity:1;stroke-width:0.02052573"
     inkscape:connector-curvature="0" />
  <style
     id="stylebodge1"
     type="text/css">[id^=&quot;polygon&quot;]{fill:#FFF663;fill-opacity:1}</style>
  <style
     id="stylebodge2"
     type="text/css">[id^=&quot;path&quot;]{fill:#FFF663;fill-opacity:1}</style>
</svg>
