<?xml version="1.0" encoding="UTF-8" standalone="no"?>
<svg
   xmlns:dc="http://purl.org/dc/elements/1.1/"
   xmlns:cc="http://creativecommons.org/ns#"
   xmlns:rdf="http://www.w3.org/1999/02/22-rdf-syntax-ns#"
   xmlns:svg="http://www.w3.org/2000/svg"
   xmlns="http://www.w3.org/2000/svg"
   xmlns:xlink="http://www.w3.org/1999/xlink"
   xmlns:sodipodi="http://sodipodi.sourceforge.net/DTD/sodipodi-0.dtd"
   xmlns:inkscape="http://www.inkscape.org/namespaces/inkscape"
   id="Layer_1"
   style="enable-background:new 0 0 32 32;"
   xml:space="preserve"
   height="32px"
   viewBox="0 0 32 32"
   width="32px"
   version="1.1"
   sodipodi:docname="output_mute.svg"
   inkscape:version="0.92.2 5c3e80d, 2017-08-06"><defs
     id="defs7"><linearGradient
       inkscape:collect="always"
       id="linearGradient826"><stop
         style="stop-color:#fff94b;stop-opacity:1"
         offset="0"
         id="stop822" /><stop
         style="stop-color:#c8451f;stop-opacity:1"
         offset="1"
         id="stop824" /></linearGradient><radialGradient
       inkscape:collect="always"
       xlink:href="#linearGradient826"
       id="radialGradient828"
       cx="16.135593"
       cy="16.154964"
       fx="16.135593"
       fy="16.154964"
       r="8"
       gradientTransform="matrix(-5.8135593,-0.05084749,0.01723264,-1.9702636,109.66243,48.921181)"
       gradientUnits="userSpaceOnUse" /></defs><sodipodi:namedview
     pagecolor="#ffffff"
     bordercolor="#666666"
     borderopacity="1"
     objecttolerance="10"
     gridtolerance="10"
     guidetolerance="10"
     inkscape:pageopacity="0"
     inkscape:pageshadow="2"
     inkscape:window-width="1338"
     inkscape:window-height="830"
     id="namedview5"
     showgrid="false"
     inkscape:zoom="7.375"
     inkscape:cx="-8.7457627"
     inkscape:cy="16"
     inkscape:window-x="586"
     inkscape:window-y="88"
     inkscape:window-maximized="0"
     inkscape:current-layer="Layer_1" /><metadata
     id="metadata3059"><rdf:RDF><cc:Work
         rdf:about=""><dc:format>image/svg+xml</dc:format><dc:type
           rdf:resource="http://purl.org/dc/dcmitype/StillImage" /><dc:title /></cc:Work></rdf:RDF></metadata><path
     id="path3053"
     d="M14,2c-0.781,0-1.313,0.438-2,1.016l-6,4.984h-4c-1.1,0-2,0.9-2,2v12c0,1.1,0.9,2,2,2h4l6,4.984c0.688,0.579,1.219,1.016,2,1.016,1.219,0,2-0.984,2-2v-24c0-1.016-0.781-2-2-2zm-2,21.784-4.555-3.784-3.445,0,0-8,3.445,0,4.555-3.784z"
     style="stroke:none;fill-opacity:1;fill:url(#radialGradient828)" /></svg>