<?xml version="1.0" encoding="UTF-8" standalone="no"?>
<svg
   xmlns:dc="http://purl.org/dc/elements/1.1/"
   xmlns:cc="http://creativecommons.org/ns#"
   xmlns:rdf="http://www.w3.org/1999/02/22-rdf-syntax-ns#"
   xmlns:svg="http://www.w3.org/2000/svg"
   xmlns="http://www.w3.org/2000/svg"
   xmlns:xlink="http://www.w3.org/1999/xlink"
   enable-background="new 0 0 24 24"
   height="24px"
   id="Layer_1"
   version="1.1"
   viewBox="0 0 24 24"
   width="24px"
   xml:space="preserve"><metadata
     id="metadata1462"><rdf:RDF><cc:Work
         rdf:about=""><dc:format>image/svg+xml</dc:format><dc:type
           rdf:resource="http://purl.org/dc/dcmitype/StillImage" /><dc:title></dc:title></cc:Work></rdf:RDF></metadata><defs
     id="defs1460"><linearGradient
       id="linearGradient2770"><stop
         id="stop2766"
         offset="0"
         style="stop-color:#CA91BE;stop-opacity:1" /><stop
         id="stop2768"
         offset="1"
         style="stop-color:#BA3E91;stop-opacity:1" /></linearGradient><linearGradient
       id="linearGradient2029"><stop
         style="stop-color:#656565;stop-opacity:1"
         offset="0"
         id="stop2025" /><stop
         style="stop-color:#000000;stop-opacity:0"
         offset="1"
         id="stop2027" /></linearGradient><radialGradient
       xlink:href="#linearGradient2029"
       id="radialGradient2031"
       cx="11.9745"
       cy="11.991062"
       fx="11.9745"
       fy="11.991062"
       r="10.50525"
       gradientTransform="matrix(0.68462404,0.6781951,-0.68783421,0.69435452,12.050393,-4.4479612)"
       gradientUnits="userSpaceOnUse" /><linearGradient
       gradientUnits="userSpaceOnUse"
       y2="22.961538"
       x2="12.154061"
       y1="1.0769231"
       x1="12.153631"
       id="linearGradient2772"
       xlink:href="#linearGradient2770" /></defs><path
     d="m 22.961754,13.377464 c 0,0.376056 -0.308173,0.684228 -0.684227,0.684228 l -7.536713,-0.0036 c -0.375454,-6.01e-4 -0.684228,0.308172 -0.684828,0.684828 l 6e-4,7.536112 c 0,0.376054 -0.308173,0.684227 -0.684828,0.684828 l -2.740513,-0.0049 C 10.25519,22.957819 9.9464169,22.649062 9.9452155,22.273008 v -7.534311 c 0,-0.376054 -0.3093742,-0.685428 -0.6854288,-0.685428 l -7.5349109,-0.0054 c -0.3760547,0 -0.6854288,-0.309374 -0.6854288,-0.685429 l -0.0012,-2.740514 c 0,-0.376055 0.3081726,-0.6842275 0.684828,-0.6848282 l 7.5373139,0.0054 c 0.3754534,6.135e-4 0.6842268,-0.30816 0.6848276,-0.6848153 V 1.7209694 C 9.9446147,1.3443139 10.253388,1.0355406 10.630043,1.0361413 l 2.740514,0.0036 c 0.376655,0.0018 0.684828,0.3099748 0.685429,0.6866302 v 7.5331091 c 0,0.3772562 0.308773,0.6860296 0.684828,0.6860296 l 7.534911,0.0054 c 0.374853,0 0.683626,0.3087738 0.685428,0.6854288 z"
     id="path1455"
     style="fill:url(#linearGradient2772);fill-opacity:1;stroke-width:0.849556" /></svg>
