<?xml version="1.0" encoding="UTF-8" standalone="no"?>
<svg
   xmlns:dc="http://purl.org/dc/elements/1.1/"
   xmlns:cc="http://creativecommons.org/ns#"
   xmlns:rdf="http://www.w3.org/1999/02/22-rdf-syntax-ns#"
   xmlns:svg="http://www.w3.org/2000/svg"
   xmlns="http://www.w3.org/2000/svg"
   xmlns:xlink="http://www.w3.org/1999/xlink"
   id="svg8"
   version="1.1"
   viewBox="0 0 205.66004 207.89409"
   height="207.89409mm"
   width="205.66005mm">
  <defs
     id="defs2">
    <linearGradient
       id="linearGradient846">
      <stop
         style="stop-color:#CA91BE;stop-opacity:1;"
         offset="0"
         id="stop842" />
      <stop
         style="stop-color:#BA3E91;stop-opacity:1"
         offset="1"
         id="stop844" />
    </linearGradient>
    <marker
       style="overflow:visible"
       id="marker8033"
       refX="0.0"
       refY="0.0"
       orient="auto">
      <path
         transform="scale(1.1) translate(1,0)"
         d="M 8.7185878,4.0337352 L -2.2072895,0.016013256 L 8.7185884,-4.0017078 C 6.9730900,-1.6296469 6.9831476,1.6157441 8.7185878,4.0337352 z "
         style="fill-rule:evenodd;stroke-width:0.625;stroke-linejoin:round;stroke:#CA91BE;stroke-opacity:1;fill:#CA91BE;fill-opacity:1"
         id="path8031" />
    </marker>
    <marker
       style="overflow:visible"
       id="marker7647"
       refX="0.0"
       refY="0.0"
       orient="auto">
      <path
         transform="scale(1.1) translate(1,0)"
         d="M 8.7185878,4.0337352 L -2.2072895,0.016013256 L 8.7185884,-4.0017078 C 6.9730900,-1.6296469 6.9831476,1.6157441 8.7185878,4.0337352 z "
         style="fill-rule:evenodd;stroke-width:0.625;stroke-linejoin:round;stroke:#CA91BE;stroke-opacity:1;fill:#CA91BE;fill-opacity:1"
         id="path7645" />
    </marker>
    <linearGradient
       xlink:href="#linearGradient846"
       id="linearGradient864"
       gradientUnits="userSpaceOnUse"
       x1="107.56444"
       y1="48.537979"
       x2="106.21132"
       y2="254.67024" />
    <linearGradient
       xlink:href="#linearGradient846"
       id="linearGradient868"
       gradientUnits="userSpaceOnUse"
       x1="107.56444"
       y1="48.537979"
       x2="106.21132"
       y2="254.67024" />
    <linearGradient
       xlink:href="#linearGradient846"
       id="linearGradient872"
       gradientUnits="userSpaceOnUse"
       x1="107.56444"
       y1="48.537979"
       x2="106.21132"
       y2="254.67024" />
  </defs>
  <metadata
     id="metadata5">
    <rdf:RDF>
      <cc:Work
         rdf:about="">
        <dc:format>image/svg+xml</dc:format>
        <dc:type
           rdf:resource="http://purl.org/dc/dcmitype/StillImage" />
        <dc:title></dc:title>
      </cc:Work>
    </rdf:RDF>
  </metadata>
  <g
     style="fill-opacity:1;fill:#CA91BE"
     id="g10824">
    <g
       style="fill-opacity:1;stroke:#BA3E91;fill:#CA91BE;stroke-opacity:1"
       transform="matrix(0.54314307,0,0,-0.54314307,111.07931,112.17229)"
       id="g8">
      <path
         d="M 0,0 C 0,-11.25 -14,-10.583 -14,-10.583 H -28 V 9.75 h 14 C 0.417,9.833 0,0 0,0 m -28,40.75 h 10.667 C -6.25,40.166 -6.667,31.917 -6.667,31.917 -6.667,21.667 -18.917,21.5 -18.917,21.5 H -28 Z M -2.583,17.5 c 0,0 9.583,4.083 9.5,14.917 0,0 1.457,17.749 -22.063,19.916 H -41.25 v -74.416 h 29.917 c 0,0 25,-0.084 25,21 0,0 0.583,14.333 -16.25,18.583 m -67.545,49.416 h 109.88 v -103.54 h -109.88 z"
         id="path10"
         style="fill-opacity:1;fill-rule:nonzero;stroke:url(#linearGradient864);fill:#CA91BE" />
    </g>
    <g
       style="fill-opacity:1;stroke:#CA91BE;fill:#CA91BE;stroke-opacity:1"
       transform="matrix(0.54314307,0,0,-0.54314307,42.258442,112.17229)"
       id="g12">
      <path
         d="M 0,0 C 0,-11.25 -14,-10.583 -14,-10.583 H -28 V 9.75 h 14 C 0.417,9.833 0,0 0,0 m -28,40.75 h 10.667 C -6.25,40.166 -6.667,31.917 -6.667,31.917 -6.667,21.667 -18.917,21.5 -18.917,21.5 H -28 Z M -2.583,17.5 c 0,0 9.583,4.083 9.5,14.917 0,0 1.457,17.749 -22.063,19.916 H -41.25 v -74.416 h 29.917 c 0,0 25,-0.084 25,21 0,0 0.583,14.333 -16.25,18.583 m -67.545,49.416 h 109.88 v -103.54 h -109.88 z"
         id="path14"
         style="fill-opacity:1;fill-rule:nonzero;stroke:url(#linearGradient868);fill:#CA91BE" />
    </g>
    <g
       style="fill-opacity:1;stroke:#BA3E91;fill:#CA91BE;stroke-opacity:1"
       transform="matrix(0.54314307,0,0,-0.54314307,189.31442,86.645331)"
       id="g16">
      <path
         d="m 0,0 v -13.75 c 0,0 -13.417,8.25 -28.25,8.417 0,0 -27.666,0.54 -28.916,-26.522 0,0 -1,-24.895 28.583,-26.312 0,0 12.417,-1.5 29.25,9.25 v -14.25 c 0,0 -22.583,-13.416 -48.75,-3.083 0,0 -22,8.04 -22.834,34.395 0,0 -0.917,27.105 28.417,36.105 0,0 7.834,3 21.917,1.667 0,0 8.416,-0.834 20.583,-5.917 m -87.461,-83.627 h 109.88 v 103.54 h -109.88 z"
         id="path18"
         style="fill-opacity:1;fill-rule:nonzero;stroke:url(#linearGradient872);fill:#CA91BE" />
    </g>
  </g>
  <style
     id="stylebodge1"
     type="text/css">[id^=&quot;polygon&quot;]{fill:#CA91BE;fill-opacity:1}</style>
  <style
     id="stylebodge2"
     type="text/css">[id^=&quot;path&quot;]{fill:#CA91BE;fill-opacity:1}</style>
</svg>
