<?xml version="1.0" encoding="UTF-8" standalone="no"?>
<svg
   xmlns:dc="http://purl.org/dc/elements/1.1/"
   xmlns:cc="http://creativecommons.org/ns#"
   xmlns:rdf="http://www.w3.org/1999/02/22-rdf-syntax-ns#"
   xmlns:svg="http://www.w3.org/2000/svg"
   xmlns="http://www.w3.org/2000/svg"
   xmlns:xlink="http://www.w3.org/1999/xlink"
   version="1.1"
   x="0px"
   y="0px"
   viewBox="0 0 1000 1000"
   enable-background="new 0 0 1000 1000"
   xml:space="preserve"
   id="svg881"><defs
   id="defs885"><linearGradient
     id="linearGradient2225"><stop
       id="stop2221"
       offset="0"
       style="stop-color:#CA91BE;stop-opacity:1" /><stop
       id="stop2223"
       offset="1"
       style="stop-color:#BA3E91;stop-opacity:1" /></linearGradient><linearGradient
     gradientUnits="userSpaceOnUse"
     y2="991.01794"
     x2="530.41919"
     y1="11.976048"
     x1="515.98804"
     id="linearGradient2227"
     xlink:href="#linearGradient2225" /></defs>
<metadata
   id="metadata833"> Svg Vector Icons : http://www.onlinewebfonts.com/icon <rdf:RDF><cc:Work
     rdf:about=""><dc:format>image/svg+xml</dc:format><dc:type
       rdf:resource="http://purl.org/dc/dcmitype/StillImage" /><dc:title></dc:title></cc:Work></rdf:RDF></metadata>
<g
   id="g879"
   style="fill:url(#linearGradient2227);fill-opacity:1"><g
     id="g847"
     style="fill:url(#linearGradient2227);fill-opacity:1"><g
       id="g845"
       style="fill:url(#linearGradient2227);fill-opacity:1"><path
         d="M500,10C229.8,10,10,229.8,10,500c0,270.2,219.8,490,490,490c270.2,0,490-219.8,490-490C990,229.8,770.2,10,500,10z M500,932.4c-238.4,0-432.4-194-432.4-432.4S261.6,67.6,500,67.6c238.4,0,432.4,194,432.4,432.4S738.4,932.4,500,932.4z"
         id="path835"
         style="fill:url(#linearGradient2227);fill-opacity:1" /><path
         d="M644.1,500c0-79.5-64.6-144.1-144.1-144.1c-79.5,0-144.1,64.6-144.1,144.1S420.5,644.1,500,644.1C579.5,644.1,644.1,579.5,644.1,500z M500,413.5c47.7,0,86.5,38.8,86.5,86.5c0,47.7-38.8,86.5-86.5,86.5c-47.7,0-86.5-38.8-86.5-86.5C413.5,452.3,452.3,413.5,500,413.5z"
         id="path837"
         style="fill:url(#linearGradient2227);fill-opacity:1" /><path
         d="M500,299.8V122.1c-65.4,0-126.8,16.6-180.5,45.8l89,154.2C436,308,467,299.8,500,299.8z"
         id="path839"
         style="fill:url(#linearGradient2227);fill-opacity:1" /><path
         d="M391.9,331.7l-88.8-153.8c-25.5,15.6-49.3,33.8-70.3,54.9l125.7,125.7C368.6,348.4,379.8,339.5,391.9,331.7z"
         id="path841"
         style="fill:url(#linearGradient2227);fill-opacity:1" /><path
         d="M500,700.2v177.7c104.4,0,198.8-42.3,267.2-110.7L641.5,641.5C605.3,677.8,555.3,700.2,500,700.2z"
         id="path843"
         style="fill:url(#linearGradient2227);fill-opacity:1" /></g></g><g
     id="g849"
     style="fill:url(#linearGradient2227);fill-opacity:1" /><g
     id="g851"
     style="fill:url(#linearGradient2227);fill-opacity:1" /><g
     id="g853"
     style="fill:url(#linearGradient2227);fill-opacity:1" /><g
     id="g855"
     style="fill:url(#linearGradient2227);fill-opacity:1" /><g
     id="g857"
     style="fill:url(#linearGradient2227);fill-opacity:1" /><g
     id="g859"
     style="fill:url(#linearGradient2227);fill-opacity:1" /><g
     id="g861"
     style="fill:url(#linearGradient2227);fill-opacity:1" /><g
     id="g863"
     style="fill:url(#linearGradient2227);fill-opacity:1" /><g
     id="g865"
     style="fill:url(#linearGradient2227);fill-opacity:1" /><g
     id="g867"
     style="fill:url(#linearGradient2227);fill-opacity:1" /><g
     id="g869"
     style="fill:url(#linearGradient2227);fill-opacity:1" /><g
     id="g871"
     style="fill:url(#linearGradient2227);fill-opacity:1" /><g
     id="g873"
     style="fill:url(#linearGradient2227);fill-opacity:1" /><g
     id="g875"
     style="fill:url(#linearGradient2227);fill-opacity:1" /><g
     id="g877"
     style="fill:url(#linearGradient2227);fill-opacity:1" /></g>
</svg>
