<?xml version="1.0" encoding="UTF-8" standalone="no"?>
<svg
   xmlns:dc="http://purl.org/dc/elements/1.1/"
   xmlns:cc="http://creativecommons.org/ns#"
   xmlns:rdf="http://www.w3.org/1999/02/22-rdf-syntax-ns#"
   xmlns:svg="http://www.w3.org/2000/svg"
   xmlns="http://www.w3.org/2000/svg"
   xmlns:xlink="http://www.w3.org/1999/xlink"
   id="svg4031"
   xml:space="preserve"
   enable-background="new 0 0 1000 1000"
   viewBox="0 0 1000 1000"
   y="0px"
   x="0px"
   version="1.1"><defs
   id="defs4035"><linearGradient
     id="linearGradient9797"><stop
       style="stop-color:#CA91BE;stop-opacity:1"
       offset="0"
       id="stop9793" /><stop
       style="stop-color:#BA3E91;stop-opacity:1"
       offset="1"
       id="stop9795" /></linearGradient><linearGradient
     xlink:href="#linearGradient9797"
     id="linearGradient9799"
     x1="493.53293"
     y1="148.2036"
     x2="500"
     y2="852.20001"
     gradientUnits="userSpaceOnUse" /><linearGradient
     y2="852.20001"
     x2="500"
     y1="148.2036"
     x1="493.53293"
     gradientUnits="userSpaceOnUse"
     id="linearGradient3862"
     xlink:href="#linearGradient9797" /><linearGradient
     gradientTransform="matrix(1,0,0,1.0930372,0,-70.736195)"
     y2="852.20001"
     x2="500"
     y1="148.2036"
     x1="493.53293"
     gradientUnits="userSpaceOnUse"
     id="linearGradient3864"
     xlink:href="#linearGradient9797" /></defs>
<metadata
   id="metadata3989"> Svg Vector Icons : http://www.onlinewebfonts.com/icon <rdf:RDF><cc:Work
     rdf:about=""><dc:format>image/svg+xml</dc:format><dc:type
       rdf:resource="http://purl.org/dc/dcmitype/StillImage" /><dc:title></dc:title></cc:Work></rdf:RDF></metadata>
<polygon
   transform="translate(0,121.32353)"
   points="561.3,423.4 438.8,423.4 438.8,668.4 346.9,668.4 500,852.2 653.1,668.4 561.3,668.4 "
   id="polygon3991"
   style="fill:url(#linearGradient3862);fill-opacity:1" /><path
   d="M 854.8,365.71357 C 826.4,283.29856 753.7,224.71176 668.4,224.71176 c -19.6,0 -38.6,3.06051 -56.5,8.85361 C 563.3,147.87125 476.5,90.814706 377.5,90.814706 227.3,90.814706 105.1,222.19778 101.9,385.49754 47,420.25612 10,485.29184 10,559.50906 10,670.34304 92.3,760.3 193.8,760.3 h 137.8 l -51.1,-67.00318 h -86.9 c -67.5,0 -122.4,-59.89844 -122.4,-133.89706 0,-63.39616 40.3,-116.51777 94.5,-130.39934 -1.8,-12.02341 -2.7,-24.37473 -2.7,-36.94466 0,-129.4156 96,-234.34718 214.4,-234.34718 96.8,0 178.7,70.17299 205.2,166.57887 23.6,-20.43979 53.3,-32.68181 85.7,-32.68181 70.9,0 129.4,58.5868 137,133.89706 h 0.9 c 67.5,0 122.4,59.89844 122.4,133.89706 0,73.78001 -54.8,133.89706 -122.4,133.89706 H 719.3 L 668.2,760.3 H 806 c 101.4,0 183.8,-90.17557 183.8,-200.90024 0.2,-92.47095 -57.1,-170.4045 -135,-193.68619 z"
   id="path3993"
   style="fill:url(#linearGradient3864);fill-opacity:1;stroke-width:1.04548" />
</svg>
