<?xml version="1.0" encoding="UTF-8" standalone="no"?>
<svg
   xmlns:dc="http://purl.org/dc/elements/1.1/"
   xmlns:cc="http://creativecommons.org/ns#"
   xmlns:rdf="http://www.w3.org/1999/02/22-rdf-syntax-ns#"
   xmlns:svg="http://www.w3.org/2000/svg"
   xmlns="http://www.w3.org/2000/svg"
   xmlns:xlink="http://www.w3.org/1999/xlink"
   id="svg8"
   xml:space="preserve"
   enable-background="new 0 0 1000 1000"
   viewBox="0 0 1000 1000"
   y="0px"
   x="0px"
   version="1.1"><defs
     id="defs12"><linearGradient
       id="linearGradient15268"><stop
         id="stop15264"
         offset="0"
         style="stop-color:#CA91BE;stop-opacity:1" /><stop
         id="stop15266"
         offset="1"
         style="stop-color:#BA3E91;stop-opacity:1" /></linearGradient><linearGradient
       gradientUnits="userSpaceOnUse"
       y2="989.09686"
       x2="478.40182"
       y1="13.120169"
       x1="455.96851"
       id="linearGradient15270"
       xlink:href="#linearGradient15268" /></defs><metadata
     id="metadata2"> Svg Vector Icons : http://www.onlinewebfonts.com/icon <rdf:RDF><cc:Work
     rdf:about=""><dc:format>image/svg+xml</dc:format><dc:type
       rdf:resource="http://purl.org/dc/dcmitype/StillImage" /><dc:title></dc:title></cc:Work></rdf:RDF></metadata><g
     id="g6"
     style="fill-opacity:1;fill:url(#linearGradient15270)"><path
       id="path4"
       d="M200.5,963.3l454-256.3l-97.4-108L200.5,963.3z M34.6,20c-5.2,9.4-8.4,20.1-8.4,32.1v895.9c0,16.6,6.2,30.8,15.6,42.1l451.7-461.5L34.6,20z M943,455.8l-158.3-89.4L623.5,531.2l115.6,128.1L943,544.2c18.6-9.4,28.8-26.4,30.8-44.2C971.8,482.2,961.6,465.2,943,455.8z M699.3,318.2L153.2,10l406.6,450.7L699.3,318.2z"
       style="fill-opacity:1;fill:url(#linearGradient15270)" /></g></svg>
