<?xml version="1.0" encoding="UTF-8" standalone="no"?>
<svg
   xmlns:dc="http://purl.org/dc/elements/1.1/"
   xmlns:cc="http://creativecommons.org/ns#"
   xmlns:rdf="http://www.w3.org/1999/02/22-rdf-syntax-ns#"
   xmlns:svg="http://www.w3.org/2000/svg"
   xmlns="http://www.w3.org/2000/svg"
   xmlns:xlink="http://www.w3.org/1999/xlink"
   version="1.1"
   id="Layer_1"
   x="0px"
   y="0px"
   width="100px"
   height="100px"
   viewBox="0 0 100 100"
   enable-background="new 0 0 100 100"
   xml:space="preserve"><metadata
     id="metadata9"><rdf:RDF><cc:Work
         rdf:about=""><dc:format>image/svg+xml</dc:format><dc:type
           rdf:resource="http://purl.org/dc/dcmitype/StillImage" /><dc:title></dc:title></cc:Work></rdf:RDF></metadata><defs
     id="defs7"><linearGradient
       id="linearGradient16591"><stop
         id="stop16587"
         offset="0"
         style="stop-color:#CA91BE;stop-opacity:1" /><stop
         id="stop16589"
         offset="1"
         style="stop-color:#BA3E91;stop-opacity:1" /></linearGradient><linearGradient
       gradientUnits="userSpaceOnUse"
       y2="97.92099"
       x2="54.85133"
       y1="2.7114103"
       x1="54.165302"
       id="linearGradient16593"
       xlink:href="#linearGradient16591" /></defs><path
     d="M 89.132768,73.495569 V 11.792058 c 0,-5.0402634 -4.100998,-9.1412614 -9.141262,-9.1412614 H 38.284504 c -5.040264,0 -9.141262,4.100998 -9.141262,9.1412614 v 40.120994 c 1.303772,-0.217105 2.633826,-0.357652 3.999302,-0.357652 0.967831,0 1.918522,0.07198 2.856644,0.182825 V 11.792058 c 0,-1.260352 1.024964,-2.2853164 2.285316,-2.2853164 h 41.707002 c 1.260352,0 2.285316,1.0249644 2.285316,2.2853164 v 61.703511 c 0,1.260352 -1.024964,2.285316 -2.285316,2.285316 H 57.368028 c 0,2.383584 -0.357652,4.680325 -0.999825,6.855946 h 23.623303 c 5.040264,0 9.141262,-4.100999 9.141262,-9.141262 z M 32.760896,54.562875 c -11.88821,0 -21.559664,9.671454 -21.559664,21.559664 0,11.88821 9.671454,21.559664 21.559664,21.559664 11.88821,0 21.559664,-9.671454 21.559664,-21.559664 0,-11.88821 -9.671454,-21.559664 -21.559664,-21.559664 z m 0,4.570631 c 9.367508,0 16.989034,7.620383 16.989034,16.989033 0,9.36865 -7.620384,16.989033 -16.989034,16.989033 -9.36865,0 -16.989033,-7.620383 -16.989033,-16.989033 0,-9.36865 7.621526,-16.989033 16.989033,-16.989033 z M 45.69121,73.837224 c 1.261494,0 2.285316,1.023821 2.285316,2.285315 0,1.261494 -1.023822,2.285316 -2.285316,2.285316 H 35.046212 v 8.971004 c 0,1.261494 -1.023822,2.285316 -2.285316,2.285316 -1.261494,0 -2.285315,-1.023822 -2.285315,-2.285316 v -11.25632 c 0,-1.261494 1.023821,-2.285315 2.285315,-2.285315 z M 72.067176,55.307888 h -24.75682 c -1.261494,0 -2.285316,-1.023821 -2.285316,-2.285315 0,-1.261494 1.023822,-2.285316 2.285316,-2.285316 h 24.757963 c 1.261494,0 2.285315,1.023822 2.285315,2.285316 0,1.261494 -1.023821,2.285315 -2.286458,2.285315 z m 0.04114,-13.862722 H 47.350349 c -1.261494,0 -2.285315,-1.023821 -2.285315,-2.285315 0,-1.261494 1.023821,-2.285316 2.285315,-2.285316 h 24.757963 c 1.261494,0 2.285315,1.023822 2.285315,2.285316 0,1.261494 -1.022679,2.285315 -2.285315,2.285315 z m 0,-14.436337 H 47.350349 c -1.261494,0 -2.285315,-1.023821 -2.285315,-2.285315 0,-1.261494 1.023821,-2.285315 2.285315,-2.285315 h 24.757963 c 1.261494,0 2.285315,1.023821 2.285315,2.285315 0,1.261494 -1.022679,2.285315 -2.285315,2.285315 z"
     id="path2"
     style="fill:url(#linearGradient16593);fill-opacity:1;stroke-width:1.14266" /></svg>
