<?xml version="1.0" encoding="UTF-8" standalone="no"?>
<svg
   xmlns:dc="http://purl.org/dc/elements/1.1/"
   xmlns:cc="http://creativecommons.org/ns#"
   xmlns:rdf="http://www.w3.org/1999/02/22-rdf-syntax-ns#"
   xmlns:svg="http://www.w3.org/2000/svg"
   xmlns="http://www.w3.org/2000/svg"
   xmlns:xlink="http://www.w3.org/1999/xlink"
   version="1.1"
   id="Layer_1"
   x="0px"
   y="0px"
   width="512px"
   height="512px"
   viewBox="0 0 512 512"
   enable-background="new 0 0 512 512"
   xml:space="preserve"><metadata
     id="metadata9"><rdf:RDF><cc:Work
         rdf:about=""><dc:format>image/svg+xml</dc:format><dc:type
           rdf:resource="http://purl.org/dc/dcmitype/StillImage" /><dc:title></dc:title></cc:Work></rdf:RDF></metadata><defs
     id="defs7"><linearGradient
       id="linearGradient26127"><stop
         id="stop26123"
         offset="0"
         style="stop-color:#CA91BE;stop-opacity:1" /><stop
         id="stop26125"
         offset="1"
         style="stop-color:#BA3E91;stop-opacity:1" /></linearGradient><linearGradient
       gradientUnits="userSpaceOnUse"
       y2="508.55991"
       x2="274.61536"
       y1="5.6079845"
       x1="275.32281"
       id="linearGradient26129"
       xlink:href="#linearGradient26127" /></defs><path
     d="M480,0H32C14.313,0,0,14.328,0,32v448c0,17.688,14.313,32,32,32h448c17.688,0,32-14.313,32-32V32  C512,14.328,497.688,0,480,0z M320,32l32,64h-64l-32-64H320z M192,32l32,64h-64l-32-64H192z M32,32h32l32,64H32V32z M480,480H32V128  h448V480z M480,96h-64l-32-64h64l32,32V96z M355.375,289.688c15.75,7.875,15.75,20.75,0,28.625l-166.75,83.375  C172.875,409.563,160,401.594,160,384V224c0-17.594,12.875-25.563,28.625-17.688L355.375,289.688z"
     id="path2"
     style="fill-opacity:1;fill:url(#linearGradient26129)" /></svg>
