<?xml version="1.0" encoding="UTF-8" standalone="no"?>
<svg
   xmlns:dc="http://purl.org/dc/elements/1.1/"
   xmlns:cc="http://creativecommons.org/ns#"
   xmlns:rdf="http://www.w3.org/1999/02/22-rdf-syntax-ns#"
   xmlns:svg="http://www.w3.org/2000/svg"
   xmlns="http://www.w3.org/2000/svg"
   xmlns:xlink="http://www.w3.org/1999/xlink"
   version="1.1"
   x="0px"
   y="0px"
   viewBox="0 0 1000 1000"
   enable-background="new 0 0 1000 1000"
   xml:space="preserve"
   id="svg40732"><defs
   id="defs40736"><linearGradient
     id="linearGradient38800"><stop
       style="stop-color:#CA91BE;stop-opacity:1"
       offset="0"
       id="stop38796" /><stop
       style="stop-color:#BA3E91;stop-opacity:1"
       offset="1"
       id="stop38798" /></linearGradient><linearGradient
     xlink:href="#linearGradient38800"
     id="linearGradient38802"
     x1="515.53442"
     y1="85.379326"
     x2="500.93265"
     y2="913.22363"
     gradientUnits="userSpaceOnUse" /><linearGradient
     xlink:href="#linearGradient38800"
     id="linearGradient38810"
     x1="515.53442"
     y1="85.379326"
     x2="500.93265"
     y2="913.22363"
     gradientUnits="userSpaceOnUse" /><linearGradient
     gradientTransform="matrix(0.98760454,-0.61249379,0.62131994,0.97357512,-300.79907,326.84257)"
     y2="913.22363"
     x2="500.93265"
     y1="85.379326"
     x1="515.53442"
     gradientUnits="userSpaceOnUse"
     id="linearGradient4951"
     xlink:href="#linearGradient38800" /><linearGradient
     gradientTransform="matrix(0.98760454,-0.61249379,0.62131994,0.97357512,-300.79907,326.84257)"
     y2="913.22363"
     x2="500.93265"
     y1="85.379326"
     x1="515.53442"
     gradientUnits="userSpaceOnUse"
     id="linearGradient4953"
     xlink:href="#linearGradient38800" /></defs>
<metadata
   id="metadata40724"> Svg Vector Icons : http://www.onlinewebfonts.com/icon <rdf:RDF><cc:Work
     rdf:about=""><dc:format>image/svg+xml</dc:format><dc:type
       rdf:resource="http://purl.org/dc/dcmitype/StillImage" /><dc:title></dc:title></cc:Work></rdf:RDF></metadata>
<path
   style="fill:url(#linearGradient4951);fill-opacity:1;stroke:url(#linearGradient4953);stroke-width:1.15847;stroke-opacity:1"
   id="path40728"
   d="M 910.59287,254.87719 C 856.22737,169.68936 779.20963,107.11115 692.32341,69.677865 690.94863,69.035678 689.808,68.112385 688.33447,67.531448 677.6103,63.039346 666.70299,59.340279 655.95657,55.677321 654.70606,55.229849 653.39341,54.685019 652.1429,54.237547 578.92519,29.798027 502.47168,23.400376 427.55489,34.530803 c -2.01509,0.298488 -4.19107,0.560867 -6.20616,0.859354 -11.86753,1.924391 -23.62191,4.458068 -35.35079,7.247709 -4.2022,0.975438 -8.46653,1.853519 -12.64323,3.084921 -10.01007,2.674902 -19.907,5.95909 -29.80393,9.243279 -5.42396,1.869037 -10.97217,3.54336 -16.37062,5.668362 -2.68091,0.983197 -5.38733,1.71043 -8.00611,2.790985 -7.10288,2.910277 -13.83297,6.4047 -20.91035,9.570941 -4.81701,2.172077 -9.59739,4.185547 -14.45103,6.516231 -11.48497,5.763856 -22.46176,11.892002 -33.35092,18.373469 -1.97521,1.224988 -4.03805,2.096653 -6.01326,3.321636 -0.39504,0.245 -0.62919,0.52611 -1.02423,0.77111 -82.60037,51.36308 -147.246482,126.10749 -185.499198,217.36874 -12.305487,29.10235 1.808763,62.88272 31.257224,75.33061 29.510594,12.54525 63.444834,-1.02614 75.688184,-30.22585 29.63286,-70.42384 79.83496,-128.05691 144.10577,-167.10111 9.24685,-5.59884 18.58134,-10.84435 28.02897,-15.48058 2.95169,-1.42291 5.96551,-2.74846 8.88057,-4.01276 7.86746,-3.65624 15.85919,-7.11776 23.93855,-10.22596 3.53313,-1.37584 7.25265,-2.4596 10.74915,-3.67683 8.0061,-2.79098 16.23523,-5.4485 24.35447,-7.6302 2.60766,-0.66599 5.27744,-1.23461 7.8851,-1.9006 9.51626,-2.36865 19.02141,-4.32273 28.61419,-5.9235 0.97648,-0.19792 2.01509,-0.29848 2.95494,-0.3378 58.0171,-8.6671 117.11511,-3.32838 172.30636,14.89681 0.32179,0.0722 0.7057,0.24179 1.08962,0.41137 77.83584,26.05983 147.69728,77.85651 195.07849,151.88432 l -71.79885,44.5283 c -1.87645,1.16374 -3.03282,3.23981 -2.80329,5.54349 0.13077,2.36492 1.57093,4.18958 3.55265,5.1348 l 235.77923,105.71534 c 1.75869,0.81176 4.05894,0.74409 5.83663,-0.35839 1.77769,-1.10249 2.89743,-3.01995 2.85429,-5.03156 l 5.3938,-255.28632 c -0.007,-2.17021 -1.05163,-4.23986 -3.15761,-5.3798 -2.10598,-1.13994 -4.50499,-1.01103 -6.28267,0.0915 z" />
</svg>
