<?xml version="1.0" encoding="UTF-8" standalone="no"?>
<svg
   xmlns:dc="http://purl.org/dc/elements/1.1/"
   xmlns:cc="http://creativecommons.org/ns#"
   xmlns:rdf="http://www.w3.org/1999/02/22-rdf-syntax-ns#"
   xmlns:svg="http://www.w3.org/2000/svg"
   xmlns="http://www.w3.org/2000/svg"
   xmlns:xlink="http://www.w3.org/1999/xlink"
   version="1.1"
   id="Layer_1"
   x="0px"
   y="0px"
   width="512px"
   height="512px"
   viewBox="0 0 512 512"
   enable-background="new 0 0 512 512"
   xml:space="preserve"><metadata
     id="metadata15"><rdf:RDF><cc:Work
         rdf:about=""><dc:format>image/svg+xml</dc:format><dc:type
           rdf:resource="http://purl.org/dc/dcmitype/StillImage" /><dc:title></dc:title></cc:Work></rdf:RDF></metadata><defs
     id="defs13"><linearGradient
       id="linearGradient43449"><stop
         id="stop43445"
         offset="0"
         style="stop-color:#CA91BE;stop-opacity:1" /><stop
         id="stop43447"
         offset="1"
         style="stop-color:#BA3E91;stop-opacity:1" /></linearGradient><linearGradient
       gradientUnits="userSpaceOnUse"
       y2="320.30911"
       x2="278.87814"
       y1="192.92857"
       x1="273.93433"
       id="linearGradient43451"
       xlink:href="#linearGradient43449" /></defs><g
     id="g8"
     transform="matrix(1.7542527,0,0,1.7542527,-189.83493,-191.46194)"
     style="fill-opacity:1;fill:url(#linearGradient43451)"><g
       id="g6"
       style="fill-opacity:1;fill:url(#linearGradient43451)"><path
         d="m 128.591,281.609 c -2.875,13.5 5.344,32 12.781,38.391 v -64 c -7.437,6.391 -10.594,15.5 -12.781,25.609 z m 218.75,-31.421 c -4.469,0 -8.672,0.875 -12.609,2.266 -1.969,-33.672 -31,-60.453 -66.812,-60.453 -22.891,0 -50.609,8.938 -62.703,25.594 V 320 h 142.125 c 20.25,0 36.656,-15.625 36.656,-34.891 -10e-4,-19.297 -16.407,-34.921 -36.657,-34.921 z M 179.685,320 h 12.766 v -89.594 h -12.766 z m -25.547,0 h 12.766 v -76.812 h -12.766 z"
         id="path4"
         style="clip-rule:evenodd;fill-rule:evenodd;fill-opacity:1;fill:url(#linearGradient43451)" /></g></g></svg>
