<?xml version="1.0" encoding="UTF-8" standalone="no"?>
<svg
   xmlns:dc="http://purl.org/dc/elements/1.1/"
   xmlns:cc="http://creativecommons.org/ns#"
   xmlns:rdf="http://www.w3.org/1999/02/22-rdf-syntax-ns#"
   xmlns:svg="http://www.w3.org/2000/svg"
   xmlns="http://www.w3.org/2000/svg"
   xmlns:xlink="http://www.w3.org/1999/xlink"
   version="1.1"
   x="0px"
   y="0px"
   viewBox="0 0 1000 1000"
   enable-background="new 0 0 1000 1000"
   xml:space="preserve"
   id="svg9916"><defs
   id="defs9920"><linearGradient
     id="linearGradient44783"><stop
       id="stop44779"
       offset="0"
       style="stop-color:#CA91BE;stop-opacity:1" /><stop
       id="stop44781"
       offset="1"
       style="stop-color:#BA3E91;stop-opacity:1" /></linearGradient><linearGradient
     gradientUnits="userSpaceOnUse"
     y2="991.164"
     x2="513.65564"
     y1="8.8360081"
     x1="526.56903"
     id="linearGradient44785"
     xlink:href="#linearGradient44783" /></defs>
<metadata
   id="metadata9872"> Svg Vector Icons : http://www.onlinewebfonts.com/icon <rdf:RDF><cc:Work
     rdf:about=""><dc:format>image/svg+xml</dc:format><dc:type
       rdf:resource="http://purl.org/dc/dcmitype/StillImage" /><dc:title></dc:title></cc:Work></rdf:RDF></metadata>
<g
   id="g9914"
   style="fill:url(#linearGradient44785);fill-opacity:1"><g
     id="g9882"
     style="fill:url(#linearGradient44785);fill-opacity:1"><path
       d="M685.9,644.4c-163.1-75.4-391.4-42-401-40.6c-21.5,3.2-36.3,23.3-33,44.8c3.2,21.5,23.3,36.3,44.8,33c2.1-0.3,214.3-31.4,356.2,34.2c5.3,2.5,11,3.6,16.5,3.6c14.9,0,29.1-8.5,35.7-22.8C714.3,676.9,705.7,653.6,685.9,644.4z"
       id="path9874"
       style="fill:url(#linearGradient44785);fill-opacity:1" /><path
       d="M731.8,502.8c-185.2-85.6-444.9-47.7-455.9-46c-21.5,3.2-36.2,23.3-33,44.7c3.2,21.5,23.3,36.3,44.7,33c2.5-0.4,247.6-36,411.2,39.6c5.3,2.5,11,3.6,16.5,3.6c14.9,0,29.1-8.5,35.7-22.8C760.1,535.3,751.5,511.9,731.8,502.8z"
       id="path9876"
       style="fill:url(#linearGradient44785);fill-opacity:1" /><path
       d="M762.6,354.8C558,260.2,270.7,302.2,258.5,304c-21.5,3.2-36.2,23.3-33,44.8c3.2,21.5,23.3,36.3,44.7,33c2.7-0.4,276.4-40.2,459.3,44.4c5.3,2.5,11,3.6,16.5,3.6c14.9,0,29.1-8.5,35.7-22.8C790.9,387.3,782.3,363.9,762.6,354.8z"
       id="path9878"
       style="fill:url(#linearGradient44785);fill-opacity:1" /><path
       d="M500,10C229.8,10,10,229.8,10,500c0,270.2,219.8,490,490,490c270.2,0,490-219.8,490-490C990,229.8,770.2,10,500,10z M500,911.3C273.2,911.3,88.7,726.8,88.7,500C88.7,273.2,273.2,88.7,500,88.7c226.8,0,411.3,184.5,411.3,411.3C911.3,726.8,726.8,911.3,500,911.3z"
       id="path9880"
       style="fill:url(#linearGradient44785);fill-opacity:1" /></g><g
     id="g9884"
     style="fill:url(#linearGradient44785);fill-opacity:1" /><g
     id="g9886"
     style="fill:url(#linearGradient44785);fill-opacity:1" /><g
     id="g9888"
     style="fill:url(#linearGradient44785);fill-opacity:1" /><g
     id="g9890"
     style="fill:url(#linearGradient44785);fill-opacity:1" /><g
     id="g9892"
     style="fill:url(#linearGradient44785);fill-opacity:1" /><g
     id="g9894"
     style="fill:url(#linearGradient44785);fill-opacity:1" /><g
     id="g9896"
     style="fill:url(#linearGradient44785);fill-opacity:1" /><g
     id="g9898"
     style="fill:url(#linearGradient44785);fill-opacity:1" /><g
     id="g9900"
     style="fill:url(#linearGradient44785);fill-opacity:1" /><g
     id="g9902"
     style="fill:url(#linearGradient44785);fill-opacity:1" /><g
     id="g9904"
     style="fill:url(#linearGradient44785);fill-opacity:1" /><g
     id="g9906"
     style="fill:url(#linearGradient44785);fill-opacity:1" /><g
     id="g9908"
     style="fill:url(#linearGradient44785);fill-opacity:1" /><g
     id="g9910"
     style="fill:url(#linearGradient44785);fill-opacity:1" /><g
     id="g9912"
     style="fill:url(#linearGradient44785);fill-opacity:1" /></g>
</svg>
