<?xml version="1.0" encoding="UTF-8" standalone="no"?>
<svg
   xmlns:dc="http://purl.org/dc/elements/1.1/"
   xmlns:cc="http://creativecommons.org/ns#"
   xmlns:rdf="http://www.w3.org/1999/02/22-rdf-syntax-ns#"
   xmlns:svg="http://www.w3.org/2000/svg"
   xmlns="http://www.w3.org/2000/svg"
   xmlns:xlink="http://www.w3.org/1999/xlink"
   id="Layer_1"
   style="enable-background:new 0 0 32 32;"
   xml:space="preserve"
   height="32px"
   viewBox="0 0 32 32"
   width="32px"
   version="1.1"><defs
     id="defs7"><linearGradient
       id="linearGradient30389"><stop
         id="stop30385"
         offset="0"
         style="stop-color:#CA91BE;stop-opacity:1;" /><stop
         id="stop30387"
         offset="1"
         style="stop-color:#BA3E91;stop-opacity:1" /></linearGradient><marker
       style="overflow:visible"
       id="marker30789"
       refX="0.0"
       refY="0.0"
       orient="auto"><path
         transform="scale(0.8) translate(12.5,0)"
         style="fill-rule:evenodd;stroke:#000000;stroke-width:1pt;stroke-opacity:1;fill:#000000;fill-opacity:1"
         d="M 0.0,0.0 L 5.0,-5.0 L -12.5,0.0 L 5.0,5.0 L 0.0,0.0 z "
         id="path30787" /></marker><marker
       style="overflow:visible"
       id="marker30779"
       refX="0.0"
       refY="0.0"
       orient="auto"><path
         transform="scale(0.8) translate(12.5,0)"
         style="fill-rule:evenodd;stroke:#000000;stroke-width:1pt;stroke-opacity:1;fill:#000000;fill-opacity:1"
         d="M 0.0,0.0 L 5.0,-5.0 L -12.5,0.0 L 5.0,5.0 L 0.0,0.0 z "
         id="path30777" /></marker><marker
       orient="auto"
       refY="0.0"
       refX="0.0"
       id="marker30705"
       style="overflow:visible"><path
         id="path30703"
         d="M 0.0,0.0 L 5.0,-5.0 L -12.5,0.0 L 5.0,5.0 L 0.0,0.0 z "
         style="fill-rule:evenodd;stroke:#000000;stroke-width:1.0pt"
         transform="scale(0.8) translate(12.5,0)" /></marker><marker
       orient="auto"
       refY="0.0"
       refX="0.0"
       id="marker30677"
       style="overflow:visible"><path
         id="path30675"
         d="M 0.0,0.0 L 5.0,-5.0 L -12.5,0.0 L 5.0,5.0 L 0.0,0.0 z "
         style="fill-rule:evenodd;stroke:#000000;stroke-width:1.0pt"
         transform="scale(0.8) translate(12.5,0)" /></marker><marker
       orient="auto"
       refY="0.0"
       refX="0.0"
       id="marker30655"
       style="overflow:visible"><path
         id="path30653"
         d="M 0.0,0.0 L 5.0,-5.0 L -12.5,0.0 L 5.0,5.0 L 0.0,0.0 z "
         style="fill-rule:evenodd;stroke:#000000;stroke-width:1.0pt"
         transform="scale(0.8) translate(12.5,0)" /></marker><marker
       orient="auto"
       refY="0.0"
       refX="0.0"
       id="marker30639"
       style="overflow:visible"><path
         id="path30637"
         d="M 0.0,0.0 L 5.0,-5.0 L -12.5,0.0 L 5.0,5.0 L 0.0,0.0 z "
         style="fill-rule:evenodd;stroke:#000000;stroke-width:1.0pt"
         transform="scale(0.8) translate(12.5,0)" /></marker><marker
       orient="auto"
       refY="0.0"
       refX="0.0"
       id="Arrow1Lstart"
       style="overflow:visible"><path
         id="path6959"
         d="M 0.0,0.0 L 5.0,-5.0 L -12.5,0.0 L 5.0,5.0 L 0.0,0.0 z "
         style="fill-rule:evenodd;stroke:#000000;stroke-width:1.0pt"
         transform="scale(0.8) translate(12.5,0)" /></marker><linearGradient
       gradientUnits="userSpaceOnUse"
       y2="31.570265"
       x2="14.19424"
       y1="0.27126276"
       x1="14.378181"
       id="linearGradient30391"
       xlink:href="#linearGradient30389" /></defs><metadata
     id="metadata3059"><rdf:RDF><cc:Work
         rdf:about=""><dc:format>image/svg+xml</dc:format><dc:type
           rdf:resource="http://purl.org/dc/dcmitype/StillImage" /><dc:title></dc:title></cc:Work></rdf:RDF></metadata><g
     style="stroke:url(#linearGradient30391)"
     id="g30341"><path
       id="path30605"
       d="m 2.3521074,10.566191 0.052698,12.406087 h 5.9599446 l 7.4791409,6.702139 0.107704,-27.236351 -8.1734442,7.985527 z"
       style="fill:none;stroke:url(#linearGradient30391);stroke-width:4.266;stroke-linecap:butt;stroke-linejoin:round;stroke-miterlimit:4;stroke-dasharray:none;stroke-opacity:1" /><path
       id="path30926"
       d="m 19.969925,9.1428571 c 3.852603,2.9583399 3.764053,9.3262799 0,12.2706769"
       style="fill:none;stroke:url(#linearGradient30391);stroke-width:1px;stroke-linecap:round;stroke-linejoin:miter;stroke-opacity:1" /><path
       style="fill:none;stroke:url(#linearGradient30391);stroke-width:1.84364;stroke-linecap:round;stroke-linejoin:miter;stroke-miterlimit:4;stroke-dasharray:none;stroke-opacity:1"
       d="m 20.997481,6.1374537 c 6.83662,4.3124583 6.679484,13.5951893 0,17.8873223"
       id="path30928" /><path
       id="path30930"
       d="m 22.488463,2.2880427 c 10.103764,6.3021934 9.871535,19.8679063 0,26.1403963"
       style="fill:none;stroke:url(#linearGradient30391);stroke-width:2.70944;stroke-linecap:round;stroke-linejoin:miter;stroke-miterlimit:4;stroke-dasharray:none;stroke-opacity:1" /></g></svg>
