<?xml version="1.0" encoding="UTF-8" standalone="no"?>
<svg
   xmlns:dc="http://purl.org/dc/elements/1.1/"
   xmlns:cc="http://creativecommons.org/ns#"
   xmlns:rdf="http://www.w3.org/1999/02/22-rdf-syntax-ns#"
   xmlns:svg="http://www.w3.org/2000/svg"
   xmlns="http://www.w3.org/2000/svg"
   xmlns:xlink="http://www.w3.org/1999/xlink"
   viewBox="0 0 1700 1700"
   version="1.1"
   id="svg10592">
  <metadata
     id="metadata10598">
    <rdf:RDF>
      <cc:Work
         rdf:about="">
        <dc:format>image/svg+xml</dc:format>
        <dc:type
           rdf:resource="http://purl.org/dc/dcmitype/StillImage" />
        <dc:title></dc:title>
      </cc:Work>
    </rdf:RDF>
  </metadata>
  <defs
     id="defs10596">
    <linearGradient
       id="linearGradient52220">
      <stop
         id="stop52216"
         offset="0"
         style="stop-color:#CA91BE;stop-opacity:1" />
      <stop
         id="stop52218"
         offset="1"
         style="stop-color:#BA3E91;stop-opacity:1" />
    </linearGradient>
    <linearGradient
       gradientUnits="userSpaceOnUse"
       y2="1414.9895"
       x2="902.46313"
       y1="287.33099"
       x1="894.495"
       id="linearGradient52222"
       xlink:href="#linearGradient52220" />
  </defs>
  <path
     d="m560.95 1412.7h74.09l247.37-479.88 203.5 479.88h71.33l422.78-972.73c23.7-54.57 69.9-87.34 119-94.76v-57.933h-341.86v57.953c45.36 10.09 93.51 27.09 114.92 74.961l-310.44 716.06c-56.12-119.35-113.66-249.77-168.58-379.92 56.685-120.43 102.98-232.29 172.52-342.22 40.656-64.68 106.63-66.2 140.63-69.38v-57.45h-363.4v57.45c45.34.045 139.69 4.078 97.62 92.49l-105.39 221.59-111.63-246.49c-17.379-38.38 16.38-63.95 71.49-66.997l-.405-57.993h-408.98v57.45c48.728 1.601 117.43 1.34 142.79 42.655 78.09 143.45 130.3 292.46 201.49 438.72l-184.22 344.49-309.64-711.78c-34.892-80.21 47.945-106.05 101.76-112.75l-.605-58.794h-436.06v57.45c60.21 19.908 137.88 109.48 159.56 154.81 162.89 340.7 244.91 569.12 400.39 913.18z"
     id="path10590"
     style="fill:url(#linearGradient52222);fill-opacity:1" />
</svg>
