<?xml version="1.0" encoding="UTF-8" standalone="no"?>
<svg
   height="760"
   width="760"
   viewBox="-35.20005 -41.33325 193.20917 235.59952"
   version="1.1"
   id="svg6"
   xmlns:xlink="http://www.w3.org/1999/xlink"
   xmlns="http://www.w3.org/2000/svg"
   xmlns:svg="http://www.w3.org/2000/svg">
  <defs
     id="defs10">
    <linearGradient
       id="linearGradient3167">
      <stop
         style="stop-color:#BA3E91;stop-opacity:1"
         offset="0"
         id="stop3163" />
      <stop
         style="stop-color:#CA91BE;stop-opacity:0.99830824"
         offset="1"
         id="stop3165" />
    </linearGradient>
    <linearGradient
       xlink:href="#linearGradient3167"
       id="linearGradient3169"
       x1="430.0751"
       y1="645.29089"
       x2="421.37943"
       y2="113.6138"
       gradientUnits="userSpaceOnUse" />
  </defs>
  <path
     id="path2"
     style="fill:url(#linearGradient3169);fill-opacity:1;stroke-width:3.22581"
     d="M 379.99805 113.33398 C 379.99805 113.33398 143.28238 113.33325 84.25 129.25586 C 51.678966 138.01717 26.027462 163.83257 17.324219 196.61328 C 1.5048317 256.03276 1.5039062 380.00195 1.5039062 380.00195 C 1.5039062 380.00195 1.5048317 503.9692 17.324219 563.38867 C 26.027462 596.16938 51.678966 621.98351 84.25 630.74805 C 143.28238 646.66743 379.99805 646.66602 379.99805 646.66602 C 379.99805 646.66602 616.71762 646.66743 675.75 630.74805 C 708.32103 621.98351 733.96931 596.16684 742.67578 563.39258 C 758.49517 503.96665 758.49609 380.00195 758.49609 380.00195 C 758.49609 380.00195 758.49517 256.03276 742.67578 196.61328 C 733.96931 163.83257 708.32103 138.01717 675.75 129.25586 C 616.71762 113.33325 379.99805 113.33398 379.99805 113.33398 z M 281.07422 267.44727 L 478.92578 380.00391 L 281.07422 492.55273 L 281.07422 267.44727 z "
     transform="matrix(0.30999937,0,0,0.30999937,-56.395225,-41.33325)" />
</svg>
