<?xml version="1.0" encoding="UTF-8" standalone="no"?>
<!-- Generator: Adobe Illustrator 16.0.4, SVG Export Plug-In . SVG Version: 6.00 Build 0)  -->

<svg
   xmlns:dc="http://purl.org/dc/elements/1.1/"
   xmlns:cc="http://creativecommons.org/ns#"
   xmlns:rdf="http://www.w3.org/1999/02/22-rdf-syntax-ns#"
   xmlns:svg="http://www.w3.org/2000/svg"
   xmlns="http://www.w3.org/2000/svg"
   xmlns:xlink="http://www.w3.org/1999/xlink"
   xmlns:sodipodi="http://sodipodi.sourceforge.net/DTD/sodipodi-0.dtd"
   xmlns:inkscape="http://www.inkscape.org/namespaces/inkscape"
   id="Capa_1"
   style="enable-background:new 0 0 40.007 40.007;"
   xml:space="preserve"
   height="40.007px"
   viewBox="0 0 40.007 40.007"
   width="40.007px"
   version="1.1"
   y="0px"
   x="0px"
   sodipodi:docname="arrow-increase.svg"
   inkscape:version="0.92.2 5c3e80d, 2017-08-06"><defs
     id="defs9"><linearGradient
       inkscape:collect="always"
       id="linearGradient831"><stop
         style="stop-color:#ffffff;stop-opacity:1"
         offset="0"
         id="stop827" /><stop
         style="stop-color:#aaaaaa;stop-opacity:1"
         offset="1"
         id="stop829" /></linearGradient><radialGradient
       inkscape:collect="always"
       xlink:href="#linearGradient831"
       id="radialGradient835"
       gradientUnits="userSpaceOnUse"
       gradientTransform="matrix(-3.4152774,0.00847462,-0.00248137,-0.99999335,88.372364,39.837376)"
       cx="20.003891"
       cy="20.003517"
       fx="20.003891"
       fy="20.003517"
       r="20.003396" /></defs><sodipodi:namedview
     pagecolor="#ffffff"
     bordercolor="#666666"
     borderopacity="1"
     objecttolerance="10"
     gridtolerance="10"
     guidetolerance="10"
     inkscape:pageopacity="0"
     inkscape:pageshadow="2"
     inkscape:window-width="1166"
     inkscape:window-height="754"
     id="namedview7"
     showgrid="false"
     inkscape:zoom="5.8989677"
     inkscape:cx="-10.934116"
     inkscape:cy="20.0035"
     inkscape:window-x="586"
     inkscape:window-y="320"
     inkscape:window-maximized="0"
     inkscape:current-layer="Capa_1" /><metadata
     id="metadata42"><rdf:RDF><cc:Work
         rdf:about=""><dc:format>image/svg+xml</dc:format><dc:type
           rdf:resource="http://purl.org/dc/dcmitype/StillImage" /><dc:title></dc:title></cc:Work></rdf:RDF></metadata><path
     id="path6"
     d="M 37.324,10.004 C 31.802,0.43800031 19.569,-2.8399997 10.004,2.6830003 0.438,8.2050003 -2.84,20.438 2.684,30.004 c 5.522,9.565 17.754,12.843 27.32,7.32 9.565,-5.523 12.844,-17.755 7.32,-27.32 z m -9.32,23.855 C 20.352,38.277 10.566,35.656 6.148,28.004 1.73,20.351 4.352,10.566 12.004,6.1480003 c 7.652,-4.419 17.438,-1.797 21.856,5.8559997 4.418,7.652 1.796,17.437 -5.856,21.855 z M 21.418,15.418 c -0.391,-0.391 -0.902,-0.586 -1.414,-0.586 -0.512,0 -1.023,0.195 -1.414,0.586 l -5.657,5.656 c -0.781,0.781 -0.781,2.048 0,2.829 v -10e-4 c 0.781,0.781 2.048,0.781 2.828,0 l 4.243,-4.242 4.242,4.242 c 0.781,0.781 2.048,0.781 2.828,0 v 10e-4 c 0.781,-0.781 0.781,-2.048 0,-2.829 z"
     style="fill:url(#radialGradient835);fill-opacity:1;stroke:none"
     inkscape:connector-curvature="0" /></svg>