<?xml version="1.0" encoding="UTF-8" standalone="no"?>
<!-- Generator: Adobe Illustrator 16.0.0, SVG Export Plug-In . SVG Version: 6.00 Build 0)  -->

<svg
   xmlns:dc="http://purl.org/dc/elements/1.1/"
   xmlns:cc="http://creativecommons.org/ns#"
   xmlns:rdf="http://www.w3.org/1999/02/22-rdf-syntax-ns#"
   xmlns:svg="http://www.w3.org/2000/svg"
   xmlns="http://www.w3.org/2000/svg"
   xmlns:xlink="http://www.w3.org/1999/xlink"
   xmlns:sodipodi="http://sodipodi.sourceforge.net/DTD/sodipodi-0.dtd"
   xmlns:inkscape="http://www.inkscape.org/namespaces/inkscape"
   id="Layer_1"
   xml:space="preserve"
   height="416.98"
   viewBox="0 0 416.978 416.978"
   width="416.98"
   version="1.1"
   y="0px"
   x="0px"
   sodipodi:docname="backbutton.svg"
   inkscape:version="0.92.2 5c3e80d, 2017-08-06"><defs
     id="defs7"><linearGradient
       inkscape:collect="always"
       id="linearGradient818"><stop
         style="stop-color:#ffffff;stop-opacity:1"
         offset="0"
         id="stop814" /><stop
         style="stop-color:#aaaaaa;stop-opacity:1"
         offset="1"
         id="stop816" /></linearGradient><radialGradient
       inkscape:collect="always"
       xlink:href="#linearGradient818"
       id="radialGradient820"
       cx="208.49001"
       cy="208.49001"
       fx="208.49001"
       fy="208.49001"
       r="208.49"
       gradientUnits="userSpaceOnUse"
       gradientTransform="matrix(-3.1440478,0.00847454,-0.00269541,-0.99999637,864.55452,415.2124)" /></defs><sodipodi:namedview
     pagecolor="#ffffff"
     bordercolor="#666666"
     borderopacity="1"
     objecttolerance="10"
     gridtolerance="10"
     guidetolerance="10"
     inkscape:pageopacity="0"
     inkscape:pageshadow="2"
     inkscape:window-width="1147"
     inkscape:window-height="852"
     id="namedview5"
     showgrid="false"
     inkscape:zoom="0.56597437"
     inkscape:cx="-113.96275"
     inkscape:cy="208.49001"
     inkscape:window-x="629"
     inkscape:window-y="401"
     inkscape:window-maximized="0"
     inkscape:current-layer="Layer_1" /><metadata
     id="metadata9"><rdf:RDF><cc:Work
         rdf:about=""><dc:format>image/svg+xml</dc:format><dc:type
           rdf:resource="http://purl.org/dc/dcmitype/StillImage" /><dc:title /></cc:Work></rdf:RDF></metadata><path
     id="path3"
     d="M416.98,208.49c0-115.15-93.35-208.49-208.49-208.49-115.15,0-208.49,93.343-208.49,208.49s93.343,208.49,208.49,208.49,208.49-93.343,208.49-208.49zm-197.53,81.249-118.21-68.259c-4.641-2.68-7.499-7.631-7.499-12.99s2.858-10.31,7.499-12.99l118.21-68.259c4.641-2.68,10.359-2.68,15-0.001,4.642,2.68,7.501,7.631,7.501,12.991v33.259h66.282c8.284,0,15,6.716,15,15v40c0,8.284-6.716,15-15,15h-66.282v33.259c0,5.359-2.859,10.311-7.501,12.991-4.641,2.679-10.359,2.679-15-0.001z"
     style="fill-opacity:1;fill:url(#radialGradient820)" /></svg>