<?xml version="1.0" encoding="UTF-8" standalone="no"?>
<!-- Generator: Adobe Illustrator 16.0.0, SVG Export Plug-In . SVG Version: 6.00 Build 0)  -->

<svg
   xmlns:dc="http://purl.org/dc/elements/1.1/"
   xmlns:cc="http://creativecommons.org/ns#"
   xmlns:rdf="http://www.w3.org/1999/02/22-rdf-syntax-ns#"
   xmlns:svg="http://www.w3.org/2000/svg"
   xmlns="http://www.w3.org/2000/svg"
   xmlns:xlink="http://www.w3.org/1999/xlink"
   xmlns:sodipodi="http://sodipodi.sourceforge.net/DTD/sodipodi-0.dtd"
   xmlns:inkscape="http://www.inkscape.org/namespaces/inkscape"
   id="Layer_1"
   enable-background="new 0 0 100 100"
   xml:space="preserve"
   height="58.334"
   viewBox="0 0 58.334 58.334"
   width="58.334"
   version="1.1"
   y="0px"
   x="0px"
   sodipodi:docname="document-save.svg"
   inkscape:version="0.92.2 5c3e80d, 2017-08-06"><defs
     id="defs7"><linearGradient
       inkscape:collect="always"
       id="linearGradient818"><stop
         style="stop-color:#ffffff;stop-opacity:1"
         offset="0"
         id="stop814" /><stop
         style="stop-color:#aaaaaa;stop-opacity:1"
         offset="1"
         id="stop816" /></linearGradient><radialGradient
       inkscape:collect="always"
       xlink:href="#linearGradient818"
       id="radialGradient820"
       cx="29.167"
       cy="29.167"
       fx="29.167"
       fy="29.167"
       r="29.167"
       gradientUnits="userSpaceOnUse"
       gradientTransform="matrix(-3.8898305,-0.08474576,0.02178132,-0.99976276,141.98639,60.79886)" /></defs><sodipodi:namedview
     pagecolor="#ffffff"
     bordercolor="#666666"
     borderopacity="1"
     objecttolerance="10"
     gridtolerance="10"
     guidetolerance="10"
     inkscape:pageopacity="0"
     inkscape:pageshadow="2"
     inkscape:window-width="1417"
     inkscape:window-height="887"
     id="namedview5"
     showgrid="false"
     inkscape:zoom="4.0456681"
     inkscape:cx="-15.942978"
     inkscape:cy="29.167"
     inkscape:window-x="503"
     inkscape:window-y="111"
     inkscape:window-maximized="0"
     inkscape:current-layer="Layer_1" /><metadata
     id="metadata9"><rdf:RDF><cc:Work
         rdf:about=""><dc:format>image/svg+xml</dc:format><dc:type
           rdf:resource="http://purl.org/dc/dcmitype/StillImage" /><dc:title /></cc:Work></rdf:RDF></metadata><path
     id="path3"
     fill="#020202"
     d="M56.334,0h-54.334c-1.104,0-2,0.896-2,2v54.334c0,1.104,0.896,2,2,2h54.334c1.104,0,2-0.896,2-2v-54.334c0-1.104-0.896-2-2-2zm-45.167,3.001h36v16.833h-36v-16.833zm37.751,51.083h-39.5v-24.917h39.5v24.917zm-11.917-48.583h5.001v12.001h-5.001v-12.001zm8.291,29.833h-32.25v-2h32.25v2zm0,7h-32.25v-2h32.25v2zm0,6.75h-32.25v-2h32.25v2z"
     style="fill-opacity:1;fill:url(#radialGradient820)" /></svg>