<?xml version="1.0" encoding="UTF-8" standalone="no"?>
<!-- Generator: Adobe Illustrator 18.0.0, SVG Export Plug-In . SVG Version: 6.00 Build 0)  -->

<svg
   xmlns:dc="http://purl.org/dc/elements/1.1/"
   xmlns:cc="http://creativecommons.org/ns#"
   xmlns:rdf="http://www.w3.org/1999/02/22-rdf-syntax-ns#"
   xmlns:svg="http://www.w3.org/2000/svg"
   xmlns="http://www.w3.org/2000/svg"
   xmlns:xlink="http://www.w3.org/1999/xlink"
   xmlns:sodipodi="http://sodipodi.sourceforge.net/DTD/sodipodi-0.dtd"
   xmlns:inkscape="http://www.inkscape.org/namespaces/inkscape"
   version="1.1"
   id="Capa_1"
   x="0px"
   y="0px"
   width="128px"
   height="128px"
   viewBox="0 0 128 128"
   enable-background="new 0 0 128 128"
   xml:space="preserve"
   sodipodi:docname="pushbutton.svg"
   inkscape:version="0.92.2 5c3e80d, 2017-08-06"><metadata
     id="metadata13"><rdf:RDF><cc:Work
         rdf:about=""><dc:format>image/svg+xml</dc:format><dc:type
           rdf:resource="http://purl.org/dc/dcmitype/StillImage" /></cc:Work></rdf:RDF></metadata><defs
     id="defs11"><linearGradient
       inkscape:collect="always"
       id="linearGradient837"><stop
         style="stop-color:#ffffff;stop-opacity:1"
         offset="0"
         id="stop833" /><stop
         style="stop-color:#aaaaaa;stop-opacity:1"
         offset="1"
         id="stop835" /></linearGradient><radialGradient
       inkscape:collect="always"
       xlink:href="#linearGradient837"
       id="radialGradient839"
       cx="64"
       cy="64"
       fx="64"
       fy="64"
       r="62"
       gradientTransform="matrix(-3.2165494,0.00881944,-0.00276449,-1.0082354,270.03609,127.96262)"
       gradientUnits="userSpaceOnUse" /></defs><sodipodi:namedview
     pagecolor="#ffffff"
     bordercolor="#666666"
     borderopacity="1"
     objecttolerance="10"
     gridtolerance="10"
     guidetolerance="10"
     inkscape:pageopacity="0"
     inkscape:pageshadow="2"
     inkscape:window-width="1281"
     inkscape:window-height="911"
     id="namedview9"
     showgrid="false"
     inkscape:zoom="1.84375"
     inkscape:cx="-34.983051"
     inkscape:cy="64"
     inkscape:window-x="692"
     inkscape:window-y="191"
     inkscape:window-maximized="0"
     inkscape:current-layer="Capa_1" /><g
     id="g823"
     style="stroke:none;fill-opacity:1;fill:url(#radialGradient839)"><path
       id="path2"
       d="M114,8H14C7.4,8,2,13.4,2,20s5.4,12,12,12h100c6.6,0,12-5.4,12-12S120.6,8,114,8z"
       style="stroke:none;fill-opacity:1;fill:url(#radialGradient839)" /><path
       id="path4"
       d="M114,52H14C7.4,52,2,57.4,2,64s5.4,12,12,12h100c6.6,0,12-5.4,12-12S120.6,52,114,52z"
       style="stroke:none;fill-opacity:1;fill:url(#radialGradient839)" /><path
       id="path6"
       d="M114,96H14c-6.6,0-12,5.4-12,12s5.4,12,12,12h100c6.6,0,12-5.4,12-12S120.6,96,114,96z"
       style="stroke:none;fill-opacity:1;fill:url(#radialGradient839)" /></g></svg>