<?xml version="1.0" encoding="UTF-8" standalone="no"?>
<!-- Generator: Adobe Illustrator 16.0.4, SVG Export Plug-In . SVG Version: 6.00 Build 0)  -->

<svg
   xmlns:dc="http://purl.org/dc/elements/1.1/"
   xmlns:cc="http://creativecommons.org/ns#"
   xmlns:rdf="http://www.w3.org/1999/02/22-rdf-syntax-ns#"
   xmlns:svg="http://www.w3.org/2000/svg"
   xmlns="http://www.w3.org/2000/svg"
   xmlns:xlink="http://www.w3.org/1999/xlink"
   xmlns:sodipodi="http://sodipodi.sourceforge.net/DTD/sodipodi-0.dtd"
   xmlns:inkscape="http://www.inkscape.org/namespaces/inkscape"
   id="Capa_1"
   enable-background="new 0 0 512 512"
   xml:space="preserve"
   height="512px"
   viewBox="0 0 512 512"
   width="512px"
   version="1.1"
   y="0px"
   x="0px"
   sodipodi:docname="spinner.svg"
   inkscape:version="0.92.2 5c3e80d, 2017-08-06"><defs
     id="defs7"><linearGradient
       inkscape:collect="always"
       id="linearGradient818"><stop
         style="stop-color:#ffffff;stop-opacity:1"
         offset="0"
         id="stop814" /><stop
         style="stop-color:#aaaaaa;stop-opacity:1"
         offset="1"
         id="stop816" /></linearGradient><radialGradient
       inkscape:collect="always"
       xlink:href="#linearGradient818"
       id="radialGradient820"
       cx="256"
       cy="256"
       fx="256"
       fy="256"
       r="256"
       gradientUnits="userSpaceOnUse"
       gradientTransform="matrix(-3.3389831,0.00847458,-0.00253806,-0.99999678,1111.4294,509.82968)" /></defs><sodipodi:namedview
     pagecolor="#ffffff"
     bordercolor="#666666"
     borderopacity="1"
     objecttolerance="10"
     gridtolerance="10"
     guidetolerance="10"
     inkscape:pageopacity="0"
     inkscape:pageshadow="2"
     inkscape:window-width="1300"
     inkscape:window-height="911"
     id="namedview5"
     showgrid="false"
     inkscape:zoom="0.4609375"
     inkscape:cx="-139.9322"
     inkscape:cy="256"
     inkscape:window-x="744"
     inkscape:window-y="268"
     inkscape:window-maximized="0"
     inkscape:current-layer="Capa_1" /><metadata
     id="metadata9"><rdf:RDF><cc:Work
         rdf:about=""><dc:format>image/svg+xml</dc:format><dc:type
           rdf:resource="http://purl.org/dc/dcmitype/StillImage" /><dc:title /></cc:Work></rdf:RDF></metadata><path
     id="path3"
     d="M256,0c-139.37,0-252.73,111.38-255.92,249.99,2.96-120.93,94.916-217.99,207.92-217.99,114.88,0,208,100.29,208,224,0,26.51,21.49,48,48,48s48-21.49,48-48c0-141.38-114.62-256-256-256zm0,512c139.37,0,252.73-111.38,255.92-249.99-2.96,120.93-94.91,217.99-207.92,217.99-114.88,0-208-100.29-208-224,0-26.51-21.49-48-48-48s-48,21.49-48,48c0,141.38,114.62,256,256,256z"
     style="fill-opacity:1;fill:url(#radialGradient820)" /></svg>