<?xml version="1.0" encoding="UTF-8" standalone="no"?>
<svg
   xmlns:dc="http://purl.org/dc/elements/1.1/"
   xmlns:cc="http://creativecommons.org/ns#"
   xmlns:rdf="http://www.w3.org/1999/02/22-rdf-syntax-ns#"
   xmlns:svg="http://www.w3.org/2000/svg"
   xmlns="http://www.w3.org/2000/svg"
   xmlns:xlink="http://www.w3.org/1999/xlink"
   xmlns:sodipodi="http://sodipodi.sourceforge.net/DTD/sodipodi-0.dtd"
   xmlns:inkscape="http://www.inkscape.org/namespaces/inkscape"
   version="1.0"
   inkscape:output_extension="org.inkscape.output.svg.inkscape"
   sodipodi:docname="tick.svg"
   inkscape:version="1.0beta2 (2b71d25, 2019-12-03)"
   sodipodi:version="0.32"
   id="svg2"
   height="190"
   width="190">
  <defs
     id="defs4">
    <linearGradient
       id="linearGradient827"
       inkscape:collect="always">
      <stop
         id="stop823"
         offset="0"
         style="stop-color:#ffffff;stop-opacity:1" />
      <stop
         id="stop825"
         offset="1"
         style="stop-color:#aaaaaa;stop-opacity:1" />
    </linearGradient>
    <inkscape:perspective
       id="perspective10"
       inkscape:persp3d-origin="372.04724 : 350.78739 : 1"
       inkscape:vp_z="744.09448 : 526.18109 : 1"
       inkscape:vp_y="0 : 1000 : 0"
       inkscape:vp_x="0 : 526.18109 : 1"
       sodipodi:type="inkscape:persp3d" />
    <inkscape:perspective
       sodipodi:type="inkscape:persp3d"
       inkscape:vp_x="0 : 526.18109 : 1"
       inkscape:vp_y="0 : 1000 : 0"
       inkscape:vp_z="744.09448 : 526.18109 : 1"
       inkscape:persp3d-origin="372.04724 : 350.78739 : 1"
       id="perspective3331" />
    <inkscape:perspective
       id="perspective2502"
       inkscape:persp3d-origin="372.04724 : 350.78739 : 1"
       inkscape:vp_z="744.09448 : 526.18109 : 1"
       inkscape:vp_y="0 : 1000 : 0"
       inkscape:vp_x="0 : 526.18109 : 1"
       sodipodi:type="inkscape:persp3d" />
    <inkscape:perspective
       sodipodi:type="inkscape:persp3d"
       inkscape:vp_x="0 : 526.18109 : 1"
       inkscape:vp_y="0 : 1000 : 0"
       inkscape:vp_z="744.09448 : 526.18109 : 1"
       inkscape:persp3d-origin="372.04724 : 350.78739 : 1"
       id="perspective2504" />
    <inkscape:perspective
       id="perspective2448"
       inkscape:persp3d-origin="372.04724 : 350.78739 : 1"
       inkscape:vp_z="744.09448 : 526.18109 : 1"
       inkscape:vp_y="0 : 1000 : 0"
       inkscape:vp_x="0 : 526.18109 : 1"
       sodipodi:type="inkscape:persp3d" />
    <inkscape:perspective
       sodipodi:type="inkscape:persp3d"
       inkscape:vp_x="0 : 526.18109 : 1"
       inkscape:vp_y="0 : 1000 : 0"
       inkscape:vp_z="744.09448 : 526.18109 : 1"
       inkscape:persp3d-origin="372.04724 : 350.78739 : 1"
       id="perspective2409" />
    <inkscape:perspective
       sodipodi:type="inkscape:persp3d"
       inkscape:vp_x="0 : 526.18109 : 1"
       inkscape:vp_y="0 : 1000 : 0"
       inkscape:vp_z="744.09448 : 526.18109 : 1"
       inkscape:persp3d-origin="372.04724 : 350.78739 : 1"
       id="perspective2407" />
    <radialGradient
       r="84.999993"
       fy="140.66297"
       fx="501.32771"
       cy="140.66297"
       cx="501.32771"
       gradientTransform="matrix(1.0613237,0,0,1.0978758,-18.361528,-4.6314485)"
       gradientUnits="userSpaceOnUse"
       id="radialGradient830"
       xlink:href="#linearGradient827"
       inkscape:collect="always" />
    <radialGradient
       r="84.999993"
       fy="140.66297"
       fx="501.32771"
       cy="140.66297"
       cx="501.32771"
       gradientTransform="matrix(1.0613237,0,0,1.0978758,-18.361528,-4.6314485)"
       gradientUnits="userSpaceOnUse"
       id="radialGradient832"
       xlink:href="#linearGradient827"
       inkscape:collect="always" />
  </defs>
  <sodipodi:namedview
     inkscape:document-rotation="0"
     inkscape:window-maximized="0"
     inkscape:window-y="22"
     inkscape:window-x="0"
     inkscape:window-height="856"
     inkscape:window-width="1440"
     showgrid="false"
     inkscape:current-layer="layer1"
     inkscape:document-units="px"
     inkscape:cy="77.564103"
     inkscape:cx="109.35897"
     inkscape:zoom="1.95"
     inkscape:pageshadow="2"
     inkscape:pageopacity="0.0"
     objecttolerance="10"
     guidetolerance="10"
     gridtolerance="10000"
     borderopacity="1.0"
     bordercolor="#666666"
     pagecolor="#ffffff"
     id="base" />
  <metadata
     id="metadata7">
    <rdf:RDF>
      <cc:Work
         rdf:about="">
        <dc:format>image/svg+xml</dc:format>
        <dc:type
           rdf:resource="http://purl.org/dc/dcmitype/StillImage" />
      </cc:Work>
    </rdf:RDF>
  </metadata>
  <g
     transform="translate(-420.77288,-52.735596)"
     style="display:inline"
     id="layer1"
     inkscape:groupmode="layer"
     inkscape:label="Layer 1">
    <g
       transform="translate(-12.64781,14.003122)"
       id="g1555">
      <path
         inkscape:connector-curvature="0"
         id="path3172"
         d="m 474.61102,143.23628 c 3.86281,1e-4 8.05016,-0.94303 10.03121,5.39598 3.96184,11.88589 6.78473,17.82876 8.46862,17.82871 1.28754,5e-5 3.25743,-3.52129 4.6442,-5.50233 27.19974,-47.41888 43.46154,-66.705431 67.13422,-94.24105 6.14083,-7.131272 13.82133,-10.208608 27.19305,-10.208809 3.16937,2.01e-4 7.37466,-0.191082 8.46436,0.403014 4.79541,2.208711 4.42015,7.328977 -0.73771,13.880044 -36.96741,46.274931 -64.51771,83.736051 -98.78533,134.844911 -2.27822,3.56577 -8.83162,5.34864 -15.86399,5.34861 -7.13153,3e-5 -11.3411,-0.29711 -12.62863,-0.89145 -3.36772,-1.48567 -7.32965,-9.06287 -11.88582,-22.73159 -5.15056,-15.15434 -7.72583,-24.66296 -7.72578,-28.52592 -5e-5,-4.15995 3.46664,-8.17141 10.40007,-12.03438 4.25904,-2.37707 8.02286,-3.56564 11.29153,-3.56574"
         style="font-style:normal;font-variant:normal;font-weight:normal;font-stretch:normal;font-size:12px;font-family:Webdings;-inkscape-font-specification:Webdings;fill:url(#radialGradient830);fill-opacity:1;stroke:none;stroke-width:1.06132px;stroke-linecap:butt;stroke-linejoin:miter;stroke-opacity:1"
         sodipodi:nodetypes="ccsccscccsccscc" />
      <path
         inkscape:connector-curvature="0"
         style="font-style:normal;font-variant:normal;font-weight:normal;font-stretch:normal;font-size:12px;font-family:Webdings;-inkscape-font-specification:Webdings;fill:url(#radialGradient832);fill-opacity:1;stroke:none;stroke-width:1.06132px;stroke-linecap:butt;stroke-linejoin:miter;stroke-opacity:1"
         d="m 476.27606,146.53032 c 3.52195,9e-5 6.18603,2.88992 7.99225,8.66956 3.61225,10.83702 6.18603,16.25548 7.72132,16.25543 1.17393,5e-5 2.39311,-0.90302 3.6575,-2.70924 25.37642,-40.63849 48.85648,-73.510549 70.44021,-98.616323 5.59894,-6.501986 14.49426,-9.753077 26.686,-9.75326 2.8897,1.83e-4 4.83132,0.271093 5.82487,0.812763 0.99321,0.542023 1.48992,1.219338 1.4901,2.031943 -1.8e-4,1.264481 -1.49026,3.747958 -4.47026,7.450413 -34.85904,41.903024 -67.18926,86.153904 -96.99076,132.752724 -2.07718,3.25111 -6.32164,4.87667 -12.73344,4.87664 -6.50223,3e-5 -10.34032,-0.27091 -11.51425,-0.81279 -3.07053,-1.35457 -6.68285,-8.26313 -10.83696,-20.72566 -4.69606,-13.81708 -7.04408,-22.48662 -7.04403,-26.00871 -5e-5,-3.79285 3.16074,-7.45033 9.48233,-10.97241 3.8832,-2.16732 7.3149,-3.25099 10.29512,-3.25108"
         id="path3338" />
    </g>
  </g>
</svg>
